<svg xmlns="http://www.w3.org/2000/svg" viewBox="0 0 139.81 92.71"><title>Asset 3</title><g id="Layer_2" data-name="Layer 2"><g id="Layer_1-2" data-name="Layer 1"><path d="M84.76,50.62h0Z"/><polygon points="85.72 87.38 85.72 87.38 85.72 87.38 85.72 87.38"/><path d="M30.38,34.36l.05,0,0,0Z"/><path d="M83.11,47.66h0l0,0Z"/><path d="M58.77,25.09v0Z"/><path d="M41.68,34.92l0,0,0,0Z"/><path d="M65.71,59l0,0,0,0Z"/><polygon points="114.43 49.14 114.43 49.14 114.43 49.14 114.44 49.14 114.43 49.13 114.43 49.13 114.43 49.13 114.43 49.14"/><path d="M40.2,76.59l0,0,.05,0Z"/><path d="M48.48,40.33c0-.11.05-.23.08-.34h0A2.37,2.37,0,0,0,48.48,40.33Z"/><path d="M75.54,50.26h-.09s0,0,0,0Z"/><path d="M63.41,56.86l.5,1.28.27,0Z"/><path d="M130,50.43c-.17.78-.34,1.56-.52,2.34l.09,0a4.19,4.19,0,0,0,.73-2.12c0-.47.22-.71.69-.93a13.86,13.86,0,0,1-.61,2.52l.09-.06c.09,0,.17-.1.19-.16.23-.95.42-1.9.63-2.84a4.64,4.64,0,0,0-1.13.92A.78.78,0,0,0,130,50.43Z"/><path d="M84.76,42.22h0Z"/><path d="M85.88,42.16c1.51-.19,3-.37,4.54-.52.71-.07,1.42,0,2.12-.06a28.64,28.64,0,0,0-7.78.64c.14.05.27.16.39.14S85.63,42.19,85.88,42.16Z"/><path d="M114.24,46c-.09.13-.19.21-.21.31-.24,1.4-.47,2.81-.71,4.27A15.12,15.12,0,0,0,114.24,46Z"/><path d="M112.45,47.69c-.15,1.11-.3,2.21-.46,3.32l.15,0A10.4,10.4,0,0,0,112.45,47.69Z"/><path d="M100.81,40.8a2.28,2.28,0,0,0,.3-.07l2.7-1.22.07,0a.52.52,0,0,1,0-.11A6.83,6.83,0,0,0,100.81,40.8Z"/><path d="M105.65,38.66c-.14.05-.29.1-.42.16a.42.42,0,0,1,.1.17l1.55-.52a.29.29,0,0,1,0-.09A5.59,5.59,0,0,0,105.65,38.66Z"/><path d="M118.12,51.52a.76.76,0,0,0,.08.11,18,18,0,0,0,2.45-1.72l-.1-.12Z"/><path d="M121.31,59.27l.15,0,.63-2.43-.15,0Z"/><path d="M110.42,79.59l.06.15,2.25-.93-.06-.13A18.25,18.25,0,0,0,110.42,79.59Z"/><path d="M115,53.79l0,0h0l0,0h0Z"/><path d="M116.82,52.49v-.05A5.22,5.22,0,0,0,115,53.79c.37-.21.75-.41,1.09-.65A7.9,7.9,0,0,0,116.82,52.49Z"/><path d="M90.68,82.58c.51.15.94.5,1.44.67a.38.38,0,0,1,0-.15l-1.47-.76a.62.62,0,0,0-.24,0C90.5,82.42,90.58,82.55,90.68,82.58Z"/><path d="M108.13,38a.43.43,0,0,1,0,.11L109,38a.31.31,0,0,1-.06-.13A3.44,3.44,0,0,0,108.13,38Z"/><path d="M102.05,69.94l.07.11,1-.55-.06-.13Z"/><path d="M114.43,49.14c-.05.39-.1.77-.16,1.16A1.12,1.12,0,0,0,114.43,49.14Z"/><path d="M8.71,58.62,7,58.2a.83.83,0,0,1,0,.15c.44.12.87.26,1.32.37q1.52.36,3,.69a5.56,5.56,0,0,0,.7.08,1.23,1.23,0,0,0-.25-.14Z"/><path d="M27.24,59.42a11.85,11.85,0,0,1-1.57.47l-.25.09.06.13a3.7,3.7,0,0,0,.89-.06c.74-.18,1.45-.43,2.17-.65C28.11,59.44,27.7,59.21,27.24,59.42Z"/><path d="M12,59.5h0l0,0h.06l0,0Z"/><path d="M12.35,59.62c.83.17,1.66.34,2.49.49a6.53,6.53,0,0,0,.76.08v0a19,19,0,0,0-3.51-.63A.77.77,0,0,0,12.35,59.62Z"/><path d="M34.24,53.59a.61.61,0,0,0-.05-.12l-.8.34s0,.08,0,.11Z"/><polygon points="32.59 51.11 32.59 51.11 32.6 51.12 32.6 51.11 32.59 51.11 32.59 51.11"/><path d="M31.4,51.35l1.19-.24A1.28,1.28,0,0,0,31.4,51.35Z"/><path d="M89.34,60a.41.41,0,0,1,0-.11h0c-.79-.13-1.59-.22-2.38-.37s-1.53-.32-2.29-.49c0,0,0,0,0,.06l0,.08c.78.21,1.56.43,2.36.57S88.54,59.87,89.34,60Z"/><path d="M83.08,58.63a.4.4,0,0,1,.08-.16l-2.81-1.12a.34.34,0,0,1-.11.17,20.86,20.86,0,0,0,2.83,1.13S83.08,58.64,83.08,58.63Z"/><path d="M53.56,81.19h0l0-.05,0,0Z"/><path d="M53.64,81.13,55,80A2.68,2.68,0,0,0,53.64,81.13Z"/><path d="M55,80h.05v0l0,0-.05,0Z"/><path d="M52.54,82l1-.78A1.78,1.78,0,0,0,52.54,82Z"/><path d="M52.5,82l0,0-.06,0Z"/><path d="M52.5,82h0l-.06.06Z"/><path d="M52,82.58l.45-.51-.56.39Z"/><path d="M81,36.66h0l0,0h0Z"/><path d="M88.42,49.6a16.79,16.79,0,0,0,3,.71A7.5,7.5,0,0,0,88.42,49.6Z"/><path d="M84,47.94l-.77-.23.73.34A.49.49,0,0,0,84,47.94Z"/><path d="M83.11,47.66v0l.1,0Z"/><path d="M55.14,19.61c.12,1.36.24,2.71.37,4.07a1,1,0,0,0,.16.33c-.09-.94-.19-1.88-.28-2.83-.07-.64-.16-1.27-.19-1.91-.05-1.34-.07-2.67-.11-4H55L55,18.65C55.05,19,55.11,19.29,55.14,19.61Z"/><path d="M55.68,24.07v0h0a0,0,0,0,0,0,0v.06Z"/><path d="M55.84,24.75c-.05-.22-.11-.45-.16-.68C55.65,24.31,55.57,24.56,55.84,24.75Z"/><path d="M44.21,57.6c-.37,0-.52.37-.76.57l.09.1Z"/><path d="M44.24,57.57l.48-.39C44.52,57.27,44.14,57.2,44.24,57.57Z"/><path d="M44.24,57.57h0l0,0h0A0,0,0,0,1,44.24,57.57Z"/><path d="M62.78,41.89l0,0h0a.14.14,0,0,0,0,.06.1.1,0,0,1,0,0Z"/><path d="M63.65,40.42c-.29.5-.82.84-.87,1.47A3.71,3.71,0,0,0,63.65,40.42Z"/><path d="M85.83,87.94c.48.46,1,.93,1.44,1.39a2.26,2.26,0,0,0,.42.26l.11-.13a7.65,7.65,0,0,1-.69-.56c-.48-.5-.93-1-1.39-1.52A.43.43,0,0,0,85.83,87.94Z"/><polygon points="85.72 87.38 85.72 87.38 85.72 87.38 85.72 87.38"/><path d="M84.17,78.22c-.1-.47-.19-.83-.27-1.19A1.4,1.4,0,0,0,84.17,78.22Z"/><path d="M83.9,77v0h0v0Z"/><path d="M40.4,76.59c.62-.38,1.22-.78,1.83-1.17l-.08-.13a8.37,8.37,0,0,0-1.92,1.31C40.29,76.6,40.36,76.62,40.4,76.59Z"/><path d="M40.2,76.59v0h0Z"/><path d="M42.89,75l2-.69C44,74.06,43.48,74.67,42.89,75Z"/><path d="M45,76.47l.79-.44a.93.93,0,0,0,0-.1l-.84.41A1.13,1.13,0,0,1,45,76.47Z"/><path d="M42.52,73.94l-.74.41,0,.1.75-.36Z"/><path d="M43.67,77.11l.07.12.78-.48-.1-.11Z"/><path d="M66.52,59.72l-.74-.67.62.79Z"/><path d="M65.71,59v0l.08.07Z"/><path d="M70.51,60.67v0h0v0h0Z"/><path d="M71.14,61.39l.11-.1-.74-.62C70.57,61.05,70.92,61.17,71.14,61.39Z"/><path d="M58.77,25.09h0v0A.06.06,0,0,1,58.77,25.09Z"/><path d="M58.84,21.38h-.11c0,1.23,0,2.45.05,3.67a2.8,2.8,0,0,0,.13-.64C58.9,23.4,58.86,22.39,58.84,21.38Z"/><path d="M29.2,33.61a.83.83,0,0,1-.07.13l1.22.59A2.4,2.4,0,0,0,29.2,33.61Z"/><path d="M30.38,34.36h0l0,0Z"/><path d="M36,22.25v0h0l0,.05,0-.06S36,22.26,36,22.25Z"/><path d="M70.06,58.16a1.09,1.09,0,0,0,.87.41C70.67,58.36,70.44,58.11,70.06,58.16Z"/><path d="M41.68,34.92h0l-.05-.06Z"/><path d="M58.22,65.8c.25-.59-.1-1-.09-1.56H58a.65.65,0,0,0,0,.19,3,3,0,0,1,0,1.33,1.23,1.23,0,0,0,.41,1.17C58.33,66.54,58.1,66.1,58.22,65.8Z"/><path d="M58.76,74c-.12-.35-.25-.7-.37-1.06A.77.77,0,0,0,58.76,74Z"/><path d="M101.26,65l.09.11.33-.44-.05,0Z"/><path d="M100.72,65.79l.07.07c.1-.1.19-.21.29-.32l-.06-.06Z"/><path d="M98.32,80.34l0,0h0v0s0,0,0,0h0v0Z"/><path d="M99.41,80.57l-1.09-.23A1.15,1.15,0,0,0,99.41,80.57Z"/><path d="M95.07,62.55c.28-.29.57-.58.86-.86a1.15,1.15,0,0,0-.88.86c-.41.07-.55.42-.73.73l.75-.73Z"/><path d="M139.6,56.38c-.11-.43-.17-.87-.31-1.29A23.29,23.29,0,0,0,137,51.56,3.39,3.39,0,0,1,135.6,48a4.19,4.19,0,0,0-3.13-4.8,17,17,0,0,0-2.13-.26,2.42,2.42,0,0,1-2-1c-.49-.7-1-1.42-1.4-2.15a4.09,4.09,0,0,0-2.52-1.85,10,10,0,0,0-5.1,0c-.91.25-1.79.6-2.69.91a2.87,2.87,0,0,1-3.43-.71,6.24,6.24,0,0,0-2.09-1.47,6.45,6.45,0,0,0-5.33-.3,44.64,44.64,0,0,0-4.08,1.93c-.86.44-1.63,1.07-2.48,1.54A4.14,4.14,0,0,1,95,40a12,12,0,0,0-1.22-.66A5.62,5.62,0,0,0,92,38.73a8.65,8.65,0,0,0-3.51,0s-.07,0-.14-.1c.15-.12.27-.25.42-.35a30.92,30.92,0,0,0,4-3.07A25,25,0,0,0,96,31.85c1-1.33,1.91-2.72,2.91-4.05.25-.34.51-.66.77-1a13.91,13.91,0,0,1,1.75-2.64,11.12,11.12,0,0,1,1.64-1.65.48.48,0,0,0-.24-.16,2.38,2.38,0,0,0-.87-.15,23,23,0,0,0-2.5.23c-2.07.37-4.14.82-6.21,1.17a46.47,46.47,0,0,0-5.22,1.21c-.72.21-1.44.39-2.29.62l.92-1.37c.6-.88,1.24-1.74,1.76-2.66.68-1.21,1.3-2.46,1.86-3.73.1-.23.2-.47.29-.7.12-.48.24-.95.35-1.43a17.52,17.52,0,0,0,.27-3.07L91,12.36a1.49,1.49,0,0,1-.49.28,13.71,13.71,0,0,0-3.67,1.45c-1.25.61-2.46,1.31-3.68,1.95l-3.54,1.79A3,3,0,0,1,79,18a21.64,21.64,0,0,1,1.67-5.93,10,10,0,0,0-3.89.58,35.69,35.69,0,0,1-4,1.49c-.33.19-.66.39-1,.57-.68.38-1.37.74-2.11,1.13,0-.26,0-.44,0-.62,0-.91,0-1.81-.06-2.71,0-.51-.17-1-.18-1.52a19.32,19.32,0,0,1,.17-4.23.8.8,0,0,0,0-.53l-.16.06c-1,.39-2,.73-3,1.14l-.84.36-1,.5a15,15,0,0,0-5.06,3.94c-.25.31-.52.62-.82,1-.33-.82-.66-1.54-.93-2.28C57,8.51,56.15,6.11,55.3,3.7,55.11,3.16,55,2.6,54.79,2S54.44.94,54.25.39C54.19.22,54.12.05,54,0c-.13.25-.27.48-.41.72-.49.81-1,1.61-1.49,2.41-.25.41-.53.81-.81,1.2l-.2.42a54.06,54.06,0,0,0-2.88,7.16c-.11.35-.21.7-.34,1.1l-.22-.23a15.56,15.56,0,0,0-4-3.71,4.54,4.54,0,0,1-1.41-1.31.73.73,0,0,0-.45-.34c-.27.49-.58,1-.85,1.42s-.5.85-.74,1.28q-.84,2.66-1.65,5.31c-.18.61-.33,1.23-.53,1.95a16.89,16.89,0,0,0-2.08-2.73,15.07,15.07,0,0,0-2.77-2.41,41.49,41.49,0,0,1-5.59-4.47c-.34-.34-.61-.42-.87-.27a5.62,5.62,0,0,1,.39.82,10.58,10.58,0,0,1,.57,2.91,10.39,10.39,0,0,1-.21,4,21.37,21.37,0,0,0,.5,3.65c.08.33.11.67.17,1a.87.87,0,0,1-.27,0c-.85-.46-1.71-.92-2.56-1.4-.4-.23-.78-.49-1.2-.71-.25-.14-.39-.19-.56-.13.39.73.76,1.47,1.14,2.21,1.15,1.75,2.26,3.53,3.38,5.3a8.39,8.39,0,0,1,1.07,2.31,16,16,0,0,0,1.57,3.63c.25.45.51.9.77,1.35l-.11.11-.62-.39c-.4-.27-.79-.55-1.2-.81a41.11,41.11,0,0,0-4.91-2.6A15.93,15.93,0,0,0,20,27.35a42.48,42.48,0,0,0-4.5-.29,28.12,28.12,0,0,0-4.77.44,6.08,6.08,0,0,0-.8.24c-.37.11-.75.22-1.13.3a1.07,1.07,0,0,0-.37.12,3.33,3.33,0,0,1,1.44.39,12.73,12.73,0,0,1,1.7,1.24c.42.34.87.65,1.3,1a14.9,14.9,0,0,1,2.41,2.16c1.1,1.07,2.27,2.06,3.34,3.15a10.86,10.86,0,0,1,2.31,2.38c.06.11.22.17.32.26a20.45,20.45,0,0,1,2,1.79A34.42,34.42,0,0,0,29.52,46c.21.15.4.34.62.53-1.68.33-3.3.56-4.86,1-2.17.58-4.32,1.24-6.44,2a80.65,80.65,0,0,0-7.47,3A18.1,18.1,0,0,1,8,54.26c-2.34.94-5.58,2-8,.81a2.12,2.12,0,0,0,1,1.41l1.46,1.18a15.07,15.07,0,0,0,1.42,1.11,31.68,31.68,0,0,0,3.23,1.77A48.54,48.54,0,0,0,15,63.36a31.41,31.41,0,0,0,6,.94,22.25,22.25,0,0,0,2.57.14A26.39,26.39,0,0,0,27.9,64c1-.23,2-.37,3-.59a28.58,28.58,0,0,0,5.37-2,1.21,1.21,0,0,1,.79-.21c-.09.13-.13.21-.19.28a13.44,13.44,0,0,0-2.27,3.49,3.77,3.77,0,0,0,.37,4,8.31,8.31,0,0,0,3.35,2.75c.38.18.75.41,1.18.64a5.05,5.05,0,0,1-.41.34,4,4,0,0,0-1.59,2,2.78,2.78,0,0,0-.33,1.75,4.34,4.34,0,0,0,2.07,3.13c1.13.65,1.17,1.2.25,2.1a5.64,5.64,0,0,0-1.12,1.74,1.41,1.41,0,0,0,0,1.28,11.16,11.16,0,0,0,1.39,2A4.9,4.9,0,0,0,42.05,88a16.89,16.89,0,0,0,2.85.86,22.35,22.35,0,0,0,3.93.35,19,19,0,0,0,3.36-.48c.69-.16,1.32-.53,2-.74A9.4,9.4,0,0,0,56.36,87c.43-.26.88-.46,1.39-.72a6.86,6.86,0,0,1,.12.85c.08,1.29.14,2.59.22,3.89a.55.55,0,0,1-.22.54,2.14,2.14,0,0,0-.21.38,5.17,5.17,0,0,0,1,.21c1,0,1.95,0,2.93-.09a.8.8,0,0,0,.82-.62c-.47-.14-.49-.55-.53-.94-.17-1.62-.34-3.23-.5-4.84a4.77,4.77,0,0,1,0-.65,5.72,5.72,0,0,1,3.64.63A6.75,6.75,0,0,1,67.28,88a17.56,17.56,0,0,0,1.53,2.29,5,5,0,0,0,1.76,1.45,8.72,8.72,0,0,0,4.75.66c1.46-.26,2.89-.63,4.34-.92a6.28,6.28,0,0,1,2.76-.15c.76.18,1.52.39,2.27.61a14,14,0,0,0,4.14.79,8.53,8.53,0,0,0,2.47-.18c1.11-.34,2.23-.65,3.33-1s2-.72,2.94-1.05a4.37,4.37,0,0,1,3.83.16,2.78,2.78,0,0,0,.65.23.92.92,0,0,0,1.25-.41,3.93,3.93,0,0,1,.35-.52c.72-.79,1.27-1.07,2.24-.3a2.87,2.87,0,0,0,.48.28,1.21,1.21,0,0,0,1.81-.56s0-.08.07-.12a6.36,6.36,0,0,1,2.64-2.6,1.93,1.93,0,0,1,2.39.06A6.72,6.72,0,0,0,117,88.16a4.35,4.35,0,0,0,3.19-.65,1.76,1.76,0,0,1,1.32-.4c.11,0,.23,0,.35,0a1.12,1.12,0,0,0,1-.57A6.73,6.73,0,0,0,124,83.86a6.87,6.87,0,0,1,.34-1.06,6.47,6.47,0,0,1,.65-1.6A10,10,0,0,1,128.88,78c.63-.28,1.26-.57,1.87-.91a5.47,5.47,0,0,0,2.66-4.94c-.13-1.2-.23-2.4-.33-3.6a2.56,2.56,0,0,1,0-.83,6.06,6.06,0,0,1,2.93-4,14.8,14.8,0,0,0,2.78-2.16,6,6,0,0,0,.91-2.48,11,11,0,0,0,.1-1.29A5.2,5.2,0,0,0,139.6,56.38ZM92.69,30.79l.11.13,5.6-4.73.1.1L97.18,28.1c-.85,1.16-1.64,2.37-2.54,3.48A22.67,22.67,0,0,1,90,36a17.67,17.67,0,0,1-2.68,1.72,30,30,0,0,1-4.68,1.94c-1.38.37-2.73.9-4.1,1.34-.36.12-.73.2-1.11.29,0-.05,0-.1,0-.15,2.23-1,4.48-2,6.75-3L84,38c-.7.29-1.47.38-2.15.74a63.86,63.86,0,0,1-6.66,2.95,7.14,7.14,0,0,1-1.67.31A93,93,0,0,1,86,35.5a53.42,53.42,0,0,0-6.87,3.06C76.9,39.69,74.7,40.92,72.4,42a1.61,1.61,0,0,1,.35-.34q3-1.83,6.07-3.65c.66-.39,1.34-.74,2-1.11.06,0,.09-.14.13-.22a11.71,11.71,0,0,0-1.36.6c-1.65.93-3.28,1.9-4.93,2.85a6,6,0,0,1-1.26.57,3.87,3.87,0,0,1,.58-.63c1.51-1.09,3-2.19,4.55-3.21q2.64-1.74,5.38-3.32c1.46-.84,3-1.57,4.51-2.31a51.08,51.08,0,0,0,5.46-3c1.41-.94,2.84-1.85,4.27-2.74a1.57,1.57,0,0,1,1.15-.34C97,27,94.82,28.88,92.69,30.79Zm-.08,38.93a3.81,3.81,0,0,1,.64-.24c.08,0,.2.14.31.22l-.46.56v0c-.32.28-.56.69-1.12.6,0-.14,0-.27.08-.4a1.68,1.68,0,0,0,.77-.63Zm1.83.35h0c.32-.31.65-.6,1-.92a1.43,1.43,0,0,1,1.14-.48c-.4.57-.73,1.11-1.13,1.57a1.14,1.14,0,0,1-.68.24c-.32,0-.31-.19-.28-.41l0,0v0c-.39.26-.71.7-1.32.52v-.33c.34,0,.4-.3.47-.57.45-.2.76-.68,1.31-.69l.35,0c-.2.24-.34.39-.46.56a6.1,6.1,0,0,0-.34.54A0,0,0,0,0,94.44,70.07Zm3.68,2.42c.73-.21,1.46-.39,2.17-.63s1.53-.65,2.33-.87a6.51,6.51,0,0,1,2-.16,3.54,3.54,0,0,1-.59.39c-1.12.43-2.23.86-3.4,1.19a16.34,16.34,0,0,1-3.41.22c-.54,0-1.09,0-1.63,0v-.09L101.35,71c.07,0,.16,0,.38.08a19.16,19.16,0,0,1-3.66,1.26A1.09,1.09,0,0,1,98.12,72.49ZM96.66,72c-.72.17-1.45.33-2.17.43a4.87,4.87,0,0,1-1.07-.08s0-.09,0-.14l1.5-.35c.47-.12.93-.27,1.4-.37a8.84,8.84,0,0,1,1.15-.16c.54,0,1.08,0,1.62,0a.29.29,0,0,1,0,.09C98.29,71.57,97.48,71.8,96.66,72Zm-2.26-.43A4.22,4.22,0,0,1,92,72,4,4,0,0,1,94.4,71.55Zm-1.58-.41.44-.12a.5.5,0,0,1,0,.12l-.44.08S92.83,71.16,92.82,71.14Zm2.62-.21c.19-.4.19-.4,1.26-.49A1.54,1.54,0,0,1,95.44,70.93Zm-3.38-.5a2.11,2.11,0,0,1-1.88.71c.27-.61.59-1.13,1.33-1.23.36,0,.71-.12,1.06-.18Zm4.08,5.09a3.91,3.91,0,0,1,.37.22c-1.15.15-2.14.3-3.14.41-.4,0-.53,0-1.09-.36A3.12,3.12,0,0,1,94,75.25,9.5,9.5,0,0,1,96.14,75.52Zm-1.68-.84v-.15l.67,0C94.87,74.9,94.66,74.74,94.46,74.68Zm11.6,6,.31,0c.09.32-.1.34-.3.35-1,0-2,.1-3,.11-.67,0-1.34-.07-2-.09-.21,0-.43.11-.65.13A9.91,9.91,0,0,1,94.76,80s0,0-.06-.14c1.15.18,2.3,0,3.38.43.06,0,.13,0,.2,0,.06-.19.21-.17.38-.16.74,0,1.48.06,2.21.12Zm-3.15-.46a1.36,1.36,0,0,1,0-.2l2.2.32a.22.22,0,0,1,0,.08Zm-2.13-.17c-1,0-1.93-.14-2.9-.25a12.56,12.56,0,0,1-1.34-.24h0c-.41.27-.85.11-1.28.12a5.09,5.09,0,0,1-3.48-1.39,7.5,7.5,0,0,1,3.86,1,6.82,6.82,0,0,0,.9.31h0l-1.41-.77a22,22,0,0,1,7.05,1.08A9.41,9.41,0,0,1,100.78,80.06ZM95,78.39a6.63,6.63,0,0,1-2.1-.63l0,0a0,0,0,0,1,0,0l.24.42C92,77.94,90.85,78.14,90,77a4.94,4.94,0,0,1,2,.42,7.47,7.47,0,0,0,.92.39v0h0l-.3-.31.35-.12h0s-.08-.14-.12-.14A5.47,5.47,0,0,1,90.09,76l-.28-.19a6.14,6.14,0,0,1,.66,0c.51.11,1,.24,1.55.37a.33.33,0,0,1,.13,0A24,24,0,0,0,95,77.39a2,2,0,0,1,.24.18L93,77.33h0c1,.21,2,.4,3,.63a6.7,6.7,0,0,1,1,.42,1.81,1.81,0,0,1,1.47.38C97.15,78.62,96.08,78.46,95,78.39ZM90.86,76.8a3.14,3.14,0,0,1-2.68-1.32A4.33,4.33,0,0,1,90.86,76.8Zm-2.15-1.68.09-.21.76.35-.06.15Zm5.6,1.39a5,5,0,0,1,4.52-.13l-3.19.7c-.17,0-.16,0-.55-.27a2.23,2.23,0,0,0-.39-.13A3.87,3.87,0,0,1,94.31,76.51Zm1.74.85c1.15-.33,2.21-.64,3.28-.93a1.21,1.21,0,0,1,.53,0c.34.06.67.14,1.18.25-.64.24-1.14.44-1.63.61s-.76.21-1.13.34A2.13,2.13,0,0,1,96.05,77.36Zm2.17-1.74a7.5,7.5,0,0,1,3.75-.31A3.89,3.89,0,0,1,98.22,75.62Zm-2.58-.73a15.38,15.38,0,0,1,3.1.25C97.65,75.79,96.66,75.19,95.64,74.89Zm-4.49.35c.82-.2,1.5-.61,2.35-.29A2.54,2.54,0,0,1,91.15,75.24Zm-1-.38a2.41,2.41,0,0,1,2.17-.26A3.94,3.94,0,0,1,90.12,74.86Zm-1.42-.71c.89-.25,1.68-.58,2.63.06C90.39,74.25,89.62,74.79,88.7,74.15Zm-1.07-.61c.69-.21,1.37-.51,2.12.08A3.07,3.07,0,0,1,87.63,73.54Zm.25,1.32-.1.14-.6-.38C87.51,74.51,87.68,74.72,87.88,74.86ZM86.46,73c.52-.44,1-.41,1.82.11C87.63,73.09,87,73.41,86.46,73Zm-.2,6c1.18.17,1.34,1.22,1.86,1.94C87,80.72,86.62,79.91,86.26,79Zm3.43,4a2.72,2.72,0,0,1-2.23-1.87A3.2,3.2,0,0,1,89.69,83Zm-4.17-5.61a2.21,2.21,0,0,1,1.35,1.54C86.2,78.54,85.64,78.2,85.52,77.38ZM85.22,76,86,77.08C85.37,76.82,85.19,76.57,85.22,76Zm.11-.92L85,74l.15-.06c.11.37.21.74.31,1.1ZM84.7,73l0,1.43h-.14l-.16-1.65Zm-.52-3.35a.88.88,0,0,0,0-.16l.37-.07a.54.54,0,0,0,0,.1Zm-.32-.56a2.06,2.06,0,0,1,1.62,0A6.71,6.71,0,0,1,83.86,69.06ZM83,81.77l-.17,0a1.36,1.36,0,0,1-.09-1.33C82.83,80.9,82.92,81.33,83,81.77Zm-.08-1.09c.34.24.42.43.4.65l-.2,0C83.07,81.19,83,81,82.93,80.68Zm1,4.11h-.16c-.23-.76-.92-1.34-.89-2.28C83.61,83.15,83.56,84,83.93,84.79ZM82.46,68.35c.35-.09.53.06.48.51-.75,0-1.48.21-2.23.26a1,1,0,0,1,0-.17c.06-.06.11-.14.18-.16C81.38,68.63,81.92,68.49,82.46,68.35Zm-.34-.26.39-.17a.76.76,0,0,1,0,.11l-.4.14Zm.93,1a1.36,1.36,0,0,0,0,.2l-1.53.25,0-.18A3.69,3.69,0,0,1,83.05,69Zm.21.51c.06.25.11.44.15.64-.49.2-.83,0-1.25-.35ZM78.73,66.7c-.88,0-1.76-.1-2.64-.19a8.39,8.39,0,0,1-3.53-1.17,4.18,4.18,0,0,1-.36-.27c.33-.21.82,0,1-.52-.57,0-1.11-.13-1.65-.14a1.82,1.82,0,0,1-1.11-.34,9.07,9.07,0,0,1-2.28-1.87c-.22-.32-.68-.46-1-.74-.72-.65-1.41-1.33-2.11-2A1.76,1.76,0,0,1,64.7,59a2.48,2.48,0,0,0-.79-.88v0h0a19.09,19.09,0,0,1-3.12-4.39,2.85,2.85,0,0,1,.32.27,1.59,1.59,0,0,1,.29.29c.51.66,1,1.34,1.52,2a2.58,2.58,0,0,0,.51.4,1.23,1.23,0,0,1,.31.19c.46.52.89,1.06,1.35,1.57a4.51,4.51,0,0,0,.59.47,4.35,4.35,0,0,0-.38-.57c-.84-1-1.7-2-2.55-3a.49.49,0,0,1-.08-.18l-1-1,.15-.13.86,1.06c.53.54,1.08,1.06,1.58,1.63a28.85,28.85,0,0,0,7,5.8,39.76,39.76,0,0,0,4,2A9.32,9.32,0,0,0,76.8,65a37.22,37.22,0,0,1-7.11-3.77,26.2,26.2,0,0,1-5.81-5.56c.26.23.5.47.75.7l.77.7c.42.4.82.82,1.26,1.19a1.63,1.63,0,0,0,.56.21l-3.76-3.66.09-.13a1.55,1.55,0,0,1,.39.18c.76.68,1.51,1.35,2.25,2.05a4.09,4.09,0,0,0,1.29,1.11,4.79,4.79,0,0,1,1,.83,3.18,3.18,0,0,0,.43.28c0,.14.08.28.13.42l1.41,1.06h0a5.75,5.75,0,0,0-1.56-1.47,2.94,2.94,0,0,1-.1-.39c.69.5,1.31,1,2,1.39.38.25.81.43,1.21.64a2.62,2.62,0,0,0-.3-.28,55.77,55.77,0,0,1-6-4.6,12.31,12.31,0,0,1-1.87-2.13c.78.59,1.54,1.21,2.33,1.79a19.15,19.15,0,0,0,3.27,2.21c.12.05.26.09.39.13-.46-.31-.92-.61-1.36-.94-1.06-.77-2.1-1.56-3.12-2.4a2.66,2.66,0,0,1,1.66.72c.91.75,2,1.3,2.84,2.06.46.39,1,.72,1.44,1.08a1.85,1.85,0,0,1,.27.31h-.31c1,.62,1.93,1.27,2.93,1.83A21.86,21.86,0,0,0,80.66,63a9.48,9.48,0,0,0,5-.29c2.23-.78,4.51-1.45,6.7-2.33a22.72,22.72,0,0,1,3.69-.95,2.14,2.14,0,0,1,1.16.19l-1.1.5A35,35,0,0,0,90.7,63c-.62.43-1.3.79-2,1.17a1.16,1.16,0,0,1-.46.12,29.8,29.8,0,0,1-7-.12,23.85,23.85,0,0,1-8.58-3.06,5.65,5.65,0,0,0-.57-.23c.38.25.73.55,1.13.76a23.85,23.85,0,0,0,13,2.95h.2l1.42,0a3.57,3.57,0,0,1-.47.32l-1.16.47c-.83.32-1.65.71-2.52,1A15.93,15.93,0,0,1,78.73,66.7Zm-15.63,6c.34-.28.61-.43,1-.27a4.31,4.31,0,0,0,.88.19l2.88.38s.1.07.26.2a2.84,2.84,0,0,1-.91.2C65.87,73.23,64.53,73,63.1,72.73Zm3.6.91a1.39,1.39,0,0,1-1.24.23L62,73.06A16.5,16.5,0,0,1,66.7,73.64Zm2,.35a.41.41,0,0,0,.05.09l-.68.26,0-.07Zm-1-1.2c-.8-.19-1.64-.25-2.47-.37-.19,0-.38-.09-.57-.13v-.18a4.79,4.79,0,0,1,1.16-.17c1.27.13,2.53.32,3.79.49a1.2,1.2,0,0,1,.24.13A2.85,2.85,0,0,1,67.73,72.79Zm-.81-1.11a9.4,9.4,0,0,1,4.68.21,2.22,2.22,0,0,1-1.55.37C69,72,68,71.9,66.92,71.68Zm6.47-.12c-1.36.38-2.51-.26-3.81-.27A8,8,0,0,1,73.39,71.56ZM72.71,71c.85-.3,1.59.1,2.5.18A3.76,3.76,0,0,1,72.71,71Zm3.41.82-5.94,1.81A19.77,19.77,0,0,1,76.12,71.82ZM75.54,71a.93.93,0,0,1,0-.1l.54.14,0,.1Zm-1.11-.77A1.81,1.81,0,0,1,73.8,70l-1.54-.59a21.52,21.52,0,0,1,5.1.69c-.1,0-.2.05-.3.06C76.18,70.17,75.31,70.19,74.43,70.18ZM71.69,68.8c-.12,0-.21.07-.28,0a24.89,24.89,0,0,0-4.12-.56,3.12,3.12,0,0,1-1.64-.68,1.56,1.56,0,0,0-.34-.23c-.24-.12-.46-.23-.25-.55a3.3,3.3,0,0,1-2.09-1,3.77,3.77,0,0,1,2.43.79c0,.08-.06.16-.12.34,1-.19,1.52.57,2.32.78l-.68-.57c1-.24,1.65.43,2.41.85V67.6c.47.22.9.42,1.34.61a5.88,5.88,0,0,0,.71.23c-.23-.15-.46-.3-.71-.48a.38.38,0,0,1,.59-.1,2,2,0,0,0,1.18.44l3.15.72c.48.11,1,.18,1.43.3a2.55,2.55,0,0,1,.74.32c-1.69-.19-3.38-.38-5.07-.61a5.19,5.19,0,0,1-1.15-.43ZM61.75,67a.7.7,0,0,1,.72-.08c.6.33,1.19.69,1.78,1,0,0,0,.11-.08.17C63.17,68.28,62.61,67.46,61.75,67Zm1.18,1.13c-.7.18-1.27-.1-2.31-1.12C61.11,66.86,61.82,67.19,62.93,68.15ZM63.9,44c-.66.76-1.32,1.51-2,2.28-.38.45-.75.92-1.12,1.38l-.14-.09,1.72-2.84-.13-.08-3,4.73-.13,0A13.49,13.49,0,0,1,59.63,48a48.6,48.6,0,0,1,2.82-5.4,4.39,4.39,0,0,0,.29-.62,8.45,8.45,0,0,0-.75,1c-.43.71-.81,1.45-1.22,2.18L60.64,45c.14-.29.27-.59.42-.87a20.49,20.49,0,0,1,2.36-3.85c1-1.14,2-2.23,3-3.36a30.58,30.58,0,0,1,6-5.21,21.74,21.74,0,0,1,3.34-1.84,23.48,23.48,0,0,1,6.94-2.07l0,0a.18.18,0,0,1,.23,0h.12l-.09.05a.2.2,0,0,1,0,.26,14.66,14.66,0,0,1-1.65,1.6.2.2,0,0,1-.22,0,18.82,18.82,0,0,0-2.78,2.72c-.75.88-1.61,1.67-2.36,2.55-1.35,1.59-2.65,3.22-4,4.82a36.09,36.09,0,0,1-4.3,4.44c-.63.54-1.29,1-2,1.58-.22.28-.45.56-.7.82a.29.29,0,0,1-.47-.09l-.12-.1a.52.52,0,0,1,.11-.1.3.3,0,0,1,.06-.11,24.93,24.93,0,0,0,1.76-2.2.29.29,0,0,0,0-.09,1.72,1.72,0,0,1,.34-.6c1.38-1.86,2.73-3.74,4.15-5.58a25.49,25.49,0,0,1,4.76-4.75c1-.75,2-1.54,2.93-2.32a.16.16,0,0,1,0-.22h0c-.66.47-1.32.94-2,1.44-.89.69-1.78,1.41-2.63,2.16-.62.55-1.19,1.15-1.76,1.76S71,37.27,70.43,38c-.31.37-.58.77-.87,1.16l-.15-.1c.35-.59.66-1.21,1.06-1.77s.92-1.11,1.39-1.66c-.34-.08-.52.13-.69.35-.94,1.21-1.82,2.47-2.83,3.61s-1.84,2.78-2.86,4.1l-1.59,2-.13-.08c.06-.15.11-.3.17-.44.4-.81.8-1.63,1.19-2.44a2.55,2.55,0,0,1,.23-.43,6.68,6.68,0,0,0,1.23-2.49l-.43.54a3.33,3.33,0,0,0-.32.54,13.76,13.76,0,0,1-1.76,2.74,1.81,1.81,0,0,0-.18.37h0l0,0h0l.46-.39c-.47,1.93-3.41,5.73-4.91,6.3.1-.18.16-.33.24-.44,1.33-1.67,2.67-3.33,4-5a2.52,2.52,0,0,0,.22-.47Zm-6-5.36c0-.27.08-.27.75-.53,0,.63,0,1.24-.05,1.89l-.86,0C57.74,39.55,57.77,39.1,57.85,38.65Zm-.85-.8a.65.65,0,0,1-.16-.79.67.67,0,0,1,.57-.3.53.53,0,0,1,.28.07h0a.43.43,0,0,1,.43.4.74.74,0,0,1-.43.84A.77.77,0,0,1,57,37.85Zm1.12-1.67h-.2a.44.44,0,0,1-.38.12h0l-.07,0-.07,0-.1.06a.42.42,0,0,1-.58-.13l0-.08h-.28a2.35,2.35,0,0,1,.26-.22.45.45,0,0,1,.19-.28,1.2,1.2,0,0,1,.91-.24.41.41,0,0,1,.32.39l.42.11C58.3,36.08,58.22,36.18,58.12,36.18Zm-1.49-1.06a.85.85,0,0,1-.33.59.64.64,0,0,1-.8-.09.4.4,0,0,1-.12-.39.66.66,0,0,1-.06-.2c0,.13,0,0,0,0l0-.21a.41.41,0,0,1,.2-.37.81.81,0,0,1,.93,0h0a.45.45,0,0,1,.21.67Zm-1.12,1.22a.61.61,0,0,1,.3,0,.79.79,0,0,1,.42.23,1,1,0,0,1,.24.42.55.55,0,0,1,0,.31.52.52,0,0,1-.24.32.68.68,0,0,1-.34.08,1.23,1.23,0,0,1-.32-.07.45.45,0,0,1-.24-.16h0A.42.42,0,0,1,55,37a.77.77,0,0,1,.24-.45A.63.63,0,0,1,55.51,36.34ZM57,38.47c-.08.63-.15,1.29-.25,2.1-.43-.79-.79-1.47-1.15-2.16C56,38.23,56.48,38,57,38.47Zm-.78,3.86c.47,1.11,1,2.2,1.38,3.34A14.54,14.54,0,0,1,58,48a2.3,2.3,0,0,1-.11.68h-.2a29.26,29.26,0,0,1-2-7.21C55.89,41.74,56.05,42,56.17,42.33Zm1.55-1.51.81,0a2.2,2.2,0,0,1,.12,1.38c-.14.57-.17,1.17-.26,1.75h-.06Zm.4-5.39a.87.87,0,0,1-.26-1.12.88.88,0,0,1,1-.24.46.46,0,0,1,.32.37.8.8,0,0,1-1.11,1Zm.65,1.2a.49.49,0,0,1,.13-.23.47.47,0,0,1,.13-.11,1.06,1.06,0,0,1,.34-.12.41.41,0,0,1,.22,0l.11,0h0a.34.34,0,0,1,.16.1.86.86,0,0,1,.14.18.61.61,0,0,1,.09.18.49.49,0,0,1,0,.44.52.52,0,0,1-.33.25l-.17,0-.19,0a1.25,1.25,0,0,1-.25-.09.72.72,0,0,1-.2-.14.55.55,0,0,1-.14-.23A.5.5,0,0,1,58.77,36.63Zm13.12-9.32-1.12,1.47-.13-.08.54-.85-.1-.07c-.41.48-.83.95-1.23,1.44s-.64.79-.94,1.21a2.06,2.06,0,0,1-1,.66l1.82-2.36h-.45a0,0,0,0,0,0,0l-.07.08-.3.58a.57.57,0,0,0-.13-.08l.43-.5a.41.41,0,0,1,0-.09h0l.26-.46a.33.33,0,0,1,0-.17s0,0,0,0l-.39.39c-.23.23-.33.6-.77.6-.11,0-.22.22-.32.35l-2.71,3.52a1.16,1.16,0,0,1-.34.32c1.38-2.5,3-4.84,4.58-7.2a77.19,77.19,0,0,0-5.42,7.86,20.43,20.43,0,0,1,1.14-2.58c.43-.85.86-1.7,1.32-2.53s1-1.66,1.42-2.52a8.41,8.41,0,0,0-1.38,2c-1.19,2-2.11,4.07-3.1,6.14A6.13,6.13,0,0,1,62,36.59c0-.2,0-.32.09-.37A4.93,4.93,0,0,0,63,34.47c.67-1.4,1.35-2.8,2.05-4.18.5-1,1-1.95,1.57-2.87.94-1.45,2-2.87,3-4.28.62-.87,1.29-1.69,1.92-2.55a35.56,35.56,0,0,1,3.87-4.08,22.39,22.39,0,0,1,2-1.82c-.19.56-.35,1.13-.58,1.67-.86,2.05-1.74,4.1-2.61,6.14-.21.49-.42,1-.61,1.48a7.66,7.66,0,0,1-2,3.12Zm6.12,1a.58.58,0,0,1,.35.06c-.17.07-.33.15-.5.21a26.44,26.44,0,0,0-9.53,5.84,28.78,28.78,0,0,0-2.13,2,31.63,31.63,0,0,0-5.49,7.49c-.38.81-.68,1.67-1,2.5l-.23.62-.12,0a1.34,1.34,0,0,1,0-.44,16,16,0,0,1,.65-2.4,55.73,55.73,0,0,1,3.45-7.13,9.37,9.37,0,0,1,2.46-2.52A31.78,31.78,0,0,1,72,30.62a17.36,17.36,0,0,0,1.52-.85,15.55,15.55,0,0,1,2.94-1C77,28.58,77.5,28.46,78,28.32Zm-.74-1,1.78-1.93C78.5,26.68,77.85,27.36,77.27,27.36ZM62.72,37.7c-1,2.16-2,4.22-3.09,6.4C59.67,41.59,60.84,39.63,62.72,37.7Zm-1.27-1.78a.8.8,0,0,1-.92.27.82.82,0,0,1,.76-1.46.45.45,0,0,1,.31.34A.8.8,0,0,1,61.45,35.92Zm-.6,1c0-.11.26-.14.4-.21l.13.17a8.51,8.51,0,0,1-.44.91c-.42.64-.86,1.26-1.29,1.88a.46.46,0,0,1-.31.22c.06-.6.12-1.2.19-1.82A1.63,1.63,0,0,0,60.85,37Zm20.06-3.65c-.44.25-.85.56-1.28.84l-1.22.8a13.48,13.48,0,0,1-1.21.74,7.68,7.68,0,0,1,.69-1,8.36,8.36,0,0,1,2.26-2.83,6.42,6.42,0,0,1,.62-.55,9.23,9.23,0,0,1,1-.83s0,0,0,0,.22-.37.41-.23l0,0a21.86,21.86,0,0,1,2-.91.77.77,0,0,1,.17-.07h0a13.27,13.27,0,0,1,1.7-.61,54.87,54.87,0,0,1,6.52-2.32,43.52,43.52,0,0,1,4.58-1.06l.08.16a11,11,0,0,1-1,.73C93.69,27.82,91,29.57,88.09,31c-1.07.52-2.15,1-3.18,1.57-1.41.75-2.8,1.55-4.18,2.35-1.72,1-3.43,2-5.17,3a4.07,4.07,0,0,1,1.35-1.53L81.73,33a1.84,1.84,0,0,0,.38-.31C81.62,32.73,81.3,33.1,80.91,33.31ZM77.68,61.76a14.52,14.52,0,0,1-3.16-1.43,21.22,21.22,0,0,1-4.11-3.06,3.56,3.56,0,0,1-.57-.7,12.35,12.35,0,0,1,1.78.79l1.91.61c-.5-.23-1-.45-1.48-.7-.79-.4-1.61-.78-2.37-1.23a7.83,7.83,0,0,1-1-.91c-.13.19-.27.11-.41,0-.52-.37-1.06-.73-1.58-1.11s-1.17-.88-1.8-1.35a2.24,2.24,0,0,1,1.73.5c.46.41.91.84,1.37,1.26a1.17,1.17,0,0,0,.27.15l-.9-1.19c1.29.28,7.54,4,8.36,5.06L73.5,58a4.7,4.7,0,0,0,2.2.72,2.63,2.63,0,0,1,1.2.47,4,4,0,0,0,.84.45c-1.27-1.16-2.77-2-4.06-3.18l3,.92a.56.56,0,0,0,0-.12c-.84-.3-1.7-.57-2.53-.9s-1.7-.73-2.54-1.12a10.72,10.72,0,0,1-2.23-1.63c0,.08.07.16.16.37a20.62,20.62,0,0,1-3.94-2.15,3.65,3.65,0,0,1,2.51.79,14.31,14.31,0,0,0,1.29,1L68.06,52a18.28,18.28,0,0,1,1.75.56c1.51.7,3,1.45,4.49,2.17a5.69,5.69,0,0,0,1.15.44,31.83,31.83,0,0,0-4.23-2.27,7.69,7.69,0,0,1,3,1.08q2.27,1.41,4.56,2.8a3.64,3.64,0,0,0,.6.27.47.47,0,0,1,.06-.15,1.71,1.71,0,0,0-.33-.17c-1.34-.83-2.69-1.64-4-2.46a1.06,1.06,0,0,1-.42-.42c.23.08.48.13.7.23,1.3.56,2.58,1.15,3.89,1.7,1.12.48,2.26.95,3.41,1.39a3.23,3.23,0,0,0,1.09.14c-2.52-1.08-5-2.11-7.52-3.22s-5-2.29-7.43-3.44l.06-.17c1,.24,2,.41,2.93.74a32.29,32.29,0,0,1,3.65,1.52c1.59.81,3.08,1.82,4.69,2.57a35.67,35.67,0,0,0,7.24,2.83c1.13.24,2.28.41,3.42.6l3.35.55c-.11.09-.18.2-.29.23-.37.13-.76.21-1.13.33s-.78.09-1.1.5-.79.32-1.21.46c-1.29.43-2.6.83-3.88,1.3a8.36,8.36,0,0,1-3.36.41A24.74,24.74,0,0,1,77.68,61.76Zm4.95,1.12-1.54-.17C81.63,62.72,82.16,62.49,82.63,62.88ZM67.11,54.77l-.08.11-.37-.24a.41.41,0,0,0,0-.09Zm-.5-3.26a4.15,4.15,0,0,1-2.94-.9C64.91,50.27,65.74,51,66.61,51.51ZM65.5,50.37a2.06,2.06,0,0,1,1.51,0c1.88.77,3.75,1.6,5.62,2.41.05,0,.08.08.14.15A29.77,29.77,0,0,1,65.5,50.37Zm-.4,1.77c-.89,0-1.11-.11-1.52-.45C64,51.5,64.35,51.59,65.1,52.14Zm23.36,5.3a34.22,34.22,0,0,1-6.16-2.12,45,45,0,0,1-4.9-2.6,27.1,27.1,0,0,0-9.05-3.19,7.25,7.25,0,0,0-3,.07,2.87,2.87,0,0,1-.63.06,3.8,3.8,0,0,1,1.83-.4,18.34,18.34,0,0,1,7.29.64c.54.15,1.1.23,1.65.34a1.36,1.36,0,0,0-.33-.22,24.38,24.38,0,0,0-6.28-1.13c-.9,0-1.8,0-2.71,0a.81.81,0,0,1-.33,0,1.81,1.81,0,0,1,1.06-.38,32.51,32.51,0,0,1,7.7,0,16.88,16.88,0,0,1,3,.56A20.57,20.57,0,0,1,81,50.74L85.22,53c1.45.77,2.89,1.58,4.36,2.3,1,.51,2.13.92,3.2,1.36,1.3.54,2.62,1.05,3.93,1.58a2.16,2.16,0,0,1,.21.19,2.24,2.24,0,0,1-.26,0A47,47,0,0,1,88.46,57.44ZM66.9,42.13a13.28,13.28,0,0,1,2-2.82A8.92,8.92,0,0,1,66.9,42.13ZM63.26,55l.19.24-.1.11-.17-.27Zm-.79-1.92.71.49A.64.64,0,0,1,62.47,53.07Zm-1.77-.54,0,.13-.47-.11a.83.83,0,0,0,0-.15Zm-.9,3.92a3.6,3.6,0,0,1,1.3,1.75c-.39-.28-.79-.54-1.16-.85S59.76,56.79,59.8,56.45Zm.09,1.26c.23.15.45.29.65.44s.38.31.59.48l-.17.12h0l.77.34c.21.11.43.23.44.51h0v0c.21-.07.32.05.31.32l-.31-.32h0v0c-.32-.16-.65-.3-1-.49-.11-.07-.17-.23-.25-.36h0l-.85-.39C59.87,58.25,59.78,58.07,59.89,57.71Zm4.41,4.47A2.24,2.24,0,0,1,63,61.59C63.51,61.59,63.59,61.63,64.3,62.18Zm4.19,3.89c-.07,0-.11.08-.14.08L67.93,66l.49.31c-.31,0-.65.16-.77-.31,0-.13-.39-.2-.6-.24a2.94,2.94,0,0,1-1.45-.63A4.91,4.91,0,0,1,68.49,66.07ZM67.61,65c.54-.24.85.19,1.24.41C68.37,65.46,68.05,65,67.61,65Zm-.75,1.88c-.66.24-.94-.36-1.35-.61Zm-2-3.44c.78-.17,1.26.35,1.81.71C65.83,64.37,65.43,63.62,64.82,63.4Zm-2.55-.07s0-.07.07-.07a.36.36,0,0,1,.2,0l1.53.69a.75.75,0,0,0,0,.16L61.71,64c-.27-.45-1-.09-1.27-.64.83-.35,1.42.34,2.28.42Zm-.62-1c.73-.07,1.17.46,1.73.64C62.82,63,62.43,62.88,61.65,62.28Zm2.16,2a2,2,0,0,1-1.59,0Zm.84,1.39-1.87-.23C63.54,65,63.94,65,64.65,65.69Zm-1.11-2.43a3,3,0,0,1,1.79.8A2.8,2.8,0,0,1,63.54,63.26Zm2.26,0-1.14-.65c.54-.13.82.29,1.21.48C65.85,63.12,65.82,63.18,65.8,63.24Zm-.94-.15c-.73.11-1.23-.34-1.82-.67A2.14,2.14,0,0,1,64.86,63.09Zm-2.08-2.31c.54-.11.81.23,1.16.5C63.45,61.32,63.34,61.27,62.78,60.78ZM62.87,62a1.83,1.83,0,0,1-1.5-.43C62.07,61.38,62.07,61.38,62.87,62Zm-1.55-1.3c.55-.12.9.22,1.38.52C62.06,61.32,61.73,60.94,61.32,60.7Zm1.23-.1-1.09-.42c.69-.12.75-.1,1.16.28C62.6,60.51,62.57,60.56,62.55,60.6Zm-2.14-1.51h0s0,0,0,0l1.27.67a1.81,1.81,0,0,1-1.38-.32,3.58,3.58,0,0,0,.11-.35h0c-.19,0-.38.09-.54-.15C60.15,58.76,60.29,58.88,60.41,59.09ZM60,60.71c.51-.11.86.24,1.28.42C60.35,61.18,60.22,61.13,60,60.71Zm1.19,1.13a1.86,1.86,0,0,0-.1.2l-.62-.29.06-.15Zm-1.12-1.77c.48-.15.48-.15.94.25C60.65,60.38,60.33,60.41,60.08,60.07Zm1.76,2.77-.07.19c-.34-.12-.68-.23-1-.36s-.47-.26-.66.12c0-.17,0-.34-.05-.52C60.8,62.11,61.28,62.59,61.84,62.84Zm-1.7,1.45c.49,0,1-.13,1.3.43l-1.28.35Zm3.29,2.25c-.67.33-1,.15-2.25-.86C62.16,65.54,62.66,66.29,63.43,66.54Zm.77,1.17a10.3,10.3,0,0,0-1-.71c1.19-.25,1.85.57,2.66,1A1.63,1.63,0,0,1,64.2,67.71Zm8.13-.78h0a3,3,0,0,1,.74.11,19.15,19.15,0,0,1,2.58,1.17L75,68.05a9.11,9.11,0,0,1-2.65-1.12h0l.13.24a7.12,7.12,0,0,1-3.52-1.32,5.63,5.63,0,0,1,1.81.49c.36.16.7.35,1.06.5a1.83,1.83,0,0,0,.52.09Zm1,.94a4,4,0,0,1-1.9-.49A4.19,4.19,0,0,1,73.33,67.87Zm-2.66-.45L68.89,67A1.57,1.57,0,0,1,70.67,67.42Zm5.68.78a3.58,3.58,0,0,1,2.22,1A4.8,4.8,0,0,1,76.35,68.2Zm.43,2.44,2,.24a.92.92,0,0,1,0,.16l-2-.26S76.78,70.69,76.78,70.64ZM93,64.58c-1,.91-1.94,1.86-3,2.72a5.33,5.33,0,0,1-1.7.9c.12-.11.24-.24.37-.35A31.42,31.42,0,0,0,92.51,64c.42-.53.85-1,1.28-1.55a1.14,1.14,0,0,1,.32-.26c.59-.27,1.18-.52,1.81-.79,0,.13,0,.22,0,.3.75-.9,1.8-1,3-1.2a22.51,22.51,0,0,1-2.23,1.88c-.7.61-1.42,1.18-2.15,1.75s-1.47,1.15-2.21,1.73l-.12-.12c.28-.29.57-.57.82-.87s.69-.86,1-1.29Zm-3.18,4.5a1,1,0,0,1-.67.8c-.64.2-1.28.37-1.92.55,0-.05-.05-.1-.08-.14Zm2.37-5.28a26,26,0,0,1-3.49,3.62l-.1-.09c.57-.63,1.11-1.29,1.71-1.9S91.32,64,92.22,63.8Zm-.9-.08.43-.31.08.09-.42.33Zm.68-.08a1.56,1.56,0,0,1,1.15-.87A2,2,0,0,1,92,63.64ZM87.88,66c-.44.5-.78.62-2,.73A4.07,4.07,0,0,1,87.88,66Zm-4.32,1.52L87,66.91l.08.16c-.18.14-.35.36-.55.41a12.17,12.17,0,0,1-3,.25C83.55,67.67,83.56,67.62,83.56,67.56Zm2.07.91s0,.08,0,.12l-.35,0a.34.34,0,0,1,0-.1Zm-1.76-.21s0-.07,0-.1l1.67,0v.11Zm1.21,3.8,1.22.25C85.8,72.63,85.62,72.6,85.08,72.06Zm.28-1.73-.13-.09a3.5,3.5,0,0,1,.33-.43,28.29,28.29,0,0,0,3.07-3.58,3.39,3.39,0,0,0,.4-.72,2.29,2.29,0,0,1,2.09-1.31L90,65.49l-1.43,1.59-.67.71c-.17.18-.42.33-.5.55C87,69.33,86,69.67,85.36,70.33Zm2.77,1a2,2,0,0,1-.87-.22l3.07-.83c-.38,1-.52,1.07-1.38,1.08C88.68,71.32,88.4,71.31,88.13,71.29ZM90,69.57a3.87,3.87,0,0,1,2.17-1.51A2.23,2.23,0,0,1,90,69.57Zm1.89-1.7a2.56,2.56,0,0,1,1.28-.72C92.9,67.63,92.38,67.7,91.91,67.87Zm-1-.38a6.73,6.73,0,0,1-.73.32.14.14,0,0,1,0-.06c.9-.64,1.83-1.24,2.7-1.92,2-1.54,4-3.06,5.84-4.71a4,4,0,0,1,3-.87,4.8,4.8,0,0,1-.36.38c-.77.63-1.51,1.31-2.33,1.87-1.23.85-2.51,1.63-3.79,2.42S92.32,66.64,90.89,67.49Zm9.71-9.23-.72-.2c.18-.31.46-.21.71-.3Zm-2.49-1.42a4.72,4.72,0,0,1,.53-.18,12,12,0,0,0,4.57-2.12,21.17,21.17,0,0,0,4.46-4,15.85,15.85,0,0,0,1.6-2.76c0-.06,0-.13,0-.32a8,8,0,0,0-.48.77,11.08,11.08,0,0,1-2.16,3.13,20.41,20.41,0,0,1-5.76,4.31,15.32,15.32,0,0,1-2.56.83c-.42.13-.85.23-1.26.38a1.31,1.31,0,0,1-1-.06l-4.82-2a3.48,3.48,0,0,1-.5-.29c1.21,0,2.34-.05,3.47,0A11,11,0,0,0,97.4,54a18.16,18.16,0,0,0,6.34-2.93c.49-.35,1-.72,1.46-1.08h0c-.43.25-.86.49-1.28.75-.59.37-1.16.78-1.77,1.12a18,18,0,0,1-4.36,1.76,19.29,19.29,0,0,1-7.86.36,4.9,4.9,0,0,1-1.17-.4,10.27,10.27,0,0,1-1.74-1l5.06.33s0-.09,0-.14c-.37,0-.74-.05-1.1-.09-1.13-.09-2.27-.15-3.4-.28a6.34,6.34,0,0,1-2.5-.74C84,51.08,83,50.54,81.9,50a.37.37,0,0,1-.22-.28l3.07.92c-.07-.09-.12-.22-.21-.25L80.9,49.24a4.09,4.09,0,0,1-.72-.26,15.76,15.76,0,0,0-7.38-1.65,18,18,0,0,1-2.43-.17c1,0,2-.1,3.06-.06a36.11,36.11,0,0,1,4,.33c2,.28,3.92.66,5.86,1,1.52.29,3,.64,4.64,1a1.68,1.68,0,0,0-.34-.23c-.77-.26-1.53-.54-2.32-.73s-1.49-.24-2.23-.4a65.05,65.05,0,0,0-8.66-1.28c-1-.08-2-.07-3.06-.1a1.58,1.58,0,0,1-.48-.06,5.54,5.54,0,0,1,1.93-.39,20.13,20.13,0,0,1,6.14.44c1.22.28,2.43.59,3.64.88l.49.07c-.29-.13-.57-.27-.87-.39a4.89,4.89,0,0,1-.9-.37.94.94,0,0,1,.29,0c1.15.26,2.31.5,3.44.82,2.76.79,5.52,1.56,8.33,2.16a30.6,30.6,0,0,0,8.49.54,16.24,16.24,0,0,0,3.38-.63c0,.1,0,.17,0,.23h0l0,0h0a.71.71,0,0,0,.26-.07c.83-.62,1.68-1.23,2.49-1.89a6.7,6.7,0,0,0,.8-1l.88-1.08c.07.14.1.22.16.32.38-.41.34-1.09.92-1.35A13.45,13.45,0,0,1,98.11,56.84ZM70.21,45.62c1.68-.82,8-1.21,9.87-.61C76.79,45.12,73.48,45,70.21,45.62Zm35.54,3.51a9.91,9.91,0,0,1-3.63.87,28.47,28.47,0,0,1-5.69,0c-1.26-.17-2.52-.41-3.77-.66-1-.2-2-.44-3-.71s-1.87-.53-2.81-.8a62.59,62.59,0,0,0-9.27-2c-.34,0-.68-.14-1.13-.23a1.66,1.66,0,0,1,.36-.09,14.45,14.45,0,0,1,3.93.32c2,.58,4,1,6,1.56,1,.26,1.9.62,2.84.93a.8.8,0,0,0,.41,0c-3-1.31-6.17-1.76-9.19-2.89.49,0,1,.06,1.47.07a29.84,29.84,0,0,1,6.52.88c1.82.47,3.64.93,5.46,1.35a34.42,34.42,0,0,0,4.83,1,16.91,16.91,0,0,0,4.08-.19c.54-.08,1.09-.12,1.62-.2a1.35,1.35,0,0,0,.45-.17A18.61,18.61,0,0,0,108.56,46a2.88,2.88,0,0,1,.69-.31A8.47,8.47,0,0,1,105.75,49.13Zm.79-2a9.63,9.63,0,0,1-4.61,1.34,18.24,18.24,0,0,1-6.24-.68c-1.66-.44-3.33-.81-5-1.26a62.47,62.47,0,0,0-11.76-2,30.94,30.94,0,0,0-6.52.21,7,7,0,0,1-1.59,0c.3-.09.59-.2.9-.27a31.7,31.7,0,0,1,8-.65,54.3,54.3,0,0,1,7.53.78c1.21.2,2.38.58,3.58.85,1.58.35,3.16.73,4.76,1a29,29,0,0,0,5.18.39c.92,0,1.86.08,2.77,0,1.27-.1,2.52-.32,3.78-.48a1.54,1.54,0,0,1,.23.08C107.19,46.7,106.86,46.89,106.54,47.1ZM73.88,43.63l.43-.05a.17.17,0,0,0,0,.07l-.43.05A.2.2,0,0,1,73.88,43.63Zm6.15-.1c-1.61-.08-3.23,0-4.83-.07a21.55,21.55,0,0,1,9.71.49C83.28,43.81,81.66,43.61,80,43.53Zm5.83-16.12a.37.37,0,0,1,.08-.15,5.91,5.91,0,0,1,2-1.15c.17-.07.38-.19.6-.28l0-.11a91.29,91.29,0,0,1,12.7-2.39,1.89,1.89,0,0,1-.9.74c-.69.28-1.37.57-2.07.82a5,5,0,0,1-1,.17,40.83,40.83,0,0,0-7.55,2c-1.67.6-3.36,1.18-5,1.78-.41.14-.81.33-1.37.57a8.93,8.93,0,0,1,2-1.71C85.54,27.61,85.7,27.5,85.86,27.41Zm-1.71-1.66a5.73,5.73,0,0,1,1.65-2A5.78,5.78,0,0,1,84.15,25.75Zm6.53-12a17,17,0,0,1-.61,2.11,29.93,29.93,0,0,1-2.55,5.4,8.14,8.14,0,0,1-.68.87c-1,1.08-1.92,2.14-2.87,3.22a2.15,2.15,0,0,1-1.76.91l3.84-4.74-.1-.09-1.43,1.63-2.76,3.12a.82.82,0,0,1-.86.33c.15-.23.27-.44.42-.64l1.89-2.41a2.26,2.26,0,0,0,.16-.26l-.08,0c-.33.32-.67.64-1,1-.71.83-1.37,1.69-2.07,2.52a2.12,2.12,0,0,1-.63.34.69.69,0,0,1-.13-.11,3.6,3.6,0,0,1,.31-.54c.7-.92,1.42-1.84,2.13-2.75a2.2,2.2,0,0,0,.15-.26h0a1.08,1.08,0,0,0-.33.2c-.9,1.08-1.78,2.18-2.69,3.27a.77.77,0,0,1-.75.41c.24-.38.44-.71.65-1a24.53,24.53,0,0,1,3.42-3.92c1.39-1.34,2.7-2.75,4-4.13.89-.91,1.78-1.82,2.66-2.75C89.6,14.86,90.09,14.29,90.68,13.74ZM80,18.55c-.24.28-.48.55-.71.83a2.32,2.32,0,0,0-.21.38h0c.43-.43.84-.88,1.29-1.3a4.38,4.38,0,0,1,.89-.64c.69-.36,1.4-.65,2.09-1,.44-.22.84-.49,1.27-.71s1.06-.45,1.58-.69,1-.52,1.45-.77,1-.52,1.56-.76c.24-.12.5-.2.75-.3a1.13,1.13,0,0,1,.1.13c-.28.34-.54.7-.85,1q-1.71,1.77-3.45,3.52a11.44,11.44,0,0,1-1.14,1.06A10.63,10.63,0,0,0,83,21.12a18.53,18.53,0,0,1-1.46,1.48c-.83.8-1.68,1.59-2.55,2.35.2-.64.75-1,1.14-1.62l-.32-.2c.46-.6.9-1.21,1.37-1.8s.8-1,1.18-1.46c.05-.06,0-.19,0-.29H82.3l-1.08,1.26-.63.9-2.18,3a.85.85,0,0,1-.17.16v0l0,0a3.6,3.6,0,0,1-1,1.77,2.39,2.39,0,0,1,1-1.77s0,0,0,0l0,0a.83.83,0,0,1,.06-.29Q79.62,22.79,81,21a.87.87,0,0,1,.21-.17L82,19.54c-.66.74-1.34,1.46-2,2.22s-1.23,1.62-1.85,2.43l-.21.25-.13-.07a4.38,4.38,0,0,1,.31-.7l2.41-3.39.26-.36-.12-.07c-.81,1-1.63,2.06-2.48,3.15,0-.58.43-1.36,1.81-3.25-.68.42-1,1.24-1.63,1.71a1.74,1.74,0,0,1,.33-1.18,4.52,4.52,0,0,0,.32-.52h0l0,0v0l-.23,0C78.77,18.93,79.44,18.8,80,18.55ZM79.32,13c-.18.63-.35,1.2-.52,1.77A15.2,15.2,0,0,0,78.14,18a14.67,14.67,0,0,1-.32,1.71c-.2,1.06-.43,2.13-.57,3.21a12.5,12.5,0,0,1-.71,2.75c-.08.24-.18.47-.24.72A2.85,2.85,0,0,1,75.15,28a2.9,2.9,0,0,1-.81.31l-.08-.12,1.36-1.72A5.19,5.19,0,0,0,74.13,28a2.38,2.38,0,0,1-1,.76c-.45.18-.87.42-1.39.69.17-.34.3-.58.43-.83a18.88,18.88,0,0,0,2.24-2.79c-.64.64-1.23,1.32-1.81,2-.18.23-.32.49-.48.74-.38.39-.77.79-1.14,1.19a4.45,4.45,0,0,1-2,1.07,2.3,2.3,0,0,1,.27-.37,10.13,10.13,0,0,0,2.84-3.1c.4-.65.81-1.29,1.18-1.95a8,8,0,0,0,.35-1c.83-1.91,1.69-3.81,2.49-5.73.48-1.16.93-2.33,1.3-3.52A3.64,3.64,0,0,1,79.32,13ZM72,15.61a24.87,24.87,0,0,1,2.39-1.27c1.17-.53,2.38-1,3.57-1.47l.12.16-.49.43h0c0,.09.28.12.07.27s-.24.13-.36.2,0,0,0,0h0c-.22.24-.44.49-.68.72-1.25,1.24-2.56,2.44-3.76,3.72-.93,1-1.75,2.11-2.62,3.16-.37.44-.78.85-1.14,1.3s-.59.81-.87,1.22a71.9,71.9,0,0,0-4.69,8.12c-.37.71-.76,1.4-1.15,2.12-.34-.2-.13-.45,0-.65.54-1.13,1.08-2.26,1.64-3.38.65-1.28,1.32-2.55,2-3.83a.85.85,0,0,0,.12-.36c-1.64,2.46-2.82,5.17-4.26,7.86-.09-.19-.14-.24-.13-.27a55.54,55.54,0,0,1,2.78-7.27,27.36,27.36,0,0,1,2.89-4.58,10.63,10.63,0,0,1,2.85-2.7c1-.61,1.85-1.39,2.77-2.08,1.34-1,2.68-2,4-3a.73.73,0,0,1,.27-.11l0,0,0,0c.09-.16.19-.31.29-.47h0c-.46.29-.94.58-1.39.9-1.24.89-2.46,1.81-3.7,2.7a27.59,27.59,0,0,0-4.43,3.55c-.53.58-1,1.22-1.47,1.84-.27.33-.43.76-.88.95-.12,0-.16.26-.24.4l-3.13,5.73s-.08,0-.13.07a1.36,1.36,0,0,1,.15-1.12c.4-.89.83-1.76,1.27-2.63.37-.71.77-1.41,1.2-2.19-.49.34-1.3,1.7-2.59,4.3a7.45,7.45,0,0,1,.67-2.65,18.14,18.14,0,0,1,1.26-2.44c-.88.8-1.22,2-2.07,2.88a1.55,1.55,0,0,1,.16-1.46,24.77,24.77,0,0,1,6-6.38C69.46,17.06,70.73,16.35,72,15.61Zm-8.6.92-1.6,5.21C61.64,20.93,62.41,18.3,63.38,16.53Zm3.71,1.13-.19-.11a15.22,15.22,0,0,1,1.64-2.63l.12.08ZM68.55,16a1.07,1.07,0,0,1-.45.84L68,16.76l.45-.83Zm-.19-7.82c0,.51,0,.89,0,1.27.09,1.2.18,2.4.28,3.6,0,.25,0,.51.06.76a1.19,1.19,0,0,1-.38,1,13.25,13.25,0,0,0-1.87,2.91,2.79,2.79,0,0,1-.59.74,26.28,26.28,0,0,1,2-4.29l-.21.26a2.51,2.51,0,0,0-.2.29l-2.15,4.12a2.18,2.18,0,0,1-.49.65,35.48,35.48,0,0,1,2-4.46c-.19.29-.39.57-.57.86s-.38.63-.55,1-.32.67-.48,1l-.46.94c-.16.34-.3.68-.47,1a3.89,3.89,0,0,1-.58.89,30.23,30.23,0,0,1,1.08-3.12A10.82,10.82,0,0,0,63.6,20a6.56,6.56,0,0,1-1.17,2.33l-.15-.07c.48-1.24,1-2.48,1.46-3.73a8.43,8.43,0,0,0,.23-.93,3.39,3.39,0,0,1,.2-.79c.34-.65.73-1.27,1.1-1.9a.69.69,0,0,0,0-.13,17.09,17.09,0,0,1,1.46-3.05c.46-1,.88-2,1.32-3.06C68.15,8.51,68.23,8.41,68.36,8.18Zm-9,5.75A12,12,0,0,1,61,12a20.92,20.92,0,0,1,2.19-1.89c.84-.54,1.71-1,2.59-1.46.69-.37,1.4-.69,2.23-1.09a68.44,68.44,0,0,1-4.45,9.19c.07-.41.15-.82.22-1.22.11-.13.28-.23.34-.38.55-1.27,1.08-2.54,1.62-3.81,0,0,0-.08-.06-.18-.32.58-.64,1.1-.91,1.66-.4.85-.77,1.72-1.15,2.57s-.8,1.67-1.13,2.52-.67,1.91-1,2.87h-.14a4,4,0,0,1-.05-.77,18.59,18.59,0,0,1,1.28-4.39c.23-.58.49-1.15.68-1.74a4.08,4.08,0,0,0-.69,1.26c-.19.45-.35.9-.52,1.36s-.38.95-.53,1.43-.27.92-.43,1.45a1.14,1.14,0,0,1-.27-1.09,20.89,20.89,0,0,1,.66-2.12c.44-1.07.94-2.12,1.41-3.17a.36.36,0,0,0,0-.25,30.2,30.2,0,0,0-2.33,5,2.08,2.08,0,0,1,0-2.14c.34-.76.65-1.54,1-2.3a.32.32,0,0,0,0-.35c-.47,1-.94,2-1.44,3.17-.29-.44-.47-.79-.26-1.22s.39-.84.59-1.25c.12-.25.25-.48.37-.72l-.12-.08-1.13,1.86C59.25,14.46,59.18,14.21,59.41,13.93ZM54.62,4.76c.5,1.4,1,2.8,1.48,4.19.81,2.17,1.63,4.34,2.49,6.49a34.11,34.11,0,0,1,2.2,8.73,27.77,27.77,0,0,1,.27,5.61c-.11,1.2-.41,2.38-.63,3.56,0,.2-.06.2-.47.4-.08-.49-.15-1-.21-1.43-.19-1.38-.4-2.75-.57-4.14-.1-.89-.14-1.8-.22-2.7a1,1,0,0,0-.18-.36c.09,1.43.14,2.85.27,4.26s.32,2.85.49,4.3c-.35.06-.53,0-.59-.29-.22-1.11-.49-2.22-.64-3.34-.24-1.95-.35-3.93-.61-5.87-.52-3.86-1.06-7.71-1.67-11.55-.31-1.9-.8-3.76-1.19-5.64a22.51,22.51,0,0,1-.44-2.75C54.47,4.41,54.56,4.58,54.62,4.76Zm3,22.26a36.81,36.81,0,0,1-.81-7.17A66.64,66.64,0,0,1,57.62,27Zm-4-23c0-.23.1-.45.14-.68l.09,0c.26,1.21.53,2.43.79,3.65.47,2.22,1,4.43,1.36,6.67a23,23,0,0,1,.53,4.62c0,.37.24.76.19,1.12a4.31,4.31,0,0,0-.18,1.14c.11.73.14,1.47.24,2.21.25,1.91.49,3.81.8,5.71.21,1.29.55,2.58.82,3.87.08.37.12.76.18,1.16-.34.13-.54.12-.63-.23-.44-1.63-.92-3.25-1.34-4.89-.23-.92-.37-1.86-.56-2.79a.4.4,0,0,0-.17-.28,39.64,39.64,0,0,0,1.82,8.36l-.6.38c-.8-2.07-1.37-4.15-2-6.21.2,2,1.06,3.87,1.36,5.86l-.13.07a3.63,3.63,0,0,1-.33-.47,20.64,20.64,0,0,1-1.82-5.6c-.3-1.94-.67-3.87-.94-5.82A28.76,28.76,0,0,1,53,18.34c0-1.87,0-3.75,0-5.63,0-1.09.19-2.17.27-3.26.06-.83.07-1.66.13-2.5Q53.48,5.47,53.6,4Zm.06,30.62c.2-.19.54-.32.76-.1a2.83,2.83,0,0,1,.33.37.74.74,0,0,1,0,1,.42.42,0,0,1-.59,0,.23.23,0,0,1-.07-.1l0,0-.33-.45a.59.59,0,0,1-.12-.41A.39.39,0,0,1,53.66,34.6Zm-1-29.67a2.77,2.77,0,0,1,.5-.92c-.07.83-.14,1.65-.2,2.47-.14,1.92-.25,3.84-.42,5.75a41.74,41.74,0,0,0-.06,5,63.87,63.87,0,0,0,.83,9.27c.25,1.41.47,2.81.7,4.22l0,.08a.07.07,0,0,1,0,.05,3.53,3.53,0,0,1,.39,1.38l-.14,0c-.08-.47-.17-.94-.25-1.41,0,0,0,0,0,0s0-.06,0-.09a11.7,11.7,0,0,1-.43-1.26,41.48,41.48,0,0,1-.87-5.06c-.06-.56-.16-1.12-.27-1.68a51.66,51.66,0,0,0,2,11.15c-.49.09-.54-.21-.62-.43-.39-1.09-.79-2.18-1.11-3.29-.53-1.82-1-3.65-1.49-5.5-.27-1.14-.46-2.31-.64-3.48A35.46,35.46,0,0,1,50.14,16,21.46,21.46,0,0,1,51.29,8.8C51.75,7.51,52.18,6.22,52.64,4.93Zm.86,28.26-.17.06c-.21-.64-.42-1.27-.64-1.91l.15-.05ZM48.13,22.26A42.45,42.45,0,0,1,49,13.77a20,20,0,0,1,1.33-4.23c.35-.8.67-1.62,1-2.44,0-.08.09-.15.26-.19-.16.51-.3,1-.48,1.53a20.14,20.14,0,0,0-1.17,5.9,27.54,27.54,0,0,0,0,4.72c.13,1.17.37,2.33.58,3.49.3,1.66.57,3.32,1,5,.48,2,1.07,4.06,1.62,6.1,0,.16.06.34.12.64-.2-.12-.32-.15-.37-.23a7.45,7.45,0,0,1-1.45-3c-.31-1.59-.69-3.16-1-4.74-.09-.4-.12-.82-.2-1.22a.29.29,0,0,0-.08-.14h-.07l1.07,6.26A4.6,4.6,0,0,1,50,29.29c-.21-1.06-.42-2.13-.65-3.19a.79.79,0,0,0-.18-.28h0l.54,3.09L49.6,29a8.38,8.38,0,0,0-.69-.86c-.31-.3-.27-.66-.31-1-.12-1-.28-2.07-.39-3.1C48.15,23.41,48.14,22.83,48.13,22.26ZM44.32,10.82a12.26,12.26,0,0,1,2,2,7.53,7.53,0,0,1,.87,2,6.29,6.29,0,0,1,0,2.73A13.92,13.92,0,0,1,47,19.09l-1.86-6.86-.17,0c1,4.1,2.25,8.17,2.32,12.46-.44-1.51-.88-3-1.34-4.52s-.89-2.8-1.4-4.19l0,0c.82,2.94,1.83,5.84,2.39,8.87a.91.91,0,0,1-.21-.23c-.7-1.51-1.44-3-2.09-4.55A32.37,32.37,0,0,1,43,14.75c-.23-1-.38-2-.59-2.93s-.43-1.94-.66-3A28.08,28.08,0,0,1,44.32,10.82ZM38.69,20.94c.06-.84.28-1.66.34-2.5a2.18,2.18,0,0,1,0-.25.22.22,0,0,1,0-.08,1.71,1.71,0,0,1,0-.45s0,0,0,0a2,2,0,0,1,0-.24,20.51,20.51,0,0,1,.9-3.57c.3-.76.3-1.58.66-2.31a18.28,18.28,0,0,0,.66-1.74l.14,0A12.15,12.15,0,0,1,41.79,11a48.75,48.75,0,0,0,2.64,9.85c.56,1.39,1.29,2.72,1.94,4.08a2.48,2.48,0,0,1,.29.92l-2.45-2.21a2.48,2.48,0,0,0-.49-.38c-.24-.13-.51-.26-.78-.05s-.16.46-.11.7.16.49.23.73c.19.62.41,1.23.56,1.86.2.85.36,1.72.53,2.59a1.26,1.26,0,0,1,0,.47,58.68,58.68,0,0,1-2.23-8.42l-.14,0c0,.2.05.41.08.61s.08.45.13.68c.37,1.63.74,3.25,1.12,4.88l.21,1a1.27,1.27,0,0,1,.32,1h0s0,0,0,0a11.94,11.94,0,0,1,1,3.26.34.34,0,0,1-.05.11l-.06,0c-.16-1-.7-1.8-.86-2.77,0-.19,0-.38-.06-.57l0,0v0l-.29-.53v.48c-1-1.34-2.83-8.12-3.12-14.1,0,.5,0,1,0,1.51s.09,1.06.15,1.59c.12,1,.2,1.93.37,2.9a39.58,39.58,0,0,0,3,10.09,23,23,0,0,1,.83,2.33.61.61,0,0,1-.14.07c-.14-.22-.3-.42-.42-.65a86.48,86.48,0,0,1-3.46-8.27,1.42,1.42,0,0,0-.25-.47c.75,2.59,1.77,5.08,2.74,7.6a5.2,5.2,0,0,1-1.89-2.14c-.44-1.34-.87-2.68-1.32-4a.64.64,0,0,0-.17-.31A26.34,26.34,0,0,0,41,29.81c-.55-.34-1-.62-1.1-1.17a41.45,41.45,0,0,1-1.12-5.94c0-.22,0-.44,0-.66A5.09,5.09,0,0,1,38.69,20.94ZM49.27,42.88c.34,1.1.78,2.18,1.19,3.26s.74,2,1.19,3a9.93,9.93,0,0,0,1,1.7c.4.56.86,1.07,1.26,1.63-.86-.41-1.26-1.28-2-2l.15.61a2.53,2.53,0,0,1-.37-.37,30.52,30.52,0,0,1-2.67-5.33,11.9,11.9,0,0,1-.51-2.51c-.1-.83-.07-1.67-.09-2.5v-.05a2,2,0,0,1-.07.26,1.43,1.43,0,0,1-.24.31h0a14.06,14.06,0,0,1,.25,2.6,6.56,6.56,0,0,0,.28,1.61,19.16,19.16,0,0,0,1.38,4.05,2.23,2.23,0,0,1,.06.33,2.37,2.37,0,0,1-.21-.23A14.55,14.55,0,0,1,48.24,44c-.06-1-.05-2-.07-3.05h0a16.31,16.31,0,0,0-.39-4c-.26-1.28-.53-2.57-.82-4-.06.92-.12,1.7-.16,2.48,0,1.16-.1,2.31-.16,3.47a6.55,6.55,0,0,0,0,.89c0,.43-.07.87.21,1.3a.84.84,0,0,1-.08,1c-.08.07-.06.26,0,.39a22.77,22.77,0,0,0,.6,4.26,2.4,2.4,0,0,1,.1.93l-.19-.27c-.06.75.39,1.27.54,1.86s.32,1.25.44,1.89a12.05,12.05,0,0,1-1.66-5.43,1.74,1.74,0,0,1-.15.22,2.55,2.55,0,0,1-.26-1.32c0-2,0-4,0-6a48.64,48.64,0,0,0-.38-5.67,62.94,62.94,0,0,0-1.25-7c0-.13-.05-.26-.09-.51a7.53,7.53,0,0,1,1.41,2.12,25.73,25.73,0,0,1,2,6.64c.22,1.32.34,2.66.49,4,.06.45,0,.91.09,1.37a1.62,1.62,0,0,0,.16.45h0v0C48.79,41,49,41.93,49.27,42.88Zm-1.52.91s0,0,0,0c-.22-1-.28-2-.51-2.92A14.48,14.48,0,0,1,47,36.25c0-.42,0-.83,0-1.36.11.17.21.26.23.35.2,1.41.41,2.83.6,4.25a11.34,11.34,0,0,1,0,1.17c0,.81,0,1.62,0,2.42a3.32,3.32,0,0,1-.15.68s0,0,0,.06h0c.07.32.14.64.2,1l.33,1.53c.08.38.15.77.23,1.15a1.66,1.66,0,0,1,.07.78c-.19-.46-.41-.91-.58-1.38a10.06,10.06,0,0,1-.45-1.51,11.66,11.66,0,0,1,0-1.57l.25,0Zm2.42,8.36a10.64,10.64,0,0,1-2.29-4.65C48.52,49.12,49.61,50.51,50.17,52.15ZM49.53,49c.55,1.08,1.1,2.16,1.71,3.38A6.13,6.13,0,0,1,49.53,49Zm1.19,1.55c-.11-.14-.23-.28-.34-.43l.15-.08c.07.17.13.34.19.51l.7.83,1.23,1.48a.36.36,0,0,1-.57,0A6.24,6.24,0,0,1,50.72,50.57Zm-.67-2.08.16-.08a1.85,1.85,0,0,1,.33.89v0l0,0a2.27,2.27,0,0,1,.66,1.06l-.13.07c-.18-.37-.36-.75-.53-1.13l0,0v0C50.37,49,50.21,48.76,50.05,48.49Zm4.63,5.66.14.06c-.48,1.23-1,2.46-1.46,3.69A10.43,10.43,0,0,1,54.68,54.15Zm-.79.41-.65,1-.66,1A3.19,3.19,0,0,1,53.89,54.56ZM46.81,49a4,4,0,0,1-.53-2.3C46.46,47.41,46.64,48.18,46.81,49ZM38.89,29.61c.55.46,1.17.85,1.7,1.36a33.71,33.71,0,0,1,4,4.55.42.42,0,0,1,.09.37c-.33-.35-.67-.69-1-1.06s-.58-.75-.88-1.13l-.13.09a7.81,7.81,0,0,0,.55.82c.5.6,1,1.21,1.55,1.78a1,1,0,0,1,.3.8c0,.46,0,.91,0,1.36l-.16.07c-.52-.59-1-1.15-1.55-1.75s-.88-1.13-1.32-1.7a2.88,2.88,0,0,0-.27-.22,2.32,2.32,0,0,0,.29.54c.9,1.15,1.81,2.28,2.73,3.42a.83.83,0,0,1,.18,1,4.12,4.12,0,0,1-.61-.37A18.47,18.47,0,0,1,41,35.9c-1-1.37-2-2.76-2.93-4.14-.64-.91-1.24-1.84-1.91-2.73a24.4,24.4,0,0,0-1.63-1.9c-1.12-1.17-2.26-2.32-3.39-3.49a1,1,0,0,1-.27-.51,1.61,1.61,0,0,1,.38.16c1.66,1.27,3.33,2.51,4.95,3.83C37.13,27.89,38,28.83,38.89,29.61ZM34.17,24.2c-.41-.84-.78-1.69-1.17-2.54l.11-.05c.58,1,1.15,2,1.8,3.13A1.13,1.13,0,0,1,34.17,24.2ZM29,10.62s.08,0,.1,0c1.25.92,2.52,1.82,3.75,2.77a16.07,16.07,0,0,1,4.37,4.88A2.63,2.63,0,0,1,37.69,20a8.23,8.23,0,0,1-.16,1.25c-.29-.5-.59-1-.88-1.51l-.08,0a2,2,0,0,0,.13.43c.15.31.32.61.49.92a3.64,3.64,0,0,1,.53,2c0,.54.1,1.09.09,1.68-.21-.51-.41-1-.61-1.54-.13-.32-.23-.66-.37-1,0-.1-.19-.16-.29-.24.42,1.17.84,2.33,1.27,3.49.19.51.4,1,.6,1.52l-.14.06c-.16-.35-.31-.7-.46-1.06-.45-1.06-.89-2.13-1.35-3.19a2.5,2.5,0,0,0-.39-.53c.54,1.37,1.09,2.74,1.63,4.1.07.18.13.37.2.56l-.13.05-.63-1.12c-.45-.81-.88-1.62-1.33-2.43a1.25,1.25,0,0,0-.16-.17l0,0c.36.74.73,1.47,1.09,2.22.11.24.23.48.35.72l-.13.11a3.55,3.55,0,0,1-.38-.4,32.55,32.55,0,0,1-2.78-4.73c-.8-1.77-1.57-3.56-2.25-5.38s-1.57-3.23-2.35-4.84c-.06-.13-.13-.25-.19-.37S29,10.65,29,10.62Zm3.46,8.92a1.91,1.91,0,0,1-.68-1.4h0C32,18.61,32.23,19.07,32.46,19.54Zm-4-8.64a2,2,0,0,1,.32.37,46.78,46.78,0,0,1,3,6.43c.05.15.07.31.11.47h0c-.16-.24-.32-.48-.46-.73s-.21-.51-.32-.77A.34.34,0,0,0,31,17c.29.86.57,1.74.88,2.6a10.38,10.38,0,0,0,.5,1.14c.1.2.25.25.44.07a1.13,1.13,0,0,0,0,1c.23.53.45,1.07.66,1.6a.75.75,0,0,1,0,.4,36.35,36.35,0,0,1-2-3.92c.18,1.12.86,2.06,1.12,3.2a1.28,1.28,0,0,1-.82-.83c-.57-1.49-1.17-3-1.73-4.46-.19-.52-.31-1.06-.51-1.58a35.93,35.93,0,0,0,1.85,6c-.9-.28-1-1-1.26-1.64-.42-1.1-.75-2.22-1.1-3.28a22.32,22.32,0,0,0,1,4,1.12,1.12,0,0,1-.84-1.08c-.2-1.35-.46-2.69-.58-4-.13-1.63-.15-3.27-.23-4.91A1.73,1.73,0,0,1,28.42,10.9Zm-1.34,10,.09-.13a1.57,1.57,0,0,1,.32.15c.67.54,1.35,1.06,2,1.64s1.2,1.28,1.82,1.89,1.58,1.43,2.3,2.21a34.13,34.13,0,0,1,3.66,4.71c.79,1.2,1.65,2.35,2.47,3.53.64.91,1.24,1.85,1.91,2.73.45.59,1,1.09,1.49,1.65.32.37.63.76.94,1.14l-.1.11c-.16-.11-.33-.21-.48-.33a50.34,50.34,0,0,1-5.9-5.78,1.16,1.16,0,0,0-.21-.16.16.16,0,0,1-.09,0,3.18,3.18,0,0,0,.28.43,44.3,44.3,0,0,0,6.87,6.61,1.25,1.25,0,0,1,.49,1.51c-.47-.36-.89-.67-1.28-1-.74-.66-1.46-1.36-2.19-2-.2-.18-.44-.33-.66-.5q1.55,1.55,3.1,3.08c.3.29.63.54.93.82a.33.33,0,0,1,0,.36c-.45-.37-.91-.72-1.35-1.11-1.08-1-2.19-1.92-3.22-2.95A32,32,0,0,1,38.08,37c-.1-.12-.42-.3-.11-.54-.46-.68-.95-1.35-1.38-2a16.73,16.73,0,0,1-.8-1.51,2.59,2.59,0,0,1-.12-.58l-.48-.73c-.27-.42-.55-.85-.8-1.28-.6-1-1.14-2-1.79-3A24.84,24.84,0,0,0,28.11,22,13.27,13.27,0,0,1,27.08,20.93ZM44.91,44.64a26.39,26.39,0,0,1-5-5q2.26,2,4.5,4C44.69,43.89,45.06,44.09,44.91,44.64Zm-.07,1.09a18,18,0,0,1-2.74-3.24,2.72,2.72,0,0,1,.32.25l2.21,2.12C44.88,45.09,45.07,45.33,44.84,45.73ZM28.68,23.29c-.05-.1-.09-.2-.18-.4a2.52,2.52,0,0,1,1,.86c.77.92,1.51,1.88,2.24,2.83.2.25.3.58.49.84a48,48,0,0,1,3.33,5.66.67.67,0,0,1,.07.24l-.12.06-1.74-2.84a3.72,3.72,0,0,0,.5,1.42c.75,1,1.44,2.11,2.15,3.16l2,2.94a4.52,4.52,0,0,1,.25.49,3.55,3.55,0,0,0,.3.54c1.33,1.66,2.68,3.31,4,5,0,0,0,0,0,.17l-.69-.52a10,10,0,0,0,1.92,2,4.62,4.62,0,0,1,.52.46,1.12,1.12,0,0,1,.2.62c-1.59-1-2.71-2.53-4.15-3.71.66.72,1.3,1.46,2,2.16s1.33,1.28,2,1.92c.14.13.34.24.26.6-.3-.23-.56-.4-.79-.61-1.14-1-2.3-2-3.39-3.08a22,22,0,0,1-3.16-4.55s0-.11.06-.16c-.86-1.6-2-3-2.83-4.66-.07-.15-.22-.32-.19-.44.11-.41-.18-.63-.35-.92-.86-1.45-1.73-2.9-2.56-4.37C30.75,27.07,29.73,25.18,28.68,23.29ZM14.19,28c.79,0,1.57,0,2.36.06a17.78,17.78,0,0,1,5.32.9,36.05,36.05,0,0,1,3.31,1.45,42,42,0,0,1,6.7,4.07,3.62,3.62,0,0,1,1.32,1.29c-.75-.39-1.49-.79-2.25-1.17a2.88,2.88,0,0,0-.52-.17,9.79,9.79,0,0,0,.82.62c.79.48,1.62.9,2.37,1.43.29.19.43.6.64.91l-.12.14c-.71-.45-1.4-.9-2.11-1.34-1.11-.68-2.22-1.36-3.34-2l.13.18a.26.26,0,0,1,.05.2A62.69,62.69,0,0,1,34.18,38,1.62,1.62,0,0,1,35,39.34l-1.78-.91L29,36.29a3.18,3.18,0,0,0-.33-.1c.49.31,1,.64,1.46.91q2.43,1.35,4.88,2.65c.49.27.6.77.87,1.24-1.55-.38-8-4.42-8.84-5.54.37.14.53,0,.27-.15a24.15,24.15,0,0,1-3.7-2.44A61,61,0,0,0,17,29.61c-1.35-.53-2.72-1-4.09-1.61C13.36,28,13.78,28,14.19,28Zm-2.1.57a7.23,7.23,0,0,1,.81.15q1.66.52,3.3,1.08a32.5,32.5,0,0,1,6.58,3.12,31.76,31.76,0,0,1,4.32,3.26,69.67,69.67,0,0,0,7,5.6c.48.32,1,.61,1.45,1-.43-.17-.87-.33-1.3-.52a39.92,39.92,0,0,1-5.73-3c-1-.69-2-1.43-3-2.14-.29-.21-.59-.39-.89-.59h0c.6.53,1.18,1.09,1.82,1.57a32.93,32.93,0,0,0,6.26,3.72l4.49,2a2.16,2.16,0,0,0,.45.19c.94.16,1.3.95,1.91,1.68a18.26,18.26,0,0,1-4.3-1.44c-1.35-.59-2.67-1.26-4.06-1.84a3.48,3.48,0,0,0,.39.28,35.63,35.63,0,0,0,8.11,3.4.94.94,0,0,1,.44.2c.52.48,1,1,1.59,1.54a20.82,20.82,0,0,1-6.77-2.71l1.74.57.06-.15a5.45,5.45,0,0,0-.55-.25,22.77,22.77,0,0,1-5.69-2.73,10,10,0,0,1-2.08-1.61c-.63-.74-1.49-1.2-2.11-1.94s-1.27-1.42-1.9-2.12l-.91-1,.08,0a10,10,0,0,0-1.16-1.18,7.57,7.57,0,0,1-1-.81c-.74-.58-1.49-1.14-2.27-1.66a24.48,24.48,0,0,0-5.36-2.76c-.6-.21-1.17-.51-1.76-.77Zm14.68,13c-.77-.58-1.61-1.09-2.37-1.69s-1.54-1.34-2.28-2c-2.18-2-4.33-4.08-6.53-6.07-.88-.78-1.88-1.42-2.83-2.13a2.1,2.1,0,0,1-.57-.51c.35.15.7.31,1.06.45a20.42,20.42,0,0,1,2,.76A25.23,25.23,0,0,1,21,33.88a26.91,26.91,0,0,1,4.19,4.35,17.28,17.28,0,0,0,3.87,3.63,34.68,34.68,0,0,0,7.26,4.35c.87.38,1.71.82,2.59,1.16s2.06.71,3.11,1a1.5,1.5,0,0,1,1,.76c-1.3-.38-2.63-.71-3.9-1.16a42.62,42.62,0,0,1-6.34-2.69A52.09,52.09,0,0,1,26.77,41.47Zm7.67,5L40.79,49A22.75,22.75,0,0,1,34.44,46.44Zm.35,2.85-3.34,1A6.89,6.89,0,0,1,34.79,49.29Zm6.89,2-3.23.89A4.62,4.62,0,0,1,41.68,51.26ZM6.77,55.69s0-.06,0-.09c.34-.1.68-.22,1-.31A17.47,17.47,0,0,0,11,54.07c.81-.39,1.66-.71,2.48-1.09a84.64,84.64,0,0,1,11.55-4.17,44.78,44.78,0,0,1,4.64-.92.8.8,0,0,1,.57.09l-1.6.52a.29.29,0,0,0,0,.09L31.55,48l0,.12c-.93.34-1.86.67-2.78,1S27,49.81,26,50.24l.78-.2,6-1.59c.21-.06.45-.17.68.15l-1.43.45c-1.35.45-2.72.9-4.07,1.38a3.69,3.69,0,0,0-1,.64,39.84,39.84,0,0,1,6.53-2.21l.06.16-3.24,1.2c-1.07.4-2.15.82-3.25,1.25l.22.13s0,.09-.06.11a23.79,23.79,0,0,1-3,1.06c-.76.15-1.48.45-2.22.62s-1.46.47-2.2.65c-1.1.28-2.22.49-3.32.74a16.6,16.6,0,0,0-2.39.66l1-.19c1.19-.24,2.37-.45,3.55-.72s2.37-.64,3.56-.91a33.55,33.55,0,0,0,3.92-1.22,7.72,7.72,0,0,1,.87-.33l.55-.17a21.35,21.35,0,0,1,3.47-1c1.29-.22,2.45-.76,3.69-1.09.45-.12.9-.38,1.48,0l-1.45.42c-.6.18-1.2.34-1.8.53-.12,0-.19.2-.29.31a11.25,11.25,0,0,1,4.83-.86c-1.73.94-3.67,1.28-5.45,2.06.48.18.49.2.9,0,1.52-.65,3.09-1.12,4.65-1.63a3.58,3.58,0,0,1,2.41.28,70.75,70.75,0,0,1-7.7,2.66.83.83,0,0,0,0,.15l.41-.07c.6-.17,1.19-.37,1.8-.51a4.4,4.4,0,0,1,1.36-.06c-1,.44-2,.89-3,1.31-.53.23-1.07.43-1.61.63a47.91,47.91,0,0,1-5,1.36,31.54,31.54,0,0,1-7.55.94c-2.54,0-5.09-.06-7.64-.11-1.44,0-2.87-.09-4.31-.19C5.91,57,5,56.9,4.08,56.75a4.3,4.3,0,0,1-1.17-.41A38.6,38.6,0,0,1,8,55.73Zm23.37-5a4.62,4.62,0,0,1-1.72.5l1.67-.62Zm5.55,9.06a21.58,21.58,0,0,1-4.23,2.08,22.44,22.44,0,0,1-8.79,1.41,28,28,0,0,1-9.3-1.49,44.56,44.56,0,0,1-7-2.77L3.78,57.5s0-.09.05-.14l1.91.45,0-.08L5,57.38c2.48.11,5,.27,7.43.32a63.42,63.42,0,0,0,9.94-.18c1.85-.26,3.69-.68,5.52-1.1a27.65,27.65,0,0,0,5.16-1.64c1.34-.59,2.66-1.23,4-1.72a25.1,25.1,0,0,1,7.15-1.68c.14,0,.28,0,.42,0a1.56,1.56,0,0,1,.57.13c-.93.24-1.85.45-2.76.73s-1.81.57-2.7.91-1.8.74-2.69,1.11a.5.5,0,0,0,0,.13l.82-.27c1.22-.43,2.44-.87,3.67-1.29a8.52,8.52,0,0,1,.87-.22c.21-.06.36,0,.43.2h0c.12-.12.23-.32.37-.36A7.76,7.76,0,0,1,46,52.24l-1.29.32c-.54.15-1.07.32-1.61.46-.15,0-.28,0-.15-.21v0a6.39,6.39,0,0,1-1.61.86c-1,.35-2,.71-3.06,1.09S36.11,55.57,35,56c0,0-.06.09-.08.16s0,0,0,0a43.28,43.28,0,0,1,6.06-2s.05.11.1.21a3.85,3.85,0,0,1,2.31-.82,3.37,3.37,0,0,1-.35.22c-.64.35-1.26.7-1.91,1a62.86,62.86,0,0,1-6.35,3.2l-2.56.89a9.27,9.27,0,0,0-1.26.52c4.53-1,8.47-3.35,12.58-5.41a1,1,0,0,1-.17.22C40.85,56.09,38.29,57.93,35.69,59.71ZM35.81,68a.7.7,0,0,1-.49-.88,6.79,6.79,0,0,1,.4-1.4,13.7,13.7,0,0,1,2.18-3.37,32.46,32.46,0,0,1,5.3-4.84c-.09.23-.12.32-.2.54l2.44-1.92.09.11c-.16.17-.32.35-.47.53l0,.07,2-1.32.1.11c-.11.11-.21.23-.32.33-1.23,1.09-2.49,2.16-3.69,3.28a19.59,19.59,0,0,0-3.7,5.1c-.43.77-.91,1.51-1.36,2.27a.94.94,0,0,0-.15.58l2.25-3.57c.42-.67.83-1.34,1.28-2a2.8,2.8,0,0,1,1-1,5.85,5.85,0,0,0,1.24-1.2,35.56,35.56,0,0,1,4-3.57,1.69,1.69,0,0,1,1.08-.5,4.25,4.25,0,0,1-.82.86c-.28.28-.6.52-.89.78s-.62.56-.91.86a9.39,9.39,0,0,0-.76.91c-.22.31-.42.64-.62,1a.94.94,0,0,1,.1.1c.31-.28.63-.55.91-.85.43-.46.81-1,1.24-1.42a2.88,2.88,0,0,1,.43-.33l-.61.89-.27.4.1.07,1.17-1.41v0c.61-.56,1.21-1.15,1.85-1.68a5.3,5.3,0,0,1,1.45-.86,3,3,0,0,1-.29.39,13.67,13.67,0,0,0-2.46,3.34c-1,1.78-2.07,3.56-3.12,5.33-.26.44-.56.86-.85,1.27a.85.85,0,0,1-.51.32,5.58,5.58,0,0,0,.16-.68,1.86,1.86,0,0,0,0-.74.2.2,0,0,0,0-.08,10.72,10.72,0,0,1-1,1.23,5,5,0,0,1-1.8,1.37A16.77,16.77,0,0,1,38.49,68,3,3,0,0,1,35.81,68ZM48,56.79c0,.13-.07.26-.1.4h-.34l.37-.45S48,56.78,48,56.79ZM38.55,70c-.07.26-.13.51-.21.81-.56,0-.26-.68-.61-.89,0,.18-.08.34-.13.6l-1.48-1.08s0-.11,0-.16c2.79.06,4.88-1.4,6.94-3.11a5.79,5.79,0,0,1,.16.83c.1,1.77,1.24,2.85,2.52,3.84.41.3.85.57,1.29.83a.57.57,0,0,1,.35.72,3.81,3.81,0,0,0,0,.75l-1.63,0c-.26,0-.35-.19-.39-.41-.08-.53-.15-1.07-.23-1.68-.33.65,0,1.31-.14,1.92-.91,0-1.09-.11-1.27-.92l-.12-.62a2.16,2.16,0,0,0-.16-.59l0,1.76c-.75.11-.8-.17-.87-.66s-.09-1.19-.13-1.81c-.34.72-.09,1.48-.18,2.2-.9,0-1.12-.2-1-1,.13-1,.34-2,.5-3A7.21,7.21,0,0,0,41,72l-1-.36a6,6,0,0,1,.14-2c-.43.62-.31,1.27-.54,1.81C38.69,71.16,38.69,71.16,38.55,70Zm2.12,7.85-.82.35-.6-.55.91-1-1.07.61c-.37-.51-.37-.51.21-1.17l-.58.2a2.64,2.64,0,0,1,1-2.21c.4-.27.83-.51,1.23-.78a1,1,0,0,1,.86-.14c.94.24,1.88.48,2.83.66a8.84,8.84,0,0,0,4.12-.09A19.73,19.73,0,0,0,53,71.86l.66-.33c0-.07-.15-.18-.14-.18.31-.33.63-.65,1-1l.55.42-.44.34.61-.13,1,.68.09-.1c-.08-.12-.16-.23-.28-.38.49-.17.65.31,1,.33l0,2.1c-4.3,1.46-8.27,3.61-12.39,5.52-.08-.4-1-.16-.66-.82L43.06,78h0c.1.15.2.29.32.48l-.64.4-.5-.34c.05.15.11.3.19.52l-.87.55c-.16-.18-.3-.31-.45-.48a1.77,1.77,0,0,1,1-.7,3.17,3.17,0,0,1,.55-.49c.08-.05.26,0,.39.06h0c0-.17.08-.33.13-.51l-.59-.11h0c.13.3-.13.38-.3.51s-.66.45-1,.69-.63.27-1.2-.22c.19-.17.39-.33.59-.49Zm7-5.8,1.6.5s0,.08,0,.13l-1.5.44C47.56,72.73,47.7,72.42,47.64,72Zm9.43,3.44c0,.19,0,.37,0,.65l-3.49-.28a1.17,1.17,0,0,0-.05-.11c.33-.17.66-.36,1-.52a.64.64,0,0,1,.33-.08ZM55.35,75A4.4,4.4,0,0,1,57,74.33l0,.77Zm1.53-6.34-.64-.53c.1-.23.19-.44.3-.72C57.05,67.7,56.83,68.11,56.88,68.61Zm-.26.19c.38.26.3.63.25,1-.5-.2-.58-.26-1.18-.93l.38-.51C56.27,68.52,56.44,68.67,56.62,68.8Zm0,1.28a1,1,0,0,1,.3.37.49.49,0,0,1-.06.44c-.07.07-.27,0-.47,0l.26-.64a2.4,2.4,0,0,1-.85,0,2.88,2.88,0,0,1-.7-.55l.4-.47c.08,0,.14,0,.16,0C56,69.55,56.28,69.81,56.59,70.08Zm-1.08.42a.55.55,0,0,1-.73-.38l.14-.16Zm-2.85,5.78-.74.3C52.14,76.21,52.14,76.21,52.66,76.28Zm-9,5.49c.08,0,.12.17.18.25l.74-.08-.18.52h0a1.19,1.19,0,0,1,1.53-.12.94.94,0,0,1-1.53.12h0l0,0a0,0,0,0,0,0,0l-1,.13c.21-.27.31-.39.41-.5-.16.07-.31.17-.48.23s-.46.09-.81.16c.08-.21.12-.28.15-.35-.36,0-.7.38-1.11,0l.34-.48h0l-.22-.12.48-.45.08.06-.34.51h0a0,0,0,0,1,0,0,1,1,0,0,1,1.09,0l-.22.41C43,81.87,43.26,81.6,43.64,81.77Zm-.89.88c-1.11,1-1.3,1.13-1.85,1,.4-.36.75-.71,1.14-1C42.18,82.57,42.45,82.65,42.75,82.65Zm-1.24-2.53c.24.08.47.17.31.62Zm.33-.29.88-.57.37.41C42.33,80.36,42.33,80.36,41.84,79.83ZM43,79l.48-.4.55.49C43.35,79.62,43.28,79.61,43,79Zm-1.88,3.39c.2,0,.34,0,.47.07a.28.28,0,0,1,.13,0s0,.09,0,.11c-.7.83-.91,1-1.46.92C40.53,83.11,40.8,82.76,41.08,82.37Zm-.12,2,0,0v0l-.6.13c0-.38.19-.61.5-.57s.12.27.1.44h0l.21-.16c0,.1.06.17.1.32a1.68,1.68,0,0,1,.39-.37,1.93,1.93,0,0,1,.49-.06s.05.09.07.14l-.88.78C40.84,84.81,40.84,84.81,41,84.36Zm.81.91c.4-1,.85-1.24,1.8-.85C43,84.88,42.69,85.65,41.77,85.27Zm.91.65c.29-.4.64-.13,1.08-.15C43.21,86.44,43.21,86.44,42.68,85.92Zm14.61-.6c-1.54.65-3.07,1.31-4.63,1.89a2.22,2.22,0,0,1-.39.12,4.56,4.56,0,0,1-1.13.28h0a1.81,1.81,0,0,1-.31.09,10.36,10.36,0,0,1-1.91.28,6,6,0,0,1-1.79-.22c-.54-.15-1.06-.34-1.61-.46a.37.37,0,0,1-.29-.23h0a.5.5,0,0,1,.13-.53l-.65.36-1.1-.38c.34-.68.4-.71,1-.63.25,0,.51,0,.75.08s.22.24.12.42a4.74,4.74,0,0,0,.54-.31,1.35,1.35,0,0,0,.2-.35,7,7,0,0,1-3.06-.34,1.18,1.18,0,0,1,1.38-.93c.8.1,1.59.24,2.39.36a.7.7,0,0,0,.25,0,14.14,14.14,0,0,0-3-.62l.75-.84h0v0a1.84,1.84,0,0,0-.49.3,1.22,1.22,0,0,1-1.55.32l.52-.72h0a0,0,0,0,0,0,0c-.23.16-.47.32-.69.5a.57.57,0,0,1-.73.11,3.25,3.25,0,0,1,1.08-1.1c.1-.08.34,0,.55,0-.08.18-.15.31-.21.44h0A1.54,1.54,0,0,1,45.06,83c0,.13-.06.23-.09.32h0l0,0a1.39,1.39,0,0,1,1.17-.24,3.59,3.59,0,0,0,1.31.06l-1.6-.31a.67.67,0,0,1,.86-.43c-.11-.53.33-.6.56-.82l-.84.44c-.44.23-.78-.1-1.25-.14l.34-.45c-.16.1-.31.22-.47.3s-.49,0-.63-.32a.52.52,0,0,1-.79,0l.14-.2s0,0,0,0c-.62.16-.63.16-1-.15.42-.26.78-.21,1,.15h0v0h0a1,1,0,0,1,1-.21l-.28.36a2.69,2.69,0,0,0,.48-.24.59.59,0,0,1,.78,0l-.13.23a1.64,1.64,0,0,1,1.49-.11c.12,0,.21.19.3.29l.72-.42L47,81c-.22,0-.48,0-.54-.29-.28.09-.55.23-.84,0,.06-.08.11-.17.16-.25h0v0c-.39.17-.75.49-1.21.16-.06,0-.21.05-.32.05a2.24,2.24,0,0,1-.71-.14c.53-.26,1-.79,1.65-.38.15.09.42,0,.73-.07a4,4,0,0,0-.14.38h0v0a2.84,2.84,0,0,1,.51-.28c.23-.07.52-.25.67.15a5.63,5.63,0,0,1,1.15-.09,3,3,0,0,0,1.66-.07L49.49,80c-.53.23-1,0-1.67,0l.29-.42a7.13,7.13,0,0,1-1,.32c-.25,0-.2-.15-.12-.3a4.66,4.66,0,0,1-.61.26c-.18,0-.35,0-.39-.22a1.27,1.27,0,0,1-1,.09,2.76,2.76,0,0,1,1.17-.71c.14,0,.35.12.53.19s.52-.26.73.08c.26,0,.53-.08.8-.1.05,0,.11.15.17.24a1.87,1.87,0,0,1,1.43-.07c.08,0,.15.15.21.23a1.09,1.09,0,0,1,.79-.15,8.21,8.21,0,0,0,1.79.07c-.21,0-.42-.12-.64-.15-.73-.09-1.46-.16-2.18-.27-.15,0-.29-.16-.43-.24-.4.08-.79.26-1.19,0-.16-.12-.43.25-.59-.08l-.72.11a2.74,2.74,0,0,1,1.57-.76l-.1.27a3,3,0,0,1,1.82-.15s.07.1.1.16a5.18,5.18,0,0,1,1-.08c1,.08,2,.2,3.09.3a.62.62,0,0,0,.43-.11l-.81-.13a20.86,20.86,0,0,1-2.83-.46c-.11,0-.26.07-.39.06-.34,0-.71.05-1-.26l-.72.1a2.26,2.26,0,0,1,1.54-.72l-.83.55a2.23,2.23,0,0,0,.59-.16,2.86,2.86,0,0,1,1.88-.28,21.82,21.82,0,0,0,3,.18l-2.07-.32V77L56,77c0-.05,0-.1,0-.16l-3.42-.26a1.4,1.4,0,0,1,1.1-.49l2.28.12,1.1.07c.07.66.13,1.32.19,2-.66.48-1.27.92-1.88,1.38a1.56,1.56,0,0,0-.27.3c.37-.23.74-.47,1.12-.69s.58-.34,1-.55c0,.27.06.42.07.57.05.9.08,1.8.15,2.7A1.12,1.12,0,0,1,57,83c-1.17,1-2.31,2.11-3.44,3.21a44.17,44.17,0,0,0,3.84-3.12c.07.7.16,1.29.18,1.87C57.62,85.06,57.43,85.26,57.29,85.32Zm-.89-22c-.32,1-.54,1.92-.9,2.85a11.5,11.5,0,0,1-2.77,4,5,5,0,0,1-3,1.48,3.1,3.1,0,0,1-1.89-.36,9,9,0,0,1-3.12-2.5,5.82,5.82,0,0,1-.71-2.3.55.55,0,0,1,.18-.43c1.61-1.48,2.39-3.51,3.5-5.32a18.29,18.29,0,0,1,2.19-3.45A7.1,7.1,0,0,1,52.64,55c-.13.18-.2.31-.29.41a14.46,14.46,0,0,0-2.25,3.49c-.17.36-.15.79-.46,1.1,0,.06,0,.25,0,.39h0c-.09.1-.25.2-.28.33-.14.59-.26,1.19-.39,1.79h0c.27,0,.29-.23.33-.45s.18-.65.28-1,.16-.48.24-.72h0l1.58-2.76a2.63,2.63,0,0,1,.62-.76c-.31.69-.58,1.39-.92,2.06S50.4,60.16,50,60.78l.38.23a26.71,26.71,0,0,1,3-5.23c-.33,1.5-.58,2.91-1,4.29s-.91,2.71-1.32,4.1l.39-.57a12.94,12.94,0,0,1-2.27,4.58l.11.07c.26-.34.52-.66.76-1A15.31,15.31,0,0,0,52,63.29q1.25-3.81,2.5-7.6a5.8,5.8,0,0,1,.63-1.24c-.08.63-.13,1.26-.24,1.87-.35,2.1-.67,4.21-1.1,6.29a23,23,0,0,1-.92,2.77l-.21.55.15.06c.25-.58.56-1.14.76-1.73a34.25,34.25,0,0,0,1.16-5.5c.22-1.51.54-3,.84-4.49a1.72,1.72,0,0,1,.41-.68,24.36,24.36,0,0,1-.44,6,43.28,43.28,0,0,1-1.59,5.8,4.61,4.61,0,0,0,.87-1.91c.46-1.77.88-3.55,1.28-5.33.13-.61.16-1.24.24-1.86a1.77,1.77,0,0,1,.13-.54,7.28,7.28,0,0,1,.54,2.5A13.66,13.66,0,0,1,56.4,63.31Zm.44-12.25a8,8,0,0,1-.78-.89c-.59-.91-1.2-1.82-1.72-2.77-.7-1.31-1.38-2.63-2-4-.44-1-.71-2.14-1.05-3.22a8.23,8.23,0,0,0,.18,1.42,25,25,0,0,0,2.1,5,31,31,0,0,0,2.7,4.45,1.59,1.59,0,0,1,.09.35c-.21-.11-.34-.14-.41-.23a22.35,22.35,0,0,1-4.6-7.62,12.57,12.57,0,0,1-.57-3.34,11.47,11.47,0,0,1,.06-1.94l.45,1.88c-.08-.72-.17-1.45-.25-2.18l-.18,0a1.56,1.56,0,0,0-.2.35,11.15,11.15,0,0,0,.17,4.07,19.78,19.78,0,0,0,4,8,11.64,11.64,0,0,1,.83,1.24,5.06,5.06,0,0,1-1.87-1.24,14.86,14.86,0,0,1-1.06-1.53c-.17-.23-.19-.56-.57-.64-.12,0-.22-.28-.3-.44a7.87,7.87,0,0,0-.89-1.7,6.55,6.55,0,0,1-.6-1.25,20.34,20.34,0,0,1-1.38-5.08c-.2-1.42-.32-2.85-.54-4.27-.18-1.21-.42-2.42-.71-3.61s-.71-2.47-1-3.76c.31.59.63,1.17.93,1.76.58,1.16,1.14,2.33,1.73,3.48a32.14,32.14,0,0,1,2.38,6.51A37.92,37.92,0,0,0,54.41,47a16.55,16.55,0,0,0,2.09,3.19A1,1,0,0,1,56.84,51.06Zm-.23-1.59A42.29,42.29,0,0,1,54,43.36a1.14,1.14,0,0,0-.42-.51c.61,2,1.4,4,2.19,5.93l-.21-.27a2.38,2.38,0,0,1-.18-.3,22.44,22.44,0,0,1-2-4.62c-.61-2-1.21-4-1.82-6A36,36,0,0,0,48.57,31c-.24-.43-.41-.89-.65-1.31-.5-.91-1-1.81-1.54-2.72a.39.39,0,0,1-.05-.28,3.89,3.89,0,0,1,.39.32,22.25,22.25,0,0,1,3,4.07c.71,1.14,1.4,2.29,2.09,3.45C52.9,36.35,54,38.17,55,40a2.59,2.59,0,0,1,.28.78c.32,1.39.66,2.78.94,4.19A23.16,23.16,0,0,0,57.61,49a1.13,1.13,0,0,1-.4,1.46C57,50.13,56.79,49.81,56.61,49.47ZM60.77,91.3l-1.43,0c0-.14-.07-.28-.11-.43l.33-.06a.75.75,0,0,0-.1-.24,2.16,2.16,0,0,1-.34-1.84,1.11,1.11,0,0,0,0-.44c-.09-.49-.28-1,.09-1.32-.13-.53-.29-1-.36-1.5,0-.29.15-.61.12-.9a5.28,5.28,0,0,0-.28-.91,4.65,4.65,0,0,1-.08-.74.91.91,0,0,1,.16-.11c.06.17.11.34.17.51l.24-.18c-.29-.88-.91-1.7-.6-2.78l.42.79c.12-.55-.18-.89-.26-1.27s-.5-.69-.24-1.26l.47,1c0-1-.8-1.76-.66-2.79.18.42.34.84.51,1.25l.11,0c0-.12,0-.26,0-.35-.27-.52-.32-1.12-.64-1.65a2.07,2.07,0,0,1,.05-1.36l.32.9a2.18,2.18,0,0,0-.26-1.52A3,3,0,0,1,58,72.48a6.14,6.14,0,0,1,0-1c.15.19.26.32.37.47,0-.06.09-.1.09-.12-.13-.39-.28-.78-.4-1.18s-.14-.56-.2-.84l.12-.05c.1.14.18.27.27.42.06-.06.12-.1.12-.12-.15-.49-.31-1-.45-1.45a1.84,1.84,0,0,1,0-.38l.51.12c-.19-.46-.09-.93-.5-1.25-.07-.07-.06-.26-.07-.4,0-.72-.07-1.44,0-2.15a5.27,5.27,0,0,1,.25-1.1c.2.39.33.63.46.87l.08,0c0-.14,0-.29-.08-.43a4.47,4.47,0,0,1-.16-2.18,21.31,21.31,0,0,0,.12-4.3c0-.86,0-1.71,0-2.57,0-.08,0-.15.17-.23a2.66,2.66,0,0,1,.07.37c0,.39,0,.79,0,1.18-.11,1.31.18,2.6.19,3.9,0,.3,0,.6-.06.89a.72.72,0,0,0,0,.35,2.57,2.57,0,0,1,0,1.89c0,.08,0,.22,0,.25.49.35.23.78.13,1.19-.06.24-.14.48-.21.73,0,.07-.07.16,0,.2.37.46,0,.91,0,1.37a2.32,2.32,0,0,0,.06.46l.37-.25c.25.67-.32,1.21-.27,1.86l.45.07c0,.34-.1.67-.12,1s0,.54,0,.81,0,.35,0,.53c0,.37-.36.77.1,1.12,0,0-.05.26-.08.39-.06.28-.12.56-.21.94l.54-.2c-.13.71-.26,1.39-.38,2.07l.14,0,.2-.45.15.06c-.12.74-.24,1.48-.37,2.22l.13,0,.31-.52.07,0a9.22,9.22,0,0,0-.24,1,3.3,3.3,0,0,0,0,1l.25-.51c.3.7-.1,1.33-.12,2l.3,0a.26.26,0,0,1,0,.15c-.18.93.12,1.86,0,2.79A.63.63,0,0,0,60,84a1.32,1.32,0,0,1,.08,1.19A2.64,2.64,0,0,0,60,86.59c.1.32,0,.72.05,1.13l.31-.41a3.14,3.14,0,0,1,.07.78,6,6,0,0,0,.31,2.9A1.72,1.72,0,0,1,60.77,91.3Zm-.58-25.58c.71,0,1,.55,1.63.8-.61.27-.9-.12-1.28-.36l-.19.36C60.08,66.27,60.21,66,60.19,65.72ZM61,68.37l-.71.09c0-.39,0-.68-.08-1.07Zm1.33.88a5,5,0,0,0,.82.55v-.41h0s0,0,0,0a1.11,1.11,0,0,1-.81-.6c.32.14.69.2.81.6h0v0c.16,0,.33.09.48.15a2.25,2.25,0,0,0,.77.25l-1.49-1.06a1.1,1.1,0,0,1,1.15.08,3.2,3.2,0,0,0,1.06.48l-.92-.71c.45-.12.76-.17,1.09.1a3.63,3.63,0,0,0,1.22.63l-1-.81a2.15,2.15,0,0,1,1.42.16.49.49,0,0,0,.56,0,1.42,1.42,0,0,1,.74,0c.85.12,1.7.23,2.54.39a4.89,4.89,0,0,1,.9.34,8.81,8.81,0,0,1,1.66.82l-.7.08a50.46,50.46,0,0,0-8.71,1.38c-.84.23-1.67.52-2.51.78-.26.09-.53.15-.87.25-.08-1.28-.16-2.51-.24-3.77C61.08,68.79,61.76,68.63,62.36,69.25Zm-.81,4c1.26.26,2.51.5,3.9.77a1.93,1.93,0,0,1-1.89.48c-.84-.28-1.74-.43-2.61-.65a4.78,4.78,0,0,1-.47-.23A1.18,1.18,0,0,1,61.55,73.28Zm-.93,1.43c0-.16,0-.32,0-.64l3.22.75a9.9,9.9,0,0,1-1.48,1c-.5.22-1-.12-1.43-.34S60.62,75,60.62,74.71Zm.05,1,1.18.44-1,.63C60.8,76.33,60.75,76,60.67,75.69Zm.23,1.45c.16-.11.59,0,.54-.45,0,0,.1-.09.17-.12,1.24-.53,2.26-1.47,3.56-1.92.4-.14.81-.25,1.21-.38a1.46,1.46,0,0,1,.07.19l-2.21,1c0,.19,0,.35-.08.52a1.08,1.08,0,0,0,.19,0c2.48-.82,5-1.65,7.44-2.46.28-.09.58-.29.93,0,.08.06.3-.06.45-.12a12.92,12.92,0,0,1,3.61-1c.66-.07,1.32-.23,2-.34a3.77,3.77,0,0,1,.89-.06,3.26,3.26,0,0,1-1.47.47,20.59,20.59,0,0,0-4.09,1.1c-1.47.48-2.92,1-4.37,1.58a30.59,30.59,0,0,0-5.1,2.35,8.44,8.44,0,0,0-2.39,1.77,3.73,3.73,0,0,1-1.26.91Zm3.41,7.3a7.8,7.8,0,0,0-3-.5,3,3,0,0,1-.09-.41c-.05-.83-.11-1.66-.14-2.5a.78.78,0,0,1,.19-.55,23.69,23.69,0,0,1,4.13-3c1.4-.66,2.81-1.32,4.25-1.88,1.9-.74,3.83-1.4,5.75-2.07A5.16,5.16,0,0,1,77,73.17c-.77.39-1.53.79-2.31,1.17a42.37,42.37,0,0,0-6.94,4.08.43.43,0,0,0-.1.09l.09.06c.23-.14.46-.27.67-.42a40.29,40.29,0,0,1,5.37-3.08c1.55-.78,3.13-1.49,4.71-2.22a2.24,2.24,0,0,1,.86-.23,32.54,32.54,0,0,0-8.19,6l.21-.1.34-.27c-.14.3-.22.44-.35.7a2.78,2.78,0,0,0,.31-.17c2.2-1.77,4.31-3.66,6.93-4.81l1.34-.58s.08,0,.2,0c-.57.43-1.09.83-1.63,1.22a53.42,53.42,0,0,0-6.54,5.38,28.35,28.35,0,0,0-2.54,2.83C68.58,84,67.71,85,66.88,86,66,85.48,65.21,84.88,64.31,84.44Zm13.5-7.14c0-.26-.11-.4-.07-.45.29-.36.59-.71.9-1.06l.12.1C78.47,76.32,78.19,76.75,77.81,77.3Zm.47.16c-.06.15-.11.3-.16.45l-.14,0,.17-.45Zm-.46.5c.16.57-.13,1-.26,1.43C77,78.9,77.06,78.73,77.82,78Zm-.88.42c-.28-.59.25-.79.46-1.15C77.65,77.77,77.65,77.77,76.94,78.38Zm1-2.14a2.61,2.61,0,0,1-.6.28c.11.43-.25.76-.6,1.16a.71.71,0,0,1,.11-1.13c.45-.36.87-.76,1.31-1.12a7.69,7.69,0,0,0,1.4-1.08c0-.06.15-.07.29,0-.13.14-.24.3-.37.43C79,75.25,78.45,75.75,77.93,76.24Zm-2.24,5.28c-.48-.57-.48-.57.09-1.09C76.26,80.84,75.63,81.15,75.69,81.52Zm-4.75,1.06c-.19-.16-.35-.31-.57-.51l1.42-1.56c.31.12.52.26.49.61l-.56.69.54-.5a5,5,0,0,1-.29.56s-.17,0-.26-.06h0L71,81.44l.38.69Zm0,.52c-.09.84-.7,1.44-.91,2.27-.34-.19-.48-.37-.32-.62A13.85,13.85,0,0,1,71,83.1Zm4-2.87c-.15-.31-.28-.61-.43-.94l.47-.58C75.26,79.24,75.68,79.7,75,80.23Zm.57-.33c.09.38-.12.52-.33.74C75.14,80.28,75.34,80.13,75.56,79.9ZM73,81.24l.37-.5c.69.65.79,1,.42,1.6C73.43,82.07,73.3,81.62,73,81.24Zm.11,2.28-.93-1.11.53-.83C73.67,82.22,73.79,82.69,73.14,83.52Zm1.19-3.84c.61.77.61,1,0,1.77C73.53,80.47,73.53,80.32,74.33,79.68Zm-.16-1c.13.54-.32.78-.69,1.17-.14-.18-.27-.33-.45-.54l2.13-1.84.1.1C74.77,77.8,74.93,78.62,74.17,78.68ZM73,80.46a.35.35,0,0,1-.28.08,6.69,6.69,0,0,1-.66-.23l.67-.68C73.23,80.06,73.28,80.21,73,80.46Zm-1.27,1.86-.43.55C71.34,82.44,71.34,82.44,71.74,82.32Zm.36.36L73,83.76l-.48.65c-.23-.29-.44-.53-.62-.78S71.65,83.23,72.1,82.68Zm1.17,1.44c.11.19.21.36.3.53l.31.56-.4.73C72.89,85,72.58,84.86,73.27,84.12Zm.6-1.06c.66,1,.66,1,.18,1.74C73.31,84.1,73.16,83.5,73.87,83.06Zm.26,0c-.18-.29-.1-.51.24-.72.15.49.67.86.29,1.55Zm.37-1L75,81.3c.57.7.56.82-.05,1.66Zm1.34-2.79c-.07,0-.17.06-.2,0a.94.94,0,0,1-.12-1.2l.59-.7c.5.44.28.89.11,1.33l.36-.26c0,.12.15.26.12.31-.24.38-.5.73-.74,1.08C75.58,79.56,75.86,79.37,75.84,79.19ZM67.09,86.4a40.67,40.67,0,0,1,3-4l.6.42c-.38.58-.72,1.12-1.09,1.64-.09.12-.3.16-.42.22-.14,1-1,1.65-1.42,2.6Zm1.46,2.11-.58-1,1.41-2.18c.58.34.6.36.36.86C69.39,86.93,69,87.66,68.55,88.51Zm2,2.25c-.58-.16-.88-.69-1.22-1.12-.16-.19-.08-.56-.11-.85l0,0h0l-.18.24c-.31-.34-.31-.34.12-.94,0,.26,0,.48.06.7h0c.25-.74.49-1.48.74-2.21a5.26,5.26,0,0,1,.29-.63l1,1c.17,0,.14-.22.1-.41,0,0,0,0,0,0v0c-.27-.21-.54-.41-.79-.63s-.28-.44.21-.63l0,0s0,0,0,0-.09-.29,0-.38c.21-.42.47-.83.72-1.27.48.38.87.73.85,1.33h0s0,0,0,0v0a1.27,1.27,0,0,1,.5,2l-1-1,.47-1h0l-.69.82-.85-.5h0l.67.78q0,.23-.09.48h0l.33-.25a8.6,8.6,0,0,1,.79.7c.09.11.15.42.08.48-.29.24-.29.6-.45.89s-.32.67-.52,1-.27.74-.76.83C70.77,90.25,70.7,90.55,70.6,90.76Zm13.73-.7a8.31,8.31,0,0,0-4.78-.42,21.4,21.4,0,0,0-2.62.67c-.68.22-1.31.59-2,.86a3.55,3.55,0,0,1-2.36.2c-.44-.12-.9-.19-1.43-.3A28.72,28.72,0,0,1,73,87.44c.44.79.81,1.46,1.21,2.21.09-.64,0-.9-1.09-2.42,0-.07,0-.16.09-.24s.13-.17.2-.26c.33.31.08.87.64,1.12-.09-.42,0-.85-.25-1.09-.4-.49-.06-.8.19-1.26.19.35.36.63.52.93s.26.54.39.81l.19-.08-.49-1.09c-.34-.71-.34-.71.06-1.56l.52.86c.14-.62-.64-1-.16-1.65.19.29.34.53.5.76l.1,0a2.59,2.59,0,0,0-.11-.37c-.4-.74-.4-.74.16-1.52l.38.39h0c0-.17-.08-.35-.14-.51a.85.85,0,0,1,.11-.83c.15-.25.33-.48.49-.73-.47-.37,0-.69,0-1h0l-.37.33C76,80,76,80,76.53,79.53v.36h0l.35-.53a1,1,0,0,1,.27,1.22c-.29.68-.51,1.38-.75,2.09-.06.18-.12.34-.35.31h0v0h0a2.28,2.28,0,0,1-.14,1.48c-.21.92-.45,1.83-.7,2.74-.12.42-.29.82-.4,1.24-.17.65-.32,1.31-.45,2a1.12,1.12,0,0,0,.07.69,2.09,2.09,0,0,0,.26-.46c.44-1.43.9-2.87,1.31-4.32a57.28,57.28,0,0,1,3.18-8.73,19.52,19.52,0,0,1,2.54-3.82.62.62,0,0,1,.38-.18l-1.23,3.06a16,16,0,0,0-1.2,3.08l.39-.81.11,0c-.08.38-.17.75-.24,1.13-.17.81-.37,1.63-.49,2.45a8.77,8.77,0,0,0,0,1.45c0,.34,0,.67,0,1.13.21-1.54.38-3,.6-4.36a7.73,7.73,0,0,0,.32-1.11c0-.36.7-.57.21-1,.14-.4.25-.8.41-1.18A17.43,17.43,0,0,1,82,75.25a3.22,3.22,0,0,1-.32,1.89c.4.4.25.84.06,1.25s-.41.67-.61,1a1.32,1.32,0,0,0-.2.72l.88-1.48c.15.55.2.93-.11,1.29a3.3,3.3,0,0,0-.32.55h0l.5-.35c.36.69-.43,1.16-.41,1.84l.56-.76a.83.83,0,0,1,0,.86A9.89,9.89,0,0,0,81.22,84c.32-.52.64-1,1-1.55.08,0,.16.07.15.09-.07.67.36,1.19.55,1.78A14.64,14.64,0,0,0,83.65,86c.42.88.86,1.75,1.32,2.6.29.53.64,1,1,1.53.08.12.15.26.31.55C85.49,90.47,84.9,90.29,84.33,90.06ZM96,88.88l-.5-.24.63.58L93.7,90c-.37.12-.73.29-1.11.39s-.84.19-1.28.28-1.13.24-1.7.38a8.11,8.11,0,0,1-1.71.1.64.64,0,0,1-.36-.19,5,5,0,0,1-1.48-1.8c-.06-.16-.26-.26-.34-.42-.32-.6-.62-1.21-1-1.9l1,.52A5.24,5.24,0,0,1,83.94,84l1.91,2.44.09-.06c-.07-.11-.13-.22-.21-.33-.57-.81-1.18-1.6-1.72-2.43a10.41,10.41,0,0,1-.68-1.43c-.11-.26-.08-.27.19-.67l.59.87c.36.56.72,1.13,1.1,1.68a.5.5,0,0,0,.17.15.23.23,0,0,1,.07-.07l-.81-1.35c-.57-.93-1.16-1.85-1.71-2.79a1.26,1.26,0,0,1-.17-1.16l1.49,2.48.15-.06a5.38,5.38,0,0,0-.18-.69c-.48-1.21-1-2.4-1.47-3.61-.09-.22-.14-.46-.21-.69l.16-.06.9,2,.12,0c-.15-.4-.31-.81-.45-1.22S83,76,82.81,75.59A2.66,2.66,0,0,1,83,73.7c.17.82.29,1.5.46,2.17.09.39.06.83.43,1.11a13.13,13.13,0,0,1-.4-3.7.78.78,0,0,1,.09.21,17.72,17.72,0,0,0,1.67,5.35,15.71,15.71,0,0,0,2.08,3.42c.56.66,1.11,1.34,1.64,2a3.78,3.78,0,0,0,.77.66c.28.19.6.33.86.54A22.68,22.68,0,0,0,94,88a5.72,5.72,0,0,0,.57.24l-.13-.34,3.33.92C96.93,89.23,96.75,89.23,96,88.88ZM82.76,78l.12-.06.63,1.48-.15.1Zm51-15.38A6.68,6.68,0,0,0,132.12,66c-.24,1-.41,2.09-.57,3.14-.11.71-.1,1.43-.18,2.15A9.22,9.22,0,0,1,129,76.36a1.74,1.74,0,0,1-.56.4,13.34,13.34,0,0,0-2.95,2,8.26,8.26,0,0,0-2.06,2.84c-.21.48-.36,1-.53,1.47-.07.2-.13.39-.19.55l-6.51.92s0,.06,0,.08a1.27,1.27,0,0,0,.42.09c.85-.09,1.7-.19,2.55-.31s2-.31,3-.45a2.64,2.64,0,0,1,.56,0c-.14.86-.81,1.34-1.13,2.08-.37,0-.74,0-1.11-.07a.94.94,0,0,0-.91.35,1.32,1.32,0,0,1-.76.41,3.52,3.52,0,0,1-2.65-.57l-1.28-.84a2.43,2.43,0,0,0-2-.32c-.61.13-1.22.24-1.83.41a6,6,0,0,0-2.75,1.82c-.47.5-.86,1.08-1.35,1.7a5.13,5.13,0,0,1-.6-.32,3,3,0,0,0-3.4-.08,4.63,4.63,0,0,0-.88.85l-1.61-.63a2,2,0,0,0-1.22-.13,3.11,3.11,0,0,1-1.57-.13c-1.15-.35-2.31-.66-3.46-1a6.14,6.14,0,0,1-2.9-2,18.18,18.18,0,0,1,2.16.71c.77.25,1.52.54,2.3.78.63.19,1.28.35,1.92.51v-.08a2.59,2.59,0,0,0-.38-.17c-.94-.31-1.89-.58-2.82-.93A12.59,12.59,0,0,1,93,85.59c-.1,0-.24.16-.31.13-.76-.28-1.52-.55-2.25-.89a2.52,2.52,0,0,1-.72-.63c-.37-.37-.72-.77-1.18-1.26A1.83,1.83,0,0,1,89,83a7.07,7.07,0,0,1,2.53,1.62,5.87,5.87,0,0,0,1.14.74L91.4,84.09c.46.21.81.33,1.13.52a2.36,2.36,0,0,0,1.86.59,10.84,10.84,0,0,1-3.1-1.77,1.64,1.64,0,0,0-.35-.18l0,0h0l.29.36c-.58,0-.93-.29-1.42-1.12l-.49-.41a.48.48,0,0,1,.54.36l1.08.81h0a7.08,7.08,0,0,1-.5-.59c-.06-.08,0-.21,0-.33h0a0,0,0,0,0,0,0h0s-.06-.13-.12-.15A5.87,5.87,0,0,1,88,80l.88.24a.43.43,0,0,0,0,0c-.24-.17-.47-.34-.72-.49-.66-.39-.66-.38-1.09-1.26l1.16.69,0-.07c-.4-.29-.8-.58-1.19-.89-.16-.12-.39-.26-.42-.43-.1-.53-.47-1-.55-1.45-.13-.73-.42-1.39-.6-2.1,0-.1,0-.21,0-.39a2.33,2.33,0,0,1,.3.16c.84.8,1.7,1.59,2.5,2.42a16.29,16.29,0,0,0,1.81,1.41,21.16,21.16,0,0,0,2.73,1.9,25.42,25.42,0,0,0,2.72,1.19,40.61,40.61,0,0,0,6.1,1.89,43.38,43.38,0,0,0,5.07.77c.16,0,.39,0,.47.05.41.42.86.16,1.3.14l2.94-.07c.07.14.1.31.21.39s.26,0,.39,0h1.52c.09,0,.22,0,.26.07.33.47.81.29,1.2.21,2.34-.46,4.68-1,7-1.43a1.41,1.41,0,0,0,.68-.34c-.12,0-.24,0-.35,0l-6.56,1.27a3.87,3.87,0,0,1-2.11-.12l6.66-1.64a.38.38,0,0,1,0-.1,8,8,0,0,0-1,.11c-1.76.41-3.53.81-5.27,1.28a5.2,5.2,0,0,1-1.51.12,12.45,12.45,0,0,1-2.19-.18l5.92-1.71a.69.69,0,0,0,0-.13c-.29.06-.58.09-.86.16-1.23.34-2.45.71-3.68,1-.92.24-1.85.46-2.78.65a2.81,2.81,0,0,1-.82,0l-2.78-.28a3.38,3.38,0,0,1-.73-.18,72.32,72.32,0,0,0,7.42-1.53l-2.17.37-5,.82a6.09,6.09,0,0,1-2.55-.06c-1-.28-2.1-.52-3.14-.86,3.49-.19,7-.18,10.44-.59l-2.1,0,0-.17a3.31,3.31,0,0,1,.94-.26c1.58,0,3.15-.06,4.75-.19l-1.57.66.06.13a20.47,20.47,0,0,0,2.08-.83l2.17-.68a.73.73,0,0,0-.8,0,14.85,14.85,0,0,1-5.79.62l.84-.49s0-.06,0-.09a1.94,1.94,0,0,0-.49.1,4.59,4.59,0,0,1-3,.45c-.77-.14-1.56-.19-2.34-.29a3.46,3.46,0,0,1-.47-.18l1.5-.56,0-.1c-.57.14-1.15.31-1.73.43-.28.06-.75.16-.86,0-.36-.46-.86-.29-1.27-.41-.56-.16-1.15-.2-1.7-.36s-1.18-.42-1.83-.67a3.27,3.27,0,0,1,.33-.21c1-.35,2.06-.71,3.09-1a1.61,1.61,0,0,1,.69,0l2.75.38a1.08,1.08,0,0,0,.47,0c-.87-.34-1.83-.33-2.86-.62l.81-.42a3.3,3.3,0,0,1-2.87-.11,18.8,18.8,0,0,1,3.73-.85c3,0,5.89-.18,8.83-.35,2.2-.13,4.39-.36,6.58-.59,1-.11,2.1-.33,3.15-.51a2.69,2.69,0,0,0,.49-.22,2.13,2.13,0,0,0-.49-.11c-2.32.22-4.65.5-7,.66-2.89.19-5.79.29-8.68.4-1.91.07-3.81.12-5.71.09a35.87,35.87,0,0,1-6.69-.81c-1-.2-2-.36-3-.6a27.84,27.84,0,0,1-3.32-1.07,1.07,1.07,0,0,1,.33-.11,15.07,15.07,0,0,1,1.9.17,30.1,30.1,0,0,0,6,.77c2.55,0,5.11,0,7.65-.06a30.45,30.45,0,0,0,9.69-1.62,33.22,33.22,0,0,0,3.24-1.43,59.31,59.31,0,0,1-5.69,1.9c-2.22.49-5.32.85-6,.64l3.72-1.71-.06-.14c-.52.22-1,.45-1.57.66-1,.43-2,.86-3.09,1.26a2.86,2.86,0,0,1-.88.16,13.11,13.11,0,0,1-2.07-.1l2.61-1.14c.44-.19.89-.41,1.34-.57a15.14,15.14,0,0,1,1.85-.56c3.61-.74,7.22-1.44,10.82-2.19a29.81,29.81,0,0,0,5.36-1.7l.68-.26c-.12.34-.22.61-.35,1,.12-.09.16-.11.17-.14a3.09,3.09,0,0,1,2.07-1.69c.27-.1.53-.23.79-.34s.7-.33,1.06-.48a1,1,0,0,1,.68-.28l.44-.2,1.52-.77h0a9.86,9.86,0,0,0-3.29,1.2,46.87,46.87,0,0,1-11.46,3.79c-1.32.23-2.64.5-4,.76.13-.47.56-.52.79-.77a4,4,0,0,0,.67-.83,6.22,6.22,0,0,0-.54.35c-.45.36-.91.72-1.33,1.11a2.12,2.12,0,0,1-1.37.5l-.13-.15.54-.39.37-.33-.4.29c-.54.29-1.08.58-1.62.85a.68.68,0,0,1-.53,0l.84-.71-.06-.11c-.28.18-.57.34-.83.54a3.44,3.44,0,0,1-2.25.75,5.9,5.9,0,0,0-1.43.34v-.63a.36.36,0,0,0-.18,0c-.31.16-.6.36-.92.5s-.66.36-1,.08a.31.31,0,0,0-.25,0c-.28.1-.54.23-.84,0-.06,0-.21,0-.32.05-.61.14-1.21.29-1.82.42l-.06-.14.62-.41a5.27,5.27,0,0,0-.71.18,3.84,3.84,0,0,1-1.89.41,6,6,0,0,1,3.3-1.16l-.72.59a5,5,0,0,0,1-.4,10.73,10.73,0,0,1,3.06-1.08,72.53,72.53,0,0,0,7.84-2.57c1.09-.43,2.2-.83,3.3-1.25.46-.18.91-.39,1.36-.59,0,0,0-.09,0-.13-1.88.71-3.76,1.44-5.66,2.1s-3.77,1.27-5.67,1.85c-1.15.35-2.31.62-3.48.89a1.79,1.79,0,0,1-1.21.07c-.18-.07-.46.13-.8.25.14-.32.24-.54.34-.75a6.33,6.33,0,0,0-.47.56,2.1,2.1,0,0,1-1.5.57c-.12,0-.18-.23-.27-.36l0,0h0a2.14,2.14,0,0,1-1.71.73c.72-.83,1.06-1.92,2.42-1.89l-.71,1.16,0,0h0c.3-.33.58-.68.9-1a4,4,0,0,1,.82-.6,9.57,9.57,0,0,1,1.15-.45l-.66,1.29a11.15,11.15,0,0,0,.83-1,2.12,2.12,0,0,1,.93-.8c1.44-.64,2.86-1.33,4.32-1.92,1.13-.46,2.18-1.06,3.28-1.57s2.15-1.09,3.22-1.64l4.68-2.42c.11-.06.24-.09.44-.17-.09.54-.67.75-.7,1.3a.43.43,0,0,1,.24-.17l.23-.31c0,.14-.05.22-.06.28l.13,0a.41.41,0,0,0,.16-.31,1.76,1.76,0,0,1,1.4-1.59,4.77,4.77,0,0,0,.68-.38c-.24.71-.45,1.29-.65,1.87l.11,0c.18-.43.36-.86.51-1.3a1.59,1.59,0,0,1,1.11-1.14c0,.85-.5,1.59-.5,2.43.26-.8.52-1.62.8-2.42a.88.88,0,0,1,.28-.43c.75-.46,1.51-.89,2.32-1.37-.07.33-.15.64-.22.95.44-.66.51-1.6,1.52-1.82.35,1-.31,1.78-.27,2.7.31-1,.61-2,.91-3a1.53,1.53,0,0,1,1.47-1l-.73,2.51a6.28,6.28,0,0,0,.77-2,5.22,5.22,0,0,1,1.2-1.88c0,1-.39,1.82-.34,2.7.17-.7.39-1.4.51-2.11a2,2,0,0,1,.92-1.49c0,.19-.05.33-.09.47L128,56l.16-.06c.37-1.33.73-2.66,1.09-4,.14-.47.3-.93.48-1.51-.48.48-1.14.58-1.53,1.12a2.58,2.58,0,0,1-.59.48c-.78.58-1.55,1.17-2.35,1.73s-1.79,1.3-2.75,1.85c-2.14,1.24-4.32,2.44-6.5,3.61-1.53.83-3.1,1.58-4.65,2.35a.42.42,0,0,1-.14.06l-1,.49a14.67,14.67,0,0,1-2.55,1.21s0,0,0-.06l-.35.17a2.32,2.32,0,0,1-1.27.71,4.72,4.72,0,0,1-1,.45,20.93,20.93,0,0,1-2.64,1.2s-.08,0-.09-.05l1.87-3c-.24.29-.51.58-.73.89l-1.66,2.3a.5.5,0,0,1-.21.17l-3,1.29.36-.77a2.71,2.71,0,0,0-.4.35c-.19.22-.33.5-.71.32,0,0-.13,0-.18.07-.24.17-.33.61-.75.45s-.53.29-.85.28a5.3,5.3,0,0,0-.6.07c0-.18,0-.31.06-.44a3.43,3.43,0,0,1-.55.59c-.17.13-.44.21-.44-.19h0l0,0s0,0,0,0c-.33.17-.48.62-.93.58-.08,0-.14-.11-.21-.18s0,0,0,0v0a1.82,1.82,0,0,1-1.3.49A2.62,2.62,0,0,1,94,67.47l-.6,1.07h0c.4-.4.78-.81,1.19-1.21a1.52,1.52,0,0,1,.61-.37l-.66,1.18h0l1-1.23c.23-.29.23-.29.77-.45-.13.25-.24.46-.34.68a4.34,4.34,0,0,0,.54-.51,2.15,2.15,0,0,1,1.51-1c0,.12,0,.21-.07.31a6.18,6.18,0,0,1,2.23-1.5c-.23.5-.43.91-.62,1.33.29-.38.61-.75.87-1.15a4.38,4.38,0,0,1,2.09-1.5l-.63,1,.11.08c.27-.36.52-.75.81-1.09a6.89,6.89,0,0,1,1-1,12.05,12.05,0,0,1,1.23-.77l1.58-1.11,0,0a15.27,15.27,0,0,1,1.37-.95c.89-.63,1.81-1.21,2.67-1.88.58-.44,1.15-.94,1.76-1.42l.16-.15,2.23-2.08a4.2,4.2,0,0,0-1.66,1.25,19.06,19.06,0,0,1-3,2.27c-1.19.77-2.34,1.59-3.51,2.39a42,42,0,0,1-5,2.9c-.52.26-1.09.38-1.63.6-.31.13-.58.36-.89.51l-4.41,2a10.53,10.53,0,0,1-1.52.62c.92-.6,1.83-1.23,2.77-1.8A40.44,40.44,0,0,0,101.23,61c.12-.1.26-.19.39-.28a1.33,1.33,0,0,1,1.21-.38.62.62,0,0,0,.23,0,15,15,0,0,0-1.36-1.53.42.42,0,0,1-.09-.14l-.74-.38a1,1,0,0,1,1-.88c0,.16.07.33.13.64a1.53,1.53,0,0,1,1.31-1.24,3.81,3.81,0,0,0,.74-.36c0,.17,0,.31,0,.52a9.11,9.11,0,0,1,.9-1,8.8,8.8,0,0,1,1.14-.68c0,.24-.07.4-.11.62.11,0,.19,0,.21-.08a6.56,6.56,0,0,1,1.26-1.9,1.69,1.69,0,0,1,.49-.34c-.1.37-.21.74-.31,1.11.4-.26.45-.7.63-1.06a5.24,5.24,0,0,1,.69-1.15c-.12.69-.23,1.39-.34,2.09a11.12,11.12,0,0,0,.77-2.48,20.18,20.18,0,0,1,1.1-2.3,36.46,36.46,0,0,1-.58,3.6l.33-.47h0l0-.05.33-1.3v-.09l0,0a8.17,8.17,0,0,1,.64-2.75,12.93,12.93,0,0,1-.64,2.75.15.15,0,0,0,0,.07.64.64,0,0,0,0,.07,2.47,2.47,0,0,1-.33,1.3s0,0,0,.06c.22.18.3,0,.35-.18.18-.67.36-1.34.52-2s.3-1.26.42-1.9a1.91,1.91,0,0,1,.73-1.28c.22-.16.41-.36.7-.62a30.82,30.82,0,0,1-.5,4.23l.14,0a5.58,5.58,0,0,0,.16-.68c.17-1.09.37-2.19.5-3.29a1.46,1.46,0,0,1,.64-1.15c.45-.31.85-.68,1.27-1l.15.09c-.27,1.35-.54,2.7-.82,4.05.31,0,.3-.23.34-.43.21-1.12.44-2.23.61-3.35a1.28,1.28,0,0,1,.64-1.06c.27-.16.51-.38.89-.66-.35,2.34-1,4.47-1.28,6.67a12.2,12.2,0,0,0,.37-1.17q.6-2.57,1.16-5.15a1.33,1.33,0,0,1,.6-1,14.54,14.54,0,0,0,1.69-1.26,15.08,15.08,0,0,0-2.93,1.78c-1,.66-1.92,1.38-2.83,2.13S112,47.2,111,48.08c0-.33.07-.5.11-.68.24-1.2.47-2.4.74-3.6a1.06,1.06,0,0,0-.13-.79,9.77,9.77,0,0,1-4.06,2.05,11,11,0,0,1-2.24.49,31.91,31.91,0,0,1-4.37.23c-1,0-2-.12-3.19-.19.22-.15.31-.25.42-.27a8.68,8.68,0,0,1,.89-.14l5.27-.4a.24.24,0,0,0,.18-.1,20.88,20.88,0,0,0-3.06.11c-1.06,0-2.11.14-3.18.22.11-.69.19-.84.8-.95,1.53-.26,3.06-.48,4.6-.72a4.41,4.41,0,0,0,.8-.18,36.56,36.56,0,0,0-5.54.62c.17-.59.43-1,1-1.15,1-.22,1.94-.47,2.92-.61,1.37-.2,2.76-.32,4.13-.51a30.3,30.3,0,0,0-7.11.85,1.49,1.49,0,0,1,1-1.08,26.76,26.76,0,0,1,4.75-1,6.61,6.61,0,0,0,1.43-.34c-.93.12-1.85.23-2.78.37s-1.67.28-2.49.48a17.6,17.6,0,0,0-1.89.66c-.16.06-.38.17-.24.48,0,.1-.15.38-.3.49a2.49,2.49,0,0,0-.76,1,22.22,22.22,0,0,1-1.2,2,31.83,31.83,0,0,1-7.71-1.36c0-.7.56-1.22.7-1.88-.58.47-.78,1.21-1.27,1.76a4.51,4.51,0,0,1-.55-.09l-4.4-1.21c.07-.24.18-.41.43-.45a2.45,2.45,0,0,1,.54-.48,11.53,11.53,0,0,1,3.36-1.05,5.14,5.14,0,0,0,1.26-.35l-2.64.38a6.19,6.19,0,0,1,5.21-.63c-.4.23-.71.07-1,.1a4.05,4.05,0,0,0-.9.16c.4,0,.8,0,1.2,0a4.38,4.38,0,0,1,2.4.43,6,6,0,0,0,5.72,0c.65-.36,1.23-.83,1.86-1.22a22.85,22.85,0,0,1,5.12-2.48,4.87,4.87,0,0,1,3.93.52l-.23,0a.28.28,0,0,1,0,.13,1.92,1.92,0,0,1,1.67.71,8.25,8.25,0,0,0,1.34,1.1,3.9,3.9,0,0,0,3.92.16,11.91,11.91,0,0,1,5.82-1,7.65,7.65,0,0,1,1.16.22,2,2,0,0,1,1.35,1c.41.7.86,1.38,1.33,2a4.2,4.2,0,0,0,3.26,1.84,17.11,17.11,0,0,1,2.26.34,2.33,2.33,0,0,1,1.69,2.19,7.87,7.87,0,0,1,0,1.46,4.29,4.29,0,0,0,1.44,3.88c.44.43.94.79,1.42,1.18a7.56,7.56,0,0,1,.44.71,2.92,2.92,0,0,1,.17.36A11.22,11.22,0,0,1,138,56.2a7.76,7.76,0,0,1-.36,2.07l-.06.26a4.28,4.28,0,0,1-1.59,2,6.07,6.07,0,0,0-.9.59C134.77,61.26,134,62.27,133.71,62.58ZM93.77,67.12a1.76,1.76,0,0,1,1.33-.88A1.6,1.6,0,0,1,93.77,67.12ZM96.41,66a1.59,1.59,0,0,1,.88-.83C97.12,65.77,97,65.9,96.41,66Zm1.17-.51a2.63,2.63,0,0,1,1.21-1C98.69,65.07,98.58,65.16,97.58,65.46Zm1.55-.66a1.27,1.27,0,0,1,1.52-.82Z"/></g></g></svg>