<svg xmlns="http://www.w3.org/2000/svg" viewBox="0 0 117.51 101.53"><title>Asset 5</title><g id="Layer_2" data-name="Layer 2"><g id="Layer_1-2" data-name="Layer 1"><path d="M71.19,61.29h0Z"/><path d="M66.23,71l0,0h0Z"/><path d="M69,76.06h0Z"/><path d="M97.82,51.81h0l.7-.8-.13-.09-.57.89h0Z"/><path d="M103.81,48.69l.06,0-.07,0Z"/><path d="M46.52,26.46a.14.14,0,0,1,0,.06v-.06Z"/><polygon points="66.08 44.75 66.08 44.75 66.08 44.75 66.08 44.75"/><path d="M94.54,51.91c0-.07,0-.14,0-.21a1.62,1.62,0,0,0-.1.18Z"/><path d="M68.54,49.68h0l-.06,0,0,0h0Z"/><path d="M87.26,74.28h0v0s0,0,0,0h0s0,0,0,0v0Z"/><path d="M88.16,79.3h0s0,0,0,0,0,0,0,0h0s0,0,0,0v0Z"/><path d="M61.77,90.16h0Z"/><polygon points="99.69 61 99.68 61 99.69 61 99.69 61"/><path d="M97.55,79.21h0Z"/><path d="M24.35.59a6.36,6.36,0,0,0,.21,1.79c.25.81.9,1.8.37,2.62a.8.8,0,0,1-.09.14.73.73,0,0,0-.13.46,20.71,20.71,0,0,0-.1,3.52c0,.05,0,.11-.06.17l-.36-.11a2.06,2.06,0,0,0-.08.44c0,.44.06.89.08,1.33,0,.12,0,.3,0,.35-.4.33-.23.75-.22,1.13s0,1,.06,1.53c0,.25,0,.51,0,.77a7.4,7.4,0,0,1,.22,2.09c-.5.13-.49.13-.45.6a1.45,1.45,0,0,1,0,.36,4.78,4.78,0,0,0,.28,2.15.39.39,0,0,1-.09.54c-.07.06-.06.3,0,.43s.24.39.3.6a1,1,0,0,1,0,.64c-.38.55-.16,1,.17,1.41a5.41,5.41,0,0,1,1.1,2.06c-.35.29-.36.3-.16.63s.56.9.85,1.34c.18.27.11.46-.17.57.3.34.59.62.83,1,.13.16.3.43.25.58s.05.42.18.59.32.42.47.64c.31.47.5.94,0,1.41L29,33.58l-.39.44c-.75-.23-1.52-.4-2.25-.69a2.42,2.42,0,0,0-1.72,0,1.08,1.08,0,0,1-.9,0,3.88,3.88,0,0,0-.51-.16l-.36.76c-.37,0-.75,0-1.13,0s-.54,0-.43.5c0,.07,0,.14.05.28L20,34.57c-.58-.06-.58-.07-.67.43l-3.66,1.59.52.6a2.25,2.25,0,0,1-1.26.23c-.14,0-.32,0-.41,0a5.9,5.9,0,0,1-1.63.9c-.33.11-.35.3-.13.62a.58.58,0,0,1,.1.56,1.33,1.33,0,0,0,0,.48.36.36,0,0,1-.24.43c-.21.1-.41.23-.63.35.06.19.1.33.15.46.22.59.21.61-.31.91L10,43.24c-.21.13-.43.26-.42.56A1.32,1.32,0,0,1,8.68,45a.81.81,0,0,0-.56.6l.71.57-.61,1,.72.39c-.63.72-1.27,1.38-1.83,2.1A9.3,9.3,0,0,0,5.53,52l1.55.78c-.45.57-1.07.93-1.4,1.63h1c-.25.27-.41.47-.6.65-.35.33-.75.63-1.08,1a26.22,26.22,0,0,0-1.94,2.41c-.48.68-.48.83.13,1.38-.3.51-.6,1-.93,1.58l.58.2C1.3,64.24,0,67.13,0,67.92c.06,0,.11,0,.17,0,.88-.12,1.77-.28,2.66-.35.73-.06,1.47-.36,2.2.07.08.06.23,0,.35,0l2.19-.16c.25.5.25.52.87.51.42,0,.83-.08,1.26-.13a.7.7,0,0,1,0,.2c0,.53.08.61.59.49l1.14-.29c0,.19-.08.35-.12.53a6.15,6.15,0,0,0,2.49-.3,1.49,1.49,0,0,1,0,.24c-.08.51,0,.67.53.7a3.48,3.48,0,0,0,.55,0,1.7,1.7,0,0,1,1.33.2,1.48,1.48,0,0,0,.77.15c.54,0,1.09,0,1.62,0,.31.49.37.54.89.43s.83-.22,1.28-.34c.3.39.75.35,1.2.29s.88-.14,1.33-.21c.2.32.25.4.75.44.75.06,1.5.06,2.25,0a9,9,0,0,0,1.06-.12,1.26,1.26,0,0,1,.09.23c.15.62.14.61.74.48a2.44,2.44,0,0,1,1-.14,1.27,1.27,0,0,0,.82,0c.14,0,.38-.1.44,0s.4.13.62.07l1.39-.38c.2.41.48.4.85.2a4.4,4.4,0,0,1,.81-.22c.4.43-.17,1.12.35,1.45a12,12,0,0,1,1.26-.81A11.58,11.58,0,0,0,38,69.94c.23-.18.46-.34.65-.47a13.52,13.52,0,0,0,1.07,1.27,11.83,11.83,0,0,0,1.31,1,1,1,0,0,1,.46.88c0,.3,0,.6,0,.91a5,5,0,0,0,2.9,4.15c.6.31,1.24.5,1.85.78.91.41,1.81.85,2.7,1.29a.76.76,0,0,1,.28.35,1.93,1.93,0,0,1,.08.48A5.67,5.67,0,0,0,50,82.73a1.85,1.85,0,0,0,.94.91,5.83,5.83,0,0,0,2.43.52,2.06,2.06,0,0,1,1.48.58c.13.13.29.22.42.35a2.68,2.68,0,0,0,1.5.82,2.61,2.61,0,0,0,.76,2.42,2.23,2.23,0,0,0,.19.24,2.38,2.38,0,0,1,.6,1.87,6.9,6.9,0,0,1-.09.78,2.91,2.91,0,0,0,.8,2.7c.27.27.51.58.8.83a10.34,10.34,0,0,0,1.4,1.17,16.74,16.74,0,0,0,1.86.89A3.13,3.13,0,0,1,65,98.6a4.51,4.51,0,0,0,.22.44,2.91,2.91,0,0,0,1.48,1.39l.78.34a5.49,5.49,0,0,0,3,.5,6.66,6.66,0,0,1,1.33-.13,10.22,10.22,0,0,1,2.36.19,5.27,5.27,0,0,0,4.73-.93,19.39,19.39,0,0,0,1.69-1.58,1.52,1.52,0,0,1,1.22-.46l1.09.07a2.59,2.59,0,0,0,2.68-1.32,6.27,6.27,0,0,1,2-2.1,3.14,3.14,0,0,0,.91-1,16.7,16.7,0,0,0,1.74-4.81c0-.12.08-.23.15-.42l.5.78a5.62,5.62,0,0,0,1.65,1.78,4.68,4.68,0,0,0,2,.93,2.9,2.9,0,0,1,.94.42c.07,0,.12.1.2.12a10.89,10.89,0,0,0,4.88.33,4.85,4.85,0,0,0,2.8-1.51c.53-.59,1.09-1.15,1.58-1.78a3.83,3.83,0,0,1,2.16-1.39c.94-.24,1.87-.56,2.81-.84l.34-.1c.22.25.38.55.62.68a1.49,1.49,0,0,0,1.51-.54.74.74,0,0,0,.08-.57.48.48,0,0,1,.21-.71,11.76,11.76,0,0,0,2.42-2.41,2.29,2.29,0,0,0,.61-1.43,7.73,7.73,0,0,0-.19-2.3,6,6,0,0,1,0-3.73c.27-.74.6-1.46.93-2.18a12.34,12.34,0,0,0,1.11-3.42,3.17,3.17,0,0,0-.43-2.22,3.3,3.3,0,0,1-.43-2.53,3.38,3.38,0,0,0-.1-1.81,4.88,4.88,0,0,0-1.73-2.23,4.42,4.42,0,0,1-1.41-1.74c-.18-.45-.36-.91-.56-1.35a3.4,3.4,0,0,0-2.18-2.07,2.48,2.48,0,0,1-.47-.22c.4-.39.77-.74,1.11-1.11a4.62,4.62,0,0,0,1-2.93,2.19,2.19,0,0,0-1-1.9,9.33,9.33,0,0,0-1.14-.69,1.67,1.67,0,0,1-.92-1.42,14,14,0,0,1,0-1.83q.11-1.24.3-2.49a5.16,5.16,0,0,0-.94-3.63,4.84,4.84,0,0,0-1.94-1.54,1.62,1.62,0,0,1-.85-1.13c-.07-.32-.11-.64-.18-1a1.41,1.41,0,0,0-1-1.2,4.37,4.37,0,0,0-1-.18,1.72,1.72,0,0,1-1.66-1,2.12,2.12,0,0,0-.52-.67c-1.4-1.23-2.21-1.25-3.4-.48a5.38,5.38,0,0,1-5.7,0c-.24-.16-.47-.33-.69-.5a6,6,0,0,0-3.13-1.27,2,2,0,0,0-1.29.25,2.16,2.16,0,0,1-1.53.25c-.28,0-.56-.11-.84-.16a4.19,4.19,0,0,0-3.27.6c-.48.33-.92.73-1.38,1.09a6.57,6.57,0,0,0-1.43,1.36,3.07,3.07,0,0,0-.6,1.81c0,.22,0,.43,0,.71-.13-.08-.19-.1-.22-.14a8.91,8.91,0,0,0-3.39-2.43,4.06,4.06,0,0,0-3-.18,16.6,16.6,0,0,0-2.78,1.25,2.2,2.2,0,0,1-2,.12,3.77,3.77,0,0,0-2.15-.28s-.1-.05-.16-.07,0-.25.07-.37a21.9,21.9,0,0,0,.63-6.84A5.25,5.25,0,0,0,63.6,25c-.16.24-.29.44-.43.62l-.45.55c-.13-.45-.22-.8-.34-1.15-.32-1-.67-1.11-1.59-.67a.36.36,0,0,1-.14,0l-1-1.06c-.18-.19-.34-.45-.56-.54a1.84,1.84,0,0,0-.73,0c-.4-.69-.72-1.47-1.61-1.76-.22.21-.43.47-.71.3-.3-.42-.56-.79-.84-1.14a6.65,6.65,0,0,0-1.78-1.38.57.57,0,0,0-.69,0c-.21.17,0,.37,0,.55,0,0-.05,0-.1.09a3.57,3.57,0,0,1-.88-.7c-.3-.45-.78-.51-1.14-.84l-.41.47c0,.26.28.44.09.78-.45-.85-.66-1.79-1.59-2.19-.28.34,0,.8-.36,1.12-.06-.14-.11-.23-.14-.32A7.2,7.2,0,0,1,48,17c-.05-.36-.43-.18-.59-.41a4.09,4.09,0,0,0-.85-.66l-.66.52a1.11,1.11,0,0,0-1.06-.62c-.17,0-.36-.21-.54-.35s-.23-.31-.39-.36-.32.06-.5.1a3,3,0,0,0-1.58-1.12l-.57.62c-.39-.54-.74-1.06-1.13-1.56a5,5,0,0,0-.7-.76c-.35-.32-.59-.26-.78.18l-.2.42c-.51-.27-.72-1.09-1.45-.6l-.84-1-.62.05a6.94,6.94,0,0,0-.57-1c-.26-.3-.43-.82-1-.62-.08,0-.21-.09-.31-.15s-.22-.47-.56-.32c-.18-.45-.68-.55-1-.89a2.09,2.09,0,0,0-.67-.59A2.44,2.44,0,0,1,30.53,7c-.26-.34-.56-.59-1-.35a1.57,1.57,0,0,0-1.19-1c-.12,0-.23-.16-.32-.26s-.34-.45-.53-.67-.21-.23-.31-.23c-.28,0-.39-.2-.51-.38l-.75-1a1.4,1.4,0,0,1-.37-.88.37.37,0,0,0-.15-.3c-.34-.07-.36-.36-.45-.59C24.77.89,24.63.49,24.45,0l-.08.14A2.26,2.26,0,0,0,24.35.59Zm.15,13.1c-.09-.5-.16-1-.23-1.49.47-.26.47-.25.4-.76s-.13-.92-.21-1.49a2,2,0,0,0,.32.11c.34.07.45,0,.4-.36s-.16-.84-.24-1.26c0-.1-.07-.24,0-.3.38-.5.07-1.05.15-1.57,0,0,0,0,.07-.1.42.62,1,1.09,1.11,2l.26-.25a2.63,2.63,0,0,1,.37,1.44,6.26,6.26,0,0,0,.46,2.19c.45,1.41.94,2.82,1.45,4.21.23.63.56,1.22.84,1.83a1.64,1.64,0,0,1,.13.46c-1.46-1.29-3.09-2.39-4.2-4.11l-.25.37-.14-.08a4.89,4.89,0,0,1-.47-.44A.67.67,0,0,1,24.5,13.69Zm1.11-8.25c.11.55.2,1,.29,1.39l-.13.07-.48-.58C25.4,6,25.48,5.79,25.61,5.44Zm2,2.64c.52.48,1,.88.93,1.67a1.76,1.76,0,0,1-.87-1c-.48.06-.6-.35-.73-.63a4.37,4.37,0,0,1-.2-1l.14,0,.39.77c.11.23.2.48.31.71C27.55,8.42,27.56,8.3,27.58,8.08Zm2.22,2.36a3,3,0,0,0,.44.5h0v0a1,1,0,0,1,.93.57,2.7,2.7,0,0,1,.12.49A1.43,1.43,0,0,1,30.25,11h0s0,0,0,0-.17.18-.18.17A9.91,9.91,0,0,1,29,10.24a1.29,1.29,0,0,1-.22-.73A2.65,2.65,0,0,1,29.8,10.44Zm0-.93c.4.3.74.53,1,.79.09.09.1.28.2.54C30.16,10.4,29.9,10.13,29.77,9.51ZM35,16.65A2.32,2.32,0,0,1,33.76,16c-.35-.3-.81-.42-1.13-.87.22-.37.47-.76.73-1.18l1.11.74a.6.6,0,0,1,.19.23A5.56,5.56,0,0,1,35,16.65ZM35,15.06h.17v.36H35ZM41.84,19a16,16,0,0,1,.61,3c0,.06-.11.13-.23.25a3.23,3.23,0,0,1-.29-1.08,11.53,11.53,0,0,0-.15-1.18c0,.21-.07.42-.12.71-.25-.64-.53-1.18-.2-1.83,0,.2.09.4.15.6s.11.36.17.55Zm1.43,2.64a1.15,1.15,0,0,1,0-.44h.13l.75,3.21A10.23,10.23,0,0,1,43.27,21.59Zm.39,2.62-.16.05a9.12,9.12,0,0,1-.61-1.85c0-.15,0-.32.08-.49h.13C43.29,22.69,43.47,23.45,43.66,24.21Zm-.55.22c1.08,2.08,2.13,4.17,3.19,6.25a9.61,9.61,0,0,1,.66,2.4c0,.16.15.31.19.47a.56.56,0,0,1-.08.37c-.29-.49-.32-1.07-.63-1.53l-.12,0,.52,1.63-.07,0-.58-.75c.27.56.53,1.13.84,1.67a4,4,0,0,1,.59,1.89A42.27,42.27,0,0,1,45,33.15a31.38,31.38,0,0,1-2-4.07l-.13,0c0,.1,0,.22,0,.3.2.47.41.93.63,1.39L45,34.15c.2.42.42.84.59,1.28A33,33,0,0,1,43,32.35a18.77,18.77,0,0,1-2-3.46c0,.16,0,.32.08.53l-.22-.1a3.86,3.86,0,0,0,.35.74,14.86,14.86,0,0,1,1.47,3.06c0,.08,0,.18,0,.32-1.75-1-2.28-2.64-2.33-4.58l.5.48c-.15-.3-.29-.61-.45-.91a1,1,0,0,1,.29-1.28,8.29,8.29,0,0,1,1.64-3.95A13.26,13.26,0,0,1,43.11,24.43Zm1.46.45h.09l.06.32-.12,0ZM54,24.3c-.28-.13-.28-.13-.53-.65-.52.06-.52.06-.49-.48C53.72,23.34,54,23.64,54,24.3Zm-1.32-2.21c-.05-.34-.11-.66-.2-1.11.39.2.68.33.94.5a.58.58,0,0,1,.24.32c.11.5.19,1,.28,1.5C53.08,23.14,52.81,22.87,52.67,22.09Zm.51,1.82a11,11,0,0,1,.23,2l-.21,0-.18-2ZM52.81,27a1,1,0,0,0,.1.4,2,2,0,0,1,.16,1.38c-.28-.06-.37-.27-.46-.5s-.2-.39-.3-.58c0,.17.07.34.11.54-.45.05-.27-.34-.37-.52l.22-.16L52,26.71c0-.29,0-.59,0-.88C52.66,26.07,52.84,26.34,52.81,27Zm6.74,2.89a3.58,3.58,0,0,1,0,.42c-.61-.58-.61-.58-.53-1.61.21,0,.26.13.32.28L59,27.9c.71.27.77.4.7,1.57l-.2-.14A4.85,4.85,0,0,1,59.55,29.86ZM61.35,35c-.29-.6-.29-.6.16-1C61.86,34.35,61.86,34.35,61.35,35ZM61,36.58a1,1,0,0,1-.82.41c0-.51.5-.64.71-1C61.15,36.18,61.11,36.37,61,36.58Zm1.52-5c-.31-.49-.67-.87-.46-1.46a1.55,1.55,0,0,0,0-.47c0-.17,0-.34,0-.51l.14,0c.2.71.4,1.42.58,2.14C62.72,31.36,62.6,31.47,62.49,31.62Zm-1.31,1.29a2,2,0,0,1,.47-1.5c-.1.52-.2,1-.29,1.55Zm-.88,1.44.33-.71C60.77,34.07,60.6,34.24,60.3,34.35Zm-.17,1.45c0,.29,0,.55-.3.63l-.11-.13C59.85,36.13,60,36,60.13,35.8Zm1.42-3c.1-.38.17-.62.25-.94C62.06,32.26,61.94,32.5,61.55,32.8ZM62.1,32c0-.16-.07-.31-.1-.47C62.17,31.59,62.3,31.71,62.1,32Zm-.29-2.65a1.4,1.4,0,0,1-.19-1.26C61.9,28.32,61.9,28.32,61.81,29.31Zm.24-1.58A3.57,3.57,0,0,1,63,29C62.61,28.64,62.09,28.36,62.05,27.73Zm-2.22,5.73a3,3,0,0,1,.11-2A1.41,1.41,0,0,1,59.83,33.46Zm-1.36-.4c.1.7.68,1.22.22,1.93C58.05,34.47,58,34,58.47,33.06ZM58,35.92c0-.33.07-.65.12-1C58.52,35.32,58.52,35.32,58,35.92Zm-1.36,1c.1-.33.19-.67.3-1.06C57.2,36.27,57.17,36.38,56.61,37Zm2-4.39c.73.49.79.69.45,1.59C58.85,33.58,58.72,33.12,58.57,32.58Zm-1.09,2.59c-.29-.41-.28-.65.08-1.27A1.88,1.88,0,0,1,57.48,35.17Zm-7.18,16c-.07.33-.25.24-.4.22L47.31,51a2.46,2.46,0,0,0-1.42.08,5.33,5.33,0,0,1-.79.17,1.28,1.28,0,0,1,.93-.64,5.2,5.2,0,0,1,3.35.15C49.69,50.86,50,51,50.3,51.15Zm.64-2.26H51l0,.3h-.11A2.87,2.87,0,0,1,50.94,48.89ZM39.38,64.48c0,.33-.07.65-.11,1l-.18,0c0-.32.1-.64.16-1ZM40,63.11l-.06.85h-.15A1.22,1.22,0,0,1,40,63.11Zm-1.3,2.74c0,.34-.07.64-.14.94,0,.09-.16.23-.21.21s-.26-.13-.27-.23a8.91,8.91,0,0,1-.06-1Zm-.27-.44-.34-.06c.09-.36.15-.69.26-1,0-.09.14-.15.22-.22.07.08.18.16.19.25,0,.34,0,.68,0,1C38.61,65.41,38.51,65.42,38.42,65.41ZM32,62.71h0a1.47,1.47,0,0,1-1,.33l.84-1,.13.71h0a2.9,2.9,0,0,0,.06-.41,1.82,1.82,0,0,1,.9-1.48,1.4,1.4,0,0,1-.06.51,2.55,2.55,0,0,0-.32,1.12c0,.38-.32.33-.58.26Zm-.26-10.42a5.15,5.15,0,0,0,.52-.21c.08.34,0,.5-.36.58a3.38,3.38,0,0,0-.51.24h0l.75-.06c-.38.75-1.06,1-1.55,1.52a3.16,3.16,0,0,1,.6-1.39s.13,0,.21-.07h0A.43.43,0,0,1,31.78,52.29Zm.39-.87.25-.26.07.08-.27.23Zm-.34,2.24c-.07.63-.52.73-.94.86Zm-.55-3.28a2,2,0,0,1-1.46-.28,17.41,17.41,0,0,1,4-.22C33,50.05,32.12,50.23,31.28,50.38ZM30.19,53a6.2,6.2,0,0,1,1.61-2A2.87,2.87,0,0,1,30.19,53Zm.57-1.64c-.51.84-.92,1.59-1.4,2.28a4.7,4.7,0,0,1-1.09,1C28.8,53.33,29.3,52,30.76,51.34ZM27,56.49l-.22.46,0,0,.23-.49Zm6.88-6.89a1.29,1.29,0,0,0-.65-.09c-1.24.1-2.48.2-3.71.32a1.17,1.17,0,0,1-1-.25l.86-.14,1.67-.27c-.71,0-1.42.07-2.12.17a3.1,3.1,0,0,1-.8,0A1.77,1.77,0,0,1,27,49.28a11.45,11.45,0,0,1-1.48-.65c-.54-.27-1.12-.43-1.65-.7a5.45,5.45,0,0,1-.53-.29c-.7-.22-1.69-1.47-2-1.7a.21.21,0,0,1,0-.06l-.58-.48c.48-.1.88-.2,1.29-.26a37.09,37.09,0,0,1,5.47-.4,1.54,1.54,0,0,0,.17-.05,2.87,2.87,0,0,0-.69-.16c-.56,0-1.13,0-1.72,0a2.39,2.39,0,0,1,1.36-.51s.08.06.12.11h0c.08-.21.24-.27.48-.17l-.48.17v0h0c-.16,0-.17.12,0,.12.38,0,.77-.07,1.15-.09a7.79,7.79,0,0,1,2.88.27,1,1,0,0,1,.49.34l-2.08-.21c-.39,0-.78,0-1.16,0a1.39,1.39,0,0,0-.38.12l3,.31c.34,0,.68.14,1,.17a1.28,1.28,0,0,1,.94.65c-2,.14-4-.2-6,.16.46-.06.85.27,1.31.21.25,0,.51,0,.78,0a7.36,7.36,0,0,1,1.93.13c.71.16,1.44.23,2.16.35.28,0,.54.13.81.19,0,0,0,.09,0,.14l-2.44-.09a.61.61,0,0,1,0,.14l1.28.17c-1.22.09-2.43,0-3.64,0v.17l2.22.14c.22,0,.43.08.64.12l-.19.25h1l.94.14a.62.62,0,0,0,0,.13l-1.59,0-1.58,0c-.3,0-.36.18-.4.37.86,0,1.71,0,2.55.07a12.63,12.63,0,0,1,2.35.37c-.74,0-1.48,0-2.23.09-.52,0-1,.12-1.55.19.4,0,.8.06,1.2,0a13.32,13.32,0,0,1,3.33.34s.06.06.16.16C35.07,49.68,34.49,50,33.91,49.6ZM27.2,54.91l-.19.4h0l.19-.41Zm-2.46,1.37a2.92,2.92,0,0,1-.08.34l-.93,2.26a.84.84,0,0,1-.2.29l-1.33,1A10.24,10.24,0,0,1,23.79,57a.54.54,0,0,1,0-.18,8.43,8.43,0,0,1,1.51-2.35,12.18,12.18,0,0,1,1.36-1.11l.09.08L24.7,55.94l-.82,1Zm-3.49,1.89c-.45,1-.95,2-1.35,3a2.85,2.85,0,0,1-1.15,1.43,5.94,5.94,0,0,1-1,.61c.06-.16.11-.33.17-.49a35.18,35.18,0,0,1,2.64-5.1,22.43,22.43,0,0,1,1.68-2.32,3.9,3.9,0,0,1,.91-.67l.13.11c-.58.89-1.16,1.76-1.72,2.66A6.41,6.41,0,0,0,21.25,58.17ZM18.3,61.34c-.29.67-.51,1.37-.81,2a3.93,3.93,0,0,1-1.24,1.68c.19-.56.35-1.14.58-1.69.48-1.18,1-2.37,1.53-3.52s1.15-2.15,1.77-3.19a2.21,2.21,0,0,1,1.34-.89c-.37.55-.66,1-1,1.43A24.87,24.87,0,0,0,18.3,61.34Zm-.71-5.4a3.19,3.19,0,0,0-.44.13c-.35.14-.69.3-1,.43s-.78.22-1.16.36c-.13,0-.22.2-.33.3h0l1.29-.35a1.38,1.38,0,0,1,.35,0c0,.05,0,.1,0,.15l-3.15,1.23a1.26,1.26,0,0,1,1-.9,4.1,4.1,0,0,0,.5-.14,0,0,0,0,0,0,0l-.46-.07c.3-1.15,2.72-2.33,4.64-2.23l-.81.73c.34-.17.7-.32,1-.51a1.62,1.62,0,0,1,.8-.24c.5,0,1-.11,1.54-.1a2.72,2.72,0,0,1-.63.41c-.86.29-1.74.55-2.62.8A2.1,2.1,0,0,1,17.59,55.94Zm0,.55a1.23,1.23,0,0,1-.25.14l-.72.24C16.85,56.52,16.86,56.51,17.59,56.49Zm6.54-3.36c-.49.24-1,.52-1.45.77a2.8,2.8,0,0,1-2.05.23,22.07,22.07,0,0,1,6.88-2.6Zm2.59-.21-.49.39-.07-.08.46-.44A1.47,1.47,0,0,0,26.72,52.92ZM21.5,58.28a6.37,6.37,0,0,1,2.12-2.45,1.49,1.49,0,0,1,.47-.27c-.08.16-.15.33-.23.49-.64,1.29-1.3,2.57-1.93,3.87a2.05,2.05,0,0,1-.84,1c-.36.21-.71.45-1.06.68l-.12-.11C20.44,60.42,21,59.37,21.5,58.28Zm1.28-2.14a7.84,7.84,0,0,1,1.39-1.93,7.29,7.29,0,0,1,1.23-.86l.09.09A8,8,0,0,1,22.78,56.14Zm2.43,0a5.44,5.44,0,0,1,1.71-1.8c-.37.86-.68,1.71-1.09,2.49a4.82,4.82,0,0,1-1.68,1.88A13.12,13.12,0,0,1,25.21,56.12Zm-.48,3.25c-.56.94-1.11,1.89-1.66,2.84l-.14-.06c.19-.62.37-1.25.59-1.86S24.26,59.61,24.73,59.37Zm2-5.43a5.4,5.4,0,0,1,1.39-1.39C28.05,53,27.63,53.45,26.77,53.94Zm3.4-16.3c0,.08-.05.15-.07.22l-3.45-.63a4.7,4.7,0,0,1,1.83,0A3.91,3.91,0,0,1,30.17,37.64Zm-1.08-.94.42.17,0,.07-.43-.16S29.08,36.73,29.09,36.7Zm3.48.66,2.89.49s0,.09,0,.14a13.56,13.56,0,0,0-1.87.93l-.73-.87.4,1-.88.35a3.27,3.27,0,0,0-.94-1.53,6.84,6.84,0,0,1-.48-.88c.64.09,1.14.14,1.45.66a4.16,4.16,0,0,0,.46.48Zm5.23,4.33a5,5,0,0,1,.55-1.08,18,18,0,0,1,1.62-2,4.46,4.46,0,0,1,2.62-1.32,8,8,0,0,1,3.5.17,2.18,2.18,0,0,1,.85.45c.43.39.9.74,1.37,1.11-.4.32-.4.32-.65.07s-.64-.68-1-1a6,6,0,0,0-.56-.44l-.08.09c.53.54,1,1.09,1.62,1.69l-.66.26-1.89-1.84-.09.09,1.67,1.84-.82.32L45,39.28l-.08.08.65.77-1,.33-.89.38c.31-.06.62-.12.93-.2s.5-.17.75-.25a.43.43,0,0,1,.54.14c.16.23.36.43.61.72l-1.19.33-.54-.46-.08.06.27.47c-.85.27-1.5-.15-2.34-.46l.56-.28a1.85,1.85,0,0,1-1.33,0v.32l.84.19c0,.19-.07.33-.11.5l-.65-.1c.68.42,1.37.8,1.63,1.62l-.09.07c-.53.24-1,.28-1.38-.27a3.16,3.16,0,0,0-.65-.55l-.09.1,1,1c-.64.12-1.17.24-1.71.31-.13,0-.29-.1-.42-.18a1.1,1.1,0,0,0-.47-.24l.32.48a4.31,4.31,0,0,1-.5.14.51.51,0,0,1-.55-.16c-.52-.61-1.06-1.22-1.64-1.88C37.75,42.15,37.73,41.9,37.8,41.69Zm7.66-7.1.1-.08,1.23,1.82C46.07,35.94,45.85,35.21,45.46,34.59Zm4.87.7a.86.86,0,0,1-.11-.83c1,.44.9,1.43,1.2,2.31l-.3-.09a1.3,1.3,0,0,1,0,1.54,5.05,5.05,0,0,1-.84-1.81c0-.24-.13-.6.32-.64C50.47,35.61,50.42,35.45,50.33,35.29Zm1.86-2.57a4.62,4.62,0,0,1,.25.9l-.13,0L52,32.77Zm-.14-1.2c.73.36.82.67.51,1.67C52.4,32.66,52.24,32.13,52.05,31.52Zm5-3a1,1,0,0,1-.22,1.26.62.62,0,0,1-.43-.71c0-.58,0-1.16,0-1.8.13.11.19.18.26.24h0v0s.08-.07.09-.06a5.38,5.38,0,0,1,.69.66c.17.2,0,.41-.17.66-.12-.29-.21-.55-.32-.79a5.35,5.35,0,0,0-.29-.47h0A7.09,7.09,0,0,0,57,28.55ZM38.11,64.3a2.64,2.64,0,0,1-.16.26c0-.24,0-.35,0-.46h.13A1.21,1.21,0,0,1,38.11,64.3Zm.58-1.25c.13.41.13.41-.19.65Zm-.77.66a2.05,2.05,0,0,1,.8-1.62,7.52,7.52,0,0,1-.25.93C38.37,63.26,38.48,63.66,37.92,63.71Zm1.17-3.53c-.12.52,0,1.09-.41,1.66C38.52,61.11,39,60.67,39.09,60.18Zm-3.72-2.24c-.22-.06-.15-.25-.07-.39s.22-.39.33-.58l.11,0a5.14,5.14,0,0,1-.09.7C35.62,57.8,35.44,58,35.37,57.94Zm-.83,2-.18,0c.09-.27.17-.55.26-.81l.1,0Zm-.79-1.72c0-.48.39-.66.65-1C34.42,58,34.35,58.24,33.75,58.18Zm.19.34-.31.65C33.58,58.93,33.5,58.67,33.94,58.52Zm-.77-2.33c0-.52,0-.52.76-1.16-.07.39-.12.71-.17,1.07Zm-.76,2.36-.83.18c.14-.44.49-.6.85-.84C32.42,58.13,32.42,58.32,32.41,58.55Zm2.45-7.1c-.12.68-.12.68-.74.68C34.26,51.78,34.58,51.71,34.86,51.45Zm-.38-.29c0-.48.08-.55.84-.55A.9.9,0,0,1,34.48,51.16Zm-5-10.68c.64.09,1.28.18,1.91.3.37.07.36.09.58.63-.81-.11-1.53-.16-2.24-.31-.24,0-.42-.34-.71-.59A3,3,0,0,1,29.46,40.48Zm-1.59-.94a1.12,1.12,0,0,1,.05-.13l1.77.35A3.63,3.63,0,0,1,27.87,39.54Zm9.26,2.36-.89-1.13,1.89-1.16A6.74,6.74,0,0,0,37.13,41.9Zm-.52.82-.3.57a8.37,8.37,0,0,1-2-1.6C35.3,41.75,36.15,41.77,36.61,42.72ZM36.36,42c.53,0,.53,0,.4.38Zm.26-.34a1,1,0,0,1-1.1-.52l.52-.27ZM35.31,41l-.55-.62c.44,0,.76-.1,1,.2Zm.22.59c-1-.13-1.88-.18-2.28-1.23C34.41,39.94,34.89,40.79,35.53,41.55Zm-2.9-1.92c.93-.44,1.19-.3,1.49.42C33.6,40,33.05,40.24,32.63,39.63Zm-.41,2.71c-1.16-.06-1.68-.24-2-.7A3,3,0,0,1,32.22,42.34Zm.14,1.11a.92.92,0,0,1-1.05-.5C32.05,42.93,32.2,43,32.36,43.45Zm.12,1c-.2-.24-.32-.37-.45-.51C32.47,43.86,32.47,43.86,32.48,44.44Zm1-2.84a6.72,6.72,0,0,1,2.4,2.29c-.56-.22-1.18-.32-1.41-1-.08-.25-.34-.44-.52-.67ZM35.18,45l-1.43-.24c-.29,0-.45-.24-.47-.64A4.67,4.67,0,0,1,35.18,45Zm1.63,1.25c-1.14.12-2-.77-3-1A6.2,6.2,0,0,1,36.81,46.28Zm1.65-1.85-.1.15c-.68-.11-1.09-.69-1.73-1l.41-.5ZM37.37,42.5c.53.64,1,1.2,1.49,1.76-.29,0-.45-.24-.65-.4a4.87,4.87,0,0,1-.61-.59C37.46,43.09,37.07,43,37.37,42.5Zm-.51,4.42-.61-.12s0-.07,0-.11l.6.1A.62.62,0,0,0,36.86,46.92Zm1-2.22c-.48.1-.77-.1-1.28-.86A5.23,5.23,0,0,1,37.84,44.7ZM35.2,48.1,34,47.9A1.26,1.26,0,0,1,35.2,48.1Zm.19-.93a4.56,4.56,0,0,1,3,.77c-.81-.13-1.62-.25-2.43-.41A2.21,2.21,0,0,1,35.39,47.17Zm5.18-2.55.53.4a.53.53,0,0,1-.68,0c-.27.36-.39,0-.62-.16.29-.13.5-.18.63.15Zm7.85-5.27c.1,0,.22,0,.28,0,.28.23.54.48.81.72l-.08.1-.93-.7.34.42a1.73,1.73,0,0,1,.3.41,1.46,1.46,0,0,1-.91-.79S48.36,39.41,48.42,39.35Zm-.26-.76a.35.35,0,0,0,.05-.08.48.48,0,0,1,.17.05l.31.25-.08.12Zm2.18,1.16c-.17.25-.34.36-.57.2s-.61-.45-.91-.69c0,0,0-.11.08-.17C49.53,39,49.83,39.57,50.34,39.75Zm-.22-2.37c.14.46.24.8.36,1.17C49.77,38.47,49.76,38.42,50.12,37.38Zm5.47-5.27.14.06c-.08.57-.17,1.13-.25,1.72-.62-.3-.71-.58-.39-1.08C55.25,32.57,55.42,32.34,55.59,32.11Zm.61-2h.14c0,.16,0,.32,0,.48h-.11C56.22,30.41,56.21,30.25,56.2,30.09Zm1.13-.66c.09.43.15.75.23,1.15C57,30.21,57,30.18,57.33,29.43Zm-.56,1.5c-.18-.28-.2-.44.13-.63Zm1.31-1.86.15,0c0,.58,0,1.17-.07,1.76-.29-.38-.55-.74-.23-1.2A1.89,1.89,0,0,0,58.08,29.07Zm-1,3.67c-.5-.68-.2-1.38,0-2.19C57.78,31.33,57.23,32,57.08,32.74Zm-3.61,6.64c.07-.5.13-1,.2-1.48C54.26,38.49,53.91,38.94,53.47,39.38Zm-1.91,4.33c-.31.2-.46-.05-.68-.29.27-.14.48-.29.67,0C51.6,43.47,51.61,43.68,51.56,43.71ZM54,37.31c.24-.37.5-.72.75-1.08l.11.06c-.18.52-.35,1-.54,1.62C54,37.71,53.88,37.55,54,37.31Zm1.11-1.13a4.46,4.46,0,0,1-.62,2.27A21.67,21.67,0,0,1,55.14,36.18Zm.83-2.7.12-1.21C56.42,32.71,56.19,33.09,56,33.48Zm-1.22.19c.09.31.18.6.28.92l-.48.42-.4-.31c.14-.33.28-.68.41-1ZM37.38,53.42c.28-.36.51-.67.81-1.08C38,53.3,37.91,53.37,37.38,53.42Zm.13.42-.5.42C37,53.82,37.17,53.79,37.51,53.84Zm0,.56-.27,1.07-.15,0C37.21,55.08,37,54.62,37.5,54.4Zm-.45,1.42A1,1,0,0,1,36.61,57,1.8,1.8,0,0,1,37.05,55.82Zm2.35-3.63c-.1.63-.68.72-1.08,1l.48-1Zm.42-1.1c-.14.75-.16.78-.77.73C39.25,51.19,39.35,51.09,39.82,51.09Zm-4,2.45.45-.29C36.29,53.56,36.17,53.6,35.87,53.54Zm.19.53-.54.83-.1-.07a2.6,2.6,0,0,1,.41-.91Zm.59-1.87-.32.68C36.23,52.59,36.23,52.37,36.65,52.2ZM36.41,48a4,4,0,0,1,1.61.25c.06,0,.08.17.17.39C37.56,48.4,37,48.48,36.41,48Zm2.37-.29a3.09,3.09,0,0,1,2,.63c-.53.19-.81-.09-1.12-.21S39.08,47.81,38.78,47.67Zm1.62-.75c.7-.19.89.33,1.21.59C41.13,47.57,40.84,47.23,40.4,46.92Zm.9-.76-.12.1-.49-.54.11-.1Zm-.11-.57c.59-.3.72.32,1.1.48C41.72,46.37,41.62,46.32,41.19,45.59Zm-.18.8c-.38,0-.38,0-.63-.59Zm.73.82-.48-.37.08-.12.5.4ZM42,45.4l1.53-.47c.24.23.59.37.7.75-.35.34-.55.1-.85-.18a3.92,3.92,0,0,1,.11.4C42.81,46.3,42.39,45.94,42,45.4Zm3.33-1.55h0l0-.33s.09-.05.11,0,.19.18.36.33l-.44,0s0,0,0,0h0c0,.07,0,.15,0,.25-.35,0-.41-.25-.61-.4.31-.23.41,0,.56.15ZM44.52,46c-.07.16-.1.26-.18.45L44,46.09Zm-.74-1.19.82-.14c.11.07,0,.34.31.43s0,.36-.2.51ZM44,46.47c.23.26.12.43-.17.62l-.8-.68C43.63,46.11,43.72,46.13,44,46.47Zm0,1.39-.35-.22C43.94,47.5,44.05,47.56,44.05,47.86Zm1.72-4.22c0-.1-.07-.19-.1-.28l.17,0c0,.09,0,.18.08.28Zm-1,.54-.1.09-.36-.36.14-.09Zm-.4.2c-.45.15-.8.41-1.12-.15l.69-.36Zm-1.76,2.06a6,6,0,0,1,.93.82c-.55.05-.82-.4-1.34-.73C42.44,46.47,42.56,46.41,42.61,46.44Zm-.29.34.59.55-.11.09-.55-.56Zm0,1.25a1.66,1.66,0,0,1-.22,0s0-.06,0-.2Zm1.46,1.48-2-1.16A4.68,4.68,0,0,1,43.8,49.51Zm-.63-1.14.06-.08.62.43-.1.12C43.56,48.68,43.37,48.52,43.17,48.37ZM37.25,61.25c-.31-.77-.28-1.17.09-1.43C37.31,60.33,37.28,60.79,37.25,61.25ZM39.37,56l.14-.31,0,0-.13.33Zm-1,2.46.21-.44.06,0-.21.44Zm0,.3.13,0-.21.54-.12,0C38.27,59.12,38.33,58.93,38.4,58.75Zm.67-1.14.11,0-.2.75-.15,0Zm2.16-3.81A1.22,1.22,0,0,1,40.69,55,2,2,0,0,1,41.23,53.8ZM41.16,52,41,51.91l.26-.37C41.4,51.77,41.39,51.94,41.16,52Zm-.8,1.77-.47.61C40,53.87,40,53.87,40.36,53.77Zm-2.69,5.49c.08-.4.15-.8.23-1.2C38,58.7,38,58.83,37.67,59.26Zm-.23.07c0,.08-.18.14-.28.21a.52.52,0,0,0-.11-.1c0-.38,0-.76.06-1.14s0-.39.59-.44C37.62,58.36,37.55,58.85,37.44,59.33Zm-.09-1.77c-.21-.86.25-1.35.89-1.87-.15.6-.25,1.12-.42,1.6C37.78,57.42,37.52,57.47,37.35,57.56Zm1.18-1.24c0-.25.09-.5.14-.76C38.93,55.88,38.7,56.1,38.53,56.32ZM39,55.18l-.14-.1c.09-.12.19-.22.28-.33l.08,0Zm.12-.81c0-.65,0-.65.54-.67C39.44,54,39.27,54.16,39.1,54.37Zm.35-1.09c.08-.54.08-.54.61-.77C39.92,52.81,40,53.33,39.45,53.28ZM40,51.85c.25-.77.25-.77.69-.68C40.5,51.8,40.5,51.8,40,51.85ZM37.6,55.34c.12-.44.22-.87.36-1.28s.27-.37.85-.29c-.1.35-.18.66-.27,1C38.38,55.26,38.26,55.34,37.6,55.34Zm-.74,2.35c-.37-.18-.37-.21.09-.61C36.91,57.36,36.89,57.52,36.86,57.69Zm-1.12,2c0-.31.07-.61.11-1C36.16,59.25,36.15,59.37,35.74,59.66Zm1-1.67a.43.43,0,0,1-.07.57C36.57,58.37,36.47,58.18,36.76,58ZM36,59.91c-.16.76.45,1.27.21,2l-.62.1A2.09,2.09,0,0,1,36,59.91Zm.23,2.31c.08.49.15.94.23,1.44l-1,.13c0-.52,0-1,0-1.46Zm1.09-.53.35-1.06C37.82,61.62,37.81,61.65,37.36,61.69Zm1.06-1.86a2.31,2.31,0,0,1-.27,1.25C38,60.32,38.07,60,38.42,59.83Zm1.08-2.28.1,0-.51,1.85L39,59.37C39.13,58.76,39.31,58.16,39.5,57.55ZM38.9,60c0,.13-.07.26-.1.4l-.11,0c0-.14.07-.27.1-.41Zm4.25-12.34c.56.06.81.53,1.3.77A1.43,1.43,0,0,1,43.15,47.64Zm6.2-4c-.43,0-.43,0-.77-.58C48.92,42.88,48.92,42.88,49.35,43.63Zm-.23-.83c.5,0,.59.34.84.66C49.46,43.43,49.36,43.11,49.12,42.8ZM48,45.53l.14.3c-.36.11-.36.11-.61-.36.18-.18.32,0,.48.07h0v0h0l0-.26c.29.11.29.11.51.52L48,45.51S48,45.53,48,45.53Zm-.41-.29c-.22,0-.35,0-.42-.07a2.81,2.81,0,0,1-.39-.38c-.47-.52-.46-.57.2-1l1,1.15-.11.12-.59-.51,0,0Zm-1.15,0-.08.09L46,45l.11-.11Zm0-.29.07-.08.3.3-.06.06Zm-.4.51c-.13,0-.2.08-.26.07-.3-.07-.12-.2-.07-.4Zm-.55,1.4-.63.13.21-.51Zm-.1-.51c-.16-.13-.14-.16.06-.56l.77.85C45.77,46.92,45.63,46.51,45.41,46.34Zm.54-.5c.57,0,.57,0,1,.51l-.49.23Zm1.95-1.46.19-.16h0c-.49-.06-.5-.07-.79-.53l.34-.23c.2.24.44.43.45.76h0l0,0,.59.4C48.25,44.87,48.25,44.87,47.9,44.38Zm.13-1.1.44.58A.51.51,0,0,1,48,43.28Zm.62-2.42c.41-.14.46-.11.8.44C49.08,41.48,49,41.46,48.65,40.86Zm.15.6-.11.09-.51-.6C48.61,41,48.66,41.28,48.8,41.46Zm-.46.1-.11.1-.34-.38.1-.09Zm-.46.19c-.47,0-.47,0-.76-.33C47.56,41.17,47.56,41.17,47.88,41.75ZM45.46,48c-.32.24-.32.24-1-.42C44.86,47.23,44.93,47.27,45.46,48Zm-.23-.65c.47-.33.5-.31,1.09.33C45.8,48,45.81,47.89,45.23,47.32Zm.93-.35c.41,0,.41,0,.83.53C46.49,47.55,46.36,47.25,46.16,47Zm.63-.14c.55-.21.55-.21.9.29l-.47.2Zm1.31-.73c.34,0,.4.13.5.38C48.31,46.45,48.25,46.28,48.1,46.1Zm.42-1.05c.41-.26.53,0,.69.26C48.86,45.58,48.86,45.58,48.52,45.05Zm.81-1.17c.39-.13.43.09.48.37C49.49,44.29,49.43,44.09,49.33,43.88Zm.9-1.25h.63v.17C50.66,42.9,50.46,43,50.23,42.63Zm1.91-6.36A1.52,1.52,0,0,1,52.67,38C52.48,37.38,52.32,36.85,52.14,36.27Zm.28,2-.08.06-.26-.4.13-.07Zm-.5,1.32c-.7-.42-.76-.77-.28-1.81Zm-1,2.57,0-.09.34-.1a.54.54,0,0,0,0,.1Zm1.44-3.28.08,0,.15.3-.13,0C52.42,39.12,52.39,39,52.35,38.9Zm2.5-6.19a2.43,2.43,0,0,1-.12-2.12l.91.92Zm-.37-.12.14.6C54.22,33,54.4,32.79,54.48,32.59Zm-1.25,2.76c-.08-.35-.15-.62-.23-1C53.43,34.63,53.47,34.78,53.23,35.35Zm.28-1.84h-.1v-.38h.12C53.53,33.26,53.52,33.39,53.51,33.51Zm-.38.4c-.49-.15-.52-.3-.13-1C53.05,33.33,53.09,33.6,53.13,33.91Zm-.6.89.62,1.63c-.4.08-.53-.12-.58-.32C52.47,35.7,52.08,35.31,52.53,34.8Zm-1.64,5.41c.07.09,0,.29,0,.45l-.17.06-.57-.45C50.44,40.07,50.68,40,50.89,40.21Zm-.77.8c-.37.19-.37.19-.84-.41C49.63,40.5,49.73,40.55,50.12,41ZM48.2,39.93c.17.16.33.35.48.52-.2.3-.53-.15-.65.32l-.85-.91C47.79,39.54,47.8,39.53,48.2,39.93Zm-.53.88-.09.07c-.1-.13-.2-.27-.31-.4l-.39-.36-.11.08.53.76c-.24.21-.45.25-.67,0s-.4-.45-.63-.71l.91-.34C47.17,40.2,47.41,40.51,47.67,40.81Zm-.72,1-.09.16c-.42-.13-.84.17-1.33-.08a1.77,1.77,0,0,1,1-.36C46.67,41.49,46.82,41.68,47,41.78Zm-1.4.78c-.25.32-.25.32-.67,0Zm-.62.4-.71.22-.66-.65C44.32,42.38,44.65,42.48,44.93,43Zm-1.69,1.66a.69.69,0,0,1,0,.13l-1.32.36L41.84,45c.33-.17.64-.37,1-.51C42.92,44.44,43.1,44.57,43.24,44.62ZM41.41,45,41,44.59l1.52-.36A3.26,3.26,0,0,1,41.41,45Zm-1,1.64c-.68.1-.93-.4-1.42-.65C39.59,45.79,39.71,45.84,40.38,46.61Zm.19.84-.08.1L38,46.22l.53-.24Zm-3.1,2.09-2.11-.33,0-.15C36.09,49.15,36.85,48.91,37.47,49.54Zm-1.41,1.35a.56.56,0,0,1,0-.12l.6-.22C36.52,50.93,36.26,50.83,36.06,50.89Zm.13.64c-.09.43-.09.43-.71.4Zm-.38-.13-.39.2a.61.61,0,0,1-.07-.1l.37-.26Zm0,.9c.07.9-.38,1.45-1.21,1.41,0-.23.07-.41.12-.59C35,52.34,35,52.32,35.84,52.3Zm-1.32.33-.29,1.17-.59.11C33.73,53,33.7,53,34.52,52.63Zm-1,1.67.56-.13c.09.55-.34.66-.7.84C33.39,54.78,33.44,54.55,33.49,54.3Zm-.71,1.81c-.07.08-.14.17-.22.25l-.1-.11.26-.2Zm.71,1.21c.1.56-.4.69-.72,1C32.64,57.66,33,57.47,33.49,57.32ZM34.14,56c0-.87.22-1.61,1.18-2C35.15,54.85,35,55.61,34.14,56Zm.4.42c-.11.41-.12.43-.65.9C33.86,56.77,34.27,56.7,34.54,56.41Zm4-7.82a10,10,0,0,1,3.58,1.12A17.48,17.48,0,0,1,38.52,48.59ZM41.47,50c-.91-.11-1.92.27-2.75-.62A13.15,13.15,0,0,1,41.47,50Zm-6,8.33a2.4,2.4,0,0,1-.12,1.47l-.31.07C34.71,59.63,35,58.58,35.42,58.29Zm-.13,1.85-.18,1.68c0,.34-.27.35-.64.37.1-.64.18-1.22.29-1.8C34.79,60.2,34.81,60.2,35.29,60.14ZM35,62.47c0,.36.07.71.07,1.07a.39.39,0,0,1-.21.26,3.1,3.1,0,0,1-.6.08c0-.44.06-.8.13-1.15S34.74,62.44,35,62.47Zm-.24,1.7a2.34,2.34,0,0,1,.39.12c0,.38,0,.78,0,1.24l-1,.18c0-.39,0-.73,0-1.07S34.37,64.14,34.78,64.17Zm.68-.07.73,0a1.54,1.54,0,0,1,0,1.4l-.57.09C35.37,65.08,35.53,64.61,35.46,64.1ZM37,63.64v-.35l.16,0c0,.13,0,.25,0,.38Zm.32-1.35c0-.08.15-.2.18-.19s.22.13.23.21a1.77,1.77,0,0,1-.26,1.32A2,2,0,0,1,37.29,62.29ZM44.2,48l.08-.13c.24,0,.32.27.51.36l-.07.11Zm.6.62.71.56c-.26.28-.4.08-.56,0S44.7,48.88,44.8,48.62ZM45,51.48c.33,0,.63-.14.93-.14a7.25,7.25,0,0,1,3.55.73s0,.06.07.09-.06.34-.28.29a13.75,13.75,0,0,0-5.27.08l0,0A1.18,1.18,0,0,1,45,51.48Zm.39-3.15c.54-.16.68.2,1,.46C45.92,48.89,45.73,48.6,45.43,48.33Zm.72-.21c.47-.3.52-.29,1,.3C46.62,48.64,46.62,48.64,46.15,48.12Zm1-.12a.9.9,0,0,0,.05-.09c.06,0,.14,0,.19,0a.8.8,0,0,1,.15.21l-.08.08Zm.49-.28c.41-.26.41-.26.71.06C48.1,48,47.87,48.05,47.68,47.72Zm2.27-4c.31,0,.4.14.53.44C50.13,44.06,50,43.92,50,43.67Zm-.43,2.41c.13-.12.28-.17.39,0-.08.17-.19.25-.37.15S49.49,46.11,49.52,46.08Zm0,.68.3.32-.1.1-.31-.3Zm-.07,2.05c-.27.1-.49.29-.72-.06C49,48.64,49.17,48.42,49.45,48.81Zm.46-2.2c.31-.21.47-.08.58.2C50.17,47,50.17,47,49.91,46.61ZM50,49.5c-.34.15-.6.15-.76-.17C49.76,49.08,49.76,49.08,50,49.5Zm.71-4.07.62-.34C51.39,45.48,51.28,45.56,50.75,45.43Zm3.35-6.06c0,.2-.05.4-.07.6C53.68,39.72,53.93,39.56,54.1,39.37Zm1.72-3.29-.12,0c.08-.31.16-.63.25-1,.12.07.22.12.22.15A1.62,1.62,0,0,1,55.82,36.08Zm1.73-3.61c.05-.4.08-.71.13-1.07C58.05,31.84,58.05,31.84,57.55,32.47Zm.85-3.06.11,0a1.71,1.71,0,0,1,.19.5,3.3,3.3,0,0,1-.4,1.86C58.34,30.9,58.37,30.16,58.4,29.41ZM58.18,28a7.39,7.39,0,0,0,0-.86c.64.59.64,1.06.48,2.17A1.2,1.2,0,0,1,58.18,28Zm-1.72,4c-.12-.31-.42-.62-.1-1A1,1,0,0,1,56.46,32Zm1.21-5.23c.39.18.41.31.12,1C57.74,27.33,57.71,27,57.67,26.74Zm-.21,1a1.88,1.88,0,0,1-1.08-2.09C57.41,26,57.54,26.79,57.46,27.69Zm-1.26-.5-.13,0c0-.21-.09-.42-.13-.63l.15,0C56.13,26.77,56.17,27,56.2,27.19Zm-.27,1.51-.17,0a4.56,4.56,0,0,1-1.16-3.64c.32.33.65.65,1,1a.49.49,0,0,1,.13.27C55.78,27.13,55.85,27.91,55.93,28.7Zm-1.47-1.31h-.12c0-.25,0-.49-.05-.8C54.54,26.93,54.54,26.93,54.46,27.39Zm-.34-.65H54c0-.3,0-.6,0-.89h.13C54.11,26.15,54.11,26.44,54.12,26.74Zm-.43,1.55-.15.05a1.47,1.47,0,0,1-.15-1.25Zm-.12,2.39-.13,0c-.08-.42-.15-.84-.25-1.34C53.57,29.62,53.57,29.62,53.57,30.68Zm.79-2.93a3.11,3.11,0,0,1,.13,2.19A2.44,2.44,0,0,1,54.36,27.75Zm.43.43c.48.26.4.8.67,1.13v0c0-.11,0-.22,0-.34.49.34.53.47.36,1.13-.13-.26-.27-.52-.4-.79h0c.1.4.21.8.3,1.21,0,.2.07.41.1.62l-.13.08-1-1a.34.34,0,0,1,0-.18C54.75,29.46,54.77,28.85,54.79,28.18ZM53.25,33c-.1-.27-.18-.46-.25-.66C53.4,32.56,53.4,32.56,53.25,33Zm-1,2a1.18,1.18,0,0,1-.15-1.09C52.47,34.32,52.49,34.48,52.23,35Zm-2.59,2.69A3.51,3.51,0,0,1,49,35.63a8.79,8.79,0,0,0,.61,1A.89.89,0,0,1,49.64,37.71ZM49,37.23c-.57-.45-.7-1.09-.52-2.53.08.42.15.83.23,1.24S48.9,36.8,49,37.23Zm-5.47,4.6c-.45.29-.46.28-.59-.27Zm-6.91-1.7a.94.94,0,0,1-1.08-.23L35,39.27h0c.12.27.25.53.38.82A1.23,1.23,0,0,1,34,39.37c.09-.21.14-.47.46-.48l.55.4h0s0,0,0,0,0,0,0,0S34.92,39,35,39a1.8,1.8,0,0,1,.65-.47c1-.26,2.06-.46,3.09-.67a4.32,4.32,0,0,1,.88-.11A14.12,14.12,0,0,1,36.61,40.13Zm-5.37-.58c.08,0,.12.15.17.22a.36.36,0,0,1-.07.1l-2.71-.54A7.38,7.38,0,0,1,31.24,39.55ZM27.6,37.73v.13l-.74,0C27.19,37.55,27.39,37.72,27.6,37.73Zm.09,1a.54.54,0,0,1,.27.12,1.39,1.39,0,0,1-1.35-.26Zm.18,1.56c.28,0,.36.11.77.66l-3.2-.58a2.14,2.14,0,0,1,.48-.15C26.57,40.26,27.22,40.27,27.87,40.31Zm2,2.28A11.27,11.27,0,0,1,24.62,42,12.77,12.77,0,0,1,29.88,42.59Zm-3.51-.92c.63-.3,1.22,0,1.9,0-.09.21-.19.29-.37.27Zm3.55,1.72c-.58.18-.93-.17-1.34-.22l0-.13Zm2.91,4.22a3.73,3.73,0,0,1-.26.27l-.78-.24ZM34,50.73c-.06.67-.11.71-.92.77C33.18,51,33.64,50.91,34,50.73Zm-.35,1a1.09,1.09,0,0,1-1,.64C32.91,51.86,33,51.8,33.68,51.77Zm-.2.8c-.06.44-.49.81-1.18,1.08C32.36,53.17,32.63,52.93,33.48,52.57Zm-.23.74.1.07c-.05.2-.09.39-.14.63l-1.06.22a.37.37,0,0,0,0-.11Zm-1,1.2a7.91,7.91,0,0,1,.82-.16c.17,1-.5,1.58-1.12,2.13-.11.1-.3.11-.59.2.21-.72.36-1.3.56-1.87A.58.58,0,0,1,32.22,54.51Zm.42,2.23c-.3.67-.95,1-1.48,1.37L31.09,58C31.07,57.05,31.29,56.89,32.64,56.74ZM31.78,59c-.24.45-.7.59-1.06,1C30.76,59.26,31,59.1,31.78,59ZM31,60l1.21-.89a2.34,2.34,0,0,1-.1,1.32.29.29,0,0,1-.18.14c-.45.17-.91.32-1.38.48A.94.94,0,0,1,31,60Zm1.61-1.22.64-.1c.06,1.2-.11,1.55-.85,1.67C32.47,59.87,32.53,59.37,32.61,58.81Zm-.15,4.28c0,.72-.09.9-.4,1.21C31.92,63.39,32,63.16,32.46,63.09Zm-.29,1.55a3.06,3.06,0,0,1,0,.32l.3-.41c0,.48-.05.83-.08,1.19s-.18.49-.55.42A7.77,7.77,0,0,1,32,64.63Zm1-.58c-.25-.6.51-.8.47-1.32a1.67,1.67,0,0,1,.1,1C33.72,64.1,33.45,64.06,33.22,64.06Zm.52.25a3.35,3.35,0,0,1,.13,1.48l-1,.18c.09-.55.17-1,.26-1.53Zm.14,1.82c0,.45,0,.87.06,1.34l-1.6.22c.17-.5.3-.92.46-1.37Zm.37-.07,1-.11v1.36l-.89.13C34.3,67,34.28,66.55,34.25,66.06Zm1.21-.14.4-.07a1.36,1.36,0,0,1-.1,1.38H35.6C35.55,66.8,35.51,66.37,35.46,65.92Zm1.3-1.52c0-.26.08-.44.41-.36a1.51,1.51,0,0,1,0,1.23c0,.08-.17.12-.35.21C36.81,65,36.77,64.72,36.76,64.4Zm.3,1.42,0,.43a.38.38,0,0,1-.15,0c0-.14,0-.29,0-.44Zm-.65.11c.23.33.23.33.23,1.24l-.5,0A2.12,2.12,0,0,1,36.41,65.93Zm1.23-1.25c0,.23,0,.45,0,.73C37.46,65.18,37.46,65.18,37.64,64.68Zm0,1c-.13.53,0,1-.41,1.39A1.14,1.14,0,0,1,37.68,65.71ZM39,63.63c0-.48.07-.94.11-1.44.21,0,.37,0,.32.26s-.17.81-.25,1.22A.58.58,0,0,0,39,63.63Zm.94-2.2c0-.21.09-.42.13-.63l.09,0c0,.21-.08.42-.13.63Zm-.35.41-.46-.09c.09-.39.09-.77.42-1.06.14-.13.17-.39.29-.57A9,9,0,0,1,39.57,61.84Zm4.6-9.11a11.56,11.56,0,0,1,4.65,0c.19.05.41.06.39.44a15.12,15.12,0,0,0-6.07.74C43.34,53.29,43.55,52.83,44.17,52.73Zm4.91-1.28.82.27C49.51,51.93,49.29,51.65,49.08,51.45Zm1.34-2.15c-.07-.07-.16-.11-.17-.16,0-.26.19-.17.34-.19Zm-.53-.88c.67-.42.67-.42,1-.07C50.52,48.44,50.24,48.69,49.89,48.42Zm.92-.82-.06-.14.39-.17,0,.09Zm7.94-16.41.13-1.12L59,30l.38.51-.49.7Zm.25-4.3a12.21,12.21,0,0,0,0-1.35,3.4,3.4,0,0,1,.6,2.36A1,1,0,0,1,59,26.89Zm-.19.23a.85.85,0,0,1-.62-.79c-.08-.51-.12-1-.17-1.62a1.11,1.11,0,0,1,.74,1.22A9.8,9.8,0,0,0,58.81,27.12Zm-1-.78c-.08-.07-.2-.13-.22-.21-.13-.67-.24-1.34-.38-2.13C58.05,24.7,57.75,25.56,57.84,26.34Zm-.76-1.79c.05.44.16.87.28,1.46-.41-.32-.7-.54-1-.78a.43.43,0,0,1-.15-.26c-.08-.55-.14-1.11-.21-1.72A1.5,1.5,0,0,1,57.08,24.55Zm-1,1.29-.17.05c-.05-.24-.11-.47-.2-.83C56.15,25.3,56,25.62,56.09,25.84Zm-.6-.21c-.46-.46-1.29-.63-1.21-1.54A1.39,1.39,0,0,1,55.49,25.63ZM52,26.7h0c0,.32.06.65.08,1h0l-.15.32-1.28-.6-.05.11c.34.19.67.4,1,.58a.8.8,0,0,1,.49.68l.16-.29c.15.14.36.23.41.38A2.85,2.85,0,0,1,53,30.5a1.5,1.5,0,0,0,0,.47l.19-.27a1.92,1.92,0,0,1,.26,1.52c-.38-.09-.48-.27-.46-.57s0-.47,0-.7c0,.21-.09.42-.15.69-.21-.41-.38-.77-.56-1.13.05.28.1.57.16.89-.51-.3-.56-.55-.26-1.06l-.18-1.61a1,1,0,0,0-.11.67,2.36,2.36,0,0,1-.15,1.16l-.24-.62-.1,0c0,.26.11.52.18.83l-.36-.05-.17.06.2.16a.66.66,0,0,1,.5,1l-.16-.08c0,.48,0,1,.06,1.44l-.6.37.4.15v.43h0c.14-.13.24,0,.25.09s0,.56,0,.89c-.3-.08-.45-.18-.36-.47a4.82,4.82,0,0,0,.11-.52h0l-.26.67c-.58-.68-.66-1.5-1.17-2.13,0,.25,0,.49,0,.74a1.2,1.2,0,0,1,.17,0c.11.24.21.48.32.74-.37-.09-.37-.09-.52-.47-.15.24-.28.26-.38,0a4.74,4.74,0,0,1-.16-.57,5.77,5.77,0,0,0-.22-.58h0v0a11.38,11.38,0,0,0,.49,2.95c.05.31.1.62.16,1-1.59-1.31-1.64-4.79-1-6,.12.7.23,1.39.34,2.07h0a2.88,2.88,0,0,0,0-.59c0-.45-.13-.91-.17-1.37a2.59,2.59,0,0,1,.23-1.47c.5-1,.95-2,1.42-3l.42-.9.43.29Zm-1.87,7.78a.47.47,0,0,1-.09.06l-.2-.25.12-.09ZM51.57,24.4a1.18,1.18,0,0,1,.17.73C51.36,24.91,51.36,24.91,51.57,24.4Zm-7,10.3A2.49,2.49,0,0,1,43,33.25c-.1-.31-.22-.6-.33-.91a.08.08,0,0,1,0,0h.06C43.31,33.1,43.91,33.9,44.52,34.7Zm-4.83-6.3-.13,0-.72-2.15h0l0,0s0,0,0,0a.47.47,0,0,1-.1.1.63.63,0,0,0,.08.39l.72,2.08a2.29,2.29,0,0,1,0,1.65c-.42-.95-.82-1.79-1.17-2.65s-.78-2-1.18-3a.83.83,0,0,0-.17-.21,1.6,1.6,0,0,0,0-.38q-.23-.7-.48-1.41a2,2,0,0,0-.17-.27c-.07-.39-.13-.78-.19-1.17s-.13-.6-.15-.9a2,2,0,0,1,.09-.53c.22.14.23-.07.3-.17l.27-.48.29-.53.27-.49a1.36,1.36,0,0,1,1.12,1.14c.29,1.31.68,2.59,1,3.9a7.62,7.62,0,0,1,.16,1.26c0,.11-.1.23-.17.4a2.93,2.93,0,0,1,.37,1.7c0,.33-.08.66-.09,1A3.93,3.93,0,0,0,39.69,28.4Zm-3.64-2.93v0c.17.53.34,1.07.51,1.63-.7-.52-1-1.45-1.19-3.14l.25.18a4.36,4.36,0,0,1,0-2.53.68.68,0,0,1,.2-.37l.18.58c.09.26.19.53.29.8h0A5.7,5.7,0,0,0,37,24.69h0c.22.72.43,1.45.69,2.16s.59,1.51.88,2.27c0,.09.05.19.09.32s-.16,0-.19,0a7.23,7.23,0,0,1-1.57-2.21c-.23-.59-.54-1.15-.81-1.72,0-.35,0-.68-.36-.86Zm-4.21-6.21c-.14-.47-.24-1-.4-1.41a.69.69,0,0,1,.41-1,.76.76,0,0,1,.52.66,35,35,0,0,0,1.41,4.92c.18.58.36,1.15.5,1.76A8.89,8.89,0,0,1,32.76,22C32.41,21.13,32.14,20.19,31.84,19.26Zm.2,1.61a2.78,2.78,0,0,1-.71-2.52ZM32,16.31h.11l.06.35H32C32,16.55,32,16.43,32,16.31Zm.64,1.25.34,0c-.68-.9-.83-1.55-.46-2.17.44.29,1,.4,1.12,1.06.08-.16.2-.18.35-.09a9.9,9.9,0,0,1,.87.56.51.51,0,0,1,.19.4,22.58,22.58,0,0,1-.32,2.7c0-.18-.08-.37-.14-.56a3,3,0,0,0-.29-.78,4.77,4.77,0,0,1-.42-1.55c0-.18-.11-.34-.17-.51a18.74,18.74,0,0,0,.38,2.57,3.91,3.91,0,0,1,.07.63l-.24-.36-.06,0c.22.82.49,1.64.66,2.48s.28,1.67.42,2.6A34.8,34.8,0,0,1,32.62,17.56Zm2.81,2.92-.16,0,.21-3a2.5,2.5,0,0,1,1.4.74C35.9,18.66,35.7,19.59,35.43,20.48Zm5.88.41c-.08-.13-.15-.27-.23-.41l.13-.07c.08.14.16.28.23.42Zm.32,1.19a.39.39,0,0,0,.09.22.73.73,0,0,1,0,.89c-.35.61-.66,1.25-1,1.87-.07.12-.14.24-.22.36l-.16,0A25.13,25.13,0,0,1,41,21C41.27,21.36,41.61,21.62,41.63,22.08ZM40,23.5l-.63-3.94.1-.12.56.47s.08.11.12.11c.39.05.43.33.39.62C40.42,21.59,40.25,22.55,40,23.5Zm-.94-2.82-.14.05L38.77,20l.12,0C39,20.18,39,20.43,39.09,20.68Zm1.25-2.58c.5.1.63.41.35,1.24C40.57,18.92,40.45,18.5,40.34,18.1Zm-.47,1.32c-.94-.38-.71-1.21-1-1.9A5.14,5.14,0,0,1,39.87,19.42ZM39,19a4.69,4.69,0,0,1-1.29-2.34,1.21,1.21,0,0,1,1,1.06C38.8,18.09,38.9,18.48,39,19Zm2.65-1.41v-.05c-.36-.19-.27-.55-.3-.86a1,1,0,0,1,.3.86s0,0,0,0l0,0c.08.31.15.63.26,1.08C41.57,18.2,41.53,18,41.67,17.57Zm-.7.66c-.15-.71-.28-1.3-.42-1.9l.16-.09a1.43,1.43,0,0,1,.29.37A1.57,1.57,0,0,1,41,18.23Zm-.46-1.16c0,.24.07.47.12.73-.42,0-.61-.17-.65-.53s-.13-.89-.2-1.37c.33,0,.49.09.55.33A8.39,8.39,0,0,1,40.51,17.07Zm-.85.24c-.27-.11-.27-.11-.61-.93l-.46-1.13a.57.57,0,0,1,.58.43Zm-1.26-.6-1.09-.6a.22.22,0,0,1-.12-.13c-.12-.53-.24-1.07-.35-1.61l.15-.06C37.43,15.06,38.27,15.57,38.4,16.71ZM37,16.4c.06.32.08.64.11,1h.1c0-.16.08-.33.15-.6L38,18.36c-.41-.15-.74-.19-.74-.65-.24,0-.46.16-.68-.05a1.83,1.83,0,0,0-.58-.33.56.56,0,0,1-.34-.69,2,2,0,0,0-.07-.58l-.11-.78c.52.3.92.52,1.3.77A.58.58,0,0,1,37,16.4Zm-2.19-3c.32.22.36.34.3,1.25C34.7,14.35,34.8,13.9,34.77,13.44Zm-.31.86c-1.14-.53-1.33-.76-1.34-1.6C34.18,12.9,34.33,13.08,34.46,14.3ZM28.1,11.88a2,2,0,0,1-.61-1.46A1.63,1.63,0,0,1,28.1,11.88ZM27,9l.14-.12.83.8c0,.23,0,.46-.08.69l-.09,0C27.53,9.91,27.26,9.44,27,9ZM28.23,10c.42.21.49.45.38,1.38C28.19,11,28.26,10.51,28.23,10Zm.7.62a2.17,2.17,0,0,1,1.39,2.62C29.55,12.53,28.64,11.92,28.93,10.65Zm1.81,3.46c.48.29.2.65.29,1h-.12C30.85,14.77,30.8,14.44,30.74,14.11Zm0,1.25c-1.11-.59-1.42-1.16-1.58-2.89l1.28,1.19a.22.22,0,0,1,0,.11C30.56,14.28,30.63,14.79,30.72,15.36Zm.53-1.62a.61.61,0,0,0-.16-.41L31,13.8c-.41-.27-.51-.65-.48-1.81a1.83,1.83,0,0,1,1.12,1c.54-.06.81.38,1.25.62L32.28,15c-.22-.27-.36-.49-.65-.58A.58.58,0,0,1,31.25,13.74ZM29.1,14c-.45-.28-.62-.92-.59-2.1C28.86,12.13,28.87,12.19,29.1,14Zm.25.95c.22.65.37,1.33.53,2a1.8,1.8,0,0,1,0,.33c-.49-.19-.1-.68-.45-.94s-.19-.63-.28-1-.19-.69-.31-1.13C29,14.48,29.28,14.67,29.35,14.91Zm.73,1.66c-.13-.47-.25-.93-.39-1.45,1.24.69,1.31,1,1.16,2.32-.2-.29-.16-.72-.64-.68C30.17,16.76,30.1,16.64,30.08,16.57Zm1.09-.23c.34.27.34.27.11.66Zm.47-.16c-.44-.27-.55-.81-.3-1.68C32.15,15.08,32.22,15.54,31.64,16.18Zm1.21-2.87c-.54-.53-1.39-.68-1.41-1.72C32.09,12.08,33,12.22,32.85,13.31Zm-.37-1.4a12.63,12.63,0,0,1-1.1-.69c-.11-.08-.13-.3-.13-.5.45.35,1.13.43,1.33,1.06ZM28.7,8.66c.36.23.7.41.78.88A1.13,1.13,0,0,1,28.7,8.66Zm.23,24.05.33-.36c-.21-.33-.4-.64-.6-.94l.3-.34A2.63,2.63,0,0,1,27.59,29l.69.26,1.2.38h0l-.16-.07a3.06,3.06,0,0,1-2.16-1.67A12,12,0,0,1,26,25.7c-.07-.32-.19-.58.17-.75,0-.08,0-.14,0-.15A2.39,2.39,0,0,1,25.31,23c-.07-.46-.15-.91-.25-1.36-.17-.73-.35-1.45-.54-2.18a5,5,0,0,0-.26-.51c.37-.43-.1-.91-.09-1.43.17-.08.42-.12.48-.26a1.18,1.18,0,0,0,0-.65c-.08-.6-.19-1.21-.3-1.81,0-.16-.09-.33.13-.39.94.94,1.86,1.87,2.8,2.79.58.57,1.19,1.11,1.78,1.67a15.21,15.21,0,0,1,2.62,3.36c.27.45.53.92.8,1.37a2.52,2.52,0,0,1,.32.59l-7.28-3.06a4.07,4.07,0,0,0,1.76,1.06c.65.28,1.25.67,1.9.95a10.85,10.85,0,0,1,2,.85,7.82,7.82,0,0,1-3.94.57,3.22,3.22,0,0,0,2.4.18,10.77,10.77,0,0,1,1.88-.26,1.39,1.39,0,0,1,.81.16,11.34,11.34,0,0,1,4.15,4.13l-2.21-1.63c1.1,1.19,2.65,1.85,3.66,3.19a10.23,10.23,0,0,1-1.13-.45q-2.35-1.23-4.68-2.51c-.67-.37-1.32-.79-2-1.18a1.91,1.91,0,0,0-.73-.28l3,1.7c1,.57,2,1.15,3,1.7s2,1.09,3,1.69a15.8,15.8,0,0,1-4.91-1.35l-.8-.44c-.66-.36-1.34-.68-2-1.09s-1.35-1-2-1.57c-.06-.05-.1-.11-.2-.12.15.46.64.65.92,1.11l-1-.57-.08.13a22.2,22.2,0,0,0,3.05,1.8c1,.65,2,1.2,3,1.79a.56.56,0,0,0,0,.12,5.32,5.32,0,0,1-.8-.12l-4.08-1a.2.2,0,0,0-.11,0h0a7.12,7.12,0,0,0,2.12.74,3.37,3.37,0,0,1,.91.34l-2-.16a.25.25,0,0,1,0,.07,1.65,1.65,0,0,0,.31.18,9.4,9.4,0,0,0,2.93.51c.73,0,1.47,0,2.2,0l.6,0-3.41,3.28a1.73,1.73,0,0,0,.39-.18c.79-.72,1.56-1.46,2.37-2.17a3.12,3.12,0,0,1,.77-.4v0h0A1.49,1.49,0,0,1,38,31.41a3,3,0,0,1,.84.15,2.15,2.15,0,0,1,.8.4,32.91,32.91,0,0,0,4.66,3.84,1.63,1.63,0,0,1,.38.36,14.46,14.46,0,0,1-4.13-1.89c-1-.7-2-1.43-3-2.13-.25-.17-.5-.43-.86-.29l0,0h0a.44.44,0,0,0,0,.09,4.57,4.57,0,0,1,1.77,1,27.47,27.47,0,0,0,5,3c.38.18.79.32,1.27.52a1.29,1.29,0,0,1-1,0,22.18,22.18,0,0,1-3.36-1.24l-2.45-1.1a1.36,1.36,0,0,0-.24,0l4.82,2.25a2.58,2.58,0,0,1-1.34.06c-1.64-.47-3.28-.94-4.93-1.38a8.39,8.39,0,0,0-1.67-.22c2.05.34,4,1.17,6,1.7a3.71,3.71,0,0,1-2.07.09c-.7-.09-1.4-.24-2.1-.38s-1.39-.27-2.1-.37l.66.31v.09l-.55,0a34.23,34.23,0,0,0,3.86.77,4.87,4.87,0,0,1-1.44.42,14.32,14.32,0,0,1-3.81-.34,1,1,0,0,1-.88-.64,6.48,6.48,0,0,0-.43-.72c-.28.48.37.62.28,1l-1-.25s-.12-.07-.13-.12c-.11-.61-.81-.86-.9-1.54a.42.42,0,0,1,.05-.16.89.89,0,0,0-.18-1.12c-.13-.15-.27-.29-.4-.45S29.07,32.91,28.93,32.71Zm-.36,2.86L28,35.48s0-.06,0-.09l.54.07S28.57,35.54,28.57,35.57Zm-2-1.3-1.26-.09C26.1,33.9,26.1,33.9,26.54,34.27Zm-2.84-.6a4.53,4.53,0,0,1,.87.49H23.44v-.49A1.86,1.86,0,0,1,23.7,33.67ZM16.85,37c.25-.16.52-.3.79-.45A3.23,3.23,0,0,1,19.29,36a1.42,1.42,0,0,0,.49-.19l.31-.77a8.5,8.5,0,0,0,2.19-.18h0l-.41-.25a15.38,15.38,0,0,1,4.84,0,2.53,2.53,0,0,1,1.61.52c-.77-.08-1.42-.17-2.08-.22-1.07-.08-2.15-.14-3.22-.19a3.46,3.46,0,0,0-.76.13h0l2.46.31v.14a8.52,8.52,0,0,1-.87.08,2.57,2.57,0,0,0-1.43.2,5,5,0,0,1-1.67.23l-.84.07.29.17L16.56,37.3C16.71,37.13,16.76,37,16.85,37Zm9.43-1.4-.51-.06s0-.07,0-.11l.51.06A.37.37,0,0,0,26.28,35.58Zm-3.42,34.1-1.3.17c0-.19,0-.33-.07-.49-.77,0-1.42.61-2.25.49,0-.14,0-.27,0-.4s-.09,0-.12,0c-.66,0-1.31.09-2,.06-.33,0-.76,0-.87-.5l-2.06.09.26-.79c-.21-.27-.43-.22-.7-.11a3.27,3.27,0,0,1-1.83.34l.36-.76-.08-.1-2,.71c.08-.35.14-.57.21-.88l-2.14.21V67l-.93.11c-.54.06-1.09.13-1.63.17a.6.6,0,0,1-.6-.2C5,67,4.7,67,4.49,67c-1.13.1-2.26.22-3.48.35.18-.47.33-.88.49-1.28a18.3,18.3,0,0,1,2.4-4.38s0,0,0,0c.07-.2.13-.41.2-.61-.19,0-.38-.08-.57-.1a4,4,0,0,0-.49,0l.87-1.18a1.37,1.37,0,0,0,.16-.18c.21-.29.14-.45-.23-.56a2.92,2.92,0,0,0-.42-.1c.63-.75,1.21-1.45,1.81-2.13s1.24-1.35,1.86-2a1.43,1.43,0,0,0,.19-.24c.21-.38.12-.57-.31-.61H6.47a7.57,7.57,0,0,1,1-1c.39-.33.35-.5-.13-.66l-.6-.17a3,3,0,0,1,.57-1.28c.61-.77,1.25-1.5,1.87-2.25.29-.34.59-.67.87-1s.23-.47-.14-.66a5.1,5.1,0,0,0-.67-.24l.44-.57c-.06-.44-.49-.35-.69-.53,0-.06,0-.12,0-.13.76-.52,1.2-1.37,1.9-1.94a11.79,11.79,0,0,1,1.52-1c.39-.23.48-.34.35-.76-.07-.23-.13-.46-.25-.85l1.15-.34a1.07,1.07,0,0,1,0-1,.81.81,0,0,1,.78-.56.62.62,0,0,0,.58-.36,1.41,1.41,0,0,1,.45-.46,20.66,20.66,0,0,1,5.85-2.09,9.18,9.18,0,0,1,1.82,0,5.87,5.87,0,0,0,.59-.05l-.4-.1a.38.38,0,0,1,0-.1,1.29,1.29,0,0,1,.42-.1c1.25.11,2.5.24,3.74.36a.61.61,0,0,1,0,.14L24.21,36a1.12,1.12,0,0,0,.93.33,8.12,8.12,0,0,1,2.58.43,22.26,22.26,0,0,1-4.47,0l.54.22-.14.23a5.09,5.09,0,0,1,2.36.31,4.25,4.25,0,0,1-2,.09,19.1,19.1,0,0,0-2.39-.49,1.39,1.39,0,0,0-.66.07l1.64.31c-.6.21-1.15,0-1.66.45l1.7.05s0,.08,0,.13l-2.57.55c-.06,0-.14,0-.18,0-1,.62-2.14.74-3.14,1.27a8,8,0,0,0-2.23,1.44c.15-.09.31-.15.45-.24a19.94,19.94,0,0,1,4.51-2,10.28,10.28,0,0,1,3.85-.35,9.15,9.15,0,0,1,1.13.19l-.45.19v.1c.32,0,.65,0,1,0s.88-.13,1.17.35c0,.08.21.08.31.17-1.39-.09-2.74.39-4.13.25-.13,0-.43-.11-.46.24,0,.06-.29.09-.45.14l-4,1.14h0l-2.33,1.07c.41-.15.84-.28,1.24-.46s.73-.41,1.09-.61c.32,0,.64,0,.95-.11,1.46-.35,2.91-.74,4.37-1.05a4.5,4.5,0,0,1,1.51,0,18.52,18.52,0,0,1,2.23.37,4.84,4.84,0,0,1,1,.45l-2.25,0s0,.08,0,.11l.24.14v.09c-.65,0-1.3,0-2,0s-1.33.08-2,.16l1.65.28-2.46.93c.78-.16,1.56-.31,2.34-.5.23,0,.45-.23.68-.26.43-.06.87-.09,1.14.36h0l.06,0h0c.69.12,1.38.21,2.07.36.44.1.87.27,1.3.41,0,0,0,.09,0,.13l-1.65-.09.17.22-1.46.56c-.32.13-.61.33-.94.43s-.94.21-1.41.3l-2,.37a.74.74,0,0,1-.42,0c-.78-.45-1.55-.93-2.32-1.39l-1.05-.24c-.45-.1-.89-.21-1.34-.29a.6.6,0,0,0-.42,0c-.36.29-.83.21-1.23.39.42,0,.84,0,1.26,0a4.91,4.91,0,0,1,2.2.45c.69.33,1.39.65,2.07,1a10.46,10.46,0,0,0-3.68.8c-1.18.46-2.36.9-3.53,1.37A12.24,12.24,0,0,0,9.6,48.93a37.63,37.63,0,0,1,8.7-3.33c-.05.15-.08.22-.12.33.53-.12,1-.22,1.51-.36a.82.82,0,0,1,.74.15A7.83,7.83,0,0,1,21.91,47a5.26,5.26,0,0,1-.76,0,11.7,11.7,0,0,0-5.39.24,5.77,5.77,0,0,1-.6.09l-.57.1a.53.53,0,0,0,0,.13l1.88-.21,0,.1-3.6,1.48L13,49a54.65,54.65,0,0,1,5.6-1.83l.06.16-2.89,1.28,0,.1a1.43,1.43,0,0,0,.29,0c.81-.32,1.62-.66,2.44-1A2.56,2.56,0,0,1,20,47.48l-4.46,1.63a1.76,1.76,0,0,0,1.38-.23c.54-.27,1.12-.46,1.68-.69l.06.13c-.69.38-1.37.77-2.06,1.14s-1.31.67-1.95,1a3.33,3.33,0,0,0-.51.4,8,8,0,0,0-2.27,1.65s0,0,0,0l2.29-1.7,1.47-.7a27.15,27.15,0,0,1,4.93-1.94c.48-.13,1-.26,1.46-.36a1.67,1.67,0,0,1,.7,0c-1.38.53-2.82.84-4.16,1.44,1.84-.27,3.54-1.14,5.45-1.09l-.31.2s0,.06.06,0l.66-.12a.5.5,0,0,1,.39.15l-.65.12c-.4.07-.8.13-1.2.22A1.78,1.78,0,0,1,22,49a.76.76,0,0,0-.41.07c-.54.18-1.08.35-1.62.55a2.46,2.46,0,0,0-.48.3c1.19-.25,2.27-.46,3.35-.71A7.2,7.2,0,0,1,26,49c-1.06.32-2.16.27-3.21.6s-2,.7-3,1.08c1.17-.28,2.33-.61,3.51-.83a12.16,12.16,0,0,1,3.5-.42,1.08,1.08,0,0,1,0,.19l-1.46.29-2.93.57a1,1,0,0,0-.67.37c-.11.17-.4.22-.6.38.89-.26,1.77-.59,2.68-.76s1.85-.2,2.77-.29c0,0,0,.08,0,.12l-4.29,1.39a.34.34,0,0,1,0,.1,1.94,1.94,0,0,0,.34,0l4.79-1c.3-.06.6-.06.9-.09l0,.13c-.19,0-.37.11-.57.15a26.25,26.25,0,0,0-7.39,2.84,1.81,1.81,0,0,1-.48.2,1.88,1.88,0,0,1-.46.14c-.32.06-.65.08-1,.12a6.74,6.74,0,0,1-2.1-.09H16.4a1.65,1.65,0,0,1-.64-.17l-.11-.06L15.51,54c-.68-.26-1.34-.54-2-.74a8.35,8.35,0,0,0-1-.18c-.14,0-.27,0-.41-.06a7.23,7.23,0,0,0-1.14,0l-.22.09,1.46.28v.12l-1.2.19v.08c.71,0,1.42,0,2.13,0a5.44,5.44,0,0,1,2.14.53c-.06.06-.09.12-.13.13a29.21,29.21,0,0,0-5.29,1.88,8.82,8.82,0,0,0-1,.51.71.71,0,0,0-.22.39A22.58,22.58,0,0,1,15.37,55a1.66,1.66,0,0,1-.23.3,17.18,17.18,0,0,0-2.33,2.49,8.63,8.63,0,0,1-.85.86c-.16.15-.37.23-.52.38a5.11,5.11,0,0,0-.41.65,5.37,5.37,0,0,0,.92-.56,5,5,0,0,1,1.71-.92l4.94-1.79c.14,0,.29-.16.46.07l-2.92,1.35-4.2,1.84-1.14.49a1.07,1.07,0,0,1-.41.32c-.29.16-.6.3-.9.44L9.35,61a.22.22,0,0,1-.16.08l-1,.46c.25.16.44.05.64,0l2.63-.82a6.22,6.22,0,0,1,1-.22c-.73.63-1.63,1-2.41,1.54,1.54-.56,2.88-1.51,4.4-2.13-.14.13-.28.26-.43.38a28.4,28.4,0,0,1-2.32,1.77,15.37,15.37,0,0,1-3.88,1.61,20.57,20.57,0,0,0-3.5,1.26L4.22,65l1-.19a1.52,1.52,0,0,1,.78-.19h.09c.36-.09.72-.18,1.09-.25.21,0,.42-.1.63-.16l.12,0c1.14-.44,2.24-1,3.36-1.44a16.92,16.92,0,0,0,3.2-2c.74-.52,1.5-1,2.33-1.53a8.92,8.92,0,0,1-.54,1.17,7.8,7.8,0,0,1-1.73,1.94c-1,.76-2,1.57-3,2.36,0,0-.06.1-.11.19a.65.65,0,0,0,.62-.16l2.32-1.78a7.66,7.66,0,0,1,.88-.61,12.44,12.44,0,0,1-1.89,3.1,3.84,3.84,0,0,0,1.83-2c.56-1,1.07-2.11,1.64-3.15a10.85,10.85,0,0,1,2.22-3.11,1.43,1.43,0,0,1,.2-.14l.12,0c-.06.16-.1.32-.17.47C18.66,58.79,18,60,17.4,61.34s-.88,2.49-1.31,3.75a6.78,6.78,0,0,0-.27,1.12A3,3,0,0,1,17,64.85c0,.06.05.1.07.15s0,0,.06,0a5.69,5.69,0,0,1,2-2l-.26.67,2.2-2.09.11.08c-.22.58-.42,1.16-.63,1.74l0,0a4.43,4.43,0,0,0,.29-.46,4.66,4.66,0,0,0,.33-.85c.24-1.06,1.09-1.44,2-1.89-.23,1.36-.38,2.67-1.47,3.6a2.94,2.94,0,0,0-.3.31,3,3,0,0,0-.82,1.09,2.44,2.44,0,0,1-.77,1c-.51.39-.51,1-.81,1.49a29.85,29.85,0,0,1,2.76-3.17l.11.08-1.29,1.92.05.05,1-1,.07,0-1.5,3.22a.48.48,0,0,0,.49-.32c.34-.65.67-1.31,1-1.94a14.17,14.17,0,0,0,1.11-3,5.87,5.87,0,0,1,.42-1,18.36,18.36,0,0,1,2-3.14,3.43,3.43,0,0,1,.32-.3,20.21,20.21,0,0,1-.54,3c-.36,1.28-.68,2.56-1,3.83-.08.27-.38.57-.32.75a1.22,1.22,0,0,1,0,.73c-.1.59-.24,1.16-.34,1.74A.57.57,0,0,1,22.86,69.68Zm.49-31.39a1.32,1.32,0,0,1,1.54.13Zm.6.41L23,38.65l-.95-.06C22.59,38.34,23,38.36,24,38.7ZM15.17,58.89a9.07,9.07,0,0,1-4.07,1.45A10.73,10.73,0,0,1,14,59.21,7.77,7.77,0,0,0,15.17,58.89Zm9.68,4.83a1.52,1.52,0,0,1-.44,1.39C24.56,64.65,24.71,64.19,24.85,63.72ZM24,70v-.44l-.41-.09c.1-.51.05-1,.52-1.45a2.35,2.35,0,0,0,.53-1c.27-.71.51-1.45.75-2.17l.14,0c-.15,1.74-.3,3.48-.45,5.29Zm10.16,0c-.32.13-.65.22-1,.33h-.06c-.58-.61-1,.14-1.58.14a.55.55,0,0,0-.23.07c-.28.11-.42,0-.49-.3-.23.07-.44.13-.66.18s-.37.21-.55,0c0,0-.18,0-.26,0L28,70.83c0-.35,0-.6,0-.88l-2.39.18A5,5,0,0,1,25.49,68h.4A7.15,7.15,0,0,0,26,64.77a6,6,0,0,1,.12-1.52l-.18.19a.66.66,0,0,1-.11-.25c.08-.83.17-1.65.26-2.49a19.44,19.44,0,0,1,1.65-5.09,2,2,0,0,1,1.1-1A29.57,29.57,0,0,0,26.44,62l.18-.49c.05-.18.11-.35.16-.53a40.14,40.14,0,0,1,2.15-5.91,4.52,4.52,0,0,1,1.58-2c.06,0,.09-.09.17-.08a5.93,5.93,0,0,1-.91,2,.43.43,0,0,0-.09.22,19.55,19.55,0,0,1-.72,3c-.21,1.18-.46,2.35-.68,3.53a1.28,1.28,0,0,0,0,.64c.09-.4.2-.78.26-1.18a29,29,0,0,1,1.27-5c.06-.17.09-.35.15-.53.12-.34.22-.67.7-.72a3.62,3.62,0,0,0,.87-.39c-.19.76-.35,1.38-.5,2-.11.47-.25.94-.33,1.43a1.55,1.55,0,0,1-1.14,1.28l-.21.12s0,.06-.08.14l.41-.08c0,.15,0,.29,0,.56l.63-.69-.41.88c-.08.16-.08.3.08.4h0l0,0,.22-.41.12.1-.34.31,0,.06h0l-.65.73.95-.64c0,.15,0,.32,0,.45l-.85.51.77-.14c0,.45,0,.91-.05,1.37A8.72,8.72,0,0,0,30.3,62a.92.92,0,0,1,.74-.9c.34-.09.69-.2,1.1-.33a1.77,1.77,0,0,1-.13.54c-.54.7-1.1,1.38-1.67,2.1l-.26-.28c0,.25-.14.35-.35.43l-1,.41a.37.37,0,0,0-.19.27L30,63.76a14,14,0,0,0-1.5,2.69.6.6,0,0,1,.11.06c0-.07.11-.13.16-.21a8.56,8.56,0,0,1,.87-1.39,7.52,7.52,0,0,0,.75-1,.79.79,0,0,1,.67-.44,4.26,4.26,0,0,0,.7-.19s.08.06.08.08c0,1.28.06,1-1,1.37-.27.09-.54.17-.8.28s-.23.22-.11.39c.48-.48,1.14-.49,1.76-.71a4,4,0,0,1,0,1.42c0,.24-.23.24-.41.29-.63.16-1.26.32-1.89.51-.3.1-.58.25-.87.38a.88.88,0,0,1,0,.15,13.58,13.58,0,0,1,1.58-.48c.52-.11,1-.45,1.65-.19a.56.56,0,0,1,.13-.18,1.55,1.55,0,0,1,.38-.12,2,2,0,0,1-.26,1.24,25.17,25.17,0,0,0-3.36.62s0,.08,0,.12L31.63,68c0,.15.06.25.09.37s.13,0,.16-.07a1,1,0,0,1,.88-.42c.4,0,.8-.07,1.24-.11.07.52.13,1,.19,1.47l-.81.2s0,.08,0,.13c.21,0,.42,0,.63,0a.38.38,0,0,1,.27.17A.36.36,0,0,1,34.15,70Zm.46-.78c-.1-.49-.19-1-.29-1.5l.89-.1c.07.49.15,1,.23,1.52Zm1.1-.17c.1-.57.17-1,.25-1.53l.79,0a3.85,3.85,0,0,1-.31,1.61Zm.62.41c-.06.15-.11.29-.16.46C35.9,69.49,35.9,69.49,36.33,69.49Zm.85-2.12c.27.37,0,.61,0,.88C37.1,68,36.94,67.71,37.18,67.37Zm.16,1.45c.1-.51.2-.94.3-1.46C38,68.07,38,68.47,37.34,68.82Zm.91-.75c-.09-.28-.16-.45,0-.68C38.54,67.68,38.39,67.83,38.25,68.07Zm1.36-3.67c.26.37.26.37,0,.85C39.64,65,39.63,64.73,39.61,64.4ZM55.43,83.81a2,2,0,0,0-1.66-.58A4.49,4.49,0,0,1,52.15,83a1.93,1.93,0,0,1-1.34-1.66c-.08-.46-.19-.92-.23-1.39a.63.63,0,0,0-.29-.48,7,7,0,0,0-2.1-1.08c-1.07-.45-2.13-.93-3.18-1.43a9.6,9.6,0,0,1-1.08-.64,3.56,3.56,0,0,1-1-1.21,4,4,0,0,1-.44-1.95,2.75,2.75,0,0,0-1.18-2.4,17.17,17.17,0,0,1-1.49-1.34.43.43,0,0,1,0-.65,3.68,3.68,0,0,1,.44-.58,2.38,2.38,0,0,0,.7-1.64c.15-1.5.29-3,.47-4.49.15-1.25.37-2.5.51-3.75.05-.37.33-.53.51-.77h0l-.31.09a3.18,3.18,0,0,1,.26-1.38c0-.1.21-.15.32-.22h0v0c-.07-.1-.21-.22-.19-.28a5,5,0,0,1,.34-.59A1,1,0,0,1,43.41,54a3.69,3.69,0,0,1,.87-.28,12.13,12.13,0,0,1,4.29.16c.34.07.35.09.39.5-.44,0-.88-.1-1.32-.11a14.84,14.84,0,0,0-3.39.28,1,1,0,0,0-.31.16,15.26,15.26,0,0,1,3.82-.07,8.56,8.56,0,0,1,1.11.21q0,.32,0,.54c-.07,0-.1.07-.14.07a25.18,25.18,0,0,0-4.91.12,1.46,1.46,0,0,0-1.1.38h0c2.18-.49,5.39-.53,6.15,0a2.64,2.64,0,0,1-.42.11,10.17,10.17,0,0,0-1.1.08c-.3.05-.62-.14-.93.22s-.68.17-1,.27c-1,.28-2,.58-2.94.87h0a5.14,5.14,0,0,0,.8-.13,17,17,0,0,1,4.46-.87,2.49,2.49,0,0,1,.61,0c.56.06.57.08.53.73h-.39c-.17,0-.43,0-.49.09s-.3.16-.47.18l-2,.29c-.15,0-.3.06-.33.21l.13,0a.29.29,0,0,1,.13-.05c.76-.1,1.53-.21,2.29-.28a6.73,6.73,0,0,1,1,.07.62.62,0,0,0,0,.13l-.87.09a.28.28,0,0,0,0,.09c.28,0,.55.06.83.06s.49.19.51.59l-1,.06s0,.06,0,.09c.3,0,.59,0,.89.09a.77.77,0,0,1,.45.22,7.66,7.66,0,0,1,.54,1l-.88,0s0,.06,0,.09a3.83,3.83,0,0,0,.59.1.65.65,0,0,1,.64.46c.12.27.26.54.42.87l-1.14.12a10.71,10.71,0,0,1,1.29.23c.13,0,.2.28.35.49H49.93s0,.06,0,.09c.38,0,.75.09,1.13.09a.81.81,0,0,1,.59.24c.27.24.56.46.84.69.53.26,1,.58,1.56.8a9.33,9.33,0,0,0,3.6.54c.36-.08.72-.18,1.07-.28a27.06,27.06,0,0,1,4.16-.9s0,0,.05.05L59.64,65l0,.13a2.21,2.21,0,0,0,.37,0,26.5,26.5,0,0,1,7.58-1.5c.44-.05.89-.07,1.33-.15a9.15,9.15,0,0,1,3.08.29c-.44,0-.88.12-1.33.16a16.91,16.91,0,0,0-3.51.76c-1.59.48-3.17,1-4.77,1.52-.93.29-1.88.51-2.82.76l-.06,0a.06.06,0,0,1,0,0,10.19,10.19,0,0,0,1.38-.22q3-.88,6-1.82a20.05,20.05,0,0,1,4.8-.84,9.45,9.45,0,0,1,1.41,0l-.8.22a18.45,18.45,0,0,0-4.85,2,31.49,31.49,0,0,1-9.42,3.8A6.93,6.93,0,0,1,53.82,70a17.08,17.08,0,0,1-2-1.07,3,3,0,0,0-.73-.39,2.31,2.31,0,0,0,.34.42,7.16,7.16,0,0,0,5,1.8,17,17,0,0,0,4.35-.93A27.75,27.75,0,0,0,65.17,68c1-.51,2-1.08,2.94-1.61a18.7,18.7,0,0,1,5.28-1.88h.26A80.71,80.71,0,0,1,61,71.25c2.11-.65,4.07-1.65,6.12-2.5l-.81.7,0,0,4.48-2.91.08.09c-.06.1-.12.21-.19.31a12.24,12.24,0,0,1-3.91,3.53c-.19.12-.36.27-.54.41a8.18,8.18,0,0,0,1.85-1,.71.71,0,0,1,.37-.17l-.51.7.06,0,1.74-1.93.1,0a1,1,0,0,1-.05.18c-.48.73-1,1.47-1.44,2.19a1.08,1.08,0,0,1-.24.28,5.28,5.28,0,0,0-1.36,2,3,3,0,0,1-.38.55c-.52.57-1,1.15-1.59,1.68a9.9,9.9,0,0,1-1.24,1,9.72,9.72,0,0,1-4.28,1.82,5.64,5.64,0,0,1-3.53-.7c-.4-.22-.79-.47-1.2-.68A6.21,6.21,0,0,0,61.26,78a17.54,17.54,0,0,0,5.63-3.89,18.23,18.23,0,0,0,2.74-3.72,42.1,42.1,0,0,1,2.71-3.83,4.08,4.08,0,0,1,2.09-1.33c-.27.25-.45.41-.63.56l-.6.52a14.43,14.43,0,0,0-3.14,3.86c.35-.44.69-.88,1.06-1.31.56-.66,1.12-1.33,1.72-2a12.39,12.39,0,0,1,1.1-.94,5.37,5.37,0,0,1,1.81-1,.66.66,0,0,1-.15.14,11.5,11.5,0,0,0-3.67,3.77c-.73,1.12-1.38,2.31-2.16,3.4S68,74.57,67,75.71c0,0-.05.1,0,.2l3.14-3.68a1.59,1.59,0,0,1-.09.41,15.84,15.84,0,0,1-2.92,3.65c-.66.61-1.3,1.23-2,1.81a7.55,7.55,0,0,1-1.2.83,3.94,3.94,0,0,0-.75.65l.08.11c.38-.26.77-.51,1.13-.78a23.87,23.87,0,0,0,5.28-5.29,26.52,26.52,0,0,0,1.7-3.1,8.94,8.94,0,0,1,3.89-4.08,1.45,1.45,0,0,1,.6-.18l-.86.74a14.83,14.83,0,0,0-3.79,5c-.51,1-1,2.08-1.58,3.1a9.55,9.55,0,0,1-.67,1,.78.78,0,0,0,.28-.17,26.88,26.88,0,0,0,1.81-3.18A15.74,15.74,0,0,1,75,67.45c.37-.31.77-.59,1.16-.87a1.43,1.43,0,0,1,.45-.09,2.47,2.47,0,0,1-.33.41,9.56,9.56,0,0,0-2.16,2.54c-.71,1.07-1.39,2.16-2.07,3.25a7.31,7.31,0,0,0-.46.93,29.48,29.48,0,0,1-2.8,4.72A21.76,21.76,0,0,1,65.42,82c-.61.56-1.22,1.13-1.87,1.65a7,7,0,0,1-5.26,1.53A4.8,4.8,0,0,1,55.43,83.81ZM79,47.63c-.73-.71-1.46-1.4-2.19-2.1-.34-.33-.67-.65-1-1a.71.71,0,0,0-.3-.18c-.57-.19-.77-.5-.74-1.18A14.85,14.85,0,0,1,79,47.63Zm-4.56-5.19c-.05-.19-.1-.38-.18-.71a16.35,16.35,0,0,1,4.26,4.1A12.69,12.69,0,0,1,76.33,44c-.19-.21-.34-.55-.73-.41C75.18,43.24,74.59,43.05,74.43,42.44Zm6,6.31c-.61-.74-1.19-1.43-1.76-2.13l.13-.1c.52.56,1,1.11,1.55,1.68a.88.88,0,0,1,.16.32S80.43,48.63,80.39,48.75Zm-.81.58L78.22,48c-.61-.61-1.19-1.23-1.8-1.82-.17-.16-.27-.43-.59-.37,0,0-.15-.12-.19-.2-.13-.29-.25-.59-.37-.89A17.75,17.75,0,0,1,79.58,49.33Zm-.37.37a3.71,3.71,0,0,1,.4.67s0,.1-.09.23l-.4-.38c-.71-.73-1.41-1.47-2.13-2.19a3.74,3.74,0,0,1-.81-1.5A23.15,23.15,0,0,1,79.21,49.7ZM80.6,56c-.66-1.57-1.29-3-1.9-4.49C79.3,51.84,80.62,54.82,80.6,56Zm-1.12-4a1.27,1.27,0,0,1,.64,1.14Zm1.14,1.64A4.46,4.46,0,0,1,81.51,56l-.19.06C81.09,55.21,80.86,54.42,80.62,53.63Zm.19,6.56c.11-1.25.21-2.56.32-3.91A4.66,4.66,0,0,1,80.81,60.19Zm-4.3,8.22c0,.59-.43,1.16-1.56,2.11.16-.25.32-.5.49-.73Zm3.78-8.15c-.14.43-.29.86-.48,1.39C79.69,61.14,79.69,61.14,80.29,60.26ZM74.61,71.72l1.21-1.64.11.07a50.09,50.09,0,0,1-4.85,8.27.86.86,0,0,1,.11-.74A36.34,36.34,0,0,1,74.61,71.72ZM79,61.82c0-.7-.06-1.27-.09-1.84A1.46,1.46,0,0,1,79,61.82Zm-1.89,3.74c0,.28-.22.3-.4.28a3.08,3.08,0,0,0-2.14.73c-.24.17-.5.3-.75.45l-.07-.09c.55-.44,1.08-.9,1.65-1.3a2.83,2.83,0,0,1,1-.38A.62.62,0,0,1,77.09,65.56ZM71.45,76c.61-1,1.23-2.06,1.85-3.08A9,9,0,0,1,71.45,76ZM58.29,86.62c0-.24,0-.39,0-.6h.92s0,.1,0,.15Zm0,.3a6.91,6.91,0,0,1,2-.94,15.13,15.13,0,0,1-1.81,1.49Zm.4,1c0-.09,0-.21.05-.28a3.42,3.42,0,0,1,.4-.36L60.8,86l.36-.21.07.09-1.12,1A10,10,0,0,1,58.72,87.93Zm.42.95c-.11-.2-.19-.33-.25-.45a.42.42,0,0,1,0-.14c1-.9,2-1.8,3-2.68a4.13,4.13,0,0,1,.72-.39.77.77,0,0,1,.07.16Zm-.09,3.32c0-.88,0-1.59.66-2.17.9-.81,1.78-1.66,2.6-2.56,1-1.06,1.87-2.18,2.8-3.28a1.46,1.46,0,0,0,.27-.38c-1.09,1-2,2.09-3,3.11L59.3,90a.79.79,0,0,1,.25-1c.62-.52,1.19-1.1,1.83-1.6.4-.31.53-.76.82-1.12a18.87,18.87,0,0,1,3.12-2.8,12.66,12.66,0,0,0,2-1.92.78.78,0,0,1,.42-.26c-.31.42-.61.85-.92,1.26-.76,1-1.58,2-2.28,3-1.25,1.87-2.89,3.4-4.25,5.17-.3.39-.61.77-.91,1.15C59.33,91.94,59.24,92,59.05,92.2Zm27,3.12a2.7,2.7,0,0,1,.38-.78.61.61,0,0,1-.05-.12,0,0,0,0,0,0,0c-.49.7-1,1.41-1.43,2.12a5.25,5.25,0,0,1-1.42,1.32c-.07,0-.19,0-.38.06.74-1.28,1.42-2.48,2.11-3.68l-.08,0-1.28,2.13c-.2.32-.44.63-.64,1a.84.84,0,0,1-1.24.43l1.38-1.8h0a1.76,1.76,0,0,0-.3.24c-.4.45-.78.92-1.19,1.36a.64.64,0,0,1-.76.23c.23-.35.46-.68.69-1-.1.06-.22.09-.28.17-.22.27-.42.55-.64.82-.06.08-.13.2-.21.21-.77.09-1,.84-1.54,1.23s-.7.63-1.05.93a1.66,1.66,0,0,1-1.29.39,19.12,19.12,0,0,0,2.31-3.07c-.8.94-1.54,1.84-2.32,2.7a7.71,7.71,0,0,1-.78.55c-.2.18-.39.37-.68.28a5.78,5.78,0,0,1-.68-.31c.39-.46.78-.9,1.12-1.36.58-.78,1.12-1.57,1.67-2.36,0,0,0,0,0,0a1.14,1.14,0,0,0-.16.14c-.58.74-1.14,1.49-1.71,2.23A4.77,4.77,0,0,1,74,100.54a.48.48,0,0,1-.24,0c-.81,0-1.62-.06-2.51-.11a20,20,0,0,0,3.51-5,25.66,25.66,0,0,1-3.21,4.29,2.25,2.25,0,0,1-2.64.76,27.24,27.24,0,0,0,3.65-5c-.8,1-1.58,2.11-2.39,3.15A15.32,15.32,0,0,1,69,99.94c-.44.47-.62.46-1.23.23a3,3,0,0,1-1.83-1.68.65.65,0,0,1,.11-.76c.8-1.1,1.57-2.23,2.34-3.34,0,0,0-.07,0-.17a35,35,0,0,1-2.79,3.54L65,97.09,67.42,94l-.09-.08-2.58,3c-.93-.43-1.8-.83-2.65-1.25a3.94,3.94,0,0,1-1.52-1.24,23.17,23.17,0,0,0,2.83-3.56,23.23,23.23,0,0,1-3.09,3.36l-.74-.77A4,4,0,0,1,60.73,92a2.58,2.58,0,0,1,.14-.39c.29-.49.59-1,.89-1.46-.07,0-.18,0-.2,0-.27.31-.69.52-.73,1a.51.51,0,0,1-.07.17c-.43.58-.87,1.15-1.31,1.75-.33-.43-.34-.49,0-.88.56-.72,1.13-1.43,1.73-2.13,1-1.21,2.1-2.38,3.11-3.6.84-1,1.61-2.1,2.41-3.14a6,6,0,0,0,1-1.5,4.31,4.31,0,0,1,.86-1.16c-1.43,3.35-3.84,6-6.13,8.75a4.78,4.78,0,0,0,.54-.47,48.81,48.81,0,0,0,3.92-4.82c.4-.59.76-1.2,1.14-1.79h0l0,0c.24-.53.49-1,.73-1.58a19,19,0,0,1,2.19-3.43.32.32,0,0,1,.25-.13c-.29.61-.56,1.23-.86,1.83a10.14,10.14,0,0,1-.58,1c-.47.72-1,1.43-1.45,2.14a.76.76,0,0,1-.28.16v0h0c.24.19.09.38,0,.56-.6.89-1.17,1.81-1.81,2.66-.8,1-1.67,2-2.5,3.07l-1.6,2a7.79,7.79,0,0,0,.72-.68c.74-.83,1.46-1.67,2.18-2.51.27-.32.55-.65.81-1a4.77,4.77,0,0,1,1.19-1.18,3.8,3.8,0,0,0,.48-.42c-.11.06-.23.11-.34.18L67,84.94c.17-.24.34-.48.53-.72a23.62,23.62,0,0,0,2.72-4.32,11.66,11.66,0,0,1,.87-1.25c.69-1,1.39-2,2-3s1.34-2.14,1.94-3.25c.51-.93.93-1.9,1.38-2.86a1.7,1.7,0,0,1,.86-1c-.06.46-.07.86-.16,1.25a16.21,16.21,0,0,1-1.45,3.94,35.08,35.08,0,0,1-2.78,4.88c-.84,1.14-1.76,2.22-2.67,3.31-.5.59-1.05,1.13-1.57,1.7.57-.51,1.19-1,1.72-1.53a29.07,29.07,0,0,0,4.24-5.8,37.23,37.23,0,0,0,2.45-5.19,4.2,4.2,0,0,1,.42-1,4.68,4.68,0,0,1,0,.53,16.5,16.5,0,0,1-1.77,6.24,37.48,37.48,0,0,1-3.88,5.84c-1.36,1.7-2.81,3.33-4.22,5a2.63,2.63,0,0,0-.46.71c.53-.57,1.06-1.12,1.58-1.69s1.09-1.2,1.61-1.82a56.83,56.83,0,0,0,3.93-5.21A31,31,0,0,0,76.42,76a14.19,14.19,0,0,0,1.14-3.72,20.94,20.94,0,0,0,.27-4A.37.37,0,0,1,78,68c.13.77.28,1.53.39,2.31a11.19,11.19,0,0,1-1.09,6.52c-.72,1.53-1.55,3-2.36,4.49-.62,1.14-1.26,2.28-1.9,3.41-.24.44-.49.89-.69,1.35.63-1,1.29-2,1.89-3.11a58.15,58.15,0,0,0,3.34-6.16,12.59,12.59,0,0,0,1.19-5.5,1.32,1.32,0,0,1,.06-.48,8.46,8.46,0,0,1,.68,3.1c0,.66,0,1.34-.1,2a5.55,5.55,0,0,1-.24,1.13,33.38,33.38,0,0,1-3.31,6.73q-1.53,2.4-3,4.8c-.09.13-.23.26,0,.46.17-.24.35-.46.5-.71,1.26-2,2.53-4,3.75-5.94a26.31,26.31,0,0,0,2.65-5.9,12,12,0,0,0,.45-3.62,3.4,3.4,0,0,0-.17-.83c-.3-1.15-.62-2.28-.93-3.42L79,68.31c.26,0,.33.23.44.37A12.57,12.57,0,0,1,81.13,72a15.77,15.77,0,0,1,1,5.07,15.55,15.55,0,0,1-.92,5.14A50.2,50.2,0,0,1,79,87.66a.2.2,0,0,0,0,.2c.54-1.15,1.1-2.29,1.61-3.45.3-.67.5-1.38.75-2.06A1.92,1.92,0,0,1,81.5,82a1.54,1.54,0,0,0,.22-.42c.28-1.13.58-2.24.8-3.37a16.28,16.28,0,0,0,.41-4.06,9,9,0,0,0-2.28-5.53c-.08-.1-.16-.19-.23-.29s-.06-.1,0-.23l.7.65a13.47,13.47,0,0,1,3.14,5A19.94,19.94,0,0,1,85.53,79a8.13,8.13,0,0,1-.06,1.39c0,.11,0,.16.14.12a10.38,10.38,0,0,1-.78,4.12,42.67,42.67,0,0,1-2.46,5,.76.76,0,0,0-.05.26c.13-.09.23-.13.26-.19A45.56,45.56,0,0,0,85,85.12a11.69,11.69,0,0,0,1-5.72,2,2,0,0,1,0-.24,4.29,4.29,0,0,0,0-1.24,6,6,0,0,1-.35-1c-.09-.42-.2-.83-.32-1.24s-.24-.82-.37-1.23A18.24,18.24,0,0,0,82,69a.28.28,0,0,1-.06-.27,2.51,2.51,0,0,1,.48.36c.83,1,1.66,2,2.48,3.07A5.71,5.71,0,0,1,86,75.79c0,.22,0,.44,0,.67,0,0,0,0,0,.05A5.55,5.55,0,0,0,86,73.77a13,13,0,0,0-1.28-2.55,10.56,10.56,0,0,1,.68.82,15.43,15.43,0,0,1,2.44,6.08c.08.39,0,.83.34,1.15a14.33,14.33,0,0,0-1-4.28c-.18-.48-.34-1-.51-1.45l0,0v0l-.77-1.23a1.77,1.77,0,0,1,.77,1.23.08.08,0,0,0,0,0s0,0,0,0,.17.21.26.3l.33.41a3.61,3.61,0,0,0-.62-1.59,9.87,9.87,0,0,0-2.75-3.24c-.15-.12-.35-.19-.52-.3l-.48-.34.08-.11.93.59a11.79,11.79,0,0,1,4,4.47c.51,1,1,1.92,1.48,2.89a1.3,1.3,0,0,0,0-.53c-.49-1-1-2-1.5-3a.67.67,0,0,1-.06-.35A11.29,11.29,0,0,1,89,74.48c-.07-.29-.14-.57-.22-.92a1.06,1.06,0,0,1,.47,1c0,.06-.11.11-.18.16a3,3,0,0,0,.55,1.19,9,9,0,0,1,.87,1.47,1.15,1.15,0,0,1-.07,1.27,2.79,2.79,0,0,0-.14,2.74c.23.58.45,1.17.69,1.76a1.74,1.74,0,0,1,0,1,8.17,8.17,0,0,1-.82,2.16A5.17,5.17,0,0,0,89.69,88a13.47,13.47,0,0,1-1.21,4.4c-.11.22-.21.44-.31.66A3.79,3.79,0,0,1,86,95.32ZM79.58,65.19c.18-.19.36-.26.55-.16v.15Zm-.43,2.13A19.3,19.3,0,0,1,81.93,71a8.65,8.65,0,0,1,.82,4,9.11,9.11,0,0,1-.4,2.88c0-.54,0-1.08-.06-1.62s-.12-1.09-.22-1.63-.22-1.07-.37-1.6-.32-1-.51-1.5A13.62,13.62,0,0,0,80.54,70c-.25-.48-.57-.93-.85-1.41a3.77,3.77,0,0,1-.79-1.38C79,67.23,79.09,67.25,79.15,67.32ZM80,63.43a.81.81,0,0,1,.68-.23C80.45,63.47,80.2,63.42,80,63.43Zm2.19,1.3c.37-.25.66-.07,1,0C82.71,64.91,82.7,64.91,82.16,64.73Zm4.66,6.65c.35.2.68.41.71.88Zm4.51,5.36A2.79,2.79,0,0,1,90.56,75,2.22,2.22,0,0,1,91.33,76.74ZM91,74.42l.11,0a33.85,33.85,0,0,1,2.39,5.1.42.42,0,0,0-.14.06Q92.16,77,91,74.42Zm.5,4.48a16.5,16.5,0,0,1,.89,3.59l-.14.06c-.11-.13-.28-.26-.32-.4-.19-1-.36-2-.53-2.94C91.36,79.16,91.41,79.09,91.47,78.9ZM92.24,89c0-.14,0-.29,0-.43a.25.25,0,0,0,0-.07.06.06,0,0,1,0,0,5.15,5.15,0,0,1-.3-3.42,2.19,2.19,0,0,1,.15.34c.07.94.14,1.89.2,2.83a1,1,0,0,1,0,.25.06.06,0,0,0,0,0v.07c.06.14.12.27.17.41Zm.5,1.16c-.14-1.06-.28-2.11-.42-3.27a13.2,13.2,0,0,1,1,4C93,90.68,92.78,90.49,92.74,90.16ZM104,89.89c-.43.46-.82,1-1.24,1.43a4.65,4.65,0,0,1-3.39,1.44,9.61,9.61,0,0,1-3.15-.36c-.6-.18-.59-.22-.65-.84-.12-1.29-.29-2.59-.45-3.88,0-.38-.16-.76-.24-1.14h0a2.81,2.81,0,0,0-.26-1.48A1.26,1.26,0,0,0,94.36,84L94.6,85h0a2.3,2.3,0,0,0,.26,1.48,2,2,0,0,0,0,.41c.17,1.26.35,2.53.5,3.8a9.61,9.61,0,0,1,0,1.2c-.78-.16-.77-.16-.89-.87-.09-.54-.23-1.08-.35-1.63h0c0,.31,0,.62,0,.93s.08.8.13,1.2a.43.43,0,0,1-.5-.39c-.27-1.27-.56-2.54-.81-3.81-.16-.8-.28-1.6-.4-2.4a2,2,0,0,1,0-.72,7.54,7.54,0,0,1,1,2.79A21.42,21.42,0,0,0,94,89.24a.69.69,0,0,0,.1.19h0s0,0,0,0h0c0-.25,0-.52,0-.77l-.18-1.13.11-.05.48,1.17.11,0a1.35,1.35,0,0,0,0-.29c-.21-.6-.44-1.19-.64-1.79a10.52,10.52,0,0,1-.34-1.22c-.18-1-.32-2-.5-3,0-.18.11-.52-.32-.47,0,0,0-.19-.08-.28-.19-.77-.4-1.54-.59-2.31a2.65,2.65,0,0,1-.14-1.25,1.65,1.65,0,0,0-.16-.7c-.07-.23-.17-.45-.25-.67l.1-.06a1.23,1.23,0,0,1,.23.28c.29.71.56,1.44.86,2.15a3,3,0,0,0,.31.51.92.92,0,0,0,.29.84v-.34c.37.22.28.62.38.94h0l-.28-.27c-.14.31.05.51.24.7,0-.14,0-.28,0-.43,0,.26,0,.52.08.78.07.6.14,1.18.22,1.77a1.41,1.41,0,0,0,.2.64,2.68,2.68,0,0,1,0-.49s.13-.06.2-.1l-.15-1c0-.27-.09-.54-.15-.9a1.86,1.86,0,0,1,.48.86c0,.16,0,.4.24.46-.16-.56-.32-1.12-.47-1.69-.25-1-.5-2-.74-3a12.25,12.25,0,0,0-1.77-3.87c-.35-.54-.86-1-1.17-1.55a7.57,7.57,0,0,0-1.44-1.64,4.89,4.89,0,0,0-.91-.72,14.43,14.43,0,0,1-1.92-1.48,9.6,9.6,0,0,0-3-2.06L83.11,67a1.31,1.31,0,0,1,1,.13,23.07,23.07,0,0,1,4.75,3.39,25.26,25.26,0,0,1,3,3.33,11.56,11.56,0,0,1,1.76,3.92c.23.91.51,1.81.76,2.7a.24.24,0,0,0,.08.06c-.12-.62-.22-1.26-.37-1.88a15.81,15.81,0,0,0-1.52-4.24,15.82,15.82,0,0,0-2-2.55A21.22,21.22,0,0,0,86,67.91l-.57-.41a4,4,0,0,1,1.38.54,25.51,25.51,0,0,1,5.76,4.69,15,15,0,0,1,3.23,5.34c.52,1.6,1,3.22,1.48,4.84a1.31,1.31,0,0,0,0-.28,37.42,37.42,0,0,0-1.47-5.22,14.57,14.57,0,0,0-1.93-3.47,19,19,0,0,0-3.94-4c-1.13-.83-2.32-1.58-3.48-2.37a.37.37,0,0,1-.18-.24,1,1,0,0,0,.41,0c.12-.06.2-.21.31-.34a9.43,9.43,0,0,1,2.1,1.44,33.52,33.52,0,0,1,4.79,5c.95,1.25,1.84,2.53,2.71,3.83a15.82,15.82,0,0,1,1,1.88c.16-.16.08-.33,0-.49-.53-1.07-1.08-2.13-1.6-3.21s-1-2.22-1.54-3.32c-.22-.46-.46-.91-.76-1.49l.42.28a36.2,36.2,0,0,1,5.47,5.39,13.24,13.24,0,0,1,1.72,2.87c.57,1.17,1.14,2.34,1.63,3.54.41,1,.71,2,1,3.06a9.84,9.84,0,0,1,.46,3A1.4,1.4,0,0,1,104,89.89ZM88.48,58.4l.3-.24,2.27-1.72c.08-.06.18-.11.26-.16l0,0,.05,0,.28-.37.1.11-.38.26,0,0,0,0a6.2,6.2,0,0,1-.58.77A4.35,4.35,0,0,1,88.48,58.4Zm.6,1.8c-.16.15-.32.33-.57.17Zm-3.59,2.6a1,1,0,0,1,.81-.2.66.66,0,0,0,0,.14Zm7.32,4.7-8.08-3A14.21,14.21,0,0,1,92.81,67.5ZM87.67,67c.14,0,.29.07.43.12a18.2,18.2,0,0,1,4,2.3,4.21,4.21,0,0,1,.71.75,29.85,29.85,0,0,1,2.57,4.77C94.13,73.47,93,72,91.72,70.67A30.15,30.15,0,0,0,87.67,67Zm21.61,20.17c-.7.22-1.41.43-2.12.6a4.87,4.87,0,0,0-2.17,1,1.47,1.47,0,0,1-.28.16c0-.06-.09-.11-.09-.16a19.77,19.77,0,0,0-2-7.38c-.44-1-.87-1.93-1.32-2.89A21.94,21.94,0,0,0,100,75.93a32.41,32.41,0,0,0-2.09-2.62,60.44,60.44,0,0,0-4.19-4.43s-.1-.06-.22,0l3.75,4-.08.09a3.5,3.5,0,0,1-.3-.24L93,69.51c-.45-.38-.92-.74-1.38-1.11a14.77,14.77,0,0,0-3-1.82l-1.71-.8s0-.1,0-.15c.32.1.65.19,1,.31,1.47.53,3,1,4.41,1.61a10.93,10.93,0,0,1,3.5,2.19,48.89,48.89,0,0,1,3.61,3.44,1.27,1.27,0,0,0,.5.34c-.18-.22-.35-.44-.54-.64-.72-.75-1.46-1.48-2.18-2.23a2.12,2.12,0,0,1-.26-.38,2,2,0,0,0-.34-.47c-.41-.33-.84-.64-1.27-.94-1-.71-2-1.4-3-2.09-.32-.22-.67-.4-1-.6a.29.29,0,0,1-.15-.26c.67.26,1.36.48,2,.78a30.66,30.66,0,0,1,6.51,4.07c1.48,1.22,2.92,2.47,4.35,3.75A13.9,13.9,0,0,1,105.31,76a.63.63,0,0,1,.08.78.93.93,0,0,0-.13.53c.07.83.18,1.66.27,2.49,0,.16.1.34.06.47a1.08,1.08,0,0,0,.36,1.16,1.91,1.91,0,0,1,.54,1,.86.86,0,0,0,.59.69.87.87,0,0,1,.6.56.32.32,0,0,0,.15.19,1.24,1.24,0,0,1,.7,1,.74.74,0,0,0,.61.54.65.65,0,0,1,.5.45,6.43,6.43,0,0,0,.61,1C109.94,86.92,109.61,87.07,109.28,87.17ZM111.43,84a.29.29,0,0,1-.25.09c-.07,0-.12-.14-.16-.23a.54.54,0,0,1,0-.18,4,4,0,0,0,0-.6,5.34,5.34,0,0,0-.14-.59.59.59,0,0,1,.63.45A1.27,1.27,0,0,1,111.43,84Zm-.35,1.36c-.44-.08-.45-.08-.68-.87.25,0,.44,0,.54.12A.56.56,0,0,1,111.08,85.39Zm-.51-1.59c-.07.38-.26.46-.61.28-.16-.08-.31-.18-.51-.29.08-.23.16-.45.24-.7l.92-.12A5.7,5.7,0,0,1,110.57,83.8Zm-.85.91-.5.3a1,1,0,0,1-.42-.93A1.22,1.22,0,0,1,109.72,84.71Zm0-2.07a.75.75,0,0,1-.37-1c.12-.27.74-.39,1.14-.22s.3.29.13.67S110.06,82.78,109.74,82.64Zm-.57,0a.69.69,0,1,1-1.25.54c-.07-.21-.1-.43-.16-.67l1.11-.27A3.21,3.21,0,0,1,109.17,82.69Zm-.32-1a1,1,0,0,1-1.15.47c-.27-.08-.36-.24-.31-.55a.63.63,0,0,0,0-.26,1.65,1.65,0,0,1-.16-.44c-.05-.56.33-.81.84-.56a2.17,2.17,0,0,1,1,.93C109,81.39,108.92,81.52,108.85,81.64Zm-1.55,1-.12.06c-.11-.14-.21-.28-.33-.45C107.28,82.19,107.28,82.19,107.3,82.66Zm1.37-3.73a.75.75,0,0,1-1.18.11,6.69,6.69,0,0,1-.58-1.05c-.14-.29,0-.5.3-.63a1.26,1.26,0,0,1,.91-.1A1.45,1.45,0,0,1,108.67,78.93Zm-2-.52c.2.37.43.73.66,1.12l-.33.26a.69.69,0,0,1-1,0,1.36,1.36,0,0,1-.07-1.39C106.12,78,106.45,78,106.65,78.41Zm-.06,2.89c-.49-.41-.49-.41-.45-1l.51,0C106.63,80.66,106.61,80.92,106.59,81.3Zm-.27-3.59-.52.08c-.27-.58-.21-.89.23-1.15s.9-.27,1.18.26C106.92,77.16,106.66,77.39,106.32,77.71Zm4.12,8.55a1,1,0,0,1-.34-1.11c.22.27.45.52.64.79.06.08,0,.22,0,.32S110.53,86.31,110.44,86.26Zm1-1.85a1.26,1.26,0,0,1,.79,1.17c0,.52-.51.53-.91.79,0-.22-.07-.4,0-.49A1.75,1.75,0,0,0,111.49,84.41Zm.3,3.25-.1,0c-.27.22-.45.2-.69-.08a1,1,0,0,1-.22-.13.21.21,0,0,1-.1-.19.26.26,0,0,1,.16-.36,1,1,0,0,1,1.09.29A.29.29,0,0,1,111.79,87.66Zm-2-29.58a1.59,1.59,0,0,0,.45.15,1.75,1.75,0,0,1,1.61,1,8.05,8.05,0,0,1,.61,1.66,3.27,3.27,0,0,0,2,2.35,2,2,0,0,1,1.21,2.26,5.41,5.41,0,0,1-.3,1,1.71,1.71,0,0,0,.6,2.21,1.93,1.93,0,0,1,.74,1.79,4.36,4.36,0,0,1-.18,1.08c-.35,1-.75,1.93-1.13,2.9a12.49,12.49,0,0,0-1,2.63,9.42,9.42,0,0,0,.17,3.09,12.31,12.31,0,0,1,.25,2,2.19,2.19,0,0,1-.27,1.1,11.66,11.66,0,0,1-1.91,2.23,2.55,2.55,0,0,0-.3-.73,1.72,1.72,0,0,1-.43-1.59c.06-.54-.36-.82-.81-1.06,0-.38.21-.85-.41-1a2.07,2.07,0,0,0,.2-1.69,1.31,1.31,0,0,0-1.48-.9c-.08,0-.13.15-.22.25,1.11.24,1.48.65,1.36,1.46-.09.61-.33.76-1,.69-.25-.43-.49-.82-.78-1.31,0-.14.12-.39.18-.64a1.8,1.8,0,0,0-.39-1.87c-.07-.06-.15-.17-.24-.17-.58,0-.85-.58-1.29-.83a.49.49,0,0,1-.19-.15,6.57,6.57,0,0,0-1.69-1.91c-1.29-1.27-2.57-2.54-3.85-3.83A15.51,15.51,0,0,0,98.57,68c-1.06-.65-2.09-1.35-3.17-2A26.79,26.79,0,0,0,93,65c-.61-.26-1.24-.5-1.83-.8a30.27,30.27,0,0,1,9.17,3.64.92.92,0,0,0-.22-.22,27.54,27.54,0,0,0-8.74-3.65c-1.12-.24-2.24-.42-3.36-.63l-.71-.17h-.57a.51.51,0,0,0,0-.13l.44.14h.11c.5,0,1,0,1.49,0a27.69,27.69,0,0,1,5.26,1,12.63,12.63,0,0,1,2.59.84c.17.09.36.21.55.29a.61.61,0,0,0,.28.09,5.26,5.26,0,0,1,2.56.75c.24.09.47.24.72.31A4.23,4.23,0,0,1,102.62,68a11.74,11.74,0,0,0,.89,1c-.21-.62-.76-1-1.08-1.66l.74.13a1,1,0,0,0,0-.1c-.23-.11-.45-.22-.68-.31a2.28,2.28,0,0,1-1.18-.85c-.38-.68-1.07-1-1.63-1.44s-1.18-.86-1.77-1.29a.63.63,0,0,1-.24-.3l1.23.24c.51.12,1,.27,1.54.38a11.53,11.53,0,0,1,3.43,1.68c.78.44,1.53.94,2.3,1.39a1.76,1.76,0,0,0,.69.23l-4-2.5,0-.11,1.28.31c.47.13.93.27,1.4.42a11.52,11.52,0,0,0,1.34.39,11.06,11.06,0,0,0-1-.49c-1.51-.5-3-1-4.53-1.47-.57-.18-1.15-.41-1.71-.63a19.22,19.22,0,0,0-4.82-1.3.75.75,0,0,1-.41-.14l.76-.14-1.44-.09a9.87,9.87,0,0,1-1.21-.1,8.23,8.23,0,0,1,4.31.16l-.37.11c.55.07,1.09.17,1.63.22a29.59,29.59,0,0,1,5.6,1.14c1.32.38,2.64.79,3.94,1.24l-.38-.28.47-.06a.41.41,0,0,0,0-.11l-8.66-2.37.62-.25c-.54,0-1.08,0-1.61-.09-1.63-.19-3.26-.4-4.91-.7.73-.13,1.45-.26,2.18-.36a6.62,6.62,0,0,1,2.43,0c.11,0,.24,0,.36-.06l-.28-.14.43-.08a.17.17,0,0,0,0-.07h-3.9s0-.07,0-.1l.74-.21a.83.83,0,0,1,0-.15c-1.57.31-3.12.77-4.73.94.68-.33,1.37-.65,2.05-1h0a4,4,0,0,0-.48.08,4.56,4.56,0,0,1-.64.14,1.49,1.49,0,0,1,1.23-.46l-.11.24h0a7.25,7.25,0,0,1,.9-.29,6.1,6.1,0,0,1,.88-.09c.17-.17.27-.36.41-.39.75-.17,1.51-.32,2.27-.44s1.42-.21,2.13-.34a9.71,9.71,0,0,0-3.27.2,10.68,10.68,0,0,0-3.23.74.87.87,0,0,1,.73-.55c.68-.12,1.32-.43,2-.59a7.59,7.59,0,0,1,3.18-.33,2.49,2.49,0,0,0,1.48-.31c.59-.25,1.19-.51,1.77-.81a1.5,1.5,0,0,1,1.78.37,10.53,10.53,0,0,0,1.79,1.47,1.71,1.71,0,0,0,1.44.2A4,4,0,0,1,109.8,58.08ZM95.69,62.76a4.34,4.34,0,0,1,1.67.7c.65.41,1.27.84,1.9,1.26l-.07.16a46.06,46.06,0,0,0-7.89-2.22c.2-.09.26-.14.32-.14A25.2,25.2,0,0,1,95.69,62.76ZM95.55,62a5.24,5.24,0,0,1,2,.6l-2-.44A.78.78,0,0,1,95.55,62Zm-3.48,0a9.71,9.71,0,0,1,2.79.33A9.93,9.93,0,0,1,92.07,62.07Zm.29-2a1.49,1.49,0,0,1,0-.21l2-.25a.77.77,0,0,0,0,.15ZM91,62.86a35,35,0,0,1,6,1.44c.91.3,1.82.58,2.71.91a1.79,1.79,0,0,1,.9.86c-3.53-1.71-7.35-2.37-11.1-3.35C90,62.76,90.51,62.79,91,62.86Zm6-6.23-3.64.88A3.18,3.18,0,0,1,97,56.63Zm-1.4-1.92.55-.38.07.11-.55.36Zm1.52-.37a11.06,11.06,0,0,1,1.47-.71,7.55,7.55,0,0,1-1.52,1.12l-.15-.08C97,54.56,97,54.4,97.13,54.34Zm.73-1c.36-.48.93-.64,1.38-1l.66-.52a2,2,0,0,0,.43-.14l2-1.13a3.27,3.27,0,0,0,.37-.28,1.5,1.5,0,0,0,.37-.05c.21-.08.41-.17.63-.23a20.59,20.59,0,0,1-5.6,3.59Zm-.52,1.73-.49.3-.07-.09.49-.35ZM94,55.51l-.09-.13,1.21-1A2.28,2.28,0,0,1,94,55.51Zm-.71,2.88c.14,0,.27,0,.41-.06s0,.06,0,.09l-.41,0A.19.19,0,0,0,93.25,58.39Zm6.22-3.49.07.15-.81.43C98.85,55.09,99.16,55,99.47,54.9Zm2-.68a7.29,7.29,0,0,1-1.71,1.08C99.8,54.71,100.21,54.55,101.49,54.22Zm2.61-.06.36-.26.08.12-.36.23A.73.73,0,0,1,104.1,54.16Zm1.21,2.26c.24-.23.33-.11.49.15Zm2.15-.56.36-.22.06.09-.35.24Zm2.37-1,.09.11-1.26,1C108.8,55.43,109.15,55.14,109.83,54.86Zm1-2.55a.9.9,0,0,1,0,1.24,8.8,8.8,0,0,1-2.19,1.53c-.23.13-.29.08-.39-.22-.36.27-.69.56-1.07.79A1.66,1.66,0,0,1,106,56a.61.61,0,0,1-.07-.14c.44-.29.86-.6,1.31-.87s.67-.38.8-.79a.46.46,0,0,1,.17-.24Zm-2.09-2.24.35.36-3.5,2.24s.05.08.07.13c.17-.09.34-.17.51-.27.92-.55,1.84-1.11,2.77-1.65.43-.25.5-.22.78.2-.62.7-1.53,1-2.17,1.72l2.5-1.49.64.72c-1,.79-2.1,1.29-3.08,2l-.41.18a.25.25,0,0,1,0,.07l.45-.07a10,10,0,0,1-2.79,1.71,1.52,1.52,0,0,1-.78.15l-.06-.14c.3-.2.61-.4.9-.62s.56-.46.84-.69l.85-.74a.39.39,0,0,0-.08-.1l-.64.43-.68.63-.08-.08c.11-.13.21-.27.32-.41l-.54.15a15.74,15.74,0,0,1,1.75-1.72c-.48,0-.68.35-1,.51a9,9,0,0,0-.9.63c0-.24.06-.38.08-.52-.68.21-1,1-1.92.87ZM108,48.71a22.52,22.52,0,0,1-3.55,2.23.56.56,0,0,0-.09.13l.39,0c-.57.46-1.09.87-1.6,1.3-.26.22-.5.47-.75.7l0,0h0l.93-.51a4.56,4.56,0,0,0,1.09-.92,6.57,6.57,0,0,1,2.47-1.61,14.49,14.49,0,0,0,1.42-.65l.22.35a.69.69,0,0,1-.06.14c-.67.5-1.32,1-2,1.49-.39.28-.82.51-1.23.77-.19.12-.36.26-.54.39a.54.54,0,0,0-.56.31l.51-.17a.94.94,0,0,1-.72.39h0c-.07.1-.13.21-.19.31a1.22,1.22,0,0,1-.91.6l0,0s0,0,0,0c-.09.26-.32.33-.65.4a.8.8,0,0,1,.65-.4,0,0,0,0,1,0,0h0l.41-.44-.43.14c.14-.17.27-.4.53-.2l0,0,0,0c.07-.28.21-.45.52-.42h0l.21-.22-.87.17a2.62,2.62,0,0,1-.28,0c-.31.21-.62.43-.93.63-.07.05-.17,0-.37.08l.71-.65h0l-.62.39c-.31.2-.54.55-1,.63a2.12,2.12,0,0,1,.24-.38l1.53-1.39a1,1,0,0,0,.31-.43c-.48.32-1,.64-1.44.95-.19.12-.35.35-.65.24-.06,0-.2.1-.29.17l-1.85,1.49a1.23,1.23,0,0,1-.87.32c.5-1,1.44-1.38,2.16-2.06l.19.19,4.17-3.29A5.22,5.22,0,0,1,106,49c.56-.18,1.11-.4,1.66-.6l.46-.13C108.24,48.51,108.16,48.6,108,48.71Zm-.78.82.64-.43C107.7,49.42,107.7,49.42,107.21,49.53Zm1-1.53-2.15.81c0-.05,0-.1,0-.14a4.91,4.91,0,0,1,.47-.36c.54-.36,1.09-.71,1.73-1.12C108.16,47.51,108.16,47.74,108.16,48Zm-.29-1.67c-1.14.64-2.27,1.27-3.4,1.92-.21.12-.4.26-.6.4a3.82,3.82,0,0,0,.6-.19c.86-.47,1.7-1,2.56-1.44.4-.22.82-.4,1.28-.62a.58.58,0,0,1-.31.6c-1,.7-2,1.42-3,2.12a7.19,7.19,0,0,1-.88.43l-1.49.76a.49.49,0,0,0-.21,0c-.56.31-1.13.61-1.68.94a9.65,9.65,0,0,0-.87.6h0a2.22,2.22,0,0,0-.52.23,12.81,12.81,0,0,0-1.68,1.06,2.39,2.39,0,0,1-.53.31c2.29-2.86,8.92-7.78,11.23-8.41C108.55,45.78,108.46,46,107.87,46.33ZM97.68,34.67a8.71,8.71,0,0,0,1.19-.48,1.21,1.21,0,0,1,1.22,0,4.29,4.29,0,0,1,1.45,1.67,25.34,25.34,0,0,0-5.93,6.68l.1.08,1.12-1.56a22,22,0,0,1,3-3.41l1.64-1.46a14.42,14.42,0,0,0,1.47.16,1.71,1.71,0,0,1,1.69,1.39c0,.24.06.49.09.72l-2.12,2.26.09.08,2.15-2.06a3.35,3.35,0,0,0,1.58,1.39,2.29,2.29,0,0,1,1.15,1.31,1,1,0,0,1,.13.28,4.84,4.84,0,0,1,.61,2l-3.1,1.62c.43.1.7-.19,1-.34l1-.49c.35-.16.7-.3,1.06-.45.19.46.19.52-.11.65A22.74,22.74,0,0,0,104.47,47c-1.17.81-2.31,1.67-3.46,2.51a.59.59,0,0,1-.19.11,28.29,28.29,0,0,0,1.92-2.84,34.91,34.91,0,0,1-7,7.42,15.8,15.8,0,0,1,2.06-2.41c-.28-.1-.38.17-.53.3-.85.76-1.68,1.54-2.52,2.31a.84.84,0,0,1-.42.21l2.08-2.48-.08-.07a4.11,4.11,0,0,0-.31.29c-.92,1-1.82,2.07-2.76,3.09a9.07,9.07,0,0,1-1.14,1,1.22,1.22,0,0,1-.66.23c.72-1.09,1.45-2.18,2.18-3.27v0a.14.14,0,0,0,0-.06l0,0a1,1,0,0,1,.06-.38,10.33,10.33,0,0,1,.91-1.48s0,.1,0,.15c.3-.59.59-1.18.93-1.74s.82-1.19,1.23-1.78l-.1-.07c-.55.8-1.12,1.59-1.65,2.4-.91,1.42-1.77,2.87-2.71,4.27a6.76,6.76,0,0,1-2.12,2l.3-.47a11,11,0,0,1-4,2.74,1,1,0,0,1,.1-.21c1.06-1,2.14-2.06,3.19-3.11A29.46,29.46,0,0,0,93,52.17c.11-.14.21-.3.31-.45a2.43,2.43,0,0,0-.45.39,28.21,28.21,0,0,1-3.07,3.21,3.26,3.26,0,0,1-.78.64c.31-.45.59-.92.93-1.35a17.9,17.9,0,0,0,1.76-3.14c.59-1.13,1.12-2.31,1.76-3.42A12.79,12.79,0,0,1,98.74,43l.34-.19a.61.61,0,0,0,0-.12c-.27.11-.55.2-.81.32a11.2,11.2,0,0,0-4.4,4,26.65,26.65,0,0,0-1.44,2.48c-.56,1.07-1.07,2.16-1.61,3.23a18.14,18.14,0,0,1-2.46,3.55c-.54.64-1.14,1.22-1.71,1.83a.44.44,0,0,1-.29.13c.22-.3.47-.59.67-.91.59-1,1.2-1.94,1.71-2.95s1-2,1.36-3.07.83-2.3,1.26-3.44.94-2.43,1.44-3.63c.42-1,.87-2,1.26-3-.56,1.2-1.16,2.38-1.67,3.59-.65,1.56-1.22,3.16-1.84,4.72s-1.17,2.83-1.75,4.24a1.34,1.34,0,0,1-.34.52c.42-1.11.84-2.23,1.27-3.33l-.1-.07a1.13,1.13,0,0,0-.17.23c-.5,1.16-.93,2.35-1.48,3.48a20.29,20.29,0,0,1-2.11,3.71,9.88,9.88,0,0,1-1.19,1.14.61.61,0,0,1-.4.11l1.08-1.27a9.85,9.85,0,0,0,1.54-2.83,37.07,37.07,0,0,0,1.36-4.62c.26-1.11.48-2.23.76-3.33a16.84,16.84,0,0,1,1.84-4.61c.52-.84,1.19-1.53,1.74-2.34l-.76.67-.08,0c.12-.24.21-.49.34-.72a17,17,0,0,1,2.48-3.62c.41-.4.83-.78,1.25-1.16A4.57,4.57,0,0,1,97.68,34.67ZM80,35.05c.56-.46,1.12-.93,1.71-1.37a4.09,4.09,0,0,1,2.48-.92,2,2,0,0,1-.21.31,7.83,7.83,0,0,0-2.23,3.72,20.81,20.81,0,0,0-.7,3,1.34,1.34,0,0,0,0,.28c.23-.91.45-1.84.7-2.75a7.52,7.52,0,0,1,1.15-2.68A18,18,0,0,1,84.41,33c.31-.31.64-.08,1,0a17.58,17.58,0,0,0-3.19,7.06c.28-.82.57-1.63.85-2.45a15.13,15.13,0,0,1,2.43-4.35c.24-.32.52-.23.89-.2-.45.86-.9,1.66-1.3,2.49a11,11,0,0,0-.93,2.73,1.93,1.93,0,0,0,.24-.32l1.44-3.3a2.59,2.59,0,0,1,.17-.33,5,5,0,0,1,.84-1.24,4.67,4.67,0,0,1,1.4-.56.94.94,0,0,1,.37,0,4.22,4.22,0,0,1,1.68.45c-.43.6-.84,1.17-1.23,1.75a18.4,18.4,0,0,0-2.25,4.66,10.41,10.41,0,0,0-.51,3c.07-.34.16-.67.21-1A16.7,16.7,0,0,1,88,37a16.17,16.17,0,0,1,2.35-3.62l.27-.31,1.16.75c-.42.39-.8.72-1.14,1.08a14.56,14.56,0,0,0-2.37,3.68c-.52,1.08-1,2.2-1.43,3.29a9.76,9.76,0,0,1-.51.89h0c.28-.09.39-.33.5-.58.34-.83.64-1.68,1-2.47a19.86,19.86,0,0,1,2.5-4.18,12.83,12.83,0,0,1,1.37-1.29c.3-.26.34-.21.74.09a11.08,11.08,0,0,0-2.17,2.42,19.37,19.37,0,0,1,2.49-2.28,9.89,9.89,0,0,0,3.2.57L94.94,36A13.8,13.8,0,0,0,92,40.1c-.49.94-1,1.87-1.52,2.79a13.55,13.55,0,0,0-1.19,2.93c-.54,1.88-1,3.77-1.47,5.67a25.63,25.63,0,0,1-1.77,5.19,4.74,4.74,0,0,1-1.27,1.78c.08-.16.14-.33.23-.48a9.83,9.83,0,0,0,1.22-4.26,21.25,21.25,0,0,0,0-4.51,9.14,9.14,0,0,1,.59-4.07c.32-1,.75-1.85,1.13-2.77,0-.12.09-.25.14-.41-.35.17-.6.55-1,1.49-.23.54-.46,1.09-.65,1.65s-.31,1.14-.45,1.72l-.13,0c0-.17,0-.35.07-.52a14.69,14.69,0,0,1,.47-2.87c.08-.24,0-.41-.11-.61h0v-.4c-.11.76-.24,1.52-.33,2.29-.17,1.35-.33,2.7-.47,4,0,.3-.26.65.13.9,0,0,0,.2,0,.3a31,31,0,0,1-.14,3.47,10.07,10.07,0,0,1-1,3.81,6.5,6.5,0,0,1-.84,1.27c.1-.28.21-.55.32-.83A19.2,19.2,0,0,0,85.12,52a26.44,26.44,0,0,0-.2-4.45A35.49,35.49,0,0,1,84.54,41a1,1,0,0,0-.22.78,30.37,30.37,0,0,0,.24,4.57,27.57,27.57,0,0,1,.17,7.48c-.08.54-.15,1.09-.28,1.63a16,16,0,0,1-.7,2.16,1.13,1.13,0,0,1,0-.31,9.35,9.35,0,0,0,.07-3.94c-.22-1.41-.48-2.81-.76-4.21a13.48,13.48,0,0,0,.1,2.28c-.06-.13-.13-.25-.18-.38a13.93,13.93,0,0,1-1.06-6.44A15.69,15.69,0,0,1,83,40.22c.27-.65.51-1.32.78-2a16.84,16.84,0,0,0-1.93,5,13.42,13.42,0,0,0,.75,7.62,11.51,11.51,0,0,1,.29,7.31,3.38,3.38,0,0,1-.21.58c.09-2,.28-4.1-.91-6,.07-.22.44-.46,0-.71l-.24.21s-.08,0-.1,0-.22-.25-.32-.38c-.33-.44-.34-.65,0-1.05a1.7,1.7,0,0,0,.4-1.54,3.82,3.82,0,0,0-1.29-2.36,4.19,4.19,0,0,1-.49-.54,7.56,7.56,0,0,1-1.45-5,1.84,1.84,0,0,1,.21-.75,5.6,5.6,0,0,0,.51-2.79,9.08,9.08,0,0,1,0-1.28A2.18,2.18,0,0,1,80,35.05Zm3.56,21.69-.13,0c0-.17,0-.34.07-.51h.08C83.59,56.42,83.58,56.58,83.57,56.74Zm-6.11-14.3c-.23-.26-.48-.39-.24-.73C77.51,41.84,77.55,42.06,77.46,42.44Zm0-1.81c0,.06,0,.17,0,.37l-1.85-2A5.38,5.38,0,0,1,77.47,40.63Zm-.65,1.09-1.15-1.21A1.83,1.83,0,0,1,76.82,41.72Zm-2.39-5.58,1.29,1a.76.76,0,0,0-.08.11c-.38-.41-1-.49-1.3-1C74.38,36.22,74.4,36.17,74.43,36.14Zm-10.8-3.85-.14.48-.12,0,.15-.49Zm-.87,2.49-.13-.08c.1-.27.19-.54.33-.92A1,1,0,0,1,62.76,34.78ZM66,44.4c-1-.89-2-1.78-3-2.69a16.35,16.35,0,0,1-2.37-2.93,1.36,1.36,0,0,1-.11-.29,10.59,10.59,0,0,1,1.12,0,.61.61,0,0,1,.38.24c.26.31.48.66.75,1a4.18,4.18,0,0,0,.57.54c-.26-.34-.51-.68-.76-1s-.3-.47-.43-.69c.83-.53,1.63-1,2.4-1.54a1.73,1.73,0,0,1,1.26-.31c.31,0,.61.1.8.13l1.74,2.49.09-.06L67,36.92l1.28.16a7.09,7.09,0,0,0,1.47,2.71c-.29-.54-.58-1.07-.85-1.62-.16-.34-.27-.7-.42-1.09.72-.37,1.39-.66,2-1a5.23,5.23,0,0,1,2.65-.34.4.4,0,0,1,.27.11c.5.38,1,.77,1.58,1.24l-2.45-1.14a15.38,15.38,0,0,1,4.33,3.22.41.41,0,0,0-.07.11c-.29-.19-.59-.37-.86-.57s-.59-.5-.89-.75a4.43,4.43,0,0,0-.91-.62l.43.52c-1.15-.4-2-1-3.09-1.34.58.33,1.14.66,1.73,1a6.46,6.46,0,0,1,1.69,1.19c.66.66,1.32,1.32,2,2a.71.71,0,0,1,.19.31c-1.14-.66-1.87-1.83-3.06-2.46l1.09,1.08a11.4,11.4,0,0,0-2.43-1.06,10.86,10.86,0,0,1,3.8,3.26,4,4,0,0,1-1.34-1c-.43-.38-.82-.79-1.25-1.2l-.15.28-2.76-1.29,0,0,1.48.86c.42.25.82.53,1.25.76a.66.66,0,0,1,.36.58c.05-.16.15-.25.31-.15A10.72,10.72,0,0,1,77.69,44c-.09-.07-.19-.13-.28-.21a3.11,3.11,0,0,1-.28-.23,10.83,10.83,0,0,1-2-1.71c-.08-.09-.2-.23-.28-.21-.54.08-.62-.33-.77-.67l0,0c0,.09,0,.18-.06.31l-1.11-.52,0,.05.63.44c.66.44.66.44.76,1.27h-.34c.39.34.77.66.61,1.23h0c0,.09,0,.23.09.29a2.66,2.66,0,0,1,.59,1.43c-.14-.09-.28-.18-.43-.26l-.07.09a6.21,6.21,0,0,1,.9.79,6.43,6.43,0,0,1,.61,1.18c-.52-.24-.77-.68-1.17-.88a.64.64,0,0,0-.1.13l.85.78a9.57,9.57,0,0,1,.79.77c.18.19.46.35.35.72,0,.08.15.21.23.32l1.1,1.43-.1.08-.18-.2c-1.12-1.27-2.23-2.54-3.35-3.8a22.3,22.3,0,0,1-2.87-3.71,17.35,17.35,0,0,0-1.17-1.95c-.18-.23-.38-.43-.56-.64l1.66,2.93c.19.33.34.68.55,1s.23.49.55.59a.34.34,0,0,1,.16.54,1.54,1.54,0,0,1,.46.24c1.21,1.34,2.43,2.67,3.62,4a9.21,9.21,0,0,1,1.69,2.72c-.45-.59-.9-1.18-1.33-1.77a34.53,34.53,0,0,0-3.19-3.75c-.31-.31-.57-.68-.85-1-.24.12-.33-.1-.46-.2a13.52,13.52,0,0,0-1.77-1.41c.26.25.51.5.77.73a36.64,36.64,0,0,1,3.83,3.85,31.67,31.67,0,0,1,3.89,5.83,7.34,7.34,0,0,1,.9,3.46,3.13,3.13,0,0,1-.28,1.13,1.6,1.6,0,0,1-.05-.29,8.36,8.36,0,0,0-1.07-4.15,14.48,14.48,0,0,0-3-3.92c-.67-.66-1.29-1.35-1.91-2.06s-1.38-1.38-2.06-2.08a7.81,7.81,0,0,1-1.9-3.16c-.16-.5-.32-1-.5-1.56a5.8,5.8,0,0,0,.49,3l-1.56-1.57-.08.06c.12.15.23.32.36.46.63.66,1.27,1.31,1.9,2a4.07,4.07,0,0,1,.41.52,11.82,11.82,0,0,0,2.63,3,9.43,9.43,0,0,1,2.61,3.4,3.37,3.37,0,0,1,.35.88c-.41-.47-.79-1-1.23-1.41-.61-.62-1.26-1.2-1.9-1.79-.11-.1-.24-.25-.35-.24-.36,0-.36-.34-.6-.45a3.64,3.64,0,0,1-.7-.45c-.6-.49-1.18-1-1.79-1.49a1.77,1.77,0,0,0-.66-.27c.81.67,1.62,1.32,2.42,2a31.6,31.6,0,0,1,4,3.94,15,15,0,0,1,2,3.19,10.73,10.73,0,0,1,.37,1.26l-.14.06L77.1,56.41c-.86-1.11-1.69-2.24-2.6-3.31a18.8,18.8,0,0,0-3.71-3.41c-1-.66-1.91-1.39-2.86-2.08l-.7-.43a.86.86,0,0,1-.07.1l1.35,1-.06.11-5.88-3.24,0,0c.66.42,1.31.86,2,1.25,1.74,1,3.53,1.92,5.24,3a18.79,18.79,0,0,1,4.59,4c.55.65,1.08,1.32,1.61,2a1.64,1.64,0,0,1,.33.66c-1.24-1.11-2.44-2.27-3.72-3.33s-2.69-2-4-3c-.1.26.17.29.28.37.68.52,1.39,1,2.06,1.53a37.82,37.82,0,0,1,4.21,3.69c.59.65,1.23,1.25,1.84,1.88.16.17.29.38.43.56l-.09.1c-.25-.18-.5-.36-.74-.55l-1.45-1.21a11.77,11.77,0,0,0-2.74-1.71A65.88,65.88,0,0,1,65.69,51a4.9,4.9,0,0,1-1.31-1,1.75,1.75,0,0,0-1-.45,1.83,1.83,0,0,1,.26.21,15.66,15.66,0,0,0,4.42,2.9c1.11.6,2.27,1.11,3.39,1.7a6.78,6.78,0,0,1,1.86,1.34,1.72,1.72,0,0,0,.33.26c.73.54,1.5,1,2.2,1.63A5.13,5.13,0,0,1,77.26,60,14,14,0,0,0,69,55.24a15.32,15.32,0,0,1,7.78,4.88,34.93,34.93,0,0,0-9.46-5.2,25.83,25.83,0,0,1,6,3.2l-3.69-1.59a1,1,0,0,1-.07.15c.59.27,1.18.54,1.75.83s1.24.62,1.84,1a9.8,9.8,0,0,1,1.64,1.17l-.33-.1c-.78-.24-1.55-.53-2.34-.71A43.91,43.91,0,0,1,63.63,56a1.69,1.69,0,0,0-.28-.12h-.14a1.42,1.42,0,0,0,.13.12,28.63,28.63,0,0,0,6,2.5c1.18.33,2.36.63,3.54.95a7.6,7.6,0,0,1,4.16,2.84,1.49,1.49,0,0,1,.28.61c-.46-.35-.91-.7-1.39-1a11,11,0,0,0-3.47-1.49c-1.56-.39-3.14-.67-4.71-1l-1.1-.23a.56.56,0,0,0,0,.12,2,2,0,0,0,.34.14,36.25,36.25,0,0,1,6.72,1.73,8.22,8.22,0,0,1,3,1.69c.09.1.2.2.3.3a.24.24,0,0,1,.06.11l-3.25-1.72c0,.27-.07.37-.32.29-.57-.19-1.16-.36-1.75-.5a1.27,1.27,0,0,0-.47,0,20.36,20.36,0,0,1,5.48,2.37.86.86,0,0,1-.28,0,15,15,0,0,0-3-.74,1.37,1.37,0,0,1-.29-.07,9.64,9.64,0,0,0-3.63-.73,17.91,17.91,0,0,0-5.51.4c-1.29.3-2.56.67-3.85.93a29,29,0,0,1-3.2.45,9.25,9.25,0,0,1-3.42-.5,1.37,1.37,0,0,1-.59-.43,11.49,11.49,0,0,1-2-2.77,2,2,0,0,0-.27-.48A2.79,2.79,0,0,1,50.16,58c0-.86-.08-1.71,0-2.56a8.68,8.68,0,0,1,.29-2,16.12,16.12,0,0,1,.83-2,1,1,0,0,1,.9-.62,32,32,0,0,1,5.36,0,2.61,2.61,0,0,0,.48,0v0c-.46-.06-.92-.13-1.38-.17a28.75,28.75,0,0,0-4.45,0,.9.9,0,0,1-.26,0c.24-.51.48-1,.68-1.46.12-.29.36-.29.6-.31a14,14,0,0,1,4.43.18c1,.22,1.95.44,2.9.72s1.85.61,2.74.91c-.22-.31-1.15-.72-3.2-1.26a27.32,27.32,0,0,0-3.57-.76c-1.18-.15-2.38-.12-3.62-.16.09-.33.18-.67.27-1.05a3.78,3.78,0,0,1,1.92,0c1.28.22,2.55.53,3.81.83.57.13,1.12.34,1.69.51h.11l.05-.07c-.64-.24-1.28-.51-1.94-.69a20.75,20.75,0,0,0-4.4-.92l-1.15-.06c0-.21,0-.43-.05-.73.66,0,1.28.09,1.9.15l2.42.26a1.53,1.53,0,0,0,.41-.07l-4.67-.69c0-.24-.11-.49-.18-.8a2.11,2.11,0,0,1,.49,0,20.79,20.79,0,0,1,4.35,1.32,1.75,1.75,0,0,1,.38.34,12,12,0,0,1,2.8,1,1.23,1.23,0,0,0,.39.07s0,0,0,0a34.47,34.47,0,0,0-5.41-2.33c-1-.36-2-.56-3.14-.86a2.76,2.76,0,0,1,0-.56A5.49,5.49,0,0,1,54,41.73a1.66,1.66,0,0,1,.72-.54,2.21,2.21,0,0,0,1.19-1.08,3.21,3.21,0,0,1,1.72-1.48,5.43,5.43,0,0,1,2.23-.18c.14,0,.28.19.4.33.66.79,1.27,1.64,2,2.38,1,1,2.06,2,3.1,2.93l.71.66C66.21,44.59,66.1,44.5,66,44.4ZM79.56,58.27a67.09,67.09,0,0,0-3.25-6.52C78.06,53.16,79.89,56.82,79.56,58.27Zm-2.1,3a.47.47,0,0,1-.1.1l-.64-.69.07-.07ZM61.52,35.69c-.14-.42-.05-.64.41-1.06C62.1,35,62,35.23,61.52,35.69Zm.56-1.26c0-.19,0-.38,0-.68.29.29.26.49.17.69Zm.45-.67a.8.8,0,0,1,.12-1C62.91,33.15,62.72,33.43,62.53,33.76ZM63,32.14c0,.1,0,.21,0,.32l-.11,0a2.83,2.83,0,0,1-.11-.31ZM62,34c-.3-.41-.3-.41.25-.82C62.1,33.48,62,33.7,62,34Zm1.25-3.28c-.07-.32-.07-.32.09-.76C63.41,30.34,63.41,30.34,63.2,30.69Zm-1-1.93c.8.41,1,.91.58,1.9Zm1.35-.07-.16,0a3.37,3.37,0,0,1,0-.63,11.91,11.91,0,0,1,0-2.07A6.55,6.55,0,0,1,63.55,28.69ZM63,26.63c0,.36.09.65.13.95C62.69,27,62.69,27,63,26.63Zm-.86.21c.56.51.55.51.68,1.3-.18-.24-.36-.48-.53-.73s-.5-.38-.29-.82A1.58,1.58,0,0,0,62.11,26.84Zm-1.49,2.57c.05.07.14.14.14.19-.07.65-.16,1.31-.24,2C59.91,31,60,30.44,60.62,29.41ZM59.56,31.5l-.23,1.42-.51-.58c.22-.33.42-.62.61-.92Zm1.23-4.82c-.53-.35-.53-.35-.45-1C60.77,25.68,60.85,25.88,60.79,26.68Zm-.71.08a2.27,2.27,0,0,0,.11.81c0-.27.08-.53.12-.85.43.2.64.44.54.91a5.24,5.24,0,0,0,0,.8l-.63.13c-.45-.75-.31-1.65-.6-2.52A.69.69,0,0,1,60.08,26.76ZM60,26c-.66-.46-.66-1.08-.79-1.76A2.52,2.52,0,0,1,60,26Zm-1.32-2.36c0,.39,0,.77.06,1.2-.73-.32-.73-.32-.82-1.37Zm-1,.42c-.64-.17-.51-.75-.76-1.21A1.14,1.14,0,0,1,57.63,24.07Zm-.38-1.68c-.42-.1-.69-.19-.68-.6C56.94,21.81,57,22.08,57.25,22.39Zm-.5,1L56,23l.45,0c-.06-.38-.67-.4-.58-.88C56.4,22.25,56.53,22.42,56.75,23.39ZM55.66,23c.12.6.22,1.2.34,1.9-.3-.27-.3-.27-.46-1-.07-.33-.13-.66-.21-1.09C55.51,22.9,55.65,22.93,55.66,23Zm-.28,1.45a2.52,2.52,0,0,1-1.16-1h0v0c-.1-.46-.21-.91-.32-1.42.7.18,1.16.46,1.21,1.18A11.19,11.19,0,0,0,55.38,24.44Zm.08-2.18c-.58-.3-.41-.88-.61-1.28A1.58,1.58,0,0,1,55.46,22.26Zm-.68-.36c-1-.31-1-.4-1.08-1.3C54.19,21,54.65,21.25,54.78,21.9ZM53,20.1a.57.57,0,0,1,.28.29c.09.26.15.54.22.82-.84-.09-1.2-.47-1.31-1.36C52.47,19.94,52.74,20,53,20.1Zm-1,.5h0c.2.59.39,1.19.58,1.78l-.4.18c.57.16.49.6.53,1,.09.76.2,1.53.3,2.29a1.75,1.75,0,0,1,0,.25,9.07,9.07,0,0,1-.88-.63.76.76,0,0,1-.21-.42A2.3,2.3,0,0,1,52,23.35c.06-.1,0-.26.06-.5l-.42.3c0-.31-.09-.58-.13-.9l.58.16c-.13-.13-.16-.18-.21-.2a.72.72,0,0,1-.52-.67c-.05-.38-.16-.74-.25-1.18l.92.25h0l-.82-.46c-.37-.22-.26-.63-.39-1C51.77,19.22,51.93,19.88,52,20.6Zm-2.48,6h-.09l.12-2.28c.41.13.41.13.36.67l.2-.42.76.4c-.41,1.07-.81,2.11-1.22,3.16l-.09,0c.11-.88.23-1.77.33-2.65a.46.46,0,0,0-.06-.23C49.74,25.71,49.64,26.18,49.53,26.64Zm-1.38-7.37c.06,1.16.11,2.32.18,3.47a5.06,5.06,0,0,0,.17.75h0c0-1.37,0-2.74-.07-4.11a1.34,1.34,0,0,1,.23-1,3.32,3.32,0,0,0,.33-.68,2.43,2.43,0,0,1,.87,1.49.77.77,0,0,0,.56.68.7.7,0,0,1,.41.4c.09.52.4,1,.25,1.57-.06.23.19.54.26.83s.34.84-.07,1.38c0-.35,0-.58-.06-.95-.11.59-.2,1.05-.3,1.58a8.37,8.37,0,0,1-1.16-.57c-.14-.09-.2-.37-.22-.57-.06-.56-.09-1.12-.13-1.69h-.13c0,.65,0,1.3.07,1.95l-.69,0h0l.69.26c-.06,1-.12,1.89-.18,2.83H49c-.17-1-.28-2.06-.36-3.09h0l-.15-.36h0v0a7.63,7.63,0,0,0,0,.83c.1,1.2.24,2.39.3,3.59a11.39,11.39,0,0,1-.17,1.73h-.18c-.06-1.29-.13-2.58-.19-3.87l-.2.14c0-.09-.07-.17-.05-.22a2.18,2.18,0,0,0-.07-1.19c-.15-.76-.31-1.51-.49-2.27,0-.18-.11-.44-.25-.52a.9.9,0,0,1-.41-.83c-.11-1.19-.21-2.39-.29-3.59a3.08,3.08,0,0,1,.14-.72A3.42,3.42,0,0,1,48.15,19.27Zm-1.94-1.81c.11.7.21,1.4.3,2.05l-.43.23a4.85,4.85,0,0,1-.95-3.26A1.6,1.6,0,0,1,46.21,17.46Zm-4.37-2.69c.3.28.54.55.82.77s.63.61,1.11.26a9.6,9.6,0,0,1,.54,3,2.8,2.8,0,0,0,0-1.32c0-.34-.07-.68-.1-1a.9.9,0,0,1,.06-.26,1.49,1.49,0,0,1,.59,1.08c.17,1.12.34,2.25.46,3.38.09.94.11,1.89.16,2.84h0a6.13,6.13,0,0,0,.1-1c0-.79-.07-1.58-.11-2.37,0-.17,0-.34,0-.65a6.54,6.54,0,0,1,.74,1.87,9.17,9.17,0,0,1,.35,1.7c0,.3.4.43.26.82s.1.59.17.88.15.63.23,1c.2.81.42,1.61.58,2.43A12.63,12.63,0,0,1,48,29.7c0,.16-.05.35,0,.49a2.24,2.24,0,0,1-.19,2c-.12-.42-.27-.82-.35-1.24-.25-1.32-.47-2.64-.71-4a2.22,2.22,0,0,0-.18-.49c0,.41.08.82.11,1.24a1.11,1.11,0,0,1,0,.54l-.29-.46c0-.27.12-.56-.18-.75,0,.11,0,.23,0,.34a9.09,9.09,0,0,1-.4-2.51l.19.31h0c0,.22.07.43.1.65,0-.24.14-.48-.1-.67a2.89,2.89,0,0,0-.39-1.7h0s0,0,0,0h0c0,.34,0,.67,0,1h-.09c-.16-.63-.33-1.27-.51-2-.28.37-.09.62,0,.88.11.42.23.85.33,1.28.17.74.32,1.49.47,2.24l-.12.05a3.14,3.14,0,0,1-.3-.65c-.15-.62-.25-1.24-.37-1.85-.07-.34-.13-.67-.2-1s-.19-.9-.26-1.35,0-.79-.08-1.19c0-.1-.15-.19-.33-.25.15,1.08.31,2.17.47,3.25l-.1,0c-.11-.35-.22-.7-.32-1.05-.14-.55-.26-1.11-.38-1.66a.76.76,0,0,1,.69-1c.13-.31.24-.6.38-.93l-.38-.07c-.07.48-.45.73-.77,1,0,0-.13,0-.21,0,0,.16-.08.34-.14.55l-.32-.19a1.85,1.85,0,0,0-.2-1.3,1.38,1.38,0,0,0-.2-1.18c.06.4.13.78.19,1.17h0c.07.44.13.87.2,1.31h0c-.08.3.19.68-.3.95-.28-1.54-.56-3.06-.85-4.64.38.1.65.19.68.59a1,1,0,0,0,.11.27l.11-.41,1.12.6a.36.36,0,0,0-.27-.42c-.48-.2-.87-.58-1.38-.75a.63.63,0,0,1-.47-.78l-.39.4c-.13-.38-.25-.71-.4-1.13C41.39,15.45,41.55,15,41.84,14.77Zm-1,1.2c-.32-.06-.32-.06-.4-.38L40.24,15l-.14,0c0,.22.06.43.09.67a.54.54,0,0,1-.51-.47c-.11-.55-.23-1.1-.29-1.68A5.52,5.52,0,0,1,40.82,16ZM39,13.68c.13.49.26,1,.42,1.6-.41-.36-.29-.9-.8-1.19.12.37.19.63.29.92-.5-.17-.78-.72-1-1.85C38.31,13.31,38.48,13.86,39,13.68Zm-1.55-.52A9.47,9.47,0,0,1,38,14.55c-.65-.28-.7-.94-1-1.42a.69.69,0,0,1,0-.13C37.21,13.05,37.41,13.06,37.46,13.16Zm-.79,1.5c0,.36.13.7.2,1.06l-.11.08c-.38-.23-.76-.44-1.13-.68a.33.33,0,0,1-.13-.25c0-.38,0-.76,0-1.19C36.15,13.82,36.59,14,36.67,14.66Zm-.28-2.31.34.75-.15.05-.32-.74Zm-1.32-.55a2,2,0,0,0,.46.45,2,2,0,0,1,.88,1.55c-.71-.12-1-.47-1-1.08a4.12,4.12,0,0,0-.45-.05c-.05.12-.09.25-.14.38h-.12c-.06-.57-.11-1.13-.18-1.74C34.85,11.38,34.92,11.63,35.07,11.8Zm-1-1.26a13,13,0,0,1,.42,2c-.29-.25-.28-.63-.35-1S33.78,11,34.05,10.54ZM32.58,9.48a4.82,4.82,0,0,1,1.47,3.16c-1-.42-1-.42-1.13-.84l.45.21c0-.06,0-.1,0-.11-.76-.42-.77-1.22-1-1.92C32.32,9.85,32.5,9.66,32.58,9.48Zm-1.34-.82a3.66,3.66,0,0,1,1,2.37A2.46,2.46,0,0,1,30.7,8.72Zm-1.16-.73a8.62,8.62,0,0,1,.59,1.82c-.59-.45-1.38-.7-1.38-1.6ZM27.19,5.69a3,3,0,0,0,1.07.94.51.51,0,0,1,.24.26c.19.48.36,1,.57,1.57A2.55,2.55,0,0,1,27.9,7.07l-.3.47c-.21,0-.56-.87-.82-2.28C27,5.46,27.09,5.57,27.19,5.69Zm-.74,1.94a2.73,2.73,0,0,1-.35-1.48C26.4,6.51,26.46,6.77,26.45,7.63Zm-.22-2a1,1,0,0,1-.48-1.22A1.33,1.33,0,0,1,26.23,5.65Z"/><path d="M94.45,80.51h0v0Z"/><path d="M87.2,74.49l.9,2c-.3-.73-.48-1.51-.84-2.23A.41.41,0,0,0,87.2,74.49Z"/><path d="M89.82,77.85c-.11-.41,0-.89-.45-1.18l.33,1.22Z"/><path d="M89.37,76.67s0,0,0,0h0s0,0,0,0,0,0,0,0Z"/><path d="M88.29,80.47c0-.38-.09-.76-.13-1.14A1.15,1.15,0,0,0,88.29,80.47Z"/><path d="M88.17,80.93c0,.3,0,.59,0,.89h.12v-.89Z"/><path d="M66.23,71v0l0,0Z"/><path d="M65,71.64a.83.83,0,0,0,.08.12l1.1-.8A3.31,3.31,0,0,0,65,71.64Z"/><path d="M69,76.06l-1,1.38A2.57,2.57,0,0,0,69,76.06Z"/><polygon points="69.02 76.06 69.02 76.06 69.02 76.06 69.02 76.06"/><path d="M70,70.29l0,0h0l0,0,0,0A.14.14,0,0,1,70,70.29Z"/><path d="M69.4,71.56c.21-.44.4-.86.6-1.27A2.61,2.61,0,0,0,69.4,71.56Z"/><path d="M70.66,61c-1.06-.16-2.13-.29-3.2-.43,0,0,0,0-.07.09l2.3.37,1.46.21A1.85,1.85,0,0,0,70.66,61Z"/><path d="M71.19,61.29h0Z"/><path d="M66.13,48.26a.15.15,0,0,0,.05.09c.62.4,1.23.79,1.86,1.17a1.69,1.69,0,0,0,.45.14L66.2,48.19A.23.23,0,0,1,66.13,48.26Z"/><polygon points="66.08 44.75 66.08 44.75 66.09 44.76 66.08 44.75"/><path d="M66.4,54.52l-.9-.23,0,.05.9.28Z"/><path d="M110.23,64.68l1.82.75A2.54,2.54,0,0,0,110.23,64.68Z"/><path d="M110.11,67.08l-1.46-.83s-.05.09-.07.13l1.52.72Z"/><path d="M100.56,68.06l1.27.92a.36.36,0,0,0,.07-.1L100.63,68A.36.36,0,0,1,100.56,68.06Z"/><path d="M101.5,61.25a.28.28,0,0,0,0,.09l1.64.24a.43.43,0,0,1,0-.11Z"/><path d="M100.58,59.44H99.06s0,.08,0,.12l1.51,0Z"/><path d="M107.35,65.67a.61.61,0,0,0-.07.14l.83.32,0-.09Z"/><path d="M109.05,64.25s0-.1,0-.15L108,63.74c0,.07,0,.14,0,.21Z"/><path d="M100,60.16s0,.07,0,.1c.15,0,.3.09.46.12l.39.07s0,0,0,0Z"/><path d="M115,66.91l0-.12-.6-.23a.26.26,0,0,1,0,.08Z"/><path d="M97,58.61s0,.06,0,.09l.55-.12a.93.93,0,0,0,0-.13Z"/><path d="M98.85,59.89l-.68-.09A.57.57,0,0,0,98.85,59.89Z"/><path d="M98.17,59.8l0,0h0Z"/><path d="M95.47,59l0,0,.48-.09a.54.54,0,0,0,0-.11Z"/><path d="M100.45,61.12,99.69,61A.55.55,0,0,0,100.45,61.12Z"/><polygon points="99.69 61 99.69 61 99.69 61 99.69 61"/><path d="M101.06,61.21l-.59-.09A.47.47,0,0,0,101.06,61.21Z"/><path d="M100.47,61.12h0Z"/><path d="M93.73,51.08c-.11.17-.2.35-.3.53l.4-.51Z"/><path d="M93.43,51.61l-.05.06h0l0,0,0,0Z"/><path d="M90.79,55.85l.07,0,.51-.61-.05-.06Z"/><path d="M97.44,47.31l-.07-.06-.4.47.09.08Z"/><path d="M93.88,52.84c-.06.18-.14.36-.21.54l.32-.49Z"/><path d="M97.55,79.21h0Z"/><path d="M97.8,79.29c0-.05-.15-.05-.24-.06L98.43,81A4.56,4.56,0,0,0,97.8,79.29Z"/><path d="M94.78,83.09a0,0,0,0,1,0,0h0v0S94.77,83.09,94.78,83.09Z"/><path d="M94.45,80.51h0v0S94.45,80.52,94.45,80.51Z"/><path d="M29.37,61.37l-.56.5.52-.12C29.34,61.63,29.36,61.5,29.37,61.37Z"/><path d="M32.81,35.13c.07-.16.14-.3.22-.46l-.32.4Z"/><path d="M33,34.67v0h0S33,34.66,33,34.67Z"/><path d="M74.45,43.67l-.59-.44A.52.52,0,0,0,74.45,43.67Z"/><path d="M74.79,46.2l-.27-.29-.07.06.23.3Z"/><path d="M103.79,48.69l-.5.27C103.57,49,103.73,48.92,103.79,48.69Z"/><path d="M103.81,48.69v0Z"/><path d="M46.34,25h0Z"/><path d="M46.34,25c-.05-.25-.09-.49-.14-.73C46.19,24.48,46,24.78,46.34,25Z"/><path d="M46.39,25.59v0Z"/><path d="M46.52,26.43c-.05-.27-.09-.54-.13-.81A.8.8,0,0,0,46.52,26.43Z"/><path d="M46.52,26.46h0s0,0,0,0Z"/><path d="M46.34,25h0Z"/><path d="M46.39,25.56c0-.2,0-.39,0-.59C46.14,25.19,46.23,25.38,46.39,25.56Z"/><path d="M46.39,25.59h0v0Z"/><path d="M61.77,90.15v0Z"/><path d="M61.77,90.15l.38-.4C61.87,89.77,61.74,89.9,61.77,90.15Z"/><path d="M43,55.07l.64-.23A.61.61,0,0,0,43,55.07Z"/><path d="M54.34,23.13l-.1.24a1.18,1.18,0,0,0,.11-.19A.43.43,0,0,0,54.34,23.13Z"/></g></g></svg>