<svg xmlns="http://www.w3.org/2000/svg" viewBox="0 0 76.29 69.43"><defs><style>.cls-1{fill-rule:evenodd;}</style></defs><title>Asset 2</title><g id="Layer_2" data-name="Layer 2"><g id="Layer_1-2" data-name="Layer 1"><path class="cls-1" d="M14.56,8.38c-.61-2-.53-4.09-1.34-6,.4-.92,1.27-1.08,2.08-1.26,7.9-1.71,16.16-.9,24.19-1C40.69.1,41.89,0,43.1,0c2.92.08,5.83.38,8.75.68,2.47.24,5.57,0,7.87,1.08a10,10,0,0,1,1.63.91,1.66,1.66,0,0,1,.77,1.78c-.21,1.24-.36,2.5-.45,3.76,0,.44-.18.86-.2,1.32.1,0,.18.11.26.1h0a6.36,6.36,0,0,1,4.78,1.65c2.13,2,1.21,3.5-.92,4.91a1,1,0,0,1-.08.91,5.48,5.48,0,0,0,.7,6.06c2.07,2.37,5.25,3.26,7.45,5.47a5,5,0,0,1,.49.54,12,12,0,0,1,2.13,7.44c-.19,5.54-2.39,10.9-4.48,16-2.19,5.31-3.91,12.58-9.7,15.07-4.89,2.1-10.47,1.31-15.64,1.68-1.42.1-2.85.11-4.28.11-2.18,0-4.37,0-6.55-.06-1.67-.05-3.33-.22-5-.33l-4.07-.21c-1.85-.1-3.69-.21-5.54-.34-4.2-.3-7.85-.38-10.71-3.79-3.26-3.89-4.9-9-6.4-13.72S.23,41,0,35.79c-.26-6.18,3.85-7.93,8.35-11a29.1,29.1,0,0,0,2.73-2.25C15.9,18.37,5.87,13.27,9.87,10a6.42,6.42,0,0,1,3-1.31Zm50.76,7.18a.41.41,0,0,0-.53.31l.52-.32,1.53-.89c.55-.57.56-.63.28-1.24l-.33.44a2,2,0,0,0-1.32-2.21c-.07.4-.08.39-.43.76-.08.08-.09.22-.14.34-.27,0-.56-.16-.77.15.74.94.74.94.72,1.31a2.94,2.94,0,0,0-.23-.44,3.34,3.34,0,0,0-.35-.4c-.51-.51-.53-.51-1.22-.09.25.4.65.72.66,1.29l-.93-1.29-.74.21c.17.35.28.66.67.74-.11.27-.21.52-.34.87.79-.38,1.7,0,2.34-.65.08.07.14.19.22.2a1.45,1.45,0,0,0,1-.32c0,.24.18.24.37.2s.38-.09.49.13a4.91,4.91,0,0,0-1,.12,1.64,1.64,0,0,0-.6.46S65.28,15.45,65.32,15.56Zm-2.9,8,.6.14c0-.17,0-.26-.05-.45l-.54.32c-.3.06-.48.19-.37.55a7,7,0,0,1,.15.79l1-.74Zm1,3.65c-.06.11-.11.22-.18.33l1.14.81.5-.38c-.28-.2-.51-.36-.74-.54a.83.83,0,0,0-.74-.19c-.17-.52-.66-.6-1.06-.78-.13-.06-.33.07-.61.14a5.31,5.31,0,0,1,.72.47A.85.85,0,0,0,63.46,27.18Zm-1.29-1.12.57,0c0,.11,0,.28,0,.32.31.2.65.37,1,.55l.94-.67-.75-.7L62.72,26l.71-.64-.57-.7-.61.38c0,.37.24.71-.09,1a1.12,1.12,0,0,0-.2-.88l-.55.38ZM59,59.35a1.14,1.14,0,0,0-.28-.26c-.49-.2-1-.37-1.51-.57-.06.21-.11.39-.17.58a12.72,12.72,0,0,1,1.31.4c.31.14.48,0,.68-.17.12.33.12.33.8.21Zm6.61-1.1A3,3,0,0,0,65,59.84c1-.35,1.31-.78,1.21-1.72l-.57.13c.11-.1.21-.26.35-.29.71-.2.71-.79.83-1.39l-.89.31ZM68.9,31l.54.46c.25-.18.48-.33.76-.54L69.38,30c-.28.2-.51.36-.73.54,0,0,0,.14,0,.22-.46-.07-.73.21-1,.51.24.32.47.61.72.95l.87-.6Zm-2.38-1.7c-.12.12-.25.24-.49.49a5.19,5.19,0,0,1,.69.52,7.64,7.64,0,0,1,.61.77,3.52,3.52,0,0,1-.37-.27l-1.08-1-.58.28,0-.05.43-.42-1.31-1.07-.43.1h0c0-.15.2-.31,0-.45a5.48,5.48,0,0,1-.49-.35c-.4-.26-.82-.49-1.22-.76a7,7,0,0,1-1.21-.7,2.12,2.12,0,0,0-.78-.31c0,.19,0,.29,0,.4-.47-.64-.47-.64-1.14-.85l-.24.38c-.08-.29-.15-.55-.24-.86l-1.17.45v1.19l-3.3.57c-.21,0-.4.07-.43-.31l3.6-.42v-.88l-2.92.8c-.8.21-1.59.43-2.4.6-2.45.51-4.91,1-7.38,1.5-1.38.25-2.78.4-4.17.55-1.77.2-3.54.33-5.31.51-1,.1-1.89.28-2.85.38-2.08.21-4.16.38-6.24.58a27.52,27.52,0,0,0-4.21.75,2,2,0,0,0-1.47,1.27c.2.05.37.1.54.13a76.24,76.24,0,0,0,7.81,1c2.84.24,5.69.41,8.54.57,3,.16,6.09.22,9.14.15A84.34,84.34,0,0,0,56,33.88a12.32,12.32,0,0,0,3.37-.78c.75-.33.78-.41.32-1.08h0a.57.57,0,0,1,.52.52c.06.31-.2.42-.4.56a1.09,1.09,0,0,1-.36.17,24.33,24.33,0,0,1-2.37.63,59.87,59.87,0,0,1-7.67.79c-2.24.11-4.49.18-6.73.14-3-.06-6-.22-9.07-.38Q30.78,34.32,28,34c-2-.22-4.07-.51-6.1-.78L20.12,33c-.16.41-.33.77-.44,1.15s-.19.83-.27,1.24-.15.79-.19,1.18,0,.84,0,1.26a4,4,0,0,1,0,1.2c-.16.44.43.67.18,1.09.31.13.56,0,.82-.15a17.11,17.11,0,0,1,1.67-.67,28,28,0,0,1,2.85-.66A14.8,14.8,0,0,1,30,38.55c1.64.32,3.28.6,4.92.89,1,.17,1.93.31,2.89.49.72.13,1.43.29,2.15.43a3.74,3.74,0,0,1,.68.06,22.75,22.75,0,0,0,3.18.56,2.88,2.88,0,0,0,1.33-.27,37.2,37.2,0,0,1,4.53-1.06,32.09,32.09,0,0,1,4.59-.41,51.78,51.78,0,0,1,8.26.39,19,19,0,0,0,2.1.32,43.87,43.87,0,0,1,5.24.53c.34.05.67.16,1.08.25.2-2.22.66-4.36.25-6.59-1,.43-2,.86-2.9,1.22a15.59,15.59,0,0,1-2.85,1,.51.51,0,0,1,.23-.34c.58-.33,1.17-.64,1.75-1s1.16-.71,1.77-1.09a5.8,5.8,0,0,0-.92-1.45l-.93.45h0l.81-.73c-.26-.31-.51-.61-.73-.89l-.68.27.56-.54a1.64,1.64,0,0,0,1-.62l-1-.88,1.23.85.76-.59-1.44-1.22-.78.49c.09.19.15.33.22.46-.24-.1-.43-.34-.74-.21,0-.15,0-.3,0-.45.51.25.71-.23,1.1-.45l-.73-.55-.67-.49-.8.48.58.64-.89-.45-.48.37,1.3,1.08ZM11.81,56.08c.14.26.29.53.41.8a.5.5,0,0,0,.64.36c-.06-.31-.13-.6-.18-.9-.11-.59-.11-.59-.79-.56l-.06.31c-.13-.15-.24-.4-.4-.45a6.61,6.61,0,0,0-1.12-.13c.55,1.57.66,1.59,1.76,1.52C12,56.71,11.9,56.39,11.81,56.08Zm61-25.16c.39.2.5.16.83-.17s.15-.43,0-.65l-.6-.9-.93.76c.26.36.49.67.71,1-.31-.27-.63-.53-1-.82l-.88.58c.33.49.63.92,1,1.38l1-.76ZM47,58.65a1.14,1.14,0,0,0,0,.19,5,5,0,0,0,.91.21c.13,0,.27-.15.4-.24.08.12.13.28.24.35s.3,0,.45.09c.68.2,1.36.38,2,.63a1.07,1.07,0,0,1,.83.92H50v0l1.11-.28a2.18,2.18,0,0,0-.87-.49,1.45,1.45,0,0,0-.5,0c0-.06,0-.16-.08-.18a3.86,3.86,0,0,0-1.53-.3c-.22.4-.41.75-.59,1.1.1-.37.21-.74.34-1.18l-1.15-.14-.35.62c0-.19.05-.38.1-.65L44,59.17c-.06.58-.1,1.07-.15,1.55l.65.18,0,.12-.67.16c-.1.8-.19,1.56-.29,2.36l.91-.07c.31-.47.57-.88.84-1.28-.15.4-.31.8-.49,1.29.51,0,.92-.07,1.33-.13a.37.37,0,0,0,.25-.19c.3-.61.58-1.23.89-1.89l-.83-.1a1.14,1.14,0,0,1,.53-.26c.22-.08.42-.19.64-.29a2.52,2.52,0,0,0,.46.1c.33,0,.66-.09.89.28.11.18.31.12.43-.06s.1-.19.16-.28v.41c.12,0,.23,0,.34,0,.91,0,1.82-.11,2.73-.11a1.13,1.13,0,0,0,1-.46c0,.08,0,.16-.08.36a5.91,5.91,0,0,0,.77-.28,1.3,1.3,0,0,1,.49-.22c-.5-.62-.75-.61-1.14,0a1,1,0,0,0-.63-1c-1.34-.3-2.68-.56-4-.9a.56.56,0,0,0-.73.35c0-.12,0-.25.05-.41a1.54,1.54,0,0,0-1.21,0,1,1,0,0,0-.35-.16c-.78-.09-1.57-.17-2.36-.24a1.05,1.05,0,0,0-.33.06v.69c.87,0,1.7.12,2.54.15C46.72,58.9,46.84,58.74,47,58.65Zm22.9-26.49-.48-.38-.91.58.84,1.49c.35-.23.66-.41.93-.62.09-.08.1-.26.15-.39.13.13.28.18.39,0a.5.5,0,0,0,.09-.4c-.17-.42-.39-.82-.61-1.28l-.68.46Zm-8,32.31c0,.11,0,.21,0,.36a3.75,3.75,0,0,0-.59.11c-.14,0-.33.1-.38.21-.19.42-.34.85-.55,1.39l1.12-.22c.6-.12.6-.12.69-.8h-.85c.32-.15.66-.17,1-.3s.35-.55.46-.91l-.9.17c.25-.13.49-.27.75-.38a.65.65,0,0,0,.47-.75l-1.1.26c-.65.16-.66.18-.75.93ZM12,60.93c.28.57.56,1.14.86,1.71a.67.67,0,0,0,.27.34c.38.13.78.21,1.3.35-.63-.86-1.14-1.6-1.7-2.31-.13-.16-.41-.2-.63-.28L12,61c-.39-.5-1-.39-1.6-.55.29.69.53,1.27.79,1.85a.45.45,0,0,0,.23.22c.38.13.77.24,1.23.38C12.4,62.14,12.2,61.53,12,60.93ZM36.74,58.1,35.83,58a.28.28,0,0,0,0,.09h.92l.47-.07a.59.59,0,0,1,0,.14l-2,.23c-.1.3-.17.53-.25.76v-.72a22,22,0,0,0-4.16,1.24,2,2,0,0,1-.29.15,9.47,9.47,0,0,0-1.9,1,5.67,5.67,0,0,1-.69.52,7.48,7.48,0,0,1-1.52.82c-1,.29-1.94.45-2.91.67-.6.14-.65.26-.35.9l.62.07c.12-.16.21-.3.26-.37a2,2,0,0,0,.55.22c2,.19,4.07.37,6.11.53.16,0,.33-.11.5-.17.28.28.85.4,1.06.22,0-.18-.07-.37-.12-.62l-1.19,0h0a4.84,4.84,0,0,0-.47-.21c-.59-.19-1.19-.35-1.77-.56a.73.73,0,0,1-.56-.6c0-.34.21-.53.46-.66a7.9,7.9,0,0,1,1.51-.69c1.34-.39,2.69-.75,4.06-1a.91.91,0,0,0,.82-.67c0,.15,0,.3.06.49l2.62-.46V57.89C37,57.85,37,57.85,36.74,58.1Zm-3-1.12c-.24,0-.49,0-.73,0-.6.1-1.21.23-1.81.34L30,59.62a.72.72,0,0,0,.69-.46,1.55,1.55,0,0,1,.4-.6A7.82,7.82,0,0,1,33.74,57l.22.11-2,1.07a17.42,17.42,0,0,0,2.31-.41,2.23,2.23,0,0,0,.64-.16,3,3,0,0,1,1.52-.38,2.33,2.33,0,0,0,1.35-.51,3.21,3.21,0,0,0-.51-.05l-3.2.19A1.78,1.78,0,0,0,33.75,57Zm22.4,4v-.32a1.3,1.3,0,0,0-1.36.17c-.43.44-1,.38-1.48.53a2.08,2.08,0,0,0-.42,1.34c.78-.18,1.55-.36,2.32-.52a.78.78,0,0,0,.6-.55,6.42,6.42,0,0,1,.37-.68c-.08.31-.16.61-.25,1,.37-.15.66-.25.94-.38s.77-.35,1.14-.54c.21-.12.41-.27.29-.56-.46,0-.87.09-1.29.08A.82.82,0,0,0,56.15,61ZM49.62,44l-.64.55a13.29,13.29,0,0,0,2,0,7.58,7.58,0,0,0,1.75-.61A8.44,8.44,0,0,0,54.49,43c-.81,0-1.49-.09-2.18-.15a1.43,1.43,0,0,0-.88.2c-.6.34-1.22.62-1.83.93a4.94,4.94,0,0,1,.45-.35c.38-.25.78-.47,1.16-.71a3.07,3.07,0,0,0-2.05,0c-1.08.54-2.11,1.18-3.16,1.78a2.07,2.07,0,0,0,.78,0A4.64,4.64,0,0,0,49.37,44C49.43,44,49.54,44,49.62,44ZM46.69,42.2l.27-.13c1.37-.18,2.27-1.2,3.4-1.84a.3.3,0,0,0-.25,0,11.48,11.48,0,0,1-1.62.29,4.06,4.06,0,0,0-2.55,1l-.73.59-2,1.72-.52.41c-.16.15-.31.31-.51.51.15,0,.21,0,.23,0a1.26,1.26,0,0,1,1.33-.3.73.73,0,0,0,.49-.11c.5-.29,1-.63,1.48-.91a1.34,1.34,0,0,0,.86-1.21ZM49,61.81l-.41,1.33a28.61,28.61,0,0,0,3.72-.43.42.42,0,0,0,.25-.18c.17-.37.32-.74.46-1.09-1.13,0-2.2,0-3.27,0a.91.91,0,0,0-.76.4v-.37l-.51-.19c-.47-.18-1-.07-1.16.26-.26.56-.49,1.13-.73,1.69.08.05.09.07.11.07.4,0,.8-.06,1.2-.06a.55.55,0,0,0,.58-.42C48.63,62.46,48.84,62.14,49,61.81Zm5.27-21.94a4.7,4.7,0,0,1-.55.45c-.39.23-.79.43-1.3.7a4.37,4.37,0,0,0,3-.5,3,3,0,0,1,1.3-.4,11.46,11.46,0,0,0-1.65.91l3.24.18a.46.46,0,0,0,.2-.05l2.42-1c-.06-.08-.09-.14-.12-.15-1.1-.07-2.21-.15-3.32-.2-.79,0-1.59-.05-2.39,0a5.25,5.25,0,0,0-.87.14,6.26,6.26,0,0,0-5.18,1.59c.49-.07.95-.16,1.41-.21a5.41,5.41,0,0,0,2.21-.64C53.22,40.32,53.76,40.11,54.28,39.87ZM14,32.82l.15-.41a.37.37,0,0,0-.59,0c-.6.53-1.21,1.06-1.79,1.61a5.54,5.54,0,0,0-1.3,2,3.18,3.18,0,0,0-.23,1.1c0,.45.25.58.66.4a2.7,2.7,0,0,0,.52-.3l4.7-3.75a4.47,4.47,0,0,0,.41-.43l-2-.54-.46.36ZM38.71,2.23v0L35.8,2.08a3.39,3.39,0,0,0-1.61.12l.52.15s0,.09,0,.13a28.52,28.52,0,0,0-8.4-.29,3.48,3.48,0,0,0,.69.17,12.33,12.33,0,0,0,2.71.33c.82-.06,1.64-.07,2.47-.09a14.37,14.37,0,0,0,2.46-.06c.85-.17,1.63.18,2.44.09h.07c3.61.07,7.22.21,10.81.58.38,0,.76,0,1.14.07-.85-.5-1.71-.89-2.55-1.33a3.39,3.39,0,0,0-1.91-.25c.35.24.73.41,1.09.61.2.11.37.27.56.4h0a6,6,0,0,1-1.17-.45c-1.41-.88-2.94-.63-4.48-.53l1.41.6c-1,0-1.89-.75-2.95-.68s-2,.09-3,.13a15.32,15.32,0,0,0,2,.27C38.28,2.05,38.56,2,38.71,2.23ZM50,21c-.58.08-1.16.2-1.74.25-1.09.09-2.18.14-3.27.21-3.23.2-6.45.33-9.68.26-2.46-.06-4.93,0-7.45-.2.05.29.08.54.12.79l2.27.15c2,.11,4,.2,6,.33A22,22,0,0,0,42,22.77c.33-.06.66-.09,1-.14,2.2-.33,4.41-.63,6.6-1a17.82,17.82,0,0,0,2-.6A1.61,1.61,0,0,1,53,20.86l-1.32.48a.56.56,0,0,1,0,.12L54,21.1c0-.38,0-.7.06-1a1.09,1.09,0,0,0-.26,0l-3.64.43c-.17,0-.46.05-.5,0-.18-.36-.47-.18-.7-.18s-.71.06-1.06.09l-5.12.51c-.8.08-1.6.22-2.4.25s-1.48-.07-2.23-.07H28.39a3,3,0,0,0-.42,0,1.27,1.27,0,0,0,1,.33c1.85,0,3.7.09,5.55.11s3.92,0,5.88-.05,3.91-.18,5.87-.27Zm-2.39-6a4.22,4.22,0,0,0,1.87,0H47.66c-.28,0-.56.1-.85.12l-4.18.16-.13.32a2.54,2.54,0,0,0-1.87-.69c-.06.24-.11.44-.15.64h-.09c-.06-.2-.12-.41-.19-.62H39l-.31.52-.11,0c0-.17,0-.34-.06-.54H37.08c-.08.15-.14.29-.24.49-.06-.23-.1-.37-.13-.51H35.35l-.23.67-.16-.7H32.43c.42-.35.84-.21,1.21-.26s.79.1,1.16-.15A8.68,8.68,0,0,0,31.3,14c-.05.57-.11,1.15-.16,1.79l2.24.19.37-.54.09.58,3.27.3c.21,0,.39-.09.66,0a6.65,6.65,0,0,0,2,.35,22.87,22.87,0,0,0,2.33-.12l8.48-.46,2-.13c-.15-.3-.25-.51-.36-.72l-7.66.46a.71.71,0,0,1,.47-.25l2.13-.15C47.37,15.25,47.59,15.31,47.65,15ZM68.41,54.77a1.36,1.36,0,0,1,.32-.21,1.32,1.32,0,0,0,.9-.89c.61-1.64,1.27-3.27,1.87-4.92A61.4,61.4,0,0,0,74,40.31a20.61,20.61,0,0,0,.58-7.21,7.08,7.08,0,0,0-.65-2.3l-.58.52c0,.15.08.27.12.42l-.38-.25-.87.64c.09.52.16,1,.25,1.43a3,3,0,0,1,.18,1.35l-.16-.14A32.21,32.21,0,0,1,71.58,40a3.21,3.21,0,0,0-.11.52,37.52,37.52,0,0,1-1.24,6.21,31.16,31.16,0,0,1-2.6,6.47c-.19.36-.35.74-.56,1.18l.51-.08c-1,.41-1.15,1.34-1.52,2.26.47-.11.85-.18,1-.59s.35-1.11.53-1.67.63-1.37,1-2c.15-.32.16-.31.5-.58A17.32,17.32,0,0,0,67.68,55l.74-.21c-.11.09-.22.25-.35.27-.55.08-.67.46-.76,1,.48-.23.86-.43,1.27-.6a.77.77,0,0,0,.55-.72ZM53.26,4.85l.16-.22c-1.33.11-2.68.26-4,.31-4.1.14-8.2.15-12.3-.06-1.87-.1-3.73-.22-5.6-.33-.48,0-1,0-1.44-.07Q28.15,4.27,26.26,4a7.08,7.08,0,0,1-1.2-.32,4,4,0,0,0-3,0l4,.65h-.62a18.77,18.77,0,0,1-4.22-.68,2.93,2.93,0,0,0-1.58.08c.38.15.76.25,1.14.38a37.43,37.43,0,0,0,5.64,1.38c2.15.34,4.31.66,6.47.93,1.37.17,2.75.27,4.13.31,1.76.06,3.52.08,5.27,0,2.49-.1,5-.28,7.46-.47a27.83,27.83,0,0,0,4.34-.7c.53-.13,1.08-.23,1.62-.34,0,0,0,0,0-.06l-2.6.26c1.38-.31,2.82-.36,4.11-1.21l-.49-.82L56.15,4a4.49,4.49,0,0,0-.65.14c-.4.15-.77.36-1.17.5s-.72.16-1.08.24ZM35.53,23.71c0-.28.26-.25.46-.27l1.76-.17v-.12l-9.68-.54v2.08h.62c1,0,2,0,3,0a29.33,29.33,0,0,0,3.75.17c1.94-.07,3.87.1,5.8.22a54.13,54.13,0,0,0,12.13-.63,2.21,2.21,0,0,0,.41-.14,2.16,2.16,0,0,0-.79-.09l-1.86.09c-.41,0-.36-.25-.36-.52l-2,.17a.28.28,0,0,0,0-.09l5.14-.73v-.71a34,34,0,0,1-5.28.64L54,22.23v-.87c-.17,0-.3,0-.43,0l-2.25.35c-.13,0-.3.09-.38,0-.35-.25-.7-.06-1,0-1.52.23-3,.51-4.54.75-1,.17-2.11.29-3.16.44V23l.71.08c-1.73.11-3.52.21-5.32.35-.68.05-1.35.17-2,.25ZM19.05,27.76c-.17.32-.33.65-.53,1l.88.23,1.18.33-2.23-.25-.24.36,1.05,1.23.34-.16c0,.07,0,.14,0,.18a1.82,1.82,0,0,1,.7,0,1.2,1.2,0,0,0,.77,0c.9-.17,1.79-.36,2.7-.44,1.39-.13,2.8-.17,4.2-.27s2.78-.21,4.16-.39c2.39-.3,4.77-.65,7.16-1,1.56-.23,3.11-.52,4.67-.74q4.13-.58,8.19-1.52c1.15-.26,2.29-.54,3.43-.83a4.52,4.52,0,0,0,.54-.2V24l-.51.08c0,.25-.05.47-.07.76l-.19-.71L54,24.16l.25.27c-.59.28-.13.82-.34,1.32l-.2-1.11-.38,0c-1.68.21-3.35.49-5,.61a40.51,40.51,0,0,1-6.79.11.57.57,0,0,0-.18,0,5,5,0,0,1-.84.12c-1.18,0-2.35-.09-3.53-.16l-8.18-.53L27,24.74v-.07l.9-.05c-.05-.68-.09-1.32-.14-2l-1.83-.1a4.49,4.49,0,0,0,.22,2.12h-.32c0-.71-.07-1.39-.11-2.09a3.78,3.78,0,0,0-1.57,0c.05.42.09.82.13,1.2.4.09.75,0,1,.36l-3.73-.26c0,.25.06.47.1.76,5.23.92,10.53,1.17,15.79,1.69a140.84,140.84,0,0,1-15.73-1.35c0,.21,0,.34,0,.47,0,.68.06.63.7.82a11.08,11.08,0,0,0,2.5.22c2.4.12,4.81.18,7.22.24l7.29.16h2.41a.61.61,0,0,0,0,.14c-5.55.08-11.1-.08-16.65-.18,1.29.29,2.59.59,3.91.79a21.21,21.21,0,0,0,3.19.24c1.82,0,3.65-.08,5.47-.19s3.64-.31,5.46-.47h0c-.08.08-.16.21-.25.22-1.23.14-2.47.29-3.71.38-1.67.13-3.33.22-5,.29a27.37,27.37,0,0,1-5.2-.08c-2.6-.38-5.22-.56-7.79-1.1a1.27,1.27,0,0,0-.43.05.49.49,0,0,0-.13,0c-.15-.33-.46-.23-.7-.27a1.74,1.74,0,0,1-1.5-1.07,2.64,2.64,0,0,0-.17-.33c-.17.31-.34.56-.07.85-.26.11-.47.25-.36.61l4.45,1.06a.37.37,0,0,1-.34.09c-.72-.14-1.44-.28-2.15-.45a.63.63,0,0,0-.8.26c0-.13,0-.26,0-.42l-1.36-.3c-.22.55-.41,1-.62,1.56l1.11.25ZM34.52,7.88h0s-.07-.07-.11-.07L30.3,7.24c-1.94-.3-3.88-.63-5.89-.85,0,.36,0,.64.07,1a1.62,1.62,0,0,1,.42,0c1.38.22,2.76.43,4.14.67.32.06.37-.13.44-.36.09.18,0,.46.31.44s.25-.19.29-.37a3.88,3.88,0,0,1,.22-.46c0,.29-.06.59-.1.89l3.8.58c.18,0,.37,0,.39.26h0l-2.71-.39v.9l1.11.1v.06H31.64a3.2,3.2,0,0,0-.08.48c0,.62,0,1.25.07,1.87s.18.69.73.75,1.11.09,1.66.14l4,.39a9.17,9.17,0,0,0,1.38.11c1.62-.05,3.25-.14,4.87-.22a2.27,2.27,0,0,0,.35-.05s0,0,0-.07l-1.67-.2v-.09l4.93.26c0-.58.08-1.07.11-1.56h.1c0,.49.09,1,.13,1.5h1.35V10.53h.16c0,.79.07,1.59.11,2.42h1.07c0-.89.07-1.75.1-2.6h.09c0,.85.07,1.7.1,2.61l1.22-.1c-.14-.48.18-1-.2-1.26.43-.52.13-1.15.33-1.69,0,.53,0,1.05.07,1.59l.46.13-.47.21c0,.33,0,.66.06,1.05l1.15-.1v-.92c-.27-.08-.52-.16-.76-.25l.75-.08.06-.82c0-.43.06-.86.1-1.29,0,.28.07.56.11.92l.9-.16V9.52c.24.19,0,.59.42.68,0-.41.06-.79.09-1.22-.48.06-.88.09-1.26.17-.1,0-.17.2-.26.3a.47.47,0,0,0-.6-.27,4,4,0,0,1-.92.06.13.13,0,0,1,0-.06l3.06-.44c0-.37,0-.67.06-1a29.37,29.37,0,0,1-3.69.68c1-.32,2.1-.58,3.16-.85.63-.17.7-.29.55-1l-3,.56a4.49,4.49,0,0,1,1.08-.38c.35-.08.7-.15,1-.24a1.69,1.69,0,0,0,1.07-.43,2.58,2.58,0,0,0-.4,0c-1,.14-1.93.3-2.9.42s-2.22.17-3.31.38A38.68,38.68,0,0,1,45,7.2c-.66,0-1.33.06-2,.07-1.29,0-2.57.12-3.86.08-1.64,0-3.29-.12-4.92-.28-1.86-.17-3.71-.42-5.56-.66-1-.13-2-.32-2.95-.47a2.36,2.36,0,0,0,1,.47c1.44.26,2.89.48,4.33.71,1.06.17,2.11.35,3.17.51C34.35,7.66,34.48,7.7,34.52,7.88ZM17.21,33.1h.54l.22-.55c-.35-.24-.49.08-.7.19s0,.25,0,.38a2,2,0,0,0-.67.23c-.58.45-1.11.95-1.68,1.42-.84.7-1.68,1.4-2.54,2.07a11.37,11.37,0,0,1-1.28.85C10.45,38,10,37.75,10,37a3,3,0,0,1,.21-1,8.69,8.69,0,0,1,3-3.62l.3-.3c-.51-.16-.93-.27-1.34-.42a1,1,0,0,0-.77,0h0c0-.27-.2-.32-.39-.38-.53-.16-1.07-.3-1.6-.48a.61.61,0,0,0-.67.1L7.06,32.31a.67.67,0,0,0-.17.2c-.39.72-.81,1.43-1.15,2.18a8.18,8.18,0,0,0-.85,3.68A9,9,0,0,0,5.3,41c.41,1.24.73,2.52,1.18,3.75.73,2,1.39,4,1.94,6,.16.62.41,1.22.61,1.82l3.59.44a16.66,16.66,0,0,1,.88-3.47,10.27,10.27,0,0,1,2.21-2.84.83.83,0,0,1,0-1,2.85,2.85,0,0,0,.18-1.63c-.08-.67-.09-1.33-.13-2s-.09-1.64-.13-2.51c-.31,0-.57-.06-.83,0-1,.08-1.95.15-2.92.27a16.31,16.31,0,0,0-4.47,1,1.4,1.4,0,0,0-.82,1.33c0,.27,0,.55,0,.84.3.13.3.12.5.08a6.38,6.38,0,0,1,1.05-.17,13.07,13.07,0,0,0,4.25-.71,12.17,12.17,0,0,1,1.33-.3l0,.13-2.93.88a2.26,2.26,0,0,0,1.87.24,3.7,3.7,0,0,1,.83-.17.5.5,0,0,0,0,.12l-.92.34a1,1,0,0,0,1.07.23,2.28,2.28,0,0,1,1.1-.15l-1,.38a1.78,1.78,0,0,0,1.77.21c-1.71.69-3.43,1.33-5.14,2a1,1,0,0,1-.24,0,32,32,0,0,1,3.88-1.72A2.13,2.13,0,0,0,13,44.14c-1.15.32-2.27.75-3.46,1.16.08.54.15,1,.23,1.53l1.19-.63L12,45.68l.07.14L9.77,47.08c.45,1.72.89,3.42,1.35,5.2A10.2,10.2,0,0,1,10,49c-.32-1.13-.55-2.29-.82-3.49l-1,.31c.59,1.95,1.17,3.84,1.75,5.72-.15,0-.21-.05-.22-.11-.29-.89-.55-1.78-.85-2.67-.39-1.18-.82-2.35-1.22-3.53a1.41,1.41,0,0,1-.06-1c.17.5.31.93.46,1.39L12.47,44a1.46,1.46,0,0,0-1.28-.08c-.68.28-1.38.52-2.07.77a5.6,5.6,0,0,1-.54.17s0-.08-.05-.13c.74-.47,1.65-.62,2.46-1.06a7.45,7.45,0,0,0-2.89-.1.91.91,0,0,0-.31.09l-1.18.6a11.83,11.83,0,0,1-.5-1.15c-.12-.4-.15-.83-.25-1.24a1.15,1.15,0,0,1,.59-1.3,6.22,6.22,0,0,1,1-.43,15.73,15.73,0,0,1,6.31-.82c.59,0,1.18,0,1.68,0,.29-1.11.48-2.14.84-3.11s.9-1.87,1.36-2.81ZM61.3,58.88a1,1,0,0,1,0,.26.75.75,0,0,0,.2,1c.1.07.12.24.17.36l-.1.08L61,60.15c-.27.78-.52,1.5-.77,2.24,1,.1,1.09,0,1.07-.63.28-.25.63-.44.78-.73a6.41,6.41,0,0,0,.46-1c.45-1.33.92-2.65,1.38-4,.06-.15.1-.32.18-.58a15.75,15.75,0,0,0-1.63.44c-.19.07-.31.33-.47.5l.1-.37h-.52a27.21,27.21,0,0,1,2.82-1,9.93,9.93,0,0,1,1.34-.27,1,1,0,0,0,.74-.6c.51-1.13,1-2.26,1.52-3.4a16.07,16.07,0,0,1,.66-1.59A6.05,6.05,0,0,0,69.3,48a16.28,16.28,0,0,0,.9-3.59l-.58.18c-.19.31-.26.57-.44.69a3.72,3.72,0,0,1-1.64.84c-.53.07-1.05.19-1.57.27-.67.09-.65.09-.84.73q-.78,2.49-1.59,5a6.68,6.68,0,0,1-.39.81c.66-2.15,1.33-4.28,1.93-6.44l-.73-.1A23.65,23.65,0,0,0,68.13,45l-1.37.35,0-.12,1.33-.5a.65.65,0,0,0,0-.13c-.81,0-1.62.09-2.44.11-2.35.06-4.71.08-7.07.16-2,.07-4.07.22-6.11.15a5.33,5.33,0,0,0-2.44.21s-.12,0-.17,0a1.35,1.35,0,0,0-.45-.16c-.56,0-1.11.1-1.67.14l-2.78.25a1.08,1.08,0,0,1-.2-.06l0-.46a2.24,2.24,0,0,0-1.47-.06,21.77,21.77,0,0,1-5,.34c-.57,0-1.13,0-1.7.08v.16c.32,0,.65.1,1,.12a25.9,25.9,0,0,1,4.81.41c.47.12.91.18,1,.8l-.67.47c2.1.42,13,0,14.15-.59-1.53-.28-3.08-.14-4.53-.65,1.16,0,2.31,0,3.46.08.93,0,1.87.09,2.8.15a1.24,1.24,0,0,1,.5.13.43.43,0,0,1,.19.31c0,.06-.13.19-.21.21a6.31,6.31,0,0,1-.85.15c-1.15.09-2.3.12-3.43.27-2.39.31-4.79.41-7.18.49-1.82.05-3.64,0-5.46-.06-1.33,0-2.66-.09-4-.24-2.12-.23-4.26-.19-6.37-.61a8.54,8.54,0,0,0-2.9-.18.66.66,0,0,1-.57-.23c-.19-.43-.53-.26-.84-.3a1.94,1.94,0,0,0,.36.39,9,9,0,0,1,2.48,3.09,8.39,8.39,0,0,0,1.19,2.51c.06.07,0,.22,0,.33s0,.4,0,.6c0,.64.1,1.28.08,1.92a15.92,15.92,0,0,1-.25,1.68,44.18,44.18,0,0,1,12.52-.22c.06-.16.09-.25.14-.4l.13.49c.49,0,1,.08,1.46.07a38.44,38.44,0,0,1,6.25.3,34.12,34.12,0,0,1,6.27,1.49c.55.21,1.1.42,1.64.65.37.15.72.34,1.08.52C61.05,59.33,61.17,59.1,61.3,58.88ZM20,45.45c0,.38.19.49.5.52a1.42,1.42,0,0,1,1.1.68,1.16,1.16,0,0,1-.16,1.51,2.26,2.26,0,0,1-2.29.09A1,1,0,0,1,19,46.51l.36-.3c.21-.17.16-.34-.05-.59a17.56,17.56,0,0,0-2.14.75,6.83,6.83,0,0,0-3.35,3.74,10.92,10.92,0,0,0-.6,4.67,5.92,5.92,0,0,0,.43,1.8,9.36,9.36,0,0,0,2,3,5.26,5.26,0,0,0,2.73,1.71,13.64,13.64,0,0,0,4.37.23c.58-.07,1.15-.17,1.71-.29a5.06,5.06,0,0,0,1.41-.38,11.4,11.4,0,0,0,2.83-2.09,4.7,4.7,0,0,0,1.36-2.1c.26-1,.52-2,.69-3a3.46,3.46,0,0,0-.06-1.57,24.07,24.07,0,0,0-1.12-2.85,5.42,5.42,0,0,0-.85-1.27,7.84,7.84,0,0,0-4.11-2.59A5.86,5.86,0,0,0,21,45.27,5.75,5.75,0,0,1,20,45.45Zm19.08-4.74a3.65,3.65,0,0,0-3.1.13,5.74,5.74,0,0,1-.92.38l-.74.31a8.41,8.41,0,0,1-1.13.55c-.85.26-1.72.45-2.58.68-.32.08-.63.18-.94.27a.25.25,0,0,0,0-.07l.5-.26A20,20,0,0,0,28,42.61a4.67,4.67,0,0,1-1.87-.45,3.74,3.74,0,0,0-.84-.39,3.41,3.41,0,0,1-.83-.29.58.58,0,0,0-.76.18,6.76,6.76,0,0,1-1.13.83c.11-.64.8-.63,1-1.22-.4.2-.72.32-1.06.12-.1-.06-.27,0-.4,0a5.08,5.08,0,0,0-1.89.59c-.06,0-.16,0-.41,0a2.76,2.76,0,0,1,.44-.34,6,6,0,0,1,2.45-.57c1.2,0,2-.81,3-1.32a1.94,1.94,0,0,0-.23-.09l-.27,0c-1.73.16-3.39.81-5.16.75a6.88,6.88,0,0,0-.75,0A33.53,33.53,0,0,0,19.91,45c.75,0,1.34-.42,2.05-.42a11.57,11.57,0,0,1,4.46,1,2.47,2.47,0,0,0,1.09.27,6.65,6.65,0,0,1,1.18,0c.62.07,1.23.2,1.85.28,1.15.16,2.29.34,3.44.46s2.56.27,3.84.36c1.11.08,2.22.14,3.34.14a3.25,3.25,0,0,0,2-.57,3.25,3.25,0,0,0-.56-.2,13.75,13.75,0,0,1-2-.31,7.88,7.88,0,0,0-2-.2c-.71,0-1.42-.09-2.13-.13a.68.68,0,0,1-.62-.34,1.29,1.29,0,0,1,1-.38,1.18,1.18,0,0,0,1-.47c.34-.39.7-.75,1-1.13a3.5,3.5,0,0,0,.26-.37,5.34,5.34,0,0,1-1.19.21,1.23,1.23,0,0,0-1,.45l-1.2,1.19c0-.71.82-.84,1-1.49-.22,0-.4.07-.59.08-.51,0-1,0-1.53,0-.21,0-.51-.07-.42-.41,1.53-.21,3-.36,4.51-.63a12.1,12.1,0,0,0,4.32-1.33c-1,0-2-.07-3-.13a2.67,2.67,0,0,0-1.16.22c-1,.39-2,.76-3.08,1.13-.3.11-.62.19-.92.28,0,0,0-.09,0-.13.72-.27,1.45-.52,2.16-.82A6.06,6.06,0,0,0,39.12,40.71ZM4.41,29.15c-.17.21-.32.41-.48.59A8.76,8.76,0,0,0,1.43,36a7.06,7.06,0,0,0,.42,2.56,12.08,12.08,0,0,1,.38,1.34,73.4,73.4,0,0,0,2.12,7.44c.25.67.49,1.34.73,2,.29.84.57,1.68.88,2.52,0,.15.19.36.31.38a11.06,11.06,0,0,0,2.16.21c-.39-1.42-.7-2.79-1.14-4.12-.68-2.09-1.45-4.15-2.18-6.23a10.26,10.26,0,0,1-.75-4.38c0-.25,0-.49.07-.74l-.14,0c-.11.67-.24,1.34-.33,2s-.15,1.37-.23,2.18c0-.55,0-1-.55-1.22,0,.22.07.43.11.63l-.14,0a14.78,14.78,0,0,1-.56-5.81,11.78,11.78,0,0,1,2.56-5.35ZM25.09,3.25a.36.36,0,0,1,0,.09,3.64,3.64,0,0,0,.63.16c.62.06,1.24.08,1.86.14,2.38.2,4.75.46,7.13.62,2.13.15,4.27.21,6.41.29a37.14,37.14,0,0,0,7.67-.39c.42-.07.84-.2,1.38-.33C48.42,3.17,32.65,2.49,30.62,3l2.87.44a14.43,14.43,0,0,1-2.08-.12C30.34,3.2,29.28,3,28.22,3S26.13,3.16,25.09,3.25Zm2.67,15.83v.26l2.43.16c.83.06,1.65.12,2.47.16l2.47.13,2.47.14c.83.05,1.65.06,2.48.13a17.46,17.46,0,0,1,2.39.17c-4.89,0-9.75-.39-14.71-.61,0,.41,0,.77.07,1.12l.43,0,10,.05A58.3,58.3,0,0,0,45,20.41c1.8-.21,3.6-.3,5.4-.44,1.2-.09,2.4-.15,3.61-.23V19l-10.49.82v-.08l1.72-.24a1.4,1.4,0,0,0-.66-.11l-3.46-.06c-.69,0-1.38-.05-2.07,0-1.27,0-2.54.11-3.8.08-1.93,0-3.87-.17-5.8-.27-.18,0-.35-.08-.52-.08C28.55,19.05,28.15,19.07,27.76,19.08ZM27,41.92l-.06-.14,4.51-2.35c-.14-.08-.19-.14-.25-.14-.86-.14-1.72-.27-2.58-.38a2.71,2.71,0,0,0-2,.47c-.75.52-1.55,1-2.33,1.43-.1.06-.21.09-.38.17A1.83,1.83,0,0,0,26,40.89a3.37,3.37,0,0,1,.7-.38c.92-.45,1.84-.88,2.77-1.31a.93.93,0,0,1,.37,0,42,42,0,0,0-4.42,2.27,11,11,0,0,0,1,.52,3.07,3.07,0,0,0,2.52.07c1.56-.7,3.15-1.34,4.73-2a3.25,3.25,0,0,0,.37-.23l-1.41-.29a1.62,1.62,0,0,0-1.16.16c-1,.5-1.95,1-2.93,1.46C28.07,41.43,27.53,41.67,27,41.92Zm41.25,1.25,0,.1a1.42,1.42,0,0,1-.36,0,1.86,1.86,0,0,0-1.53,0,9.5,9.5,0,0,1-1.38.51c-.5.16-1,.29-1.51.43,0,0,0-.06,0-.09,1-.38,2-.76,3.06-1.17-1.66-.52-1.76-.52-3.15,0l-.25.08L59,44.42a.42.42,0,0,0,.27.07l1.41,0a8.91,8.91,0,0,1,1.46,0c.42.06.82-.06,1.24,0,1.68.09,3.36.07,5,.1a3.39,3.39,0,0,0,1.89-.75c.23-.16.23-.68.32-1a6.19,6.19,0,0,0,.15-.86,2.64,2.64,0,0,0,0-.4L67.6,42.82ZM34.71,60.29a3.08,3.08,0,0,0-.53,0c-1,.23-2,.44-3.05.71a17.86,17.86,0,0,0-2,.73c-.26.11-.6.21-.65.67a16.67,16.67,0,0,0,5.73,1.15c.14-.9.27-1.75.39-2.6l-.66-.27C34.17,60.42,34.54,60.75,34.71,60.29ZM50.8,3.74a4.74,4.74,0,0,1-1.9.73c-1,0-2,.17-2.87.26.91,0,1.91,0,2.91,0a34.44,34.44,0,0,0,5.37-.57,1,1,0,0,0,.89-.65,15.46,15.46,0,0,0-2.62-1.15,7.13,7.13,0,0,0-2.81-.2L53.45,4a3.39,3.39,0,0,1-.53-.13q-1.81-.86-3.6-1.74a4.13,4.13,0,0,0-2.43-.3ZM3.46,39.65H3.6a22.93,22.93,0,0,1,1.95-7.71c-.28,0-.24.55-.68.29.44-.82,1.18-1.42,1.69-2.19-1-.46-1-.44-1.72.32,0,0,0,.07,0,.12l.28-.17A11.27,11.27,0,0,1,4.19,32,7.83,7.83,0,0,0,3,34.56a8.55,8.55,0,0,0,.23,4.62A4.73,4.73,0,0,0,3.46,39.65Zm58.83,2,0,.14c.57.12,1.15.26,1.73.35a2.53,2.53,0,0,0,.91,0c.71-.18,1.41-.42,2.11-.61.34-.09.69-.12,1-.18,0,0,0,.08,0,.11l-2.84.84a5.74,5.74,0,0,0,1.09.39,1.74,1.74,0,0,0,1.41-.16c.52-.25,1.07-.45,1.6-.67l.8-.39c-.17-.18-.26-.36-.39-.38A22.26,22.26,0,0,0,66,40.48a1.88,1.88,0,0,0-.89.19,16.27,16.27,0,0,1-1.58.53ZM19.05,45c-.31-1.61-.61-3.14-.93-4.77L16.8,40a8.26,8.26,0,0,0-.3,3c.05.32.09.59.42.77a.81.81,0,0,1,.34.61,1.87,1.87,0,0,0,.48,1.11Zm21-27.67c.73,0,1.44,0,2.14,0,3.27-.2,6.53-.43,9.79-.65.54,0,1.07-.07,1.6-.13.25,0,.49-.11.39-.52l-2.19.13-8,.5-3.27.19C40.29,16.9,40,16.89,40.07,17.37ZM27.52,1a27,27,0,0,0,5.3.78c1.82,0,3.58-.38,5.38-.46A14.45,14.45,0,0,0,33,.79C31.16.85,29.34.93,27.52,1ZM37.6,61.29l-1.72.23c-.16-.5-.68-.26-1.08-.51-.11.9-.22,1.72-.34,2.61a27.19,27.19,0,0,0,3,.06C37.5,62.87,37.55,62.12,37.6,61.29ZM20.32,1.58V1.43a1.12,1.12,0,0,1,.31-.05c.57.05,1.14.1,1.72.17.95.11,1.89.27,2.84.34.6,0,1.2,0,1.8,0l2.19-.11a25.32,25.32,0,0,0-3.49-.62,27.18,27.18,0,0,0-3.61,0,16.93,16.93,0,0,0-3.52.25,4.72,4.72,0,0,0,4.35.53Zm19.14,43-.1-.14c.76-.79,1.72-1.37,2.49-2.18a15.5,15.5,0,0,0-1.81.47,1.46,1.46,0,0,0-.51.3c-.49.48-1,1-1.45,1.48a2.45,2.45,0,0,0-.25.43c.76,0,1.43,0,2.09,0a1.46,1.46,0,0,0,.75-.36c.68-.58,1.32-1.2,2-1.8.4-.35.8-.7,1.27-1.09a2.37,2.37,0,0,0-1.44.49c-.9.73-1.78,1.48-2.67,2.22A2,2,0,0,1,39.46,44.62Zm-21.25-5.1a18.72,18.72,0,0,1,1.23-6.63c-.27-.17-.39,0-.51.17a6.18,6.18,0,0,0-1.31,2.65c-.06.33-.18.64-.24,1a13.47,13.47,0,0,0-.46,2.65Zm10.86,2.83a7.84,7.84,0,0,0,5.06-1.2l-.87,0,0-.13c.14-.06.3-.18.44-.16a9,9,0,0,1,.92.28l2-.81A6.64,6.64,0,0,0,35,40a1.38,1.38,0,0,0-.64.07C32.61,40.8,30.86,41.57,29.07,42.35Zm25.54,2.12A9.44,9.44,0,0,0,59.75,44c.5-.24,1-.39,1.64-.62a1.87,1.87,0,0,0-.48-.15c-.87,0-1.74,0-2.6,0a1.59,1.59,0,0,0-.65.11c-.54.19-1.07.42-1.6.64Zm-23.44-35,0,.13H30v2.91l1.44.15a13.85,13.85,0,0,1,.06-4.07l-1.42-.21c0,.36,0,.65,0,1ZM62.72,60.3A20.56,20.56,0,0,0,66,54.94l-1.75.51Zm-7.4-46a.5.5,0,0,0,.14.68c-.41.12-.14.45-.19.67a3.14,3.14,0,0,0,0,.62l2.67-.44a.49.49,0,0,0,.42-.36c.23-.56-.09-1-.34-1.41l-.75.1c0,.28.07.49.1.79-.34-.26-.21-1-.87-.69-.12.41.23.84-.1,1.27-.07-.47-.14-.88-.21-1.33Zm-28-.86H25.07a3.35,3.35,0,0,0-.26,2,15.22,15.22,0,0,0,2.23,0C27.13,14.8,27.22,14.17,27.32,13.44Zm25,29.1c1.65.3,3.15.41,4.53-.53a1.64,1.64,0,0,1,.3-.14l.66-.37a26.27,26.27,0,0,0-3-.2,1,1,0,0,0-.5.12C53.63,41.76,53,42.12,52.3,42.54ZM8.14,58a7.46,7.46,0,0,0,.59,1.23,1.4,1.4,0,0,0,1.22.62.74.74,0,0,1,.25,0,5.15,5.15,0,0,0,.54.23c.25.06.58.2.77.1s.37.31.62.16l.16-.08c-.27-.45-.52-.92-.8-1.36a.66.66,0,0,0-.36-.26C10.19,58.49,9.24,58.28,8.14,58ZM52,17c-4,.06-7.86.81-11.83.62,0,.35.13.41.38.41.69,0,1.38,0,2.07,0,2.94-.08,5.87-.35,8.79-.62A.58.58,0,0,0,52,17ZM64.84,40.6a.83.83,0,0,0,0-.15,2.38,2.38,0,0,1-.37.06c-.21,0-.47,0-.63-.06a4.17,4.17,0,0,0-1.65-.4,1.56,1.56,0,0,0-1.25.31,3.8,3.8,0,0,1-.84.39l-.88.43a1.49,1.49,0,0,0,.58.2,5.52,5.52,0,0,0,3.56-.33A15.63,15.63,0,0,1,64.84,40.6ZM29.3,8.24,25,7.67c0,.43-.13.82.2,1.19l.35-.26c.08.1.14.24.21.25,1.16.15,2.32.28,3.52.42Zm-4.85,7.21c.07-.7.15-1.33.22-2H23.3c0,.27.05.53.08.78l-.1,0c-.11-.28-.21-.56-.33-.86l-.77-.11a2.7,2.7,0,0,0,0,1.82l.56.14-.47.07a3.9,3.9,0,0,0,1,0C23.68,15.35,24.05,15.41,24.45,15.45Zm15.14,48.3,1.71-.1a11.29,11.29,0,0,0,.29-2.5,4.46,4.46,0,0,0-1.79.12C39.73,62.07,39.66,62.84,39.59,63.75Zm12.66-.56c-1,.09-2,.25-2.87.24S48.1,63.89,48,64.7c0,0,0,0,0,.06s.08.06.11,0c1.12-.12,2.25-.25,3.37-.4a.47.47,0,0,0,.3-.22C51.92,63.9,52.05,63.6,52.25,63.19Zm7.67-.68c.3-.83.58-1.64.89-2.52-.28-.09-.61-.29-.69-.21-.31.29-.62.09-.93.12a1.66,1.66,0,0,0-.36.12c.38.24.8-.06,1.14.25-.18,0-.39.08-.39.13-.06.5-.52.62-.83.77-.67.32-.69.94-1,1.59ZM37.8,61.26a14.62,14.62,0,0,0-.07,2.46H39.3c.1-.84.2-1.64.3-2.46Zm-21.37-32a2.34,2.34,0,0,0-2-1.15l-1.1,1.54,2.44.77ZM39.91,58.9l1.86-.13V58H40.32c0-.15.07-.23.1-.31l-2.55.13c0,.49-.17.92.05,1.39l1.77-.26c0-.27.06-.47.11-.75C39.84,58.45,39.87,58.65,39.91,58.9Zm-26.82-29a11.15,11.15,0,0,0-1.22,1.54,7.78,7.78,0,0,1,.93.31,1.42,1.42,0,0,0,1.74-.28,10.17,10.17,0,0,1,1.08-.79ZM42.7,65.67c-.38,0-.69,0-1,0a.48.48,0,0,0-.59.4c0,.16-.14.4-.26.43-.74.18-.9.91-1.4,1.35a1.78,1.78,0,0,0,1-.1,3.08,3.08,0,0,0,.65-.65l.1.08c-.08.2-.17.39-.28.64H42C42.62,67.22,42.41,66.41,42.7,65.67ZM9.21,30.56l2.38.76,1.27-1.54c-.64-.21-1.18-.4-1.73-.57a.48.48,0,0,0-.37.07C10.27,29.67,9.79,30.08,9.21,30.56Zm18.48-17a3.19,3.19,0,0,0-.29,2l2,.13c.11-.7.21-1.3.31-2ZM43.16,63.58a10.5,10.5,0,0,0,.33-2.43H41.9c-.09.83-.18,1.63-.27,2.43ZM54.79,64.7l1.68-.29a.53.53,0,0,0,.33-.2c.38-.81.74-1.63,1.11-2.44a3.09,3.09,0,0,0-.86.3q-.44.16-.87.3a1.22,1.22,0,0,0-.87,1.37l1.41-.16a8.09,8.09,0,0,1-1.52.59C54.93,64.24,54.83,64.38,54.79,64.7Zm-29-.28h.13c.07.23.14.45.22.73a4.1,4.1,0,0,1,1.11,0,3.58,3.58,0,0,0,1.21.14c0-1,0-1.07-.95-1.12-.62,0-1.24-.09-1.86-.12-.44,0-.87,0-1.39,0,.08.3.15.55.22.83l1.31.16ZM12.64,53.22l-3.5-.36a3.17,3.17,0,0,1,.18.49.85.85,0,0,0,.83.7,8.24,8.24,0,0,1,1.78.34,2,2,0,0,0,.55,0ZM56,42.69a6.59,6.59,0,0,0,4.71-.89,19.38,19.38,0,0,0-2.11-.28.62.62,0,0,0-.32.09Zm1.21.55a.68.68,0,0,0,0-.14,5.18,5.18,0,0,0-2.41.12l-2.56,1.12s-.06.08-.16.23a6.14,6.14,0,0,0,1.67,0C54.87,44.18,56,43.68,57.17,43.24Zm-46,15.26c-.25-.5-.42-.86-.61-1.2a.49.49,0,0,0-.32-.2c-.88-.18-1.77-.34-2.72-.51.2.44.17,1,.68,1.12C9.17,58,10.12,58.22,11.21,58.5Zm-.84-1.62c-.24-.52-.4-.9-.6-1.27a.45.45,0,0,0-.3-.22c-.79-.1-1.59-.17-2.47-.26a4.88,4.88,0,0,1,.26.7.64.64,0,0,0,.55.5Zm35.56-15.7a2.92,2.92,0,0,0-1.75.63L41,44.58a1.7,1.7,0,0,0-.18.28c.81,0,.81,0,1.28-.44.18-.17.36-.34.54-.49ZM58.83,65.4l-2.5.4L55.83,67C56.62,67,57.3,67,58,66.89a.49.49,0,0,0,.37-.2C58.52,66.32,58.65,65.92,58.83,65.4ZM44.35,44.53a8.4,8.4,0,0,0,.83.21,1,1,0,0,0,.5-.08c.91-.51,1.8-1,2.7-1.56a3.37,3.37,0,0,0,.35-.31,9.23,9.23,0,0,1-1.31.08,1.92,1.92,0,0,0-1.17.4c-.5.3-1,.6-1.47.92C44.66,44.27,44.55,44.37,44.35,44.53Zm11,18.16-2.88.51c-.15.38-.28.72-.47,1.19l2.67-.51a.51.51,0,0,0,.28-.26C55.08,63.35,55.19,63.06,55.34,62.69ZM7,30.15A11.53,11.53,0,0,0,4.82,35a24.51,24.51,0,0,1,3-4.52ZM27.31,2.81a11.49,11.49,0,0,0-5.24-.44,2.59,2.59,0,0,0-.4.09s0,.08,0,.13A16.23,16.23,0,0,0,24.13,3,30.9,30.9,0,0,0,27.31,2.81ZM51,65.52,47.42,66l-.34.88c1-.13,1.94-.3,2.87-.37A1,1,0,0,0,51,65.52Zm-7.39-4.73c0-.56.09-1.06.13-1.57H42c0,.55-.07,1.05-.1,1.57ZM59.52,42.62l0,.14c.24,0,.48.06.72.07a9.68,9.68,0,0,1,1.53.08,3.22,3.22,0,0,0,2-.49,17.18,17.18,0,0,0-2.07-.48.9.9,0,0,0-.46,0ZM57,64.32l2.4-.46.39-1.17-2.15.16ZM9.5,55.12C9.34,54.45,9.12,54,8.41,54a6.62,6.62,0,0,1-1.29-.28l-.67-.18c.13.41.21.73.34,1a.52.52,0,0,0,.31.29C7.88,55,8.67,55,9.5,55.12ZM11.17,29l1.88.63,1-1.47-1.42-.23a.46.46,0,0,0-.31.07C12,28.25,11.63,28.56,11.17,29ZM41.69,60.83V59.2l-1.81.19v1.12a3.26,3.26,0,0,0,.71.31A7.85,7.85,0,0,0,41.69,60.83Zm-4.25,5.08c0,.67-.1,1.28-.15,1.92l1.13.07c.17-.72.33-1.37.48-2l-.11-.08ZM29.31,9.58a9.18,9.18,0,0,0-2.77-.24c0,.27,0,.53.05.84l.66.12c0-.25,0-.43.06-.62h.07c.05.21.09.41.16.69.6-.16,1.16.19,1.77.15Zm24.53,31.8A4.54,4.54,0,0,0,50,42.5l1.64.07a.37.37,0,0,0,.25,0C52.48,42.17,53.1,41.81,53.84,41.38Zm-37-12.87.65-1.64-2-.45c-.09.25-.17.44-.25.64ZM29.4,11.42l-.47-.08c.32-.07.6-.14.38-.59l-1-.14c0,.47.16.93-.11,1.43,0-.28-.07-.46-.1-.67l-.62,0c0,.34.05.63.08.95.68,0,1.28.28,1.93,0C29.49,12.05,29.45,11.75,29.4,11.42Zm6.33,56.36,1.2.06c.07-.65.15-1.29.22-1.92H35.73Zm-21.38-56,.54.39c-.43-.07-.81-.17-1.06.31a1.87,1.87,0,0,0-.27,1.17l1.21.29c.21-.67.39-1.29.59-1.94Zm37.17,46a4.46,4.46,0,0,0,2,.4,6.5,6.5,0,0,1,1-.07c.1,0,.19.09.39.2l-.86.07a3,3,0,0,0,1,.34c.35,0,.71,0,1.06.06s.51-.09.64.22c0,0,.06,0,.13.07l.14-.53A15.46,15.46,0,0,0,51.52,57.7ZM51,66.32l2.9-.42.37-.87c-.79.12-1.43.28-2.09.31A1.13,1.13,0,0,0,51,66.32ZM37.51.72a9.3,9.3,0,0,0,4.87.48C40.8.47,39.14.74,37.51.72ZM17,10,17,9.91c-.22-.8,0-1.67-.48-2.42,0,0,0-.1.06-.15.13-.73-.08-1.08-.82-1.27.22,1.19.42,2.33.62,3.48C16.45,9.88,16.72,9.91,17,10ZM45.13,65.61c-1.52-.23-2,.11-2.21,1.5L44.35,67c.18-.45.55-.77.38-1.23Zm5.44,1.74c.72,0,1.39-.06,2.07-.11s.79-.1,1-1c-.76.1-1.49.23-2.23.29A.8.8,0,0,0,50.57,67.35ZM37.68,59.73a13.23,13.23,0,0,0-2.59.4c-.26,0-.22.28-.15.51l2.66.2C37.63,60.44,37.65,60.12,37.68,59.73ZM61.5,14.89c-.33-1.2-.35-1.22-1-1.09.06.49.12,1,.19,1.5.68-.05,1.36,0,1.68-.73-.35-.94-.45-1-1-.88C61.42,14.07,61.7,14.44,61.5,14.89ZM39.72,59.4l-1.86.24v1.19l1.77-.17C39.66,60.24,39.69,59.87,39.72,59.4Zm6,5.62,1.87-.15.5-1.21a11.77,11.77,0,0,0-1.34,0,.79.79,0,0,0-.53.31A7.28,7.28,0,0,0,45.74,65ZM16.19,63.08l-.77-.37.65-.09-.89-.45.49-.1c-.19-.25-.09-.66-.49-.75l-1.31-.22C14.5,62.77,14.92,63.14,16.19,63.08ZM26,22.22l1.81.1c-.05-.48-.09-.86-.13-1.28H25.85C25.88,21.42,25.91,21.77,26,22.22ZM14,11.71a7.32,7.32,0,0,0-1-.19.61.61,0,0,0-.46.17,2.54,2.54,0,0,0-.57,1.39l.89.3Zm43.58,47.9A10.73,10.73,0,0,0,53,59,6.15,6.15,0,0,0,57.54,59.61ZM31,13.88a3.56,3.56,0,0,0-.39-.09c-.54-.07-.64,0-.78.47a3.46,3.46,0,0,0-.11,1.41l1.17.08C31,15.09,31,14.5,31,13.88ZM62.08,62.09a1,1,0,0,0,.08.14c.47-.11.94-.21,1.4-.34a.56.56,0,0,0,.33-.27c.18-.42.31-.85.49-1.36-.46.12-.91.12-1.14.34A5.29,5.29,0,0,0,62.08,62.09ZM13.15,63.4c.15.4.27.76.42,1.1,0,.12.18.28.3.3.49.1,1,.16,1.52.23C15.14,63.79,14.33,63.42,13.15,63.4ZM27.5,19.6l-1.8-.12c0,.42.08.78.12,1.16a5.35,5.35,0,0,0,1.78.05C27.57,20.31,27.54,20,27.5,19.6ZM39.35,65.36,41,65.23c.08-.42.14-.78.21-1.14H39.49C39.44,64.52,39.4,64.88,39.35,65.36Zm19.24,1.37a2.33,2.33,0,0,0,1.37-.2.47.47,0,0,0,.23-.21c.16-.38.3-.77.47-1.21a11.17,11.17,0,0,0-1.2.17.63.63,0,0,0-.38.32A12,12,0,0,0,58.59,66.73Zm.56-2.45,0-.08-1.64.32c-.66.12-.71.17-.88,1,.74-.11,1.47-.19,2.18-.34.15,0,.26-.29.39-.45l-.08-.07-.41.23-.06-.08ZM8.61,52.82l-2.35-.23a.56.56,0,0,0,.43.72A7.83,7.83,0,0,0,9,53.77C8.84,53.42,8.73,53.14,8.61,52.82ZM7.53,27.91c-.54.5-1.06,1-1.61,1.49a5.11,5.11,0,0,0,.68.3A.54.54,0,0,0,7,29.65c.47-.42.91-.88,1.41-1.37ZM38.71,67.85a7.17,7.17,0,0,0,2.19-2H39.27C39.09,66.47,38.92,67.08,38.71,67.85Zm.52-3.75H37.65c0,.43-.06.83-.09,1.24H39C39.08,64.93,39.15,64.57,39.23,64.1Zm4.68,1c.41,0,.78,0,1.15,0a.55.55,0,0,0,.39-.18c.22-.34.38-.72.59-1.11-1.47,0-1.47,0-2.08,1.11A1.47,1.47,0,0,0,43.91,65.09Zm6.51,1.59c-1.11.14-2.2.26-3.28.42-.28,0-.22.27-.17.49l2.73-.15C50.14,67.42,50.39,67.21,50.42,66.68Zm-9.09-1.42,1.5-.07c.09-.45.17-.83.26-1.3L41.54,64C41.47,64.44,41.41,64.8,41.33,65.26ZM55.56,67,56,65.85c-.52.09-.92.19-1.33.23-.63,0-.88.42-1,1.06Zm-4.5-25.59c-2.74.41-3,.51-3.43,1.09A3.94,3.94,0,0,0,51.06,41.44ZM68.33,28.27l1.43,1.21.84-.6c-.49-.43-.94-.81-1.42-1.21ZM44.68,67c.57,0,1,0,1.51-.09.73-.08.74-.1.86-.9h-1.5a.43.43,0,0,0-.2,0,.78.78,0,0,0-.3.23C44.92,66.47,44.84,66.69,44.68,67Zm-29-54.8A2.5,2.5,0,0,0,15.22,14l.7.12c.27-.6.51-1.16.78-1.78ZM34.41,67.54c-.13-.59-.24-1.08-.35-1.56H32.89c.11.51.21,1,.33,1.44ZM24.2,21v1.14l1.48.13c0-.46-.05-.85-.07-1.27Zm2.89-5.16H24.74c.14.29,0,.67.43.71.66.06,1.32.08,2,.13C27.16,16.32,27.13,16.11,27.09,15.79ZM71.81,28l-1.72-.89-.69.43,1.4,1.22Zm-3.64.15c.25-.26.62-.33.77-.68l-1.33-1-.9.67ZM66.82,57.57l.86-.34a1.45,1.45,0,0,0,1-1.55C67.8,56.05,66.8,56.28,66.82,57.57ZM9.56,28.67l-.79-.27-1.5,1.45c.76.44.76.44,1.26-.09ZM66.29,59.23c1.52-.66,1.55-.74,1.78-1.87C67.1,57.61,66.25,58,66.29,59.23ZM22.33,6.1l-1.81-.25c0,.37,0,.66.05,1l.7.12A4.41,4.41,0,0,0,22,7c.14,0,.24-.25.45,0C22.4,6.67,22.37,6.42,22.33,6.1ZM17.18,65.24c-.31-1.16-.77-1.47-1.94-1.29C15.82,65.17,15.78,65.23,17.18,65.24Zm13.3,2h1.19c-.24-1.62-.07-1.32-1.36-1.35,0,0,0,0-.09,0C30.3,66.37,30.38,66.78,30.48,67.28ZM24.16,20.61h1.4c0-.4-.06-.74-.09-1.14h-1.4ZM9,60c.26.53.51,1,.73,1.52a1.21,1.21,0,0,0,1.11.69,8,8,0,0,1-.35-.93A1.5,1.5,0,0,0,9,60Zm47.5,4.69L54.59,65l-.36.93a9.61,9.61,0,0,1,1.34-.27C56.2,65.64,56.38,65.25,56.53,64.68Zm9-3.6c1.23-.38,1.42-.66,1.87-2.08-.41.2-.78.36-1.14.57a.8.8,0,0,0-.29.34C65.8,60.29,65.67,60.68,65.52,61.08Zm-8.67-52c-.19-.54-.5-.22-.84-.17.06.4.1.75.15,1.11,1.43-.13,1.45-.15,1.32-1.36l-.55.07C56.9,8.88,56.88,9,56.85,9.09ZM21.78,15V13.17c-.34.19-.47-.49-.92-.16l.12,1.9a2.52,2.52,0,0,0,.37.08ZM18.57,64.42c.44,1.23.54,1.28,1.87,1.21a4.77,4.77,0,0,0-.18-.7.53.53,0,0,0-.31-.3C19.5,64.53,19.05,64.49,18.57,64.42Zm-7.06-1.56c.6,1.51.59,1.61,1.73,1.68C12.78,63,13,63.25,11.51,62.86ZM29,67.12c-.11-.46-.21-.86-.31-1.31H27.37c.06.16.09.26.13.36s.09.25.13.38c.16.54.16.54.7.57ZM27.37,15.81l.21.8,2,.09c0-.27-.07-.49-.1-.75ZM72.89,29,72,28.14l-.94.71.85.92ZM20.57,12.91a.5.5,0,0,0-.7.17,1.86,1.86,0,0,0-.22,1.63l.75.1C20.46,14.15,20.52,13.54,20.57,12.91ZM35.44,66h-1c.05.53.1,1,.15,1.52l.85.09ZM44.58,14.8v0l-1.68.08V15L48,14.84v-.08l-5.73-.28c0,.08,0,.15,0,.16ZM63.9,27l1.27.87.86-.61-1.16-.87ZM61.71,63.4c.27,0,.52-.12.78-.15.63-.07,1.1-.33,1.14-1.1a10,10,0,0,1-1.09.2C61.91,62.4,61.72,62.78,61.71,63.4Zm5.7-37.09-1.26-.8-.91.59L66.5,27ZM42,58.71h1.85V58H42ZM16.83,2a4.1,4.1,0,0,0,2.87.35,7.87,7.87,0,0,1-1.08-.51,1.19,1.19,0,0,0-1.47,0A3.59,3.59,0,0,1,16.83,2ZM18,66.88c-.25-.67-.25-.66-.73-.73l-.39-.07-1.44-.22c0,.34,0,.62.39.68Zm4.7-46.37,1.2.06c-.05-.46-.09-.82-.13-1.22H22.67C22.7,19.73,22.72,20.07,22.74,20.51Zm10.73-4.3L31.2,16c.06.29.1.49.14.73h2.17C33.5,16.56,33.49,16.42,33.47,16.21Zm-1.8,49.73c.12.51.22,1,.33,1.41l1,.05c-.13-.56-.25-1-.36-1.46ZM11.89,11.27l-.35-.54a1.79,1.79,0,0,0-.95,1.81l.47.17C11.33,12.23,11.6,11.78,11.89,11.27Zm2.88,49.3c-.27-.33-.53-.63-.75-1a.89.89,0,0,0-.95-.41c.19.49.35.94.55,1.38a.51.51,0,0,0,.63.24A3.4,3.4,0,0,0,14.77,60.57Zm42.57-56a5.27,5.27,0,0,0,2.11-1.09l-1.26-.76A2.19,2.19,0,0,1,57.34,4.53ZM18,66.3c.26.3.39.61.55.63.78.11,1.57.15,2.37.21,0-.38-.13-.55-.44-.54a5.91,5.91,0,0,1-.84,0c-.25,0-.49-.19-.75-.25A6.06,6.06,0,0,0,18,66.3Zm9.48.78c-.11-.51-.21-.93-.31-1.41l-1-.06c.14.51.25.94.36,1.36ZM10,26.91l-.77-.37-1.4,1.15.88.37Zm7.45-14.52c-.15,0-.36,0-.45.09a2.59,2.59,0,0,0-.67,1.7l.83.13Zm6.68-6.06-1.43-.18c0,.36,0,.65.05,1h1.5C24.16,6.87,24.13,6.61,24.09,6.33Zm37,57.51-.84.14c-.71.15-.78.24-.91,1.12a5.69,5.69,0,0,1,.83-.22C60.77,64.83,61,64.48,61.1,63.84ZM71,32.94,69.6,34c-.23.17-.2.36,0,.61l1.64-.72C71.16,33.54,71.11,33.29,71,32.94Zm-14.77-9c0,.48-.06.93-.09,1.48l1.06-.4V23.83Zm7.93,37.76c1.16-.08,1.21-1,1.54-1.79-.46.11-.88.17-1.07.48A6.33,6.33,0,0,0,64.19,61.65ZM20.78,19.13c.09.47.15.83.23,1.23l.91.12c0-.41.08-.77.13-1.22ZM22.27,5.81c0-.33.12-.59-.21-.68-.52-.14-1-.25-1.63-.39,0,.32,0,.55,0,.82ZM23,22l1.1.07c-.05-.46-.09-.82-.13-1.22l-1.09-.05C22.87,21.24,22.91,21.6,23,22ZM11.52,55.32c-.1-.31-.17-.56-.25-.83l-1.54-.24C10.08,55.22,9.83,55.28,11.52,55.32ZM18,14.46l.77.07V12.66a.42.42,0,0,0-.63.33C18.08,13.46,18.06,13.94,18,14.46Zm4.13,51.38c-.08-.28-.16-.55-.25-.84l-1.3-.25C20.59,65.61,20.64,66,22.15,65.84ZM71.68,29.89,70.75,29l-.77.57.83.94c.17-.11.3-.19.43-.29ZM9.05,28.1l0,.19c.28,0,.63.16.8,0a3.39,3.39,0,0,0,1-1c-.35-.07-.61-.34-.92-.07Zm9.67,37.36c-.43-1.1-.53-1.18-1.63-1.22l.54,1.11,1,.15S18.68,65.47,18.72,65.46ZM22.43,3c-.47-.12-.95-.2-1.41-.36a2.78,2.78,0,0,0-1.68.07A4.13,4.13,0,0,0,22.43,3ZM16.12,25.29a3.19,3.19,0,0,0,1.18.37c0-.45-.07-.86-.11-1.3l-.78-.12Zm.3,6.52c1.28.4,1.28.4,1.9-.41L17,31C16.78,31.3,16.61,31.55,16.42,31.81Zm24.77,25,.07-.09-.06,0c-.75,0-1.5-.06-2.25-.07-.35,0-.71,0-1.06,0v.09l.68.21-.54.17a5.3,5.3,0,0,0,1.38,0Zm-11.27,7.6c0,1,0,1,.93,1.06l.48,0c-.09-.36-.16-.66-.23-1ZM23.81,8.67V7.53l-1-.13V8.52ZM57.46,4a1.17,1.17,0,0,0,.32-1.27L56.25,2.4Zm10.45,22.4,1.34,1,.64-.46c-.41-.28-.76-.53-1.13-.76S68.34,25.89,67.91,26.35ZM12.63,58.69c-.35-1.37-.5-1.51-1.46-1.33C11.51,58,11.54,58.85,12.63,58.69ZM29,65.92l.31,1.26h.91c-.09-.47-.18-.87-.26-1.26l-.66,0A2.19,2.19,0,0,0,29,65.92Zm-11.08-2.7c.19.52.19.53,1.15.78.31.08.63.11,1,.17,0-.25-.07-.43-.09-.64Zm43.87-39.3c-1,.43-1.14.64-.73,1.49C62,25.16,62.08,25.07,61.76,23.92ZM20.18,63a4.49,4.49,0,0,0,2.66.53c0-.18,0-.37-.05-.53Zm27.44,2.47.06.17,3.48-.49c.05,0,.08-.11.2-.29l-3.59.42C47.71,65.33,47.67,65.45,47.62,65.51ZM24,22.42,23,22.35c.05.44.09.79.14,1.19l.91,0ZM12,27.71l-.74-.31L10,28.56l.71.22Zm46.51-12a4.12,4.12,0,0,0,.62-.07.39.39,0,0,0,.23-.21A2.45,2.45,0,0,0,59,14l-.62,0A1.56,1.56,0,0,1,58.51,15.7Zm-2-12.42V3.06l-2.42-.54a.88.88,0,0,1-.05.15l1.81,1ZM22.74,8.82v.94l1.16.1c0-.22,0-.36,0-.49s-.07-.29-.11-.46Zm6.05,56.52h1.05c-.07-.36-.12-.65-.18-1l-1.11,0C28.64,64.68,28.7,65,28.79,65.34ZM14.86,14.21l-1.38-.3v.71l1.38.41ZM8.29,30.32c.29,0,.47.08.55,0,.54-.41,1.05-.85,1.61-1.31-.34-.16-.57-.35-.82-.09C9.21,29.36,8.81,29.79,8.29,30.32ZM24.53,16.26c.06-.45-.1-.56-.4-.55H22.67a2.29,2.29,0,0,0-.49.14C23,16.37,23.78,16.14,24.53,16.26ZM20.06,5.36h.08V4.65l-1.46-.31c0,.36,0,.62.05.89l.94.15c.06-.21.1-.35.15-.5h.1C20,5.05,20,5.2,20.06,5.36ZM32.55,64.57c.09.38.14.62.2.88H34l-.13-.75ZM60.23,6.17c0,.5-.1,1-.16,1.63.35-.22.69-.31.74-.48A7.41,7.41,0,0,0,61,5.9ZM27.8,17c.06.28.12.49.4.49H30c-.18-.45-.18-.48-.48-.49C28.93,16.94,28.38,17,27.8,17Zm28.51-5.71L57.42,11v-.87l-1.26.26C56.22,10.68,56.26,10.93,56.31,11.24Zm7.17,49,.07.11c.32-.12.77-.14.93-.37A3.22,3.22,0,0,0,65,58.36C64.22,58.86,64,59.68,63.48,60.21ZM22.26,19a1.74,1.74,0,0,0,.11-.18c-.09-.1-.17-.27-.27-.28a13.67,13.67,0,0,0-2.31-.18c0,.44.24.4.49.38s.27-.1.34-.06C21.14,19,21.72,18.87,22.26,19ZM59.72,15.5c.62-.37.67-.84.18-1.72l-.63.08C59.43,14.45,59.57,15,59.72,15.5ZM15.57,23.81a2.6,2.6,0,0,0,0-1.41l-.73-.17v.87l.43-.17-.51.67ZM35.41,64.05c.07.2.13.36.18.52l1.7.13c0-.26,0-.42,0-.65ZM13.51,26.38c-.9-.36-1.09-.29-1.64.6C12.44,27.32,12.56,27.46,13.51,26.38Zm-.19,34.29c0-.06,0-.09,0-.1l-.3-.87C12.82,59,12.79,59,12,59c.36.55.68,1.07,1,1.57C13,60.66,13.21,60.65,13.32,60.67Zm44-48.57c0-.25,0-.53,0-.86l-1.1.26c.06.41.1.76.15,1.12Zm-13,55.57c.77,0,1.43,0,2.07,0,.28,0,.33-.24.23-.52-.7.06-1.37.11-2,.19C44.5,67.34,44.45,67.49,44.32,67.67Zm-8.8-51.3-1.72-.13c0,.22,0,.38,0,.59h1.68ZM48.5,1.3a.42.42,0,0,1,0,.1c.07,0,.12.12.19.13L51.86,2a1.47,1.47,0,0,0-.8-.46C50.21,1.44,49.35,1.38,48.5,1.3Zm-32.4,14,1.3.25c-.08-.38-.14-.65-.21-1l-1-.11C16.16,14.76,16.14,15,16.1,15.29ZM35.65,64.86l.11.62c.43,0,.8,0,1.17,0s.36-.23.33-.57Zm-1.49-.78c0-.07,0-.13,0-.2l-1.75-.21.1.68,1.25.08c0-.14.07-.26.11-.38ZM57.49,23.75c0,.4-.05.74-.08,1.1,1.12-.24,1.21-.14.84-1.25ZM21.23,7.22c.07.42.13.76.19,1.14l.88.09c-.07-.44-.12-.79-.18-1.15ZM56.61,8.55a2.9,2.9,0,0,0,.06-.43c0-.24,0-.47,0-.71-.93.17-1,.21-.81,1.14ZM21.73,63.76l-1.44-.18c0,.31-.07.61.24.69a10.4,10.4,0,0,0,1.2.19ZM65.05,26l.84-.62-1-.56-.65.51ZM21.38,24.83l-.83-.1c.06.44.1.78.15,1.13l.91.14-.13-1A.9.9,0,0,0,21.38,24.83ZM48.5,57.7a3.35,3.35,0,0,0-2.82,0C46.67,57.63,47.58,58,48.5,57.7ZM10.3,62.43c.41,1.23.66,1.52,1.41,1.63-.14-.31-.29-.6-.4-.91A1.08,1.08,0,0,0,10.3,62.43Zm1.19-36.77c-.86-.39-.75-.45-1.63.43l.6.43Zm13.94-8.53-.07.13c.1.06.19.17.3.18l1.9.16s.06-.05.13-.11c-.09-.15-.18-.32-.27-.49Zm41.51,7.78-.53.44,1.26.82c.16-.13.3-.25.49-.39ZM55.06,16.3c0-.48-.05-.88-.07-1.32l-.68.18c0,.44-.05.85-.07,1.31ZM20,8.09c-.06-.45-.1-.77-.15-1.1l-.91-.15c.08.43.14.75.2,1.1ZM19.74,3.3a2,2,0,0,0-2.23-.24A2.64,2.64,0,0,0,19.74,3.3ZM31.46,17l-.1.19c.1.11.2.31.31.32a9.34,9.34,0,0,0,1.95-.09c-.11-.17-.15-.28-.2-.29ZM64.94,62.66a2.59,2.59,0,0,0,1.45-1.57A1.64,1.64,0,0,0,64.94,62.66Zm-9.67-51v1.05l.91-.05c0-.42-.1-.78-.15-1.16ZM17.38,19a7.23,7.23,0,0,0,.24,2.08c0,.09.24.15.36.23l.12-.1c-.16-.72-.33-1.44-.5-2.16C17.59,19,17.48,19,17.38,19ZM12.56,64.83c.52,1,.83,1.23,1.44,1.3C13.71,65.49,13.57,64.74,12.56,64.83Zm6.72-55.3c0,.3.09.6.13.89.17,0,.3.08.43.1s.28,0,.42,0C20.27,9.55,20.25,9.53,19.28,9.53Zm12.06,55c.1.38.18.66.26.94h.92c-.07-.33-.13-.6-.2-.86ZM21.06,20.69c.08.43.13.76.2,1.12l.78.05c0-.41-.08-.75-.11-1.09Zm33.84-9-.82.13c0,.34.05.64.07,1l.75-.09Zm-38.77,4c0,.22,0,.39.07.59l1.54.21C17.48,15.76,17.48,15.76,16.13,15.63ZM12.55,55.55c0-.33,0-.61-.05-.91l-1.09-.12c.13.37.23.65.32.92ZM54.86,11.49V10.41l-.76.05v1.07Zm-24.92,5.2a3.85,3.85,0,0,0,.54,0,4,4,0,0,0,.5,0c0-.73-.11-.78-1.19-.64C29.84,16.24,29.88,16.44,29.94,16.69ZM18.88,5.54c-.14,1-.06,1,.85,1.06V5.73Zm36.85-3a7,7,0,0,0-3.11-.66A14.23,14.23,0,0,0,55.73,2.52ZM51.56,65.17l2.85-.48c.06,0,.09-.16.14-.27A6.14,6.14,0,0,0,51.56,65.17Zm6-58c-.7.16-.71.18-.63,1.3l.63-.15ZM13.08,27.39c.42.13.71.24,1,.31a.39.39,0,0,0,.33-.12.46.46,0,0,0,0-.41,3.29,3.29,0,0,0-.44-.52ZM22.73,10c.06.31.1.54.16.8l1,.09v-.77ZM20.28,22c0,.41.09.77.14,1.15l.77.1c-.08-.44-.14-.78-.2-1.13Zm-.38-2.88c0,1.13,0,1.22.79,1.14-.05-.28-.1-.56-.16-.84S20.25,19,19.9,19.11Zm38.34.26v.88l.94-.23c0-.32,0-.56-.07-.84ZM15.35,31.53c.81.33.81.33,1.3-.52C16,30.6,15.63,30.67,15.35,31.53ZM10.14,11l2-1.19C10.83,9.91,10.35,10.17,10.14,11ZM59.57,23.34l-1,.17c0,.33,0,.58.08.9l1-.38C59.63,23.81,59.61,23.62,59.57,23.34ZM26,66.21H24.85c.07.25.13.44.19.64l1.17.1ZM21.32,22.15c.06.42.1.78.16,1.18h.61C22.18,22.31,22.12,22.19,21.32,22.15ZM53.47,58.72a4.25,4.25,0,0,0-2.54-.24A3.77,3.77,0,0,0,53.47,58.72Zm6.47-34c0,.28.06.5.1.71.1.5.19.52.84.12l-.42-.16c.43-.31.26-.61.16-1ZM34.4,65.43h1v-.64l-1-.06Zm30.51-3.66c-1,.23-1,.28-1.11,1.13C64.56,62.78,64.56,62.78,64.91,61.77ZM33,4.37l-4.82-.44A19.54,19.54,0,0,0,33,4.37Zm4.54,12.8a1.64,1.64,0,0,0,0,.22c.63,0,1.25,0,1.88,0,.31,0,.27-.21.16-.46ZM17.19,24c0-.21,0-.43,0-.65s.07-.56-.28-.58-.29.32-.34.54C16.39,24,16.44,24,17.19,24Zm0-15c.06.41.11.74.17,1.1l.69.06C18,9,17.88,9.13,17.18,9Zm5.76,2.09c.07.85.13.89,1.06.75,0-.23-.05-.45-.08-.69ZM54.36,20V21l.73-.13v-1ZM44.92,1.29A4.68,4.68,0,0,0,42.59.87,3.34,3.34,0,0,0,44.92,1.29ZM17.64,5.05l.75.06c0-.88-.06-1-.94-.91C17.51,4.46,17.57,4.72,17.64,5.05Zm-5.1,52.38c.09,1.13.32,1.46,1,1.43C13.19,58.4,13.29,57.69,12.54,57.43ZM10.81,26.62l.57.25.95-.88C11.76,25.72,11.76,25.72,10.81,26.62Zm5,5.9c.92.47,1,.46,1.46-.2L16.21,32Zm4.5-7.87-.71.05c0,1,0,1,.86,1C20.43,25.37,20.39,25.05,20.33,24.65ZM18.8,14.79l-.8,0c.06.37.11.65.16.93l.76.08C18.88,15.43,18.84,15.15,18.8,14.79ZM56.42,19.7c0,.34,0,.62-.05,1l.8-.2v-.91ZM43.32,63.92c0,.47-.25.82,0,1.29.56-.27.63-.83.94-1.33ZM22.63,5.86,24,6.05c-.08-.53-.27-.62-1.38-.72Zm-4.74.77.18,1.06.76.14-.18-1.07Zm-5,59.19c-.31-.45-.54-.84-.83-1.19a.59.59,0,0,0-.68-.16C11.77,65,12,65.68,12.85,65.82ZM19,9.48a1.56,1.56,0,0,0-.24-.1l-.45-.08c-.1.95,0,1.1.77,1.06C19.08,10.08,19.06,9.8,19,9.48Zm.86,53.68c-.72-.51-1.62-.28-2.4-.62.05.17.14.37.26.4A7,7,0,0,0,19.89,63.16ZM65.21,24.64l.94.58.6-.46-1-.55ZM58.55,60a3.56,3.56,0,0,0-1.86,0c-.06,0-.08.18-.14.34A4.87,4.87,0,0,0,58.55,60ZM16.77,6.35c.09.42.15.71.22,1l.75.16c-.06-.38-.1-.66-.14-1ZM20.1,20.61c.09,1.16.09,1.16.82,1l-.06-.44c0-.17-.06-.34-.09-.53ZM17.18,4.92c0-1,0-1-.89-1,.05.26.1.51.14.75a1,1,0,0,0,.26.13A4.4,4.4,0,0,0,17.18,4.92ZM12.33,24.63c-.56-.27-.78-.18-1.3.53l.82.3Zm43.78-4.89-.69.11v1l.69-.12Zm-2,3.39,1.09-.23c0-.22,0-.41,0-.67l-1,.18C54.18,22.65,54.17,22.84,54.16,23.13Zm8.32-2.77c0-.28-.08-.54-.12-.87l-.82.23c0,.3,0,.53.06.83ZM22.37,9.58q-.06-.39-.12-.81l-.7-.1C21.41,9.48,21.64,9.76,22.37,9.58ZM59.24,20.3l-1,.24c0,.29.08.52.12.76l.92-.23C59.27,20.83,59.26,20.62,59.24,20.3ZM17.53,24.38c0,.53-.19,1,.27,1.57.15-.52.26-.93.39-1.39ZM20,8.39l-.84-.1c0,.34.05.58.08.86l.91.12C20.1,9,20.06,8.71,20,8.39ZM24,64l-.87-.1c.05.31.09.54.12.79l.92.14C24.13,64.5,24.08,64.27,24,64ZM17.81,8.86c.1-.92,0-1-.77-1,0,.28,0,.56.07.86ZM25.88,66l.11-.13c-.11-.13-.19-.34-.32-.38a6.81,6.81,0,0,0-1.07-.13c.09.26.15.44.21.64ZM17.41,6.19c.13-.85,0-1-.87-1,.06.28.12.56.18.82ZM60.07,8c0,.4,0,.72-.08,1.06.72-.19.82-.38.67-1.27ZM17.82,6.29l.75.17c0-.35-.05-.62-.08-.93l-.76-.17C17.76,5.7,17.79,6,17.82,6.29ZM56.38,21.72l.84-.19c0-.3,0-.51,0-.78l-.79.18Zm-1.2-11.35v1l.85-.13c-.05-.36.15-.74-.37-1V11C55.23,11,55.48,10.55,55.18,10.37ZM14,23.41c.32.11.52.1.54-.22a6.19,6.19,0,0,0,0-.86c0-.21-.16-.31-.44-.21C14,22.52,14,22.94,14,23.41Zm41.2-2.27-.85.15c0,.29,0,.54-.07.85l.92-.2ZM51.21,57.31A6.4,6.4,0,0,0,49,57.18,2.71,2.71,0,0,0,51.21,57.31Zm-.2.87a2.49,2.49,0,0,0-2-.09A4.88,4.88,0,0,0,51,58.18ZM39.82,17.93c-.06-.09-.09-.22-.17-.25a6.47,6.47,0,0,0-2,.11A3.15,3.15,0,0,0,39.82,17.93ZM5.39,29.22,6.52,28l-.09-.1L4.79,28.91ZM58.74,8.36c-.3.41-.15.78-.18,1.22l.67-.19c0-.21.07-.39.09-.56s0-.33,0-.49c-.45-.12-.23.33-.42.43C58.86,8.65,58.81,8.54,58.74,8.36ZM15,15.87a1.59,1.59,0,0,1,.13-.13c-.07-.13-.1-.34-.2-.38-.42-.15-.85-.25-1.4-.41C13.8,15.83,14.49,15.64,15,15.87ZM45.39,1.07c.78.61,1.59.32,2.36.41A4.61,4.61,0,0,0,45.39,1.07ZM17.71,14.48c.12-.72.23-1.32.33-1.91-.23-.13-.34,0-.42.17A2.13,2.13,0,0,0,17.71,14.48ZM42.37,67.69c1,.26,1.42.16,1.69-.4C43.55,67.58,42.86,67,42.37,67.69ZM22.23,22.3c0,.41.06.77.09,1.17l.59-.06c0-.29-.06-.52-.06-.76S22.61,22.23,22.23,22.3ZM17.59,2.6l-.83-.34c-.47-.19-.47-.19-.84.24C16.74,2.92,16.75,2.92,17.59,2.6Zm1.28,5.57-.75-.12c0,.33.05.61.07.91l.75.12C18.92,8.75,18.89,8.5,18.87,8.17Zm2.89,2.56h.81L22.39,10l-.78-.09C21.66,10.19,21.71,10.44,21.76,10.73ZM23.3,66c-.07-.33-.13-.56-.18-.81l-.89-.11c.11.35.19.59.28.85ZM23,64.64c0-.27-.06-.5-.09-.73L22,63.8c0,.29,0,.51.07.75ZM19.4,22.9l.7.17c0-.42-.08-.76-.11-1.09l-.13,0-.14.19-.32-.28a1.28,1.28,0,0,0-.07.26C19.34,22.37,19.37,22.61,19.4,22.9Zm-.24-10.19a2.59,2.59,0,0,0,.08,1.83c.13-.57.26-1.16.41-1.8Zm40.3,7.16c.71-.05.75-.1.73-.91l-.78.15C59.43,19.4,59.44,19.64,59.46,19.87Zm2.89-.73c0-.21-.05-.46-.09-.76l-.77.26c0,.28,0,.51,0,.77l.65-.15S62.26,19.21,62.35,19.14ZM14.17,65.6c.23.8.34.87,1.17.76-.06-.19-.12-.38-.17-.57s-.32-.09-.48-.12Zm31.3.05c1.09.21,1.63.12,1.83-.27A3.69,3.69,0,0,0,45.47,65.65ZM17.32,26l-1-.33c0,.33-.09.62.29.72s.49.11.78.17C17.34,26.32,17.33,26.17,17.32,26Zm47.54-1.51.41-.34s0,0,0-.06c-.53-.5-.69-.5-1.21,0ZM21.28,16.33c0,.74.4.92,1.15.53C21.71,16.33,21.71,16.33,21.28,16.33ZM62.93,65.1c.68-.16.69-.83,1-1.27C63.16,64,63.09,64.05,62.93,65.1ZM20,16.25c.29.66.41.72,1.1.56C20.92,16.19,20.92,16.19,20,16.25ZM18.2,19c-.05.85,0,1,.64,1-.05-.35-.1-.68-.16-1.05Zm1.27,6.53c-.06-.32-.12-.58-.17-.83h-.1l-.18.49c-.08-.22-.09-.36-.18-.45a.78.78,0,0,0-.32-.14.85.85,0,0,0-.05.35C18.6,25.38,19,25.48,19.47,25.5Zm6.29-15.4c.52,0,.59,0,.59-.39s-.11-.55-.67-.5C25.7,9.49,25.73,9.77,25.76,10.1Zm10.09,6.75a2.33,2.33,0,0,0,1.31,0c.06,0,.08-.17.13-.3l-1.44-.1Zm6.24-2.23c-.38-.42-.88-.07-1.3-.25-.09,0-.22.06-.33.1a.76.76,0,0,0,0,.15A3,3,0,0,0,42.09,14.62Zm-21.45-4,.76.09c0-.33,0-.6-.07-.86C20.71,9.76,20.54,10,20.64,10.61ZM55.91,7.2c.7,0,.76-.1.75-.9L56,6.44C55.93,6.72,55.92,7,55.91,7.2Zm1.86,1.07c.38,0,.57,0,.56-.38s0-.61,0-1C58.17,7,58,7,58,7,57.89,7.44,57.84,7.84,57.77,8.27Zm.66,3.6.56-.21c0-.3,0-.57.08-.87C58.35,10.94,58.29,11.05,58.43,11.87Zm2.2,9,.72-.21c0-.3-.08-.54-.11-.81l-.61.12Zm2.64-2.67-.71.2c0,.3,0,.55.07.85l.64-.18ZM65.3,63c-.9.22-1.08,1-1.34,1.68ZM23.66,66h.81l-.19-.67-.84-.07Zm-.93,1.23c-.42-.61-1-.36-1.5-.44.07.19.18.41.31.43A9.26,9.26,0,0,0,22.73,67.23ZM59.33,21.4l-1,.2c.06.22.11.38.16.57l.92-.22Zm-2.14,1.08c0-.21,0-.4,0-.64l-.8.17v.68ZM22.6,11.76c0-.75-.06-.8-.78-.65C21.88,11.75,21.88,11.75,22.6,11.76ZM46,57.3a2.78,2.78,0,0,0-1.68-.16c-.06,0-.11.19-.21.39ZM22.69,22c0-1.05,0-1.06-.48-1.14v1.1Zm-2.12,2.35.81.11c-.06-.3-.1-.53-.16-.79l-.75-.07C20.5,23.83,20.53,24,20.57,24.31Zm40.68-4.84c0-.28,0-.49-.06-.78l-.72.22.18.72Zm-2.71,3.59,1-.32-.14-.44C58.44,22.47,58.44,22.47,58.54,23.06ZM15.89,32c-.76-.43-.77-.43-1.17.22.11,0,.21.09.32.12l.48.1ZM35.11,14.28,35,14.4a1.83,1.83,0,0,0,.41.18,1.49,1.49,0,0,0,1.22-.2,1.16,1.16,0,0,0-.32-.1ZM34.35,64.5h1c0-.2,0-.37-.06-.55h-.77C34.44,64.12,34.41,64.26,34.35,64.5ZM11.89,13.41c-.07.27-.21.54.09.72a4,4,0,0,0,.64.21c0-.26,0-.45.06-.65Zm7.59,10c0,.24,0,.47.05.72l.73.13C20.19,23.45,20.19,23.45,19.48,23.38ZM24.79,9.06l-.11,0c-.08.14-.17.29-.28.46-.08-.21-.14-.36-.2-.5l-.11,0c0,.28.06.56.09.89l.61.08ZM62.21,26.23c-.45-.21-.74-.36-1-.48a.23.23,0,0,0-.22.06c-.05.05-.07.21,0,.23a2,2,0,0,0,.65.41C61.7,26.49,61.9,26.35,62.21,26.23ZM16.09,4.57c-.13-.86-.13-.86-.74-.89C15.32,4.4,15.38,4.47,16.09,4.57Zm10.63,7.68h.68c-.06-.35-.12-.65-.18-1l-.55.2C26.69,11.73,26.7,11.94,26.72,12.25Zm35.93,9.17-.95.22c0,.18.09.34.14.54L62.7,22C62.68,21.77,62.67,21.64,62.65,21.42Zm1.54.94c-.32.36-.39.64-.19.79s.5.32.79-.06Zm-39.62,17s0,.09.05.13c1.65-.12,1.65-.12,2-.57Zm.37-27.27v-.8H24.3V12Zm32.61,0c.62-.17.66-.27.52-1C57.53,11.23,57.52,11.24,57.55,12.12Zm.17-2.46.14.13c.13-.1.35-.19.37-.31a4.63,4.63,0,0,0,0-.92l-.44,0C57.78,9,57.75,9.32,57.72,9.66ZM53.46,15.9H54v-.78l-.65.08C53.4,15.46,53.43,15.67,53.46,15.9ZM21.47,11h-.8c.06.23.11.41.15.55l.75.12C21.53,11.4,21.51,11.22,21.47,11ZM15.58,4.9c.07.79.19.91.77.81C16.23,5.05,16.23,5.05,15.58,4.9Zm4.19,10.68.9-.1a1,1,0,0,1,0-.17c-.13-.09-.24-.25-.38-.28a3.13,3.13,0,0,0-.69,0C19.68,15.21,19.72,15.38,19.77,15.58Zm41.76,7.27c-.84.13-.86.15-.65.74C61.63,23.44,61.7,23.35,61.53,22.85ZM25.79,11.2a6.73,6.73,0,0,0,.11.84.31.31,0,0,0,.25.15c.08,0,.23-.09.24-.16a1.13,1.13,0,0,0,0-.58C26.31,11.34,26.08,11.32,25.79,11.2ZM55.52,21.86c.67-.11.67-.11.5-.87l-.61.13c0,.17,0,.28,0,.39S55.48,21.71,55.52,21.86ZM25.75,19.05a2.24,2.24,0,0,0,1.72.09A3.84,3.84,0,0,0,25.75,19.05Zm29.58-.11c0,.26.05.44.08.64l.74-.12v-.52ZM21.06,8.26V7.19l-.45,0C20.67,8.13,20.67,8.13,21.06,8.26ZM55.06,60l.24.42c1,.05,1,.05,1.07-.42Zm6.51,2.68-.12-.08-1,1,.06.1.83-.18ZM24.07,18.83a1.06,1.06,0,0,0,1.35.18A1.76,1.76,0,0,0,24.07,18.83Zm.14-7.9.68.05c0-.27-.05-.46-.07-.69l-.61-.07Zm35-1.23-.7.23v.7l.63-.24C59.15,10.17,59.17,10,59.2,9.7ZM19.07,16.57c-.15-.59-.21-.63-.87-.51C18.33,16.57,18.33,16.57,19.07,16.57ZM37,14.38v.21a5.26,5.26,0,0,0,.89,0c.27,0,.59.18.89-.19A4.68,4.68,0,0,0,37,14.38Zm26.26,5.81V19.3l-.6.19c.06.28.1.52.15.77ZM59.09,8c.15-.06.28-.09.29-.13a2.84,2.84,0,0,0,.09-1.4C59,7,59.18,7.48,59.09,8ZM18.52,31.15l-1-.86-.32.55,1.14.37S18.42,31.18,18.52,31.15ZM55,19.07c-.66-.05-.66-.05-.62.59C55.09,19.67,55.09,19.67,55,19.07ZM15.22,14.3c0,.32.09.55.13.81l.51.07V14.4ZM24.7,66.85c-.12-.36-.06-.68-.49-.67s-.45.12-.38.5ZM18.47,20.36c0,.86,0,.94.43,1.06C19,20.64,19,20.55,18.47,20.36Zm43.2.48c0,.19,0,.33.08.47.84-.11.86-.12.68-.66ZM44.06,57.26a3.78,3.78,0,0,0-2,.16C43.63,57.55,43.63,57.55,44.06,57.26ZM58.6,8.17a1.64,1.64,0,0,0,.3-1.53C58.36,7.1,58.66,7.62,58.6,8.17ZM22.6,19a2.48,2.48,0,0,0,1.21,0c-.1-.45-.45-.32-.7-.34S22.64,18.52,22.6,19Zm-3.12-8.18c.05.21.08.37.13.56l.27-.24c.16.16.18.52.58.34,0-.17-.05-.36-.07-.56ZM30.18,17c.23.53.54.67,1,.44,0-.12,0-.3-.08-.31C30.79,17,30.48,17,30.18,17ZM20.75,8.59c0,.3,0,.53-.05.77l.3.1.18,0C21.26,8.7,21.26,8.7,20.75,8.59ZM17.19,62.35l-1.3-.8C16.09,62.33,16.16,62.38,17.19,62.35Zm1.09-39.78c0-.84,0-.85-.51-.95-.08.16.24.25,0,.51S17.86,22.51,18.28,22.57ZM67.85,35.16l0,.07,1.27-.49c.27-.1.22-.25.06-.48ZM39,14.48a1.28,1.28,0,0,0,1.27.13A1.37,1.37,0,0,0,39,14.48Zm21.74,7.45c0,.17,0,.32,0,.52l.78-.22c0-.21-.09-.35-.15-.53ZM26.6,10.48c0,.25,0,.41,0,.6h.63c0-.2,0-.36,0-.55ZM57.48,21.36c.21.15.39.08.59-.11,0-.21-.09-.41-.13-.62C57.49,20.75,57.49,20.75,57.48,21.36Zm-42.77-2.2c-.11.74-.11.74.49.76C15.2,19.31,15.2,19.31,14.71,19.16ZM17.64,23l-.14,0c-.14.91-.09,1.05.48,1.11Zm40.23-3.5c-.45.06-.45.07-.35.85C58,20.27,58,20.27,57.87,19.5ZM57.7,11c.22-.19.42-.28.48-.43a1.74,1.74,0,0,0,0-.61l-.49.16Zm-.07-4.9c-.49.17-.55.29-.44.86C57.68,6.76,57.68,6.76,57.63,6.07ZM18.33,23.78c.32-.51.29-.59-.31-.71,0,.44,0,.9.45,1.17,0,0,.11,0,.19,0Zm-2-6a.64.64,0,0,1-.1.13c.1.12.19.25.29.36l.43.43c0-.3.05-.55.08-.83Zm43.42-6.41c.6-.3.62-.34.51-1C59.7,10.45,59.91,10.93,59.78,11.37ZM16.26,30.55c.74.21.78.19,1-.52C16.85,30,16.63,30.3,16.26,30.55ZM17.5,10.48c0,.63,0,.65.7.57C18.14,10.57,18.14,10.57,17.5,10.48Zm42.79-4.7c.69-.22.69-.22.69-.66C60.29,5.17,60.29,5.17,60.29,5.78ZM14.07,62.54c-.26-1.22-.4-1.46-.84-1.48.17.25.33.49.47.74S13.94,62.29,14.07,62.54Zm.74-41.61v.63l.66.07c0-.23,0-.39,0-.57ZM14,25.06c-.17.31-.25.56.16.77l.5-.64Zm43.58-2.71c.63-.07.63-.07.45-.63C57.39,21.76,57.39,21.76,57.57,22.35Zm2.56,40.31c-.13.35-.23.63-.32.91l.08,0,.89-.9-.07-.11ZM56.45,18.9l.07.5c.74-.13.74-.13.62-.58Zm7.09,2.93c0-.16,0-.32-.08-.52l-.58.08c.06.21.1.39.16.61ZM56.32,23c.15.38.28.41.7.25s.24-.25.08-.45Zm3.18,2.46V24.9c-.67.16-.67.16-.66.53ZM15.51,24l-.77,0c0,.31.06.55.09.79l.17,0C15.15,24.59,15.29,24.36,15.51,24Zm18.27-6.93c.08.15.11.31.18.33a1.31,1.31,0,0,0,.59,0A1.37,1.37,0,0,0,35,17.2l-.06-.11Zm1.84.87a1.21,1.21,0,0,1,0-.19,3.66,3.66,0,0,0-1.61.07Zm23.9,2.31c0,.25,0,.5.07.79.38-.26.53-.74.33-.93ZM59.92,10c.57.09.54-.33.63-.64,0,0,0-.06-.09-.12l-.5.21C59.94,9.7,59.93,9.87,59.92,10Zm5.22,5c-.41-.1-.41-.1-1,.69ZM27.51,10.59c0,.21,0,.37,0,.55l.65,0c0-.2,0-.36-.05-.55Zm33,12.56c-.44.11-.44.11-.39.7C60.66,23.72,60.66,23.72,60.49,23.15ZM25.44,10c.13-.82.12-.87-.31-.85C25.09,10,25.09,10,25.44,10Zm-6.3,1.22c.13-.55.11-.57-.58-.5C18.6,11.19,18.6,11.19,19.14,11.25ZM56,22.1l-.57.09c0,.25,0,.43.05.62C56.07,22.74,56.07,22.74,56,22.1Zm5.73-5.74,0-.15-2,.31a.59.59,0,0,0,0,.13ZM25.2,67.16l0,.18a3.86,3.86,0,0,0,.57.12c.19,0,.43.15.56-.21Zm6.24.44v0l-2-.09v.13ZM58.23,19c.3,0,.67.13.92-.33C58.76,18.67,58.41,18.52,58.23,19Zm-.82,4.11.8-.08c0-.18-.05-.32-.08-.51C57.85,22.68,57.45,22.54,57.41,23.11Zm-35-3.8h-.24c0,.33,0,.67,0,1,0,.07.18.13.39.27C22.49,20.06,22.45,19.68,22.4,19.31Zm-6,.89c.07-.64.07-.64-.38-.68C16,20.1,16,20.1,16.35,20.2Zm-4.89-7.38.13,0,.69-1.44-.12-.06A3.38,3.38,0,0,0,11.46,12.82Zm51.8,10.41c0,.61,0,.61.49.6C63.74,23.25,63.74,23.25,63.26,23.23Zm-.43-7.77c.51-.07.94.12,1.21-.46C63.63,15.1,63.24,15,62.83,15.46Zm-41-.07c-.28-.27-.28-.27-.86-.15C21.18,15.57,21.21,15.57,21.86,15.39ZM59.11,5.68c-.52.16-.52.16-.43.75C59.12,6.25,59.12,6.25,59.11,5.68ZM19,22.87c.12-.83.09-.91-.3-1A1.14,1.14,0,0,0,19,22.87ZM36.1,17.76a1.3,1.3,0,0,0,1.25.1C36.93,17.52,36.5,17.76,36.1,17.76ZM7.43,27.39A1.9,1.9,0,0,0,8.7,26.3Zm9,18.1h-.12c-.09.3-.17.6-.28,1l.54-.29C16.56,45.94,16.52,45.72,16.47,45.49ZM61.32,21l-.63.15c0,.18,0,.31.06.45C61.4,21.45,61.4,21.45,61.32,21Zm2-.46c-.28,0-.56,0-.49.36s.34.22.6.15C63.36,20.82,63.32,20.67,63.28,20.49Zm-47.21,3,.15,0a6.43,6.43,0,0,0,.17-.76c0-.06-.13-.14-.2-.21s-.15.12-.16.18C16,23,16.05,23.27,16.07,23.53ZM55,14.47a3.7,3.7,0,0,0-.59,0c-.07,0-.15.14-.17.22s.09.16.15.17.41,0,.64,0C55,14.7,55,14.6,55,14.47ZM37.58,16.61v.19l1.52-.07v-.14C38.6,16.68,38.09,16.4,37.58,16.61ZM25.81,10.39c0,.65,0,.65.48.61C26.33,10.5,26.33,10.5,25.81,10.39ZM15,18.33c-.14-.67-.14-.67-.46-.74C14.56,18.24,14.56,18.24,15,18.33Zm37.32-1.06c.41-.07.87.07,1.25-.29A1.65,1.65,0,0,0,52.36,17.27Zm-35.82-7a3.55,3.55,0,0,0,.18.55.34.34,0,0,0,.3.07.32.32,0,0,0,.12-.27C17.12,10.34,16.89,10.28,16.54,10.3Zm36.13,4.93c.06.58.06.58.42.64C53.13,15.25,53.13,15.25,52.67,15.23Zm-4.9-1.89a1.5,1.5,0,0,0-1.31,0ZM17.61,63.56c-.26-.48-.38-.52-1.05-.4A1.75,1.75,0,0,0,17.61,63.56ZM59.41,18c-.07.3.07.38.27.33s.55,0,.49-.47ZM23.92,67c.25.53.58.43,1,.38C24.67,67,24.33,67.05,23.92,67ZM58.35,5.94c-.5.06-.51.09-.36.72C58.36,6.51,58.36,6.51,58.35,5.94ZM53.79,23.65s0-.1,0-.15c-.44-.11-.86.11-1.29.11a.57.57,0,0,1,0,.13ZM12.54,15.13c0-.23,0-.41-.08-.46a3.76,3.76,0,0,0-.57-.23C11.84,15,12.17,15,12.54,15.13Zm41.54,8.35c.73.11,1,.05,1.19-.29A3.15,3.15,0,0,0,54.08,23.48Zm-39.63.37-.15,0-.37.51.62.26ZM24.59,8.72h.16c.19-.7.17-.85-.23-1.09C24.54,8,24.57,8.37,24.59,8.72ZM15.2,26.08c.26-.41.26-.41.2-.72C14.83,25.59,14.79,25.72,15.2,26.08Zm1.45,3.35c-.18.31-.32.55-.47.79l.09.06.7-.48ZM65.52,57.09c-.19.35-.39.69-.59,1a.27.27,0,0,0,0,.12C65.26,58.07,65.26,58.07,65.52,57.09Zm-4-41.44c0-.05,0-.1,0-.14a2.39,2.39,0,0,0-1.34.35ZM15.31,20.71c-.06-.48-.06-.48-.61-.39C14.73,20.75,15,20.67,15.31,20.71Zm43.87-2.56c-.45-.09-.75-.11-1,.31A1.27,1.27,0,0,0,59.18,18.15ZM23.46,66.69a.94.94,0,0,0,0-.16L23,66.35l.38-.13-.61-.07v.44ZM7.51,31.49c.25-.21.5-.42.74-.64.05-.05,0-.16.08-.34A1.44,1.44,0,0,0,7.51,31.49ZM23.62,67.28C23.54,67,23.54,67,23,67,23.09,67.36,23.09,67.36,23.62,67.28Zm6-59c0,.68,0,.68.16.9C30,8.56,30,8.51,29.64,8.31ZM13.35,17.42c.14.47.14.47.48.52C13.83,17.64,13.85,17.35,13.35,17.42ZM13.09,24c.2.18.38.28.52,0s.09-.38-.13-.43S13.21,23.8,13.09,24ZM59.4,10.63l-.22.9C59.64,11.35,59.64,11.33,59.4,10.63Zm-3.74-.55c.33-.29.33-.43.14-1.2C55.74,9.37,55.7,9.73,55.66,10.08Zm8.59,53.05c-.67.07-.67.07-.75.55.22-.14.42-.26.62-.4A.67.67,0,0,0,64.25,63.13ZM16,21.2c0,.2-.15.44.17.51a.29.29,0,0,0,.25-.18C16.49,21.25,16.32,21.16,16,21.2ZM15,31.34l-.9.68C14.53,32.12,14.53,32.12,15,31.34Zm4.45-10.78h-.19c0,.33-.11.7.29,1C19.49,21.21,19.45,20.89,19.42,20.56ZM59.21,5.29a.94.94,0,0,1,0-.16,2.35,2.35,0,0,0-1.07.36l0,.13ZM36.1,17.3a.66.66,0,0,0,0,.14l1-.06C36.78,17.09,36.44,17.25,36.1,17.3ZM17.34,18.76l.15,0c.1-.32.1-.32-.23-.71C17.29,18.27,17.31,18.52,17.34,18.76ZM10.64,13a.87.87,0,0,0,.34.73C11.06,13.12,11.06,13.12,10.64,13Zm14.82-2c-.08-.2.26-.57-.27-.65C25.13,10.6,25.09,10.84,25.46,11Zm-.87,5.91a3,3,0,0,0-1.67,0ZM59.5,11.74c-.35.23-.35.23-.29.69C59.67,12.34,59.54,12,59.5,11.74ZM21.17,15.86V16l.84,0A.6.6,0,0,0,21.17,15.86ZM51.81,15s0,0,0-.06H50.45V15ZM24.18,7.66l-.14,0c.05.33-.1.68.12,1l.15,0C24.27,8.32,24.22,8,24.18,7.66Zm-7,21.05c.33.57.33.57.66.25Zm36.87-14a.65.65,0,0,0-.85.13A.61.61,0,0,0,54.06,14.7ZM25.47,12.07c0-.27.17-.57-.17-.85C25.25,11.58,25.16,11.86,25.47,12.07ZM13,14.74l-.14.06c0,.43,0,.43.51.45Zm49,8.33a3.54,3.54,0,0,0,.4-.21,2.19,2.19,0,0,0,.36-.3C62,22.59,61.94,22.63,62,23.07ZM17,39.62a.62.62,0,0,1,0,.13l1.14.18a.51.51,0,0,0,0-.13ZM24.3,5.76c.26.44.26.44.88.32ZM63.08,65.51l-.11-.1c-.41.14-.43.16-.39.7C62.78,65.88,62.93,65.7,63.08,65.51ZM19.76,20.64h-.14c0,.32-.09.67.3,1.05C19.85,21.25,19.81,21,19.76,20.64Zm40.48-9.22c-.5.31-.51.35-.28.92C60.05,12,60.12,11.79,60.24,11.42ZM13,9.27a1,1,0,0,0,.93,0,.77.77,0,0,0,0-.15Zm46.83-1-.15-.06-.09.95.15,0ZM58.91,12c-.32.05-.56.06-.56.4C58.76,12.42,58.76,12.42,58.91,12ZM19.53,16.09l-.14.08c0,.43,0,.43.44.53Zm38.42.7a.5.5,0,0,0,0,.12L59,16.73a.5.5,0,0,0,0-.12ZM14.38,21.55c.1-.32.14-.55-.17-.81C14.17,21.06,14,21.29,14.38,21.55ZM20.11,6.67l.17,0c-.09-.26.08-.58-.29-.91C20,6.13,20.08,6.4,20.11,6.67Zm2.19,59.9v-.16l-1-.1s0,.07,0,.1Zm-3-51.65H19.1c0,.25.08.5.11.75l.18,0C19.37,15.41,19.35,15.17,19.32,14.92Zm41,3.11c.39,0,.63.09.82-.22C60.87,17.66,60.66,17.72,60.36,18Zm-37.1-1.67,0,.11h1.21v-.11ZM59.4,18.58a.88.88,0,0,1,0,.16c.48,0,.48,0,.76-.28Zm2.54-3.17c0,.06,0,.13.05.19.22,0,.49,0,.71-.37ZM19.15,19.12a1.83,1.83,0,0,0,.05,1.1A1.49,1.49,0,0,0,19.15,19.12ZM29,67.52v-.1H28v.1ZM23.82,17.18a1.65,1.65,0,0,0,1.24,0ZM20.29,8.07l.14,0c-.06-.29,0-.62-.28-.85C20.2,7.49,20.24,7.78,20.29,8.07Zm-3.9,54.5c.37.3.47.31.91.12Zm1.34-47.9-.17,0a.79.79,0,0,0,.27.73C17.8,15.17,17.76,14.92,17.73,14.67Zm-2.23,3.8c.25-.55.24-.55-.17-.85C15.39,17.94,15.44,18.19,15.5,18.47Zm41.73.11V18.4a.62.62,0,0,0-.74.23Zm-46.91,6.7-.09-.11c-.5.29-.52.3-.76.79ZM58,12.46l0-.15-.85.21s0,.06,0,.09ZM26.72,67.28c.37.29.37.29.9.08ZM16,20.5c0,.3.06.43.32.4a.23.23,0,0,0,.14-.18C16.42,20.41,16.21,20.5,16,20.5Zm2,11.62.16.15.51-.61-.1-.09Zm1.55-12.06h.13l-.09-.86h-.11C19.47,19.49,19.49,19.77,19.52,20.06Zm38.1-.71c.14-.21.23-.32.3-.45s-.12-.12-.17-.11C57.5,18.8,57.49,19,57.62,19.35Zm-43.33-.28c-.14.22-.21.43.07.59C14.34,19.46,14.32,19.27,14.29,19.07Zm4.83,4.21-.18,0,.12.58.17,0C19.19,23.68,19.16,23.48,19.12,23.28Zm-6-9.45c-.22.22-.33.43,0,.76Zm48.3,3.84,0,.21.74-.19a.94.94,0,0,0,0-.16ZM6.9,40.68a.66.66,0,0,0-.6.66Zm4.63-27.4h-.15a.53.53,0,0,0,.15.66Zm52.58,7.55-.18.05.18.64.16,0C64.21,21.26,64.16,21.05,64.11,20.83Zm-38.06-4v-.05h-.76v.05Zm30.11,1.75c-.26-.12-.5-.16-.66.11Zm-.06,4.5c-.27-.07-.46-.07-.62.23C55.77,23.4,56,23.43,56.1,23.11Zm-3.67-8.34c.19.26.36.25.63,0ZM22,66.16s0,0,0-.08h-.82v.08ZM59.41,10.35c.34-.26.31-.47.2-.68l-.16,0C59.44,9.86,59.43,10.06,59.41,10.35Zm.27-4.82c-.27.24-.27.24-.14.6C59.59,5.93,59.63,5.73,59.68,5.53Zm2.48,12.66,0-.13-.66.13,0,.17Zm.83-2c-.47-.12-.47-.12-.74.17Zm.29,1.66-.09-.2-.62.25.06.16ZM16,18.57l.19,0c0-.2-.11-.4-.16-.59l-.1,0C15.92,18.17,15.94,18.37,16,18.57Zm47.62-2.63a1.54,1.54,0,0,1,.05.17l.52-.16s0-.09,0-.14ZM18.63,18.58l0-.2a.62.62,0,0,0-.7.08Zm-3.88,46.8s0-.06,0-.09l-.6-.11s0,.09,0,.13ZM16.22,19.3c.09-.35,0-.45-.36-.33Zm41-13.64.06.19.43-.17a.78.78,0,0,1,0-.14ZM20.43,9.27h.15c0-.21-.06-.42-.1-.62h-.11ZM63.2,17l0-.13-.58.12a.94.94,0,0,1,0,.16ZM29.76,9.6h-.09v.84h.09ZM15.94,25.79l-.35.36C16,26.31,16.06,26.23,15.94,25.79Zm-.22-.68c0-.13,0-.27.08-.4C15.54,24.78,15.4,24.87,15.72,25.11Zm44.81-6.72c.36.1.36.1.64-.15Zm-.33,4.17.2,0c0-.15.05-.29.06-.44s-.1,0-.2-.1C60.24,22.25,60.22,22.4,60.2,22.56Zm3.33,1.82.39.47C64,24.51,64,24.31,63.53,24.38Zm1.47-1-.09.17.44.21a.75.75,0,0,1,.07-.12Zm-44.86-7.5v.07h.62v-.07ZM59.85,6.92h0V6.49h-.06ZM15,26.52a1.17,1.17,0,0,0,.05-.11,1.06,1.06,0,0,0-.2-.12,2.35,2.35,0,0,0-.26,0v.11Zm.8-11-.18,0c0,.19,0,.35.28.51C15.86,15.83,15.84,15.68,15.81,15.53Zm48.26,8.93c.18.44.18.44.45.17ZM12.65,22.79l.12.11.3-.47L13,22.37Zm36.43-8.13a1.05,1.05,0,0,0-.3,0,.92.92,0,0,0-.21.13l0,.07Zm10.57,7.13h.17c0-.15.19-.31-.12-.56C59.68,21.48,59.67,21.63,59.65,21.79ZM17,19.65l.11,0c0-.15,0-.31-.05-.46h-.1C17,19.32,17,19.48,17,19.65Zm-2.82-1.56.13,0,0-.52h-.08Zm5.06,29.58-.07,0s0,.06,0,.06l.32.17a.25.25,0,0,0,0-.07Zm-5-27.18h.19l-.06-.38h-.13Zm5.56,11.88-.13-.12-.18.26.08.07ZM55.44,16.81v.06l.44,0v0ZM14.73,18.63l-.06.16.37.1,0-.1Zm35.32-3.94v0l-.33,0v.06ZM12.46,25.22a1,1,0,0,1,0,.17l.31-.05a.89.89,0,0,0,0-.17Zm1.28-2.32-.11-.07a3.42,3.42,0,0,0-.13.34l.09,0A1.77,1.77,0,0,0,13.74,22.9Zm1.23,5,.07-.13-.31-.14-.05.11A2.69,2.69,0,0,0,15,27.91Z"/><path class="cls-1" d="M46.69,42.2c.05-.39.37-.45.67-.53h0l-.39.41Z"/><path class="cls-1" d="M35.88,31.94c.08-.06.14-.16.22-.17,1.84-.2,3.67-.41,5.51-.58A76.65,76.65,0,0,1,51,31a47.89,47.89,0,0,1,6.45.47c.62.1,1.23.2,1.84.32a1.72,1.72,0,0,1,.43.25h0c-.85-.14-1.7-.32-2.56-.4-1.74-.17-3.49-.34-5.24-.41-2-.08-4-.09-5.92-.05-1.79,0-3.59.17-5.38.31-1.57.12-3.14.3-4.71.46Z"/><path class="cls-1" d="M34.34,32.22s0-.12,0-.12a2.76,2.76,0,0,1,1.53-.16h0l-1.53.29Z"/><path class="cls-1" d="M33.36,32.23c-.29.34-.7.2-1.07.23l1.08-.22Z"/><path class="cls-1" d="M67.32,33l-.84.52-.07-.14.93-.37Z"/><path class="cls-1" d="M64,28.67l-.54.41a.64.64,0,0,0-.08-.14l.63-.26Z"/><path class="cls-1" d="M34.34,32.22h-1l1,0Z"/><path class="cls-1" d="M63.89,46.44c-.11.58-.56.82-1,1a1.35,1.35,0,0,0-.69.9q-.91,2.86-1.87,5.71c-.24.72-.54,1.42-.81,2.13-.11.31-.18.63-.28,1,0,.14-.1.27-.21.55a3.13,3.13,0,0,1,.26-1.51C59.88,54.6,60.48,53,61,51.37c.38-1.08.71-2.19,1.07-3.34l-.21,0c-.77.15-1,.74-1.21,1.41-.51,1.65-1.09,3.29-1.62,4.95-.16.46-.26.94-.39,1.42-.28,0-.19-.24-.14-.4l1-3.18c.39-1.2.77-2.41,1.17-3.66-1,.22-1.88.45-2.81.62a16.31,16.31,0,0,1-4.93.15c-1.77-.22-3.53-.47-5.31-.64-.86-.08-1.73,0-2.74,0a8.48,8.48,0,0,0,2.23.56l2.15.46c.74.17,1.47.4,2.21.53s1.46.19,2.19.25a7.05,7.05,0,0,1,2.18.31,3.23,3.23,0,0,1-1.76.45l.41-.41s-.07-.06-.1-.06a28.79,28.79,0,0,1-6.63-1.15c-.85-.2-1.71-.31-2.56-.47a1.06,1.06,0,0,1-.94-.67c.27,0,.49-.11.71-.12a27.32,27.32,0,0,1,4.61.28c1.6.22,3.22.44,4.84.53a16.71,16.71,0,0,0,4.76-.55,11,11,0,0,0,4.43-2.09A2.39,2.39,0,0,1,63.89,46.44Z"/><path class="cls-1" d="M44.42,51.11a1.32,1.32,0,0,1-1,.43c-.32,0-.52-.2-.51-.54s.25-.66.54-.62A1,1,0,0,1,44.42,51.11Zm-1-.17.08.16.3-.18s0-.11,0-.1Z"/><path class="cls-1" d="M62.25,50.1l.42-.29a1.35,1.35,0,0,1,.63,1.09C62.59,51.12,62.51,51.06,62.25,50.1Z"/><path class="cls-1" d="M34.08,54.57c-.68.16-.77.14-1-.2-.1-.19-.16-.39.05-.53a.47.47,0,0,1,.61,0C34,54,34,54.13,34.08,54.57Z"/><path class="cls-1" d="M58.87,51.45l-.72,2.77a4,4,0,0,1-.32.92,1.61,1.61,0,0,1,0-.44c.28-1,.58-2.05.89-3.07,0-.07.1-.12.16-.17Z"/><path class="cls-1" d="M62,56.74c-.09.36-.19.72-.28,1.08C61.77,57.46,61.87,57.1,62,56.74Z"/><path class="cls-1" d="M64.76,53.9c-.06.18-.11.36-.16.54l-.1,0c0-.18.1-.35.14-.53Z"/><path class="cls-1" d="M58.89,51.46c0-.19,0-.37.08-.55l.18.06c-.09.16-.18.32-.28.48Z"/><path class="cls-1" d="M18.25,46.84c-.24.18-.48.36-.71.55A8.53,8.53,0,0,0,14.39,53a5.51,5.51,0,0,0,.18,2.77,7.55,7.55,0,0,0,1.87,3.34,5.27,5.27,0,0,0,2.31,1.16,22.12,22.12,0,0,0,2.83.37,8.64,8.64,0,0,0,3.14-.53A7.26,7.26,0,0,0,28,57.91a7,7,0,0,0,1.92-5,6.34,6.34,0,0,0-.59-2.44,7.58,7.58,0,0,0-4.07-4A7.17,7.17,0,0,0,21.7,46a1.15,1.15,0,0,1,.86-.33,6.83,6.83,0,0,1,5.81,2.73,7.46,7.46,0,0,1,.95,1.37,6.64,6.64,0,0,1,.94,3.7,8,8,0,0,1-2,4.68,8.75,8.75,0,0,1-8.08,2.69,8.25,8.25,0,0,1-3-.87,4.62,4.62,0,0,1-2.1-2.16,17.19,17.19,0,0,1-.91-2.28,7.34,7.34,0,0,1,.31-4.27,8.11,8.11,0,0,1,2.83-4,7.81,7.81,0,0,1,.88-.52A1,1,0,0,0,18.25,46.84Z"/><path class="cls-1" d="M24.4,54.7a1.21,1.21,0,0,0,1.71.09,11.15,11.15,0,0,0,.79-.89c.08-.08.24-.17.32-.14s.16.24,0,.38a12.78,12.78,0,0,1-.91,1,1.1,1.1,0,0,1-1,.27c-.39-.08-.78-.18-1.25-.29-.08.1-.2.24-.32.4a1.23,1.23,0,0,1-1.54.36,1.36,1.36,0,0,1-.74-1.43s.06-.05.16-.13l.19.52c.33.85.79,1,1.43.33l.3-.32a5.3,5.3,0,0,1-1.07-5c.34-1.43,1-1.54,2-.75a2.64,2.64,0,0,1,1,2.24,5.46,5.46,0,0,1-.68,2.48C24.64,54.09,24.53,54.38,24.4,54.7Zm-.46-.34a17.78,17.78,0,0,0,.73-1.74,4.25,4.25,0,0,0,0-2.57,1.66,1.66,0,0,0-.86-1,.49.49,0,0,0-.69.17,2.11,2.11,0,0,0-.37,1.46A5.8,5.8,0,0,0,23,51.88,6.5,6.5,0,0,0,23.94,54.36Z"/><path class="cls-1" d="M18.18,52.64a4,4,0,0,1,2.38,1.29,1.63,1.63,0,0,1,.35,1.44c-.09.39-.23.77-.35,1.15,0,.12-.14.27-.1.36.11.29-.09.43-.26.54a7.68,7.68,0,0,1-.95.48,1.77,1.77,0,0,1-1.95-.46A2.56,2.56,0,0,1,16.74,54a10,10,0,0,1,.89-1.06A1.86,1.86,0,0,1,18.18,52.64Zm2.26,2.67A2.41,2.41,0,0,0,18.71,53a1,1,0,0,0-1.08.34,8.34,8.34,0,0,0-.77,1.16,1.5,1.5,0,0,0,0,1.53,5.13,5.13,0,0,0,.95,1.18,1.27,1.27,0,0,0,1.55,0A2.45,2.45,0,0,0,20.44,55.31Z"/><path class="cls-1" d="M21.31,52.67a.52.52,0,0,1,.5.58c0,.19,0,.42-.31.42s-.59-.35-.51-.57A1.46,1.46,0,0,1,21.31,52.67Z"/><path class="cls-1" d="M10,42a2.37,2.37,0,0,1-1.47.43c-.51-.06-1-.16-1.56-.26a1.83,1.83,0,0,1,1.26-1c1.2-.2,2.42-.32,3.63-.46a3,3,0,0,1,.65.09,1.41,1.41,0,0,1-1.12.56c-.57,0-1.15-.06-1.73,0a8.48,8.48,0,0,0-1.5.22c-.16,0-.29.23-.5.4C8.46,42.45,9.2,42,10,42Z"/><path class="cls-1" d="M9,34.25l.77-.83A1.87,1.87,0,0,1,9,34.25Z"/><path class="cls-1" d="M11.32,31.75c-.19.26-.37.52-.56.77l-.1-.08c.18-.27.33-.56.67-.68Z"/><path class="cls-1" d="M42.34,12.7h-.69v-.06h.69Z"/><path class="cls-1" d="M34.39,9l.86-.15s0,.1,0,.14h-.87Z"/><path class="cls-1" d="M34.52,7.88l.82-.11a.41.41,0,0,1,0,.11Z"/><path class="cls-1" d="M20.55,29.62a2.81,2.81,0,0,1,0-.29l1.06.16a.11.11,0,0,1,0,.05Z"/><path class="cls-1" d="M19.48,30.56c.27-.25.45-.62.87-.69Z"/><path class="cls-1" d="M43.24,27.13l.63-.06v.11l-.63-.06Z"/><path class="cls-1" d="M33.92,23.8s0-.11.06-.11a2.18,2.18,0,0,1,1.55,0h0l-1.62.09Z"/><path class="cls-1" d="M33.91,23.79h-1v-.08l1,.09Z"/><path class="cls-1" d="M47.86,24h.43s0,0,0,0h-.42Z"/><path class="cls-1" d="M53.25,4.83c-.32.09-.63.19-1,.27L52,5.17h0a1.67,1.67,0,0,1,1.26-.33Z"/><path class="cls-1" d="M52.23,5.45h-.57v0l.59,0Z"/><path class="cls-1" d="M52,5.17l-.82.06V5.11l.83.07Z"/><path class="cls-1" d="M50,21a2.14,2.14,0,0,1,1.63,0Z"/><path class="cls-1" d="M31,63.56c-.78,0-1.56.08-2.33,0-1.07-.07-2.12-.23-3.18-.36a3.18,3.18,0,0,1-.53-.14L25,63l6,.6Z"/><path class="cls-1" d="M38.71,2.23,40,2.14V2.3l-1.29-.09Z"/><path class="cls-1" d="M46.27,2.7l.52.13a1,1,0,0,0-.07.15l-.44-.29Z"/><path class="cls-1" d="M14,32.83l-.47.67-.14-.1.59-.58Z"/><path class="cls-1" d="M45.63,42.73l-1.3.68Z"/><path class="cls-1" d="M48.15,41.12a1.06,1.06,0,0,1-.8.54h0l.8-.53Z"/><path class="cls-1" d="M46.29,42.26c-.07.39-.42.39-.69.49Z"/><path class="cls-1" d="M48.16,41.14a.92.92,0,0,1,.22-.22,2,2,0,0,1,.33-.15l.06.14-.62.21Z"/><path class="cls-1" d="M64.88,12.73c.52.09.71.54,1,.89.12.17.21.36.34.58l-.24.15a2.26,2.26,0,0,0-.67-1.19Z"/><path class="cls-1" d="M66.52,29c-.3,0-.43-.2-.56-.42Z"/></g></g></svg>