<svg xmlns="http://www.w3.org/2000/svg" viewBox="0 0 118 114.5"><defs><style>.cls-1{fill:#ffece6;}.cls-1,.cls-2{fill-rule:evenodd;}</style></defs><title>rocks_1</title><g id="Layer_2" data-name="Layer 2"><g id="BACKGROUND_1" data-name="BACKGROUND 1"><path class="cls-1" d="M54.88,79.9c-.19.73-.08,1.16.32,1.16,1.55,0,3.14.39,4.61-.47a1.47,1.47,0,0,1,1-.14A13.9,13.9,0,0,0,67.27,80a3.76,3.76,0,0,1,.57,0c.41.09.3.44.39.68a.68.68,0,0,0,.8.48,3.29,3.29,0,0,0,1-.29c.62-.29,1.22-.62,1.83-.95a17.32,17.32,0,0,1,4.5-2,18.38,18.38,0,0,1,2.35-.83c.06.93-1,1.07-1,1.83a.53.53,0,0,0,.71.45,2.17,2.17,0,0,0,.73-.36c.78-.57,1.53-1.18,2.3-1.75,1.33-1,2.63-2,4-2.89a3,3,0,0,1,2.88-.58,1.14,1.14,0,0,0,.94-.22,6.78,6.78,0,0,1,2.87-1.41c.26-1.13-.67-.88-1.13-1.21a1.07,1.07,0,0,1,.7-1.08c1.78-.68,3.5-1.57,5.51-1.32a10.64,10.64,0,0,1,2.57.64c1.28.5,2.55,1,3.83,1.47a9.24,9.24,0,0,1,2.86,1.59c1.38,1.16,2.81,2.23,4.13,3.44a15.13,15.13,0,0,1,4.91,9.18l0,0-.83.16a12.08,12.08,0,0,1-.56,3.71,14.62,14.62,0,0,1-2.12,4c-.59.75-1.21,1.49-1.8,2.24a5.62,5.62,0,0,1-2,1.68,4.91,4.91,0,0,0-.83.57c-.07-.25-.26-.56-.19-.75a7.8,7.8,0,0,1,1.25-2.31l.89.09A25.42,25.42,0,0,0,112,87.77l0,0a16,16,0,0,0,1.9-3.35c-.34-.72-.65-1.37-1.1-2.3a15.15,15.15,0,0,1-.45,2.74,3.93,3.93,0,0,1-1.73,1.9c-.09-.16-.17-.23-.16-.27.24-.73.51-1.45.72-2.18a11.39,11.39,0,0,0,.36-1.83c0-.38-.21-.64-.73-.69.06,1.79-.78,3.35-1.26,5s-1.11,2.27-3.06,2.89c0-.48,0-1,.08-1.43.42-.19.36-.58.36-.94a.53.53,0,0,0,.17-.08.47.47,0,0,0,.07-.12l-.2.24c-.12.31-.24.62-.37.93a7.23,7.23,0,0,0-.69,1,5,5,0,0,1-2.13,2.36,3.31,3.31,0,0,0-.45.39l0,0a2.24,2.24,0,0,1,.3.44c-.49.55-.87.71-2.18.93a12.53,12.53,0,0,1,1.3-2.37c1-1.68,1-1.67.92-2.53-.35,0-.42.32-.57.53-.71,1-1.41,2-2.12,3.07-1.72,2.47-1.72,2.47-4.15,3.76l0,0c.24,0,.54,0,.61.4a2.37,2.37,0,0,0-.32.5c0,.17-.07.45,0,.54a.54.54,0,0,0,.53.08,7.12,7.12,0,0,0,1.24-1.08A6.46,6.46,0,0,1,102.6,94c.53.67.73.7,1.16.18a1.91,1.91,0,0,0,.25-.33,3.53,3.53,0,0,1,2.22-1.72l.76.7,1.23-.65,0,0c-.35.67-.72,1.33-1.06,2a20.89,20.89,0,0,0-1,2.25.92.92,0,0,0,.47,1.28l.8-.51a2.43,2.43,0,0,0,1.23,1.09,4.34,4.34,0,0,1-1.26,1.63,31.4,31.4,0,0,0-4.66,5.17,1.54,1.54,0,0,1-.79.61,8.93,8.93,0,0,1-3.14.68c-.08-.73.47-1.13.85-1.59a36.08,36.08,0,0,0,3.79-5.45,15,15,0,0,0,1-2.26.88.88,0,0,0-.26-1.14,4,4,0,0,1-1.21,1.9,1.38,1.38,0,0,0-.42.71A6.94,6.94,0,0,1,101,101c-.86,1.08-1.77,2.12-2.66,3.18a5.12,5.12,0,0,0-.78,1,1.44,1.44,0,0,0-.07,1c.12.36.52.38.87.29.13,0,.27-.06.4-.09-1.23.4-2.44.85-3.68,1.18-3.69,1-7.38,2-11.09,2.85-1.72.42-3.48.65-5.22,1l-3.42.66c-.59.11-1.19.17-1.94.27a10.81,10.81,0,0,1,5.22-2.3c1-1.3,2.36-2,3.54-3.09a6.68,6.68,0,0,0,.66-.75s0-.13-.07-.18-.11-.11-.15-.1a1.38,1.38,0,0,0-.57.19c-1,.72-2,1.45-3,2.2a5,5,0,0,1-3.4,1c-.06-.12-.1-.17-.1-.22a.27.27,0,0,1,.06-.19c1.92-1.47,3.36-3.44,5-5.16a2.58,2.58,0,0,1,.6-.29,11,11,0,0,1,.32-1.35,15.54,15.54,0,0,1,.71-1.44c-.36.07-.56,0-.67.14-.57.5-1.11,1-1.81,1.68-.23,0-.7,0-1.18,0a5.08,5.08,0,0,0-2.4.35,3.3,3.3,0,0,1-1,.26c-2.71.37-5.34,1.08-8,1.63a6.22,6.22,0,0,1-1.21.13,3.59,3.59,0,0,1-2.64-.89,3.24,3.24,0,0,0-3.66-.72,4.8,4.8,0,0,0,.65.26,4.3,4.3,0,0,1,2.42,1.47,2.64,2.64,0,0,0,2.54,1,19.54,19.54,0,0,0,2-.32c1.72-.42,3.43-.87,5.15-1.3a2.77,2.77,0,0,1,.81-.1A14.59,14.59,0,0,0,78,104c.12,0,.26.05.51.12-.1.24-.13.54-.29.7-.86.9-1.73,1.78-2.63,2.63-.66.61-1.36,1.16-2.13,1.81-1.76.28-3.65,0-5.52.13,0,.53.23.7.53.72q1,.08,2,.09c1,0,2,0,3,0,0,.46-.24.57-.48.65a23.38,23.38,0,0,1-6.61,1.27,3.12,3.12,0,0,1-1-.09,3.67,3.67,0,0,0-2.59,0,1.25,1.25,0,0,1-.61,0,17.14,17.14,0,0,1-5.09-1.45c-.68-1.15-1.83-.35-2.72-.67-.06,0-.23.13-.29.24-.24.49-.66.43-1.06.35a24.12,24.12,0,0,1-6.24-1.92c-1.22-.61-2.49-1.13-3.75-1.66a.53.53,0,0,0-.51.15.64.64,0,0,0,.09.57c.51.45,1.06.85,1.6,1.27l0,0c-.71-.22-1.44-.41-2.13-.67-2-.75-4-1.55-5.94-2.28-.32-.12-.76-.44-1.12.17.39.6,1.1.7,1.68,1s1.14.47,1.72.69,1.28.47,1.91.74a2.94,2.94,0,0,1,1.65,1,12.79,12.79,0,0,1-3.51-.06,10.75,10.75,0,0,0-3.05,0,10.23,10.23,0,0,1-2.65,0,21.24,21.24,0,0,1-5.15-1.11,1.88,1.88,0,0,0-.57-.24c-1.81-.14-3.38-1-5-1.64a15.5,15.5,0,0,0-1.77-.5,22.06,22.06,0,0,1-9.16-4,3.51,3.51,0,0,0-1-.66,4.07,4.07,0,0,1-2.41-2.41,26,26,0,0,0-3.47-4.92A24,24,0,0,1,1.86,90a4.16,4.16,0,0,1,0-3.66,13.82,13.82,0,0,1,1.4-2.56c.71-1,1.51-2,2.31-2.94a21.72,21.72,0,0,1,7.83-5.93c2.54-1.18,5-2.56,7.45-3.92a17.85,17.85,0,0,1,3.85-1.56l3.67,1.4c.12.63-.36,1.34.2,2a15.12,15.12,0,0,1,1.19,1.7,5.82,5.82,0,0,0-.35.79c-.15.51.13.91.59.81,1.41-.32,2.82.18,4.22-.07.06,0,.12,0,.25.11a4.56,4.56,0,0,0,.21.5c.29.59.64.8,1.09.58s1.07-.62,1.61-.91a.54.54,0,0,1,.78.1,13.59,13.59,0,0,0-1,1.26,2.26,2.26,0,0,0-.31,1,.68.68,0,0,0,.24.53.6.6,0,0,0,.55,0,17.13,17.13,0,0,0,1.73-1.46c.16-.14.14-.49.17-.75.09-.72.46-1,1-.85.31.11.59.33.91.45a2.36,2.36,0,0,0,.6,0l.55.07c-.07.65-.63.75-1,1s-1,.78-1.39,1.22a.54.54,0,0,0,.35.92,7.42,7.42,0,0,0,.82,0l0,0c.83.73.9.76,1.54.28s1.18-.93,1.79-1.38a4.2,4.2,0,0,1,2.1-1c-.07.78-.6,1.19-.79,1.74-.09.27-.14.6.17.72a.87.87,0,0,0,.73,0A9.61,9.61,0,0,0,48,79a4.91,4.91,0,0,0,.36-.66,3.49,3.49,0,0,1,2.22-.1l-.84,1.28a.55.55,0,0,0,0,.75.8.8,0,0,0,.72.11A21.18,21.18,0,0,0,52.29,79a4.83,4.83,0,0,1,.75-.69,3.15,3.15,0,0,1,1-.18c0,1.4,0,1.4.9,1.79ZM44.23,101.77h.11l-.15,0c-.08-.19-.17-.38-.25-.56a1.44,1.44,0,0,0-.87-1,.38.38,0,0,0-.32.09.39.39,0,0,0-.07.35,1.43,1.43,0,0,0,1.11.71ZM23,100l.29.55a7.47,7.47,0,0,0,2.77,2.7c1.7,1.14,3.44,2.23,5.15,3.36a9.13,9.13,0,0,0,3,1.31c.21,0,.52.18.61-.21-.1-.11-.17-.25-.28-.3-2.94-1.33-5.41-3.45-8.18-5.06a34.84,34.84,0,0,1-2.84-2l-.53-.29Zm56.91-3.32-.42.21c.05,0,.14.08.16.06a3.3,3.3,0,0,0,.22-.3l.49-.34c1.5-.91,1.57-1,1.73-2a4.75,4.75,0,0,0-1.82,1.93A.41.41,0,0,0,79.91,96.71Zm6.5-3.41c.46-.15.43-.5.36-.87h.15l-.11,0c-.12.3-.24.58-.36.87-.1.06-.23.1-.28.19s.08.18.12.28.11-.09.11-.14A2.17,2.17,0,0,0,86.41,93.3Zm-8.54,2.16a1.84,1.84,0,0,0,1-1.13c-.61.17-1,.42-1.06,1l-.16.26ZM89.7,74.85l-2.39.82c-.28-.73-.51-.91-.92-.67a5.29,5.29,0,0,0-1.16.82,9.74,9.74,0,0,1-3.14,2.23c-.13,0-.18.3-.3.51a1.7,1.7,0,0,0,1.79-.21,21.68,21.68,0,0,0,2.06-1.66,3.72,3.72,0,0,1,1.71-1.06c-.07.23-.14.46-.29.93a3,3,0,0,0,2.61-1.74c.75-.32.75-.33,1.23-1.14C90.37,74.2,90,74.53,89.7,74.85ZM29.39,99.24a12.69,12.69,0,0,0,3.24,2.5,2.92,2.92,0,0,0,1.76.29c1.57-.35,3.1-.87,4.65-1.34.08,0,.15-.23.14-.34a.44.44,0,0,0-.21-.29,2.66,2.66,0,0,0-1.78-.06,5.61,5.61,0,0,0-1.15.41,3.74,3.74,0,0,1-4.2-.38,7.61,7.61,0,0,0-1.43-.78A4.08,4.08,0,0,0,29.39,99.24Zm58.88,1.52a1.9,1.9,0,0,0,1.65-.9c1.38-1.64,2.74-3.29,4.1-5a.81.81,0,0,0,.12-.39s0-.11-.09-.16-.13-.09-.16-.08a2.62,2.62,0,0,0-.68.43c-1.5,1.71-3,3.44-4.47,5.17A4.64,4.64,0,0,0,88.27,100.76Zm-72.76,1A27.32,27.32,0,0,0,9.83,97.2c-.07,0-.23.07-.38.12.11.18.17.39.32.5A42.57,42.57,0,0,0,15.51,101.81ZM100.56,83a15.3,15.3,0,0,0,2.74-4,1.15,1.15,0,0,0,.18-1.26C102.38,79.4,100.94,80.84,100.56,83ZM20.29,95.65a9,9,0,0,0,3.31,3.49c.1.06.32-.06.69-.15C22.77,97.91,21.84,96.43,20.29,95.65ZM93.54,73.44a2.39,2.39,0,0,0,.33-.41,4.41,4.41,0,0,1,3-3.07c.11,0,.16-.28.29-.52-1-.17-1.78.44-2.64.4-.07.59.17,1.17-.42,1.54a2.12,2.12,0,0,0-.66.76A1,1,0,0,0,93.54,73.44Zm-77,26.4c-.31.6.2.79.45,1a5.39,5.39,0,0,0,3.28,1.75A40.33,40.33,0,0,0,17,100,1.38,1.38,0,0,0,16.51,99.84Zm-4.09-10.2c0,.43-.09.74,0,.92a3,3,0,0,0,2.13,1.73A5.46,5.46,0,0,0,12.42,89.64ZM56,103.28c-1.93-.65-2.6-.74-3.72-.53C53.39,103.91,54.6,103.49,56,103.28Zm27.5,5.2.21.43a3.35,3.35,0,0,0,2.35-1.58A.41.41,0,0,0,86,107a.39.39,0,0,0-.35,0C84.93,107.44,84.23,108,83.53,108.48Zm-61.68-6.25c1.28,1.23,1.48,1.36,2.5,1.67C23.44,102.49,22.83,102.09,21.85,102.23ZM110,79.66c-.06-.07-.1-.15-.15-.16a.17.17,0,0,0-.18.06c-.3.46-.6.92-.87,1.4-.1.19-.32.46.1.64A4.1,4.1,0,0,0,110,79.66Zm-5.34.9a3.24,3.24,0,0,0-.33.49c0,.07.09.21.14.32a1.74,1.74,0,0,0,.37-.4C104.9,80.9,104.77,80.74,104.68,80.56ZM90.93,106.11c-.07-.1-.18-.28-.21-.27a1.35,1.35,0,0,0-.44.31s0,.25.11.29A.39.39,0,0,0,90.93,106.11Z"/><path class="cls-1" d="M40.15,35.42c1.21-.15,2.42-.29,3.49.61-.29.58-.67,1-1.4.94s-1.2-.09-1.8-.17-1.48-.24-2.22-.34c-.32-.05-.49.28-.48.88l7.18,1.27s0,.13.07.24c-.6.33-1.17-.09-1.76-.09a15.29,15.29,0,0,1-2-.16c-.6-.08-1.19-.21-2.25-.41a20.58,20.58,0,0,0,8.21,1.26c.26-.33.24-.91.85-.93.4,0,.8-.1,1.17-.14.28-.64-.47-.35-.46-.72s.36-.51.68-.56A7.41,7.41,0,0,0,52,36.55l.11.1a6.62,6.62,0,0,1-2,2.05c-.57.5-.74.95-.45,1.16a.86.86,0,0,0,1.11-.14c.7-.51,1.55-.87,2-1.72v0c.32-.07.71-.24.93.13.38.64,1,.66,1.65.72V40c1.06-.23,1.06-.23,2.54-1.64a2.51,2.51,0,0,1,.57-.1A11.4,11.4,0,0,0,61,38.5a18,18,0,0,1,2.63-.25,11.53,11.53,0,0,0,5.17-1,2.94,2.94,0,0,1,.7-.14c.15.28.3.58.45.87.4.8.88,1,1.63.58A6.64,6.64,0,0,0,73,37.61a5.69,5.69,0,0,1,2.51-1.32,8.39,8.39,0,0,0,3.65-2.23,1.58,1.58,0,0,0,.72-1.43,1.69,1.69,0,0,0-1.6-1.41,8.12,8.12,0,0,1-2.69-.89c-.11,0-.18-.17-.33-.32.17-.11.36-.33.45-.29a3.49,3.49,0,0,0,2.19.08,18,18,0,0,1,3-.25,16.13,16.13,0,0,1,7.54,1.5c3,1.43,6,2.74,8.79,4.44a11.28,11.28,0,0,1,2.58,2,18.74,18.74,0,0,0,1.57,1.64A15.74,15.74,0,0,1,104.89,44a30.86,30.86,0,0,1,1.48,3.89,1.28,1.28,0,0,1-.39,1.52,1.85,1.85,0,0,0-.33.46,1.36,1.36,0,0,0,0,.46,4.16,4.16,0,0,1-.85,4.11c-.16.21-.36.54-.57.56-1,.09-1.27.91-1.6,1.67a13.13,13.13,0,0,1-1.85,3.49l0,0c-.19-.23-.51-.41-.69-.19-1,1.24-1.9,2.51-2.84,3.77a.24.24,0,0,0-.05.2,1,1,0,0,0,.17.33.2.2,0,0,0,.18.06,1.83,1.83,0,0,0,.53-.24c.51-.45,1-1,1.51-1.38a10.05,10.05,0,0,0,3.25-4.18c.16-.38.36-.74.54-1.09.53.07.6.38.45.74-.41,1-.84,1.89-1.26,2.81.07.39.34.41.61.45l0,0a4,4,0,0,1-1.82,1.91A40.21,40.21,0,0,1,92,67.94c-2.65.89-5.28,1.86-7.92,2.8a1.44,1.44,0,0,1-.58.18c-1.47-.11-2.8.5-4.2.77,0,0-.1-.08-.25-.2a12.51,12.51,0,0,1,2.51-3.44,20.78,20.78,0,0,0,2.84-3c1.45-1.85,2.79-3.79,4.18-5.69a4.46,4.46,0,0,1,1.59-1.58,2.12,2.12,0,0,0,1.19-2.21,29,29,0,0,1,.38-3.7,5.26,5.26,0,0,0-.08-1.25.47.47,0,0,0-.8-.21,2,2,0,0,0-.31.51.4.4,0,0,0-.41.42l-.42.42c-.06.1-.42.11-.1.33,0-.12,0-.24.07-.36.29,0,.41-.15.42-.42.27,0,.42-.14.41-.42a1.21,1.21,0,0,1,.3,1.16c-.7,2.34-1.31,4.7-2.88,6.65-1.09,1.35-2.07,2.78-3.1,4.18a21.3,21.3,0,0,1-5.52,5.67c-.19.65.14,1.17-.31,1.7-1.74,2-1.25,2.33-4.6,2.41-.41,0-.81.06-1.22.1,0,0-.08.08-.19.21l1.1.47c-2.15.85-4.15,1.71-6.52,1.2.17-.87,1.09-1.09,1.34-1.8.27-.19.56-.36.81-.57s.17-.51,0-.5-.3,0-.37.08c-.21.26-.39.54-.58.82l-2.79,2c-1.78.26-3.71-.27-5.62-.39-.19-.36,0-.55.19-.75.59-.54,1.46-.78,1.73-1.66a6.77,6.77,0,0,1,2,0,10.17,10.17,0,0,0,1.83.11,5.41,5.41,0,0,0,2-.26,3.6,3.6,0,0,0-.52-.19A22.48,22.48,0,0,1,64,71.09a31.23,31.23,0,0,1-3.38-1.27,1.06,1.06,0,0,0-.4,0,6.13,6.13,0,0,0-.44-.6s-.19.06-.29.08,0,.17.06.19c.22.12.46.21.68.32.26.69.92.89,1.46,1.2a1.16,1.16,0,0,1,.61.93,7,7,0,0,0-2.46,1.42,3.31,3.31,0,0,1-2.5.63c-1.35-.18-2.7-.29-4.06-.44a7.07,7.07,0,0,1-2.67-1,11.57,11.57,0,0,1,4-2.87c0,.34,0,.73.31.93.77.43,1.53.89,2.33,1.24a2.89,2.89,0,0,0,2.51-.2c-2.91-.49-3.18-.59-5.18-1.93.48-.46,1-.94,1.45-1.4s1.15-.75,1.34-1.49l.11-.1-.08.13c-.59.33-1.21.62-1.76,1-1.08.72-2.1,1.53-3.19,2.25a10.13,10.13,0,0,1-3.23,1.71.82.82,0,0,0-.37.14c-1,1-2,.92-3.13.27-.31-.18-.86.09-1.31.15a2,2,0,0,1,0-.37c.19-.49,0-.86-.36-.81s-.92.18-1.33.26a6,6,0,0,0-1.48-.77,19.17,19.17,0,0,1-5.74-2.59c-.59-.33-1.2-.62-1.8-.93-.14-.26-.31-.38-.56-.12l.38.33a11.26,11.26,0,0,0,3.16,2.19c.5.31,1.16.43,1.39,1.1l0,0a10.12,10.12,0,0,1-4.25-1.85c-.74-.48-1.51-.92-2.27-1.35a2,2,0,0,0-.55-.08c-.2.4.1.53.28.66.76.57,1.55,1.11,2.3,1.69.09.07.06.36,0,.52a.42.42,0,0,1-.35.14,5,5,0,0,1-2.12-1.17c-.39-.38-.81-.72-1.21-1.08l-.45-.45-.43-.41,0,0,.43.41.44.44.27,1.37,0,0A23.23,23.23,0,0,1,19.67,63.6a9.54,9.54,0,0,1-2.27-3.67c-.1-.25-.2-.5-.32-.75a.2.2,0,0,0-.16-.07c-.12,0-.31.11-.32.19-.07.4-.1.81-.14,1.22l0,0a2,2,0,0,1-.73-.24,8.82,8.82,0,0,1-2.21-3,5.79,5.79,0,0,1-.31-4.47c.44-1.32.81-2.66,1.27-4a15.32,15.32,0,0,1,3.11-5.13,33.24,33.24,0,0,1,8.63-7c1.62-.89,3.22-1.81,4.84-2.71a4.65,4.65,0,0,1,1.09-.55,10.67,10.67,0,0,1,1.6-.11c1,1.09,2.51.71,3.62,1.58a5.12,5.12,0,0,0,3.28,1.11c.08-.43-.31-.49-.5-.69ZM70.51,63.08a.37.37,0,0,1,0-.11c0,.05,0,.09,0,.15s-.29.29-.44.44a1.17,1.17,0,0,1-.24-1c.2-.87.38-1.75.51-2.63a.63.63,0,0,0-.48-.79c-.08.1-.23.19-.24.29a8.9,8.9,0,0,1-1.24,3.91A4.57,4.57,0,0,0,68,64.55a.64.64,0,0,0,.24.52.6.6,0,0,0,.56,0c.45-.5.85-1,1.27-1.58Zm21.67-4.6a1.43,1.43,0,0,0-.88,1.18,8.27,8.27,0,0,0-.72.73q-2.17,2.91-4.32,5.84c-.05.08,0,.25,0,.49a4.31,4.31,0,0,0,.63-.48,39.73,39.73,0,0,0,4.39-6,1.24,1.24,0,0,0,.1-.4,1.44,1.44,0,0,0,.72-1.35.36.36,0,0,0,.15,0s0-.08,0-.12Zm-66.32-.43-.92.29c-.13-.11-.27-.17-.31-.28-.31-.77-.59-1.54-.88-2.31a.48.48,0,0,0-.68-.32,4.57,4.57,0,0,0,.74,3.29c.38.76,1,.84,1.63.2a2.92,2.92,0,0,0,.39-.9c.25.16.7,0,.74.52a1.4,1.4,0,0,0,.22.78,2.75,2.75,0,0,0,1,.68.65.65,0,0,0,.86-.31c-.83-.83-.82-.83-1.08-2.2a2,2,0,0,0-.27-.76.73.73,0,0,0-.49-.3.59.59,0,0,0-.48.26A12,12,0,0,0,25.86,58.05ZM98.6,54.44a6.26,6.26,0,0,0-1.16,1.64c-.38.58-.73,1.18-1.11,1.75s-.76,1.16-1.16,1.71-.87,1.07-1.29,1.62-.79,1.13-1.19,1.69-.83,1.1-1.22,1.67-1,.87-1.14,1.76c.32-.1.55-.11.65-.22.71-.84,1.42-1.68,2.09-2.55s1.07-1.61,1.68-2.36a45.74,45.74,0,0,0,3.82-5.9C98.7,55,98.9,54.78,98.6,54.44Zm-21.23,8.4a.71.71,0,0,0,.84-.51c.88-2,1.73-3.93,2.58-5.9a1.49,1.49,0,0,0,.16-.6c0-.33,0-.89-.15-.95-.62-.23-.5.42-.66.74-.28.55-.56,1.11-.83,1.67-.7,1.44-1.4,2.87-2.08,4.31a1.7,1.7,0,0,0-.15.8C77.09,62.56,77.28,62.72,77.37,62.84Zm1.2,3.52A1.73,1.73,0,0,0,79,66q2.67-3.59,5.3-7.18a1.41,1.41,0,0,0,.22-.57c0-.1-.11-.23-.19-.32a.2.2,0,0,0-.2,0,1,1,0,0,0-.33.23c-1.73,2.24-3.47,4.49-5.19,6.74a3.13,3.13,0,0,0-.37.73.58.58,0,0,0,0,.41C78.32,66.17,78.45,66.24,78.57,66.36Zm-52,.64c-1.44-1.66-2.69-3.2-3.93-4.76a22.46,22.46,0,0,0-1.84-1.94c-.23-.24-.66-.25-.7,0a.75.75,0,0,0,.07.54c1.36,1.65,2.71,3.29,4.11,4.89A8.9,8.9,0,0,0,25.8,67C26,67.1,26.27,67,26.52,67ZM96.23,49.88A14.87,14.87,0,0,1,95,54.7c-.23.58-.49,1.15-.7,1.74a2.71,2.71,0,0,0-.09,1.84c0,.11.19.27.27.26s.45-.11.49-.24q.85-2.46,1.65-4.95a14.15,14.15,0,0,0,.43-1.82,2.06,2.06,0,0,0-.09-1C96.93,50.31,96.64,50.2,96.23,49.88Zm5.44.94c-.27.57-.43.74-.43.91a11.1,11.1,0,0,1-1.34,5.36,3.67,3.67,0,0,0-.31,1.19.58.58,0,0,0,.28.47.53.53,0,0,0,.49-.19c.46-1.07.93-2.15,1.29-3.26A7.39,7.39,0,0,0,101.67,50.82Zm-7,14.81-1.9.57c-.85.23-1.69.51-2.55.67-1.72.33-3.46.57-5.19.88-.27,0-.66.12-.55.68C88.05,67.83,91.64,67.72,94.72,65.63Zm-38-6.82-.38-.05c-.63,1-1.28,2.08-1.87,3.15-.17.32-.41.74,0,1.12.19.18.51-.06.83-.59s.67-1,1-1.58a6.11,6.11,0,0,0,.57-1.31C56.89,59.34,56.76,59.06,56.72,58.81Zm6.81,1.86c-.24.11-.46.15-.56.28-.62.89-1.23,1.8-1.81,2.72a.57.57,0,0,0,.13.52.61.61,0,0,0,.53,0,.89.89,0,0,0,.46-.37c.46-.84.89-1.69,1.3-2.56C63.65,61.17,63.56,60.94,63.53,60.67Zm-29.06.42a2.83,2.83,0,0,0-.18-1.94c0-.08-.22-.09-.35-.11s-.11.05-.15.09a1.56,1.56,0,0,0-.13,1.38A.72.72,0,0,0,34.47,61.09Zm7.9,1.64a2.86,2.86,0,0,0,.38-.54c.17-.43.46-.88,0-1.31a.2.2,0,0,0-.18,0c-.58.26-.39.8-.41,1.25C42.14,62.27,42.27,62.46,42.37,62.73Z"/><path class="cls-1" d="M70.94,29.05a2.78,2.78,0,0,1,.53-1.55c.18-.34.35-.69.64-1.25a3,3,0,0,0-.75.22A8.21,8.21,0,0,0,69.54,29a5.22,5.22,0,0,1-1.6,1.78,11.07,11.07,0,0,1-5,2c-1.68.18-3.35.44-5.24.69.37-.61.63-1.05.91-1.53-.23,0-.38-.1-.46-.05-.36.2-.69.45-1,.66a1.45,1.45,0,0,1-.57.17,3.78,3.78,0,0,1-.7-.11l-.72,1.29c-.26,0-.58.08-.91.09-.6,0-1.21,0-1.81,0a5.13,5.13,0,0,1-1.62-.06,3.69,3.69,0,0,0-2.41,0c-.89-.39-.34-1.47-1.12-1.75a1.22,1.22,0,0,0-.14.35C47,34,46.9,34,45.31,33.4l.21-.56,0-.06-.07.08c-1.92.45-2.4.37-4.48-.68,0-.39.06-.78.09-1.13-.14-.08-.22-.16-.25-.14-.48.23-1,.48-1.51.76a6.44,6.44,0,0,0-2.69-1.31,1.17,1.17,0,0,1-.38-.17,54,54,0,0,1-6.52-4.3c-.58-.48-1.22-.94-1.25-1.83-.05-1.1-.27-2.25.71-3.17.57.17.75.74,1,1.17a5,5,0,0,0,4.84,2.54c.1,0,.2-.15.3-.23s-.08-.27-.16-.32a7,7,0,0,0-1.11-.53,5.28,5.28,0,0,1-3.05-2.63c-.62-1.16-1.22-2.33-1.82-3.49.42-.78.81-1.52,1.21-2.24a2.43,2.43,0,0,1,.59-.85A11.29,11.29,0,0,0,33.54,11,7.64,7.64,0,0,1,37,7.94c1.26-.5,2.4-1.3,3.67-1.74l1,1c.22-.09.42-.1.46-.19a4,4,0,0,1,2.21-2,35,35,0,0,1,9.79-2.87,45.24,45.24,0,0,1,9.59-.39,38.29,38.29,0,0,1,8.39,1.74,10.73,10.73,0,0,1,2.21,1.07c1.36.8,2.68,1.68,4,2.47a25.71,25.71,0,0,1,6.18,5.45c.9,1,1.56,4.89,1.16,6.19a2.77,2.77,0,0,1-.42.59c-.1-.27-.22-.44-.2-.58a4.12,4.12,0,0,0,0-2.62c-.48.17-.47.58-.56.89-.2.67-.36,1.34-.52,2a.73.73,0,0,0,0,.41,7.13,7.13,0,0,0,.3.74c-.94,2.12-1,2.18-1.9,2.48-.09-.71.41-1.17.62-1.72s.72-1.06.29-1.86a3.51,3.51,0,0,0-.54.57q-.69,1.17-1.32,2.37a25,25,0,0,1-3.34,4.23c-2,.94-3.65,2.37-5.72,3.11-.62.22-1-.38-1.55-.21ZM69.25,8l.45-.36.3-.9a.92.92,0,0,0,.16,0s.06-.06.08-.09l-.2.12-.3.89L69.28,8l-.48.45c-.88,1.07-1.78,2.12-2.62,3.21A14.65,14.65,0,0,1,64.08,14c-.84.71-1.59,1.52-2.37,2.3a.92.92,0,0,0-.15.38c.23.4.58.31.85.11a25.39,25.39,0,0,0,6.27-7.1c.19-.3.06-.8.08-1.21ZM80.73,18.58c-.06,0-.16,0-.19.07-1.17,1.86-2.35,3.72-3.51,5.59a2.92,2.92,0,0,0-.32.75.44.44,0,0,0,.14.36c.08.06.23,0,.35,0a.32.32,0,0,0,.17-.11,20.88,20.88,0,0,0,3.31-5.71,2.89,2.89,0,0,0,0-1c.61-.18,1.2-.42,1.29-1.16a8.58,8.58,0,0,0,.06-3.31c0-.16-.23-.28-.48-.56C81.33,15.32,80.69,16.88,80.73,18.58Zm-.85-4.66-1.52,1.34c-.18.16-.33.46-.73.15l1.13-2.64c.78-1.86.78-1.86.65-3-.18.16-.37.26-.44.42a36,36,0,0,0-2.55,6.16c0,.11,0,.24.09.4.49.24,1.24-.11,1.63.64-.85,1.33-1.39,2.85-2.54,4A4.58,4.58,0,0,0,75,22.71l0,0a4,4,0,0,0,.73-.3,8.12,8.12,0,0,0,2.48-3.21c.5-.95.94-1.83.48-2.86.41-.57.79-1.06,1.11-1.58a2.47,2.47,0,0,0,.17-.79.43.43,0,0,0,.16,0s0-.09,0-.14ZM61.45,27c-1,.2-1.91.75-3,.59l-.38-1a3.59,3.59,0,0,0-.71.4,1.9,1.9,0,0,1-1.91.42,3.59,3.59,0,0,1-1.15-.41,3.75,3.75,0,0,0-2.58-.37,54.27,54.27,0,0,1-8,.37c-.41,0-.82,0-1.23,0s-.81,0-1.22-.08-.61-.56-1.08-.33c.06.62.53.8,1,.87a11.34,11.34,0,0,0,1.84.08c2.66,0,5.31.09,8,.31a7.08,7.08,0,0,1,3.47,1.3,4,4,0,0,1-.53.66c-.65.5-1.34,1-2,1.45a10.82,10.82,0,0,0-1.1.93c-.1.1-.07.37,0,.55s.24.11.35.08a1.69,1.69,0,0,0,.57-.24c1.18-.83,2.36-1.64,3.52-2.5a4.42,4.42,0,0,1,2-1A17.63,17.63,0,0,0,60,28.26c.64-.22,1.28-.52,1.4-1.34h.09Zm6.41-1.19c-1,1.37-1.8,2.6-2.64,3.83a3.16,3.16,0,0,0-.38.73,1.09,1.09,0,0,0,0,.59.89.89,0,0,0,.39.4.36.36,0,0,0,.36-.09c.76-1.22,1.52-2.44,2.25-3.67A1.7,1.7,0,0,0,67.86,25.76Zm3.87-12.6c-2.34,1.54-4.29,3.25-6.32,4.82,0,.05,0,.23,0,.34a18.29,18.29,0,0,0,5.17-3.55A3,3,0,0,0,71.73,13.16ZM73,23.34c-1.32.28-2.3.47-3.28.7a1.19,1.19,0,0,0-.52.3c-.26.24-.48.51-.08.85A5.52,5.52,0,0,0,73,23.34Z"/><path class="cls-1" d="M105.19,103.77l3-3.43a8.06,8.06,0,0,0,1.71-2.82,4.89,4.89,0,0,1,.86-1.38c.72-.93,1.5-1.8,2.2-2.75a16.75,16.75,0,0,0,1.41-2.29,10.08,10.08,0,0,0,1.21-6.24l0,0A14.25,14.25,0,0,1,116.3,91a1.46,1.46,0,0,1-.17.8c-1.22,1.42-1.86,3.2-2.84,4.78a21.88,21.88,0,0,1-4.63,5.19c-.74.61-1.53,1.15-2.3,1.71a1.16,1.16,0,0,1-1.14.25Z"/><path class="cls-1" d="M31.89,72.16l-.72,1a2.77,2.77,0,0,1-1.7-1.66C30.41,71.43,30.41,71.43,31.89,72.16Z"/><path class="cls-1" d="M66.48,36.63A10.15,10.15,0,0,1,70.21,35C69.69,35.73,68.49,36.28,66.48,36.63Z"/><path class="cls-1" d="M73.84,35.2l-1.48.8a.66.66,0,0,1-.56-.81c.07-.5.53-.54.9-.63S73.26,34.45,73.84,35.2Z"/><path class="cls-1" d="M57.73,36.15a3.41,3.41,0,0,1-.59.49c-.47.24-1,.42-1.41.61-.56-.39-.32-.78-.13-1.11a.84.84,0,0,1,1-.36c.38.1.74.27,1.11.4Z"/><path class="cls-1" d="M33.58,73.79c.71-.51,1.2-1.25,2.17-.73C35,73.85,35,73.87,33.58,73.79Z"/><path class="cls-1" d="M69,33.26l2.11-1.48c.38.4,0,.64-.13.86A1.7,1.7,0,0,1,69,33.26Z"/><path class="cls-1" d="M74.34,31c-.09.21-.11.4-.19.43a.83.83,0,0,1-.55.09.56.56,0,0,1-.31-.41.54.54,0,0,1,.37-.35A2.31,2.31,0,0,1,74.34,31Z"/><path class="cls-1" d="M40.19,35.38a6.72,6.72,0,0,1-.85-.53.94.94,0,0,1-.24-.5c0-.06.18-.25.24-.24.23.07.56.15.65.32a3.94,3.94,0,0,1,.16,1Z"/><path class="cls-1" d="M50.82,76.28H52v.06H50.82Z"/><path class="cls-1" d="M37.76,73.67a5,5,0,0,1-.76.51c-.09,0-.23-.05-.35-.07,0-.12.06-.32.13-.34A7.6,7.6,0,0,1,37.76,73.67Z"/><path class="cls-1" d="M52.76,37.33l1.17-1.25c-.21,1.28-.22,1.27-1.18,1.21Z"/><path class="cls-1" d="M57.84,78.68c.82-.48.82-.48,1.93-.24l-2,.21Z"/><path class="cls-1" d="M47.07,75.83a4.23,4.23,0,0,1,.85,0,1.45,1.45,0,0,1,.44.32s-.06.15-.09.15a.88.88,0,0,1-.36-.06C47.7,76.16,47.51,76.05,47.07,75.83Z"/><path class="cls-1" d="M45.89,109.71l-1-.16a.66.66,0,0,1-.59-.72l0,0a2.55,2.55,0,0,1,1.6.88Z"/><path class="cls-1" d="M41.88,74.66l-.25-.26.43-.23c0,.11.16.25.13.32S42,74.61,41.88,74.66Z"/><path class="cls-1" d="M28.89,19.89l-.15.31c-.08-.06-.22-.1-.23-.17a.67.67,0,0,1,.12-.31Z"/><path class="cls-1" d="M52,36.55c.06-.19.08-.43.21-.54s.35-.07.53-.09c0,.16,0,.37-.11.47a1.81,1.81,0,0,1-.52.26Z"/><path class="cls-1" d="M39.45,71l1,.25c-.51.29-.78,0-1-.28Z"/><path class="cls-1" d="M57.24,112.06a2.32,2.32,0,0,1-.38,0,.33.33,0,0,1-.16-.09,1.65,1.65,0,0,1,.26-.14.3.3,0,0,1,.2.05S57.21,112,57.24,112.06Z"/><path class="cls-1" d="M60.57,36.79a2.26,2.26,0,0,1,.37-.11s.05.17.08.25a2.41,2.41,0,0,1-.38,0S60.59,36.85,60.57,36.79Z"/><path class="cls-1" d="M63.71,78.49a2.39,2.39,0,0,0-.13-.21,1.24,1.24,0,0,1,.33,0s.07.08.11.13Z"/><path class="cls-1" d="M56.58,79.08c.3-.55.8-.43,1.26-.4l0,0a1.28,1.28,0,0,1-1.26.39Z"/><path class="cls-1" d="M55.33,79.42a1.11,1.11,0,0,1,1.25-.34l0,0c-.32.48-.77.44-1.25.35Z"/><path class="cls-1" d="M39.48,71c-.47,0-1,.13-1.36-.32l0,0,1.36.32Z"/><polygon class="cls-1" points="62.26 34.78 62.26 34.67 62.4 34.72 62.26 34.78"/><path class="cls-1" d="M57.76,36.18a3.2,3.2,0,0,1,.27-.25s.09,0,.14.06l-.44.16Z"/><path class="cls-1" d="M103.7,61c.12-.29.23-.58.34-.87l0,0-.4.81Z"/><polygon class="cls-1" points="35.16 70.83 35.31 70.8 35.29 70.9 35.16 70.83"/><polygon class="cls-1" points="49.58 72.89 49.58 73 49.44 72.95 49.58 72.89"/><path class="cls-1" d="M45.86,109.75a.79.79,0,0,1,.81.42l0,0c-.31-.06-.65,0-.81-.42Z"/><path class="cls-1" d="M46.67,110.17l.33.09-.3-.13Z"/><polygon class="cls-1" points="70.91 29.05 70.86 29.1 70.94 29.05 70.91 29.05"/><path class="cls-1" d="M52.75,37.29c0,.25,0,.49,0,.74v-.74Z"/><path class="cls-1" d="M104,60.13l.11,0-.09,0Z"/><polygon class="cls-1" points="100.79 60.17 100.73 60.21 100.82 60.15 100.79 60.17"/><path class="cls-1" d="M16.46,60.52l0,0Z"/><path class="cls-1" d="M103.66,61l-.48.44,0,0,.48-.43Z"/><polygon class="cls-1" points="30.27 69.46 30.36 69.42 30.3 69.43 30.27 69.46"/><polygon class="cls-1" points="41.42 79.91 41.49 79.79 41.39 79.87 41.42 79.91"/><path class="cls-1" d="M55.31,79.39l-.43.51,0,0,.43-.51Z"/><polygon class="cls-1" points="105.22 103.73 105.19 103.86 105.19 103.77 105.22 103.73"/><path class="cls-1" d="M111.31,87.78a9.58,9.58,0,0,1-1.52,3.79c-.54-.19-.31-.6-.37-.88a8.78,8.78,0,0,1-.06-1.06l2-1.82Z"/><path class="cls-1" d="M108.22,92.19c0-.1,0-.21,0-.29l-.08.25Z"/><path class="cls-1" d="M112,87.77h-.64l0,0h.57Z"/><path class="cls-2" d="M22.65,68.32c-.33-.26-.58-.48-.84-.69-2.34-1.92-4.69-3.83-7-5.78a11,11,0,0,1-2.88-3.78,7.63,7.63,0,0,1-.37-5.91c.43-1.26.79-2.53,1.21-3.79A16.45,16.45,0,0,1,16,42.82a34.3,34.3,0,0,1,10.37-8.06c2.07-1,4.1-2.17,6.24-3.3a8,8,0,0,0-1.66-1.54,16.49,16.49,0,0,0-1.58-1.32A6.43,6.43,0,0,1,27.31,26a5.55,5.55,0,0,1-.57-2,38,38,0,0,1,0-4.4A7.21,7.21,0,0,1,28,15.9c.32-.45.54-1,.83-1.44a4.29,4.29,0,0,1,.79-1.21,17.31,17.31,0,0,0,2.67-3.42,8.13,8.13,0,0,1,4.16-3.2c1.74-.57,3.46-1.26,5.2-1.85a8.1,8.1,0,0,0,1.13-.5A33.89,33.89,0,0,1,56,.37c1-.07,2-.23,3-.3A37.39,37.39,0,0,1,72.19,1.84a14.28,14.28,0,0,1,3,1.4C76.47,4,77.71,4.84,79,5.6a27.38,27.38,0,0,1,6.68,6.12,4,4,0,0,1,.86,1.88c.24,1.23.52,2.46.78,3.68a3,3,0,0,1-.14,1.85,9.92,9.92,0,0,1-1.53,2.71c-1.32,1.51-2.62,3-3.91,4.53.07.48.45.49.76.6a83.29,83.29,0,0,1,16.2,7.45,7.24,7.24,0,0,1,1.47,1.12c1.25,1.28,2.53,2.55,3.69,3.93A14.4,14.4,0,0,1,107.51,49a22.64,22.64,0,0,1-.54,6.46,8.87,8.87,0,0,0-.26,1.86,9.35,9.35,0,0,1-4.57,7.52c-1.15.75-2.32,1.44-3.63,2.25a4.27,4.27,0,0,0,.76.47c1.8.65,3.62,1.24,5.39,2a11.22,11.22,0,0,1,2.5,1.41c1.49,1.1,2.92,2.29,4.35,3.48a15.24,15.24,0,0,1,4.19,5.63,24.2,24.2,0,0,1,2.24,11.81,5.16,5.16,0,0,1-.37,1.84,17.7,17.7,0,0,1-4.78,6.71c-1.3,1-2.51,2.16-3.76,3.24a25.21,25.21,0,0,1-5.06,3.13,27.24,27.24,0,0,1-5.69,2.33c-2,.51-3.81,1.51-5.85,1.72-1.49.16-2.9.72-4.41.76a9.74,9.74,0,0,0-2.61.46,25.22,25.22,0,0,1-6.84,1.12c-1.49,0-3,.33-4.46.5-.67.07-1.35.09-2,.15a24.19,24.19,0,0,0-2.84.32,14.47,14.47,0,0,1-6.48,0,6.72,6.72,0,0,0-1.42-.16c-1.36,0-2.72-.06-4.09-.06a9.7,9.7,0,0,1-2.83-.33,7.39,7.39,0,0,0-1.82-.24c-.81,0-1.63,0-2.45,0a8,8,0,0,1-4.16-.86,8.19,8.19,0,0,0-4.16-.89c-1,0-1.91,0-2.86,0a3.78,3.78,0,0,1-1.22-.12,8.14,8.14,0,0,0-3.63-.31,15.23,15.23,0,0,1-7.79-1.28c-.8-.38-1.64-.67-2.47-1a4.9,4.9,0,0,0-1-.23,22.54,22.54,0,0,1-8.41-3c-1.7-1-3.45-2-5.2-2.91a2.74,2.74,0,0,1-1.11-.88c-.91-1.37-2.18-2.53-2.5-4.27a29.47,29.47,0,0,0-2.13-2.8A17.67,17.67,0,0,1,.75,90.61,5.83,5.83,0,0,1,.6,85.19a24.08,24.08,0,0,1,2.95-4.52,23.81,23.81,0,0,1,9.12-7.26c2.5-1.11,4.87-2.5,7.3-3.76C20.82,69.21,21.68,68.8,22.65,68.32ZM46.7,110.13l.3.13-.33-.09a.79.79,0,0,0-.81-.42,2.55,2.55,0,0,0-1.6-.88c-.54-.42-1.09-.82-1.6-1.27a.64.64,0,0,1-.09-.57.53.53,0,0,1,.51-.15c1.26.53,2.53,1.05,3.75,1.66a24.12,24.12,0,0,0,6.24,1.92c.4.08.82.14,1.06-.35.06-.11.23-.26.29-.24.89.32,2-.48,2.72.67A17.14,17.14,0,0,0,62.23,112a1.25,1.25,0,0,0,.61,0,3.67,3.67,0,0,1,2.59,0,3.12,3.12,0,0,0,1,.09,23.38,23.38,0,0,0,6.61-1.27c.24-.08.52-.19.48-.65-1,0-2,0-3,0q-1,0-2-.09c-.3,0-.5-.19-.53-.72,1.87-.17,3.76.15,5.52-.13.77-.65,1.47-1.2,2.13-1.81.9-.85,1.77-1.73,2.63-2.63.16-.16.19-.46.29-.7-.25-.07-.39-.15-.51-.12a14.59,14.59,0,0,1-4.66.25,2.77,2.77,0,0,0-.81.1c-1.72.43-3.43.88-5.15,1.3a19.54,19.54,0,0,1-2,.32,2.64,2.64,0,0,1-2.54-1,4.3,4.3,0,0,0-2.42-1.47,4.8,4.8,0,0,1-.65-.26,3.24,3.24,0,0,1,3.66.72,3.59,3.59,0,0,0,2.64.89,6.22,6.22,0,0,0,1.21-.13c2.67-.55,5.3-1.26,8-1.63a3.3,3.3,0,0,0,1-.26,5.08,5.08,0,0,1,2.4-.35c.48,0,1,0,1.18,0,.7-.65,1.24-1.18,1.81-1.68.11-.1.31-.07.67-.14a15.54,15.54,0,0,0-.71,1.44,11,11,0,0,0-.32,1.35,2.58,2.58,0,0,0-.6.29c-1.69,1.72-3.13,3.69-5,5.16a.27.27,0,0,0-.06.19s0,.1.1.22a5,5,0,0,0,3.4-1c1-.75,2-1.48,3-2.2a1.38,1.38,0,0,1,.57-.19s.12,0,.15.1.09.15.07.18a6.68,6.68,0,0,1-.66.75c-1.18,1-2.59,1.79-3.54,3.09a10.81,10.81,0,0,0-5.22,2.3c.75-.1,1.35-.16,1.94-.27l3.42-.66c1.74-.33,3.5-.56,5.22-1,3.71-.9,7.4-1.86,11.09-2.85,1.24-.33,2.45-.78,3.68-1.18l0,0a8.93,8.93,0,0,0,3.14-.68,1.54,1.54,0,0,0,.79-.61,31.4,31.4,0,0,1,4.66-5.17,4.34,4.34,0,0,0,1.26-1.63,2.43,2.43,0,0,1-1.23-1.09l0,0a4.91,4.91,0,0,1,.83-.57,5.62,5.62,0,0,0,2-1.68c.59-.75,1.21-1.49,1.8-2.24a14.62,14.62,0,0,0,2.12-4,12.08,12.08,0,0,0,.56-3.71l.83-.16a10.08,10.08,0,0,1-1.21,6.24,16.75,16.75,0,0,1-1.41,2.29c-.7,1-1.48,1.82-2.2,2.75a4.89,4.89,0,0,0-.86,1.38,8.06,8.06,0,0,1-1.71,2.82l-3,3.43v.09l0-.13a1.16,1.16,0,0,0,1.14-.25c.77-.56,1.56-1.1,2.3-1.71a21.88,21.88,0,0,0,4.63-5.19c1-1.58,1.62-3.36,2.84-4.78a1.46,1.46,0,0,0,.17-.8,14.25,14.25,0,0,0-.78-6.11,15.13,15.13,0,0,0-4.91-9.18c-1.32-1.21-2.75-2.28-4.13-3.44a9.24,9.24,0,0,0-2.86-1.59c-1.28-.46-2.55-1-3.83-1.47a10.64,10.64,0,0,0-2.57-.64c-2-.25-3.73.64-5.51,1.32A1.07,1.07,0,0,0,91,71c.46.33,1.39.08,1.13,1.21a6.78,6.78,0,0,0-2.87,1.41,1.14,1.14,0,0,1-.94.22,3,3,0,0,0-2.88.58c-1.39.88-2.69,1.91-4,2.89-.77.57-1.52,1.18-2.3,1.75a2.17,2.17,0,0,1-.73.36.53.53,0,0,1-.71-.45c0-.76,1-.9,1-1.83a18.38,18.38,0,0,0-2.35.83,17.32,17.32,0,0,0-4.5,2c-.61.33-1.21.66-1.83.95a3.29,3.29,0,0,1-1,.29.68.68,0,0,1-.8-.48c-.09-.24,0-.59-.39-.68a3.76,3.76,0,0,0-.57,0,13.9,13.9,0,0,1-6.47.44,1.47,1.47,0,0,0-1,.14c-1.47.86-3.06.47-4.61.47-.4,0-.51-.43-.32-1.16l.43-.51c.48.09.93.13,1.25-.35a1.28,1.28,0,0,0,1.26-.39l2-.21c-1.11-.24-1.11-.24-1.93.24-.46,0-1-.15-1.26.4a1.11,1.11,0,0,0-1.25.34l-.43.51c-.92-.39-.92-.39-.9-1.79a3.15,3.15,0,0,0-1,.18,4.83,4.83,0,0,0-.75.69,21.18,21.18,0,0,1-1.77,1.39.8.8,0,0,1-.72-.11.55.55,0,0,1,0-.75l.84-1.28a3.49,3.49,0,0,0-2.22.1A4.91,4.91,0,0,1,48,79a9.61,9.61,0,0,1-1.08,1.21.87.87,0,0,1-.73,0c-.31-.12-.26-.45-.17-.72.19-.55.72-1,.79-1.74a4.2,4.2,0,0,0-2.1,1c-.61.45-1.18.94-1.79,1.38s-.71.45-1.54-.28l.1-.08-.06.12a7.42,7.42,0,0,1-.82,0,.54.54,0,0,1-.35-.92c.43-.44.93-.81,1.39-1.22s.9-.4,1-1l-.55-.07a2.36,2.36,0,0,1-.6,0c-.32-.12-.6-.34-.91-.45-.58-.19-1,.13-1,.85,0,.26,0,.61-.17.75a17.13,17.13,0,0,1-1.73,1.46.6.6,0,0,1-.55,0,.68.68,0,0,1-.24-.53,2.26,2.26,0,0,1,.31-1,13.59,13.59,0,0,1,1-1.26.54.54,0,0,0-.78-.1c-.54.29-1.06.64-1.61.91s-.8,0-1.09-.58a4.56,4.56,0,0,1-.21-.5c-.13-.06-.19-.12-.25-.11-1.4.25-2.81-.25-4.22.07-.46.1-.74-.3-.59-.81a5.82,5.82,0,0,1,.35-.79,15.12,15.12,0,0,0-1.19-1.7c-.56-.61-.08-1.32-.2-2l-3.67-1.4A17.85,17.85,0,0,0,20.84,71c-2.46,1.36-4.91,2.74-7.45,3.92a21.72,21.72,0,0,0-7.83,5.93c-.8,1-1.6,1.92-2.31,2.94a13.82,13.82,0,0,0-1.4,2.56,4.16,4.16,0,0,0,0,3.66,24,24,0,0,0,2.39,3.9,26,26,0,0,1,3.47,4.92,4.07,4.07,0,0,0,2.41,2.41,3.51,3.51,0,0,1,1,.66,22.06,22.06,0,0,0,9.16,4,15.5,15.5,0,0,1,1.77.5c1.66.6,3.23,1.5,5,1.64a1.88,1.88,0,0,1,.57.24,21.24,21.24,0,0,0,5.15,1.11,10.23,10.23,0,0,0,2.65,0,10.75,10.75,0,0,1,3.05,0,12.79,12.79,0,0,0,3.51.06,2.94,2.94,0,0,0-1.65-1c-.63-.27-1.28-.49-1.91-.74s-1.16-.42-1.72-.69-1.29-.38-1.68-1c.36-.61.8-.29,1.12-.17,2,.73,4,1.53,5.94,2.28.69.26,1.42.45,2.13.67a.66.66,0,0,0,.59.72l1,.16C46.05,110.08,46.39,110.07,46.7,110.13Zm57.34-50c-.11.29-.22.58-.34.87l-.48.43c-.27,0-.54-.06-.61-.45.42-.92.85-1.85,1.26-2.81.15-.36.08-.67-.45-.74-.18.35-.38.71-.54,1.09a10.05,10.05,0,0,1-3.25,4.18c-.53.41-1,.93-1.51,1.38a1.83,1.83,0,0,1-.53.24.2.2,0,0,1-.18-.06,1,1,0,0,1-.17-.33.24.24,0,0,1,.05-.2c.94-1.26,1.86-2.53,2.84-3.77.18-.22.5,0,.69.19l-.09.06.06,0a13.13,13.13,0,0,0,1.85-3.49c.33-.76.57-1.58,1.6-1.67.21,0,.41-.35.57-.56a4.16,4.16,0,0,0,.85-4.11,1.36,1.36,0,0,1,0-.46,1.85,1.85,0,0,1,.33-.46,1.28,1.28,0,0,0,.39-1.52A30.86,30.86,0,0,0,104.89,44a15.74,15.74,0,0,0-3.51-4.86,18.74,18.74,0,0,1-1.57-1.64,11.28,11.28,0,0,0-2.58-2c-2.83-1.7-5.84-3-8.79-4.44a16.13,16.13,0,0,0-7.54-1.5,18,18,0,0,0-3,.25,3.49,3.49,0,0,1-2.19-.08c-.09,0-.28.18-.45.29.15.15.22.28.33.32a8.12,8.12,0,0,0,2.69.89,1.69,1.69,0,0,1,1.6,1.41,1.58,1.58,0,0,1-.72,1.43,8.39,8.39,0,0,1-3.65,2.23A5.69,5.69,0,0,0,73,37.61a6.64,6.64,0,0,1-1.36.92c-.75.41-1.23.22-1.63-.58-.15-.29-.3-.59-.45-.87a2.94,2.94,0,0,0-.7.14,11.53,11.53,0,0,1-5.17,1A18,18,0,0,0,61,38.5a11.4,11.4,0,0,1-2.58-.22,2.51,2.51,0,0,0-.57.1C56.4,39.79,56.4,39.79,55.34,40V38.88c-.67-.06-1.27-.08-1.65-.72-.22-.37-.61-.2-.93-.13,0-.25,0-.49,0-.74,1,.06,1,.07,1.18-1.21l-1.17,1.25V38c-.42.85-1.27,1.21-2,1.72a.86.86,0,0,1-1.11.14c-.29-.21-.12-.66.45-1.16a6.62,6.62,0,0,0,2-2.05,1.81,1.81,0,0,0,.52-.26c.09-.1.08-.31.11-.47-.18,0-.41,0-.53.09s-.15.35-.21.54a7.41,7.41,0,0,1-2.58.55c-.32,0-.69.13-.68.56s.74.08.46.72c-.37,0-.77.13-1.17.14-.61,0-.59.6-.85.93A20.58,20.58,0,0,1,39,38.19c1.06.2,1.65.33,2.25.41a15.29,15.29,0,0,0,2,.16c.59,0,1.16.42,1.76.09,0-.11,0-.23-.07-.24l-7.18-1.27c0-.6.16-.93.48-.88.74.1,1.48.24,2.22.34s1.2.11,1.8.17,1.11-.36,1.4-.94c-1.07-.9-2.28-.76-3.49-.61a3.94,3.94,0,0,0-.16-1c-.09-.17-.42-.25-.65-.32-.06,0-.25.18-.24.24a.94.94,0,0,0,.24.5,6.72,6.72,0,0,0,.85.53c.19.2.58.26.5.69A5.12,5.12,0,0,1,37.41,35c-1.11-.87-2.66-.49-3.62-1.58a10.67,10.67,0,0,0-1.6.11A4.65,4.65,0,0,0,31.1,34c-1.62.9-3.22,1.82-4.84,2.71a33.24,33.24,0,0,0-8.63,7,15.32,15.32,0,0,0-3.11,5.13c-.46,1.31-.83,2.65-1.27,4a5.79,5.79,0,0,0,.31,4.47,8.82,8.82,0,0,0,2.21,3,2,2,0,0,0,.73.24l0,0c0-.41.07-.82.14-1.22,0-.08.2-.14.32-.19a.2.2,0,0,1,.16.07c.12.25.22.5.32.75a9.54,9.54,0,0,0,2.27,3.67A23.23,23.23,0,0,0,30.3,69.43h.06l-.09,0L30,68.09l0,0c.4.36.82.7,1.21,1.08a5,5,0,0,0,2.12,1.17.42.42,0,0,0,.35-.14c0-.16.07-.45,0-.52-.75-.58-1.54-1.12-2.3-1.69-.18-.13-.48-.26-.28-.66a2,2,0,0,1,.55.08c.76.43,1.53.87,2.27,1.35a10.12,10.12,0,0,0,4.25,1.85c.37.45.89.3,1.36.32.24.33.51.57,1,.28l-1-.25-1.36-.32c-.23-.67-.89-.79-1.39-1.1a11.26,11.26,0,0,1-3.16-2.19l.18-.21c.6.31,1.21.6,1.8.93a19.17,19.17,0,0,0,5.74,2.59,6,6,0,0,1,1.48.77c.41-.08.86-.21,1.33-.26s.55.32.36.81a2,2,0,0,0,0,.37c.45-.06,1-.33,1.31-.15,1.15.65,2.16.76,3.13-.27a.82.82,0,0,1,.37-.14,10.13,10.13,0,0,0,3.23-1.71c1.09-.72,2.11-1.53,3.19-2.25.55-.38,1.17-.67,1.76-1l0,0c-.19.74-.85,1-1.34,1.49s-1,.94-1.45,1.4l0,0a11.57,11.57,0,0,0-4,2.87,7.07,7.07,0,0,0,2.67,1c1.36.15,2.71.26,4.06.44a3.31,3.31,0,0,0,2.5-.63,7,7,0,0,1,2.46-1.42l0,0c-.27.88-1.14,1.12-1.73,1.66-.22.2-.38.39-.19.75,1.91.12,3.84.65,5.62.39l2.79-2,.16.17c-.25.71-1.17.93-1.34,1.8,2.37.51,4.37-.35,6.52-1.2L73,73c.11-.13.15-.21.19-.21.41,0,.81-.09,1.22-.1,3.35-.08,2.86-.38,4.6-2.41.45-.53.12-1,.31-1.7a21.3,21.3,0,0,0,5.52-5.67c1-1.4,2-2.83,3.1-4.18,1.57-1.95,2.18-4.31,2.88-6.65a1.21,1.21,0,0,0-.3-1.16l0,0a2,2,0,0,1,.31-.51.47.47,0,0,1,.8.21,5.26,5.26,0,0,1,.08,1.25,29,29,0,0,0-.38,3.7,2.12,2.12,0,0,1-1.19,2.21,4.46,4.46,0,0,0-1.59,1.58c-1.39,1.9-2.73,3.84-4.18,5.69a20.78,20.78,0,0,1-2.84,3,12.51,12.51,0,0,0-2.51,3.44c.15.12.21.21.25.2,1.4-.27,2.73-.88,4.2-.77a1.44,1.44,0,0,0,.58-.18c2.64-.94,5.27-1.91,7.92-2.8a40.21,40.21,0,0,0,9.36-4.63,4,4,0,0,0,1.82-1.91l.48-.44.4-.81.09,0Zm-46.28-24c-.37-.13-.73-.3-1.11-.4a.84.84,0,0,0-1,.36c-.19.33-.43.72.13,1.11.44-.19.94-.37,1.41-.61a3.41,3.41,0,0,0,.59-.49l.44-.16c-.05,0-.12-.08-.14-.06A3.2,3.2,0,0,0,57.76,36.18ZM45.5,32.86l0,0-.21.56c1.59.62,1.64.59,1.75-.92a1.22,1.22,0,0,1,.14-.35c.78.28.23,1.36,1.12,1.75a3.69,3.69,0,0,1,2.41,0,5.13,5.13,0,0,0,1.62.06c.6,0,1.21,0,1.81,0,.33,0,.65-.06.91-.09l.72-1.29a3.78,3.78,0,0,0,.7.11,1.45,1.45,0,0,0,.57-.17c.35-.21.68-.46,1-.66.08-.05.23,0,.46.05-.28.48-.54.92-.91,1.53,1.89-.25,3.56-.51,5.24-.69a11.07,11.07,0,0,0,5-2A5.22,5.22,0,0,0,69.54,29a8.21,8.21,0,0,1,1.82-2.49,3,3,0,0,1,.75-.22c-.29.56-.46.91-.64,1.25a2.78,2.78,0,0,0-.53,1.55l-.08.05,0,0c.54-.17.93.43,1.55.21,2.07-.74,3.77-2.17,5.72-3.11a25,25,0,0,0,3.34-4.23q.63-1.2,1.32-2.37a3.51,3.51,0,0,1,.54-.57c.43.8-.08,1.3-.29,1.86s-.71,1-.62,1.72c.91-.3,1-.36,1.9-2.48a7.13,7.13,0,0,1-.3-.74.73.73,0,0,1,0-.41c.16-.68.32-1.35.52-2,.09-.31.08-.72.56-.89a4.12,4.12,0,0,1,0,2.62c0,.14.1.31.2.58a2.77,2.77,0,0,0,.42-.59c.4-1.3-.26-5.2-1.16-6.19A25.71,25.71,0,0,0,78.37,7c-1.36-.79-2.68-1.67-4-2.47a10.73,10.73,0,0,0-2.21-1.07,38.29,38.29,0,0,0-8.39-1.74,45.24,45.24,0,0,0-9.59.39A35,35,0,0,0,44.35,5,4,4,0,0,0,42.14,7c0,.09-.24.1-.46.19l-1-1C39.44,6.64,38.3,7.44,37,7.94a7.64,7.64,0,0,0-3.5,3.1A11.29,11.29,0,0,1,31,14.31a2.43,2.43,0,0,0-.59.85c-.4.72-.79,1.46-1.21,2.24.6,1.16,1.2,2.33,1.82,3.49a5.28,5.28,0,0,0,3.05,2.63,7,7,0,0,1,1.11.53c.08.05.11.21.16.32s-.2.22-.3.23a5,5,0,0,1-4.84-2.54c-.26-.43-.44-1-1-1.17-1,.92-.76,2.07-.71,3.17,0,.89.67,1.35,1.25,1.83a54,54,0,0,0,6.52,4.3,1.17,1.17,0,0,0,.38.17,6.44,6.44,0,0,1,2.69,1.31c.55-.28,1-.53,1.51-.76,0,0,.11.06.25.14,0,.35-.06.74-.09,1.13C43.1,33.23,43.58,33.31,45.5,32.86ZM31.89,72.16c-1.48-.73-1.48-.73-2.42-.65a2.77,2.77,0,0,0,1.7,1.66ZM66.48,36.63c2-.35,3.21-.9,3.73-1.63A10.15,10.15,0,0,0,66.48,36.63Zm7.36-1.43c-.58-.75-.62-.78-1.14-.64s-.83.13-.9.63a.66.66,0,0,0,.56.81ZM33.58,73.79c1.37.08,1.37.06,2.17-.73C34.78,72.54,34.29,73.28,33.58,73.79ZM69,33.26a1.7,1.7,0,0,0,2-.62c.16-.22.51-.46.13-.86ZM74.34,31a2.31,2.31,0,0,0-.68-.24.54.54,0,0,0-.37.35.56.56,0,0,0,.31.41.83.83,0,0,0,.55-.09C74.23,31.35,74.25,31.16,74.34,31ZM50.82,76.28v.06H52v-.06ZM37.76,73.67a7.6,7.6,0,0,0-1,.1c-.07,0-.09.22-.13.34.12,0,.26.11.35.07A5,5,0,0,0,37.76,73.67Zm9.31,2.16c.44.22.63.33.84.42a.88.88,0,0,0,.36.06s.1-.14.09-.15a1.45,1.45,0,0,0-.44-.32A4.23,4.23,0,0,0,47.07,75.83Zm-5.19-1.17c.11,0,.27-.08.31-.17s-.08-.21-.13-.32l-.43.23Zm-13-54.77-.26-.17a.67.67,0,0,0-.12.31c0,.07.15.11.23.17Zm28.35,92.17s0-.11-.08-.13a.3.3,0,0,0-.2-.05,1.65,1.65,0,0,0-.26.14.33.33,0,0,0,.16.09A2.32,2.32,0,0,0,57.24,112.06ZM60.57,36.8c0,.05,0,.14.07.14a2.41,2.41,0,0,0,.38,0c0-.08-.07-.25-.08-.25A1.6,1.6,0,0,0,60.57,36.8Zm3.14,41.69.31-.12c0-.05-.08-.13-.11-.13a1.24,1.24,0,0,0-.33,0A2.39,2.39,0,0,1,63.71,78.49ZM62.26,34.78l.14-.06-.14,0ZM35.16,70.83l.13.07,0-.1Zm14.41,2.06-.13.06.14,0Z"/><path class="cls-2" d="M106.48,88.29c0,.47,0,.95-.08,1.43,1.95-.62,2.56-1.15,3.06-2.89s1.32-3.22,1.26-5c.52.05.77.31.73.69a11.39,11.39,0,0,1-.36,1.83c-.21.73-.48,1.45-.72,2.18,0,0,.07.11.16.27a3.93,3.93,0,0,0,1.73-1.9,15.15,15.15,0,0,0,.45-2.74c.45.93.76,1.58,1.1,2.3a16,16,0,0,1-1.9,3.35h-.57l-2,1.82a8.78,8.78,0,0,0,.06,1.06c.06.28-.17.69.37.88a9.58,9.58,0,0,0,1.52-3.79H112a25.42,25.42,0,0,1-2.63,6.48l-.89-.09a7.8,7.8,0,0,0-1.25,2.31c-.07.19.12.5.19.75l0,0-.8.51a.92.92,0,0,1-.47-1.28,20.89,20.89,0,0,1,1-2.25c.34-.68.71-1.34,1.06-2l.08-.25c0,.08,0,.19,0,.29l-1.23.65-.76-.7A3.53,3.53,0,0,0,104,93.86a1.91,1.91,0,0,1-.25.33c-.43.52-.63.49-1.16-.18a6.46,6.46,0,0,0-3.82,2.26,7.12,7.12,0,0,1-1.24,1.08.54.54,0,0,1-.53-.08c-.1-.09-.08-.37,0-.54a2.37,2.37,0,0,1,.32-.5c-.07-.39-.37-.35-.61-.4h0c2.43-1.28,2.43-1.28,4.15-3.75.71-1,1.41-2.06,2.12-3.07.15-.21.22-.53.57-.53.09.86.09.85-.92,2.53a12.53,12.53,0,0,0-1.3,2.37c1.31-.22,1.69-.38,2.18-.93a2.24,2.24,0,0,0-.3-.44l0,0a3.31,3.31,0,0,1,.45-.39,5,5,0,0,0,2.13-2.36,7.23,7.23,0,0,1,.69-1Z"/><path class="cls-2" d="M98.77,106.31c-.13,0-.27,0-.4.09-.35.09-.75.07-.87-.29a1.44,1.44,0,0,1,.07-1,5.12,5.12,0,0,1,.78-1c.89-1.06,1.8-2.1,2.66-3.18a6.94,6.94,0,0,0,1.51-2.46,1.38,1.38,0,0,1,.42-.71,4,4,0,0,0,1.21-1.9.88.88,0,0,1,.26,1.14,15,15,0,0,1-1,2.26,36.08,36.08,0,0,1-3.79,5.45c-.38.46-.93.86-.85,1.59Z"/><path class="cls-2" d="M23.5,100.36a34.84,34.84,0,0,0,2.84,2c2.77,1.61,5.24,3.73,8.18,5.06.11,0,.18.19.28.3-.09.39-.4.26-.61.21a9.13,9.13,0,0,1-3-1.31c-1.71-1.13-3.45-2.22-5.15-3.36a7.47,7.47,0,0,1-2.77-2.7Z"/><path class="cls-2" d="M29.39,99.24a4.08,4.08,0,0,1,1,0,7.61,7.61,0,0,1,1.43.78,3.74,3.74,0,0,0,4.2.38,5.61,5.61,0,0,1,1.15-.41,2.66,2.66,0,0,1,1.78.06.44.44,0,0,1,.21.29c0,.11-.06.32-.14.34-1.55.47-3.08,1-4.65,1.34a2.92,2.92,0,0,1-1.76-.29A12.69,12.69,0,0,1,29.39,99.24Z"/><path class="cls-2" d="M88.27,100.76a4.64,4.64,0,0,1,.47-.88c1.48-1.73,3-3.46,4.47-5.17a2.62,2.62,0,0,1,.68-.43s.12,0,.16.08.1.12.09.16a.81.81,0,0,1-.12.39c-1.36,1.66-2.72,3.31-4.1,5A1.9,1.9,0,0,1,88.27,100.76Z"/><path class="cls-2" d="M87.35,75.63a3.72,3.72,0,0,0-1.71,1.06,21.68,21.68,0,0,1-2.06,1.66,1.7,1.7,0,0,1-1.79.21c.12-.21.17-.46.3-.51a9.74,9.74,0,0,0,3.14-2.23A5.29,5.29,0,0,1,86.39,75c.41-.24.64-.06.92.67Z"/><path class="cls-2" d="M15.51,101.81a42.57,42.57,0,0,1-5.74-4c-.15-.11-.21-.32-.32-.5.15,0,.31-.17.38-.12A27.32,27.32,0,0,1,15.51,101.81Z"/><path class="cls-2" d="M100.56,83c.38-2.13,1.82-3.57,2.92-5.31a1.15,1.15,0,0,1-.18,1.26A15.3,15.3,0,0,1,100.56,83Z"/><path class="cls-2" d="M20.29,95.65c1.55.78,2.48,2.26,4,3.34-.37.09-.59.21-.69.15A9,9,0,0,1,20.29,95.65Z"/><path class="cls-2" d="M93.54,73.44a1,1,0,0,1-.12-1.3,2.12,2.12,0,0,1,.66-.76c.59-.37.35-.95.42-1.54.86,0,1.61-.57,2.64-.4-.13.24-.18.49-.29.52a4.41,4.41,0,0,0-3,3.07A2.39,2.39,0,0,1,93.54,73.44Z"/><path class="cls-2" d="M16.51,99.84a1.38,1.38,0,0,1,.5.2,40.33,40.33,0,0,1,3.23,2.57A5.39,5.39,0,0,1,17,100.86C16.71,100.63,16.2,100.44,16.51,99.84Z"/><path class="cls-2" d="M12.42,89.64a5.46,5.46,0,0,1,2.15,2.65,3,3,0,0,1-2.13-1.73C12.33,90.38,12.42,90.07,12.42,89.64Z"/><path class="cls-2" d="M56,103.28c-1.43.21-2.64.63-3.72-.53C53.43,102.54,54.1,102.63,56,103.28Z"/><path class="cls-2" d="M83.53,108.48c.7-.51,1.4-1,2.12-1.54a.39.39,0,0,1,.35,0,.41.41,0,0,1,.09.36,3.35,3.35,0,0,1-2.35,1.58Z"/><path class="cls-2" d="M21.85,102.23c1-.14,1.59.26,2.5,1.67C23.33,103.59,23.13,103.46,21.85,102.23Z"/><path class="cls-2" d="M89.67,74.82a3,3,0,0,1-2.61,1.74c.15-.47.22-.7.29-.93l0,0,2.39-.82Z"/><path class="cls-2" d="M110,79.66a4.1,4.1,0,0,1-1.1,1.94c-.42-.18-.2-.45-.1-.64.27-.48.57-.94.87-1.4a.17.17,0,0,1,.18-.06S110,79.59,110,79.66Z"/><path class="cls-2" d="M80.27,96.24a4.75,4.75,0,0,1,1.82-1.93c-.16,1-.23,1.12-1.73,2Z"/><path class="cls-2" d="M89.7,74.85c.34-.32.67-.65,1.2-1.17-.48.81-.48.82-1.23,1.14Z"/><path class="cls-2" d="M77.79,95.38c.06-.63.45-.88,1.06-1a1.84,1.84,0,0,1-1,1.13Z"/><path class="cls-2" d="M43.79,101.4a1.43,1.43,0,0,1-1.11-.71.39.39,0,0,1,.07-.35.38.38,0,0,1,.32-.09,1.44,1.44,0,0,1,.87,1Z"/><path class="cls-2" d="M104.68,80.56c.09.18.22.34.18.41a1.74,1.74,0,0,1-.37.4c0-.11-.17-.25-.14-.32A3.24,3.24,0,0,1,104.68,80.56Z"/><path class="cls-2" d="M90.93,106.11a.39.39,0,0,1-.54.33c-.07,0-.15-.26-.11-.29a1.35,1.35,0,0,1,.44-.31S90.86,106,90.93,106.11Z"/><path class="cls-2" d="M106.88,87.39l.2-.24a.47.47,0,0,1-.07.12.53.53,0,0,1-.17.08Z"/><path class="cls-2" d="M106.84,87.35c0,.36.06.75-.36.94l0,0c.13-.31.25-.62.37-.93Z"/><path class="cls-2" d="M86.77,92.43c.07.37.1.72-.36.87l0,0c.12-.29.24-.57.36-.87Z"/><path class="cls-2" d="M86.41,93.3a2.17,2.17,0,0,1,0,.36s-.07.09-.11.14-.15-.23-.12-.28.18-.13.28-.19Z"/><path class="cls-2" d="M79.87,96.68a3.3,3.3,0,0,1-.22.3s-.11,0-.16-.06l.42-.21Z"/><polygon class="cls-2" points="86.81 92.46 86.92 92.44 86.77 92.42 86.81 92.46"/><path class="cls-2" d="M103.21,92l0,0Z"/><path class="cls-2" d="M77.87,95.46l-.24.18.16-.26Z"/><path class="cls-2" d="M96.69,95.83l0,0Z"/><path class="cls-2" d="M79.91,96.71a.41.41,0,0,1,.36-.47l.09.1-.49.34Z"/><path class="cls-2" d="M23,100l0,0Z"/><path class="cls-2" d="M23.29,100.58,23,100l0,0,.53.29Z"/><path class="cls-2" d="M43.94,101.25c.08.18.17.37.25.56l0,0-.44-.37Z"/><polygon class="cls-2" points="44.2 101.81 44.34 101.78 44.23 101.77 44.2 101.81"/><path class="cls-2" d="M98.6,54.44c.3.34.1.59,0,.81a45.74,45.74,0,0,1-3.82,5.9c-.61.75-1.09,1.6-1.68,2.36S91.69,65.22,91,66.06c-.1.11-.33.12-.65.22.12-.89.78-1.23,1.14-1.76s.81-1.11,1.22-1.67.78-1.13,1.19-1.69.88-1.06,1.29-1.62.78-1.13,1.16-1.71.73-1.17,1.11-1.75A6.26,6.26,0,0,1,98.6,54.44Z"/><path class="cls-2" d="M77.37,62.84c-.09-.12-.28-.28-.29-.44a1.7,1.7,0,0,1,.15-.8c.68-1.44,1.38-2.87,2.08-4.31.27-.56.55-1.12.83-1.67.16-.32,0-1,.66-.74.15.06.14.62.15.95a1.49,1.49,0,0,1-.16.6c-.85,2-1.7,3.94-2.58,5.9A.71.71,0,0,1,77.37,62.84Z"/><path class="cls-2" d="M78.57,66.36c-.12-.12-.25-.19-.29-.3a.58.58,0,0,1,0-.41,3.13,3.13,0,0,1,.37-.73c1.72-2.25,3.46-4.5,5.19-6.74a1,1,0,0,1,.33-.23.2.2,0,0,1,.2,0c.08.09.2.22.19.32a1.41,1.41,0,0,1-.22.57Q81.7,62.45,79,66A1.73,1.73,0,0,1,78.57,66.36Z"/><path class="cls-2" d="M26.52,67c-.25,0-.55.1-.72,0a8.9,8.9,0,0,1-1.57-1.3c-1.4-1.6-2.75-3.24-4.11-4.89a.75.75,0,0,1-.07-.54c0-.21.47-.2.7,0a22.46,22.46,0,0,1,1.84,1.94C23.83,63.8,25.08,65.34,26.52,67Z"/><path class="cls-2" d="M96.23,49.88c.41.32.7.43.77.63a2.06,2.06,0,0,1,.09,1,14.15,14.15,0,0,1-.43,1.82q-.8,2.49-1.65,4.95c0,.13-.31.21-.49.24s-.24-.15-.27-.26a2.71,2.71,0,0,1,.09-1.84c.21-.59.47-1.16.7-1.74A14.87,14.87,0,0,0,96.23,49.88Z"/><path class="cls-2" d="M101.67,50.82a7.39,7.39,0,0,1,0,4.48c-.36,1.11-.83,2.19-1.29,3.26a.53.53,0,0,1-.49.19.58.58,0,0,1-.28-.47,3.67,3.67,0,0,1,.31-1.19,11.1,11.1,0,0,0,1.34-5.36C101.24,51.56,101.4,51.39,101.67,50.82Z"/><path class="cls-2" d="M94.72,65.63c-3.08,2.09-6.67,2.2-10.19,2.8-.11-.56.28-.63.55-.68,1.73-.31,3.47-.55,5.19-.88.86-.16,1.7-.44,2.55-.67Z"/><path class="cls-2" d="M70.07,63.53c-.42.53-.82,1.08-1.27,1.58a.6.6,0,0,1-.56,0,.64.64,0,0,1-.24-.52,4.57,4.57,0,0,1,.41-1.16,8.9,8.9,0,0,0,1.24-3.91c0-.1.16-.19.24-.29a.63.63,0,0,1,.48.79c-.13.88-.31,1.76-.51,2.63a1.17,1.17,0,0,0,.24,1Z"/><path class="cls-2" d="M91.43,59.79a1.24,1.24,0,0,1-.1.4,39.73,39.73,0,0,1-4.39,6,4.31,4.31,0,0,1-.63.48c0-.24-.1-.41,0-.49q2.14-2.93,4.32-5.84a8.27,8.27,0,0,1,.72-.73Z"/><path class="cls-2" d="M62.31,71.93A1.16,1.16,0,0,0,61.7,71c-.54-.31-1.2-.51-1.46-1.2h0a1.06,1.06,0,0,1,.4,0A31.23,31.23,0,0,0,64,71.09a22.48,22.48,0,0,0,3.59.46,3.6,3.6,0,0,1,.52.19,5.41,5.41,0,0,1-2,.26,10.17,10.17,0,0,1-1.83-.11,6.77,6.77,0,0,0-2,0Z"/><path class="cls-2" d="M25.83,58a2.92,2.92,0,0,1-.39.9c-.6.64-1.25.56-1.63-.2a4.57,4.57,0,0,1-.74-3.29.48.48,0,0,1,.68.32c.29.77.57,1.54.88,2.31,0,.11.18.17.31.28l.92-.29Z"/><path class="cls-2" d="M56.72,58.81c0,.25.17.53.1.74a6.11,6.11,0,0,1-.57,1.31c-.3.54-.65,1-1,1.58s-.64.77-.83.59c-.39-.38-.15-.8,0-1.12.59-1.07,1.24-2.11,1.87-3.15Z"/><path class="cls-2" d="M25.86,58.05a12,12,0,0,1,.44-1.36.59.59,0,0,1,.48-.26.73.73,0,0,1,.49.3,2,2,0,0,1,.27.76c.26,1.37.25,1.37,1.08,2.2a.65.65,0,0,1-.86.31,2.75,2.75,0,0,1-1-.68,1.4,1.4,0,0,1-.22-.78c0-.51-.49-.36-.74-.52Z"/><path class="cls-2" d="M63.53,60.67c0,.27.12.5,0,.64-.41.87-.84,1.72-1.3,2.56a.89.89,0,0,1-.46.37.61.61,0,0,1-.53,0,.57.57,0,0,1-.13-.52c.58-.92,1.19-1.83,1.81-2.72C63.07,60.82,63.29,60.78,63.53,60.67Z"/><path class="cls-2" d="M54.55,69.73c2,1.34,2.27,1.44,5.18,1.93a2.89,2.89,0,0,1-2.51.2c-.8-.35-1.56-.81-2.33-1.24-.35-.2-.29-.59-.31-.93Z"/><path class="cls-2" d="M34.47,61.09a.72.72,0,0,1-.81-.58,1.56,1.56,0,0,1,.13-1.38s.11-.1.15-.09.3,0,.35.11A2.83,2.83,0,0,1,34.47,61.09Z"/><path class="cls-2" d="M42.37,62.73c-.1-.27-.23-.46-.21-.64,0-.45-.17-1,.41-1.25a.2.2,0,0,1,.18,0c.46.43.17.88,0,1.31A2.86,2.86,0,0,1,42.37,62.73Z"/><path class="cls-2" d="M68.76,72.66c.19-.28.37-.56.58-.82.07-.08.25-.08.37-.08s.22.33,0,.5-.54.38-.81.57Z"/><path class="cls-2" d="M60.24,69.8c-.22-.11-.46-.2-.68-.32,0,0,0-.12-.06-.19s.26-.11.29-.08a6.13,6.13,0,0,1,.44.6Z"/><path class="cls-2" d="M92.15,58.44a1.44,1.44,0,0,1-.72,1.35l-.13-.12a1.44,1.44,0,0,1,.88-1.19Z"/><path class="cls-2" d="M89.69,51.72c0,.12,0,.24-.07.36-.32-.22,0-.23.1-.33Z"/><path class="cls-2" d="M33.54,67.39l-.38-.33c.25-.26.42-.14.56.12Z"/><path class="cls-2" d="M90.14,51.33a.4.4,0,0,1,.41-.42l0,0c0,.28-.14.41-.41.42Z"/><path class="cls-2" d="M92.18,58.48l.16-.18s0,.1,0,.12a.36.36,0,0,1-.15,0Z"/><path class="cls-2" d="M90.11,51.3c0,.27-.13.43-.42.42l0,0,.42-.42Z"/><path class="cls-2" d="M70.54,63.12c0-.06,0-.1,0-.15a.37.37,0,0,0,0,.11Z"/><path class="cls-2" d="M70.1,63.56c.15-.15.29-.3.44-.44l0,0-.44.45Z"/><path class="cls-2" d="M57.37,66.87l.08-.13-.11.1Z"/><path class="cls-2" d="M29.13,67.24l0,0Z"/><path class="cls-2" d="M29.09,67.27l.43.41,0,0-.43-.41Z"/><path class="cls-2" d="M29.52,67.68l.45.45,0,0-.44-.44Z"/><path class="cls-2" d="M61.42,26.92c-.12.82-.76,1.12-1.4,1.34a17.63,17.63,0,0,1-2.76.76,4.42,4.42,0,0,0-2,1c-1.16.86-2.34,1.67-3.52,2.5a1.69,1.69,0,0,1-.57.24c-.11,0-.34,0-.35-.08s-.06-.45,0-.55a10.82,10.82,0,0,1,1.1-.93c.66-.49,1.35-1,2-1.45a4,4,0,0,0,.53-.66A7.08,7.08,0,0,0,51,27.76c-2.65-.22-5.3-.34-8-.31a11.34,11.34,0,0,1-1.84-.08c-.45-.07-.92-.25-1-.87.47-.23.71.28,1.08.33s.82.07,1.22.08.82,0,1.23,0a54.27,54.27,0,0,0,8-.37,3.75,3.75,0,0,1,2.58.37,3.59,3.59,0,0,0,1.15.41,1.9,1.9,0,0,0,1.91-.42,3.59,3.59,0,0,1,.71-.4l.38,1c1.07.16,2-.39,3-.59Z"/><path class="cls-2" d="M75,22.71a4.58,4.58,0,0,1,.64-1.29c1.15-1.15,1.69-2.67,2.54-4-.39-.75-1.14-.4-1.63-.64,0-.16-.12-.29-.09-.4A36,36,0,0,1,79,10.22c.07-.16.26-.26.44-.42.13,1.11.13,1.11-.65,3l-1.13,2.64c.4.31.55,0,.73-.15l1.52-1.34h0a2.47,2.47,0,0,1-.17.79c-.32.52-.7,1-1.11,1.58.46,1,0,1.91-.48,2.86a8.12,8.12,0,0,1-2.48,3.21,4,4,0,0,1-.73.3Z"/><path class="cls-2" d="M68.76,8.45c0,.41.11.91-.08,1.21a25.39,25.39,0,0,1-6.27,7.1c-.27.2-.62.29-.85-.11a.92.92,0,0,1,.15-.38c.78-.78,1.53-1.59,2.37-2.3a14.65,14.65,0,0,0,2.1-2.28C67,10.6,67.92,9.55,68.8,8.48Z"/><path class="cls-2" d="M67.86,25.76a1.7,1.7,0,0,1-.07,1.79c-.73,1.23-1.49,2.45-2.25,3.67a.36.36,0,0,1-.36.09.89.89,0,0,1-.39-.4,1.09,1.09,0,0,1,0-.59,3.16,3.16,0,0,1,.38-.73C66.06,28.36,66.91,27.13,67.86,25.76Z"/><path class="cls-2" d="M80.7,18.55a2.89,2.89,0,0,1,0,1,20.88,20.88,0,0,1-3.31,5.71.32.32,0,0,1-.17.11c-.12,0-.27,0-.35,0a.44.44,0,0,1-.14-.36,2.92,2.92,0,0,1,.32-.75c1.16-1.87,2.34-3.73,3.51-5.59,0,0,.13,0,.19-.07Z"/><path class="cls-2" d="M71.73,13.16a3,3,0,0,1-1.16,1.61,18.29,18.29,0,0,1-5.17,3.55c0-.11,0-.29,0-.34C67.44,16.41,69.39,14.7,71.73,13.16Z"/><path class="cls-2" d="M80.73,18.58c0-1.7.6-3.26.84-5.06.25.28.44.4.48.56A8.58,8.58,0,0,1,82,17.39c-.09.74-.68,1-1.29,1.16Z"/><path class="cls-2" d="M73,23.34a5.52,5.52,0,0,1-3.88,1.85c-.4-.34-.18-.61.08-.85a1.19,1.19,0,0,1,.52-.3C70.72,23.81,71.7,23.62,73,23.34Z"/><path class="cls-2" d="M69.74,7.66l.3-.89,0,0-.3.9Z"/><polygon class="cls-2" points="61.45 26.95 61.51 26.92 61.42 26.92 61.45 26.95"/><polygon class="cls-2" points="45.5 32.86 45.57 32.78 45.52 32.84 45.5 32.86"/><path class="cls-2" d="M70,6.77l.2-.12s0,.08-.08.09a.92.92,0,0,1-.16,0Z"/><path class="cls-2" d="M69.7,7.63,69.25,8l0,0,.46-.37Z"/><path class="cls-2" d="M69.25,8l-.49.46,0,0L69.28,8Z"/><path class="cls-2" d="M79.88,13.92l.19-.18s0,.12,0,.14a.43.43,0,0,1-.16,0Z"/><path class="cls-2" d="M74.93,22.67l0,0Z"/></g></g></svg>