<svg xmlns="http://www.w3.org/2000/svg" viewBox="0 0 155.83 177.51"><defs><style>.cls-1{fill:#ffece6;}.cls-1,.cls-2{fill-rule:evenodd;}</style></defs><title>two candles</title><g id="Layer_2" data-name="Layer 2"><g id="BACKGROUND_1" data-name="BACKGROUND 1"><path class="cls-1" d="M93,138.26l.76-.28.58-.17a3.3,3.3,0,0,1-.6,1.93,1.24,1.24,0,0,0,.32,1.71,22.65,22.65,0,0,1-4.3,2.23,76.06,76.06,0,0,1-12,3.35A21.1,21.1,0,0,1,69,147a4.29,4.29,0,0,0-.81-.14c-2.37-.19-4.75-.33-7.12-.56a95.73,95.73,0,0,1-12.9-2.08,23.63,23.63,0,0,1-6.76-2.75,4.6,4.6,0,0,0-2.78-1.05c-.36,0-.77-.5-1.2-.81v-2.4c.1,0,.18,0,.22,0s.34.29.5.28.31-.29.3-.43c-.08-1.08-.17-2.17-.33-3.25s-.42-2-.58-3a5.78,5.78,0,0,1,.26-3.8,1.82,1.82,0,0,0,0-1.18c-.93-4.09-.83-8.26-1.19-12.4-.44-5-.38-10-.48-14.92,0-1.09-.18-2.17-.24-3.26-.08-1.64-.2-3.27-.2-4.9,0-6-.56-12-1-18-.13-1.76-.13-3.54-.16-5.31,0-1.37,0-2.73,0-4.09a23.1,23.1,0,0,1,.71-5.86c.18-.73.26-1.48.43-2.21A18.91,18.91,0,0,1,36.32,53a1.79,1.79,0,0,1,1.43-1.32c1.65-.27,2.38-1.4,2.72-3,3.34-.44,6.13-2.25,9.1-3.58a43.44,43.44,0,0,0,4.91-2.48,15,15,0,0,0,5.15-4.83,11.85,11.85,0,0,0,2-.55,7,7,0,0,1,4.2-.37c.15.42.29.78.46,1.25-.84.3-1.66-.73-2.41.15,1,1.52,2.83.9,4.2,1.64l2.41-1.33c.06-.4-.09-.61-.4-.63s-.81,0-1.34,0c0-.32-.07-.63-.12-1a7,7,0,0,1,3.86.2c.68.28,1.4.46,2.33.75.14.2.4.59.69,1a13.65,13.65,0,0,0,4,3.49c.82.48,1.62,1,2.54,1.56A12.15,12.15,0,0,1,81.42,45c-.45.68-1,1.33-1.4,2a.55.55,0,0,0,.1.8,4.57,4.57,0,0,0,1.36-1.66c.38-.63.73-1.28,1.13-2a9.65,9.65,0,0,1,1,.34c2.22,1,4.41,2.17,6.65,3.15,1.17.51,2.44.81,3.78,1.24a5.37,5.37,0,0,1,.31,1.66,1.75,1.75,0,0,0,.54,1.78c.41.36.06,1.08-.55,1.2a1.82,1.82,0,0,0-1.19.63,5.09,5.09,0,0,1-2.69,1.36c-.78.23-1.58.36-2.39.54,0,.47.35.33.54.36a8.48,8.48,0,0,0,5.48-1.23,17,17,0,0,1,1.84-.84c0,.41-.37.89.35,1.2A3.87,3.87,0,0,0,97.47,54c.12-.34.07-.66-.42-.7L95.9,54.34c.1-.86.21-1.72.31-2.59,1.13,0,1.35.1,1.65.73a7.7,7.7,0,0,1,.77,2.1c.32,2.08,1,4.1,1.12,6.22,0,.47.08,1,.07,1.42A114.47,114.47,0,0,1,99.3,75.7c-.08.67-.06,1.36-.1,2-.12,1.83-.28,3.67-.36,5.5s-.12,3.55-.14,5.32c0,2.38-.09,4.76-.3,7.14s-.25,4.49-.27,6.74a95.18,95.18,0,0,1-.45,10.41,22.79,22.79,0,0,0-.11,2.86,46.82,46.82,0,0,1-1,10,2.09,2.09,0,0,0,.1,1.57,4.56,4.56,0,0,1,.28,3.19c-.3,1.67-.6,3.35-.86,5a4.15,4.15,0,0,0,0,2.1l.93-.39v1.68l-1.65,1c-.32-1.13.67-2.26-.28-3.17-1-.12-1.33.8-2,1.13l0,0c-.11-.6.64-1.08.25-1.83a3.49,3.49,0,0,0-.63.52c-.69.84-1.38,1.69-2,2.57a6.53,6.53,0,0,1-3.37,2.52c-2.06.68-4.11,1.42-6.16,2.15a10.72,10.72,0,0,1-3,.69,2.61,2.61,0,0,0-1.79.59c.22.16.41.39.62.43a6.59,6.59,0,0,0,1.82.12A12,12,0,0,0,81.2,145a45.36,45.36,0,0,0,6.27-2.42c1.52,0,2.4-1.09,3.37-2a8.83,8.83,0,0,0,2.23-2.33Zm-16.75-6.15a.65.65,0,0,0-.2,0s-.06.08-.09.12a2.43,2.43,0,0,0,.25-.2l.42-.47c.68,0,1.11-.47,1.59-.83a61.19,61.19,0,0,0,10.37-10.29,2.26,2.26,0,0,0,.27-.6c-.21-.06-.46-.21-.54-.14a8.49,8.49,0,0,0-1,1c-1.44,1.53-2.84,3.11-4.3,4.61-2.08,2.14-4.22,4.22-6.33,6.33ZM95,58.68l.45-.77a.8.8,0,0,0,.37-.79l.5-.4.09-.12,0,.16c-.17.13-.34.26-.5.4s-.25.52-.37.79-.31.51-.47.77c0,.1-.06.19-.08.28Zm-.42,76.54a1.24,1.24,0,0,0,.26-.25s0-.14-.05-.22a.84.84,0,0,1,0,.17c0,.12-.09.23-.14.34s0,.18-.07.35C94.58,135.43,94.6,135.32,94.61,135.22Zm1.33-48.1a3.55,3.55,0,0,0-.74.64,11,11,0,0,0-1.75,4.92c0,.11.1.24.17.41.74-.89.69-2,1.11-3s.82-2,1.23-3L96,87Zm.37,8.11a18.15,18.15,0,0,0-2.77,5.61,7,7,0,0,0-.09,1.66c.39-.41.64-.57.72-.78q1-2.67,1.91-5.35a6.6,6.6,0,0,0,.19-1.18l.14,0ZM77,125c.54-.09.74-.56,1-.94,1.75-2.52,3.5-5,5.22-7.57a19.86,19.86,0,0,0,1.12-2c.08-.15,0-.37,0-.76a3.58,3.58,0,0,0-.69.54c-1.63,2.35-3.24,4.72-4.85,7.08A15.07,15.07,0,0,0,77,125.05l0,.07Zm4.86-67.28s-.08-.12-.11-.12c-.68,0-1.35.11-2,.09a32.73,32.73,0,0,0-5.5.44,18.59,18.59,0,0,1-2.24.15c-1.5,0-3,0-4.5,0-2.12,0-4.24,0-6.34-.09-2.72-.15-5.43-.46-8.14-.69a2.9,2.9,0,0,0-.7.22,4.28,4.28,0,0,0,1.87.65,63.8,63.8,0,0,0,9.36.8c2.32-.05,4.64-.06,6.95,0a58.94,58.94,0,0,0,9.57-.79A9.81,9.81,0,0,0,81.66,58C81.76,58,81.82,57.82,81.89,57.72Zm13.8,45c-.35.06-.36.37-.42.62-.35,1.52-.71,3-1,4.57a12.69,12.69,0,0,0-.26,2c0,.72.23.91,1.12,1.08a3.57,3.57,0,0,1,.7.31,14.42,14.42,0,0,1-.67,4.1,15.65,15.65,0,0,0-1,4.16,12.87,12.87,0,0,0-.2,1.61,3.51,3.51,0,0,0,.31,1.16.39.39,0,0,0,.33.17.42.42,0,0,0,.32-.18,3.6,3.6,0,0,0,.21-.78,34.92,34.92,0,0,1,1.2-6,6.55,6.55,0,0,0,.2-3.43,3.3,3.3,0,0,0-.29-1.17,6.1,6.1,0,0,0-1.13-1c.07-.67.13-1.41.25-2.14s.32-1.32.47-2A5.75,5.75,0,0,0,95.69,102.75ZM76.28,140.57a2.81,2.81,0,0,0,1.65-.95c1.57-1.41,3.1-2.88,4.7-4.25a43.5,43.5,0,0,0,7.93-9.55A3.82,3.82,0,0,0,91,124.7s-.2-.2-.28-.18a1.09,1.09,0,0,0-.5.29c-.39.48-.74,1-1.11,1.47a52.51,52.51,0,0,1-7.53,8.58c-1.64,1.43-3.14,3-4.69,4.55C76.57,139.68,76.17,139.91,76.28,140.57ZM97.37,75.32c-.28.1-.47.1-.52.18-.64,1.12-1.33,2.21-1.89,3.37s-1.13,2.61-1.67,3.93a3.27,3.27,0,0,0-.2,2,3.42,3.42,0,0,0,.39.61,8.33,8.33,0,0,0,.36-.83c.3-1,.5-2,.88-2.91.5-1.26,1.13-2.47,1.73-3.69A6.21,6.21,0,0,0,97.37,75.32Zm-3.86,1.52c.33-.71.47-1.09.67-1.44a16.58,16.58,0,0,0,1.66-5.22,1.82,1.82,0,0,0,0-1,16.4,16.4,0,0,1-.53-2.56c0-.13-.3-.19-.51-.32a6.94,6.94,0,0,0-.09,3.29,4.2,4.2,0,0,1,0,1.58,11.16,11.16,0,0,1-1,3.1A11.81,11.81,0,0,0,93.19,76C93.15,76.13,93.31,76.33,93.51,76.84Zm-9.78,63.61a.57.57,0,0,0,.93.18,17.55,17.55,0,0,0,6-7,.47.47,0,0,0,.06-.2c0-.16,0-.33,0-.72-.82,1.08-1.48,2-2.21,2.87s-1.56,1.7-2.32,2.57S84.31,139.47,83.73,140.45ZM95,124.56c-.46,3.32-.44,7.15,0,8.64.11,0,.3-.08.33-.16A24.34,24.34,0,0,0,95,124.56ZM46.5,56.25c-.06-.11-.08-.21-.12-.22-.72-.17-1.46-.28-2.16-.51C43,55.13,41.68,55,41,53.74c-.15-.27-.68-.12-.83.19a.76.76,0,0,0,.11.93,4.11,4.11,0,0,0,.95.72A8,8,0,0,0,46.5,56.25Zm51.63,3a19.26,19.26,0,0,0-4.23,6.15c0,.07.11.22.21.42a3,3,0,0,0,.6-.49c.44-.61.83-1.25,1.25-1.87.72-1.08,1.46-2.14,2.18-3.21A.7.7,0,0,0,98.13,59.2Zm-8.57-9.78a10.92,10.92,0,0,0-3.27,3.26.47.47,0,0,0,.09.71.52.52,0,0,0,.7-.18c.86-1,1.71-2.09,2.56-3.14C89.69,50,89.61,49.83,89.56,49.42Zm-13-2.25c.36-.67.78-1.37,1.11-2.11s1-1.28.82-2.18c-1.06.15-1.13,1.19-1.61,1.84A8,8,0,0,0,76,46.51C75.84,46.86,76.07,47.15,76.59,47.17Zm7.3-.62c-.17,0-.26-.09-.29-.07a5.52,5.52,0,0,0-2,2.77.59.59,0,0,0,.2.51.61.61,0,0,0,.57,0,12.89,12.89,0,0,0,1.15-.94C83,48,83.93,47.42,83.89,46.55Zm-6.75-4.69a10.15,10.15,0,0,0-3.47,3,.61.61,0,0,0,.06.88A24.91,24.91,0,0,0,77.14,41.86Zm8.56,9.77c.33-1.14.59-2,.81-2.8.06-.24.12-.54-.33-.63a5.74,5.74,0,0,0-1.13,1.87,1.59,1.59,0,0,0,0,1C85.1,51.25,85.39,51.37,85.7,51.63Z"/><path class="cls-1" d="M72,22.09,70,18.62a31,31,0,0,1-2.71-5.48,1.91,1.91,0,0,0-.3-.52c-.08-.09-.27-.19-.34-.15a1.21,1.21,0,0,0-.44.37.47.47,0,0,0-.09.39A3.58,3.58,0,0,1,65.7,16a7.82,7.82,0,0,0-.61,3c0,1.63,0,3.27,0,4.9A3.32,3.32,0,0,0,66.5,27c.52.34.55.88,0,1.47a11.32,11.32,0,0,1-4.79-5.86,6.16,6.16,0,0,1,0-3.43c.18-.73.43-1.44.67-2.15q1.89-5.59,3.79-11.2a3.18,3.18,0,0,1,.31-.53c.12.07.25.11.3.19,1.22,2.2,2.46,4.39,3.63,6.62A37.83,37.83,0,0,1,72.25,16,7.68,7.68,0,0,1,72,22.09Z"/><path class="cls-1" d="M68.59,27.22c0-.52-.08-1-.11-1.55-.06-1.22-.1-2.44-.17-3.66a3.43,3.43,0,0,0-.21-1,.55.55,0,0,0-.42-.29.61.61,0,0,0-.38.39,6.92,6.92,0,0,0-.16,1.2c0,.68-.06,1.36-.11,2,0,.32-.11.64-.22,1.23a3.62,3.62,0,0,1-.56-.76,2.38,2.38,0,0,1-.1-.8c0-1.77-.05-3.54,0-5.3a12,12,0,0,1,.4-2.2c0-.16.23-.29.41-.49a6,6,0,0,1,.51.67,25.32,25.32,0,0,0,3.2,5,3.06,3.06,0,0,1,.63,1.9,1.57,1.57,0,0,1-.31.93c-.64,1-1.33,1.87-2,2.81Z"/><path class="cls-1" d="M93,137.77c0,.16,0,.33,0,.49l0,0c0-.14,0-.28,0-.41Z"/><path class="cls-2" d="M65.75,35.48c.35-2.16.66-4.1,1-6.11-.48-.24-.89-.47-1.31-.64a9.18,9.18,0,0,1-5-5.12A5.73,5.73,0,0,1,60,20.19a21.76,21.76,0,0,1,.85-3.36c1.4-4,2.86-7.95,4.3-11.92a16.72,16.72,0,0,0,1-3.53A6.59,6.59,0,0,1,66.71,0a18.45,18.45,0,0,1,.53,1.85,14.51,14.51,0,0,0,2,5.33c.67,1.12,1.35,2.22,2,3.32a29.59,29.59,0,0,1,2.4,4.73,10.6,10.6,0,0,1-.7,9.45,23,23,0,0,1-4.34,5.24,11.63,11.63,0,0,0-.09,2.78c0,.87,0,1.75,0,2.74a3.89,3.89,0,0,0,1.21.22,5.75,5.75,0,0,1,3.36.64c.18.08.36.2.55.27a10.75,10.75,0,0,1,4.18,2.8,19.22,19.22,0,0,0,5,3.18c2.47,1.3,5.06,2.37,7.52,3.69,1.45.78,3,1.22,4.5,1.89A20.51,20.51,0,0,1,99,50.82a4.83,4.83,0,0,1,1.56,2.57,18.76,18.76,0,0,1,.71,5c0,3.69,0,7.37,0,11.06,0,1.42-.17,2.85-.25,4.28-.08,1.22-.15,2.45-.22,3.68-.09,1.49-.21,3-.27,4.49-.14,3-.22,6-.36,9-.09,2-.25,4.08-.36,6.12q-.09,1.85-.12,3.69c0,1.84,0,3.68,0,5.52,0,1.63-.19,3.27-.29,4.9-.06,1-.11,2-.17,3.06,0,.41,0,.82,0,1.23a73.18,73.18,0,0,0-.26,8.76,6.83,6.83,0,0,1-.08,1.43,29.71,29.71,0,0,0-.3,6.32c0,2.12,0,4.23.1,6.34a3.52,3.52,0,0,1-1.53,3.17c-.61.43-1.25.82-1.9,1.2-1.46.88-2.94,1.72-4.39,2.61a17.59,17.59,0,0,1-4.44,2.06c-.59.16-1.16.39-1.74.58a4.92,4.92,0,0,1-1.56.45c-2.09-.1-4,1-6,1s-4.37,0-6.55,0c-.54,0-1.09,0-1.64,0a24.08,24.08,0,0,1-6.28-.6,18.28,18.28,0,0,0-3.45-.36,27,27,0,0,1-6.27-.75A39.18,39.18,0,0,1,44.69,145c-1.17-.56-2.39-1-3.59-1.49A18.71,18.71,0,0,1,37,141.24a2.76,2.76,0,0,1-1.19-2.44c0-2.18,0-4.36.07-6.55a52.35,52.35,0,0,0-.22-6.74,18.64,18.64,0,0,1,0-5.06,3.89,3.89,0,0,0,0-1c-.05-.48-.16-1-.17-1.42-.07-4.44-.76-8.84-.64-13.28.1-3.69-.22-7.36-.42-11-.16-2.86-.11-5.73-.26-8.59-.21-3.94-.53-7.88-.78-11.83-.07-1.22-.13-2.45-.13-3.68,0-3.82,0-7.64,0-11.46a15.17,15.17,0,0,1,.67-4.63,5.79,5.79,0,0,1,2.45-3.37,18.22,18.22,0,0,1,4-2.37c3.38-1.12,6.36-3.08,9.58-4.53,1.18-.53,2.35-1.07,3.48-1.71a17.61,17.61,0,0,0,4.22-3.2,3.83,3.83,0,0,1,1.85-1.2,6.06,6.06,0,0,0,1.3-.59,6.34,6.34,0,0,1,4.11-.86A2.34,2.34,0,0,0,65.75,35.48ZM95.93,54.3a17,17,0,0,0-1.84.84,8.48,8.48,0,0,1-5.48,1.23c-.19,0-.56.11-.54-.36.81-.18,1.61-.31,2.39-.54a5.09,5.09,0,0,0,2.69-1.36,1.82,1.82,0,0,1,1.19-.63c.61-.12,1-.84.55-1.2a1.75,1.75,0,0,1-.54-1.78A5.37,5.37,0,0,0,94,48.84c-1.34-.43-2.61-.73-3.78-1.24-2.24-1-4.43-2.1-6.65-3.15a9.65,9.65,0,0,0-1-.34c-.4.71-.75,1.36-1.13,2a4.57,4.57,0,0,1-1.36,1.66A.55.55,0,0,1,80,47c.45-.68,1-1.33,1.4-2A12.15,12.15,0,0,0,82,43.86c-.92-.57-1.72-1.08-2.54-1.56a13.65,13.65,0,0,1-4-3.49c-.29-.38-.55-.77-.69-1-.93-.29-1.65-.47-2.33-.75a7,7,0,0,0-3.86-.2c.05.42.08.73.12,1,.53,0,.94,0,1.34,0s.46.23.4.63l-2.41,1.33c-1.37-.74-3.2-.12-4.2-1.64.75-.88,1.57.15,2.41-.15-.17-.47-.31-.83-.46-1.25a7,7,0,0,0-4.2.37,11.85,11.85,0,0,1-2,.55,15,15,0,0,1-5.15,4.83,43.44,43.44,0,0,1-4.91,2.48c-3,1.33-5.76,3.14-9.1,3.58-.34,1.56-1.07,2.69-2.72,3A1.79,1.79,0,0,0,36.32,53a18.91,18.91,0,0,0-.57,1.95c-.17.73-.25,1.48-.43,2.21A23.1,23.1,0,0,0,34.61,63c0,1.36,0,2.72,0,4.09,0,1.77,0,3.55.16,5.31.43,6,1,12,1,18,0,1.63.12,3.26.2,4.9.06,1.09.21,2.17.24,3.26.1,5,0,9.95.48,14.92.36,4.14.26,8.31,1.19,12.4a1.82,1.82,0,0,1,0,1.18,5.78,5.78,0,0,0-.26,3.8c.16,1,.43,2,.58,3s.25,2.17.33,3.25c0,.14-.19.42-.3.43s-.33-.19-.5-.28-.12,0-.22,0v2.4c.43.31.84.84,1.2.81a4.6,4.6,0,0,1,2.78,1.05,23.63,23.63,0,0,0,6.76,2.75,95.73,95.73,0,0,0,12.9,2.08c2.37.23,4.75.37,7.12.56A4.29,4.29,0,0,1,69,147a21.1,21.1,0,0,0,8.74,0,76.06,76.06,0,0,0,12-3.35,22.65,22.65,0,0,0,4.3-2.23,1.24,1.24,0,0,1-.32-1.71,3.3,3.3,0,0,0,.6-1.93l-.58.17-.76.28c0-.16,0-.33,0-.49.71-.33,1.08-1.25,2-1.13,1,.91,0,2,.28,3.17l1.65-1v-1.68l-.93.39a4.15,4.15,0,0,1,0-2.1c.26-1.68.56-3.36.86-5a4.56,4.56,0,0,0-.28-3.19,2.09,2.09,0,0,1-.1-1.57,46.82,46.82,0,0,0,1-10,22.79,22.79,0,0,1,.11-2.86,95.18,95.18,0,0,0,.45-10.41c0-2.25.07-4.5.27-6.74s.28-4.76.3-7.14c0-1.77,0-3.55.14-5.32s.24-3.67.36-5.5c0-.68,0-1.37.1-2a114.47,114.47,0,0,0,.52-13.48c0-.47,0-.95-.07-1.42-.15-2.12-.8-4.14-1.12-6.22a7.7,7.7,0,0,0-.77-2.1c-.3-.63-.52-.68-1.65-.73-.1.87-.21,1.73-.31,2.59ZM72,22.09A7.68,7.68,0,0,0,72.25,16a37.83,37.83,0,0,0-1.78-3.89C69.3,9.89,68.06,7.7,66.84,5.5c0-.08-.18-.12-.3-.19a3.18,3.18,0,0,0-.31.53q-1.91,5.6-3.79,11.2c-.24.71-.49,1.42-.67,2.15a6.16,6.16,0,0,0,0,3.43,11.32,11.32,0,0,0,4.79,5.86c.53-.59.5-1.13,0-1.47a3.32,3.32,0,0,1-1.45-3.17c0-1.63,0-3.27,0-4.9a7.82,7.82,0,0,1,.61-3,3.58,3.58,0,0,0,.41-2.73.47.47,0,0,1,.09-.39,1.21,1.21,0,0,1,.44-.37c.07,0,.26.06.34.15a1.91,1.91,0,0,1,.3.52A31,31,0,0,0,70,18.62Zm-3.45,5.13.4.08c.67-.94,1.36-1.86,2-2.81a1.57,1.57,0,0,0,.31-.93,3.06,3.06,0,0,0-.63-1.9,25.32,25.32,0,0,1-3.2-5A6,6,0,0,0,67,16c-.18.2-.38.33-.41.49a12,12,0,0,0-.4,2.2c-.05,1.76,0,3.53,0,5.3a2.38,2.38,0,0,0,.1.8,3.62,3.62,0,0,0,.56.76c.11-.59.19-.91.22-1.23,0-.68.07-1.36.11-2a6.92,6.92,0,0,1,.16-1.2.61.61,0,0,1,.38-.39.55.55,0,0,1,.42.29,3.43,3.43,0,0,1,.21,1c.07,1.22.11,2.44.17,3.66C68.51,26.19,68.55,26.7,68.59,27.22Z"/><path class="cls-2" d="M81.89,57.72c-.07.1-.13.26-.23.29a9.81,9.81,0,0,1-1.57.41,58.94,58.94,0,0,1-9.57.79c-2.31-.06-4.63-.05-6.95,0a63.8,63.8,0,0,1-9.36-.8,4.28,4.28,0,0,1-1.87-.65,2.9,2.9,0,0,1,.7-.22c2.71.23,5.42.54,8.14.69,2.1.13,4.22.08,6.34.09,1.5,0,3,0,4.5,0a18.59,18.59,0,0,0,2.24-.15,32.73,32.73,0,0,1,5.5-.44c.67,0,1.34-.06,2-.09C81.81,57.6,81.85,57.68,81.89,57.72Z"/><path class="cls-2" d="M95.69,102.75a5.75,5.75,0,0,1,.14,3.12c-.15.66-.35,1.31-.47,2s-.18,1.47-.25,2.14a6.1,6.1,0,0,1,1.13,1,3.3,3.3,0,0,1,.29,1.17,6.55,6.55,0,0,1-.2,3.43,34.92,34.92,0,0,0-1.2,6,3.6,3.6,0,0,1-.21.78.42.42,0,0,1-.32.18.39.39,0,0,1-.33-.17,3.51,3.51,0,0,1-.31-1.16,12.87,12.87,0,0,1,.2-1.61,15.65,15.65,0,0,1,1-4.16,14.42,14.42,0,0,0,.67-4.1,3.57,3.57,0,0,0-.7-.31c-.89-.17-1.15-.36-1.12-1.08a12.69,12.69,0,0,1,.26-2c.32-1.53.68-3,1-4.57C95.33,103.12,95.34,102.81,95.69,102.75Z"/><path class="cls-2" d="M93.06,137.81c0,.13,0,.27,0,.41a8.83,8.83,0,0,1-2.23,2.33c-1,.92-1.85,2-3.37,2A45.36,45.36,0,0,1,81.2,145a12,12,0,0,1-2.36.59,6.59,6.59,0,0,1-1.82-.12c-.21,0-.4-.27-.62-.43a2.61,2.61,0,0,1,1.79-.59,10.72,10.72,0,0,0,3-.69c2-.73,4.1-1.47,6.16-2.15a6.53,6.53,0,0,0,3.37-2.52c.62-.88,1.31-1.73,2-2.57a3.49,3.49,0,0,1,.63-.52C93.7,136.73,93,137.21,93.06,137.81Z"/><path class="cls-2" d="M76.28,140.57c-.11-.66.29-.89.56-1.16,1.55-1.53,3-3.12,4.69-4.55a52.51,52.51,0,0,0,7.53-8.58c.37-.49.72-1,1.11-1.47a1.09,1.09,0,0,1,.5-.29c.08,0,.29.15.28.18a3.82,3.82,0,0,1-.39,1.12,43.5,43.5,0,0,1-7.93,9.55c-1.6,1.37-3.13,2.84-4.7,4.25A2.81,2.81,0,0,1,76.28,140.57Z"/><path class="cls-2" d="M76.68,131.64c2.11-2.11,4.25-4.19,6.33-6.33,1.46-1.5,2.86-3.08,4.3-4.61a8.49,8.49,0,0,1,1-1c.08-.07.33.08.54.14a2.26,2.26,0,0,1-.27.6,61.19,61.19,0,0,1-10.37,10.29c-.48.36-.91.84-1.59.83Z"/><path class="cls-2" d="M77,125.05a15.07,15.07,0,0,1,1.82-3.66c1.61-2.36,3.22-4.73,4.85-7.08a3.58,3.58,0,0,1,.69-.54c0,.39.07.61,0,.76a19.86,19.86,0,0,1-1.12,2c-1.72,2.53-3.47,5.05-5.22,7.57-.27.38-.47.85-1,.94Z"/><path class="cls-2" d="M97.37,75.32A6.21,6.21,0,0,1,96.45,78c-.6,1.22-1.23,2.43-1.73,3.69-.38.94-.58,1.94-.88,2.91a8.33,8.33,0,0,1-.36.83,3.42,3.42,0,0,1-.39-.61,3.27,3.27,0,0,1,.2-2c.54-1.32,1-2.65,1.67-3.93s1.25-2.25,1.89-3.37C96.9,75.42,97.09,75.42,97.37,75.32Z"/><path class="cls-2" d="M93.51,76.84c-.2-.51-.36-.71-.32-.85a11.81,11.81,0,0,1,.63-1.72,11.16,11.16,0,0,0,1-3.1,4.2,4.2,0,0,0,0-1.58,6.94,6.94,0,0,1,.09-3.29c.21.13.47.19.51.32a16.4,16.4,0,0,0,.53,2.56,1.82,1.82,0,0,1,0,1,16.58,16.58,0,0,1-1.66,5.22C94,75.75,93.84,76.13,93.51,76.84Z"/><path class="cls-2" d="M83.73,140.45c.58-1,1.73-1.42,2.47-2.27s1.58-1.68,2.32-2.57,1.39-1.79,2.21-2.87c0,.39,0,.56,0,.72a.47.47,0,0,1-.06.2,17.55,17.55,0,0,1-6,7A.57.57,0,0,1,83.73,140.45Z"/><path class="cls-2" d="M95,124.56a24.34,24.34,0,0,1,.32,8.48c0,.08-.22.11-.33.16C94.53,131.71,94.51,127.88,95,124.56Z"/><path class="cls-2" d="M46.5,56.25a8,8,0,0,1-5.31-.67,4.11,4.11,0,0,1-.95-.72.76.76,0,0,1-.11-.93c.15-.31.68-.46.83-.19.72,1.27,2.07,1.39,3.26,1.78.7.23,1.44.34,2.16.51C46.42,56,46.44,56.14,46.5,56.25Z"/><path class="cls-2" d="M98.13,59.2a.7.7,0,0,1,0,1c-.72,1.07-1.46,2.13-2.18,3.21-.42.62-.81,1.26-1.25,1.87a3,3,0,0,1-.6.49c-.1-.2-.25-.35-.21-.42A19.26,19.26,0,0,1,98.13,59.2Z"/><path class="cls-2" d="M96.27,95.19a6.6,6.6,0,0,1-.19,1.18q-.93,2.68-1.91,5.35c-.08.21-.33.37-.72.78a7,7,0,0,1,.09-1.66,18.15,18.15,0,0,1,2.77-5.61Z"/><path class="cls-2" d="M89.56,49.42c0,.41.13.58.08.65-.85,1-1.7,2.1-2.56,3.14a.52.52,0,0,1-.7.18.47.47,0,0,1-.09-.71A10.92,10.92,0,0,1,89.56,49.42Z"/><path class="cls-2" d="M76.59,47.17c-.52,0-.75-.31-.62-.66a8,8,0,0,1,.94-1.79c.48-.65.55-1.69,1.61-1.84.18.9-.51,1.47-.82,2.18S77,46.5,76.59,47.17Z"/><path class="cls-2" d="M83.89,46.55c0,.87-.86,1.44-.33,2.25a12.89,12.89,0,0,1-1.15.94.61.61,0,0,1-.57,0,.59.59,0,0,1-.2-.51,5.52,5.52,0,0,1,2-2.77S83.72,46.51,83.89,46.55Z"/><path class="cls-2" d="M96,87.08c-.41,1-.8,2-1.23,3s-.37,2.11-1.11,3c-.07-.17-.18-.3-.17-.41a11,11,0,0,1,1.75-4.92,3.55,3.55,0,0,1,.74-.64Z"/><path class="cls-2" d="M77.14,41.86a24.91,24.91,0,0,1-3.41,3.91.61.61,0,0,1-.06-.88A10.15,10.15,0,0,1,77.14,41.86Z"/><path class="cls-2" d="M85.7,51.63c-.31-.26-.6-.38-.66-.57a1.59,1.59,0,0,1,0-1,5.74,5.74,0,0,1,1.13-1.87c.45.09.39.39.33.63C86.29,49.66,86,50.49,85.7,51.63Z"/><path class="cls-2" d="M95.9,54.34l1.15-1.06c.49,0,.54.36.42.7a3.87,3.87,0,0,1-1.19,1.52c-.72-.31-.39-.79-.35-1.2Z"/><path class="cls-2" d="M94.63,135.26c.05-.11.09-.22.14-.34a.84.84,0,0,0,0-.17c0,.08.08.18.05.22a1.24,1.24,0,0,1-.26.25Z"/><polygon class="cls-2" points="96.39 56.76 96.44 56.6 96.35 56.72 96.39 56.76"/><path class="cls-2" d="M95.85,57.12a.8.8,0,0,1-.37.79l0,0c.13-.27.25-.53.38-.79Z"/><path class="cls-2" d="M95.05,58.72c.16-.26.31-.52.47-.77l0,0-.45.77Z"/><path class="cls-2" d="M95,58.68,95,59c0-.09,0-.18.08-.28Z"/><path class="cls-2" d="M76.23,132.07a2.43,2.43,0,0,1-.25.2s0-.1.09-.12a.65.65,0,0,1,.2,0Z"/><path class="cls-2" d="M94.61,135.22c0,.1,0,.21,0,.39,0-.17,0-.26.07-.35Z"/><polygon class="cls-2" points="95.94 87.11 95.99 87.02 95.96 87.08 95.94 87.11"/><polygon class="cls-2" points="96.31 95.23 96.41 95.17 96.27 95.19 96.31 95.23"/><polygon class="cls-2" points="77.03 125 77.05 125.12 77.03 125.05 77.03 125"/><path class="cls-2" d="M96.35,56.72l-.5.4,0,0c.16-.14.33-.27.5-.4Z"/><path class="cls-2" d="M76.65,131.6l-.42.47,0,0,.41-.47Z"/><path class="cls-1" d="M64.9,133c.4-.91.82-1.81,1.17-2.74a5.1,5.1,0,0,0,.1-3.32,10.4,10.4,0,0,1-.32-2.36,16.24,16.24,0,0,1,.07-2.79,7.57,7.57,0,0,0-1-4.61A49.35,49.35,0,0,0,62.4,113a6.83,6.83,0,0,1-.64-6.64,2.83,2.83,0,0,1,1.57-1.7c1-.42,1.88-.93,2.85-1.3a10.92,10.92,0,0,1,2.81-.79,17.16,17.16,0,0,1,6.41.48c.81.24,1.61.52,2.43.75a5.16,5.16,0,0,0,2.85.45c.28-.08.63.11.95.18A28.61,28.61,0,0,1,87,106.21a10,10,0,0,1,2.67,1.64c.85.72,1.74,1.41,2.65,2.05a15.51,15.51,0,0,1,3.46,2.91,5,5,0,0,0,1,.9,14.22,14.22,0,0,1,3.82,4.24c1,1.64,1.9,3.34,2.81,5a6.45,6.45,0,0,1,.53,1.49,17.06,17.06,0,0,1,.68,4.93c0,1.19,0,2.39,0,3.59a13.77,13.77,0,0,1-.66,4.32c-.42,1.33-.74,2.69-1.09,4a14.44,14.44,0,0,1-2.54,5.35c-.53.67-1,1.4-1.45,2.12a12.22,12.22,0,0,1-5.45,5,8.29,8.29,0,0,0-1.19.68q-1.93,1.18-3.84,2.39a2.43,2.43,0,0,1-1.68.43,3.93,3.93,0,0,0-2.6.65A8.5,8.5,0,0,1,80.05,159h-4.5a7.88,7.88,0,0,1-4.74-1.65,7.36,7.36,0,0,1-.77-.61c-.24-.22-.66-.33-.66-.81,6.06,1.42,6.48,1.48,8.27,1.09-.16-.15-.27-.35-.43-.4-.62-.2-1.25-.38-1.88-.54-1.58-.39-3.17-.76-4.76-1.16a14.5,14.5,0,0,1-5.36-2.79c.15-.52.32-1,.41-1.4a2,2,0,0,0,0-1.15,2,2,0,0,1,0-1.71,14.71,14.71,0,0,0-.46-10.33c-.42-1-.7-2-1-3C64.45,134,64.69,133.52,64.9,133Zm5.66,3.62,0-.08.43-.47a3.49,3.49,0,0,0,2.1-1A11.92,11.92,0,0,0,76.73,131c1.29-2.61,2.5-5.27,3.62-8a12.3,12.3,0,0,0,.21-6.43c-.34,0-.43.27-.46.53-.07.8-.14,1.6-.16,2.39a11.38,11.38,0,0,1-1.08,4.63c-.69,1.51-1.36,3-2,4.54a17.32,17.32,0,0,1-4.12,5.77c-.58.54-1.1,1.14-1.64,1.71l-.43.47Zm27.72-4.29A15.41,15.41,0,0,1,92,141.71c-1.3.89-2.58,1.82-3.9,2.67a19.32,19.32,0,0,1-10.7,3.36,34.92,34.92,0,0,0-4.92.46c.22.45.56.35.81.36,1.63.05,3.26.12,4.9.11a18.66,18.66,0,0,0,9.82-3c1.73-1.07,3.38-2.28,5-3.45a12.76,12.76,0,0,0,4.19-4.93c.47-.95,1-1.89,1.35-2.87a4.19,4.19,0,0,0,.22-2.88C98.33,131.69,98.35,132.07,98.28,132.37ZM68.86,115.05A64.25,64.25,0,0,1,69.61,129c-.06.8-.1,1.6-.22,2.38a5.41,5.41,0,0,1-1.46,3.2,1.57,1.57,0,0,0-.25.44c.34.26.55,0,.72-.13a6.66,6.66,0,0,0,2.3-5.09c.1-2,.13-4,.11-6a65.25,65.25,0,0,0-1.27-10.88,5.84,5.84,0,0,0-1.33-2.84,2.45,2.45,0,0,0-.58-.39l-.27.27C68.47,111.47,68.6,113.29,68.86,115.05Zm1,28.07A64.76,64.76,0,0,0,85.12,137a17.13,17.13,0,0,0,5.59-5.2c-.08-.41-.33-.35-.54-.16a24,24,0,0,0-1.87,1.76,14,14,0,0,1-3.9,3,65,65,0,0,1-9.12,4.12c-1.92.65-3.79,1.44-5.68,2.18-.09,0-.13.2-.23.37C69.55,143.06,69.74,143.17,69.88,143.12Z"/><path class="cls-1" d="M16.83,130.52c0,.1.05.2.08.3a3.09,3.09,0,0,0,.56,2.07,18.5,18.5,0,0,0,4,4.9,7.66,7.66,0,0,0,2.47,1.6,43.56,43.56,0,0,0,8,2.66c.82.15,1.64.35,2.53.53,0,.47.08.85.08,1.24,0,.87,0,1.74,0,2.6a6.42,6.42,0,0,0,.81,3.26c.32.57.6,1.18.93,1.75a17.51,17.51,0,0,0,1.13,1.87,15.85,15.85,0,0,0,1.34,1.38,4.17,4.17,0,0,1-2.85,1.64c-.7.1-1.38.38-2.08.53a12.68,12.68,0,0,1-2.11.33c-1.24,0-2.49,0-3.73,0a18.73,18.73,0,0,1-4.63-.75c-2.66-.7-5.19-1.77-7.77-2.73a4.57,4.57,0,0,1-1.35-.78c-1.06-.88-2.08-1.81-3.11-2.73-1.46-1.33-2.94-2.64-4.34-4a10.14,10.14,0,0,1-1.49-2.09c-.62-1-1.15-2.08-1.72-3.13a13.61,13.61,0,0,1-1.71-7.69,34.79,34.79,0,0,1,1.93-9.56c.31-.8.51-1.65.83-2.45a17.49,17.49,0,0,1,1.17-2.52c1-1.64,2.08-3.23,3.09-4.86a5.59,5.59,0,0,1,1.67-1.65,25.78,25.78,0,0,0,3.53-2.49,14.43,14.43,0,0,1,6.66-3.61A6.59,6.59,0,0,0,24,104.32a4.23,4.23,0,0,1,5-.91,6.27,6.27,0,0,0,2.26.61,2.32,2.32,0,0,1,1,.46c.33.19.59.52.93.69a14.33,14.33,0,0,0,2,.79,6.44,6.44,0,0,1,2.89,2.29,3.79,3.79,0,0,1,.56,2.67c0,2.27,0,4.53,0,6.8a4.6,4.6,0,0,1-.66,2.82,6.83,6.83,0,0,1,.67,3,8.66,8.66,0,0,0,.81,3.87,22.69,22.69,0,0,0,2.17,4.25,9.16,9.16,0,0,1,.45.89,3,3,0,0,1-.66.18A3.64,3.64,0,0,0,38,135.06a17.29,17.29,0,0,1-1.74,2.65A7,7,0,0,0,35,140.19a3,3,0,0,1-.69,1.64l-3.66-1.34c-1.9-.69-3.82-1.36-5.71-2.08a7.73,7.73,0,0,1-1.92-1,19.34,19.34,0,0,1-5.3-5.55c-.22-.38-.32-.9-.84-1C16.86,130.74,16.85,130.63,16.83,130.52Zm15,24.16-5.27,0a6.27,6.27,0,0,1-1.74-.13,38.83,38.83,0,0,1-5.77-1.77,5.39,5.39,0,0,0-1.11-.38c-.49-.11-1-.16-1.61-.26.11.29.12.53.23.59,1.63.8,3.06,2,4.93,2.29a.6.6,0,0,1,.19.06,15.13,15.13,0,0,0,6.89.93c1.17,0,2.34,0,3.51-.08a5.15,5.15,0,0,0,1.49-.36c.15-.06.19-.41.34-.75C33.13,154.74,32.48,154.68,31.84,154.68ZM22.9,119.37a14.16,14.16,0,0,0,2.25,5c1.11,1.63,2.32,3.2,3.58,4.73a15.6,15.6,0,0,0,4,3.42,15,15,0,0,0,1.94.92,1,1,0,0,0,.57,0c.1,0,.19-.14.28-.22s-.07-.29-.16-.34a27.85,27.85,0,0,1-8.57-8c-.48-.64-.92-1.29-1.36-2a11.21,11.21,0,0,1-2-4.5c-.05-.33-.15-.65-.57-.69A2.21,2.21,0,0,0,22.9,119.37Zm12.14,5a36.33,36.33,0,0,1-2.2-5.32,26.33,26.33,0,0,1-1.09-5.91c-.33.44-.5.56-.5.7a13.91,13.91,0,0,0,.35,4.54,36,36,0,0,0,3.28,8.08,10.92,10.92,0,0,0,2.53,3c.07.06.24,0,.56,0C36.94,127.69,36,126.05,35,124.38Zm-.88,26.77-3,.74a15.87,15.87,0,0,1-6.79-.17c-1.35-.25-2.67-.62-4-.89-.4-.08-.84-.37-1.32,0a1.9,1.9,0,0,0,.47.35A44.06,44.06,0,0,0,25.65,153a17.53,17.53,0,0,0,7.55-.59A3.94,3.94,0,0,0,35.34,151C34.64,151.08,34.4,151.1,34.16,151.15Zm-20.37-1.63c0-.76-.59-.66-1.12-.62Z"/><path class="cls-1" d="M65.34,82.14a14.24,14.24,0,0,1,3.21,3.18c.7.94,1.73,1.62,2.41,2.57A26.1,26.1,0,0,1,72.63,91c.47.87,1,1.73,1.43,2.61a23.53,23.53,0,0,0,1.35,2.65c.6.85.18,2,.94,2.76a1,1,0,0,1,.15.57,6.52,6.52,0,0,1,0,1,.67.67,0,0,1-.79.68,4.58,4.58,0,0,1-1.32-.34,7.15,7.15,0,0,0-4.4-.34c-1.23.17-2.44.51-3.66.6a6.6,6.6,0,0,0-3.71,1.63,6.93,6.93,0,0,0-2.39,3.5,8.12,8.12,0,0,0,.76,7.25c.84,1.27,1.59,2.6,2.32,3.94a10.74,10.74,0,0,1,.85,2.21,26.57,26.57,0,0,1,.54,8.93,6.42,6.42,0,0,1-1.63,3.76c-.31-.21-.63-.44-.95-.64a5.3,5.3,0,0,0-2.6-.78,23.12,23.12,0,0,0-9.85,1.9c-.37.74-.69,1.39-1,2-.05.08-.18.11-.27.16-.44-.19-.2-1-.92-1l-.67.65a15.06,15.06,0,0,0-1.27-1.47c-.53-.49-1.14-.88-1.86-1.42a4.77,4.77,0,0,0-1.5-3.65,7.43,7.43,0,0,1-1.72-5.15c0-3.93,0-7.86-.06-11.79,0-.53,0-1.07,0-1.6A4.11,4.11,0,0,0,39.14,107a9.18,9.18,0,0,0-3.33-2.4,2.32,2.32,0,0,1-1.75-2.32,6.91,6.91,0,0,0-.23-1.17,29,29,0,0,1-.46-7,3.07,3.07,0,0,1,.17-1c.7-1.79,1.42-3.56,2.16-5.33a8.53,8.53,0,0,1,.7-1.2c.32-.5.65-1,1-1.48.46-.65.89-1.31,1.41-1.91a6.41,6.41,0,0,1,3.27-2.07,18.6,18.6,0,0,1,3-.65,4,4,0,0,0,3-1.65,4.36,4.36,0,0,1,.62-.57,16.06,16.06,0,0,0,4.61-.57,7.39,7.39,0,0,1,4.8.25,19.5,19.5,0,0,1,4,2.12c.56.35,1.15.63,1.72,1s.35,1.26.87,1.71c.1.08.14.22.22.33a10.54,10.54,0,0,1,1.31,3.11l1.45,5.59a22.81,22.81,0,0,1,.89,5.51,6.64,6.64,0,0,0,.1,1,.49.49,0,0,0,.6.46,14.46,14.46,0,0,0-.13-4.73q-.89-3.69-1.85-7.35a11.92,11.92,0,0,0-1.41-3.28,9.27,9.27,0,0,1-.52-1.26ZM43.66,88.23a20.32,20.32,0,0,1-.89,5.48c-.27,1-.52,1.93-.75,2.9a22.1,22.1,0,0,0-.65,4.52,82.9,82.9,0,0,0,.11,10,25.91,25.91,0,0,0,.43,3.15c.53,2.39,1.12,4.77,1.71,7.16.05.21.25.39.57.85a6.92,6.92,0,0,0,0-1.08c-.35-1.76-.66-3.52-1.08-5.26a35.15,35.15,0,0,1-.84-7.91c0-1.86,0-3.72,0-5.59a23.25,23.25,0,0,1,.83-6.69c.32-1.15.57-2.32.89-3.47a12.46,12.46,0,0,0,.24-4.55c0-.12-.12-.23-.26-.48A4,4,0,0,0,43.66,88.23Zm5.6,34.87c-.63-2.93-.9-5.92-1.38-8.87a58.21,58.21,0,0,1,0-15.15c.19-1.85.56-3.68.81-5.53a34.57,34.57,0,0,1,1.13-5.87,1.73,1.73,0,0,0-.15-1.79c-.12.17-.27.29-.3.43-.08.33,0,.68-.15,1-1.29,3.74-1.5,7.7-2.07,11.57a55.13,55.13,0,0,0-.46,11.77c.11,1.65.43,3.3.7,4.94q.61,3.73,1.31,7.47a4.91,4.91,0,0,0,.44,1l.21,0A5,5,0,0,0,49.26,123.1ZM37,94.77c.09-.79.1-1.59.19-2.38A12.86,12.86,0,0,0,37.51,90c-.06-.78.68-1.47.23-2.28-.82.18-1,.76-1.15,1.46a23,23,0,0,0-.22,7.54,6.6,6.6,0,0,0,.28.73C36.8,96.34,36.92,95.56,37,94.77Z"/><path class="cls-1" d="M41,164.71a1.55,1.55,0,0,1,.27-1.32c1.24-2.11,2.5-4.2,3.76-6.3a8.16,8.16,0,0,0,.76-1.15,4.87,4.87,0,0,1,1.4-1.85c-.12-.4-.4-.36-.6-.19a2.41,2.41,0,0,1-1.74.77c-.74,0-1.08.74-1.76.77s-1.3.08-1.95.16a.92.92,0,0,0-.78.79,13.8,13.8,0,0,1-1.7,4.21,4,4,0,0,0-.38,1.13c-.26,1.44-.55,2.87-.72,4.32a6.78,6.78,0,0,0,.94,4,1.11,1.11,0,0,0,.56.51c.79.28,1.41.94,2.34.94a1.29,1.29,0,0,1,1.17.93,1.21,1.21,0,0,0,.72.88A4.17,4.17,0,0,1,45,174.64a2.55,2.55,0,0,0,3.67.22c1.16-1,2.44-2,2.94-3.6a.72.72,0,0,1,.91-.56c.44.12.72-.14,1-.38A44.63,44.63,0,0,1,58.17,167c1.45-.82,1.83-2.35,1.91-3.93a5.92,5.92,0,0,1,0-1.18c.48-1.76-.31-3.11-1.32-4.37-.4-.51-.69-1.15-1.35-1.4-1-.38-1.88-.85-3-.21a5.66,5.66,0,0,1-2,.25c-.13.31-.28.74-.48,1.15-1.06,2.28-2.13,4.56-3.23,6.83a5.12,5.12,0,0,1-.85,1.08.67.67,0,0,1-.51.2c-.32-.1-.25-.4-.16-.65.21-.56.46-1.1.65-1.67s.43-1.38.64-2.08c-.64,1.3-1.3,2.59-1.91,3.9a7.79,7.79,0,0,1-3.84,4.05,2.09,2.09,0,0,1-.71,0c0-.17,0-.25.05-.29a3.93,3.93,0,0,1,.55-.53,9.66,9.66,0,0,0,3.1-4c.28-.67.58-1.33.91-2a17.44,17.44,0,0,0,1.69-5.06,3.35,3.35,0,0,1,.21-.75.4.4,0,0,1,.32-.14c.11,0,.29.12.3.19a10.55,10.55,0,0,1,0,2c-.15.91-.43,1.8-.66,2.7.54-.42.63-1.08.91-1.64s.7-1.32,1-2l0,0,.36-1.73a2.48,2.48,0,0,0-2.52-1.13,1.44,1.44,0,0,0-.3.24c-1.19,1.9-2.37,3.82-3.56,5.72A16.23,16.23,0,0,1,41,164.68l-.44.41-.11.09.15-.05Z"/><path class="cls-1" d="M35.62,166.79a9.28,9.28,0,0,0,.16,2.78A2.59,2.59,0,0,0,37,171.3a3.75,3.75,0,0,1,1.53,1.23,25.73,25.73,0,0,1-5.24,2.75,3.18,3.18,0,0,1-1.14.23c-1,0-2.08,0-3,0a3.69,3.69,0,0,1-.57-.44A3.21,3.21,0,0,0,25.74,174c-.72,0-1.44,0-2.16,0H17.12a5.44,5.44,0,0,1-3.73-1.28,5.92,5.92,0,0,1,.51-4c.39-.84.67-1.73,1-2.6a5.45,5.45,0,0,1,2.89-3.34,19.93,19.93,0,0,0,5.48-3.44A2.5,2.5,0,0,1,25,158.7c2.15,0,4.31,0,6.46,0a8.9,8.9,0,0,0,3.27-.49,13.55,13.55,0,0,1,2.27-.6c.35-.08.77-.2,1.11.29-.61,2.21-1.25,4.44-3.56,5.6-1.57,1.53-3.62,2-5.61,2.67-1.42.44-2.89.71-4.34,1.07,0,0-.07.1-.13.2a3.87,3.87,0,0,0,2.13.12,20.5,20.5,0,0,0,2.67-.58c2.05-.65,4.16-1.18,5.68-2.94.14-.17.43-.21.76-.36A16.27,16.27,0,0,1,35.62,166.79Zm-10.69-1.85c2.05-1,4.08-2.07,6.14-3.05.93-.45,1.93-.76,2.91-1.13l1.52-.55c-.19-.25-.27-.47-.41-.51a1.51,1.51,0,0,0-.76,0,10,10,0,0,0-2.06.59c-3.21,1.58-6.55,2.93-9.33,5.3l-.06.13,0-.16A3.23,3.23,0,0,0,24.93,164.94Z"/><path class="cls-1" d="M72,160.55a5.76,5.76,0,0,0,.83.81,33.44,33.44,0,0,0,7.42,4,5.31,5.31,0,0,1,.85.48c-.46.42-.82.1-1.18,0a17,17,0,0,1-6.48-2.67,41.58,41.58,0,0,1-7.26-6.05l-2.35-2.35a1.81,1.81,0,0,0-1.71,1.1c.17.29.33.64.54,1a28.28,28.28,0,0,0,5.93,6.32,46.54,46.54,0,0,0,5.76,4.13,2.66,2.66,0,0,1,.6.51s0,.22,0,.33-.1.08-.16.09a.31.31,0,0,1-.19,0A38.75,38.75,0,0,1,66.46,163a26.57,26.57,0,0,1-4.84-5.73c-.17-.28-.36-.55-.56-.82,0,0-.11,0-.25-.1,0,.19-.09.38,0,.5a6.14,6.14,0,0,0,1.55,2.5,1.93,1.93,0,0,1,.48.85c.18.5.3,1,.44,1.53a3.23,3.23,0,0,1-.13,2.33,1.39,1.39,0,0,0,.2,1.5c2,2.92,4.3,5.52,7.59,7a13.18,13.18,0,0,1,1.39.73,10.13,10.13,0,0,0,3.85,1.38A14,14,0,0,0,87.26,172,4.13,4.13,0,0,0,89,168.27a7.47,7.47,0,0,0-1.52-4.64,27.85,27.85,0,0,1-1.89-2.83,47.31,47.31,0,0,1-7.23.23,24,24,0,0,1-2.52-.28c-.52-.06-1-.13-1.55-.15-.78,0-1.56,0-2.35-.06Z"/><path class="cls-1" d="M58.55,151.41c-.07.55-.53.7-.9,1a.92.92,0,0,0-.48,1.08c.41.17.87.37,1.35.55a2.19,2.19,0,0,0,.56.14,3.72,3.72,0,0,0,4.19-2.51,9.42,9.42,0,0,0,.76-3.49c0-1.46,0-2.93.06-4.39a3.67,3.67,0,0,1,0-1.2,5,5,0,0,0-.25-3.47,18,18,0,0,1-.4-2.62l-1.26-1a1.51,1.51,0,0,1,0-.47c.15-.58.4-1.16,0-1.72a2.5,2.5,0,0,0-1.81-1.07c-.84-.07-1.69-.06-2.54-.07s-1.55-.06-2.13.71c-.17.23-.72.2-1.1.22-.78,0-1.55,0-2.29,0-.27.48-.21,1.11-1,1.13-.33,0-.66.32-1.07.53.55.48,1,.13,1.34,0a1.72,1.72,0,0,1,1.81.43c.47.46,1,.9,1.45,1.35a5.58,5.58,0,0,1,1.53,2.72c.45,1.65,1.06,3.25,1.61,4.9,1.52-.11,1.76-1.25,2-2.37.25,0,.48,0,.6.11a.64.64,0,0,1,.21.51,3.17,3.17,0,0,1-1.42,2.29c-.33.21-.69.36-1.13.59,0,.41-.06.86,0,1.31s.08.91.13,1.4c1.29.31,2.28-.65,3.41-.69.23.4-.09.55-.27.61-1,.32-2,.6-3.14,1a8.63,8.63,0,0,0-.2,2c0,.18.29.39.44.58l0-.32.19.11Z"/><path class="cls-1" d="M52.65,153a5,5,0,0,1,.83-1.55,8.07,8.07,0,0,0,1.45-5.66,6.41,6.41,0,0,0-.46-1.29,4.22,4.22,0,0,0-.42.87,10.42,10.42,0,0,0-.14,1.58,8.64,8.64,0,0,1-1.45,4.49,2.29,2.29,0,0,1-1.73,1.16c-.66-1-1.26-2-1.94-2.95a3.45,3.45,0,0,1-.66-2,4.53,4.53,0,0,0-.23-1.14c0-.09-.2-.17-.3-.17a.5.5,0,0,0-.31.18.68.68,0,0,0-.15.36,4.76,4.76,0,0,0,.65,3.62,2,2,0,0,1,.57,1.66c-.22-.06-.45,0-.56-.15-.5-.52-1-1.08-1.45-1.61a7.35,7.35,0,0,1-1.92-5.29,45,45,0,0,1,.45-4.77A3.41,3.41,0,0,1,46,138.08a11.54,11.54,0,0,1,3.66-1.66,14.37,14.37,0,0,1,2.55-.36,1.4,1.4,0,0,1,.72,1,4.62,4.62,0,0,0,.47,1.29,10.38,10.38,0,0,1,2.06,5.49,1.27,1.27,0,0,0,.15.57,5.4,5.4,0,0,1,.27,3.71c-.24,1.16-.61,2.31-.92,3.46a1.57,1.57,0,0,1-1.52,1.3c-.26,0-.52.07-.78.1Zm-2.07-7.59c0,1.65,0,3.31,0,5a2.06,2.06,0,0,0,.21.76.39.39,0,0,0,.32.15.54.54,0,0,0,.3-.2.7.7,0,0,0,.14-.36c0-1.85,0-3.71-.08-5.56,0-.18-.29-.35-.53-.63A3.91,3.91,0,0,0,50.58,145.44Z"/><path class="cls-1" d="M42.78,134.28c.28.15.56.33.84,0v0a3.82,3.82,0,0,1,1.09,1.89,5.57,5.57,0,0,0-.46,1.06,6.42,6.42,0,0,0,0,1.16,1.86,1.86,0,0,1-.11.58,19.38,19.38,0,0,0-1,5.07,9.5,9.5,0,0,0,2,7.28c.26.32.67.61.59,1.23-1,0-2-.08-2.59,1a.81.81,0,0,1-.48.28,2.29,2.29,0,0,1-2.49-.72,6,6,0,0,0-.91-1c-2.62-2.11-3.34-5-2.77-8.18a4.7,4.7,0,0,0-.17-3.1,1.42,1.42,0,0,1,.09-1.34,6.51,6.51,0,0,1,.62-1,6,6,0,0,0,1.56-3.35,1.42,1.42,0,0,1,1.33-1.26,4.52,4.52,0,0,1,2.85.39Zm-3.25,5.46s0,.11,0,.12a.25.25,0,0,0,.15,0,5,5,0,0,0,1.23,3.24c0-.23.14-.42.09-.53-.39-.92-.42-2-1.35-2.68Zm1.17,9.86a16.55,16.55,0,0,1-1.51-1.51c-.36.51,0,.85.15,1.15a4.53,4.53,0,0,0,2,1.84,1.18,1.18,0,0,0,1.4-.13A22.8,22.8,0,0,1,40.7,149.6Zm.45-1.79c-.09-.86-.2-1.05-1.52-2.49A4,4,0,0,0,41.15,147.81Z"/><path class="cls-1" d="M45.25,134.64c0,.39-.06.78-.06,1.17,0,.09.15.18.23.27.1-.14.32-.31.29-.39a8.4,8.4,0,0,0-.5-1.05Z"/><path class="cls-1" d="M52.8,154.77l-.25.21.26.17.15-.3Z"/><path class="cls-1" d="M51.73,153.3a1.58,1.58,0,0,0-.24-.15s-.15,0-.15,0a2.15,2.15,0,0,0,.1.27Z"/><path class="cls-1" d="M43.61,134.31c-.27-.32-.54-.27-.82,0v0h.84Z"/><path class="cls-1" d="M50.36,157.4c.11.14.15.61.4.09l0,0-.46-.09Z"/><path class="cls-1" d="M50.76,157.49l.12-.21s-.05.15-.09.25Z"/><path class="cls-1" d="M52.65,153a.28.28,0,0,1,0,.09.36.36,0,0,0,0-.1Z"/><polygon class="cls-1" points="45.22 134.63 45.15 134.63 45.25 134.64 45.22 134.63"/><polygon class="cls-1" points="71.95 160.54 71.89 160.49 71.97 160.56 71.95 160.54"/><polygon class="cls-1" points="65.34 82.14 65.28 82.12 65.37 82.17 65.34 82.14"/><path class="cls-2" d="M31.24,98.72A5.73,5.73,0,0,1,31.41,97a6.6,6.6,0,0,0,.37-2.74,9.65,9.65,0,0,1,.37-3c.16-.57.25-1.16.39-1.75a10,10,0,0,1,4.06-6.33c.44-.29.83-.65,1.26-.94A25.34,25.34,0,0,1,41.32,80a20.28,20.28,0,0,0,2.94-1.49,2,2,0,0,1,.54-.25,6.83,6.83,0,0,0,3.32-1.52.72.72,0,0,1,.37-.14,29.41,29.41,0,0,1,3.45-.63c1.69-.12,3.4-.05,5.09-.06a6.7,6.7,0,0,1,3.39.85,18.25,18.25,0,0,1,2.33,1.47c1.61,1.25,3.17,2.56,4.76,3.84a12.29,12.29,0,0,0,1.27.91,8.49,8.49,0,0,1,3.71,4.24,15.66,15.66,0,0,0,1.44,2.6c.71,1.11,1.35,2.27,2,3.42.45.81.84,1.66,1.33,2.44a7.58,7.58,0,0,1,1.25,3.51,26.21,26.21,0,0,0,.53,2.76,8.3,8.3,0,0,1,1.22.15,6.51,6.51,0,0,1,2.2.75,10.94,10.94,0,0,0,2.81,1.33c1.87.77,3.76,1.51,5.61,2.36A5.15,5.15,0,0,1,94,109.33a1.16,1.16,0,0,0,.37.46c1.2,1,2.38,2.07,3.63,3a15.48,15.48,0,0,1,4,4.35c.86,1.42,1.64,2.89,2.48,4.31a11.06,11.06,0,0,1,1.28,3.33,20,20,0,0,1,.55,4.75c0,1.14,0,2.27,0,3.4a16.1,16.1,0,0,1-.76,4.92c-.37,1.2-.71,2.42-1,3.65a15.93,15.93,0,0,1-2.06,4.94c-.87,1.4-1.83,2.75-2.77,4.11a12.9,12.9,0,0,1-.93,1,30.57,30.57,0,0,1-4.16,3.63,17.79,17.79,0,0,1-3.3,2.11c-1.35.63-2.64,1.4-3.9,2.07a2.7,2.7,0,0,0,.44,2c.32.5.66,1,1,1.51a10.78,10.78,0,0,1,1.64,6,4.86,4.86,0,0,1-1.72,3.65,13.8,13.8,0,0,1-5.1,2.9c-4.24,1.18-8.39,1.16-12.33-1.12a6.61,6.61,0,0,0-.7-.36,18.64,18.64,0,0,1-7.4-6.07c-.41-.52-.83-1-1.4-1.74-1.27,1.67-3.11,2.43-4.69,3.58a5.7,5.7,0,0,1-1.32.85,7.92,7.92,0,0,0-3.69,3.16A7.61,7.61,0,0,1,49,176.44a7.78,7.78,0,0,0-1.19.68,2,2,0,0,1-2.39,0,9.55,9.55,0,0,1-1.18-1c-.93-.84-1.85-1.68-2.79-2.5a1.17,1.17,0,0,0-1.46-.14c-.79.46-1.6.89-2.4,1.34-2.44,1.35-4.91,2.53-7.81,2.11h-.19a2.41,2.41,0,0,1-2.12-.81,1.88,1.88,0,0,0-1.58-.65H24.55c-2,0-4.05.05-6.07,0a11.65,11.65,0,0,1-4.07-.5c-2.49-.92-3.05-1.22-2.68-4.65a35.44,35.44,0,0,1,2.54-6.25,9.65,9.65,0,0,1,3.91-3.53,2.53,2.53,0,0,1,1.11-.28,2.37,2.37,0,0,0,1.94-1.19c-.88-.51-1.66-1-2.45-1.43A20.56,20.56,0,0,0,16,156.1a9,9,0,0,1-3.35-2.36c-.32-.33-.66-.64-1-1-1.92-1.81-3.85-3.59-5.74-5.43a14.15,14.15,0,0,1-1.47-1.86c-.42-.59-.77-1.23-1.22-1.8A15.06,15.06,0,0,1,.08,132.47a48.7,48.7,0,0,1,3.27-12.72,39.2,39.2,0,0,1,5.41-8,61.89,61.89,0,0,1,6.49-5.15,72.51,72.51,0,0,1,10.42-5,5,5,0,0,1,2.1-.38c1,0,2.08,0,3.26,0A8.82,8.82,0,0,0,31.24,98.72Zm19.09,58.72.36-1.73a2.48,2.48,0,0,0-2.52-1.13,1.44,1.44,0,0,0-.3.24c-1.19,1.9-2.37,3.82-3.56,5.72A16.23,16.23,0,0,1,41,164.68l0,0a1.55,1.55,0,0,1,.27-1.32c1.24-2.11,2.5-4.2,3.76-6.3a8.16,8.16,0,0,0,.76-1.15,4.87,4.87,0,0,1,1.4-1.85c-.12-.4-.4-.36-.6-.19a2.41,2.41,0,0,1-1.74.77c-.74,0-1.08.74-1.76.77s-1.3.08-1.95.16a.92.92,0,0,0-.78.79,13.8,13.8,0,0,1-1.7,4.21,4,4,0,0,0-.38,1.13c-.26,1.44-.55,2.87-.72,4.32a6.78,6.78,0,0,0,.94,4,1.11,1.11,0,0,0,.56.51c.79.28,1.41.94,2.34.94a1.29,1.29,0,0,1,1.17.93,1.21,1.21,0,0,0,.72.88A4.17,4.17,0,0,1,45,174.64a2.55,2.55,0,0,0,3.67.22c1.16-1,2.44-2,2.94-3.6a.72.72,0,0,1,.91-.56c.44.12.72-.14,1-.38A44.63,44.63,0,0,1,58.17,167c1.45-.82,1.83-2.35,1.91-3.93a5.92,5.92,0,0,1,0-1.18c.48-1.76-.31-3.11-1.32-4.37-.4-.51-.69-1.15-1.35-1.4-1-.38-1.88-.85-3-.21a5.66,5.66,0,0,1-2,.25c-.13.31-.28.74-.48,1.15-1.06,2.28-2.13,4.56-3.23,6.83a5.12,5.12,0,0,1-.85,1.08.67.67,0,0,1-.51.2c-.32-.1-.25-.4-.16-.65.21-.56.46-1.1.65-1.67s.43-1.38.64-2.08l0,.05c.54-.42.63-1.08.91-1.64s.7-1.32,1-2c.11.14.15.61.4.09l.12-.21s-.05.15-.09.25Zm-5.18-22.81h.1c0,.39-.06.78-.06,1.17,0,.09.15.18.23.27.1-.14.32-.31.29-.39a8.4,8.4,0,0,0-.5-1.05Zm-2.36-.33a4.52,4.52,0,0,0-2.85-.39,1.42,1.42,0,0,0-1.33,1.26,6,6,0,0,1-1.56,3.35,6.51,6.51,0,0,0-.62,1,1.42,1.42,0,0,0-.09,1.34,4.7,4.7,0,0,1,.17,3.1c-.57,3.22.15,6.07,2.77,8.18a6,6,0,0,1,.91,1,2.29,2.29,0,0,0,2.49.72.81.81,0,0,0,.48-.28c.58-1.07,1.6-1,2.59-1,.08-.62-.33-.91-.59-1.23a9.5,9.5,0,0,1-2-7.28,19.38,19.38,0,0,1,1-5.07,1.86,1.86,0,0,0,.11-.58,6.42,6.42,0,0,1,0-1.16,5.57,5.57,0,0,1,.46-1.06,3.82,3.82,0,0,0-1.09-1.89C43.34,134,43.07,134,42.79,134.3Zm10.67,18.62a1.57,1.57,0,0,0,1.52-1.3c.31-1.15.68-2.3.92-3.46a5.4,5.4,0,0,0-.27-3.71,1.27,1.27,0,0,1-.15-.57,10.38,10.38,0,0,0-2.06-5.49A4.62,4.62,0,0,1,53,137.1a1.4,1.4,0,0,0-.72-1,14.37,14.37,0,0,0-2.55.36A11.54,11.54,0,0,0,46,138.08a3.41,3.41,0,0,0-1.14,2.25,45,45,0,0,0-.45,4.77,7.35,7.35,0,0,0,1.92,5.29c.48.53.95,1.09,1.45,1.61.11.11.34.09.56.15a2,2,0,0,0-.57-1.66,4.76,4.76,0,0,1-.65-3.62.68.68,0,0,1,.15-.36.5.5,0,0,1,.31-.18c.1,0,.28.08.3.17a4.53,4.53,0,0,1,.23,1.14,3.45,3.45,0,0,0,.66,2c.68.95,1.28,1.94,1.94,2.95a2.29,2.29,0,0,0,1.73-1.16A8.64,8.64,0,0,0,53.91,147a10.42,10.42,0,0,1,.14-1.58,4.22,4.22,0,0,1,.42-.87,6.41,6.41,0,0,1,.46,1.29,8.07,8.07,0,0,1-1.45,5.66,5,5,0,0,0-.83,1.55.28.28,0,0,1,0,.09.36.36,0,0,0,0-.1C52.94,153,53.2,152.94,53.46,152.92Zm5.09-1.51c-.07.55-.53.7-.9,1a.92.92,0,0,0-.48,1.08c.41.17.87.37,1.35.55a2.19,2.19,0,0,0,.56.14,3.72,3.72,0,0,0,4.19-2.51,9.42,9.42,0,0,0,.76-3.49c0-1.46,0-2.93.06-4.39a3.67,3.67,0,0,1,0-1.2,5,5,0,0,0-.25-3.47,18,18,0,0,1-.4-2.62l-1.26-1a1.51,1.51,0,0,1,0-.47c.15-.58.4-1.16,0-1.72a2.5,2.5,0,0,0-1.81-1.07c-.84-.07-1.69-.06-2.54-.07s-1.55-.06-2.13.71c-.17.23-.72.2-1.1.22-.78,0-1.55,0-2.29,0-.27.48-.21,1.11-1,1.13-.33,0-.66.32-1.07.53.55.48,1,.13,1.34,0a1.72,1.72,0,0,1,1.81.43c.47.46,1,.9,1.45,1.35a5.58,5.58,0,0,1,1.53,2.72c.45,1.65,1.06,3.25,1.61,4.9,1.52-.11,1.76-1.25,2-2.37.25,0,.48,0,.6.11a.64.64,0,0,1,.21.51,3.17,3.17,0,0,1-1.42,2.29c-.33.21-.69.36-1.13.59,0,.41-.06.86,0,1.31s.08.91.13,1.4c1.29.31,2.28-.65,3.41-.69.23.4-.09.55-.27.61-1,.32-2,.6-3.14,1a8.63,8.63,0,0,0-.2,2c0,.18.29.39.44.58Zm13.34,9.07.08.07a5.76,5.76,0,0,0,.83.81,33.44,33.44,0,0,0,7.42,4,5.31,5.31,0,0,1,.85.48c-.46.42-.82.1-1.18,0a17,17,0,0,1-6.48-2.67,41.58,41.58,0,0,1-7.26-6.05l-2.35-2.35a1.81,1.81,0,0,0-1.71,1.1c.17.29.33.64.54,1a28.28,28.28,0,0,0,5.93,6.32,46.54,46.54,0,0,0,5.76,4.13,2.66,2.66,0,0,1,.6.51s0,.22,0,.33-.1.08-.16.09a.31.31,0,0,1-.19,0A38.75,38.75,0,0,1,66.46,163a26.57,26.57,0,0,1-4.84-5.73c-.17-.28-.36-.55-.56-.82,0,0-.11,0-.25-.1,0,.19-.09.38,0,.5a6.14,6.14,0,0,0,1.55,2.5,1.93,1.93,0,0,1,.48.85c.18.5.3,1,.44,1.53a3.23,3.23,0,0,1-.13,2.33,1.39,1.39,0,0,0,.2,1.5c2,2.92,4.3,5.52,7.59,7a13.18,13.18,0,0,1,1.39.73,10.13,10.13,0,0,0,3.85,1.38A14,14,0,0,0,87.26,172,4.13,4.13,0,0,0,89,168.27a7.47,7.47,0,0,0-1.52-4.64,27.85,27.85,0,0,1-1.89-2.83,47.31,47.31,0,0,1-7.23.23,24,24,0,0,1-2.52-.28c-.52-.06-1-.13-1.55-.15-.78,0-1.56,0-2.35-.06ZM65.28,82.12l.09,0a9.27,9.27,0,0,0,.52,1.26,11.92,11.92,0,0,1,1.41,3.28q1,3.66,1.85,7.35a14.46,14.46,0,0,1,.13,4.73.49.49,0,0,1-.6-.46,6.64,6.64,0,0,1-.1-1,22.81,22.81,0,0,0-.89-5.51l-1.45-5.59a10.54,10.54,0,0,0-1.31-3.11c-.08-.11-.12-.25-.22-.33-.52-.45-.21-1.34-.87-1.71s-1.16-.6-1.72-1a19.5,19.5,0,0,0-4-2.12,7.39,7.39,0,0,0-4.8-.25,16.06,16.06,0,0,1-4.61.57,4.36,4.36,0,0,0-.62.57,4,4,0,0,1-3,1.65,18.6,18.6,0,0,0-3,.65,6.41,6.41,0,0,0-3.27,2.07c-.52.6-.95,1.26-1.41,1.91-.34.48-.67,1-1,1.48a8.53,8.53,0,0,0-.7,1.2c-.74,1.77-1.46,3.54-2.16,5.33a3.07,3.07,0,0,0-.17,1,29,29,0,0,0,.46,7,6.91,6.91,0,0,1,.23,1.17,2.32,2.32,0,0,0,1.75,2.32,9.18,9.18,0,0,1,3.33,2.4,4.11,4.11,0,0,1,1.19,2.66c0,.53,0,1.07,0,1.6,0,3.93.08,7.86.06,11.79a7.43,7.43,0,0,0,1.72,5.15,4.77,4.77,0,0,1,1.5,3.65c.72.54,1.33.93,1.86,1.42a15.06,15.06,0,0,1,1.27,1.47l.67-.65c.72,0,.48.81.92,1,.09,0,.22-.08.27-.16.33-.64.65-1.29,1-2A23.12,23.12,0,0,1,59.5,131a5.3,5.3,0,0,1,2.6.78c.32.2.64.43.95.64a6.42,6.42,0,0,0,1.63-3.76,26.57,26.57,0,0,0-.54-8.93,10.74,10.74,0,0,0-.85-2.21c-.73-1.34-1.48-2.67-2.32-3.94a8.12,8.12,0,0,1-.76-7.25,6.93,6.93,0,0,1,2.39-3.5,6.6,6.6,0,0,1,3.71-1.63c1.22-.09,2.43-.43,3.66-.6a7.15,7.15,0,0,1,4.4.34,4.58,4.58,0,0,0,1.32.34.67.67,0,0,0,.79-.68,6.52,6.52,0,0,0,0-1,1,1,0,0,0-.15-.57c-.76-.76-.34-1.91-.94-2.76a23.53,23.53,0,0,1-1.35-2.65c-.46-.88-1-1.74-1.43-2.61A26.1,26.1,0,0,0,71,87.89c-.68-1-1.71-1.63-2.41-2.57a14.24,14.24,0,0,0-3.21-3.18ZM17.72,131.88a19.34,19.34,0,0,0,5.3,5.55,7.73,7.73,0,0,0,1.92,1c1.89.72,3.81,1.39,5.71,2.08l3.66,1.34a3,3,0,0,0,.69-1.64,7,7,0,0,1,1.23-2.48A17.29,17.29,0,0,0,38,135.06a3.64,3.64,0,0,1,3.51-2.37,3,3,0,0,0,.66-.18,9.16,9.16,0,0,0-.45-.89,22.69,22.69,0,0,1-2.17-4.25,8.66,8.66,0,0,1-.81-3.87,6.83,6.83,0,0,0-.67-3,4.6,4.6,0,0,0,.66-2.82c0-2.27,0-4.53,0-6.8a3.79,3.79,0,0,0-.56-2.67A6.44,6.44,0,0,0,35.22,106a14.33,14.33,0,0,1-2-.79c-.34-.17-.6-.5-.93-.69a2.32,2.32,0,0,0-1-.46,6.27,6.27,0,0,1-2.26-.61,4.23,4.23,0,0,0-5,.91,6.59,6.59,0,0,1-3.22,1.78,14.43,14.43,0,0,0-6.66,3.61,25.78,25.78,0,0,1-3.53,2.49,5.59,5.59,0,0,0-1.67,1.65c-1,1.63-2.1,3.22-3.09,4.86a17.49,17.49,0,0,0-1.17,2.52c-.32.8-.52,1.65-.83,2.45a34.79,34.79,0,0,0-1.93,9.56,13.61,13.61,0,0,0,1.71,7.69c.57,1,1.1,2.11,1.72,3.13a10.14,10.14,0,0,0,1.49,2.09c1.4,1.39,2.88,2.7,4.34,4,1,.92,2.05,1.85,3.11,2.73a4.57,4.57,0,0,0,1.35.78c2.58,1,5.11,2,7.77,2.73a18.73,18.73,0,0,0,4.63.75c1.24,0,2.49.06,3.73,0a12.68,12.68,0,0,0,2.11-.33c.7-.15,1.38-.43,2.08-.53a4.17,4.17,0,0,0,2.85-1.64,15.85,15.85,0,0,1-1.34-1.38,17.51,17.51,0,0,1-1.13-1.87c-.33-.57-.61-1.18-.93-1.75a6.42,6.42,0,0,1-.81-3.26c0-.86,0-1.73,0-2.6,0-.39-.05-.77-.08-1.24-.89-.18-1.71-.38-2.53-.53a43.56,43.56,0,0,1-8-2.66,7.66,7.66,0,0,1-2.47-1.6,18.5,18.5,0,0,1-4-4.9,3.09,3.09,0,0,1-.56-2.07l0,0C17.4,131,17.5,131.5,17.72,131.88Zm47.52,5.65a14.71,14.71,0,0,1,.46,10.33,2,2,0,0,0,0,1.71,2,2,0,0,1,0,1.15c-.09.45-.26.88-.41,1.4a14.5,14.5,0,0,0,5.36,2.79c1.59.4,3.18.77,4.76,1.16.63.16,1.26.34,1.88.54.16,0,.27.25.43.4-1.79.39-2.21.33-8.27-1.09,0,.48.42.59.66.81a7.36,7.36,0,0,0,.77.61A7.88,7.88,0,0,0,75.55,159h4.5a8.5,8.5,0,0,0,4.13-1.07,3.93,3.93,0,0,1,2.6-.65,2.43,2.43,0,0,0,1.68-.43q1.91-1.2,3.84-2.39a8.29,8.29,0,0,1,1.19-.68,12.22,12.22,0,0,0,5.45-5c.47-.72.92-1.45,1.45-2.12a14.44,14.44,0,0,0,2.54-5.35c.35-1.35.67-2.71,1.09-4a13.77,13.77,0,0,0,.66-4.32c0-1.2,0-2.4,0-3.59a17.06,17.06,0,0,0-.68-4.93,6.45,6.45,0,0,0-.53-1.49c-.91-1.69-1.82-3.39-2.81-5a14.22,14.22,0,0,0-3.82-4.24,5,5,0,0,1-1-.9,15.51,15.51,0,0,0-3.46-2.91c-.91-.64-1.8-1.33-2.65-2.05A10,10,0,0,0,87,106.21a28.61,28.61,0,0,0-5.38-1.81c-.32-.07-.67-.26-.95-.18a5.16,5.16,0,0,1-2.85-.45c-.82-.23-1.62-.51-2.43-.75a17.16,17.16,0,0,0-6.41-.48,10.92,10.92,0,0,0-2.81.79c-1,.37-1.9.88-2.85,1.3a2.83,2.83,0,0,0-1.57,1.7A6.83,6.83,0,0,0,62.4,113,49.35,49.35,0,0,1,65,117.22a7.57,7.57,0,0,1,1,4.61,16.24,16.24,0,0,0-.07,2.79,10.4,10.4,0,0,0,.32,2.36,5.1,5.1,0,0,1-.1,3.32c-.35.93-.77,1.83-1.17,2.74-.21.48-.45,1-.7,1.5C64.54,135.53,64.82,136.56,65.24,137.53ZM35,164.06c-1.52,1.76-3.63,2.29-5.68,2.94a20.5,20.5,0,0,1-2.67.58,3.87,3.87,0,0,1-2.13-.12c.06-.1.09-.19.13-.2,1.45-.36,2.92-.63,4.34-1.07,2-.62,4-1.14,5.61-2.67,2.31-1.16,2.95-3.39,3.56-5.6-.34-.49-.76-.37-1.11-.29a13.55,13.55,0,0,0-2.27.6,8.9,8.9,0,0,1-3.27.49c-2.15,0-4.31,0-6.46,0a2.5,2.5,0,0,0-1.78.65,19.93,19.93,0,0,1-5.48,3.44,5.45,5.45,0,0,0-2.89,3.34c-.32.87-.6,1.76-1,2.6a5.92,5.92,0,0,0-.51,4A5.44,5.44,0,0,0,17.12,174h6.46c.72,0,1.44,0,2.16,0a3.21,3.21,0,0,1,2.79,1.14,3.69,3.69,0,0,0,.57.44c.95,0,2,0,3,0a3.18,3.18,0,0,0,1.14-.23,25.73,25.73,0,0,0,5.24-2.75A3.75,3.75,0,0,0,37,171.3a2.59,2.59,0,0,1-1.2-1.73,9.28,9.28,0,0,1-.16-2.78,16.27,16.27,0,0,0,.13-3.09C35.42,163.85,35.13,163.89,35,164.06ZM52.55,155l.26.17.15-.3-.16-.08Zm-1.06-1.83s-.15,0-.15,0a2.15,2.15,0,0,0,.1.27l.29-.17A1.58,1.58,0,0,0,51.49,153.15Z"/><path class="cls-2" d="M98.84,131.57c-.51.12-.49.5-.56.8A15.41,15.41,0,0,1,92,141.71c-1.3.89-2.58,1.82-3.9,2.67a19.32,19.32,0,0,1-10.7,3.36,34.92,34.92,0,0,0-4.92.46c.22.45.56.35.81.36,1.63.05,3.26.12,4.9.11a18.66,18.66,0,0,0,9.82-3c1.73-1.07,3.38-2.28,5-3.45a12.76,12.76,0,0,0,4.19-4.93c.47-.95,1-1.89,1.35-2.87A4.19,4.19,0,0,0,98.84,131.57Z"/><path class="cls-2" d="M67.36,109.94c1.11,1.53,1.24,3.35,1.5,5.11A64.25,64.25,0,0,1,69.61,129c-.06.8-.1,1.6-.22,2.38a5.41,5.41,0,0,1-1.46,3.2,1.57,1.57,0,0,0-.25.44c.34.26.55,0,.72-.13a6.66,6.66,0,0,0,2.3-5.09c.1-2,.13-4,.11-6a65.25,65.25,0,0,0-1.27-10.88,5.84,5.84,0,0,0-1.33-2.84,2.45,2.45,0,0,0-.58-.39Z"/><path class="cls-2" d="M69.37,143c.18,0,.37.15.51.1A64.76,64.76,0,0,0,85.12,137a17.13,17.13,0,0,0,5.59-5.2c-.08-.41-.33-.35-.54-.16a24,24,0,0,0-1.87,1.76,14,14,0,0,1-3.9,3,65,65,0,0,1-9.12,4.12c-1.92.65-3.79,1.44-5.68,2.18C69.51,142.69,69.47,142.85,69.37,143Z"/><path class="cls-2" d="M71,136.11a3.49,3.49,0,0,0,2.1-1A11.92,11.92,0,0,0,76.73,131c1.29-2.61,2.5-5.27,3.62-8a12.3,12.3,0,0,0,.21-6.43c-.34,0-.43.27-.46.53-.07.8-.14,1.6-.16,2.39a11.38,11.38,0,0,1-1.08,4.63c-.69,1.51-1.36,3-2,4.54a17.32,17.32,0,0,1-4.12,5.77c-.58.54-1.1,1.14-1.64,1.71Z"/><polygon class="cls-2" points="70.64 136.61 70.56 136.66 70.61 136.58 70.64 136.61"/><path class="cls-2" d="M70.61,136.58l.43-.47,0,0-.43.47Z"/><path class="cls-2" d="M33.92,154.79c-.79,0-1.44-.11-2.08-.11l-5.27,0a6.27,6.27,0,0,1-1.74-.13,38.83,38.83,0,0,1-5.77-1.77,5.39,5.39,0,0,0-1.11-.38c-.49-.11-1-.16-1.61-.26.11.29.12.53.23.59,1.63.8,3.06,2,4.93,2.29a.6.6,0,0,1,.19.06,15.13,15.13,0,0,0,6.89.93c1.17,0,2.34,0,3.51-.08a5.15,5.15,0,0,0,1.49-.36C33.73,155.48,33.77,155.13,33.92,154.79Z"/><path class="cls-2" d="M22.91,117.81a2.21,2.21,0,0,0,0,1.56,14.16,14.16,0,0,0,2.25,5c1.11,1.63,2.32,3.2,3.58,4.73a15.6,15.6,0,0,0,4,3.42,15,15,0,0,0,1.94.92,1,1,0,0,0,.57,0c.1,0,.19-.14.28-.22s-.07-.29-.16-.34a27.85,27.85,0,0,1-8.57-8c-.48-.64-.92-1.29-1.36-2a11.21,11.21,0,0,1-2-4.5C23.43,118.17,23.33,117.85,22.91,117.81Z"/><path class="cls-2" d="M38,129.48c-1-1.79-2-3.43-2.93-5.1a36.33,36.33,0,0,1-2.2-5.32,26.33,26.33,0,0,1-1.09-5.91c-.33.44-.5.56-.5.7a13.91,13.91,0,0,0,.35,4.54,36,36,0,0,0,3.28,8.08,10.92,10.92,0,0,0,2.53,3C37.48,129.53,37.65,129.48,38,129.48Z"/><path class="cls-2" d="M35.34,151c-.7.11-.94.13-1.18.18l-3,.74a15.87,15.87,0,0,1-6.79-.17c-1.35-.25-2.67-.62-4-.89-.4-.08-.84-.37-1.32,0a1.9,1.9,0,0,0,.47.35A44.06,44.06,0,0,0,25.65,153a17.53,17.53,0,0,0,7.55-.59A3.94,3.94,0,0,0,35.34,151Z"/><path class="cls-2" d="M12.67,148.9l1.12.62C13.81,148.76,13.2,148.86,12.67,148.9Z"/><path class="cls-2" d="M16.88,130.85c0-.11,0-.22-.05-.33,0,.1.05.2.08.3Z"/><path class="cls-2" d="M43.93,87.23a4,4,0,0,0-.27,1,20.32,20.32,0,0,1-.89,5.48c-.27,1-.52,1.93-.75,2.9a22.1,22.1,0,0,0-.65,4.52,82.9,82.9,0,0,0,.11,10,25.91,25.91,0,0,0,.43,3.15c.53,2.39,1.12,4.77,1.71,7.16.05.21.25.39.57.85a6.92,6.92,0,0,0,0-1.08c-.35-1.76-.66-3.52-1.08-5.26a35.15,35.15,0,0,1-.84-7.91c0-1.86,0-3.72,0-5.59a23.25,23.25,0,0,1,.83-6.69c.32-1.15.57-2.32.89-3.47a12.46,12.46,0,0,0,.24-4.55C44.18,87.59,44.07,87.48,43.93,87.23Z"/><path class="cls-2" d="M49.31,124.05a5,5,0,0,0-.05-1c-.63-2.93-.9-5.92-1.38-8.87a58.21,58.21,0,0,1,0-15.15c.19-1.85.56-3.68.81-5.53a34.57,34.57,0,0,1,1.13-5.87,1.73,1.73,0,0,0-.15-1.79c-.12.17-.27.29-.3.43-.08.33,0,.68-.15,1-1.29,3.74-1.5,7.7-2.07,11.57a55.13,55.13,0,0,0-.46,11.77c.11,1.65.43,3.3.7,4.94q.61,3.73,1.31,7.47a4.91,4.91,0,0,0,.44,1Z"/><path class="cls-2" d="M36.65,97.48c.15-1.14.27-1.92.35-2.71s.1-1.59.19-2.38A12.86,12.86,0,0,0,37.51,90c-.06-.78.68-1.47.23-2.28-.82.18-1,.76-1.15,1.46a23,23,0,0,0-.22,7.54A6.6,6.6,0,0,0,36.65,97.48Z"/><path class="cls-2" d="M48.4,161c.23-.9.51-1.79.66-2.7a10.55,10.55,0,0,0,0-2c0-.07-.19-.18-.3-.19a.4.4,0,0,0-.32.14,3.35,3.35,0,0,0-.21.75,17.44,17.44,0,0,1-1.69,5.06c-.33.64-.63,1.3-.91,2a9.66,9.66,0,0,1-3.1,4,3.93,3.93,0,0,0-.55.53s0,.12-.05.29a2.09,2.09,0,0,0,.71,0,7.79,7.79,0,0,0,3.84-4.05c.61-1.31,1.27-2.6,1.91-3.9Z"/><path class="cls-2" d="M40.6,165.13l-.15.05.11-.09Z"/><path class="cls-2" d="M41,164.71l-.43.42,0,0,.44-.41Z"/><path class="cls-2" d="M22.9,165.51a3.23,3.23,0,0,0,2-.57c2.05-1,4.08-2.07,6.14-3.05.93-.45,1.93-.76,2.91-1.13l1.52-.55c-.19-.25-.27-.47-.41-.51a1.51,1.51,0,0,0-.76,0,10,10,0,0,0-2.06.59c-3.21,1.58-6.55,2.93-9.33,5.3Z"/><polygon class="cls-2" points="22.94 165.54 22.88 165.67 22.9 165.51 22.94 165.54"/><path class="cls-2" d="M58.55,151.41l.26-.18-.19-.11,0,.32Z"/><path class="cls-2" d="M50.89,144.56a3.91,3.91,0,0,0-.31.88c0,1.65,0,3.31,0,5a2.06,2.06,0,0,0,.21.76.39.39,0,0,0,.32.15.54.54,0,0,0,.3-.2.7.7,0,0,0,.14-.36c0-1.85,0-3.71-.08-5.56C51.41,145,51.13,144.84,50.89,144.56Z"/><path class="cls-2" d="M42.75,151a22.8,22.8,0,0,1-2-1.35,16.55,16.55,0,0,1-1.51-1.51c-.36.51,0,.85.15,1.15a4.53,4.53,0,0,0,2,1.84A1.18,1.18,0,0,0,42.75,151Z"/><path class="cls-2" d="M39.71,139.88a5,5,0,0,0,1.23,3.24c0-.23.14-.42.09-.53-.39-.92-.42-2-1.35-2.68Z"/><path class="cls-2" d="M39.63,145.32a4,4,0,0,0,1.52,2.49C41.06,147,41,146.76,39.63,145.32Z"/><path class="cls-2" d="M43.62,134.27h-.84C43.06,134.43,43.34,134.61,43.62,134.27Z"/><path class="cls-2" d="M39.68,139.91l-.15-.17s0,.11,0,.12a.25.25,0,0,0,.15,0Z"/><path class="cls-1" d="M146,163.63c.27-.09.53-.2.81-.28l.62-.17a3.18,3.18,0,0,1-.62,1.93,1.17,1.17,0,0,0,.37,1.71,25.49,25.49,0,0,1-4.59,2.24,83.87,83.87,0,0,1-12.87,3.34,24,24,0,0,1-9.41,0,6.53,6.53,0,0,0-.87-.13c-2.56-.19-5.12-.33-7.68-.57a111.36,111.36,0,0,1-13.86-2.07,26.12,26.12,0,0,1-7.22-2.75,5,5,0,0,0-3-1.06c-.38,0-.81-.5-1.28-.81,0-.81,0-1.61,0-2.41.11,0,.2,0,.25,0s.35.28.52.27a.53.53,0,0,0,.33-.42c-.08-1.09-.16-2.19-.32-3.26s-.44-2-.62-3a5.46,5.46,0,0,1,.28-3.81c.18-.32.14.19,0-.19-1-4.1-1-7.29-1.42-11.45-.55-5-.59-9-.8-14,0-1.09-.24-2.19-.32-3.28-.13-1.64-.3-.28-.32-1.92-.1-6-.84-9-1.36-15-.16-1.78-.16-3.56-.2-5.33,0-1.37,0-2.74,0-4.1a19.48,19.48,0,0,1,.9-5.82c.22-.72.32-1.46.53-2.18a17,17,0,0,1,.7-1.92,1.91,1.91,0,0,1,1.66-1.23,3.35,3.35,0,0,0,3.14-2.78c3.74-.25,6.84-1.9,10.07-3.09a43.2,43.2,0,0,0,5.33-2.25,15,15,0,0,0,5.53-4.55,12.79,12.79,0,0,0,2.07-.51,8.13,8.13,0,0,1,4.4-.31c.16.4.3.76.47,1.21-.87.28-1.72-.71-2.52.13,1.05,1.48,3,.89,4.4,1.6.85-.43,1.72-.87,2.53-1.3.06-.39-.1-.59-.42-.61s-.85,0-1.4,0c0-.31-.08-.6-.13-1a8,8,0,0,1,4,.16c.72.26,1.47.42,2.45.69.15.18.43.56.74.91a13.44,13.44,0,0,0,4.25,3.3c.89.44,1.75.92,2.74,1.43a10,10,0,0,1-.57,1.09c-.47.68-1,1.32-1.47,2a.49.49,0,0,0,.12.77,4.53,4.53,0,0,0,1.43-1.65c.4-.63.76-1.28,1.18-2a9.64,9.64,0,0,1,1.08.3c2.41.94,4.82,1.94,7.31,2.8,1.3.45,2.72.67,4.22,1a4.7,4.7,0,0,1,.4,1.63,1.58,1.58,0,0,0,.65,1.73c.47.34.1,1.08-.59,1.23a2.17,2.17,0,0,0-1.32.68,6,6,0,0,1-3,1.46c-.86.26-1.75.42-2.64.63,0,.46.39.31.6.33a10.35,10.35,0,0,0,6.07-1.44c.64-.37,1.37-.62,2.06-.93,0,.41-.41.9.42,1.18a4.12,4.12,0,0,0,1.31-1.58c.13-.34.07-.66-.49-.68l-1.28,1.12c.1-.86.2-1.72.29-2.59,1.28,0,1.53,0,1.88.63a7.16,7.16,0,0,1,.94,2c.4,2.06,1.19,4,1.39,6.15a13.55,13.55,0,0,1,.1,1.43,77.27,77.27,0,0,1-.59,12.52c-.11.67-.09,1.36-.15,2.05-.15,1.84-.35,2.68-.48,4.53s-.19,2.55-.24,4.33a26,26,0,0,1-.47,4.18c-.27,2.25-.36,4.51-.43,6.77a75.1,75.1,0,0,1-.68,9.46,19.66,19.66,0,0,0-.17,2.87,37.39,37.39,0,0,1-1.19,9c-.13.55-.23,0,.09.58a4.28,4.28,0,0,1,.3,3.2c-.32,1.68-.64,3.36-.9,5a3.89,3.89,0,0,0,0,2.11l1-.4c0,.55,0,1.08,0,1.69l-1.77,1c-.35-1.13.69-2.26-.33-3.18-1-.12-1.42.81-2.18,1.13l0,0c-.13-.6.67-1.07.24-1.82a3.89,3.89,0,0,0-.67.51c-.73.85-1.46,1.7-2.12,2.58a6.77,6.77,0,0,1-3.58,2.52c-2.2.69-4.39,1.43-6.59,2.15a12.21,12.21,0,0,1-3.18.7,2.82,2.82,0,0,0-1.92.59c.24.16.44.39.67.43a8.11,8.11,0,0,0,2,.12,13.49,13.49,0,0,0,2.53-.59,48.3,48.3,0,0,0,6.71-2.43c1.63,0,2.57-1.09,3.59-2a8.8,8.8,0,0,0,2.37-2.34Zm-18-6.15a.71.71,0,0,0-.21,0s-.07.08-.1.12l.27-.2c.15-.15.3-.31.44-.47a2.86,2.86,0,0,0,1.7-.83c4.17-3,7.77-4.5,11.11-8.31a3.06,3.06,0,0,0,.29-.6c-.23-.07-.5-.21-.58-.15a8.57,8.57,0,0,0-1.11,1c-1.55,1.54-3.05,2.12-4.62,3.62-2.23,2.14-4.5,3.23-6.75,5.34ZM148.65,93c.16-.27.33-.53.5-.79a.77.77,0,0,0,.4-.8l.56-.43.1-.12-.06.16-.56.42c-.13.27-.27.54-.4.8l-.51.79c0,.1-.07.2-.09.29Zm-1,67.59a1.67,1.67,0,0,0,.28-.25s0-.14-.06-.22l-.06.18-.15.33c0,.09,0,.18-.07.35C147.66,160.79,147.67,160.69,147.69,160.58Zm1.93-41.24a4,4,0,0,0-.83.66c-1.11,1.52-1.78,2.17-2,4,0,.11.1.23.18.41.83-.9.79-2.05,1.27-3s.94-1,1.41-2l0-.07Zm.28,4.13a17.72,17.72,0,0,0-3.13,5.66,6.17,6.17,0,0,0-.13,1.66c.43-.42.71-.58.8-.79.75-1.79,1.48-3.58,2.19-5.39a5.87,5.87,0,0,0,.23-1.18l.16,0Zm-21.07,27.9c.58-.09.79-.57,1.07-.94,1.88-2.52,3.75-4.05,5.61-6.59a19.63,19.63,0,0,0,1.2-2c.09-.15,0-.37,0-.76a3.39,3.39,0,0,0-.74.53c-1.76,2.36-3.49,4.73-5.22,7.1-.82,1.14-1.47,1.35-1.94,2.65l0,.08S128.84,151.41,128.83,151.37Zm5.3-58.87s-.08-.12-.12-.12c-.73.05-1.46.15-2.19.14a39,39,0,0,0-5.92.52,21.35,21.35,0,0,1-2.41.17c-1.6,0-3.21.06-4.82.05-2.26,0-4.53,0-6.79-.11-2.92-.18-5.83-.53-8.77-.82a3.52,3.52,0,0,0-.76.2,5,5,0,0,0,2,.68,68.42,68.42,0,0,0,10.07.92c2.49,0,5,0,7.45,0a64.7,64.7,0,0,0,10.29-.9,13,13,0,0,0,1.71-.44C134,92.76,134.05,92.6,134.13,92.5Zm15,38.51c-.38.07-.4.38-.46.63-.41,1.53-.83,3.06-1.2,4.6a11.47,11.47,0,0,0-.31,2c0,.72.24-.09,1.21.08a3.36,3.36,0,0,1,.75.3,13.69,13.69,0,0,1-.78,4.12,14.51,14.51,0,0,0-1.09,4.17,15.78,15.78,0,0,0-.23,1.62,3.49,3.49,0,0,0,.33,1.16.42.42,0,0,0,.7,0,3.11,3.11,0,0,0,.23-.79,33,33,0,0,1,1.36-6,6.15,6.15,0,0,0,.27-3.45,3.21,3.21,0,0,0-.3-1.17c-.26-.37-.73.39-1.22,0,.09-.67.16-1.41.31-2.14s.37-1.33.53-2A5.17,5.17,0,0,0,149.09,131Zm-21,34.94a3.06,3.06,0,0,0,1.77-1c1.67-1.41,3.3-2.88,5-4.25a40.17,40.17,0,0,0,8.46-8.57,4,4,0,0,0,.43-1.12s-.22-.2-.3-.18a1.17,1.17,0,0,0-.55.29c-.41.48-.79,0-1.18.47a54.49,54.49,0,0,1-8,8.6c-1.75,1.43-3.35,3-5,4.56C128.38,165.06,128,165.28,128.07,166Zm23.29-57.45c-.32.11-.53.12-.58.2-.75,1.13-1.53,2.25-2.17,3.42s-1.29,1.63-1.9,3a3,3,0,0,0-.24,2c0,.16.21.29.44.6a8.15,8.15,0,0,0,.4-.83c.34-1,.58-2,1-2.93.58-1.27,1.29-1.49,2-2.73A6,6,0,0,0,151.36,108.5ZM147,110.13c.37-.72.53-1.1.75-1.46a10.87,10.87,0,0,0,1.88-4.26c.07-.33.21-.73.07-1a15.06,15.06,0,0,1-.62-2.53c0-.13-.33-.18-.57-.3a6.22,6.22,0,0,0-.09,3.28,3.66,3.66,0,0,1,0,1.58c-.2,1.08-.55,1.12-1.09,2.12a10,10,0,0,0-.7,1.73C146.61,109.43,146.79,109.62,147,110.13Zm-10.95,55.7a.64.64,0,0,0,1,.17,17.78,17.78,0,0,0,6.42-7,.37.37,0,0,0,.07-.19c0-.17,0-.34,0-.73-.88,1.08-1.58,2-2.35,2.88s-1.66,1.7-2.46,2.57S136.68,164.84,136.06,165.83Zm12-14.93a19.51,19.51,0,0,0,0,7.66c.12-.05.32-.09.34-.16A17.93,17.93,0,0,0,148.05,150.9ZM96,90.87c-.07-.11-.09-.21-.14-.23-.79-.19-1.6-.32-2.37-.58-1.31-.43-2.82-.61-3.6-1.91-.16-.27-.76-.14-.93.15a.72.72,0,0,0,.11.94,4.18,4.18,0,0,0,1,.75A9.77,9.77,0,0,0,96,90.87Zm56.18,2.49a20.67,20.67,0,0,0-4.73,6.3c0,.08.13.22.25.42a3.68,3.68,0,0,0,.67-.51c.49-.62.92-1.28,1.39-1.92.81-1.1,1.64-2.19,2.45-3.3C152.42,94.06,152.59,93.74,152.17,93.36Zm-9.8-9.28a12.1,12.1,0,0,0-3.51,3.33.43.43,0,0,0,.11.69.6.6,0,0,0,.76-.19c.93-1.06,1.85-2.12,2.75-3.2C142.53,84.64,142.44,84.47,142.37,84.08ZM128.32,82.3c.37-.67.81-1.35,1.15-2.08s1.05-1.28.84-2.14c-1.12.17-1.18,1.18-1.68,1.83a7.44,7.44,0,0,0-1,1.76C127.51,82,127.76,82.28,128.32,82.3Zm7.81-.81c-.18,0-.28-.08-.31-.06a5.5,5.5,0,0,0-2.06,2.77.54.54,0,0,0,.22.5.73.73,0,0,0,.61,0c.42-.27.79-.61,1.24-1C135.24,82.92,136.2,82.34,136.13,81.49Zm-7.3-4.37a10.68,10.68,0,0,0-3.64,3,.55.55,0,0,0,.06.85A24.15,24.15,0,0,0,128.83,77.12Zm9.37,9.28c.34-1.13.6-2,.82-2.78.06-.23.13-.53-.37-.6a5.29,5.29,0,0,0-1.18,1.88,1.38,1.38,0,0,0,0,1C137.53,86.05,137.86,86.16,138.2,86.4Z"/><path class="cls-1" d="M123.23,58.18c-.71-1.09-1.42-2.18-2.11-3.28a27.89,27.89,0,0,1-2.71-5.19,1.51,1.51,0,0,0-.29-.49c-.08-.09-.26-.18-.34-.15a1.44,1.44,0,0,0-.43.35.46.46,0,0,0-.08.37,3.29,3.29,0,0,1-.42,2.59,7.29,7.29,0,0,0-.63,2.83c0,1.56,0,3.12-.07,4.68a3.11,3.11,0,0,0,1.47,3c.53.33.56.84,0,1.4a10.67,10.67,0,0,1-4.84-5.65,5.49,5.49,0,0,1,.09-3.28c.2-.69.46-1.36.71-2q2-5.29,3.82-10.56a3.14,3.14,0,0,1,.29-.49c.11.06.24.1.29.18,1.15,2.07,2.36,4.13,3.53,6.22a37.86,37.86,0,0,1,1.81,3.67A6.92,6.92,0,0,1,123.23,58.18Z"/><path class="cls-1" d="M119.75,63.13c0-.5-.08-1-.1-1.49-.07-1.17-.12-2.34-.2-3.5a3.11,3.11,0,0,0-.21-1,.53.53,0,0,0-.42-.28.58.58,0,0,0-.38.37,6.49,6.49,0,0,0-.16,1.15c0,.65-.06,1.3-.12,2a11.58,11.58,0,0,1-.23,1.18,3.68,3.68,0,0,1-.56-.73,2.21,2.21,0,0,1-.11-.77c0-1.69,0-3.38,0-5.06a10.27,10.27,0,0,1,.4-2.09c0-.15.23-.27.41-.46a5.07,5.07,0,0,1,.51.64,22.32,22.32,0,0,0,3.23,4.7,2.84,2.84,0,0,1,.66,1.81,1.46,1.46,0,0,1-.31.89c-.64.92-1.34,1.81-2,2.71Z"/><path class="cls-1" d="M146,163.13v.5l.05,0v-.41Z"/><path class="cls-2" d="M116.82,71.07c.37-2.08.7-3.95,1-5.88-.5-.23-.91-.45-1.35-.62a8.92,8.92,0,0,1-5.08-5,5.18,5.18,0,0,1-.31-3.27,22,22,0,0,1,.93-3.19c1.48-3.76,3-7.48,4.37-11.2a14.11,14.11,0,0,0,1-3.31,7.23,7.23,0,0,1,.5-1.28,17.45,17.45,0,0,1,.5,1.73,12.89,12.89,0,0,0,1.89,5c.65,1,1.32,2.08,2,3.1a29.91,29.91,0,0,1,2.44,4.44,9.56,9.56,0,0,1-.52,9,21.08,21.08,0,0,1-4.4,5.07,10.78,10.78,0,0,0-.08,2.67c0,.85,0,1.7,0,2.65a4.59,4.59,0,0,0,1.27.21,6.47,6.47,0,0,1,3.51.57,6,6,0,0,0,.58.25,11.73,11.73,0,0,1,4.44,2.62,19.5,19.5,0,0,0,5.36,2.94c2.68,1.18,5.51,2.11,8.25,3.29,1.62.69,3.37,1,5,1.62a24,24,0,0,1,4.7,2.42,4.64,4.64,0,0,1,1.86,2.47,15.64,15.64,0,0,1,.93,5c.07,3.69.14,7.38.1,11.08,0,1.43-.2,1.87-.31,3.31-.1,1.23-.19,2.47-.29,3.7-.12,1.51-.27,2-.37,3.52-.2,3-.36,5-.57,8-.15,2.06-.37,1.11-.54,3.16-.1,1.24-.17,2.47-.21,3.71-.06,1.85,0,3.7-.14,5.55-.08,1.64-.28,2.28-.41,3.92-.09,1-.17,2.05-.24,3.08,0,.41,0,.83-.07,1.23a52.27,52.27,0,0,0-.39,7.8,6.93,6.93,0,0,1-.09,1.44,19.56,19.56,0,0,0-.34,5.34c0,2.12.06,4.24.15,6.36a3.39,3.39,0,0,1-1.59,3.17c-.65.44-1.33.82-2,1.21-1.55.87-3.12,1.72-4.67,2.61a18.89,18.89,0,0,1-4.74,2.05c-.63.17-1.25.4-1.87.59a5.58,5.58,0,0,1-1.68.44c-2.26-.09-4.26,1-6.49,1s-4.72,0-7.08,0c-.58,0-1.18,0-1.76,0a28.1,28.1,0,0,1-6.79-.6,20.21,20.21,0,0,0-3.72-.36,31,31,0,0,1-6.75-.75,44.52,44.52,0,0,1-8.73-2.67c-1.24-.56-2.55-1-3.83-1.5a19.68,19.68,0,0,1-4.37-2.26,2.68,2.68,0,0,1-1.25-2.44c.08-2.19,0-4.38.14-6.57a34.73,34.73,0,0,0-.26-5.76,11.47,11.47,0,0,1-.06-4.09,3.52,3.52,0,0,0,0-1c-.05-.48-.19-.95-.2-1.43-.13-4.45-1-7.88-.94-12.34,0-3.71-.4-7.4-.71-11.1-.24-2.88-.25-1.76-.47-4.64-.3-4-.72-5.93-1-9.9-.1-1.24-.16-2.47-.17-3.7,0-3.84,0-7.67.11-11.5a13,13,0,0,1,.88-4.59,5.73,5.73,0,0,1,2.9-3.21,21.6,21.6,0,0,1,4.61-2.11c3.81-.92,7.12-2.71,10.63-4,1.28-.48,2.54-1,3.77-1.54a18.42,18.42,0,0,0,4.53-3,4,4,0,0,1,2-1.12,6.23,6.23,0,0,0,1.37-.55,7.2,7.2,0,0,1,4.31-.78A2.7,2.7,0,0,0,116.82,71.07Zm32.77,17.52c-.69.31-1.42.56-2.06.93A10.35,10.35,0,0,1,141.46,91c-.21,0-.61.13-.6-.33.89-.21,1.78-.37,2.64-.63a6,6,0,0,0,3-1.46,2.17,2.17,0,0,1,1.32-.68c.69-.15,1.06-.89.59-1.23a1.57,1.57,0,0,1-.65-1.73,4.7,4.7,0,0,0-.4-1.63c-1.5-.35-2.92-.57-4.22-1-2.49-.86-4.9-1.86-7.31-2.8a9.64,9.64,0,0,0-1.08-.3c-.42.7-.78,1.35-1.18,2a4.53,4.53,0,0,1-1.43,1.65A.49.49,0,0,1,132,82c.47-.68,1-1.32,1.47-2a10,10,0,0,0,.57-1.09c-1-.51-1.85-1-2.74-1.43a13.44,13.44,0,0,1-4.25-3.3c-.31-.35-.59-.73-.74-.91-1-.27-1.73-.43-2.45-.69a8,8,0,0,0-4-.16c0,.41.09.7.13,1,.55,0,1,0,1.4,0s.48.22.42.61c-.81.43-1.68.87-2.53,1.3-1.43-.71-3.35-.12-4.4-1.6.8-.84,1.65.15,2.52-.13-.17-.45-.31-.81-.47-1.21a8.13,8.13,0,0,0-4.4.31,12.79,12.79,0,0,1-2.07.51,15,15,0,0,1-5.53,4.55A43.2,43.2,0,0,1,99.54,80c-3.23,1.19-6.33,2.84-10.07,3.09a3.35,3.35,0,0,1-3.14,2.78,1.91,1.91,0,0,0-1.66,1.23,17,17,0,0,0-.7,1.92c-.21.72-.31,1.46-.53,2.18a19.43,19.43,0,0,0-.9,5.82c0,1.36,0,2.73,0,4.1,0,1.77,0,3.55.2,5.33.52,6,1.26,9,1.36,15,0,1.64.19.28.32,1.92.08,1.09.27,2.18.32,3.28.21,5,.25,9,.8,14,.45,4.16.4,7.35,1.42,11.45.09.38.13-.13,0,.19a5.46,5.46,0,0,0-.28,3.81c.18,1,.46,2,.62,3s.24,2.17.32,3.26a.53.53,0,0,1-.33.42c-.17,0-.34-.18-.52-.27s-.14,0-.25,0c0,.8,0,1.6,0,2.41.47.31.9.84,1.28.81a5,5,0,0,1,3,1.06,26.12,26.12,0,0,0,7.22,2.75,111.36,111.36,0,0,0,13.86,2.07c2.56.24,5.12.38,7.68.57a6.53,6.53,0,0,1,.87.13,24,24,0,0,0,9.41,0,83.87,83.87,0,0,0,12.87-3.34,25.49,25.49,0,0,0,4.59-2.24,1.17,1.17,0,0,1-.37-1.71,3.18,3.18,0,0,0,.62-1.93l-.62.17c-.28.08-.54.19-.81.28v-.5c.76-.32,1.15-1.25,2.18-1.13,1,.92,0,2.05.33,3.18l1.77-1c0-.61,0-1.15,0-1.69l-1,.4a3.89,3.89,0,0,1,0-2.11c.26-1.68.58-3.36.9-5a4.28,4.28,0,0,0-.3-3.2c-.32-.53-.22,0-.09-.58a37.39,37.39,0,0,0,1.19-9,19.66,19.66,0,0,1,.17-2.87,75.1,75.1,0,0,0,.68-9.46c.07-2.26.16-4.52.43-6.77a26,26,0,0,0,.47-4.18c.05-1.78.12-2.56.24-4.33s.33-2.69.48-4.53c.06-.69,0-1.38.15-2.05a77.27,77.27,0,0,0,.59-12.52,13.55,13.55,0,0,0-.1-1.43c-.2-2.1-1-4.09-1.39-6.15a7.16,7.16,0,0,0-.94-2c-.35-.61-.6-.65-1.88-.63-.09.87-.19,1.73-.29,2.59ZM123.23,58.18a6.92,6.92,0,0,0,.11-5.79,37.86,37.86,0,0,0-1.81-3.67c-1.17-2.09-2.38-4.15-3.53-6.22,0-.08-.18-.12-.29-.18a3.14,3.14,0,0,0-.29.49q-1.85,5.27-3.82,10.56c-.25.67-.51,1.34-.71,2a5.49,5.49,0,0,0-.09,3.28,10.67,10.67,0,0,0,4.84,5.65c.54-.56.51-1.07,0-1.4a3.11,3.11,0,0,1-1.47-3c0-1.56,0-3.12.07-4.68a7.29,7.29,0,0,1,.63-2.83,3.29,3.29,0,0,0,.42-2.59.46.46,0,0,1,.08-.37,1.44,1.44,0,0,1,.43-.35c.08,0,.26.06.34.15a1.51,1.51,0,0,1,.29.49,27.89,27.89,0,0,0,2.71,5.19C121.81,56,122.52,57.09,123.23,58.18Zm-3.48,5,.42.07c.68-.9,1.38-1.79,2-2.71a1.46,1.46,0,0,0,.31-.89,2.84,2.84,0,0,0-.66-1.81,22.32,22.32,0,0,1-3.23-4.7,5.07,5.07,0,0,0-.51-.64c-.18.19-.38.31-.41.46a10.27,10.27,0,0,0-.4,2.09c-.06,1.68,0,3.37,0,5.06a2.21,2.21,0,0,0,.11.77,3.68,3.68,0,0,0,.56.73,11.58,11.58,0,0,0,.23-1.18c.06-.65.07-1.3.12-2a6.49,6.49,0,0,1,.16-1.15.58.58,0,0,1,.38-.37.53.53,0,0,1,.42.28,3.11,3.11,0,0,1,.21,1c.08,1.16.13,2.33.2,3.5C119.67,62.14,119.72,62.63,119.75,63.13Z"/><path class="cls-2" d="M134.13,92.5c-.08.1-.14.26-.24.29a13,13,0,0,1-1.71.44,64.7,64.7,0,0,1-10.29.9c-2.48,0-5,0-7.45,0a68.42,68.42,0,0,1-10.07-.92,5,5,0,0,1-2-.68,3.52,3.52,0,0,1,.76-.2c2.94.29,5.85.64,8.77.82,2.26.14,4.53.1,6.79.11,1.61,0,3.22,0,4.82-.05A21.35,21.35,0,0,0,125.9,93a39,39,0,0,1,5.92-.52c.73,0,1.46-.09,2.19-.14C134.05,92.38,134.09,92.46,134.13,92.5Z"/><path class="cls-2" d="M149.09,131a5.17,5.17,0,0,1,.1,3.13c-.16.67-.4,1.32-.53,2s-.22,1.47-.31,2.14c.49.39,1-.37,1.22,0a3.21,3.21,0,0,1,.3,1.17,6.15,6.15,0,0,1-.27,3.45,33,33,0,0,0-1.36,6,3.11,3.11,0,0,1-.23.79.42.42,0,0,1-.7,0,3.49,3.49,0,0,1-.33-1.16,15.78,15.78,0,0,1,.23-1.62,14.51,14.51,0,0,1,1.09-4.17,13.69,13.69,0,0,0,.78-4.12,3.36,3.36,0,0,0-.75-.3c-1-.17-1.25.64-1.21-.08a11.47,11.47,0,0,1,.31-2c.37-1.54.79-3.07,1.2-4.6C148.69,131.39,148.71,131.08,149.09,131Z"/><path class="cls-2" d="M146.05,163.17v.41a8.8,8.8,0,0,1-2.37,2.34c-1,.92-2,2-3.59,2a48.3,48.3,0,0,1-6.71,2.43,13.49,13.49,0,0,1-2.53.59,8.11,8.11,0,0,1-2-.12c-.23,0-.43-.27-.67-.43a2.82,2.82,0,0,1,1.92-.59,12.21,12.21,0,0,0,3.18-.7c2.2-.72,4.39-1.46,6.59-2.15a6.77,6.77,0,0,0,3.58-2.52c.66-.88,1.39-1.73,2.12-2.58a3.89,3.89,0,0,1,.67-.51C146.72,162.1,145.92,162.57,146.05,163.17Z"/><path class="cls-2" d="M128.07,166c-.12-.67.31-.89.6-1.16,1.65-1.53,3.25-3.12,5-4.56a55,55,0,0,0,8-8.6c.39-.49.77,0,1.18-.47a1.17,1.17,0,0,1,.55-.29c.08,0,.31.14.3.18a4,4,0,0,1-.43,1.12,39.94,39.94,0,0,1-8.46,8.57c-1.71,1.37-3.34,2.84-5,4.25A3.06,3.06,0,0,1,128.07,166Z"/><path class="cls-2" d="M128.47,157c2.25-2.11,4.52-3.2,6.75-5.34,1.57-1.51,3.07-2.08,4.62-3.62a8.57,8.57,0,0,1,1.11-1c.08-.06.35.08.58.15a3.06,3.06,0,0,1-.29.6c-3.34,3.81-6.94,5.34-11.11,8.31a2.81,2.81,0,0,1-1.7.83Z"/><path class="cls-2" d="M128.83,151.41c.47-1.3,1.12-1.51,1.94-2.65,1.73-2.37,3.46-4.74,5.22-7.1a3.39,3.39,0,0,1,.74-.53c0,.39.07.61,0,.76a19.63,19.63,0,0,1-1.2,2c-1.86,2.54-3.73,4.07-5.61,6.59-.28.38-.49.85-1.07.94Z"/><path class="cls-2" d="M151.36,108.5a6,6,0,0,1-1.06,2.69c-.69,1.24-1.4,1.46-2,2.73-.43,1-.67,2-1,2.93a8.15,8.15,0,0,1-.4.83c-.23-.31-.4-.44-.44-.6a3,3,0,0,1,.24-2c.61-1.32,1.2-1.67,1.9-3s1.42-2.29,2.17-3.42C150.83,108.62,151,108.61,151.36,108.5Z"/><path class="cls-2" d="M147,110.13c-.22-.51-.4-.7-.35-.84a10,10,0,0,1,.7-1.73c.54-1,.89-1,1.09-2.12a3.66,3.66,0,0,0,0-1.58,6.22,6.22,0,0,1,.09-3.28c.24.12.53.17.57.3a15.06,15.06,0,0,0,.62,2.53c.14.27,0,.67-.07,1a10.87,10.87,0,0,1-1.88,4.26C147.54,109,147.38,109.41,147,110.13Z"/><path class="cls-2" d="M136.06,165.83c.62-1,1.85-1.43,2.64-2.28s1.67-1.68,2.46-2.57,1.47-1.8,2.35-2.88c0,.39,0,.56,0,.73a.37.37,0,0,1-.07.19,17.78,17.78,0,0,1-6.42,7A.64.64,0,0,1,136.06,165.83Z"/><path class="cls-2" d="M148.05,150.9a17.93,17.93,0,0,1,.34,7.5c0,.08-.22.11-.34.16A19.51,19.51,0,0,1,148.05,150.9Z"/><path class="cls-2" d="M96,90.87A9.77,9.77,0,0,1,90.11,90a4.18,4.18,0,0,1-1-.75A.72.72,0,0,1,89,88.3c.17-.29.77-.41.93-.15.78,1.3,2.29,1.48,3.6,1.91.77.26,1.58.39,2.37.58C95.9,90.66,95.92,90.76,96,90.87Z"/><path class="cls-2" d="M152.17,93.36c.42.38.25.7,0,1-.81,1.11-1.64,2.2-2.45,3.3-.47.64-.9,1.3-1.39,1.92a3.68,3.68,0,0,1-.67.51c-.12-.2-.28-.34-.25-.42A20.67,20.67,0,0,1,152.17,93.36Z"/><path class="cls-2" d="M149.86,123.43a5.87,5.87,0,0,1-.23,1.18c-.71,1.81-1.44,3.6-2.19,5.39-.09.22-.37.37-.8.79a6.17,6.17,0,0,1,.13-1.66,17.72,17.72,0,0,1,3.13-5.66Z"/><path class="cls-2" d="M142.37,84.08c.07.39.16.56.11.63-.9,1.08-1.82,2.14-2.75,3.2a.6.6,0,0,1-.76.19.43.43,0,0,1-.11-.69A12.1,12.1,0,0,1,142.37,84.08Z"/><path class="cls-2" d="M128.32,82.3c-.56,0-.81-.3-.68-.63a7.44,7.44,0,0,1,1-1.76c.5-.65.56-1.66,1.68-1.83.21.86-.52,1.44-.84,2.14S128.69,81.63,128.32,82.3Z"/><path class="cls-2" d="M136.13,81.49c.07.85-.89,1.43-.3,2.21-.45.35-.82.69-1.24,1a.73.73,0,0,1-.61,0,.54.54,0,0,1-.22-.5,5.5,5.5,0,0,1,2.06-2.77S136,81.45,136.13,81.49Z"/><path class="cls-2" d="M149.64,119.31c-.47,1-.92,1-1.41,2s-.44,2.13-1.27,3c-.08-.18-.19-.3-.18-.41.23-1.79.9-2.44,2-4a4,4,0,0,1,.83-.66Z"/><path class="cls-2" d="M128.83,77.12A24.15,24.15,0,0,1,125.25,81a.55.55,0,0,1-.06-.85A10.68,10.68,0,0,1,128.83,77.12Z"/><path class="cls-2" d="M138.2,86.4c-.34-.24-.67-.35-.73-.54a1.38,1.38,0,0,1,0-1A5.29,5.29,0,0,1,138.65,83c.49.07.43.37.37.6C138.8,84.45,138.54,85.27,138.2,86.4Z"/><path class="cls-2" d="M149.55,88.63l1.28-1.12c.56,0,.62.34.49.68A4.12,4.12,0,0,1,150,89.77c-.83-.28-.45-.77-.42-1.18Z"/><path class="cls-2" d="M147.7,160.62l.15-.33.06-.18c0,.08.09.18.06.22a1.67,1.67,0,0,1-.28.25Z"/><path class="cls-2" d="M150.15,91l.06-.16-.1.12S150.14,91,150.15,91Z"/><path class="cls-2" d="M149.55,91.4a.77.77,0,0,1-.4.8l0,0c.13-.26.27-.53.4-.8Z"/><path class="cls-2" d="M148.68,93l.51-.79,0,0c-.17.26-.34.52-.5.79Z"/><path class="cls-2" d="M148.65,93l-.06.32c0-.09.06-.19.09-.29Z"/><path class="cls-2" d="M128,157.44l-.27.2s0-.1.1-.12a.71.71,0,0,1,.21,0A.08.08,0,0,1,128,157.44Z"/><path class="cls-2" d="M147.69,160.58c0,.11,0,.21-.06.39,0-.17.05-.26.07-.35Z"/><path class="cls-2" d="M149.62,119.34l.06-.1,0,.07Z"/><path class="cls-2" d="M149.9,123.47l.12-.07-.16,0Z"/><path class="cls-2" d="M128.83,151.37s0,.08,0,.12,0-.05,0-.08Z"/><path class="cls-2" d="M150.11,91l-.56.43,0,0,.56-.42S150.12,91,150.11,91Z"/><path class="cls-2" d="M128.43,157c-.14.16-.29.32-.44.47a.08.08,0,0,0,0,0c.15-.16.29-.32.44-.47Z"/></g></g></svg>