<svg xmlns="http://www.w3.org/2000/svg" viewBox="0 0 187.78 143.16"><defs><style>.cls-1{fill:#ffece6;}.cls-1,.cls-2{fill-rule:evenodd;}</style></defs><title>twoflowers_1</title><g id="Layer_2" data-name="Layer 2"><g id="BACKGROUND_1" data-name="BACKGROUND 1"><path class="cls-1" d="M68.26,108.73c2,4.17,5,7.65,7.65,11.24a3,3,0,0,0,.63.66c.13.09.35.06.61.09,0-.25,0-.45-.08-.57-2.8-4-5.66-7.93-8.62-11.92-.17-.23-.55-.29-.83-.43a26,26,0,0,0,2.75-5.7,18.14,18.14,0,0,0,.51-2.93c.07-.59,0-1.19.07-1.77a11.63,11.63,0,0,0-1.76-7.79c-.32-.55-.67-1.1-1-1.66a7,7,0,0,1-.32-.77c.49-.14.91-.22,1.3-.37a28.74,28.74,0,0,0,3.4-1.37,29.27,29.27,0,0,0,9.4-8,11.25,11.25,0,0,0,2.27-6c0-.29-.13-.47-.59-.37-.19.53-.42,1.09-.61,1.65a13.82,13.82,0,0,1-2.86,4.76,33.34,33.34,0,0,1-6.08,5.4,18.34,18.34,0,0,1-5,2.52,7.53,7.53,0,0,1-1.46.34,1.4,1.4,0,0,1-1-.24,4.42,4.42,0,0,1-1.52-2,9.16,9.16,0,0,1,2.67-1.87c1.4-.75,2.84-1.43,4.28-2.12a5.1,5.1,0,0,0,3.16-3.67,4,4,0,0,1,.6-1.48,16.11,16.11,0,0,0,2.46-5.14c.26-1,.6-1.92.81-2.89A9.56,9.56,0,0,1,80.7,63.3a2.61,2.61,0,0,1,1.59-1,6.92,6.92,0,0,1,5.28.43,31.39,31.39,0,0,1,5,2.79c3,2.19,6.17,4.23,8.63,6.86.22.23.47.44.71.65a24.06,24.06,0,0,1,6.53,9c.23.57.53,1.11.79,1.66a23.46,23.46,0,0,1,2.41,9.75c0,1,0,2,0,3a27,27,0,0,1-2.07,10.22,23.23,23.23,0,0,1-6.41,8.92A34.36,34.36,0,0,1,92,121.85a10.64,10.64,0,0,1-4.17.7,3.32,3.32,0,0,0-2,.37,3,3,0,0,1-2.31.15,31,31,0,0,0-5.91-1,3.33,3.33,0,0,1-2-.6,33.48,33.48,0,0,1-4.87-4.28A13.66,13.66,0,0,1,67.9,112a8.54,8.54,0,0,0-.77-1.72,12.63,12.63,0,0,0-.67-1.09,2.79,2.79,0,0,1,1.21-1.39C67.86,108.09,68.09,108.4,68.26,108.73ZM78.73,92a9.33,9.33,0,0,0,4.88-1.35,66.92,66.92,0,0,0,8.54-5.57c1.64-1.29,3.1-2.77,4.66-4.16,0,0,0-.1-.07-.21a2.27,2.27,0,0,0-.55.23c-.75.56-1.51,1.13-2.21,1.74a72,72,0,0,1-11.32,7.64,29.57,29.57,0,0,1-3.17,1.35c-.26.1-.5.24-.75.36a2.81,2.81,0,0,0-2.25.45l-.1,0,.08-.06A3.15,3.15,0,0,0,78.73,92Zm14.15,20.74a15,15,0,0,1-13.4.45,18.31,18.31,0,0,1-2.81-1.56c-2-1.3-4-2.65-6-4a1.51,1.51,0,0,0-.51-.25.43.43,0,0,0-.36.12.47.47,0,0,0,0,.37.69.69,0,0,0,.21.3,43.74,43.74,0,0,0,7.56,5.64,15.75,15.75,0,0,0,9.4,1.92,15.53,15.53,0,0,0,7.36-2.85c.27-.19.48-.44,1-.89A4.49,4.49,0,0,0,92.88,112.73ZM74.75,105c.66.11,1.34.18,2,.32a32.34,32.34,0,0,0,12-.18,17.7,17.7,0,0,0,4-1.18,2.1,2.1,0,0,0,1.28-1c-.27-.26-.54,0-.78,0A19.26,19.26,0,0,1,88,104.31l-.2,0A30.41,30.41,0,0,1,77,104.27c-.72-.14-1.47-.2-2.2-.29a8.78,8.78,0,0,0-2.73.16A10.33,10.33,0,0,0,74.75,105Z"/><path class="cls-1" d="M9.72,87.2l-.37-.47c-.09-.09-.22-.29-.26-.27-.3.13-.16.3,0,.46l.34.48.37.48c.18.29.33.61.53.89a29.88,29.88,0,0,0,7.41,7,21.12,21.12,0,0,0,12.54,4.15,12.1,12.1,0,0,1,1.25.13c.54,1.32,1,2.48,1.5,3.7a4.67,4.67,0,0,1-1,.31,35,35,0,0,1-11.22-.94,7,7,0,0,1-3.45-1.73,68.75,68.75,0,0,0-6.61-5.62,27.42,27.42,0,0,1-5.61-5.62,13.48,13.48,0,0,1-2.66-7.83,41.24,41.24,0,0,1,.06-4.16,30.9,30.9,0,0,1,1.68-8.73,6.08,6.08,0,0,0,.33-1.2c.45-2.57,1.86-4.73,3.15-6.93.45-.77.92-1.54,1.36-2.32a11,11,0,0,1,5.24-5.28,27.55,27.55,0,0,1,7.31-2.29c2.94-.37,5.86-.89,8.79-1.35a8.84,8.84,0,0,1,3.12,0c2.72.53,5.43,1.05,8.15,1.51a10.51,10.51,0,0,1,3,1.21,2.24,2.24,0,0,1,1.13,1.43,7.28,7.28,0,0,1,.39,3.37c-.11.59-.05,1.21-.13,1.8a22.64,22.64,0,0,1-.66,3.78,87.69,87.69,0,0,0-2.23,8.68,16.44,16.44,0,0,0-.31,2.8,1.91,1.91,0,0,0,.46,1.51c1.33,1.35,1.81,3.13,2.68,4.71a8.29,8.29,0,0,1,.47,1.36l-1.44.37c-.24-.17-.41-.27-.57-.4s-.52-.45-.75-.69a22,22,0,0,1-5.82-11.82,9.47,9.47,0,0,1,0-3.23c.27-1.61.5-3.21.73-4.82,0-.11-.09-.23-.15-.35-.12,0-.32.07-.36.15a14.32,14.32,0,0,0-1.77,6.87A20.4,20.4,0,0,0,43,82.7c.24.23.58.39.4,1-.51.28-1.14.6-1.75.94-1.43.8-2.86,1.59-4.27,2.4a8.92,8.92,0,0,0-3.66,4.44,24.16,24.16,0,0,0-1.6,5.3c-.1.6-.22,1.19-.33,1.76a3.37,3.37,0,0,1-.72.19,10,10,0,0,1-1.45,0A20.93,20.93,0,0,1,18.8,94.82c-.62-.45-1.23-.89-1.86-1.33a81.69,81.69,0,0,1-6.86-5.81Zm18.13-1.79a.64.64,0,0,0-.1-.13.71.71,0,0,0-.2,0,2.73,2.73,0,0,0-.3-.72c-.39-.47-.83-.91-1.27-1.35a24.33,24.33,0,0,1-4.49-5.94c-.6-1.16-1.35-2.26-2-3.41-.76-1.32-1.49-2.67-2.24-4-.16-.28-.25-.62-.56-.78a.58.58,0,0,0-.19.8,26.08,26.08,0,0,0,1.23,2.87q2,3.47,4,6.84A20.1,20.1,0,0,0,26,84.35a2.77,2.77,0,0,0,1.63.86Zm-3-16.6c-.48-.06-.63.26-.56.6a9.27,9.27,0,0,0,.59,2.17,18.74,18.74,0,0,0,10.82,9.85,6.69,6.69,0,0,0,3,.41C31.92,79.33,27.05,75.37,24.82,68.81ZM40,82.49a1,1,0,0,0,.18,0s0-.12,0-.12a1.25,1.25,0,0,0-.19,0S40,82.49,40,82.49Z"/><path class="cls-1" d="M85.4,57.66a9.41,9.41,0,0,0-1.35-4.2A14.44,14.44,0,0,0,81.5,49.7c-.77-.67-1.56-1.32-2.36-2a3.64,3.64,0,0,0-2-.82A5.75,5.75,0,0,1,74,45.57a5.86,5.86,0,0,0-.89-.57,10.26,10.26,0,0,1-3.06-2.24,10.36,10.36,0,0,0-1.44-1.07c-.31.27-.56.51-.83.71a7.77,7.77,0,0,1-1.09.7c-.53.26-1.11.44-1.63.71a5.3,5.3,0,0,1-1.92.59,8.55,8.55,0,0,0-4.84,2.09,6.19,6.19,0,0,1-1.41,1,12,12,0,0,0-4.15,3.67c-1.12,1.44-2.19,2.9-3.28,4.36a2.78,2.78,0,0,0-.56,1.89,13.86,13.86,0,0,1-1.32,6.29,17.35,17.35,0,0,0-1.16,3.48c-.37,1.72-.76,3.44-1.15,5.15a7.65,7.65,0,0,0,2.05,7.19c.51-.12.35-.4.32-.63-.21-1.52-.44-3-.64-4.56a18.58,18.58,0,0,1,.15-5.21,30.65,30.65,0,0,1,2.29-8A9.47,9.47,0,0,1,50,60a55.42,55.42,0,0,1,5.09-6.92,6.18,6.18,0,0,1,.89-.68,3.05,3.05,0,0,1-.15.91c-.74,1.17-1.46,2.36-2.28,3.49a27,27,0,0,0-5.09,14.87,16.17,16.17,0,0,0,.06,2.2c0,.16.18.31.39.63C50.19,68.6,51.89,63,55,57.8c.39,0,.55.24.46.52a12.09,12.09,0,0,1-.73,1.89,52,52,0,0,0-4.09,11.73,24.88,24.88,0,0,0-.44,9.17,13.6,13.6,0,0,0,.5,1.79c1.38.43,2.62.85,3.89,1.19A2,2,0,0,0,55.85,84c.93-.36,1.83-.82,2.94-1.34.71.12,1.62.23,2.51.41a1.85,1.85,0,0,0,1.75-.54,19.3,19.3,0,0,0,3.23-3.35c2.31-3.48,4.65-6.93,7-10.39a5.87,5.87,0,0,0,.7-1.68c.77-2.84,1.52-5.68,2.3-8.51a6,6,0,0,1,.28-.7,4.13,4.13,0,0,1,.16,3c-.53,2.2-1,4.41-1.64,6.6a8.68,8.68,0,0,1-1.14,2.38c-1.85,2.85-3.74,5.69-5.58,8.55a4.73,4.73,0,0,0-.26.67,5.6,5.6,0,0,0,2.06-.74,11.1,11.1,0,0,0,3.14-2.58,5.26,5.26,0,0,0,.86-1.62,8.06,8.06,0,0,1,1.4-2.71,5.35,5.35,0,0,0,.9-1.82c.4-1.14.75-2.3,1.07-3.46a8.92,8.92,0,0,1,1.59-3.07,4.51,4.51,0,0,1,3.46-2A15.62,15.62,0,0,0,85,60.6,6,6,0,0,0,85.4,57.66ZM67,61.14c-.67,1.34-1.39,2.67-2.07,4a51.55,51.55,0,0,0-4.85,12.9c-.18.91-.44,1.82-.69,2.73a5.79,5.79,0,0,1-.45,1.13c-.07.13-.33.18-.52.27a2.26,2.26,0,0,1,0-1.77q.81-3.33,1.67-6.64a16.72,16.72,0,0,1,.63-1.93c1.7-4.3,4-8.38,6.11-12.51.11-.21.37-.35.69-.64A3.72,3.72,0,0,1,67,61.14Z"/><path class="cls-1" d="M34.09,118.21c-.75.64-1.32,1.14-1.9,1.61A10,10,0,0,1,30.53,121a26.88,26.88,0,0,1-9,3,3.61,3.61,0,0,1-2-.16c-.13-.06-.2-.28-.36-.53.69-.1,1.28-.16,1.86-.27s1.17-.31,1.76-.43a35.38,35.38,0,0,0,6-2,18.59,18.59,0,0,0,4.85-3.45,10.87,10.87,0,0,0-1.11-2.9c-1.12.21-2.05.84-3.08,1.12a32.3,32.3,0,0,1-3.16.77,20.54,20.54,0,0,1-3,.27,18.16,18.16,0,0,1-3.22-.12,26.85,26.85,0,0,1-3.21-.88,49.39,49.39,0,0,0,7.79,0,23,23,0,0,0,7.72-2.1c-.25-2.49-.73-4.91-.32-7.49a7.34,7.34,0,0,0-2.5-.1,29.54,29.54,0,0,1-8.75-.82,11,11,0,0,1-5.11-2.51,3.57,3.57,0,0,0-2.84-.91c-1,.1-1.93.11-2.87.3a4.39,4.39,0,0,0-3.39,3c-1.44,4.37-2.27,8.84-1.28,13.47.19.88.35,1.76.47,2.65a7.46,7.46,0,0,0,1.45,3.36,18,18,0,0,0,4.28,4.21,4.86,4.86,0,0,0,2.18.86c2.67.36,5.33.78,8,1.07a26.2,26.2,0,0,0,3.54-.06,1.27,1.27,0,0,0,.57-.15,12.5,12.5,0,0,0,3.8-2.7c.61-.75,1.17-1.54,1.75-2.3a1.1,1.1,0,0,0,.25-.34,5.23,5.23,0,0,1,2.57-3.06,1.6,1.6,0,0,0,.57-2.3C34.53,119.18,34.38,118.81,34.09,118.21Z"/><path class="cls-1" d="M59.31,118.72c-.19,0-.39-.17-.56-.12-1.17.34-2.33.72-3.6,1.12,0,.4.06.78.11,1.15a35.8,35.8,0,0,1,.69,7.41,4.44,4.44,0,0,0,.17,1.15,19.61,19.61,0,0,0,2.26,6c.51.86.93,1.77,1.41,2.64a18.08,18.08,0,0,0,1,1.76,3.89,3.89,0,0,0,2.75,1.65,28.29,28.29,0,0,0,6.3-.09c.38,0,.77-.08,1.15-.13a11.69,11.69,0,0,0,6.41-2.77c.83-.74,1.76-1.39,2.56-2.16a9.71,9.71,0,0,0,2.94-4.67,2.22,2.22,0,0,0-.08-1.67A21.74,21.74,0,0,0,81.75,128c-1-1.38-2-2.7-3.09-4.09-.5,0-1,.12-1.41.16a4.55,4.55,0,0,1-3.2-.86,23.13,23.13,0,0,1-4.85-4.78,15.4,15.4,0,0,1-3.12-5.75,4.24,4.24,0,0,0-1.16-2c-.83.06-1.31.79-2.12,1a5.72,5.72,0,0,1-1,5.12,13.3,13.3,0,0,0,1.31,3.84c1.41,3.19,3.79,5.55,6,8.05l.47.56c-.28.4-.45.11-.59,0-1.08-.9-2.17-1.81-3.23-2.75a9.71,9.71,0,0,1-2.42-3.3,15.58,15.58,0,0,0-.87-1.67,10.39,10.39,0,0,1-1.49-3.69,3,3,0,0,0-.28-.58,1.56,1.56,0,0,0-1.38,1.5,5.08,5.08,0,0,1,.62,1.14,33.13,33.13,0,0,0,2.55,6.54,61,61,0,0,0,4.21,7.66s-.06.2-.12.38A3.71,3.71,0,0,1,66,134a29.09,29.09,0,0,1-6.75-14.5A3,3,0,0,1,59.31,118.72Z"/><path class="cls-1" d="M50.14,116.24c-.39,0-.57-.23-.74-.52a5.62,5.62,0,0,0-1.35-1.9,4.35,4.35,0,0,1-.66.69.51.51,0,0,1-.5-.07,5.87,5.87,0,0,1-.24-1.12,6.06,6.06,0,0,0-.71-2.54,10.86,10.86,0,0,1-.79.77c-.57.46-1.25.26-1.35-.43a5.93,5.93,0,0,1,.07-1.18c0-.33.07-.66.07-1,0-.11-.13-.22-.24-.39a9.2,9.2,0,0,0-2.39,1.56,2.3,2.3,0,0,1-2.63.31c-.13-.43.14-.66.46-.79,1.55-.65,2.75-1.84,4.32-2.68a2.68,2.68,0,0,0-1.72-1.31,4.42,4.42,0,0,0-3,0c-1.08.42-2.18.78-3.39,1.21v-1.1l0,0a2.75,2.75,0,0,0-1.46,3.08,17.52,17.52,0,0,0,.56,3.74,12.82,12.82,0,0,0,2.65,4.55,24.22,24.22,0,0,1,2.26,3.16,4.07,4.07,0,0,0,1.45,1.52,3.63,3.63,0,0,1,1.43,1.55c.56,1,1.39,1.82,2,2.84a5,5,0,0,0,3.38-1.91A21.6,21.6,0,0,0,49.32,122a8,8,0,0,1,5.13-3.92,13.27,13.27,0,0,0,2.48-1c1.06-.52,2.11-1.06,3.12-1.67a1.67,1.67,0,0,0,.88-2.07,2.93,2.93,0,0,0-1.2-1.89,8.87,8.87,0,0,0-3.28-1.63c-.64-.13-1.07-.38-1-1.16,0-.23-.41-.45-.68-.72-.33.07-.66.12-1,.2a3.63,3.63,0,0,1-2.58-.15c-.09-.05-.29.1-.73.27a4.63,4.63,0,0,0,.94.32c1.74.07,2.89,1.17,4.19,2a2.21,2.21,0,0,1,.5.59c.93,1.31.78,2-.74,3.17.25.28.52.55.75.84a.41.41,0,0,1-.31.58,3,3,0,0,1-1.13-.25,8.73,8.73,0,0,1-1.15-.94c.65-1.52.65-1.52,1.61-2,.06-.67-.41-1-.83-1.41a4.08,4.08,0,0,0-2.7-1.4c-.44.43-.1.88-.13,1.31s0,.93,0,1.39a13.8,13.8,0,0,1-.42,1.42,4.63,4.63,0,0,1-.54-2.24,13.62,13.62,0,0,0-.22-1.56c-.14-.65-.38-.75-1.18-.68-.53.06-1.06.07-1.71.11a2.42,2.42,0,0,0,.13.69c.79,1.42,1.62,2.81,2.37,4.23.29.55.67,1.14.25,1.86l.06,0A.19.19,0,0,0,50.14,116.24Z"/><path class="cls-1" d="M57.43,85.24c1.88-1.24,3.8-1.67,5.77-.54a2.2,2.2,0,0,1,2,1.49,2.26,2.26,0,0,0,.27.51A20.34,20.34,0,0,1,68,90.79a9.65,9.65,0,0,1,1.4,6.33c-.06.45,0,.91-.06,1.37,0,.72-.08,1.44-.18,2.16a12.62,12.62,0,0,1-2.68,5.71,8.42,8.42,0,0,1-4.49,3,2.79,2.79,0,0,1-1.21.11,4.12,4.12,0,0,1-1.05-.44c.32-.47.61-.88.3-1.3a3.76,3.76,0,0,0-.75-.84,3.12,3.12,0,0,1-1.19-3.63c.17-.66.3-1.32.47-2a22.41,22.41,0,0,0,.5-7.72c0-.31,0-.62,0-.93A19.88,19.88,0,0,0,61,92a6.25,6.25,0,0,0,1.24-.8c.27-.19.17-.55-.23-1a22.3,22.3,0,0,1-3.28,1.52c-1.06-1.78-1.21-4-3.16-5.36C56.33,85.9,56.89,85.59,57.43,85.24Zm3.69,10.53h.12c0,.68.51.9,1,.94a4.59,4.59,0,0,0,3.34-.82,1.42,1.42,0,0,0,.29-.51s0-.11-.11-.27c-.75.18-1.53.43-2.32.55s-1.5.1-2.25.15Zm.13,7.76a5.76,5.76,0,0,0,4.57-1.48.48.48,0,0,0,.05-.49.56.56,0,0,0-.52,0,6.8,6.8,0,0,1-3.15,1c-.72.06-1.45,0-2.31,0A1.57,1.57,0,0,0,61.25,103.53Z"/><path class="cls-1" d="M53.31,86.36a1.16,1.16,0,0,0,1.06,1.43,2,2,0,0,1,1.55,1.4,16,16,0,0,1,1.73,8.17,30.36,30.36,0,0,1-1.58,6.85c-2.74,1.05-2.89,1.09-4.42,1a3.12,3.12,0,0,1,0-.75c.24-.85.52-1.69.8-2.52a6.32,6.32,0,0,0,.6-3.08c-.38-.13-.61,0-.72.28-.46,1.07-.93,2.14-1.34,3.22s-.8,2.31-1.2,3.49c-.22.21-.7-.07-.88.56.3.44,1.07.94.23,1.78-.23,0-.5,0-.76,0a2.12,2.12,0,0,1-2.17-1.89,14.43,14.43,0,0,1-.23-5.75c.56-2.78,1.1-5.57,1.65-8.35,0-.23.06-.47.12-1-.43.33-.71.45-.82.65a5.83,5.83,0,0,0-.52,1.33c-.65,2.56-1.27,5.14-1.9,7.71a6.29,6.29,0,0,1-.34.81,9.7,9.7,0,0,1-2.08-1.18c.6-2.55,1.14-5,1.8-7.42a17.84,17.84,0,0,1,1.14-2.85,4.77,4.77,0,0,1,2.2-2.19c1.07-.56,2.09-1.24,3.21-1.69.81-.34,1.61-1,2.77-.7A3.65,3.65,0,0,1,53.31,86.36Zm-3,7c-.89,3.27-1.69,6.56-2.47,9.86a8.72,8.72,0,0,0-.12,2c0,.14.23.34.38.36a.6.6,0,0,0,.48-.27,8.46,8.46,0,0,0,.69-1.69q.84-3.66,1.6-7.33a32.63,32.63,0,0,1,1.34-5.09,3.66,3.66,0,0,0,.2-2.52A20.73,20.73,0,0,0,50.27,93.36Z"/><path class="cls-1" d="M41.61,92c-.06-.38-.13-.76-.19-1.17-.52,0-.47.41-.5.66a1.88,1.88,0,0,0,.93,1.81,8,8,0,0,1,.06,1.38c-.11.8-.34,1.59-.5,2.39a17.54,17.54,0,0,1-1.92,5,3.21,3.21,0,0,1-3.6,1.84,1.45,1.45,0,0,1-1.16-.72c-.87-1.74-1.62-3.53-1.19-5.59a26.93,26.93,0,0,1,1.94-6.06,6.71,6.71,0,0,1,3.07-3.33A10.25,10.25,0,0,0,40,87.25c1.71-1.2,3.85-1.48,5.62-2.55,1.2-.14,2.39-.3,3.59-.41a.62.62,0,0,1,.77.56,4.72,4.72,0,0,1-2.12,1.29A6.08,6.08,0,0,0,45,88.24a7.47,7.47,0,0,1-.55.57c-.65-.35-.2-1.17-.83-1.51-.57.92.18,1.73.06,2.38-.48,1-.86,1.93-1.28,2.79a4.71,4.71,0,0,1-.61.82C41.74,92.84,41.67,92.4,41.61,92ZM37.88,95.5c.27,1.49.34,3,1.22,4.33a1.33,1.33,0,0,0,.44.31c.08-.16.19-.29.17-.38-.44-1.56-.91-3.12-1.41-4.84C38.07,95.22,37.86,95.39,37.88,95.5Z"/><path class="cls-1" d="M44.25,104.66a1.45,1.45,0,0,0-.54-1.9A7.71,7.71,0,0,0,42.1,102a.7.7,0,0,0-.92.56,3.07,3.07,0,0,0-.11.79,1,1,0,0,0,.74,1A6.5,6.5,0,0,0,44.25,104.66Z"/><path class="cls-1" d="M45,107.72c0,.37,0,.75,0,1.12,0,.09.17.16.26.24.11-.15.3-.3.3-.44a.92.92,0,0,0-.58-.89Z"/><path class="cls-1" d="M52.66,106.74a.92.92,0,0,0,1.08,0,.23.23,0,0,0,.06-.18c0-.06-.07-.15-.11-.15C53.33,106.43,52.91,106.31,52.66,106.74Z"/><path class="cls-1" d="M45,107.75a3.23,3.23,0,0,0,0-.54c0-.06-.17-.09-.26-.13s-.08.22,0,.29a2.23,2.23,0,0,0,.34.35Z"/><path class="cls-1" d="M55.37,106,55,106a2,2,0,0,0,.05.24l.25-.24Z"/><path class="cls-1" d="M55.34,106l.18-.14s-.1,0-.11,0a.33.33,0,0,0,0,.14Z"/><path class="cls-1" d="M35.35,105.81l.12,0h-.08Z"/><path class="cls-2" d="M10,96.87a40,40,0,0,1-4-3.36,16.34,16.34,0,0,1-4.06-6.09c-.22-.59-.53-1.15-.8-1.73a9.13,9.13,0,0,1-1-5.27C.41,78.29.68,76.16,1,74a2.73,2.73,0,0,1,.25-1,11.89,11.89,0,0,0,1.08-3.77,7.43,7.43,0,0,1,.42-1.39c.61-1.39,1.26-2.76,1.88-4.15a26.25,26.25,0,0,0,1.2-2.86,19.56,19.56,0,0,1,4.39-7.24,7.7,7.7,0,0,1,2.44-2,23.62,23.62,0,0,1,7.14-2.07c.81-.08,1.64-.06,2.44-.16,1.63-.2,3.24-.46,4.86-.69s3.11-.37,4.64-.67a17.26,17.26,0,0,1,8.39.89c1.06.31,2.09.71,3.19.93a3.15,3.15,0,0,1,1.45.47c1,1,2.53,1.75,2.46,3.4,0,.24.21.47.39.86a10.62,10.62,0,0,0,.92-1,57.31,57.31,0,0,1,6.62-7.44A15.13,15.13,0,0,1,57,44.64a9.82,9.82,0,0,1,5.42-1.94A11.14,11.14,0,0,0,65,42.11a5.77,5.77,0,0,0,2.14-1.46,1.48,1.48,0,0,1,2-.24C71.1,41.58,73,42.7,74.81,44a8.73,8.73,0,0,0,3.74,1.6,3.84,3.84,0,0,1,2.83,1.67,13.63,13.63,0,0,0,1.11,1.18,20.27,20.27,0,0,1,1.56,2.06c.67,1.05,1.23,2.15,1.88,3.21.37.61.84,1.17,1.26,1.75a2.87,2.87,0,0,1,.51,2.75,2,2,0,0,0-.08,1.14,10.81,10.81,0,0,0,.66,1.8,1.42,1.42,0,0,0,.53.56c1.15.73,2.32,1.43,3.48,2.13.63.39,1.29.75,1.9,1.16q2,1.35,3.92,2.75c.7.51,1.38,1,2,1.58,1.45,1.3,2.92,2.57,4.27,3.92a24.33,24.33,0,0,1,5.29,7.42c.34.78.72,1.55,1.09,2.32a24.09,24.09,0,0,1,2.59,10.62c0,1,0,2,0,3a28.92,28.92,0,0,1-1.94,9.83,26.64,26.64,0,0,1-11.82,13.53c-1,.57-2,1.09-3,1.61A22.48,22.48,0,0,1,84,124.24a9.66,9.66,0,0,0-2.52,0c-.21.67.19,1,.44,1.41l2.18,3.55a3.47,3.47,0,0,1,.15,3,12.93,12.93,0,0,1-3.79,5.63c-.77.71-1.64,1.31-2.42,2a11.6,11.6,0,0,1-6,2.82,31.29,31.29,0,0,1-8.78.4,4.92,4.92,0,0,1-3.9-2.43c-1.27-2.2-2.4-4.51-3.59-6.8a6.92,6.92,0,0,1-.6-1.61,23.25,23.25,0,0,1-.75-3.6c-.21-2.48-.27-5-.41-7.48,0-.17-.16-.32-.29-.59-.42.34-.8.62-1.14.94a8.5,8.5,0,0,1-1.18,1.15A7.49,7.49,0,0,0,49,124.85a10,10,0,0,1-3.44,2.92c-1.3.77-2,.68-2.86-.46-.73-1-1.4-2-2.13-3a4,4,0,0,0-1-.92,4.94,4.94,0,0,1-1.82-2,6,6,0,0,0-.54-.72c-.24.39-.44.65-.58.93a9,9,0,0,1-1.87,2.46,29.85,29.85,0,0,0-3.8,4.37c-1.2,1.69-3,2.5-4.71,3.48a1.74,1.74,0,0,1-.77.21,32.76,32.76,0,0,1-4.31.12c-2.6-.22-5.18-.63-7.78-1A7.18,7.18,0,0,1,10.2,130a19.81,19.81,0,0,1-4.85-5.06A8,8,0,0,1,4,121.72c-.28-1.64-.59-3.28-.84-4.92A10.27,10.27,0,0,1,3,114.52a35.63,35.63,0,0,1,1.83-10.19,6.33,6.33,0,0,1,4.68-4.27c.87-.21,1.77-.3,3-.48A12.45,12.45,0,0,0,10,96.87ZM55,106a2,2,0,0,0,.05.24l.25-.24.18-.14s-.1,0-.11,0a.33.33,0,0,0,0,.14Zm-10,1.26c0-.06-.17-.09-.26-.13s-.08.22,0,.29a2.23,2.23,0,0,0,.34.35c0,.37,0,.75,0,1.12,0,.09.17.16.26.24.11-.15.3-.3.3-.44a.92.92,0,0,0-.58-.89A3.23,3.23,0,0,0,45,107.21ZM42.41,92.47c.42-.86.8-1.74,1.28-2.79.12-.65-.63-1.46-.06-2.38.63.34.18,1.16.83,1.51a7.47,7.47,0,0,0,.55-.57,6.08,6.08,0,0,1,2.85-2.1A4.72,4.72,0,0,0,50,84.85a.62.62,0,0,0-.77-.56c-1.2.11-2.39.27-3.59.41-1.77,1.07-3.91,1.35-5.62,2.55a10.25,10.25,0,0,1-1.45.89,6.75,6.75,0,0,0-3.07,3.33,26.93,26.93,0,0,0-1.94,6.06c-.43,2.06.32,3.85,1.19,5.59a1.45,1.45,0,0,0,1.16.72,3.21,3.21,0,0,0,3.6-1.84,17.54,17.54,0,0,0,1.92-5c.16-.8.39-1.59.5-2.39a8,8,0,0,0-.06-1.38l-.05,0A4.71,4.71,0,0,0,42.41,92.47Zm-8.48,16.45a17.52,17.52,0,0,0,.56,3.74,12.82,12.82,0,0,0,2.65,4.55,24.22,24.22,0,0,1,2.26,3.16,4.07,4.07,0,0,0,1.45,1.52,3.63,3.63,0,0,1,1.43,1.55c.56,1,1.39,1.82,2,2.84a5,5,0,0,0,3.38-1.91A21.6,21.6,0,0,0,49.32,122a8,8,0,0,1,5.13-3.92,13.27,13.27,0,0,0,2.48-1c1.06-.52,2.11-1.06,3.12-1.67a1.67,1.67,0,0,0,.88-2.07,2.93,2.93,0,0,0-1.2-1.89,8.87,8.87,0,0,0-3.28-1.63c-.64-.13-1.07-.38-1-1.16,0-.23-.41-.45-.68-.72-.33.07-.66.12-1,.2a3.63,3.63,0,0,1-2.58-.15c-.09-.05-.29.1-.73.27a4.63,4.63,0,0,0,.94.32c1.74.07,2.89,1.17,4.19,2a2.21,2.21,0,0,1,.5.59c.93,1.31.78,2-.74,3.17.25.28.52.55.75.84a.41.41,0,0,1-.31.58,3,3,0,0,1-1.13-.25,8.73,8.73,0,0,1-1.15-.94c.65-1.52.65-1.52,1.61-2,.06-.67-.41-1-.83-1.41a4.08,4.08,0,0,0-2.7-1.4c-.44.43-.1.88-.13,1.31s0,.93,0,1.39a13.8,13.8,0,0,1-.42,1.42,4.63,4.63,0,0,1-.54-2.24,13.62,13.62,0,0,0-.22-1.56c-.14-.65-.38-.75-1.18-.68-.53.06-1.06.07-1.71.11a2.42,2.42,0,0,0,.13.69c.79,1.42,1.62,2.81,2.37,4.23.29.55.67,1.14.25,1.86l0,0c-.39,0-.57-.23-.74-.52a5.62,5.62,0,0,0-1.35-1.9,4.35,4.35,0,0,1-.66.69.51.51,0,0,1-.5-.07,5.87,5.87,0,0,1-.24-1.12,6.06,6.06,0,0,0-.71-2.54,10.86,10.86,0,0,1-.79.77c-.57.46-1.25.26-1.35-.43a5.93,5.93,0,0,1,.07-1.18c0-.33.07-.66.07-1,0-.11-.13-.22-.24-.39a9.2,9.2,0,0,0-2.39,1.56,2.3,2.3,0,0,1-2.63.31c-.13-.43.14-.66.46-.79,1.55-.65,2.75-1.84,4.32-2.68a2.68,2.68,0,0,0-1.72-1.31,4.42,4.42,0,0,0-3,0c-1.08.42-2.18.78-3.39,1.21v-1.1l.12,0h-.08A2.75,2.75,0,0,0,33.93,108.92Zm24.82,9.68c-1.17.34-2.33.72-3.6,1.12,0,.4.06.78.11,1.15a35.8,35.8,0,0,1,.69,7.41,4.44,4.44,0,0,0,.17,1.15,19.61,19.61,0,0,0,2.26,6c.51.86.93,1.77,1.41,2.64a18.08,18.08,0,0,0,1,1.76,3.89,3.89,0,0,0,2.75,1.65,28.29,28.29,0,0,0,6.3-.09c.38,0,.77-.08,1.15-.13a11.69,11.69,0,0,0,6.41-2.77c.83-.74,1.76-1.39,2.56-2.16a9.71,9.71,0,0,0,2.94-4.67,2.22,2.22,0,0,0-.08-1.67A21.74,21.74,0,0,0,81.75,128c-1-1.38-2-2.7-3.09-4.09-.5,0-1,.12-1.41.16a4.55,4.55,0,0,1-3.2-.86,23.13,23.13,0,0,1-4.85-4.78,15.4,15.4,0,0,1-3.12-5.75,4.24,4.24,0,0,0-1.16-2c-.83.06-1.31.79-2.12,1a5.72,5.72,0,0,1-1,5.12,13.3,13.3,0,0,0,1.31,3.84c1.41,3.19,3.79,5.55,6,8.05l.47.56c-.28.4-.45.11-.59,0-1.08-.9-2.17-1.81-3.23-2.75a9.71,9.71,0,0,1-2.42-3.3,15.58,15.58,0,0,0-.87-1.67,10.39,10.39,0,0,1-1.49-3.69,3,3,0,0,0-.28-.58,1.56,1.56,0,0,0-1.38,1.5l0,0C59.12,118.68,58.92,118.55,58.75,118.6ZM16.94,93.49c.63.44,1.24.88,1.86,1.33a20.93,20.93,0,0,0,10.77,3.84,10,10,0,0,0,1.45,0,3.37,3.37,0,0,0,.72-.19c.11-.57.23-1.16.33-1.76a24.16,24.16,0,0,1,1.6-5.3A8.92,8.92,0,0,1,37.33,87c1.41-.81,2.84-1.6,4.27-2.4.61-.34,1.24-.66,1.75-.94.18-.57-.16-.73-.4-1a20.4,20.4,0,0,1-6.52-14.41,14.32,14.32,0,0,1,1.77-6.87c0-.08.24-.1.36-.15.06.12.17.24.15.35-.23,1.6-.46,3.22-.73,4.82a9.47,9.47,0,0,0,0,3.23,22,22,0,0,0,5.82,11.82,9.89,9.89,0,0,0,.75.69c.16.13.33.23.57.4l1.44-.37a8.29,8.29,0,0,0-.47-1.36c-.87-1.58-1.35-3.36-2.68-4.71a1.91,1.91,0,0,1-.46-1.51,16.55,16.55,0,0,1,.31-2.8,87.69,87.69,0,0,1,2.23-8.68,22.64,22.64,0,0,0,.66-3.78c.08-.59,0-1.21.13-1.8a7.28,7.28,0,0,0-.39-3.37,2.24,2.24,0,0,0-1.13-1.43,10.51,10.51,0,0,0-3-1.21c-2.72-.46-5.43-1-8.15-1.51a8.84,8.84,0,0,0-3.12,0c-2.93.46-5.85,1-8.79,1.35a27.55,27.55,0,0,0-7.31,2.29,11,11,0,0,0-5.24,5.28c-.44.78-.91,1.55-1.36,2.32-1.29,2.2-2.7,4.36-3.15,6.93a6.08,6.08,0,0,1-.33,1.2,30.9,30.9,0,0,0-1.68,8.73c-.13,1.38-.06,2.78-.06,4.16a13.48,13.48,0,0,0,2.66,7.83,27.42,27.42,0,0,0,5.61,5.62,68.75,68.75,0,0,1,6.61,5.62,7,7,0,0,0,3.45,1.73A35,35,0,0,0,32,104a4.67,4.67,0,0,0,1-.31c-.49-1.22-1-2.38-1.5-3.7a12.1,12.1,0,0,0-1.25-.13,21.12,21.12,0,0,1-12.54-4.15,29.88,29.88,0,0,1-7.41-7c-.2-.28-.35-.6-.53-.89l.28-.2A81.69,81.69,0,0,0,16.94,93.49Zm49.52,15.67a12.63,12.63,0,0,1,.67,1.09A8.54,8.54,0,0,1,67.9,112a13.66,13.66,0,0,0,2.84,5.26,33.48,33.48,0,0,0,4.87,4.28,3.33,3.33,0,0,0,2,.6,31,31,0,0,1,5.91,1,3,3,0,0,0,2.31-.15,3.32,3.32,0,0,1,2-.37,10.64,10.64,0,0,0,4.17-.7,34.36,34.36,0,0,0,11.24-6.28,23.23,23.23,0,0,0,6.41-8.92,27,27,0,0,0,2.07-10.22c0-1,0-2,0-3a23.46,23.46,0,0,0-2.41-9.75c-.26-.55-.56-1.09-.79-1.66a24.06,24.06,0,0,0-6.53-9c-.24-.21-.49-.42-.71-.65-2.46-2.63-5.6-4.67-8.63-6.86a31.39,31.39,0,0,0-5-2.79,6.92,6.92,0,0,0-5.28-.43,2.61,2.61,0,0,0-1.59,1,9.56,9.56,0,0,0-1.57,3.08c-.21,1-.55,1.93-.81,2.89a16.11,16.11,0,0,1-2.46,5.14,4,4,0,0,0-.6,1.48,5.1,5.1,0,0,1-3.16,3.67c-1.44.69-2.88,1.37-4.28,2.12a9.16,9.16,0,0,0-2.67,1.87,4.42,4.42,0,0,0,1.52,2,1.4,1.4,0,0,0,1,.24,7.53,7.53,0,0,0,1.46-.34,18.34,18.34,0,0,0,5-2.52,33.34,33.34,0,0,0,6.08-5.4,13.82,13.82,0,0,0,2.86-4.76c.19-.56.42-1.12.61-1.65.46-.1.61.08.59.37a11.25,11.25,0,0,1-2.27,6,29.27,29.27,0,0,1-9.4,8,28.74,28.74,0,0,1-3.4,1.37c-.39.15-.81.23-1.3.37a7,7,0,0,0,.32.77c.32.56.67,1.11,1,1.66A11.63,11.63,0,0,1,71,97.4c-.09.58,0,1.18-.07,1.77a18.14,18.14,0,0,1-.51,2.93,26,26,0,0,1-2.75,5.7l0,0A2.84,2.84,0,0,0,66.46,109.16ZM76.71,60.9c-.53,2.2-1,4.41-1.64,6.6a8.68,8.68,0,0,1-1.14,2.38c-1.85,2.85-3.74,5.69-5.58,8.55a4.73,4.73,0,0,0-.26.67,5.6,5.6,0,0,0,2.06-.74,11.1,11.1,0,0,0,3.14-2.58,5.26,5.26,0,0,0,.86-1.62,8.06,8.06,0,0,1,1.4-2.71,5.35,5.35,0,0,0,.9-1.82c.4-1.14.75-2.3,1.07-3.46a8.92,8.92,0,0,1,1.59-3.07,4.51,4.51,0,0,1,3.46-2A15.62,15.62,0,0,0,85,60.6a6,6,0,0,0,.42-2.94,9.41,9.41,0,0,0-1.35-4.2A14.44,14.44,0,0,0,81.5,49.7c-.77-.67-1.56-1.32-2.36-2a3.64,3.64,0,0,0-2-.82A5.75,5.75,0,0,1,74,45.57a5.86,5.86,0,0,0-.89-.57,10.26,10.26,0,0,1-3.06-2.24,10.36,10.36,0,0,0-1.44-1.07c-.31.27-.56.51-.83.71a7.77,7.77,0,0,1-1.09.7c-.53.26-1.11.44-1.63.71a5.3,5.3,0,0,1-1.92.59,8.55,8.55,0,0,0-4.84,2.09,6.19,6.19,0,0,1-1.41,1,12,12,0,0,0-4.15,3.67c-1.12,1.44-2.19,2.9-3.28,4.36a2.78,2.78,0,0,0-.56,1.89,13.86,13.86,0,0,1-1.32,6.29,17.35,17.35,0,0,0-1.16,3.48c-.37,1.72-.76,3.44-1.15,5.15a7.65,7.65,0,0,0,2.05,7.19c.51-.12.35-.4.32-.63-.21-1.52-.44-3-.64-4.56a18.58,18.58,0,0,1,.15-5.21,30.65,30.65,0,0,1,2.29-8A11.37,11.37,0,0,1,50,60a55.42,55.42,0,0,1,5.09-6.92,6.18,6.18,0,0,1,.89-.68,3.05,3.05,0,0,1-.15.91c-.74,1.17-1.46,2.36-2.28,3.49a27,27,0,0,0-5.09,14.87,16.17,16.17,0,0,0,.06,2.2c0,.16.18.31.39.63C50.19,68.6,51.89,63,55,57.8c.39,0,.55.24.46.52a12.09,12.09,0,0,1-.73,1.89,52,52,0,0,0-4.09,11.73,24.88,24.88,0,0,0-.44,9.17,13.6,13.6,0,0,0,.5,1.79c1.38.43,2.62.85,3.89,1.19A2,2,0,0,0,55.85,84c.93-.36,1.83-.82,2.94-1.34.71.12,1.62.23,2.51.41a1.85,1.85,0,0,0,1.75-.54,19.3,19.3,0,0,0,3.23-3.35c2.31-3.48,4.65-6.93,7-10.39a5.87,5.87,0,0,0,.7-1.68c.77-2.84,1.52-5.68,2.3-8.51a6,6,0,0,1,.28-.7A4.13,4.13,0,0,1,76.71,60.9ZM32.19,119.82A10,10,0,0,1,30.53,121a26.88,26.88,0,0,1-9,3,3.61,3.61,0,0,1-2-.16c-.13-.06-.2-.28-.36-.53.69-.1,1.28-.16,1.86-.27s1.17-.31,1.76-.43a35.38,35.38,0,0,0,6-2,18.59,18.59,0,0,0,4.85-3.45,10.87,10.87,0,0,0-1.11-2.9c-1.12.21-2.05.84-3.08,1.12a32.3,32.3,0,0,1-3.16.77,20.54,20.54,0,0,1-3,.27,18.16,18.16,0,0,1-3.22-.12,26.85,26.85,0,0,1-3.21-.88,49.39,49.39,0,0,0,7.79,0,23,23,0,0,0,7.72-2.1c-.25-2.49-.73-4.91-.32-7.49a7.34,7.34,0,0,0-2.5-.1,29.54,29.54,0,0,1-8.75-.82,11,11,0,0,1-5.11-2.51,3.57,3.57,0,0,0-2.84-.91c-1,.1-1.93.11-2.87.3a4.39,4.39,0,0,0-3.39,3c-1.44,4.37-2.27,8.84-1.28,13.47.19.88.35,1.76.47,2.65a7.46,7.46,0,0,0,1.45,3.36,18,18,0,0,0,4.28,4.21,4.86,4.86,0,0,0,2.18.86c2.67.36,5.33.78,8,1.07a26.2,26.2,0,0,0,3.54-.06,1.27,1.27,0,0,0,.57-.15,12.5,12.5,0,0,0,3.8-2.7c.61-.75,1.17-1.54,1.75-2.3a1.1,1.1,0,0,0,.25-.34,5.23,5.23,0,0,1,2.57-3.06,1.6,1.6,0,0,0,.57-2.3c-.19-.34-.34-.71-.63-1.31C33.34,118.85,32.77,119.35,32.19,119.82Zm26.5-28.07A22.3,22.3,0,0,0,62,90.23c.4.41.5.77.23,1A5.83,5.83,0,0,1,61,92,19.88,19.88,0,0,1,59,92.6c0,.31,0,.62,0,.93a22.41,22.41,0,0,1-.5,7.72c-.17.65-.3,1.31-.47,2a3.12,3.12,0,0,0,1.19,3.63,3.76,3.76,0,0,1,.75.84c.31.42,0,.83-.3,1.3a4.12,4.12,0,0,0,1.05.44,2.79,2.79,0,0,0,1.21-.11,8.42,8.42,0,0,0,4.49-3,12.62,12.62,0,0,0,2.68-5.71c.1-.72.13-1.44.18-2.16,0-.46,0-.92.06-1.37A9.65,9.65,0,0,0,68,90.79a20.34,20.34,0,0,0-2.57-4.09,2.26,2.26,0,0,1-.27-.51,2.2,2.2,0,0,0-2-1.49c-2-1.13-3.89-.7-5.77.54-.54.35-1.1.66-1.9,1.15C57.48,87.78,57.63,90,58.69,91.75Zm-8.21-5.36c-1.12.45-2.14,1.13-3.21,1.69a4.77,4.77,0,0,0-2.2,2.19,17.84,17.84,0,0,0-1.14,2.85c-.66,2.42-1.2,4.87-1.8,7.42a9.7,9.7,0,0,0,2.08,1.18,6.29,6.29,0,0,0,.34-.81c.63-2.57,1.25-5.15,1.9-7.71A5.83,5.83,0,0,1,47,91.87c.11-.2.39-.32.82-.65-.06.51-.07.75-.12,1-.55,2.78-1.09,5.57-1.65,8.35a14.43,14.43,0,0,0,.23,5.75,2.12,2.12,0,0,0,2.17,1.89c.26,0,.53,0,.76,0,.84-.84.07-1.34-.23-1.78.18-.63.66-.35.88-.56.4-1.18.77-2.35,1.2-3.49s.88-2.15,1.34-3.22c.11-.28.34-.41.72-.28a6.32,6.32,0,0,1-.6,3.08c-.28.83-.56,1.67-.8,2.52a3.12,3.12,0,0,0,0,.75c1.53.07,1.68,0,4.42-1a30.36,30.36,0,0,0,1.58-6.85,16,16,0,0,0-1.73-8.17,2,2,0,0,0-1.55-1.4,1.16,1.16,0,0,1-1.06-1.43,3.65,3.65,0,0,0-.06-.67C52.09,85.41,51.29,86.05,50.48,86.39Zm-6.77,16.37A7.71,7.71,0,0,0,42.1,102a.7.7,0,0,0-.92.56,3.07,3.07,0,0,0-.11.79,1,1,0,0,0,.74,1,6.5,6.5,0,0,0,2.44.29A1.45,1.45,0,0,0,43.71,102.76Zm10,3.94a.23.23,0,0,0,.06-.18c0-.06-.07-.15-.11-.15-.36.06-.78-.06-1,.37A.92.92,0,0,0,53.74,106.7Z"/><path class="cls-2" d="M95.26,112a4.49,4.49,0,0,0-2.38.74,15,15,0,0,1-13.4.45,18.31,18.31,0,0,1-2.81-1.56c-2-1.3-4-2.65-6-4a1.51,1.51,0,0,0-.51-.25.43.43,0,0,0-.36.12.47.47,0,0,0,0,.37.69.69,0,0,0,.21.3,43.74,43.74,0,0,0,7.56,5.64,15.75,15.75,0,0,0,9.4,1.92,15.53,15.53,0,0,0,7.36-2.85C94.55,112.69,94.76,112.44,95.26,112Z"/><path class="cls-2" d="M72.06,104.14a10.33,10.33,0,0,0,2.69.88c.66.11,1.34.18,2,.32a32.34,32.34,0,0,0,12-.18,17.7,17.7,0,0,0,4-1.18,2.1,2.1,0,0,0,1.28-1c-.27-.26-.54,0-.78,0A19.26,19.26,0,0,1,88,104.31l-.2,0A30.41,30.41,0,0,1,77,104.27c-.72-.14-1.47-.2-2.2-.29A8.78,8.78,0,0,0,72.06,104.14Z"/><path class="cls-2" d="M67.67,107.77c.19.32.42.63.59,1,2,4.17,5,7.65,7.65,11.24a3,3,0,0,0,.63.66c.13.09.35.06.61.09,0-.25,0-.45-.08-.57-2.8-4-5.66-7.93-8.62-11.92-.17-.23-.55-.29-.83-.43Z"/><path class="cls-2" d="M78.73,92a9.33,9.33,0,0,0,4.88-1.35,66.92,66.92,0,0,0,8.54-5.57c1.64-1.29,3.1-2.77,4.66-4.16,0,0,0-.1-.07-.21a2.27,2.27,0,0,0-.55.23c-.75.56-1.51,1.13-2.21,1.74a72,72,0,0,1-11.32,7.64,29.57,29.57,0,0,1-3.17,1.35c-.26.1-.5.24-.75.36C78.74,92,78.73,92,78.73,92Z"/><path class="cls-2" d="M78.74,92a2.81,2.81,0,0,0-2.25.45l0,0A3.15,3.15,0,0,0,78.73,92S78.74,92,78.74,92Z"/><path class="cls-2" d="M76.49,92.47l-.1,0,.08-.06Z"/><path class="cls-2" d="M38.7,81.84c-6.78-2.51-11.65-6.47-13.88-13-.48-.06-.63.26-.56.6a9.27,9.27,0,0,0,.59,2.17,18.74,18.74,0,0,0,10.82,9.85A6.69,6.69,0,0,0,38.7,81.84Z"/><path class="cls-2" d="M27.55,85.24a2.73,2.73,0,0,0-.3-.72c-.39-.47-.83-.91-1.27-1.35a24.33,24.33,0,0,1-4.49-5.94c-.6-1.16-1.35-2.26-2-3.41-.76-1.32-1.49-2.67-2.24-4-.16-.28-.25-.62-.56-.78a.58.58,0,0,0-.19.8,26.08,26.08,0,0,0,1.23,2.87q2,3.47,4,6.84A20.1,20.1,0,0,0,26,84.35a2.77,2.77,0,0,0,1.63.86Z"/><path class="cls-2" d="M40,82.37s0,.12,0,.12a1,1,0,0,0,.18,0s0-.12,0-.12A1.25,1.25,0,0,0,40,82.37Z"/><path class="cls-2" d="M27.58,85.21l.27.2a.64.64,0,0,0-.1-.13.71.71,0,0,0-.2,0Z"/><path class="cls-2" d="M9.35,86.73c-.09-.09-.22-.29-.26-.27-.3.13-.16.3,0,.46Z"/><path class="cls-2" d="M9.09,86.92l.34.48.29-.2-.37-.47Z"/><path class="cls-2" d="M9.43,87.4l.37.48.28-.2-.36-.48Z"/><path class="cls-2" d="M58.42,82.18c.19-.09.45-.14.52-.27a5.79,5.79,0,0,0,.45-1.13c.25-.91.51-1.82.69-2.73a51.55,51.55,0,0,1,4.85-12.9c.68-1.34,1.4-2.67,2.07-4a3.72,3.72,0,0,0,.56-2.45c-.32.29-.58.43-.69.64-2.12,4.13-4.41,8.21-6.11,12.51a16.72,16.72,0,0,0-.63,1.93q-.85,3.32-1.67,6.64A2.26,2.26,0,0,0,58.42,82.18Z"/><path class="cls-2" d="M59.31,118.72a3,3,0,0,0-.08.78A29.09,29.09,0,0,0,66,134a3.71,3.71,0,0,0,.55.46c.06-.18.16-.33.12-.38a61,61,0,0,1-4.21-7.66,33.13,33.13,0,0,1-2.55-6.54,5.08,5.08,0,0,0-.62-1.14Z"/><path class="cls-2" d="M50.14,116.24a.19.19,0,0,1,0,.08l-.06,0Z"/><path class="cls-2" d="M59.89,102.57a1.57,1.57,0,0,0,1.36,1,5.76,5.76,0,0,0,4.57-1.48.48.48,0,0,0,.05-.49.56.56,0,0,0-.52,0,6.8,6.8,0,0,1-3.15,1C61.48,102.58,60.75,102.55,59.89,102.57Z"/><path class="cls-2" d="M61.24,95.76c0,.68.51.9,1,.94a4.59,4.59,0,0,0,3.34-.82,1.42,1.42,0,0,0,.29-.51s0-.11-.11-.27c-.75.18-1.53.43-2.32.55s-1.5.1-2.25.15Z"/><path class="cls-2" d="M61.2,95.8l-.08,0h.12Z"/><path class="cls-2" d="M52.37,88.66a20.73,20.73,0,0,0-2.1,4.7c-.89,3.27-1.69,6.56-2.47,9.86a8.72,8.72,0,0,0-.12,2c0,.14.23.34.38.36a.6.6,0,0,0,.48-.27,8.46,8.46,0,0,0,.69-1.69q.84-3.66,1.6-7.33a32.63,32.63,0,0,1,1.34-5.09A3.66,3.66,0,0,0,52.37,88.66Z"/><path class="cls-2" d="M38.3,94.92c-.23.3-.44.47-.42.58.27,1.49.34,3,1.22,4.33a1.33,1.33,0,0,0,.44.31c.08-.16.19-.29.17-.38C39.27,98.2,38.8,96.64,38.3,94.92Z"/><path class="cls-2" d="M41.8,93.29c-.06-.45-.13-.89-.19-1.33s-.13-.76-.19-1.17c-.52,0-.47.41-.5.66a1.88,1.88,0,0,0,.93,1.81Z"/><path class="cls-1" d="M145.63,53.69c.12-1,.25-2,.32-3a5.16,5.16,0,0,0-.92-3.28A10.54,10.54,0,0,1,144,45.18a17.93,17.93,0,0,1-.79-2.75,7.54,7.54,0,0,0-2.38-4.19,49.27,49.27,0,0,0-3.86-3.35,6.9,6.9,0,0,1-2.69-6.28,3,3,0,0,1,1-2.15c.82-.71,1.58-1.5,2.44-2.17a11,11,0,0,1,2.55-1.65,18.32,18.32,0,0,1,6.52-1.56c.89,0,1.77,0,2.66,0a5.36,5.36,0,0,0,3-.45c.26-.17.67-.09,1-.13a30.81,30.81,0,0,1,5.92.08,10.49,10.49,0,0,1,3.16.75c1.07.44,2.17.83,3.27,1.17a15.75,15.75,0,0,1,4.34,1.75,5.67,5.67,0,0,0,1.32.55,14.56,14.56,0,0,1,5.11,2.93c1.49,1.3,2.92,2.66,4.35,4a7,7,0,0,1,1,1.3,17.22,17.22,0,0,1,2.21,4.59c.33,1.18.73,2.34,1.11,3.5a13.85,13.85,0,0,1,.68,4.43c0,1.42.1,2.85.16,4.28a14.53,14.53,0,0,1-.87,6c-.32.82-.54,1.68-.8,2.53a12.77,12.77,0,0,1-3.88,6.57,8.7,8.7,0,0,0-1,1l-3.08,3.54a2.55,2.55,0,0,1-1.54,1,4.11,4.11,0,0,0-2.38,1.46,9.13,9.13,0,0,1-3.78,2.34l-4.49,1.42a8.39,8.39,0,0,1-5.22-.12,7.28,7.28,0,0,1-1-.35c-.31-.15-.76-.13-.9-.59,6.46-.52,6.9-.6,8.56-1.55-.21-.09-.38-.24-.55-.24-.68,0-1.36,0-2,.06-1.7.11-3.39.26-5.09.36a15.21,15.21,0,0,1-6.2-1c0-.56,0-1,0-1.5s-.07-.91-.32-1.13A2,2,0,0,1,151,67.9,14.78,14.78,0,0,0,147.36,58c-.72-.81-1.31-1.73-2-2.6C145.48,54.77,145.57,54.23,145.63,53.69Zm6.75,1.75,0-.1c.09-.2.19-.39.29-.59a3.72,3.72,0,0,0,1.78-1.61,12.35,12.35,0,0,0,2.29-5.2c.48-3,.85-5.94,1.14-8.92a12.39,12.39,0,0,0-1.78-6.34c-.33.12-.35.4-.29.67.18.79.35,1.59.58,2.38a11.57,11.57,0,0,1,.35,4.86c-.22,1.68-.41,3.38-.61,5.07a18,18,0,0,1-2.33,6.93c-.4.71-.73,1.45-1.1,2.18-.09.2-.19.4-.28.59Zm26.27-12.92a15.76,15.76,0,0,1-3.33,11.08c-1,1.28-2,2.59-3.06,3.84a20.49,20.49,0,0,1-9.61,6.65,36,36,0,0,0-4.76,2c.36.37.67.16.92.09,1.64-.46,3.28-.91,4.9-1.43a19.78,19.78,0,0,0,8.87-6c1.39-1.59,2.66-3.28,3.94-5a13.16,13.16,0,0,0,2.66-6.12c.17-1.08.36-2.15.45-3.24a4.2,4.2,0,0,0-.67-2.87C178.49,41.84,178.63,42.2,178.65,42.52ZM144,34.89a64.21,64.21,0,0,1,5,13.35c.19.79.4,1.59.52,2.39a5.48,5.48,0,0,1-.47,3.58,2,2,0,0,0-.11.51c.43.15.55-.16.68-.35a6.75,6.75,0,0,0,.71-5.7c-.51-2-1.1-3.94-1.74-5.87A66.2,66.2,0,0,0,144,32.57a6,6,0,0,0-2.2-2.35,2.58,2.58,0,0,0-.7-.2l-.18.35C142.53,31.52,143.22,33.25,144,34.89ZM153.7,62A68.4,68.4,0,0,0,167,51.14a17.64,17.64,0,0,0,3.95-6.84c-.2-.37-.43-.24-.58,0A26.44,26.44,0,0,0,169,46.63a14.31,14.31,0,0,1-3,4.14,66.36,66.36,0,0,1-7.8,6.9c-1.71,1.24-3.33,2.6-5,3.92-.08.06-.07.24-.12.43C153.36,62,153.57,62.05,153.7,62Z"/><path class="cls-1" d="M97,66.39l.17.27a3.13,3.13,0,0,0,1.2,1.85A19,19,0,0,0,103.86,72a8,8,0,0,0,2.94.79,46.83,46.83,0,0,0,8.78.07c.87-.11,1.74-.18,2.68-.28.18.44.34.81.47,1.19.28.84.56,1.68.82,2.53a6.42,6.42,0,0,0,1.81,2.92c.49.46,1,1,1.47,1.42a18.17,18.17,0,0,0,1.7,1.46,15.51,15.51,0,0,0,1.76.93A4.33,4.33,0,0,1,124,85.55c-.67.32-1.25.81-1.9,1.18a12.92,12.92,0,0,1-2,1c-1.22.44-2.47.79-3.71,1.16a19.68,19.68,0,0,1-4.84.73c-2.87.16-5.72-.09-8.58-.21a4.81,4.81,0,0,1-1.58-.34c-1.33-.52-2.63-1.1-3.94-1.69-1.86-.83-3.74-1.64-5.57-2.56a11,11,0,0,1-2.13-1.56c-.92-.8-1.79-1.68-2.67-2.52a13.7,13.7,0,0,1-4.08-7,35,35,0,0,1-1-9.94c.06-.88,0-1.78.07-2.66a17.56,17.56,0,0,1,.39-2.82c.48-1.92,1.07-3.81,1.58-5.72a5.57,5.57,0,0,1,1.15-2.14A29.11,29.11,0,0,0,87.84,47a15.19,15.19,0,0,1,5.51-5.63A6.74,6.74,0,0,0,96,38.57a4.52,4.52,0,0,1,4.75-2.48,6.44,6.44,0,0,0,2.43-.12,2.65,2.65,0,0,1,1.17.12c.39.09.75.33,1.14.38a13.93,13.93,0,0,0,2.23.15A6.62,6.62,0,0,1,111.31,38a3.78,3.78,0,0,1,1.38,2.43c.7,2.21,1.39,4.42,2.13,6.62a4.64,4.64,0,0,1,.21,3,6.85,6.85,0,0,1,1.59,2.68,8.54,8.54,0,0,0,2,3.52,22.71,22.71,0,0,0,3.47,3.46,7.3,7.3,0,0,1,.72.74,3.14,3.14,0,0,1-.59.37,3.81,3.81,0,0,0-2.77,3.43,17.23,17.23,0,0,1-.91,3.13,7.13,7.13,0,0,0-.46,2.81,3.1,3.1,0,0,1-.18,1.82l-4.05-.16c-2.11-.07-4.23-.12-6.34-.23a7.85,7.85,0,0,1-2.21-.35,19.82,19.82,0,0,1-7-3.75c-.34-.3-.6-.77-1.16-.74C97.11,66.59,97.06,66.49,97,66.39Zm22.4,18.85c-1.75.53-3.5,1.1-5.25,1.63a6.63,6.63,0,0,1-1.77.43,42.73,42.73,0,0,1-6.3.08,6.12,6.12,0,0,0-1.21,0c-.53,0-1,.16-1.69.26.19.24.29.48.41.5,1.87.27,3.68,1,5.62.68h.2a16.09,16.09,0,0,0,7.15-1.26c1.15-.42,2.33-.76,3.47-1.19a5.23,5.23,0,0,0,1.37-.83c.13-.1.07-.45.11-.84C120.71,84.89,120.05,85,119.41,85.24ZM99.6,53.59a14.47,14.47,0,0,0,3.8,4.22c1.61,1.24,3.3,2.39,5,3.48a16.08,16.08,0,0,0,5.08,2.06,16.45,16.45,0,0,0,2.22.3,1.24,1.24,0,0,0,.58-.16c.09-.05.14-.2.21-.3-.09-.1-.16-.26-.26-.28a28.92,28.92,0,0,1-11-5.11c-.67-.47-1.31-1-2-1.47a11.49,11.49,0,0,1-3.37-3.77c-.15-.3-.35-.58-.77-.49A2.14,2.14,0,0,0,99.6,53.59Zm13.63,1.06a37.45,37.45,0,0,1-3.83-4.5,26.78,26.78,0,0,1-2.91-5.41c-.19.52-.32.7-.28.83A14.23,14.23,0,0,0,108,49.89a36.4,36.4,0,0,0,5.76,6.86,11.3,11.3,0,0,0,3.45,2.13c.09,0,.24-.07.55-.17C116.15,57.29,114.66,56,113.23,54.65Zm7.4,26.41-2.79,1.68a17,17,0,0,1-6.81,2c-1.42.17-2.85.23-4.26.39-.43,0-1-.1-1.31.44a2.37,2.37,0,0,0,.57.19,47,47,0,0,0,6.71-.18,18.47,18.47,0,0,0,7.32-3,4.12,4.12,0,0,0,1.7-2.09C121.09,80.84,120.85,80.94,120.63,81.06ZM99.86,85.89c-.22-.75-.8-.46-1.31-.25Z"/><path class="cls-1" d="M130.35,3.87A15,15,0,0,1,134.52,6c1,.7,2.22,1,3.19,1.74a26.31,26.31,0,0,1,2.64,2.54c.73.71,1.5,1.39,2.22,2.1a23.28,23.28,0,0,0,2.17,2.16c.86.64.8,1.89,1.78,2.4a.93.93,0,0,1,.33.51,6.38,6.38,0,0,1,.29,1,.7.7,0,0,1-.58.91,4.81,4.81,0,0,1-1.41.09,7.55,7.55,0,0,0-4.49,1.06c-1.17.54-2.27,1.26-3.46,1.73A7,7,0,0,0,134,24.94a7,7,0,0,0-1.29,4.17,8.15,8.15,0,0,0,3,6.84c1.23,1,2.39,2,3.52,3.11a10.85,10.85,0,0,1,1.54,1.9,26.78,26.78,0,0,1,3.3,8.54,6.58,6.58,0,0,1-.47,4.19c-.38-.11-.76-.24-1.14-.33a5.44,5.44,0,0,0-2.83.06,24.53,24.53,0,0,0-9.22,4.95c-.14.84-.25,1.58-.39,2.31,0,.09-.14.16-.22.24-.49-.05-.49-.87-1.22-.69l-.46.84a17.77,17.77,0,0,0-1.72-1c-.68-.31-1.41-.5-2.29-.8a4.87,4.87,0,0,0-2.62-3.09,7.52,7.52,0,0,1-3.31-4.48c-1.19-3.84-2.46-7.66-3.7-11.49-.17-.52-.33-1-.53-1.55a4.14,4.14,0,0,0-2-2.22,9.63,9.63,0,0,0-4.06-1.29,2.4,2.4,0,0,1-2.46-1.71,7.05,7.05,0,0,0-.58-1.08,28.14,28.14,0,0,1-2.61-6.64,2.84,2.84,0,0,1-.13-1c.15-2,.31-3.92.5-5.88a8.5,8.5,0,0,1,.33-1.39c.16-.59.33-1.17.52-1.76.26-.77.49-1.56.81-2.3a6.77,6.77,0,0,1,2.62-3.06,20.24,20.24,0,0,1,2.83-1.59,4.21,4.21,0,0,0,2.48-2.56,5.43,5.43,0,0,1,.43-.75,17.07,17.07,0,0,0,4.42-2,7.81,7.81,0,0,1,4.85-1.28,20.08,20.08,0,0,1,4.62.82c.66.16,1.34.25,2,.38s.73,1.13,1.39,1.4a1.52,1.52,0,0,1,.32.26,10.91,10.91,0,0,1,2.27,2.61q1.58,2.5,3.17,5a22.36,22.36,0,0,1,2.58,5.09,5.48,5.48,0,0,0,.41.93.51.51,0,0,0,.74.26,14.76,14.76,0,0,0-1.59-4.58c-1.35-2.2-2.73-4.4-4.11-6.58A12.5,12.5,0,0,0,131.29,5a10.18,10.18,0,0,1-.91-1.06ZM110.64,16.65a20.34,20.34,0,0,1,.81,5.64q0,1.53.15,3.06a22.72,22.72,0,0,0,.75,4.62,84.46,84.46,0,0,0,3.19,9.69A24.78,24.78,0,0,0,117,42.6c1.26,2.17,2.58,4.31,3.9,6.45.12.19.38.3.84.65a6.11,6.11,0,0,0-.35-1.05c-.88-1.6-1.74-3.23-2.7-4.8a35.6,35.6,0,0,1-3.28-7.45c-.59-1.81-1.15-3.63-1.75-5.44a23.19,23.19,0,0,1-1.24-6.8c0-1.22-.15-2.44-.19-3.67A12.39,12.39,0,0,0,111,16c0-.11-.19-.19-.41-.39A4.38,4.38,0,0,0,110.64,16.65ZM127,48.93c-1.54-2.67-2.73-5.5-4.12-8.23a58.37,58.37,0,0,1-4.72-14.77c-.38-1.87-.58-3.77-.9-5.66a34.42,34.42,0,0,1-.69-6.08,1.77,1.77,0,0,0-.7-1.7,1.64,1.64,0,0,0-.17.52c0,.34.17.67.16,1-.13,4.07.88,8,1.52,12a55.33,55.33,0,0,0,3.17,11.63c.62,1.58,1.45,3.09,2.22,4.6,1.18,2.31,2.39,4.6,3.61,6.88a5.71,5.71,0,0,0,.76.88l.2-.12A5.39,5.39,0,0,0,127,48.93ZM106,25.14c-.16-.8-.39-1.58-.55-2.38a12.64,12.64,0,0,0-.41-2.41c-.3-.75.22-1.65-.48-2.3a1.54,1.54,0,0,0-.69,1.79A23.18,23.18,0,0,0,106,27.27a6.71,6.71,0,0,0,.51.62C106.33,26.73,106.21,25.93,106,25.14Z"/><path class="cls-1" d="M131.66,92.14a1.57,1.57,0,0,1-.14-1.38q.89-3.67,1.8-7.34a8.54,8.54,0,0,0,.4-1.37,5.06,5.06,0,0,1,.82-2.23c-.24-.36-.51-.24-.65,0a2.56,2.56,0,0,1-1.51,1.31c-.75.18-.84,1.06-1.5,1.3s-1.28.49-1.89.77a1,1,0,0,0-.54,1,14.26,14.26,0,0,1-.38,4.65,3.84,3.84,0,0,0,0,1.22c.19,1.48.34,3,.62,4.44a7,7,0,0,0,2.17,3.63,1.26,1.26,0,0,0,.72.33c.87,0,1.69.46,2.62.17a1.31,1.31,0,0,1,1.45.54,1.25,1.25,0,0,0,1,.63,4.46,4.46,0,0,1,2.09.74,2.69,2.69,0,0,0,3.72-.93c.83-1.38,1.81-2.71,1.81-4.45a.76.76,0,0,1,.73-.83c.48,0,.68-.37.93-.7a46.21,46.21,0,0,1,3.54-4.73c1.18-1.26,1.09-2.87.68-4.44a6,6,0,0,1-.4-1.14c-.07-1.87-1.27-2.93-2.67-3.85-.56-.36-1-.9-1.78-.94-1.08-.06-2.12-.23-3,.74a6.2,6.2,0,0,1-1.93.88c0,.34-.05.81-.11,1.27-.37,2.57-.72,5.13-1.12,7.68a4.63,4.63,0,0,1-.51,1.32c-.08.16-.29.36-.44.36-.36,0-.38-.31-.36-.58,0-.61.11-1.22.13-1.83s0-1.49,0-2.24c-.24,1.47-.49,2.94-.7,4.41a8,8,0,0,1-2.57,5.16,2,2,0,0,1-.7.24c0-.17-.07-.25,0-.3a5.08,5.08,0,0,1,.38-.69,9.78,9.78,0,0,0,1.85-4.89q.1-1.11.3-2.22a17.54,17.54,0,0,0,.12-5.46,3.06,3.06,0,0,1,0-.8c0-.09.17-.21.27-.24s.33,0,.35.09a11.32,11.32,0,0,1,.56,1.92c.13.94.13,1.89.18,2.84a4,4,0,0,0,.39-1.88c.13-.76.29-1.51.44-2.27l0,0c-.06-.61-.12-1.21-.17-1.81a2.62,2.62,0,0,0-2.87-.31,1.31,1.31,0,0,0-.21.33c-.6,2.23-1.19,4.47-1.79,6.7a16.51,16.51,0,0,1-2,5.1l-.31.53-.09.12.14-.1Z"/><path class="cls-1" d="M126.92,95.86a9.22,9.22,0,0,0,1,2.67,2.68,2.68,0,0,0,1.72,1.31,4,4,0,0,1,1.91.71,26.77,26.77,0,0,1-4.37,4.34,3.53,3.53,0,0,1-1.06.58c-1,.37-2.07.68-3,1a3.35,3.35,0,0,1-.7-.25,3.39,3.39,0,0,0-3.14-.23c-.7.26-1.42.46-2.14.69-2.14.68-4.28,1.37-6.43,2a5.76,5.76,0,0,1-4.11-.06,6.06,6.06,0,0,1-.71-4c.13-.94.13-1.89.18-2.84a5.63,5.63,0,0,1,1.85-4.18,21.12,21.12,0,0,0,4.39-5.08,2.57,2.57,0,0,1,1.57-1.19c2.15-.65,4.28-1.37,6.43-2a9.33,9.33,0,0,0,3.11-1.5,15.63,15.63,0,0,1,2.06-1.31,1,1,0,0,1,1.21-.06c.07,2.35.12,4.73-1.82,6.59-1.09,2-3,3.15-4.75,4.37-1.28.88-2.66,1.61-4,2.41,0,0,0,.13-.07.24a4,4,0,0,0,2.15-.55,20.86,20.86,0,0,0,2.48-1.41c1.84-1.28,3.78-2.47,4.74-4.66.1-.21.37-.34.65-.59A16,16,0,0,1,126.92,95.86Zm-11.21,1.57c1.73-1.62,3.41-3.31,5.16-4.92.79-.73,1.69-1.35,2.55-2,.42-.33.84-.64,1.35-1-.27-.18-.42-.37-.57-.37a1.58,1.58,0,0,0-.77.2,9.12,9.12,0,0,0-1.87,1.22c-2.71,2.55-5.62,4.93-7.65,8.12l0,.14,0-.16A3.51,3.51,0,0,0,115.71,97.43Z"/><path class="cls-1" d="M161.17,78.32a7.71,7.71,0,0,0,1.08.53,35,35,0,0,0,8.62,1.55,8.27,8.27,0,0,1,1,.2c-.33.56-.78.36-1.16.42a17.92,17.92,0,0,1-7.28-.56,43.75,43.75,0,0,1-9.09-3.62l-3.07-1.55a1.88,1.88,0,0,0-1.35,1.6,10.27,10.27,0,0,0,.82.77A29.29,29.29,0,0,0,158.6,82a47.53,47.53,0,0,0,7,2.21,3,3,0,0,1,.75.31c.06,0,.06.22.07.34s-.08.1-.13.13a.37.37,0,0,1-.2.05,40.43,40.43,0,0,1-9.65-2.55,27.44,27.44,0,0,1-6.59-4.07c-.26-.21-.53-.42-.81-.62,0,0-.13,0-.28,0,0,.18,0,.39.13.49a6.15,6.15,0,0,0,2.31,2,1.92,1.92,0,0,1,.74.68c.33.43.62.9.91,1.35a3.26,3.26,0,0,1,.59,2.32,1.43,1.43,0,0,0,.66,1.4c2.9,2.22,6,4,9.72,4.45a14.23,14.23,0,0,1,1.61.27,10.38,10.38,0,0,0,4.26.13,14.81,14.81,0,0,0,10.24-6.1,4.19,4.19,0,0,0,.57-4.23,7.51,7.51,0,0,0-2.94-4,28.83,28.83,0,0,1-2.76-2.17,51.11,51.11,0,0,1-7.13,2.5,22,22,0,0,1-2.59.52c-.53.11-1.06.21-1.59.35-.79.21-1.57.45-2.35.68Z"/><path class="cls-1" d="M145,73.62c.1.56-.31.85-.6,1.22a.93.93,0,0,0-.14,1.21c.46,0,1,.09,1.51.12a2.47,2.47,0,0,0,.6,0,3.9,3.9,0,0,0,3.4-3.77,9.76,9.76,0,0,0-.32-3.64c-.46-1.43-.88-2.87-1.31-4.31a3.78,3.78,0,0,1-.32-1.18,5,5,0,0,0-1.33-3.31,18.33,18.33,0,0,1-1.2-2.43l-1.56-.54c-.09-.21-.19-.33-.19-.45,0-.61,0-1.25-.57-1.66a2.66,2.66,0,0,0-2.13-.48c-.86.21-1.71.48-2.55.74s-1.56.43-1.9,1.36c-.11.28-.66.43-1,.56-.76.28-1.54.51-2.28.75-.12.55.15,1.15-.61,1.4-.33.11-.56.52-.9.86.69.29,1-.17,1.34-.41a1.8,1.8,0,0,1,1.93-.15c.61.3,1.24.57,1.86.86a5.69,5.69,0,0,1,2.37,2.17c.95,1.47,2.05,2.84,3.12,4.28,1.46-.59,1.36-1.79,1.29-3,.26,0,.48-.13.63-.07a.64.64,0,0,1,.37.43,3.22,3.22,0,0,1-.71,2.68c-.26.31-.57.57-.94.93.11.4.21.86.36,1.3s.37.86.57,1.32c1.38-.11,2.06-1.36,3.18-1.75.35.31.07.56-.09.68-.87.62-1.77,1.21-2.83,1.92a8.85,8.85,0,0,0,.41,2c0,.17.41.28.62.42,0-.11,0-.21-.08-.32l.24,0Z"/><path class="cls-1" d="M139.62,77.07a5,5,0,0,1,.34-1.78,8.14,8.14,0,0,0-.3-6,6.85,6.85,0,0,0-.85-1.11,4.06,4.06,0,0,0-.16,1,9.38,9.38,0,0,0,.35,1.59,8.66,8.66,0,0,1-.06,4.84,2.36,2.36,0,0,1-1.36,1.68c-1-.78-1.87-1.56-2.84-2.27a3.46,3.46,0,0,1-1.29-1.78,4.44,4.44,0,0,0-.58-1c-.05-.08-.25-.1-.35-.07a.47.47,0,0,0-.25.27.78.78,0,0,0-.05.4A4.84,4.84,0,0,0,134,76.12c.46.35,1,.67,1.08,1.44-.23,0-.46.1-.6,0-.66-.35-1.3-.75-1.95-1.12A7.47,7.47,0,0,1,129,71.92a46,46,0,0,1-1-4.8,3.44,3.44,0,0,1,.44-2.56,12.2,12.2,0,0,1,3.13-2.77A14.37,14.37,0,0,1,134,60.64a1.43,1.43,0,0,1,1,.79,4.5,4.5,0,0,0,.87,1.1,10.49,10.49,0,0,1,3.74,4.71,1.36,1.36,0,0,0,.33.51,5.43,5.43,0,0,1,1.41,3.54c.13,1.21.11,2.44.16,3.66a1.64,1.64,0,0,1-1.11,1.76c-.25.1-.5.22-.74.34Zm-4.41-6.76q.71,2.43,1.49,4.86a2,2,0,0,0,.44.67.41.41,0,0,0,.36,0,.54.54,0,0,0,.24-.29.68.68,0,0,0,0-.4c-.58-1.8-1.17-3.61-1.79-5.39-.06-.18-.39-.26-.72-.45A3.61,3.61,0,0,0,135.21,70.31Z"/><path class="cls-1" d="M124,61.88c.33,0,.67.14.84-.28v0a3.76,3.76,0,0,1,1.67,1.5,5.08,5.08,0,0,0-.13,1.18,7,7,0,0,0,.36,1.13,1.73,1.73,0,0,1,.06.6,19.73,19.73,0,0,0,.6,5.25,9.54,9.54,0,0,0,4.25,6.47c.36.24.85.39,1,1-1,.33-2,.56-2.27,1.78a.8.8,0,0,1-.4.43,2.4,2.4,0,0,1-2.69.08,6.48,6.48,0,0,0-1.22-.67c-3.26-1.23-4.85-3.78-5.28-7.11a4.76,4.76,0,0,0-1.12-3A1.41,1.41,0,0,1,119.3,69a8,8,0,0,1,.3-1.19,6,6,0,0,0,.52-3.76,1.46,1.46,0,0,1,.93-1.64,4.74,4.74,0,0,1,3-.52Zm-1.54,6.36s0,.1.07.1.1,0,.16,0a5,5,0,0,0,2.21,2.77c0-.24,0-.44-.06-.54-.68-.78-1-1.86-2.17-2.19Zm4.21,9.25a19.2,19.2,0,0,1-2-1c-.2.61.21.84.51,1.08a4.65,4.65,0,0,0,2.56,1.15,1.23,1.23,0,0,0,1.36-.56C128.21,77.92,127.41,77.77,126.66,77.49Zm-.11-1.89c-.35-.81-.51-1-2.28-1.95A4.14,4.14,0,0,0,126.55,75.6Z"/><path class="cls-1" d="M126.57,61.45c.1.39.17.78.3,1.16,0,.09.2.13.31.19.06-.16.22-.4.17-.47a8.44,8.44,0,0,0-.82-.87Z"/><path class="cls-1" d="M140.3,78.71l-.18.3.31.07c0-.11,0-.22,0-.34Z"/><path class="cls-1" d="M138.78,77.62a1.72,1.72,0,0,0-.28-.08s-.14.1-.13.11.11.15.17.23A3.08,3.08,0,0,0,138.78,77.62Z"/><path class="cls-1" d="M124.83,61.65c-.37-.23-.62-.1-.81.25l0,0,.84-.28Z"/><path class="cls-1" d="M138.69,82.06c.15.1.33.54.43,0l0,0-.49.07Z"/><path class="cls-1" d="M139.12,82c0-.11,0-.21,0-.25a1.94,1.94,0,0,0,0,.27Z"/><path class="cls-1" d="M139.62,77.07s0,.05,0,.08v-.1Z"/><polygon class="cls-1" points="126.53 61.46 126.47 61.47 126.57 61.45 126.53 61.46"/><polygon class="cls-1" points="161.15 78.31 161.07 78.28 161.17 78.32 161.15 78.31"/><polygon class="cls-1" points="130.35 3.87 130.27 3.88 130.38 3.9 130.35 3.87"/><path class="cls-2" d="M101.52,30.81a6,6,0,0,1-.37-1.78,6.81,6.81,0,0,0-.48-2.8,9.31,9.31,0,0,1-.55-3c0-.61-.11-1.22-.15-1.84a10.26,10.26,0,0,1,2.08-7.46c.35-.42.63-.89,1-1.32a27.16,27.16,0,0,1,2.74-3.29,23.15,23.15,0,0,0,2.47-2.38,2,2,0,0,1,.46-.41A7.14,7.14,0,0,0,111.52,4a.72.72,0,0,1,.32-.24A29.64,29.64,0,0,1,115.09,2c1.64-.65,3.36-1.12,5-1.67a7.22,7.22,0,0,1,3.63-.24,20.09,20.09,0,0,1,2.77.71c2,.71,4,1.5,5.93,2.24a10.72,10.72,0,0,0,1.55.49,8.74,8.74,0,0,1,5,3,16.29,16.29,0,0,0,2.24,2.08c1.05.86,2.05,1.8,3.05,2.71.7.65,1.35,1.35,2.08,2a7.6,7.6,0,0,1,2.33,3,27.4,27.4,0,0,0,1.38,2.52,10,10,0,0,1,1.25-.24,6.8,6.8,0,0,1,2.43.05,11.7,11.7,0,0,0,3.2.4c2.11.16,4.22.29,6.32.54,1.49.17,3,.45,4,1.78a1.14,1.14,0,0,0,.5.32c1.52.62,3,1.27,4.56,1.81a16.16,16.16,0,0,1,5.32,3c1.29,1.11,2.52,2.3,3.8,3.42a11.3,11.3,0,0,1,2.3,2.85,20.84,20.84,0,0,1,2,4.46c.32,1.12.69,2.22,1.06,3.32a16.15,16.15,0,0,1,.76,5c0,1.3,0,2.59.13,3.88a16,16,0,0,1-.51,5.47c-.44,1.65-1,3.27-1.5,4.89a9.4,9.4,0,0,1-.6,1.29,32,32,0,0,1-3,4.86,18.12,18.12,0,0,1-2.64,3.1c-1.14,1-2.19,2.19-3.24,3.25a2.76,2.76,0,0,0,1.06,1.82c.47.39,1,.76,1.42,1.17a10.76,10.76,0,0,1,3.5,5.39,4.89,4.89,0,0,1-.59,4.1,14.49,14.49,0,0,1-4.17,4.44c-3.85,2.49-8,3.77-12.62,2.79-.27,0-.54-.1-.81-.13a19.45,19.45,0,0,1-9.24-3.59c-.56-.38-1.14-.74-1.93-1.25-.75,2-2.34,3.35-3.56,5a5.81,5.81,0,0,1-1.05,1.25,8.33,8.33,0,0,0-2.7,4.25,8,8,0,0,1-2.28,3.54,6.83,6.83,0,0,0-1,1,2.16,2.16,0,0,1-2.39.73,9.34,9.34,0,0,1-1.49-.65c-1.19-.52-2.37-1.05-3.56-1.55a1.22,1.22,0,0,0-1.49.32c-.65.69-1.32,1.37-2,2.06-2,2.09-4.11,4-7.12,4.53a.7.7,0,0,0-.19.06,2.56,2.56,0,0,1-2.36-.13,2,2,0,0,0-1.77-.13l-1.37.43c-2,.65-4,1.32-6,2a12.37,12.37,0,0,1-4.2.8c-2.76-.12-3.41-.23-4.11-3.7a36,36,0,0,1,.6-6.89,10.07,10.07,0,0,1,2.8-4.69,2.8,2.8,0,0,1,1-.62,2.5,2.5,0,0,0,1.56-1.77l-2.87-.63a21.34,21.34,0,0,0-3.21-.61,9.32,9.32,0,0,1-4.07-1.25c-.42-.22-.86-.42-1.29-.62-2.47-1.16-5-2.29-7.39-3.49a14.41,14.41,0,0,1-2-1.35c-.6-.44-1.15-1-1.77-1.37a15.25,15.25,0,0,1-6.62-10,48.84,48.84,0,0,1-.68-13.44c.11-1.64,2-8.17,2.91-9.55A64.19,64.19,0,0,1,88,43.51a76.91,76.91,0,0,1,8.81-8.22,5.41,5.41,0,0,1,2-1c1-.31,2.08-.66,3.24-1A8.44,8.44,0,0,0,101.52,30.81Zm37.15,51.3c-.06-.61-.12-1.21-.17-1.81a2.62,2.62,0,0,0-2.87-.31,1.31,1.31,0,0,0-.21.33c-.6,2.23-1.19,4.47-1.79,6.7a16.51,16.51,0,0,1-2,5.1l0,0a1.57,1.57,0,0,1-.14-1.38q.89-3.67,1.8-7.34a8.54,8.54,0,0,0,.4-1.37,5.06,5.06,0,0,1,.82-2.23c-.24-.36-.51-.24-.65,0a2.56,2.56,0,0,1-1.51,1.31c-.75.18-.84,1.06-1.5,1.3s-1.28.49-1.89.77a1,1,0,0,0-.54,1,14.26,14.26,0,0,1-.38,4.65,3.84,3.84,0,0,0,0,1.22c.19,1.48.34,3,.62,4.44a7,7,0,0,0,2.17,3.63,1.26,1.26,0,0,0,.72.33c.87,0,1.69.46,2.62.17a1.31,1.31,0,0,1,1.45.54,1.25,1.25,0,0,0,1,.63,4.46,4.46,0,0,1,2.09.74,2.69,2.69,0,0,0,3.72-.93c.83-1.38,1.81-2.71,1.81-4.45a.76.76,0,0,1,.73-.83c.48,0,.68-.37.93-.7a46.21,46.21,0,0,1,3.54-4.73c1.18-1.26,1.09-2.87.68-4.44a6,6,0,0,1-.4-1.14c-.07-1.87-1.27-2.93-2.67-3.85-.56-.36-1-.9-1.78-.94-1.08-.06-2.12-.23-3,.74a6.2,6.2,0,0,1-1.93.88c0,.34-.05.81-.11,1.27-.37,2.57-.72,5.13-1.12,7.68a4.63,4.63,0,0,1-.51,1.32c-.08.16-.29.36-.44.36-.36,0-.38-.31-.36-.58,0-.61.11-1.22.13-1.83s0-1.49,0-2.24l0,.06a4,4,0,0,0,.39-1.88c.13-.76.29-1.51.44-2.27.15.1.33.54.43,0,0-.11,0-.21,0-.25a1.94,1.94,0,0,0,0,.27ZM126.46,61.47l.11,0c.1.39.17.78.3,1.16,0,.09.2.13.31.19.06-.16.22-.4.17-.47a8.44,8.44,0,0,0-.82-.87ZM124,61.9a4.74,4.74,0,0,0-3,.52,1.46,1.46,0,0,0-.93,1.64,6,6,0,0,1-.52,3.76,8,8,0,0,0-.3,1.19,1.41,1.41,0,0,0,.33,1.33,4.76,4.76,0,0,1,1.12,3c.43,3.33,2,5.88,5.28,7.11a6.48,6.48,0,0,1,1.22.67,2.4,2.4,0,0,0,2.69-.08.8.8,0,0,0,.4-.43c.24-1.22,1.29-1.45,2.27-1.78-.12-.63-.61-.78-1-1a9.54,9.54,0,0,1-4.25-6.47,19.73,19.73,0,0,1-.6-5.25,1.73,1.73,0,0,0-.06-.6,7,7,0,0,1-.36-1.13,5.08,5.08,0,0,1,.13-1.18,3.76,3.76,0,0,0-1.67-1.5C124.46,61.42,124.21,61.55,124,61.9Zm16.37,14.81A1.64,1.64,0,0,0,141.5,75c-.05-1.22,0-2.45-.16-3.66a5.43,5.43,0,0,0-1.41-3.54,1.36,1.36,0,0,1-.33-.51,10.49,10.49,0,0,0-3.74-4.71,4.5,4.5,0,0,1-.87-1.1,1.43,1.43,0,0,0-1-.79,14.37,14.37,0,0,0-2.43,1.15,12.2,12.2,0,0,0-3.13,2.77,3.44,3.44,0,0,0-.44,2.56,46,46,0,0,0,1,4.8,7.47,7.47,0,0,0,3.54,4.55c.65.37,1.29.77,1.95,1.12.14.07.37,0,.6,0,0-.77-.62-1.09-1.08-1.44a4.84,4.84,0,0,1-1.77-3.33.78.78,0,0,1,.05-.4.47.47,0,0,1,.25-.27c.1,0,.3,0,.35.07a4.44,4.44,0,0,1,.58,1A3.46,3.46,0,0,0,134.74,75c1,.71,1.88,1.49,2.84,2.27a2.36,2.36,0,0,0,1.36-1.68,8.66,8.66,0,0,0,.06-4.84,9.38,9.38,0,0,1-.35-1.59,4.06,4.06,0,0,1,.16-1,6.85,6.85,0,0,1,.85,1.11,8.14,8.14,0,0,1,.3,6,5,5,0,0,0-.34,1.78s0,.05,0,.08v-.1C139.89,76.93,140.14,76.81,140.39,76.71Zm4.6-3.09c.1.56-.31.85-.6,1.22a.93.93,0,0,0-.14,1.21c.46,0,1,.09,1.51.12a2.47,2.47,0,0,0,.6,0,3.9,3.9,0,0,0,3.4-3.77,9.76,9.76,0,0,0-.32-3.64c-.46-1.43-.88-2.87-1.31-4.31a3.78,3.78,0,0,1-.32-1.18,5,5,0,0,0-1.33-3.31,18.33,18.33,0,0,1-1.2-2.43l-1.56-.54c-.09-.21-.19-.33-.19-.45,0-.61,0-1.25-.57-1.66a2.66,2.66,0,0,0-2.13-.48c-.86.21-1.71.48-2.55.74s-1.56.43-1.9,1.36c-.11.28-.66.43-1,.56-.76.28-1.54.51-2.28.75-.12.55.15,1.15-.61,1.4-.33.11-.56.52-.9.86.69.29,1-.17,1.34-.41a1.8,1.8,0,0,1,1.93-.15c.61.3,1.24.57,1.86.86a5.69,5.69,0,0,1,2.37,2.17c.95,1.47,2.05,2.84,3.12,4.28,1.46-.59,1.36-1.79,1.29-3,.26,0,.48-.13.63-.07a.64.64,0,0,1,.37.43,3.22,3.22,0,0,1-.71,2.68c-.26.31-.57.57-.94.93.11.4.21.86.36,1.3s.37.86.57,1.32c1.38-.11,2.06-1.36,3.18-1.75.35.31.07.56-.09.68-.87.62-1.77,1.21-2.83,1.92a8.85,8.85,0,0,0,.41,2c0,.17.41.28.62.42Zm16.08,4.65.1,0a7.71,7.71,0,0,0,1.08.53,35,35,0,0,0,8.62,1.55,8.27,8.27,0,0,1,1,.2c-.33.56-.78.36-1.16.42a17.92,17.92,0,0,1-7.28-.56,43.75,43.75,0,0,1-9.09-3.62l-3.07-1.55a1.88,1.88,0,0,0-1.35,1.6,10.27,10.27,0,0,0,.82.77A29.29,29.29,0,0,0,158.6,82a47.53,47.53,0,0,0,7,2.21,3,3,0,0,1,.75.31c.06,0,.06.22.07.34s-.08.1-.13.13a.37.37,0,0,1-.2.05,40.43,40.43,0,0,1-9.65-2.55,27.44,27.44,0,0,1-6.59-4.07c-.26-.21-.53-.42-.81-.62,0,0-.13,0-.28,0,0,.18,0,.39.13.49a6.15,6.15,0,0,0,2.31,2,1.92,1.92,0,0,1,.74.68c.33.43.62.9.91,1.35a3.26,3.26,0,0,1,.59,2.32,1.43,1.43,0,0,0,.66,1.4c2.9,2.22,6,4,9.72,4.45a14.23,14.23,0,0,1,1.61.27,10.38,10.38,0,0,0,4.26.13,14.81,14.81,0,0,0,10.24-6.1,4.19,4.19,0,0,0,.57-4.23,7.51,7.51,0,0,0-2.94-4,28.83,28.83,0,0,1-2.76-2.17,51.11,51.11,0,0,1-7.13,2.5,22,22,0,0,1-2.59.52c-.53.11-1.06.21-1.59.35-.79.21-1.57.45-2.35.68ZM130.27,3.88l.11,0A10.18,10.18,0,0,0,131.29,5a12.5,12.5,0,0,1,2.42,2.76c1.38,2.18,2.76,4.38,4.11,6.58a14.76,14.76,0,0,1,1.59,4.58.51.51,0,0,1-.74-.26,5.48,5.48,0,0,1-.41-.93,22.36,22.36,0,0,0-2.58-5.09q-1.59-2.51-3.17-5A10.91,10.91,0,0,0,130.24,5a1.52,1.52,0,0,0-.32-.26c-.66-.27-.62-1.25-1.39-1.4s-1.35-.22-2-.38a20.08,20.08,0,0,0-4.62-.82,7.81,7.81,0,0,0-4.85,1.28,17.07,17.07,0,0,1-4.42,2,5.43,5.43,0,0,0-.43.75,4.21,4.21,0,0,1-2.48,2.56,20.24,20.24,0,0,0-2.83,1.59,6.77,6.77,0,0,0-2.62,3.06c-.32.74-.55,1.53-.81,2.3-.19.59-.36,1.17-.52,1.76a8.5,8.5,0,0,0-.33,1.39c-.19,2-.35,3.92-.5,5.88a2.84,2.84,0,0,0,.13,1,28.14,28.14,0,0,0,2.61,6.64,7.05,7.05,0,0,1,.58,1.08,2.4,2.4,0,0,0,2.46,1.71A9.63,9.63,0,0,1,112,36.41a4.14,4.14,0,0,1,2,2.22c.2.51.36,1,.53,1.55,1.24,3.83,2.51,7.65,3.7,11.49a7.52,7.52,0,0,0,3.31,4.48,4.87,4.87,0,0,1,2.62,3.09c.88.3,1.61.49,2.29.8a17.77,17.77,0,0,1,1.72,1l.46-.84c.73-.18.73.64,1.22.69.08-.08.21-.15.22-.24.14-.73.25-1.47.39-2.31a24.53,24.53,0,0,1,9.22-4.95,5.44,5.44,0,0,1,2.83-.06c.38.09.76.22,1.14.33a6.58,6.58,0,0,0,.47-4.19,26.78,26.78,0,0,0-3.3-8.54,10.85,10.85,0,0,0-1.54-1.9c-1.13-1.08-2.29-2.14-3.52-3.11a8.15,8.15,0,0,1-3-6.84A7,7,0,0,1,134,24.94a7,7,0,0,1,3.19-2.76c1.19-.47,2.29-1.19,3.46-1.73a7.55,7.55,0,0,1,4.49-1.06,4.81,4.81,0,0,0,1.41-.09.7.7,0,0,0,.58-.91,6.38,6.38,0,0,0-.29-1,.93.93,0,0,0-.33-.51c-1-.51-.92-1.76-1.78-2.4a23.28,23.28,0,0,1-2.17-2.16c-.72-.71-1.49-1.39-2.22-2.1a26.31,26.31,0,0,0-2.64-2.54c-1-.71-2.2-1-3.19-1.74a15,15,0,0,0-4.17-2.1Zm-32,63.55a19.82,19.82,0,0,0,7,3.75,7.85,7.85,0,0,0,2.21.35c2.11.11,4.23.16,6.34.23l4.05.16a3.1,3.1,0,0,0,.18-1.82,7.13,7.13,0,0,1,.46-2.81,17.23,17.23,0,0,0,.91-3.13,3.81,3.81,0,0,1,2.77-3.43,3.14,3.14,0,0,0,.59-.37,7.3,7.3,0,0,0-.72-.74,22.71,22.71,0,0,1-3.47-3.46,8.54,8.54,0,0,1-2-3.52A6.85,6.85,0,0,0,115,50a4.64,4.64,0,0,0-.21-3c-.74-2.2-1.43-4.41-2.13-6.62A3.78,3.78,0,0,0,111.31,38a6.62,6.62,0,0,0-3.59-1.33,13.93,13.93,0,0,1-2.23-.15c-.39,0-.75-.29-1.14-.38a2.65,2.65,0,0,0-1.17-.12,6.44,6.44,0,0,1-2.43.12A4.52,4.52,0,0,0,96,38.57a6.74,6.74,0,0,1-2.65,2.75A15.19,15.19,0,0,0,87.84,47a29.11,29.11,0,0,1-2.74,3.54A5.57,5.57,0,0,0,84,52.63c-.51,1.91-1.1,3.8-1.58,5.72A17.56,17.56,0,0,0,82,61.17c-.07.88,0,1.78-.07,2.66a35,35,0,0,0,1,9.94,13.7,13.7,0,0,0,4.08,7c.88.84,1.75,1.72,2.67,2.52a11,11,0,0,0,2.13,1.56c1.83.92,3.71,1.73,5.57,2.56,1.31.59,2.61,1.17,3.94,1.69a4.81,4.81,0,0,0,1.58.34c2.86.12,5.71.37,8.58.21a19.68,19.68,0,0,0,4.84-.73c1.24-.37,2.49-.72,3.71-1.16a12.92,12.92,0,0,0,2-1c.65-.37,1.23-.86,1.9-1.18a4.33,4.33,0,0,0,2.33-2.49,15.51,15.51,0,0,1-1.76-.93,18.17,18.17,0,0,1-1.7-1.46c-.5-.46-1-1-1.47-1.42a6.42,6.42,0,0,1-1.81-2.92c-.26-.85-.54-1.69-.82-2.53-.13-.38-.29-.75-.47-1.19-.94.1-1.81.17-2.68.28a46.83,46.83,0,0,1-8.78-.07,8,8,0,0,1-2.94-.79,19,19,0,0,1-5.48-3.52,3.13,3.13,0,0,1-1.2-1.85l0,0C97.71,66.66,98,67.13,98.31,67.43ZM147.36,58A14.78,14.78,0,0,1,151,67.9a2,2,0,0,0,.49,1.69c.25.22.27.74.32,1.13s0,.94,0,1.5a15.21,15.21,0,0,0,6.2,1c1.7-.1,3.39-.25,5.09-.36.68,0,1.36-.07,2-.06.17,0,.34.15.55.24-1.66,1-2.1,1-8.56,1.55.14.46.59.44.9.59a7.28,7.28,0,0,0,1,.35,8.39,8.39,0,0,0,5.22.12l4.49-1.42a9.13,9.13,0,0,0,3.78-2.34,4.11,4.11,0,0,1,2.38-1.46,2.55,2.55,0,0,0,1.54-1L179.52,66a8.7,8.7,0,0,1,1-1,12.77,12.77,0,0,0,3.88-6.57c.26-.85.48-1.71.8-2.53a14.53,14.53,0,0,0,.87-6c-.06-1.43-.16-2.86-.16-4.28a13.85,13.85,0,0,0-.68-4.43c-.38-1.16-.78-2.32-1.11-3.5A17.22,17.22,0,0,0,181.89,33a7,7,0,0,0-1-1.3c-1.43-1.36-2.86-2.72-4.35-4a14.56,14.56,0,0,0-5.11-2.93,5.67,5.67,0,0,1-1.32-.55,15.75,15.75,0,0,0-4.34-1.75c-1.1-.34-2.2-.73-3.27-1.17a10.49,10.49,0,0,0-3.16-.75,30.81,30.81,0,0,0-5.92-.08c-.33,0-.74,0-1,.13a5.36,5.36,0,0,1-3,.45c-.89,0-1.77,0-2.66,0a18.32,18.32,0,0,0-6.52,1.56,11,11,0,0,0-2.55,1.65c-.86.67-1.62,1.46-2.44,2.17a3,3,0,0,0-1,2.15,6.9,6.9,0,0,0,2.69,6.28,49.27,49.27,0,0,1,3.86,3.35,7.54,7.54,0,0,1,2.38,4.19,17.93,17.93,0,0,0,.79,2.75A10.54,10.54,0,0,0,145,47.37a5.16,5.16,0,0,1,.92,3.28c-.07,1-.2,2-.32,3-.06.54-.15,1.08-.23,1.68C146.05,56.24,146.64,57.16,147.36,58ZM125.44,93.4c-1,2.19-2.9,3.38-4.74,4.66a20.86,20.86,0,0,1-2.48,1.41,4,4,0,0,1-2.15.55c0-.11,0-.21.07-.24,1.33-.8,2.71-1.53,4-2.41,1.78-1.22,3.66-2.38,4.75-4.37,1.94-1.86,1.89-4.24,1.82-6.59a1,1,0,0,0-1.21.06,15.63,15.63,0,0,0-2.06,1.31,9.33,9.33,0,0,1-3.11,1.5c-2.15.66-4.28,1.38-6.43,2a2.57,2.57,0,0,0-1.57,1.19,21.12,21.12,0,0,1-4.39,5.08,5.63,5.63,0,0,0-1.85,4.18c0,.95,0,1.9-.18,2.84a6.06,6.06,0,0,0,.71,4,5.76,5.76,0,0,0,4.11.06c2.15-.66,4.29-1.35,6.43-2,.72-.23,1.44-.43,2.14-.69a3.39,3.39,0,0,1,3.14.23,3.35,3.35,0,0,0,.7.25c.94-.3,2-.61,3-1a3.53,3.53,0,0,0,1.06-.58,26.77,26.77,0,0,0,4.37-4.34,4,4,0,0,0-1.91-.71,2.68,2.68,0,0,1-1.72-1.31,9.22,9.22,0,0,1-1-2.67,16,16,0,0,0-.83-3C125.81,93.06,125.54,93.19,125.44,93.4ZM140.12,79l.31.07c0-.11,0-.22,0-.34l-.18,0Zm-1.62-1.47s-.14.1-.13.11.11.15.17.23a3.08,3.08,0,0,0,.24-.26A1.72,1.72,0,0,0,138.5,77.54Z"/><path class="cls-2" d="M179,41.56c-.47.28-.33.64-.31,1a15.76,15.76,0,0,1-3.33,11.08c-1,1.28-2,2.59-3.06,3.84a20.49,20.49,0,0,1-9.61,6.65,36,36,0,0,0-4.76,2c.36.37.67.16.92.09,1.64-.46,3.28-.91,4.9-1.43a19.78,19.78,0,0,0,8.87-6c1.39-1.59,2.66-3.28,3.94-5a13.16,13.16,0,0,0,2.66-6.12c.17-1.08.36-2.15.45-3.24A4.2,4.2,0,0,0,179,41.56Z"/><path class="cls-2" d="M141,30.37c1.58,1.15,2.27,2.88,3.07,4.52a64.21,64.21,0,0,1,5,13.35c.19.79.4,1.59.52,2.39a5.48,5.48,0,0,1-.47,3.58,2,2,0,0,0-.11.51c.43.15.55-.16.68-.35a6.75,6.75,0,0,0,.71-5.7c-.51-2-1.1-3.94-1.74-5.87A66.2,66.2,0,0,0,144,32.57a6,6,0,0,0-2.2-2.35,2.58,2.58,0,0,0-.7-.2Z"/><path class="cls-2" d="M153.16,62c.2,0,.41,0,.54-.05A68.4,68.4,0,0,0,167,51.14a17.64,17.64,0,0,0,3.95-6.84c-.2-.37-.43-.24-.58,0A26.44,26.44,0,0,0,169,46.63a14.31,14.31,0,0,1-3,4.14,66.36,66.36,0,0,1-7.8,6.9c-1.71,1.24-3.33,2.6-5,3.92C153.2,61.65,153.21,61.83,153.16,62Z"/><path class="cls-2" d="M152.7,54.75a3.72,3.72,0,0,0,1.78-1.61,12.35,12.35,0,0,0,2.29-5.2c.48-3,.85-5.94,1.14-8.92a12.39,12.39,0,0,0-1.78-6.34c-.33.12-.35.4-.29.67.18.79.35,1.59.58,2.38a11.57,11.57,0,0,1,.35,4.86c-.22,1.68-.41,3.38-.61,5.07a18,18,0,0,1-2.33,6.93c-.4.71-.73,1.45-1.1,2.18Z"/><polygon class="cls-2" points="152.45 55.36 152.38 55.44 152.41 55.34 152.45 55.36"/><path class="cls-2" d="M152.41,55.34c.09-.2.19-.39.29-.59l0,0c-.09.2-.19.4-.28.59Z"/><path class="cls-2" d="M121.52,84.68c-.81.21-1.47.36-2.11.56-1.75.53-3.5,1.1-5.25,1.63a6.63,6.63,0,0,1-1.77.43,42.73,42.73,0,0,1-6.3.08,6.12,6.12,0,0,0-1.21,0c-.53,0-1,.16-1.69.26.19.24.29.48.41.5,1.87.27,3.68,1,5.62.68h.2a16.09,16.09,0,0,0,7.15-1.26c1.15-.42,2.33-.76,3.47-1.19a5.23,5.23,0,0,0,1.37-.83C121.54,85.42,121.48,85.07,121.52,84.68Z"/><path class="cls-2" d="M99.14,52.07a2.14,2.14,0,0,0,.46,1.52,14.47,14.47,0,0,0,3.8,4.22c1.61,1.24,3.3,2.39,5,3.48a16.08,16.08,0,0,0,5.08,2.06,16.45,16.45,0,0,0,2.22.3,1.24,1.24,0,0,0,.58-.16c.09-.05.14-.2.21-.3-.09-.1-.16-.26-.26-.28a28.92,28.92,0,0,1-11-5.11c-.67-.47-1.31-1-2-1.47a11.49,11.49,0,0,1-3.37-3.77C99.76,52.26,99.56,52,99.14,52.07Z"/><path class="cls-2" d="M117.72,58.71c-1.57-1.42-3.06-2.71-4.49-4.06a37.45,37.45,0,0,1-3.83-4.5,26.78,26.78,0,0,1-2.91-5.41c-.19.52-.32.7-.28.83A14.23,14.23,0,0,0,108,49.89a36.4,36.4,0,0,0,5.76,6.86,11.3,11.3,0,0,0,3.45,2.13C117.26,58.91,117.41,58.81,117.72,58.71Z"/><path class="cls-2" d="M121.76,80.51c-.67.33-.91.43-1.13.55l-2.79,1.68a17,17,0,0,1-6.81,2c-1.42.17-2.85.23-4.26.39-.43,0-1-.1-1.31.44a2.37,2.37,0,0,0,.57.19,47,47,0,0,0,6.71-.18,18.47,18.47,0,0,0,7.32-3A4.12,4.12,0,0,0,121.76,80.51Z"/><path class="cls-2" d="M98.55,85.64l1.31.25C99.64,85.14,99.06,85.43,98.55,85.64Z"/><path class="cls-2" d="M97.15,66.69c0-.1-.09-.2-.14-.3l.17.27Z"/><path class="cls-2" d="M110.6,15.59a4.38,4.38,0,0,0,0,1.06,20.34,20.34,0,0,1,.81,5.64q0,1.53.15,3.06a22.72,22.72,0,0,0,.75,4.62,84.46,84.46,0,0,0,3.19,9.69A24.78,24.78,0,0,0,117,42.6c1.26,2.17,2.58,4.31,3.9,6.45.12.19.38.3.84.65a6.11,6.11,0,0,0-.35-1.05c-.88-1.6-1.74-3.23-2.7-4.8a35.6,35.6,0,0,1-3.28-7.45c-.59-1.81-1.15-3.63-1.75-5.44a23.19,23.19,0,0,1-1.24-6.8c0-1.22-.15-2.44-.19-3.67A12.39,12.39,0,0,0,111,16C111,15.87,110.82,15.79,110.6,15.59Z"/><path class="cls-2" d="M127.34,49.83a5.39,5.39,0,0,0-.34-.9c-1.54-2.67-2.73-5.5-4.12-8.23a58.37,58.37,0,0,1-4.72-14.77c-.38-1.87-.58-3.77-.9-5.66a34.42,34.42,0,0,1-.69-6.08,1.77,1.77,0,0,0-.7-1.7,1.64,1.64,0,0,0-.17.52c0,.34.17.67.16,1-.13,4.07.88,8,1.52,12a55.33,55.33,0,0,0,3.17,11.63c.62,1.58,1.45,3.09,2.22,4.6,1.18,2.31,2.39,4.6,3.61,6.88a5.71,5.71,0,0,0,.76.88Z"/><path class="cls-2" d="M106.53,27.89c-.2-1.16-.32-2-.49-2.75s-.39-1.58-.55-2.38a12.64,12.64,0,0,0-.41-2.41c-.3-.75.22-1.65-.48-2.3a1.54,1.54,0,0,0-.69,1.79A23.18,23.18,0,0,0,106,27.27,6.71,6.71,0,0,0,106.53,27.89Z"/><path class="cls-2" d="M137.86,86.21c-.05-.95-.05-1.9-.18-2.84a11.32,11.32,0,0,0-.56-1.92c0-.06-.24-.11-.35-.09s-.26.15-.27.24a3.06,3.06,0,0,0,0,.8,17.54,17.54,0,0,1-.12,5.46q-.19,1.11-.3,2.22A9.78,9.78,0,0,1,134.25,95a5.08,5.08,0,0,0-.38.69s0,.13,0,.3a2,2,0,0,0,.7-.24,8,8,0,0,0,2.57-5.16c.21-1.47.46-2.94.7-4.41Z"/><path class="cls-2" d="M131.36,92.67l-.14.1.09-.12Z"/><path class="cls-2" d="M131.66,92.14l-.3.53-.05,0,.31-.53Z"/><path class="cls-2" d="M113.86,98.63a3.51,3.51,0,0,0,1.85-1.2c1.73-1.62,3.41-3.31,5.16-4.92.79-.73,1.69-1.35,2.55-2,.42-.33.84-.64,1.35-1-.27-.18-.42-.37-.57-.37a1.58,1.58,0,0,0-.77.2,9.12,9.12,0,0,0-1.87,1.22c-2.71,2.55-5.62,4.93-7.65,8.12Z"/><polygon class="cls-2" points="113.91 98.65 113.89 98.79 113.86 98.63 113.91 98.65"/><path class="cls-2" d="M145,73.62l.21-.26-.24,0c0,.11.06.21.08.32Z"/><path class="cls-2" d="M135.25,69.36a3.61,3.61,0,0,0,0,1q.71,2.43,1.49,4.86a2,2,0,0,0,.44.67.41.41,0,0,0,.36,0,.54.54,0,0,0,.24-.29.68.68,0,0,0,0-.4c-.58-1.8-1.17-3.61-1.79-5.39C135.91,69.63,135.58,69.55,135.25,69.36Z"/><path class="cls-2" d="M129.12,78.16c-.91-.24-1.71-.39-2.46-.67a19.2,19.2,0,0,1-2-1c-.2.61.21.84.51,1.08a4.65,4.65,0,0,0,2.56,1.15A1.23,1.23,0,0,0,129.12,78.16Z"/><path class="cls-2" d="M122.68,68.31a5,5,0,0,0,2.21,2.77c0-.24,0-.44-.06-.54-.68-.78-1-1.86-2.17-2.19Z"/><path class="cls-2" d="M124.27,73.65a4.14,4.14,0,0,0,2.28,1.95C126.2,74.79,126,74.64,124.27,73.65Z"/><path class="cls-2" d="M124.83,61.6l-.84.28C124.32,61.93,124.66,62,124.83,61.6Z"/><path class="cls-2" d="M122.66,68.35l-.21-.11s0,.1.07.1.1,0,.16,0Z"/></g></g></svg>