<svg xmlns="http://www.w3.org/2000/svg" viewBox="0 0 177.2 112.54"><defs><style>.cls-1,.cls-2{fill:#ffece6;}.cls-2,.cls-3{fill-rule:evenodd;}</style></defs><title>twotowels</title><g id="Layer_2" data-name="Layer 2"><g id="BACKGROUND_1" data-name="BACKGROUND 1"><path class="cls-1" d="M62.78,64.7l0-.07s0,0-.08,0Z"/><path class="cls-1" d="M61.64,64.41l0-.07-.06,0Z"/><path class="cls-1" d="M123,38.06s0,0,0-.05h0Z"/><path class="cls-1" d="M65.47,64.08l0,0h0Z"/><path class="cls-1" d="M44.66,66.66l0,0h-.06Z"/><path class="cls-1" d="M40.43,33.86l0,0,0,0Z"/><path class="cls-1" d="M52.37,44.22l-.06-.07,0,.11Z"/><path class="cls-1" d="M8.55,44s0,0,0,0h.05Z"/><path class="cls-1" d="M131.94,25.72a18.41,18.41,0,0,1,.2-3c0-1.8-.09-3.6-.17-5.4a5.27,5.27,0,0,0-.22-1.49c-.5-1.45-1.37-2.72-1.63-4.29a.45.45,0,0,0-.1-.18,22.59,22.59,0,0,0-2.56-3.14,10.42,10.42,0,0,0-6.06-2.89,10,10,0,0,1-5-1.88,4.76,4.76,0,0,0-1.17-.68c-2.27-.74-4.54-1.44-7-1.06-.64.1-1.28.12-1.92.23a2.37,2.37,0,0,1-2-.32,1.86,1.86,0,0,0-2.2,0c-.35.2-.72.34-1.07.53a16.1,16.1,0,0,1-4.43,1.63c-2.6.51-5.11,1.62-7.77,1.75a3.36,3.36,0,0,0-.74.24C86.39,6.32,84.73,7,83,7.4A25.59,25.59,0,0,0,78.6,9c-.66.3-1.32.61-2,.9a3.43,3.43,0,0,1-.92.26.55.55,0,0,1-.48-.26.86.86,0,0,1,.05-.56,4.15,4.15,0,0,1,.39-.67c-.42,0-.72,0-1,0-1.55.12-3.09.27-4.64.36a49.39,49.39,0,0,0-14,3.06,90.78,90.78,0,0,1-10.89,3.2,56.11,56.11,0,0,1-5.74,1,62.42,62.42,0,0,0-6.27,1.32,7.11,7.11,0,0,0-1.63.72c-1.06.55-2.09,1.2-3.17,1.7a48,48,0,0,0-5.78,3.65s0,.12,0,.32L23.71,24c1.68-.09,3.35-.21,5-.28s3.22,0,4.82-.1a39.42,39.42,0,0,1,11.66,1.09,16.24,16.24,0,0,1,5,2.07,15.33,15.33,0,0,0,3.09,1.65c1.91.68,3.17,2.28,4.6,3.67.16.15.18.5.21.78,0,.11-.08.34-.16.36s-.42.06-.49,0c-.38-.57-.71-1.18-1.07-1.76a2.57,2.57,0,0,0-1.53-1.18,18.82,18.82,0,0,1-5.6-2.66,8.7,8.7,0,0,0-3.18-1.4,48.3,48.3,0,0,0-9.36-1c-3,0-5.92.1-8.88.2q-3.67.12-7.33.37a5.44,5.44,0,0,0-2.25.58c-2,1.17-4.2,2.07-5.55,4.21-.16,0-.22.07-.28.05l-.8-.16a11.48,11.48,0,0,0-.81,1.17,19.69,19.69,0,0,0-1,2.12,18.61,18.61,0,0,1-3.33,5.65,8.52,8.52,0,0,0-.91,1.15,9.86,9.86,0,0,0-1,1.87,25.18,25.18,0,0,0-1.75,7.12c-.05.86-.18,1.74-.15,2.6s-.5,1.15-1.13,1.37c.05,1.35.05,2.65.16,3.93a6.08,6.08,0,0,0,.47,1.84,17.68,17.68,0,0,1,1.19,3.14c0,.24.32.4.5.6l0,0c.29-.18.58-.34.91-.16l1.37.71c.67-1.92.57-3.82.94-5.66l-.93-1.65a1.89,1.89,0,0,1-.19-1.44.8.8,0,0,1,.38-.41c.06,0,.26.06.31.16.14.31.2.67.37,1a3.25,3.25,0,0,0,.59.61,5.35,5.35,0,0,0,.56-1.29A4.46,4.46,0,0,0,8,53.65c-.13-.69-.27-1.39-.42-2.08-.38-1.73.27-3.42.35-5.14A10.89,10.89,0,0,1,8.54,44L8,44.06c0-.11-.17-.26-.14-.33a32.81,32.81,0,0,1,2.42-4.9c.4.18.24.45.15.69Q9.75,41.44,9,43.36c.59-.72,1.15-1.45,1.76-2.13.31-.36.66-.81,1.05-.91a5.2,5.2,0,0,0,2.63-2.1c.69-.86,1.35-1.76,2.05-2.61.43-.52.89-1,1.34-1.48,0,.27,0,.54.07.81l0,0c1-.22,1.4-1.39,2.38-1.88.25,1.38-1,1.85-1.28,2.91a4.19,4.19,0,0,0,1.71-.69,13.13,13.13,0,0,0,1.5-1c.49-.36.95-.77,1.44-1.11s.74-1,1.37-1c.28.74-.73,1.12-.32,1.8a3,3,0,0,0,2.69-1.46,5.5,5.5,0,0,1,1.17-1.14c.12-.11.33-.09.51-.13.11.92-.82,1.15-.88,1.9.28.41.69.27,1.05.24,1.92-.13,3.84-.28,5.76-.43a7.5,7.5,0,0,1,4.11.74,1.35,1.35,0,0,0,1.23.2c-1-1.14-2-2.26-3-3.42a4.59,4.59,0,0,1-.66-1.24c0-.1.14-.37.27-.5a.32.32,0,0,1,.35,0c.71.68,1.42,1.38,2.11,2.09,1.75,1.81,3.49,3.65,5.27,5.44a14.72,14.72,0,0,0,1.51,1.2c.17-.59-.15-1.05-.32-1.55a8.17,8.17,0,0,1-.77-2.39c.68.19.79.8,1,1.25.68,1.2,1.29,2.43,2,3.62a5.44,5.44,0,0,0,1.08,1.44,10.54,10.54,0,0,1,2.71,3.75,3.24,3.24,0,0,0,.4.57c-.12-.52-.23-1-.38-1.54s-.4-1.2-.61-1.8A2.59,2.59,0,0,1,51,39.08c.56.53,1,1,1.48,1.42a1.4,1.4,0,0,1,.31.53c.51,1.67,1.34,3.22,1.32,5.11a4.85,4.85,0,0,0,1,3.17,4.69,4.69,0,0,1,.77,2.59.89.89,0,0,1-.35.93l-.75-.2c0,1.48.1,2.92.16,4.35,0,.05.08.09.13.15.88,0,.92-1.1,1.63-1.59a4.85,4.85,0,0,1-.08,1.31,5.2,5.2,0,0,1-.77,1.25,18.73,18.73,0,0,0-1.4,1.82,10.11,10.11,0,0,1-5.16,4.47c-1.1.46-2.21.89-3.29,1.38-.45.21-1,.32-1.27.85l1.14.1a3.55,3.55,0,0,1-2.25,1.8,1.32,1.32,0,0,1-1.45-.23c-.25-.21-.53-.5-.81-.5a2.9,2.9,0,0,0-2.38.74A7.16,7.16,0,0,1,36.6,70a3.68,3.68,0,0,0-1,.61,2.71,2.71,0,0,1-2,.78c-2.5.16-5,.43-7.52.48-2,0-4.08-.18-6.12-.31a3.91,3.91,0,0,1-.93-.26l-2.58-.81-6.9-2.17a1.64,1.64,0,0,1-2.07.15.83.83,0,0,0-1.12.1A3,3,0,0,0,8.65,71.3a10.54,10.54,0,0,0,2,.49,7.37,7.37,0,0,1,2.21.63c.6.24,1.2.49,1.8.7,1.34.48,2.71.84,4,1.42a4,4,0,0,0,2.22.42,13.6,13.6,0,0,1,4.59.3c.5.1,1,.18,1.52.25,2.16.28,4.34.4,6.46.87a4.34,4.34,0,0,0,4.15-1.16c1.43-1.32,3.18-1.91,4.71-3.23,0,.5,0,.83,0,1.23a5.23,5.23,0,0,0,1-.23,18.27,18.27,0,0,1,6.09-1.12c.39,0,.77-.06,1.16-.12a2.3,2.3,0,0,0,.56-.14c.33-.12.43-.66.25-1.23l-.05.11,0-.08c.76-.76,1.27-1.86,2.26-2.27a4.85,4.85,0,0,0,1.8-1.51c.47-.54.82-1.27,1.57-1.41a4.45,4.45,0,0,1-.42.91A13.15,13.15,0,0,1,54,68.85c-.81.61-.87.83-1.09,2.05.06,0,.13.07.17,0l1.61-1.22A13.09,13.09,0,0,0,59.36,64a35.67,35.67,0,0,1,2.21-4.13c.31-.57.72-1.22.47-1.82a3,3,0,0,1,.32-2.66,7.41,7.41,0,0,0,.75-2.69,2.76,2.76,0,0,1-.53.28c-.41.09-.71-.14-.65-.52a7.49,7.49,0,0,1,.25-1c.36-1,.74-2,1.1-3a2.9,2.9,0,0,0,.15-.83c0-.1-.19-.29-.25-.27a2.51,2.51,0,0,0-.57.34c0-.26-.06-.4-.07-.55a1.94,1.94,0,0,1,0-.64c.65-1.95,0-3.67-.54-5.42a9.75,9.75,0,0,1-.35-1A2.06,2.06,0,0,1,62,38.42a3.53,3.53,0,0,0,1,.44,12.77,12.77,0,0,0-1.09-5.8L60.9,34a11.14,11.14,0,0,0,.21-1.6,15.12,15.12,0,0,0-.19-1.84l.93-.08c.32-.75.62-1.45.94-2.16a1.59,1.59,0,0,1,.92-1,5.61,5.61,0,0,1-.24,1c-.28.73-.61,1.44-.93,2.16a1.55,1.55,0,0,0,.09,1.62,5.43,5.43,0,0,1,.72,2,19.3,19.3,0,0,1,.55,7.45l1-1.58c-.14.81-.29,1.63-.44,2.44a5.53,5.53,0,0,0,.23,2.93,11.51,11.51,0,0,0,1.37-2.4,9,9,0,0,1,1.49-2.65,3.56,3.56,0,0,1,0,.78,17.23,17.23,0,0,1-1.43,3.82c-.32.63-.66,1.26-1,1.92-.4.92-.38,1.33,0,2.81.73-.62.76-1.83,1.61-2.5.07.34.19.55.14.72A19.57,19.57,0,0,1,66.26,50c-.46,1.05-1,2.05-1.48,3.09a7,7,0,0,0-.47,1.42A21.47,21.47,0,0,0,64,56.68c-.06.48,0,1-.09,1.75a5.42,5.42,0,0,0,.72-.76c.61-1.12,1.21-2.25,1.79-3.39.32-.64.58-1.31.9-2,.09-.19.15-.61.54-.32a9.78,9.78,0,0,0-.38,1.24,7.49,7.49,0,0,0-.12,1.49c0,.47-.33.3-.47.44a4.7,4.7,0,0,0-.55.9A17.66,17.66,0,0,1,65,58.5a32.17,32.17,0,0,0-3.3,5.84,4.1,4.1,0,0,0,.92-.58c.46-.49.86-1.06,1.29-1.59a9.15,9.15,0,0,1,2.54-2.57l.3-.29c-.07.13-.15.25-.22.37a7.26,7.26,0,0,1-.52.9c-1,1.36-2.1,2.7-3.15,4a4.11,4.11,0,0,0,1.71-1.2c1.53-1.35,3-2.73,4.58-4.08.17-.16.4-.37.65.1-1.17,1.21-2.32,2.49-3.54,3.69a8.18,8.18,0,0,0-.73.9,3.13,3.13,0,0,0,.88-.18c1.24-.64,2.47-1.31,3.7-2A12.76,12.76,0,0,1,71.64,61c3.13-1.2,6.26-2.38,9.59-2.49a7.91,7.91,0,0,0,2.84-.64c2.62-1.05,5.27-2,7.91-3a8.16,8.16,0,0,0,3-1.62,5.78,5.78,0,0,1,1.55-.92l9.41-4.69c0-.54,0-1,.48-1.35.16-.11.31-.28.48-.38A5,5,0,0,0,109,41.94c0-.35-.08-.8.39-1.12a15.54,15.54,0,0,1,.13,1.57c0,.54-.13,1.09-.22,1.76a5.86,5.86,0,0,0,3.48-2.4c.62.43.92.43,1.17,0a2,2,0,0,0,.21-.37,22.19,22.19,0,0,0,1.69-4.64c0-.16.19-.29.46-.67a11.92,11.92,0,0,1,0,1.74A17,17,0,0,1,116,39.5c-.12.45-.52.86-.19,1.47A8.35,8.35,0,0,0,120,38.33a11.76,11.76,0,0,1,1.3-1.34,9.57,9.57,0,0,0,2.14-2.83c.07-.14.26-.2.51-.38,0,.59.09,1,.14,1.62.7-.81,1.3-1.47,1.87-2.17.34-.44.63-.93,1-1.4s.7-.69.91-.45.25.63-.13,1.17a19.54,19.54,0,0,1-1.58,1.93c-.76.8-1.57,1.54-2.36,2.31A2.15,2.15,0,0,0,123,38a1.31,1.31,0,0,0,.5-.2A14.19,14.19,0,0,1,127,35.37c2.67-1.46,4-4,4.8-7.11A6.12,6.12,0,0,0,131.94,25.72Z"/><path class="cls-1" d="M9,43.51a.88.88,0,0,0,0-.15l-.08.1Z"/><path class="cls-1" d="M46.22,37.48l0,0a.07.07,0,0,1,0,0Z"/><path class="cls-2" d="M38.94,59.71l.25.61a8.07,8.07,0,0,0,2.54-2.69c.38,0,.75.28.54.6a13.21,13.21,0,0,1-3.58,4,3.43,3.43,0,0,1-2.38.74,5.38,5.38,0,0,0-1.13.08c-.2-.29-.33-.67-.57-.77a.87.87,0,0,0-1,.39,2.75,2.75,0,0,1-2.37,1.18,11.9,11.9,0,0,1-4-.46c-.54-.13-1.1-.41-1.62.2-.1.13-.36.15-.54.14-2.57-.17-5.12-.35-7.68-.55a8,8,0,0,1-.95-.19,3.35,3.35,0,0,1-2.14-1.27L12.14,59a5.19,5.19,0,0,0-1-1.23c-.58-.37-.59-.84-.5-1.45q.51-3.31,1-6.65s-.06-.11-.09-.17c-.66.6-.66.6-1.72,4.35-.36,0-.39-.29-.48-.54a8.06,8.06,0,0,1-.29-4.44,12.44,12.44,0,0,0,.22-1.49,6.6,6.6,0,0,1,2.84-5,50.58,50.58,0,0,1,6-3.7c1.16-.66,2.28-1.42,3.43-2.12.46-.27.94-.5,1.4-.77a2.14,2.14,0,0,1,2.38.14c.26-.19.54-.37.8-.6a2.6,2.6,0,0,1,1.61-.67c2.25-.17,4.5-.34,6.75-.55a2.31,2.31,0,0,1,2.38,1c.13.2.4.28.83.56l-.47-1.25c.13,0,.21-.11.26-.09,2.67,1.13,5.4,2.13,7.68,4.15,1,.88,2.1,1.6,3.16,2.38a3.37,3.37,0,0,1,1.41,2.18,5.31,5.31,0,0,0,1.13,2.45A6.1,6.1,0,0,1,52,48.36c.28,1.33.61,2.64.88,4a26.31,26.31,0,0,1,.27,5.82,3.4,3.4,0,0,1-.57,1.59A6.19,6.19,0,0,1,50.28,62c-.81.45-1.66.84-2.49,1.24l-4,1.87a2,2,0,0,1-1.28.39.81.81,0,0,0-.68.26c-1,1.19-2.35,1.13-3.52,1.69-.21.1-.5,0-.74-.11a.69.69,0,0,0-.87.25,2.4,2.4,0,0,1-1.65,1c-1.08.29-2.14.63-3.2,1A2,2,0,0,1,30,69.4a2.44,2.44,0,0,0-1.27-.4,20.62,20.62,0,0,0-4.23,0,2.84,2.84,0,0,1-.77,0c-1.4-.13-2.81-.28-4.21-.43-.44-.06-.54-.27-.54-1.17l1.25.37c0-.2.11-.39.07-.43-.43-.42-.89-.79-1.31-1.21a5.12,5.12,0,0,1-.51-.81,6.56,6.56,0,0,1,1.12-.09c1.41.11,2.81.28,4.22.38a18.78,18.78,0,0,0,2.12,0c1.28-.08,2.57-.21,3.85-.29a5.25,5.25,0,0,1,2.29.19,3.52,3.52,0,0,0,1.34.07c1-.05,2-.18,3.08-.21a4.88,4.88,0,0,0,2.93-1c2.12-1.65,4.54-2.55,6.85-3.71a2.15,2.15,0,0,0,1.11-.83c1-1.79,2.33-3.36,2.44-5.62-.58-.22-.56.68-1.08.75-.06-.11-.23-.26-.23-.41.15-3.28-1.52-5.48-3.37-7.58a6.23,6.23,0,0,1-.82-.89,6.51,6.51,0,0,0-4.22-2.94c-1.54-.45-3.08-.89-4.61-1.36-.2-.07-.35-.32-.55-.52,1-.68,2.13-.37,3.2-1.21l-2.11-.38c-.24-.79.69-1.44,0-2.18l-.92.57c-.07-.33-.13-.65-.19-.95-.43-.08-.6.28-.8.55-.59.78-1.14,1.61-1.78,2.33a2.4,2.4,0,0,1-1.17.72c-1.39.38-1.75,0-1.66-1.75,0-.11-.12-.23-.23-.45a3.44,3.44,0,0,0-.74.61A10.12,10.12,0,0,0,28,40.16a1.87,1.87,0,0,1-.39.49.59.59,0,0,1-.36.16c-.24,0-.49-.05-.67-.06-.33-.44.16-1.24-.52-1.31-.47,0-.54.53-.69.91-.56,1.52-1.81,2.24-2.84,3.2l-1.1-.81c-.15.31-.31.49-.31.67a3.19,3.19,0,0,1-.83,2.15c-.61.73-1.16,1.54-1.75,2.34a2.86,2.86,0,0,0-.48-.32.43.43,0,0,0-.35,0,.63.63,0,0,0-.16.36.74.74,0,0,0,0,.42,2.92,2.92,0,0,1-.06,2.5c-.34-2-.34-2-1.18-2.71A8.83,8.83,0,0,0,13.67,53c.61-.44.6-.45,1.1-1.55A3.9,3.9,0,0,1,16,49.67c.3,1.07.59,2.06.84,3a2,2,0,0,1-.08.63c-.07.42-.15.84-.22,1.24a7.63,7.63,0,0,1,1.37,1.15,8.47,8.47,0,0,1,.8,1.69c.17.39.29.8.48,1.17a1.83,1.83,0,0,0,2.44,1,13.08,13.08,0,0,1,3.83-.36,2,2,0,0,1,1.06.41c.62.35,1.22.76,1.85,1.11a2.27,2.27,0,0,0,2.23.09,4.22,4.22,0,0,1,1.28-.47c2.37-.25,4.75-.46,7.13-.68Zm-1.83,1.72-.18-.29a4.94,4.94,0,0,0-.84.39.75.75,0,0,0-.35.89.32.32,0,0,0,.13.15c.38.15.6-.14.8-.43S37,61.67,37.11,61.43Z"/><path class="cls-2" d="M39.15,44.52c-.17.06-.41.07-.5.2a.6.6,0,0,0,.11.53,6.66,6.66,0,0,0,1.33.79,23.16,23.16,0,0,0,2.55.86,2.33,2.33,0,0,1,1.79,2l-.43.5c-.13.41-.26.81-.4,1.21a3.06,3.06,0,0,0-.1.41c0,.06,0,.13.08.19a1.49,1.49,0,0,0,0-.21c0-.14,0-.28,0-.43.49-.26.43-.73.39-1.2l.43-.5L46,51.33l0,0c-.28.16-.65.25-.81.5-.42.65-.69,1.41-1.09,2.07-.55.89-1.17,1.74-1.77,2.59a.34.34,0,0,1-.34,0,.51.51,0,0,1-.14-.36.77.77,0,0,1,.17-.38,3,3,0,0,0,.84-2.12,4.94,4.94,0,0,0-.64-2.84,9.27,9.27,0,0,1-.9-2.08c-.13-.31-.15-.71-.55-.77v-.14l0,.11c0,.28,0,.57-.06,1-.63-.17-1.21-.35-1.81-.48s-1.41-.17-2.07-.37-1.16-.58-1.75-.81A6.75,6.75,0,0,0,34,47c.13.47.22.79.35,1.24-.48.17-1,.52-1.42.48a3,3,0,0,1-1.32-.77c-.46-.37-.86-.84-1.3-1.24a1,1,0,0,0-.52-.23.38.38,0,0,0-.33.14.52.52,0,0,0-.06.39c.18.69,1,.94,1,1.74l0,0a1.88,1.88,0,0,1-2.29.26,6.4,6.4,0,0,1-3.57,1.4l0,0a5.43,5.43,0,0,0,1.19-2.63,2.73,2.73,0,0,0-1.05,1.11,13.26,13.26,0,0,1-2.18,2.76,7.11,7.11,0,0,0-1.28,1.9.73.73,0,0,0,0,.58.41.41,0,0,0,.67.08c.37-.29.69-.65,1-1,.79.33.59,1.16.71,1.77a4.41,4.41,0,0,0,4.3.77c.09.13.21.28.32.45a.77.77,0,0,0,1.18.28c.5-.32.94-.78,1.43-1.11.18-.12.45-.05.79-.08l-.43,1.35,1,1.48,0,0A13.7,13.7,0,0,0,27.53,58a2.88,2.88,0,0,1-2.19-.53A5.57,5.57,0,0,0,24,56.81a.64.64,0,0,0-.83.43l.7,1.07a4.8,4.8,0,0,1-3.17-1c.25-.46.41-.77.58-1.07,0-.12,0-.33-.11-.37-1.06-.48-1.61-1.55-2.31-2.45a1.42,1.42,0,0,1-.17-1.23c.18-.7.36-1.39.53-2.09a7.41,7.41,0,0,1,3-4.18c.52-.38,1-.94,1.74-.84.21,0,.54-.37.72-.65.43-.64.8-1.33,1.2-2a17.26,17.26,0,0,1,3.84-.49c.5.2.43.56.57.78s.55.45.81.22.8-.74,1.25-1.15a2.18,2.18,0,0,1,.65.38,5.78,5.78,0,0,0,3.43,1.69c.94.18,1.85.49,2.78.74ZM20.36,50.31l-1,1.27c.82-.42.82-.42.95-1.26h0Z"/><path class="cls-2" d="M27.83,51.07a4.84,4.84,0,0,1,.76-.61A8.11,8.11,0,0,1,34,49.58a3,3,0,0,0,1.15,0,2.14,2.14,0,0,1,2.1.78c1.19-.93,2.21-.58,3.15.35a7.67,7.67,0,0,1,.79.92,2.51,2.51,0,0,1,0,3c-.7.86-1.51,1.6-2.34,2.48l-1.48.13a1.33,1.33,0,0,0-1.15.68,1.15,1.15,0,0,1-1.58.36,5.73,5.73,0,0,1-2.24-1.87c.8-.9.8-.9,1.69.17a3.75,3.75,0,0,1,1.06-.27,3.23,3.23,0,0,0,2.9-1.92c-.13-.1-.26-.22-.4-.32a10.23,10.23,0,0,0-2.25-1.54,10.35,10.35,0,0,0-2.63-.27c-.06,0-.1-.09-.18-.15l.35-.9c-1.63-.23-1.63-.23-3.21,1.18l-1.56-.47,0,0-.46-.89Z"/><path class="cls-2" d="M10.84,62.39a10.7,10.7,0,0,1,5.27,2.71,7.42,7.42,0,0,0-.52,1.1,9.09,9.09,0,0,0-.19,1.36c-.71.25-1.32-.17-2-.31,0-.58,0-1.12-.06-1.64-.3,0-.3,0-1.09,1a2.93,2.93,0,0,1-1.84-1.38c.18-1.06.34-2,.5-2.86Z"/><path class="cls-2" d="M10.87,62.35A2,2,0,0,0,10,63.44c-.28.65-.57,1.29-.89,2a3.81,3.81,0,0,1-2-1.07c.19-1.57.37-3.11.58-4.87.67.63,1.19,1.12,1.71,1.59s1,.86,1.48,1.28Z"/><path class="cls-2" d="M46,51.33A1.54,1.54,0,0,1,47.17,53c0,.43,0,.87,0,1.3a2.06,2.06,0,0,1-.6,1.56,12.55,12.55,0,0,1-2.92,2.64,7.64,7.64,0,0,0,.71-1.34c.11-.39,0-.87.1-1.25.3-.88.7-1.73,1.07-2.58A3.56,3.56,0,0,0,46,51.28Z"/><path class="cls-2" d="M28.21,51.89c.15.36.31.73.51,1.17l-1.93,1.09-.9-.95a5.91,5.91,0,0,1,1.94-2.13l0,0c.13.31.06.76.46.89Z"/><path class="cls-2" d="M9.94,59.71a3.44,3.44,0,0,1-1.73-2.05,1.81,1.81,0,0,1,.23-1.61c.14,0,.31,0,.35.07a5.44,5.44,0,0,1,.41,1C9.44,57.87,9.65,58.67,9.94,59.71Z"/><path class="cls-2" d="M16.42,68c.1-.88-.2-1.67.62-2.17.92.43,1,1.36,1.22,2.52Z"/><path class="cls-2" d="M24.55,50.35l.88,1.21L24.31,53l-.68-.8.94-1.85Z"/><path class="cls-2" d="M31.26,59.37A3.43,3.43,0,0,1,28.39,59C29.55,59,30.34,58.62,31.26,59.37Z"/><path class="cls-2" d="M39.12,44.57c1.25-.28,2.14.6,3.6,1.2a5.59,5.59,0,0,1-3.57-1.25Z"/><path class="cls-2" d="M34.12,54.47c-.31,0-.63,0-.93-.09-.08,0-.18-.18-.18-.28a.38.38,0,0,1,.17-.32c.35-.08.71-.11,1.19-.17l-.29.9Z"/><path class="cls-2" d="M60.77,66.12c.15.35.17.69-.2.87a1.46,1.46,0,0,1-.69.05s-.09-.25-.09-.38a.51.51,0,0,1,.47-.54,3.37,3.37,0,0,1,.55,0Z"/><path class="cls-2" d="M120,40.55A3.25,3.25,0,0,1,121.8,39l0,0A2.35,2.35,0,0,1,120,40.51Z"/><path class="cls-2" d="M26.18,55.3a6.91,6.91,0,0,1-.65-.38.89.89,0,0,1-.18-.35c.15,0,.36-.14.47-.07a3,3,0,0,1,.52.55Z"/><path class="cls-2" d="M44.63,66.62c-.14.62-.68.48-1.11.65.08-.14.13-.37.24-.41a5.57,5.57,0,0,1,.9-.2Z"/><path class="cls-2" d="M16.84,36.76a2,2,0,0,1,.73-1.33l0,0a1.6,1.6,0,0,1-.74,1.32Z"/><path class="cls-2" d="M20.67,70.17c-.49.1-.66.15-.82.17s-.11,0-.17-.07.12-.21.18-.22A5,5,0,0,1,20.67,70.17Z"/><path class="cls-2" d="M34.08,54.51c.18,0,.37,0,.55.05,0,0,.08.14.07.16a1.39,1.39,0,0,1-.25.21,3.54,3.54,0,0,1-.33-.46Z"/><path class="cls-2" d="M46.64,58.21c0,.58-.24.83-1.08.81l1.12-.78Z"/><path class="cls-2" d="M40,58.2l-.12-.06c.08-.08.15-.18.23-.25s.07,0,.11.06Z"/><path class="cls-2" d="M16.8,36.72a3,3,0,0,1,0,.61c0,.07-.17.11-.27.16,0-.1-.08-.25,0-.31a2.56,2.56,0,0,1,.39-.42Z"/><path class="cls-2" d="M122.57,38.59l-.8.41,0,0,.8-.4Z"/><path class="cls-2" d="M10.56,66.37l-.38-.2c.05,0,.12-.08.14-.07a2.75,2.75,0,0,1,.22.26Z"/><path class="cls-2" d="M65.45,64.05c-.12.46-.47.39-.77.43l0,0,.81-.44Z"/><path class="cls-2" d="M30.39,48.73l.27.12a.25.25,0,0,1-.13,0,.55.55,0,0,1-.12-.14Z"/><path class="cls-2" d="M119.14,41l-.22.26a.32.32,0,0,1,.08-.14.58.58,0,0,1,.18-.08Z"/><path class="cls-2" d="M120,40.51c-.18.4-.51.42-.84.46l0,0a.78.78,0,0,1,.82-.46Z"/><path class="cls-2" d="M52.34,44.26l.17.26a.87.87,0,0,1-.09-.11,1.33,1.33,0,0,1-.05-.19Z"/><polygon class="cls-2" points="60.81 66.11 60.88 66.13 60.77 66.12 60.81 66.11"/><polygon class="cls-2" points="64.68 64.48 64.64 64.59 64.66 64.52 64.68 64.48"/><polygon class="cls-2" points="62.75 64.66 62.7 64.81 62.78 64.7 62.75 64.66"/><path class="cls-2" d="M61.61,64.37l-.16.1-.15-.1h0a.62.62,0,0,0,.38,0Z"/><polygon class="cls-2" points="61.3 64.37 61.19 64.36 61.26 64.36 61.3 64.37"/><polygon class="cls-2" points="10.54 66.36 10.62 66.41 10.56 66.37 10.54 66.36"/><path class="cls-2" d="M6.28,65.35l0,0Z"/><path class="cls-2" d="M6.31,65.38a.27.27,0,0,1-.07-.08l0,0Z"/><polygon class="cls-2" points="3.82 63.05 3.92 63.06 3.85 63.01 3.82 63.05"/><path class="cls-2" d="M39,59.75l0,0Z"/><path class="cls-2" d="M46.68,58.24,46.8,58s0,.1,0,.12a.59.59,0,0,1-.14.06Z"/><path class="cls-2" d="M32.29,58.1l0,0Z"/><path class="cls-2" d="M123,38l-.39.57,0,0,.38-.57Z"/><path class="cls-2" d="M8.94,43.46,8.55,44l0,0L9,43.51Z"/><polygon class="cls-2" points="46.19 37.52 46.31 37.45 46.22 37.48 46.19 37.52"/><polygon class="cls-2" points="40.4 33.9 40.4 33.98 40.42 33.86 40.4 33.9"/><path class="cls-2" d="M17.94,35c0,.27-.14.44-.4.44l0,0,.35-.49Z"/><path class="cls-3" d="M112.34,44.61c-1.42,1.17-2.82,2.36-4.26,3.49a10.47,10.47,0,0,1-1.71,1c-1,.48-1.92.91-2.87,1.36l-5.56,2.68A13.45,13.45,0,0,0,94.87,55a5.2,5.2,0,0,1-1.59.81c-3.06,1.21-6.12,2.42-9.21,3.55A10.3,10.3,0,0,1,81,60a28.24,28.24,0,0,0-8.86,2.27,3.32,3.32,0,0,0-.54.25c-2.56,1.45-5.09,3-7.68,4.33a42.87,42.87,0,0,1-6.25,3,8.31,8.31,0,0,0-2.55,1.6,9.48,9.48,0,0,1-5.1,1.93c-1,.11-1.93.14-2.89.21a8.18,8.18,0,0,0-4.22,1.48,20.46,20.46,0,0,1-3.18,1.66,4,4,0,0,1-1.32.25,6.43,6.43,0,0,0-2.07.52,5.9,5.9,0,0,1-1.88.34,4,4,0,0,1-.76-.12,15.12,15.12,0,0,1-5.45-1c-2.7.06-5.3-.91-8-.57-2.08.25-4-.63-6-1.33a2.52,2.52,0,0,1-.76-.61,3.87,3.87,0,0,0-3-1.23c-2.53.13-4.34-1.4-6.11-3a2.76,2.76,0,0,1-.79-2.31A16.55,16.55,0,0,1,3.92,66c-.32-.36-.7-.74-1-1.17a6.33,6.33,0,0,1-1-1.55A8.42,8.42,0,0,0,.63,60.87a3.06,3.06,0,0,1-.56-1.78,45.71,45.71,0,0,1,1-12.93,5.81,5.81,0,0,1,.34-1,62.49,62.49,0,0,1,4.73-9.08C7.08,34.72,8,33.37,8.83,32a38.74,38.74,0,0,1,3.07-4c.41-.53.92-.93,1.39-.08a23.87,23.87,0,0,1,4.7-3c2.28-1.24,4.48-2.69,6.7-4.05.63-.39,1.24-.83,1.88-1.19,1.63-.91,3.27-1.79,4.92-2.68a10.58,10.58,0,0,1,3.69-1.3,17,17,0,0,0,1.71-.4,19.51,19.51,0,0,1,2.47-.55,75.84,75.84,0,0,0,8-1.6A61.88,61.88,0,0,0,54.72,11a65.47,65.47,0,0,1,16-3.29c2.13-.16,4.25-.41,6.37-.52a25.06,25.06,0,0,0,7.74-1.92,2.6,2.6,0,0,0,1.35-.82,2.57,2.57,0,0,1,1.75-.85c1.08-.21,2.15-.47,3.24-.65a12.34,12.34,0,0,1,2.69-.31,11.31,11.31,0,0,0,4.73-1q1.56-.6,3.12-1.23A3.76,3.76,0,0,1,104.52.2a2.18,2.18,0,0,0,.75.15c2.44,0,4.88,0,7.32-.09a3.15,3.15,0,0,1,1.69.26c.67.39,1.3.9,2.16.56.17-.07.46.17.66.34a11.36,11.36,0,0,1,.84.86,3.2,3.2,0,0,0,1.68.93c1.82.4,3.62.88,5.43,1.33a6.13,6.13,0,0,1,3.78,2.64c.46.68,1,1.26,1.52,1.91a20.86,20.86,0,0,1,2.38,3.31,13,13,0,0,1,1.3,5.35c0,.79.11,1.57.15,2.35a37,37,0,0,1-.31,9.28c-.39,1.86-2,4.7-3.47,5.35-1.22.54-2.26,1.41-3.46,2a8.07,8.07,0,0,0-2.46,1.76,17.05,17.05,0,0,1-6,3.94c-1.52.62-3,1.28-4.56,1.92-.63-.68-1.09-.12-1.56.34ZM6.28,65.35l0,0a.27.27,0,0,0,.07.08Zm55-1h-.07l.11,0,.15.1.16-.1a4.89,4.89,0,0,0,1-.61c.46-.49.86-1.06,1.29-1.59a9,9,0,0,1,2.54-2.56l.08.07a7.26,7.26,0,0,1-.52.9q-1.59,2.07-3.2,4.12l-.08.11,0-.15a3.81,3.81,0,0,0,1.79-1.23c1.53-1.35,3-2.73,4.58-4.08.17-.16.4-.37.65.1-1.17,1.21-2.32,2.49-3.54,3.69a10.37,10.37,0,0,0-.76.94l-.81.44,0,.07,0-.11c.3,0,.65,0,.77-.43a3.57,3.57,0,0,0,.93-.19c1.24-.64,2.47-1.31,3.7-2A12.76,12.76,0,0,1,71.64,61c3.13-1.2,6.26-2.38,9.59-2.49a7.91,7.91,0,0,0,2.84-.64c2.62-1.05,5.27-2,7.91-3a8.16,8.16,0,0,0,3-1.62,5.78,5.78,0,0,1,1.55-.92l9.41-4.69c0-.54,0-1,.48-1.35.16-.11.31-.28.48-.38A5,5,0,0,0,109,41.94c0-.35-.08-.8.39-1.12a15.54,15.54,0,0,1,.13,1.57c0,.54-.13,1.09-.22,1.76a5.86,5.86,0,0,0,3.48-2.4c.62.43.92.43,1.17,0a2,2,0,0,0,.21-.37,22.19,22.19,0,0,0,1.69-4.64c0-.16.19-.29.46-.67a11.92,11.92,0,0,1,0,1.74A17,17,0,0,1,116,39.5c-.12.45-.52.86-.19,1.47A8.35,8.35,0,0,0,120,38.33a11.76,11.76,0,0,1,1.3-1.34,9.57,9.57,0,0,0,2.14-2.83c.07-.14.26-.2.51-.38,0,.59.09,1,.14,1.62.7-.81,1.3-1.47,1.87-2.17.34-.44.63-.93,1-1.4s.7-.69.91-.45.25.63-.13,1.17a19.54,19.54,0,0,1-1.58,1.93c-.76.8-1.57,1.54-2.36,2.31a2.14,2.14,0,0,0-.72,1.27l-.38.57-.8.4a3.25,3.25,0,0,0-1.8,1.52.78.78,0,0,0-.82.46.58.58,0,0,0-.18.08.32.32,0,0,0-.08.14l.22-.26c.33,0,.66-.06.84-.46A2.35,2.35,0,0,0,121.77,39l.8-.41L123,38c.18-.07.41-.08.54-.21A14.19,14.19,0,0,1,127,35.37c2.67-1.46,4-4,4.8-7.11a6.12,6.12,0,0,0,.18-2.54,18.41,18.41,0,0,1,.2-3c0-1.8-.09-3.6-.17-5.4a5.27,5.27,0,0,0-.22-1.49c-.5-1.45-1.37-2.72-1.63-4.29a.45.45,0,0,0-.1-.18,22.59,22.59,0,0,0-2.56-3.14,10.42,10.42,0,0,0-6.06-2.89,10,10,0,0,1-5-1.88,4.76,4.76,0,0,0-1.17-.68c-2.27-.74-4.54-1.44-7-1.06-.64.1-1.28.12-1.92.23a2.37,2.37,0,0,1-2-.32,1.86,1.86,0,0,0-2.2,0c-.35.2-.72.34-1.07.53a16.1,16.1,0,0,1-4.43,1.63c-2.6.51-5.11,1.62-7.77,1.75a3.36,3.36,0,0,0-.74.24C86.39,6.32,84.73,7,83,7.4A25.59,25.59,0,0,0,78.6,9c-.66.3-1.32.61-2,.9a3.43,3.43,0,0,1-.92.26.55.55,0,0,1-.48-.26.86.86,0,0,1,.05-.56,4.15,4.15,0,0,1,.39-.67c-.42,0-.72,0-1,0-1.55.12-3.09.27-4.64.36a49.39,49.39,0,0,0-14,3.06,90.78,90.78,0,0,1-10.89,3.2,56.11,56.11,0,0,1-5.74,1,62.42,62.42,0,0,0-6.27,1.32,7.11,7.11,0,0,0-1.63.72c-1.06.55-2.09,1.2-3.17,1.7a48,48,0,0,0-5.78,3.65s0,.12,0,.32L23.71,24c1.68-.09,3.35-.21,5-.28s3.22,0,4.82-.1a39.42,39.42,0,0,1,11.66,1.09,16.24,16.24,0,0,1,5,2.07,15.33,15.33,0,0,0,3.09,1.65c1.91.68,3.17,2.28,4.6,3.67.16.15.18.5.21.78,0,.11-.08.34-.16.36s-.42.06-.49,0c-.38-.57-.71-1.18-1.07-1.76a2.57,2.57,0,0,0-1.53-1.18,18.82,18.82,0,0,1-5.6-2.66,8.7,8.7,0,0,0-3.18-1.4,48.3,48.3,0,0,0-9.36-1c-3,0-5.92.1-8.88.2q-3.67.12-7.33.37a5.44,5.44,0,0,0-2.25.58c-2,1.17-4.2,2.07-5.55,4.21-.16,0-.22.07-.28.05l-.8-.16a11.48,11.48,0,0,0-.81,1.17,19.69,19.69,0,0,0-1,2.12,18.61,18.61,0,0,1-3.33,5.65,8.52,8.52,0,0,0-.91,1.15,9.86,9.86,0,0,0-1,1.87,25.18,25.18,0,0,0-1.75,7.12c-.05.86-.18,1.74-.15,2.6s-.5,1.15-1.13,1.37c.05,1.35.05,2.65.16,3.93a6.08,6.08,0,0,0,.47,1.84,17.68,17.68,0,0,1,1.19,3.14c0,.24.32.4.5.6l.07.05h-.1c.29-.18.58-.34.91-.16l1.37.71c.67-1.92.57-3.82.94-5.66l-.93-1.65a1.89,1.89,0,0,1-.19-1.44.8.8,0,0,1,.38-.41c.06,0,.26.06.31.16.14.31.2.67.37,1a3.25,3.25,0,0,0,.59.61,5.35,5.35,0,0,0,.56-1.29A4.46,4.46,0,0,0,8,53.65c-.13-.69-.27-1.39-.42-2.08-.38-1.73.27-3.42.35-5.14A11.39,11.39,0,0,1,8.55,44l.39-.49c.61-.74,1.2-1.51,1.84-2.23.31-.36.66-.81,1.05-.91a5.2,5.2,0,0,0,2.63-2.1c.69-.86,1.35-1.76,2.05-2.61.44-.53.91-1,1.37-1.51l0,0c0,.29,0,.58.07.87l-.35.49a2,2,0,0,0-.73,1.33,2.56,2.56,0,0,0-.39.42c0,.06,0,.21,0,.31.1-.05.26-.09.27-.16a3,3,0,0,0,0-.61,1.6,1.6,0,0,0,.74-1.32c.26,0,.38-.17.4-.44,1-.22,1.4-1.39,2.38-1.88.25,1.38-1,1.85-1.28,2.91a4.19,4.19,0,0,0,1.71-.69,13.13,13.13,0,0,0,1.5-1c.49-.36.95-.77,1.44-1.11s.74-1,1.37-1c.28.74-.73,1.12-.32,1.8a3,3,0,0,0,2.69-1.46,5.5,5.5,0,0,1,1.17-1.14c.12-.11.33-.09.51-.13.11.92-.82,1.15-.88,1.9.28.41.69.27,1.05.24,1.92-.13,3.84-.28,5.76-.43a7.5,7.5,0,0,1,4.11.74c.4.2.81.44,1.28.18l0,.12V33.9c-1-1.14-2.06-2.27-3-3.44a4.59,4.59,0,0,1-.66-1.24c0-.1.14-.37.27-.5a.32.32,0,0,1,.35,0c.71.68,1.42,1.38,2.11,2.09,1.75,1.81,3.49,3.65,5.27,5.44a18.18,18.18,0,0,0,1.53,1.22l.09,0-.12.06c.21-.62-.13-1.09-.31-1.6a8.17,8.17,0,0,1-.77-2.39c.68.19.79.8,1,1.25.68,1.2,1.29,2.43,2,3.62a5.44,5.44,0,0,0,1.08,1.44,10.54,10.54,0,0,1,2.71,3.75,5,5,0,0,0,.46.64,1.33,1.33,0,0,0,.05.19.87.87,0,0,0,.09.11l-.17-.26c-.14-.55-.25-1.1-.41-1.65s-.4-1.2-.61-1.8A2.59,2.59,0,0,1,51,39.08c.56.53,1,1,1.48,1.42a1.4,1.4,0,0,1,.31.53c.51,1.67,1.34,3.22,1.32,5.11a4.85,4.85,0,0,0,1,3.17,4.69,4.69,0,0,1,.77,2.59.89.89,0,0,1-.35.93l-.75-.2c0,1.48.1,2.92.16,4.35,0,.05.08.09.13.15.88,0,.92-1.1,1.63-1.59a4.85,4.85,0,0,1-.08,1.31,5.2,5.2,0,0,1-.77,1.25,18.73,18.73,0,0,0-1.4,1.82,10.11,10.11,0,0,1-5.16,4.47c-1.1.46-2.21.89-3.29,1.38-.46.22-1,.32-1.3.89a5.57,5.57,0,0,0-.9.2c-.11,0-.16.27-.24.41.43-.17,1,0,1.11-.65l1.2.1a3.55,3.55,0,0,1-2.25,1.8,1.32,1.32,0,0,1-1.45-.23c-.25-.21-.53-.5-.81-.5a2.9,2.9,0,0,0-2.38.74A7.16,7.16,0,0,1,36.6,70a3.68,3.68,0,0,0-1,.61,2.71,2.71,0,0,1-2,.78c-2.5.16-5,.43-7.52.48-2,0-4.08-.18-6.12-.31a3.91,3.91,0,0,1-.93-.26l-2.58-.81-6.9-2.17a1.64,1.64,0,0,1-2.07.15.83.83,0,0,0-1.12.1A3,3,0,0,0,8.65,71.3a10.54,10.54,0,0,0,2,.49,7.37,7.37,0,0,1,2.21.63c.6.24,1.2.49,1.8.7,1.34.48,2.71.84,4,1.42a4,4,0,0,0,2.22.42,13.6,13.6,0,0,1,4.59.3c.5.1,1,.18,1.52.25,2.16.28,4.34.4,6.46.87a4.34,4.34,0,0,0,4.15-1.16c1.43-1.32,3.18-1.91,4.71-3.23,0,.5,0,.83,0,1.23a5.23,5.23,0,0,0,1-.23,18.27,18.27,0,0,1,6.09-1.12c.39,0,.77-.06,1.16-.12a2.3,2.3,0,0,0,.56-.14c.33-.12.43-.66.25-1.23l0,0c.76-.76,1.27-1.86,2.26-2.27a4.85,4.85,0,0,0,1.8-1.51c.48-.55.83-1.3,1.61-1.42l0,0a5.51,5.51,0,0,1-.44.95A13.15,13.15,0,0,1,54,68.85c-.81.61-.87.83-1.09,2.05.06,0,.13.07.17,0l1.61-1.22A13.09,13.09,0,0,0,59.36,64a35.67,35.67,0,0,1,2.21-4.13c.31-.57.72-1.22.47-1.82a3,3,0,0,1,.32-2.66,7.41,7.41,0,0,0,.75-2.69,2.76,2.76,0,0,1-.53.28c-.41.09-.71-.14-.65-.52a7.49,7.49,0,0,1,.25-1c.36-1,.74-2,1.1-3a2.9,2.9,0,0,0,.15-.83c0-.1-.19-.29-.25-.27a2.51,2.51,0,0,0-.57.34c0-.26-.06-.4-.07-.55a1.94,1.94,0,0,1,0-.64c.65-1.95,0-3.67-.54-5.42a9.75,9.75,0,0,1-.35-1A2.06,2.06,0,0,1,62,38.42a3.53,3.53,0,0,0,1,.44,12.77,12.77,0,0,0-1.09-5.8l-1,1,0,0a11.94,11.94,0,0,0,.22-1.67,15.12,15.12,0,0,0-.19-1.84l.93-.08c.32-.75.62-1.45.94-2.16a1.56,1.56,0,0,1,.94-1h0a5.82,5.82,0,0,1-.24,1c-.28.73-.61,1.44-.93,2.16a1.55,1.55,0,0,0,.09,1.62,5.43,5.43,0,0,1,.72,2,19.3,19.3,0,0,1,.55,7.45c.44-.68.76-1.17,1.09-1.66l0,0c-.15.85-.31,1.71-.46,2.56a5.53,5.53,0,0,0,.23,2.93,11.51,11.51,0,0,0,1.37-2.4,9,9,0,0,1,1.49-2.65,3.56,3.56,0,0,1,0,.78,17.23,17.23,0,0,1-1.43,3.82c-.32.63-.66,1.26-1,1.92-.4.92-.38,1.33,0,2.81.73-.62.76-1.83,1.61-2.5.07.34.19.55.14.72A19.57,19.57,0,0,1,66.26,50c-.46,1.05-1,2.05-1.48,3.09a7,7,0,0,0-.47,1.42A21.47,21.47,0,0,0,64,56.68c-.06.48,0,1-.09,1.75a5.42,5.42,0,0,0,.72-.76c.61-1.12,1.21-2.25,1.79-3.39.32-.64.58-1.31.9-2,.09-.19.15-.61.54-.32a9.78,9.78,0,0,0-.38,1.24,7.49,7.49,0,0,0-.12,1.49c0,.47-.33.3-.47.44a4.7,4.7,0,0,0-.55.9A17.66,17.66,0,0,1,65,58.5a32.9,32.9,0,0,0-3.33,5.91A.62.62,0,0,1,61.26,64.36Zm-50.7,2,.06,0-.08,0a2.75,2.75,0,0,0-.22-.26s-.09,0-.14.07Zm36.12-8.13L45.56,59c.84,0,1.08-.23,1.08-.81a.59.59,0,0,0,.14-.06s0-.08,0-.12Zm14.13,7.87a3.37,3.37,0,0,0-.55,0,.51.51,0,0,0-.47.54c0,.13.05.37.09.38a1.46,1.46,0,0,0,.69-.05c.37-.18.35-.52.2-.87h.11ZM34.12,54.47a3.54,3.54,0,0,0,.33.46,1.39,1.39,0,0,0,.25-.21s0-.16-.07-.16c-.18,0-.37,0-.55-.05l.29-.9c-.48.06-.84.09-1.19.17a.38.38,0,0,0-.17.32c0,.1.1.27.18.28C33.49,54.44,33.81,54.44,34.12,54.47ZM10.84,62.39c-.49-.42-1-.84-1.48-1.28s-1-1-1.71-1.59c-.21,1.76-.39,3.3-.58,4.87a3.81,3.81,0,0,0,2,1.07c.32-.73.61-1.37.89-2a2,2,0,0,1,.89-1.09c-.16.9-.32,1.8-.5,2.86a2.93,2.93,0,0,0,1.84,1.38c.79-1,.79-1,1.09-1,0,.52,0,1.06.06,1.64.72.14,1.33.56,2,.31a9.09,9.09,0,0,1,.19-1.36,7.42,7.42,0,0,1,.52-1.1A10.7,10.7,0,0,0,10.84,62.39Zm17.37-10.5,1.56.47C31.35,51,31.35,51,33,51.18l-.35.9c.08.06.12.14.18.15a10.35,10.35,0,0,1,2.63.27A10.23,10.23,0,0,1,37.69,54c.14.1.27.22.4.32a3.23,3.23,0,0,1-2.9,1.92,3.75,3.75,0,0,0-1.06.27c-.89-1.07-.89-1.07-1.69-.17a5.73,5.73,0,0,0,2.24,1.87,1.15,1.15,0,0,0,1.58-.36,1.33,1.33,0,0,1,1.15-.68l1.48-.13c.83-.88,1.64-1.62,2.34-2.48a2.51,2.51,0,0,0,0-3,7.67,7.67,0,0,0-.79-.92c-.94-.93-2-1.28-3.15-.35a2.14,2.14,0,0,0-2.1-.78,3,3,0,0,1-1.15,0,8.11,8.11,0,0,0-5.44.88,4.84,4.84,0,0,0-.76.61,5.91,5.91,0,0,0-1.94,2.13l.9.95,1.93-1.09C28.52,52.62,28.36,52.25,28.21,51.89Zm4.1,6.18,0,0-1-1.48.43-1.35c-.34,0-.61,0-.79.08-.49.33-.93.79-1.43,1.11a.77.77,0,0,1-1.18-.28c-.11-.17-.23-.32-.32-.45a4.41,4.41,0,0,1-4.3-.77c-.12-.61.08-1.44-.71-1.77-.35.33-.67.69-1,1a.41.41,0,0,1-.67-.08.73.73,0,0,1,0-.58,7.11,7.11,0,0,1,1.28-1.9,13.26,13.26,0,0,0,2.18-2.76,2.73,2.73,0,0,1,1.05-1.11,5.43,5.43,0,0,1-1.19,2.63l-.94,1.85.68.8,1.12-1.46-.88-1.21A6.4,6.4,0,0,0,28.12,49a1.88,1.88,0,0,0,2.29-.26.55.55,0,0,0,.12.14.25.25,0,0,0,.13,0l-.27-.12c-.05-.8-.84-1-1-1.74a.52.52,0,0,1,.06-.39.38.38,0,0,1,.33-.14,1,1,0,0,1,.52.23c.44.4.84.87,1.3,1.24a3,3,0,0,0,1.32.77c.45,0,.94-.31,1.42-.48-.13-.45-.22-.77-.35-1.24a6.75,6.75,0,0,1,1.19.21c.59.23,1.14.62,1.75.81s1.38.23,2.07.37,1.18.31,1.81.48c0-.41,0-.7.06-1l0,0c.4.06.42.46.55.77a9.27,9.27,0,0,0,.9,2.08,4.94,4.94,0,0,1,.64,2.84,3,3,0,0,1-.84,2.12.77.77,0,0,0-.17.38.51.51,0,0,0,.14.36.34.34,0,0,0,.34,0c.6-.85,1.22-1.7,1.77-2.59.4-.66.67-1.42,1.09-2.07.16-.25.53-.34.81-.5a3.56,3.56,0,0,1-.49,2.07c-.37.85-.77,1.7-1.07,2.58-.13.38,0,.86-.1,1.25a7.64,7.64,0,0,1-.71,1.34,12.55,12.55,0,0,0,2.92-2.64,2.06,2.06,0,0,0,.6-1.56c0-.43,0-.87,0-1.3A1.54,1.54,0,0,0,46,51.33l-1.6-2.51,0,0a2.33,2.33,0,0,0-1.79-2A23.16,23.16,0,0,1,40.09,46a6.66,6.66,0,0,1-1.33-.79.6.6,0,0,1-.11-.53c.09-.13.33-.14.5-.2a5.59,5.59,0,0,0,3.57,1.25c-1.46-.6-2.35-1.48-3.6-1.2-.93-.25-1.84-.56-2.78-.74a5.78,5.78,0,0,1-3.43-1.69,2.18,2.18,0,0,0-.65-.38c-.45.41-.84.8-1.25,1.15s-.6.12-.81-.22-.07-.58-.57-.78a17.26,17.26,0,0,0-3.84.49c-.4.67-.77,1.36-1.2,2-.18.28-.51.68-.72.65-.75-.1-1.22.46-1.74.84a7.41,7.41,0,0,0-3,4.18c-.17.7-.35,1.39-.53,2.09a1.42,1.42,0,0,0,.17,1.23c.7.9,1.25,2,2.31,2.45.07,0,.08.25.11.37-.17.3-.33.61-.58,1.07a4.8,4.8,0,0,0,3.17,1l-.7-1.07a.64.64,0,0,1,.83-.43,5.57,5.57,0,0,1,1.39.67,2.88,2.88,0,0,0,2.19.53A13.7,13.7,0,0,1,32.31,58.07ZM39,59.75c-2.38.22-4.76.43-7.13.68a4.22,4.22,0,0,0-1.28.47,2.27,2.27,0,0,1-2.23-.09c-.63-.35-1.23-.76-1.85-1.11a2,2,0,0,0-1.06-.41,13.08,13.08,0,0,0-3.83.36,1.83,1.83,0,0,1-2.44-1c-.19-.37-.31-.78-.48-1.17a8.47,8.47,0,0,0-.8-1.69,7.63,7.63,0,0,0-1.37-1.15c.07-.4.15-.82.22-1.24a2,2,0,0,0,.08-.63c-.25-1-.54-2-.84-3a3.9,3.9,0,0,0-1.19,1.77c-.5,1.1-.49,1.11-1.1,1.55a8.83,8.83,0,0,1,2.67-4.86c.84.68.84.68,1.18,2.71a2.92,2.92,0,0,0,.06-2.5.74.74,0,0,1,0-.42.63.63,0,0,1,.16-.36.43.43,0,0,1,.35,0,2.86,2.86,0,0,1,.48.32c.59-.8,1.14-1.61,1.75-2.34a3.19,3.19,0,0,0,.83-2.15c0-.18.16-.36.31-.67l1.1.81c1-1,2.28-1.68,2.84-3.2.15-.38.22-1,.69-.91.68.07.19.87.52,1.31.18,0,.43.06.67.06a.59.59,0,0,0,.36-.16,1.87,1.87,0,0,0,.39-.49A10.12,10.12,0,0,1,28.57,39a3.44,3.44,0,0,1,.74-.61c.11.22.24.34.23.45-.09,1.71.27,2.13,1.66,1.75a2.4,2.4,0,0,0,1.17-.72c.64-.72,1.19-1.55,1.78-2.33.2-.27.37-.63.8-.55.06.3.12.62.19.95l.92-.57c.71.74-.22,1.39,0,2.18l2.11.38c-1.07.84-2.21.53-3.2,1.21.2.2.35.45.55.52,1.53.47,3.07.91,4.61,1.36A6.51,6.51,0,0,1,44.37,46a6.23,6.23,0,0,0,.82.89c1.85,2.1,3.52,4.3,3.37,7.58,0,.15.17.3.23.41.52-.07.5-1,1.08-.75-.11,2.26-1.49,3.83-2.44,5.62a2.15,2.15,0,0,1-1.11.83c-2.31,1.16-4.73,2.06-6.85,3.71a4.88,4.88,0,0,1-2.93,1c-1,0-2,.16-3.08.21a3.52,3.52,0,0,1-1.34-.07,5.25,5.25,0,0,0-2.29-.19c-1.28.08-2.57.21-3.85.29a18.78,18.78,0,0,1-2.12,0c-1.41-.1-2.81-.27-4.22-.38a6.56,6.56,0,0,0-1.12.09,5.12,5.12,0,0,0,.51.81c.42.42.88.79,1.31,1.21,0,0,0,.23-.07.43L19,67.39c0,.9.1,1.11.54,1.17,1.4.15,2.81.3,4.21.43a2.84,2.84,0,0,0,.77,0,20.62,20.62,0,0,1,4.23,0,2.44,2.44,0,0,1,1.27.4,2,2,0,0,0,1.85.21c1.06-.32,2.12-.66,3.2-1a2.4,2.4,0,0,0,1.65-1,.69.69,0,0,1,.87-.25c.24.07.53.21.74.11,1.17-.56,2.56-.5,3.52-1.69a.81.81,0,0,1,.68-.26,2,2,0,0,0,1.28-.39l4-1.87c.83-.4,1.68-.79,2.49-1.24a6.19,6.19,0,0,0,2.33-2.3,3.4,3.4,0,0,0,.57-1.59,26.31,26.31,0,0,0-.27-5.82c-.27-1.33-.6-2.64-.88-4a6.1,6.1,0,0,0-1.2-2.86,5.31,5.31,0,0,1-1.13-2.45,3.37,3.37,0,0,0-1.41-2.18c-1.06-.78-2.17-1.5-3.16-2.38-2.28-2-5-3-7.68-4.15-.05,0-.13,0-.26.09l.47,1.25c-.43-.28-.7-.36-.83-.56a2.31,2.31,0,0,0-2.38-1c-2.25.21-4.5.38-6.75.55a2.6,2.6,0,0,0-1.61.67c-.26.23-.54.41-.8.6a2.14,2.14,0,0,0-2.38-.14c-.46.27-.94.5-1.4.77-1.15.7-2.27,1.46-3.43,2.12a50.58,50.58,0,0,0-6,3.7,6.6,6.6,0,0,0-2.84,5,12.44,12.44,0,0,1-.22,1.49,8.06,8.06,0,0,0,.29,4.44c.09.25.12.58.48.54,1.06-3.75,1.06-3.75,1.72-4.35,0,.06.1.12.09.17q-.49,3.33-1,6.65c-.09.61-.08,1.08.5,1.45a5.19,5.19,0,0,1,1,1.23l2.13,2.73A3.35,3.35,0,0,0,16.41,63a8,8,0,0,0,.95.19c2.56.2,5.11.38,7.68.55.18,0,.44,0,.54-.14.52-.61,1.08-.33,1.62-.2a11.9,11.9,0,0,0,4,.46,2.75,2.75,0,0,0,2.37-1.18.87.87,0,0,1,1-.39c.24.1.37.48.57.77A5.38,5.38,0,0,1,36.31,63a3.43,3.43,0,0,0,2.38-.74,13.21,13.21,0,0,0,3.58-4c.21-.32-.16-.6-.54-.6a8.07,8.07,0,0,1-2.54,2.69l-.25-.61Zm-29,0c-.29-1-.5-1.84-.74-2.63a5.44,5.44,0,0,0-.41-1c0-.07-.21,0-.35-.07a1.81,1.81,0,0,0-.23,1.61A3.44,3.44,0,0,0,9.94,59.71ZM16.42,68l1.84.35C18,67.14,18,66.21,17,65.78,16.22,66.28,16.52,67.07,16.42,68Zm14.84-8.58c-.92-.75-1.71-.42-2.87-.41A3.43,3.43,0,0,0,31.26,59.37ZM26.18,55.3l.16-.25a3,3,0,0,0-.52-.55c-.11-.07-.32,0-.47.07a.89.89,0,0,0,.18.35A6.91,6.91,0,0,0,26.18,55.3ZM20.67,70.17a5,5,0,0,0-.81-.12c-.06,0-.12.14-.18.22s.12.08.17.07S20.18,70.27,20.67,70.17ZM40,58.21l.22-.26s-.1-.08-.11-.06-.15.17-.23.25Z"/><path class="cls-3" d="M112.31,44.65l.33,0-.3-.08Z"/><path class="cls-3" d="M79.14,55.62a12,12,0,0,1,3.17-3.74c.84-.7,1.72-1.31,2.58-2a40.21,40.21,0,0,0,5.22-4.57c.26-.29.5-.7,1-.58.28.25.12.55,0,.74a40.9,40.9,0,0,1-2.75,3.09A42.39,42.39,0,0,1,85,51.3Q82.72,53,80.46,54.74c-.43.32-.9.57-1.35.85Z"/><path class="cls-3" d="M86.54,54.18a10.86,10.86,0,0,1,2-2.42c2.54-2.2,4.75-4.82,7.11-7.25.47-.49,1-1,1.48-1.49,0,.22.09.39,0,.45a84,84,0,0,1-9.53,10.45,2.63,2.63,0,0,1-.86.41S86.65,54.26,86.54,54.18Z"/><path class="cls-3" d="M113.9,18.64c.38-.56.72-.61,1-.39a3.33,3.33,0,0,1,.92,1,14,14,0,0,1,1.26,4.23,1.56,1.56,0,0,1,0,.64.42.42,0,0,1-.24.28c-.1,0-.3,0-.34-.06a14.36,14.36,0,0,1-.86-1.87A12.54,12.54,0,0,0,113.9,18.64Z"/><path class="cls-3" d="M70.19,28.22l-1.11,2.25a51.62,51.62,0,0,0-3,6.36c-.08.23-.32.4-.64.78a3.13,3.13,0,0,1-.08-1c.43-1.13.88-2.27,1.4-3.36A35.75,35.75,0,0,1,69.86,28Z"/><path class="cls-3" d="M117.63,14.77a1.61,1.61,0,0,1,.56-.12.86.86,0,0,1,.48.3A13,13,0,0,1,120.93,20c0,.11-.18.34-.31.44s-.27,0-.34-.06a3.48,3.48,0,0,1-.43-.69q-1-2.14-2-4.29C117.75,15.22,117.71,15,117.63,14.77Z"/><path class="cls-3" d="M121.81,14.46c.37.15.6.16.69.3a5,5,0,0,1,.7,1.25c.35,1,.62,2,.94,3.07C122.94,18.44,122.59,17.76,121.81,14.46Z"/><path class="cls-3" d="M9,43.51,8.59,44,8,44.06c0-.11-.17-.26-.14-.33a32.81,32.81,0,0,1,2.42-4.9c.4.18.24.45.15.69C10,40.85,9.47,42.18,9,43.51Z"/><path class="cls-3" d="M100.78,45.56a3,3,0,0,1-.15.62c-.83,1.48-1.66,3-2.52,4.42-.06.09-.34.08-.49,0s-.12-.22-.15-.35a.41.41,0,0,1,0-.21,17.15,17.15,0,0,1,3.11-4.46c.05,0,.12,0,.19,0Z"/><path class="cls-3" d="M96.76,32.21c.1.14.28.28.29.44a5.72,5.72,0,0,1-1.14,3.73c-.22-1.57.73-2.74.46-4.09Z"/><path class="cls-3" d="M126.5,18.62a4,4,0,0,1-1.2-2.69c0-.13.16-.33.29-.44s.26,0,.31.13a4.8,4.8,0,0,1,.78,2.74C126.68,18.41,126.61,18.47,126.5,18.62Z"/><path class="cls-3" d="M110.9,24.59c-.39,0-.41-.36-.46-.62s-.06-.56-.09-.84-.07-.57-.09-.85-.24-.5,0-.85c.13.09.32.15.39.29a1.44,1.44,0,0,1,.16.6C110.85,23.07,110.87,23.83,110.9,24.59Z"/><path class="cls-3" d="M87.9,36.28a4.69,4.69,0,0,1-.23,2.44c0,.1-.27.16-.42.2a.57.57,0,0,1-.13-.35c.13-.55.29-1.1.46-1.65A4.69,4.69,0,0,1,87.9,36.28Z"/><path class="cls-3" d="M15.25,72.28a2.59,2.59,0,0,1,2.19.85A2.66,2.66,0,0,1,15.25,72.28Z"/><path class="cls-3" d="M80.56,32.86a5.07,5.07,0,0,1-1.07,2.65l0,0A3,3,0,0,1,80.6,32.9Z"/><path class="cls-3" d="M63.73,27.31a1.36,1.36,0,0,1,.8-1.23c-.13.52-.26,1.05-.82,1.22Z"/><path class="cls-3" d="M60.11,35.41v1.08c-.54-.5-.25-.77,0-1.05Z"/><path class="cls-3" d="M79.49,35.51c0,.1-.09.21-.13.31s0-.1,0-.14a1.66,1.66,0,0,1,.13-.14Z"/><path class="cls-3" d="M79.11,55.59c-.08.09-.15.19-.23.27s-.09,0-.13-.06l.39-.18Z"/><path class="cls-3" d="M100.82,45.59c0-.15.09-.3.13-.44,0,0,.08.12.07.13a3.22,3.22,0,0,1-.24.28Z"/><path class="cls-3" d="M65,39.85c.1-.31.2-.62.31-.93l0,0c-.1.3-.21.61-.32.91Z"/><path class="cls-3" d="M60.54,35c0-.38,0-.72.35-.89l0,0c.06.38.08.73-.34.89Z"/><path class="cls-3" d="M80.6,32.9c-.07-.39,0-.72.35-.89l0,0c0,.37,0,.71-.36.88Z"/><path class="cls-3" d="M81,32c.1-.31.2-.63.29-.94l0,0c0,.36.11.74-.29.95Z"/><polygon class="cls-3" points="51.35 70.38 51.3 70.49 51.32 70.41 51.35 70.38"/><polygon class="cls-3" points="57.38 64.75 57.44 64.59 57.34 64.71 57.38 64.75"/><path class="cls-3" d="M66.81,59.16l-.31.52-.08-.07.42-.41Z"/><path class="cls-3" d="M67.13,58.66c0,.28-.08.45-.32.5l0,0c.1-.17.21-.33.32-.5Z"/><polygon class="cls-3" points="67.16 58.7 67.24 58.66 67.13 58.66 67.16 58.7"/><path class="cls-3" d="M57.34,64.71l-.37.47,0,0c0-.29.13-.44.39-.46Z"/><path class="cls-3" d="M65.3,38.92l0,0Z"/><path class="cls-3" d="M60.15,35.44l.39-.49,0,0c-.13.16-.26.33-.4.49Z"/><polygon class="cls-3" points="81.24 31.07 81.36 31 81.21 31.03 81.24 31.07"/><path class="cls-3" d="M17.88,34.1c.12-.16.25-.3.38-.45l0,0-.39.44Z"/><polygon class="cls-3" points="18.26 33.65 18.29 33.58 18.24 33.63 18.26 33.65"/><path class="cls-3" d="M37.11,61.43c-.14.24-.28.49-.44.71s-.42.58-.8.43a.32.32,0,0,1-.13-.15.75.75,0,0,1,.35-.89,4.94,4.94,0,0,1,.84-.39Z"/><path class="cls-3" d="M20.32,50.32c-.13.84-.13.84-.95,1.26l1-1.27Z"/><path class="cls-3" d="M44,49.32c0,.47.1.94-.39,1.2l0,0c.14-.4.27-.8.4-1.21Z"/><path class="cls-3" d="M43.58,50.52c0,.15,0,.29,0,.43a1.49,1.49,0,0,1,0,.21c0-.06-.09-.13-.08-.19a3.06,3.06,0,0,1,.1-.41Z"/><path class="cls-3" d="M44,49.35l.43-.5,0,0-.43.5Z"/><polygon class="cls-3" points="20.36 50.31 20.43 50.32 20.32 50.32 20.36 50.31"/><polygon class="cls-3" points="40.85 47.87 40.81 47.76 40.81 47.9 40.85 47.87"/><path class="cls-3" d="M28.25,51.94c-.4-.13-.33-.58-.46-.89Z"/><path class="cls-1" d="M105.67,99.34l0-.07s0,0-.08,0Z"/><path class="cls-1" d="M104.53,99.05l0-.07-.06,0Z"/><path class="cls-1" d="M165.87,72.69a.06.06,0,0,0,0,0h0Z"/><path class="cls-1" d="M108.36,98.72l0,0h0Z"/><path class="cls-1" d="M87.55,101.29l0,0h-.06Z"/><path class="cls-1" d="M83.31,68.5h0l0,0Z"/><path class="cls-1" d="M95.26,78.86l-.06-.07,0,.11Z"/><path class="cls-1" d="M51.44,78.59v0h0Z"/><path class="cls-1" d="M174.82,60.36a19.55,19.55,0,0,1,.21-3c0-1.8-.09-3.6-.17-5.41a5.2,5.2,0,0,0-.22-1.48c-.5-1.45-1.37-2.72-1.64-4.3a.36.36,0,0,0-.1-.18,23.81,23.81,0,0,0-2.55-3.13A10.42,10.42,0,0,0,164.29,40a10,10,0,0,1-5-1.88,4.76,4.76,0,0,0-1.17-.68c-2.27-.74-4.54-1.44-7-1.06-.64.1-1.29.12-1.92.23a2.37,2.37,0,0,1-2-.32,1.86,1.86,0,0,0-2.2,0c-.35.2-.72.34-1.07.53a16.22,16.22,0,0,1-4.43,1.63c-2.6.51-5.11,1.62-7.77,1.75a3.11,3.11,0,0,0-.75.24c-1.67.55-3.33,1.21-5,1.63a25.29,25.29,0,0,0-4.43,1.62c-.66.3-1.32.61-2,.9a3.43,3.43,0,0,1-.92.26.56.56,0,0,1-.48-.26.86.86,0,0,1,.05-.56,4.15,4.15,0,0,1,.39-.67c-.43,0-.72,0-1,0-1.54.12-3.08.27-4.63.36a49.39,49.39,0,0,0-14,3.06A88.93,88.93,0,0,1,88,50q-2.85.66-5.74,1a59.75,59.75,0,0,0-6.27,1.32,7.11,7.11,0,0,0-1.63.72c-1.06.55-2.09,1.2-3.17,1.7a48,48,0,0,0-5.78,3.65s0,.12,0,.31l1.29-.07c1.68-.09,3.35-.21,5-.28s3.22,0,4.82-.1A39.45,39.45,0,0,1,88.1,59.35a16,16,0,0,1,5,2.07,15.85,15.85,0,0,0,3.09,1.65c1.91.68,3.17,2.28,4.59,3.66a1.53,1.53,0,0,1,.22.78c0,.12-.08.35-.16.37s-.42.06-.49,0c-.38-.57-.71-1.18-1.07-1.76a2.53,2.53,0,0,0-1.53-1.18,18.61,18.61,0,0,1-5.6-2.67A8.85,8.85,0,0,0,89,60.84a48.3,48.3,0,0,0-9.36-1c-3,0-5.92.1-8.88.2q-3.68.12-7.33.37a5.29,5.29,0,0,0-2.25.58c-2,1.17-4.2,2.07-5.55,4.21a1.15,1.15,0,0,1-.28,0l-.8-.16a11.48,11.48,0,0,0-.81,1.17,19.69,19.69,0,0,0-1,2.12A18.61,18.61,0,0,1,49.35,74a7.8,7.8,0,0,0-.91,1.15,9.86,9.86,0,0,0-1,1.87,25.18,25.18,0,0,0-1.75,7.12c-.05.86-.18,1.73-.15,2.59s-.5,1.16-1.13,1.38c0,1.34,0,2.65.16,3.93a6.08,6.08,0,0,0,.47,1.84,17.68,17.68,0,0,1,1.19,3.14c0,.24.32.4.49.6l0,0a.87.87,0,0,1,.91-.17c.43.24.87.46,1.37.72.67-1.92.57-3.82.94-5.66L49,90.93a1.9,1.9,0,0,1-.19-1.44.76.76,0,0,1,.38-.41c.06,0,.26.06.3.16.15.31.21.67.38,1a3,3,0,0,0,.59.6A5.3,5.3,0,0,0,51,89.53a4.46,4.46,0,0,0-.17-1.24c-.13-.7-.27-1.39-.42-2.08-.38-1.74.27-3.43.35-5.14a10.89,10.89,0,0,1,.65-2.44l-.51.07c-.05-.11-.17-.26-.14-.33a32.34,32.34,0,0,1,2.42-4.9c.4.18.24.45.15.68-.47,1.29-1,2.56-1.44,3.85.59-.72,1.15-1.45,1.76-2.13.31-.36.66-.82,1-.91a5.24,5.24,0,0,0,2.63-2.1c.69-.86,1.35-1.76,2-2.61.43-.52.89-1,1.34-1.48,0,.27,0,.54.07.81l0,0c1-.22,1.4-1.39,2.38-1.88.25,1.38-1,1.84-1.28,2.91a4.19,4.19,0,0,0,1.71-.69,13.13,13.13,0,0,0,1.5-1c.49-.36,1-.77,1.44-1.12s.74-1,1.37-1c.28.74-.73,1.12-.32,1.8a3,3,0,0,0,2.69-1.46A5.5,5.5,0,0,1,71.49,66c.12-.11.33-.09.51-.13.11.92-.82,1.15-.88,1.9.28.41.69.27,1,.24,1.92-.13,3.84-.28,5.76-.43a7.41,7.41,0,0,1,4.11.73,1.3,1.3,0,0,0,1.23.2c-1-1.13-2-2.25-3-3.41a4.74,4.74,0,0,1-.66-1.24c0-.1.14-.37.27-.5a.32.32,0,0,1,.35,0c.71.68,1.42,1.38,2.11,2.09,1.75,1.81,3.49,3.65,5.27,5.44a14.72,14.72,0,0,0,1.51,1.2c.17-.6-.15-1-.32-1.55A8.17,8.17,0,0,1,88,68.16c.68.18.79.8,1,1.25.68,1.19,1.29,2.43,2,3.62a5.44,5.44,0,0,0,1.08,1.44,10.67,10.67,0,0,1,2.71,3.75,3.66,3.66,0,0,0,.4.57c-.12-.52-.23-1-.38-1.54s-.4-1.2-.62-1.8a2.65,2.65,0,0,1-.36-1.73c.56.53,1,1,1.48,1.42a1.44,1.44,0,0,1,.31.52c.51,1.68,1.34,3.23,1.32,5.12A4.85,4.85,0,0,0,98,84a4.69,4.69,0,0,1,.77,2.58.9.9,0,0,1-.35.94l-.76-.21c.06,1.49.11,2.93.17,4.36,0,0,.08.09.12.15.89,0,.93-1.11,1.64-1.59a5.29,5.29,0,0,1-.08,1.31,5.34,5.34,0,0,1-.77,1.24,18.86,18.86,0,0,0-1.4,1.83A10.15,10.15,0,0,1,92.14,99c-1.1.46-2.21.88-3.29,1.38-.45.21-1,.32-1.27.85l1.14.1a3.55,3.55,0,0,1-2.25,1.8,1.36,1.36,0,0,1-1.46-.23c-.24-.21-.52-.5-.8-.5a2.9,2.9,0,0,0-2.38.74,7.13,7.13,0,0,1-2.34,1.47,3.71,3.71,0,0,0-1,.62,2.71,2.71,0,0,1-2,.78c-2.5.16-5,.43-7.52.47-2,0-4.08-.18-6.13-.3a4.36,4.36,0,0,1-.92-.26l-2.58-.81L52.46,103a1.65,1.65,0,0,1-2.08.15.82.82,0,0,0-1.11.1,3,3,0,0,0,2.27,2.72,11.32,11.32,0,0,0,2.05.49,7.37,7.37,0,0,1,2.21.63c.6.24,1.19.49,1.8.7,1.33.47,2.7.84,4,1.42a4,4,0,0,0,2.22.42,13.62,13.62,0,0,1,4.59.3c.5.1,1,.18,1.52.24,2.15.29,4.34.41,6.46.88a4.34,4.34,0,0,0,4.15-1.16c1.43-1.32,3.18-1.92,4.71-3.23,0,.5,0,.83,0,1.23a5.23,5.23,0,0,0,1-.23,18,18,0,0,1,6.09-1.12c.38,0,.77-.07,1.15-.12a2.26,2.26,0,0,0,.57-.14c.33-.13.43-.66.25-1.23l0,.1,0-.07c.76-.76,1.27-1.86,2.26-2.27a4.85,4.85,0,0,0,1.8-1.51c.47-.54.82-1.27,1.57-1.41a4.45,4.45,0,0,1-.42.91,13.15,13.15,0,0,1-2.54,2.72c-.81.61-.88.83-1.09,2.05.06,0,.13.06.17,0l1.61-1.22a13.09,13.09,0,0,0,4.68-5.71,34.1,34.1,0,0,1,2.21-4.13c.31-.57.72-1.22.47-1.82a3,3,0,0,1,.32-2.66,7.41,7.41,0,0,0,.75-2.69,2.76,2.76,0,0,1-.53.28c-.41.09-.71-.15-.65-.52a6.3,6.3,0,0,1,.25-1c.36-1,.74-2,1.1-3a2.89,2.89,0,0,0,.14-.83c0-.1-.18-.29-.24-.27a2.86,2.86,0,0,0-.57.33c0-.25-.06-.39-.07-.54a1.94,1.94,0,0,1,0-.64c.65-2,0-3.67-.54-5.42a9.75,9.75,0,0,1-.35-1,2.06,2.06,0,0,1,.26-1.61,3.86,3.86,0,0,0,1,.44,12.77,12.77,0,0,0-1.09-5.8l-.92.92A10.83,10.83,0,0,0,104,67a15.12,15.12,0,0,0-.19-1.84l.93-.08c.32-.75.62-1.46.94-2.16a1.59,1.59,0,0,1,.92-1,6.93,6.93,0,0,1-.24,1c-.28.73-.62,1.44-.93,2.16a1.55,1.55,0,0,0,.09,1.62,5.45,5.45,0,0,1,.72,2,19.16,19.16,0,0,1,.54,7.46c.43-.64.74-1.12,1-1.58-.14.81-.29,1.62-.44,2.44a5.53,5.53,0,0,0,.23,2.93A11.32,11.32,0,0,0,109,77.53a9.11,9.11,0,0,1,1.49-2.64,4.25,4.25,0,0,1,0,.77,17.63,17.63,0,0,1-1.43,3.83c-.33.63-.66,1.26-1,1.92-.4.92-.38,1.33,0,2.81.73-.62.76-1.83,1.61-2.5.07.34.19.55.14.72a19.57,19.57,0,0,1-.74,2.24c-.46,1-1,2-1.48,3.09a6.4,6.4,0,0,0-.47,1.42c-.15.7-.26,1.41-.35,2.13,0,.48,0,1-.08,1.75a5.42,5.42,0,0,0,.72-.76c.61-1.12,1.21-2.25,1.79-3.39.32-.64.58-1.31.9-2,.09-.19.15-.61.54-.32a8.88,8.88,0,0,0-.38,1.24,7.49,7.49,0,0,0-.12,1.49c0,.47-.33.3-.47.44a4.24,4.24,0,0,0-.55.9,17.66,17.66,0,0,1-1.34,2.42,32.17,32.17,0,0,0-3.3,5.84,4.61,4.61,0,0,0,.92-.58c.46-.49.86-1.07,1.29-1.6a9.24,9.24,0,0,1,2.54-2.56l.3-.29-.22.37a8.79,8.79,0,0,1-.52.9c-1,1.36-2.1,2.7-3.15,4a4.11,4.11,0,0,0,1.71-1.2c1.53-1.35,3-2.73,4.58-4.08.17-.16.4-.37.65.1-1.17,1.21-2.32,2.49-3.54,3.68a9.38,9.38,0,0,0-.73.91,2.82,2.82,0,0,0,.88-.19c1.24-.63,2.47-1.31,3.7-2a12.11,12.11,0,0,1,1.55-.89c3.14-1.2,6.27-2.38,9.6-2.49a8.13,8.13,0,0,0,2.84-.64c2.62-1,5.27-2,7.91-3a8.16,8.16,0,0,0,2.95-1.62,5.78,5.78,0,0,1,1.55-.92l9.41-4.69c0-.54,0-1,.48-1.35.16-.11.3-.28.47-.38a5,5,0,0,0,2.2-3.91c0-.35-.08-.8.39-1.12a15.54,15.54,0,0,1,.13,1.57c0,.54-.14,1.09-.22,1.76a5.86,5.86,0,0,0,3.48-2.4c.61.43.92.42,1.17,0a2,2,0,0,0,.21-.37,22.19,22.19,0,0,0,1.69-4.64c0-.16.19-.29.45-.67a10.74,10.74,0,0,1,.05,1.73,14.22,14.22,0,0,1-.45,1.67c-.11.45-.52.86-.18,1.47A8.42,8.42,0,0,0,162.84,73a11.76,11.76,0,0,1,1.3-1.34,9.88,9.88,0,0,0,2.14-2.83c.06-.14.26-.2.51-.39.05.59.08,1,.13,1.63.71-.81,1.31-1.47,1.87-2.18.35-.43.64-.92,1-1.39s.7-.69.91-.45.25.63-.13,1.16A18.56,18.56,0,0,1,169,69.12c-.76.8-1.57,1.54-2.36,2.31a2.13,2.13,0,0,0-.71,1.22,1.23,1.23,0,0,0,.51-.21A14.43,14.43,0,0,1,169.85,70c2.67-1.46,4.05-4.05,4.8-7.11A6,6,0,0,0,174.82,60.36Z"/><path class="cls-1" d="M51.86,78.15c0-.05,0-.1,0-.15l-.08.1Z"/><path class="cls-1" d="M89.11,72.11h0s0,0,0,.05Z"/><path class="cls-2" d="M81.83,94.35l.25.61a8,8,0,0,0,2.54-2.7c.38,0,.75.29.54.61a13.21,13.21,0,0,1-3.58,4,3.48,3.48,0,0,1-2.38.74,5.38,5.38,0,0,0-1.13.08c-.2-.29-.34-.67-.57-.77a.87.87,0,0,0-1,.39,2.75,2.75,0,0,1-2.37,1.18,11.66,11.66,0,0,1-4-.47c-.54-.12-1.1-.4-1.62.21-.1.13-.36.15-.54.14-2.57-.17-5.13-.36-7.69-.55a8.24,8.24,0,0,1-.94-.19,3.35,3.35,0,0,1-2.14-1.27L55,93.62a5,5,0,0,0-1-1.23c-.57-.37-.58-.84-.49-1.45.34-2.22.67-4.43,1-6.65,0-.05-.06-.11-.09-.17-.66.6-.66.6-1.72,4.35-.36,0-.39-.29-.48-.54a8.06,8.06,0,0,1-.29-4.44A13.07,13.07,0,0,0,52.16,82,6.58,6.58,0,0,1,55,77a52,52,0,0,1,6-3.71c1.16-.65,2.28-1.41,3.43-2.11.46-.27.94-.5,1.4-.77a2.15,2.15,0,0,1,2.38.13A8.19,8.19,0,0,0,69,70a2.6,2.6,0,0,1,1.61-.67c2.25-.17,4.5-.34,6.75-.55a2.31,2.31,0,0,1,2.38,1c.13.2.4.28.83.56l-.47-1.25c.13,0,.21-.11.25-.09C83,70.11,85.74,71.11,88,73.13c1,.88,2.1,1.6,3.15,2.38a3.35,3.35,0,0,1,1.42,2.18,5.28,5.28,0,0,0,1.13,2.44A6.29,6.29,0,0,1,94.92,83c.28,1.33.61,2.64.88,4a26.31,26.31,0,0,1,.27,5.82,3.52,3.52,0,0,1-.57,1.59,6.17,6.17,0,0,1-2.33,2.29c-.81.46-1.66.84-2.5,1.25l-4,1.87a2,2,0,0,1-1.28.39.84.84,0,0,0-.69.26c-1,1.18-2.34,1.13-3.52,1.69-.2.09-.49,0-.73-.11a.68.68,0,0,0-.87.25,2.43,2.43,0,0,1-1.66,1c-1.07.29-2.13.63-3.19,1a2,2,0,0,1-1.85-.21,2.44,2.44,0,0,0-1.27-.4,20.62,20.62,0,0,0-4.23,0,3.33,3.33,0,0,1-.77,0c-1.4-.13-2.81-.28-4.21-.44-.44,0-.54-.26-.55-1.16l1.26.37c0-.2.11-.39.07-.43-.43-.42-.89-.79-1.31-1.21a4.86,4.86,0,0,1-.51-.82,7.43,7.43,0,0,1,1.12-.08c1.41.11,2.81.28,4.22.38a18.78,18.78,0,0,0,2.12,0c1.28-.08,2.57-.21,3.85-.29a5.24,5.24,0,0,1,2.29.18,3.13,3.13,0,0,0,1.33.07c1,0,2.06-.17,3.09-.2a5,5,0,0,0,2.93-1c2.12-1.65,4.54-2.55,6.85-3.71a2.15,2.15,0,0,0,1.11-.83c1-1.79,2.33-3.36,2.44-5.62-.58-.22-.56.68-1.08.75-.06-.11-.24-.26-.23-.41.15-3.28-1.53-5.48-3.37-7.59a5.67,5.67,0,0,1-.82-.88A6.47,6.47,0,0,0,83,77.69c-1.54-.45-3.08-.89-4.61-1.36-.2-.07-.35-.33-.55-.52,1-.68,2.13-.38,3.2-1.21L79,74.22c-.24-.79.69-1.44,0-2.18l-.92.57c-.07-.34-.13-.65-.19-1-.43-.08-.6.28-.8.54-.59.79-1.14,1.62-1.78,2.34a2.4,2.4,0,0,1-1.17.72c-1.39.38-1.75,0-1.66-1.75,0-.11-.12-.23-.24-.45a4,4,0,0,0-.74.61,10.92,10.92,0,0,0-.58,1.13,2.4,2.4,0,0,1-.39.49.65.65,0,0,1-.36.16,5.77,5.77,0,0,1-.67-.07c-.33-.43.16-1.23-.52-1.3-.47,0-.54.52-.69.91-.56,1.52-1.81,2.24-2.84,3.2l-1.1-.81c-.15.31-.32.49-.31.67a3.2,3.2,0,0,1-.83,2.14c-.61.74-1.16,1.55-1.75,2.35a2.86,2.86,0,0,0-.48-.32.4.4,0,0,0-.35,0,.63.63,0,0,0-.16.36.7.7,0,0,0,0,.41,3,3,0,0,1-.06,2.51c-.34-2-.34-2-1.19-2.71a8.81,8.81,0,0,0-2.66,4.85c.61-.43.6-.44,1.1-1.54a3.9,3.9,0,0,1,1.19-1.77c.3,1.07.59,2.06.84,3a2,2,0,0,1-.08.63c-.07.42-.15.84-.22,1.23a7.66,7.66,0,0,1,1.37,1.16,8.47,8.47,0,0,1,.8,1.69c.17.39.29.8.48,1.17a1.83,1.83,0,0,0,2.44,1.05c1.27-.49,2.55-.26,3.82-.37a2.15,2.15,0,0,1,1.07.42c.62.35,1.22.76,1.85,1.11a2.27,2.27,0,0,0,2.23.09,4.13,4.13,0,0,1,1.28-.47c2.37-.26,4.75-.46,7.13-.69ZM80,96.07l-.19-.29a5.22,5.22,0,0,0-.83.39.75.75,0,0,0-.35.89.32.32,0,0,0,.13.15c.38.15.6-.14.8-.43S79.85,96.31,80,96.07Z"/><path class="cls-2" d="M82,79.16c-.17.06-.41.06-.5.19a.62.62,0,0,0,.11.54,6.66,6.66,0,0,0,1.33.79,23.16,23.16,0,0,0,2.55.86,2.33,2.33,0,0,1,1.79,1.95l-.43.5c-.13.4-.26.81-.4,1.21a2.73,2.73,0,0,0-.1.41c0,.06,0,.13.08.19a1.49,1.49,0,0,0,0-.21c0-.14,0-.28,0-.43.49-.26.43-.74.39-1.2l.43-.5L88.88,86l0,0c-.27.16-.65.24-.8.5-.42.65-.69,1.41-1.09,2.07-.55.89-1.17,1.73-1.77,2.59a.34.34,0,0,1-.34,0,.53.53,0,0,1-.14-.36.77.77,0,0,1,.17-.38,2.94,2.94,0,0,0,.83-2.12,4.84,4.84,0,0,0-.63-2.84,9.77,9.77,0,0,1-.91-2.08c-.12-.32-.14-.71-.54-.77V82.4l0,.11c0,.28,0,.56-.06,1-.63-.17-1.22-.35-1.81-.48s-1.41-.17-2.07-.37-1.16-.58-1.75-.81a5.94,5.94,0,0,0-1.19-.21c.13.47.22.79.35,1.23-.48.18-1,.53-1.42.49a3,3,0,0,1-1.32-.77c-.46-.37-.86-.84-1.3-1.24a1.13,1.13,0,0,0-.52-.24.42.42,0,0,0-.34.15.55.55,0,0,0,0,.38c.18.7,1,.95,1,1.75l0,0a1.88,1.88,0,0,1-2.29.26A6.4,6.4,0,0,1,67.44,85l0,0a5.43,5.43,0,0,0,1.19-2.63,2.73,2.73,0,0,0-1.05,1.11,13.53,13.53,0,0,1-2.18,2.76,6.6,6.6,0,0,0-1.28,1.9.73.73,0,0,0,0,.58.41.41,0,0,0,.67.08c.37-.29.69-.65,1-1,.78.32.58,1.16.71,1.77a4.41,4.41,0,0,0,4.3.77c.09.13.21.28.32.45a.76.76,0,0,0,1.17.28c.51-.33.94-.78,1.44-1.11.18-.12.45,0,.79-.08l-.43,1.35,1,1.48,0,0a13.7,13.7,0,0,0-4.78-.06,2.87,2.87,0,0,1-2.19-.53,5.57,5.57,0,0,0-1.39-.67.64.64,0,0,0-.83.43l.7,1.07a4.75,4.75,0,0,1-3.17-1c.25-.45.41-.76.58-1.06,0-.13,0-.34-.11-.37A6.89,6.89,0,0,1,61.7,88a1.42,1.42,0,0,1-.17-1.23c.18-.7.36-1.4.53-2.09a7.41,7.41,0,0,1,3-4.18c.52-.39,1-.94,1.74-.84.21,0,.54-.37.72-.65.43-.64.8-1.33,1.2-2a17.25,17.25,0,0,1,3.83-.49c.5.19.44.55.58.78s.55.45.81.22.8-.74,1.25-1.16a2.34,2.34,0,0,1,.65.39,5.75,5.75,0,0,0,3.43,1.69c.94.18,1.85.49,2.78.73ZM63.25,85l-1,1.27c.82-.42.82-.42,1-1.26h0Z"/><path class="cls-2" d="M70.71,85.71a4.79,4.79,0,0,1,.77-.61,8.11,8.11,0,0,1,5.44-.88,3,3,0,0,0,1.15,0,2.13,2.13,0,0,1,2.1.78c1.19-.94,2.21-.58,3.15.35a7.8,7.8,0,0,1,.79.92,2.49,2.49,0,0,1,0,3c-.7.87-1.51,1.61-2.35,2.49l-1.47.13a1.36,1.36,0,0,0-1.16.68c-.41.66-1,.58-1.57.36A5.75,5.75,0,0,1,75.33,91c.79-.9.8-.9,1.69.17a3.75,3.75,0,0,1,1.06-.27A3.23,3.23,0,0,0,81,89c-.13-.1-.26-.22-.41-.32a10,10,0,0,0-2.24-1.54,10.35,10.35,0,0,0-2.63-.28c-.06,0-.1-.08-.18-.15.12-.29.23-.59.34-.89-1.62-.23-1.62-.23-3.2,1.17l-1.57-.46,0,0-.46-.9Z"/><path class="cls-2" d="M53.73,97A10.69,10.69,0,0,1,59,99.73a7,7,0,0,0-.52,1.11,9.09,9.09,0,0,0-.19,1.36c-.71.25-1.32-.17-2-.32,0-.57,0-1.11-.06-1.63-.3,0-.3,0-1.09,1a2.93,2.93,0,0,1-1.84-1.38c.18-1.06.34-2,.5-2.86Z"/><path class="cls-2" d="M53.76,97a2,2,0,0,0-.89,1.09c-.28.65-.57,1.29-.89,2A3.81,3.81,0,0,1,50,99c.19-1.57.37-3.11.58-4.87l1.71,1.59L53.73,97Z"/><path class="cls-2" d="M88.88,86a1.54,1.54,0,0,1,1.18,1.69c0,.43,0,.86,0,1.3a2.08,2.08,0,0,1-.6,1.56,12.77,12.77,0,0,1-2.92,2.64,8.7,8.7,0,0,0,.7-1.34c.12-.39,0-.87.11-1.25.3-.89.7-1.73,1.07-2.59a3.43,3.43,0,0,0,.48-2.06Z"/><path class="cls-2" d="M71.09,86.53l.52,1.17-1.93,1.09-.9-1a5.9,5.9,0,0,1,1.93-2.13l0,0c.13.32.06.77.46.9Z"/><path class="cls-2" d="M52.83,94.34a3.37,3.37,0,0,1-1.73-2,1.8,1.8,0,0,1,.23-1.61c.14,0,.31,0,.35.07a5.34,5.34,0,0,1,.41.95C52.33,92.51,52.54,93.31,52.83,94.34Z"/><path class="cls-2" d="M59.31,102.59c.1-.88-.21-1.67.62-2.17.92.43,1,1.35,1.22,2.51Z"/><path class="cls-2" d="M67.44,85l.88,1.21L67.2,87.66l-.68-.8L67.46,85Z"/><path class="cls-2" d="M74.15,94a3.43,3.43,0,0,1-2.87-.41C72.44,93.59,73.23,93.26,74.15,94Z"/><path class="cls-2" d="M82,79.2c1.25-.27,2.14.61,3.6,1.21A5.64,5.64,0,0,1,82,79.16Z"/><path class="cls-2" d="M77,89.1a7.14,7.14,0,0,1-.92-.08c-.08,0-.19-.18-.18-.29s.09-.3.17-.31c.35-.08.71-.11,1.19-.17l-.29.9Z"/><path class="cls-2" d="M103.66,100.76c.15.35.17.69-.21.87a1.41,1.41,0,0,1-.68.05s-.09-.25-.09-.38a.51.51,0,0,1,.47-.54,3.35,3.35,0,0,1,.55,0Z"/><path class="cls-2" d="M162.89,75.18a3.27,3.27,0,0,1,1.8-1.51l0,0a2.35,2.35,0,0,1-1.79,1.51Z"/><path class="cls-2" d="M69.07,89.94a6.91,6.91,0,0,1-.65-.38c-.1-.07-.13-.23-.19-.35.16,0,.37-.14.48-.07a2.74,2.74,0,0,1,.52.55A2.13,2.13,0,0,0,69.07,89.94Z"/><path class="cls-2" d="M87.52,101.26c-.14.61-.68.47-1.11.65.08-.14.13-.37.24-.41a5.6,5.6,0,0,1,.9-.21Z"/><path class="cls-2" d="M59.72,71.4a2.07,2.07,0,0,1,.74-1.33l0,0a1.61,1.61,0,0,1-.74,1.33Z"/><path class="cls-2" d="M63.55,104.8c-.48.11-.65.16-.81.18s-.11,0-.17-.07.12-.21.18-.22A5.54,5.54,0,0,1,63.55,104.8Z"/><path class="cls-2" d="M77,89.15a5.11,5.11,0,0,1,.55,0s.08.14.07.15-.24.23-.25.21A3.22,3.22,0,0,1,77,89.1Z"/><path class="cls-2" d="M89.53,92.85c0,.58-.24.83-1.08.81l1.12-.78Z"/><path class="cls-2" d="M82.93,92.84a.67.67,0,0,1-.12-.06c.07-.08.15-.18.23-.26s.07,0,.11.07S83,92.76,82.93,92.84Z"/><path class="cls-2" d="M59.69,71.36a3.08,3.08,0,0,1,0,.61c0,.07-.17.11-.27.16,0-.11-.08-.25,0-.31a3,3,0,0,1,.38-.42Z"/><path class="cls-2" d="M165.46,73.23l-.8.41,0,0,.8-.4Z"/><path class="cls-2" d="M53.45,101l-.38-.19s.12-.08.14-.07.14.17.22.26Z"/><path class="cls-2" d="M108.34,98.69c-.13.46-.47.39-.77.43l0,0,.81-.44Z"/><path class="cls-2" d="M73.27,83.37l.28.12s-.1,0-.13,0a.55.55,0,0,1-.12-.14Z"/><path class="cls-2" d="M162,75.61l-.22.25a.35.35,0,0,1,.08-.13.65.65,0,0,1,.17-.08Z"/><path class="cls-2" d="M162.87,75.15c-.18.4-.51.42-.84.46l0,0a.8.8,0,0,1,.83-.47Z"/><path class="cls-2" d="M95.23,78.9l.17.26a.87.87,0,0,1-.09-.11.67.67,0,0,1,0-.19Z"/><polygon class="cls-2" points="103.7 100.75 103.77 100.77 103.66 100.76 103.7 100.75"/><polygon class="cls-2" points="107.57 99.12 107.53 99.23 107.55 99.16 107.57 99.12"/><polygon class="cls-2" points="105.64 99.3 105.59 99.45 105.67 99.34 105.64 99.3"/><path class="cls-2" d="M104.5,99l-.16.1-.15-.1h0a.62.62,0,0,0,.38,0Z"/><polygon class="cls-2" points="104.19 99.01 104.08 98.99 104.15 99 104.19 99.01"/><polygon class="cls-2" points="53.43 101 53.51 101.05 53.45 101 53.43 101"/><path class="cls-2" d="M49.17,100l0,0Z"/><path class="cls-2" d="M49.2,100a.27.27,0,0,1-.07-.08l0,0Z"/><polygon class="cls-2" points="46.71 97.69 46.81 97.7 46.73 97.65 46.71 97.69"/><path class="cls-2" d="M81.86,94.38l0,0Z"/><path class="cls-2" d="M89.57,92.88a2.25,2.25,0,0,1,.12-.21s0,.1,0,.12a.59.59,0,0,1-.14.06Z"/><path class="cls-2" d="M75.18,92.74l0,0Z"/><path class="cls-2" d="M165.84,72.66l-.38.57,0,0c.13-.19.26-.38.38-.58Z"/><path class="cls-2" d="M51.83,78.1l-.39.49,0,0,.38-.47Z"/><polygon class="cls-2" points="89.08 72.15 89.2 72.09 89.11 72.11 89.08 72.15"/><polygon class="cls-2" points="83.29 68.54 83.29 68.62 83.31 68.5 83.29 68.54"/><path class="cls-2" d="M60.83,69.6c0,.27-.14.44-.4.43l0,0c.11-.17.23-.33.35-.49Z"/><path class="cls-3" d="M155.22,79.25c-1.41,1.17-2.81,2.36-4.25,3.48a9.57,9.57,0,0,1-1.72,1c-.94.48-1.91.91-2.86,1.36l-5.56,2.68a13.73,13.73,0,0,0-3.08,1.89,5.14,5.14,0,0,1-1.58.81c-3.06,1.2-6.12,2.42-9.21,3.55a10.37,10.37,0,0,1-3,.63,28.24,28.24,0,0,0-8.86,2.27,3.32,3.32,0,0,0-.54.25c-2.56,1.45-5.09,3-7.68,4.33a42.48,42.48,0,0,1-6.26,3,8.19,8.19,0,0,0-2.54,1.6,9.51,9.51,0,0,1-5.1,1.93c-1,.11-1.93.14-2.89.21a8.12,8.12,0,0,0-4.22,1.48,20.46,20.46,0,0,1-3.18,1.66,4,4,0,0,1-1.32.25,6.18,6.18,0,0,0-2.07.52,6,6,0,0,1-1.89.34,4,4,0,0,1-.75-.12,15.22,15.22,0,0,1-5.46-1c-2.69.07-5.29-.9-8-.56-2.08.25-4-.63-6-1.33a2.42,2.42,0,0,1-.76-.62,3.89,3.89,0,0,0-3-1.22c-2.53.13-4.34-1.41-6.11-3a2.76,2.76,0,0,1-.79-2.31,16.55,16.55,0,0,1,.3-1.78c-.32-.36-.7-.74-1-1.17a6.33,6.33,0,0,1-1-1.55,8.28,8.28,0,0,0-1.29-2.36A3.07,3.07,0,0,1,43,93.72,45.66,45.66,0,0,1,44,80.8a5.81,5.81,0,0,1,.34-1,61.52,61.52,0,0,1,4.73-9.08c.91-1.34,1.83-2.69,2.66-4.09a38.74,38.74,0,0,1,3.07-4c.41-.53.91-.93,1.39-.08a23.58,23.58,0,0,1,4.7-3c2.28-1.24,4.48-2.69,6.7-4.06.63-.38,1.23-.83,1.87-1.18,1.64-.91,3.28-1.79,4.92-2.68a10.7,10.7,0,0,1,3.7-1.3c.57-.08,1.14-.27,1.71-.4a19.51,19.51,0,0,1,2.47-.55,79,79,0,0,0,8-1.6,63.09,63.09,0,0,0,7.33-2.11,65.64,65.64,0,0,1,16-3.29c2.13-.16,4.25-.41,6.37-.52a25.34,25.34,0,0,0,7.74-1.92,2.64,2.64,0,0,0,1.35-.82,2.53,2.53,0,0,1,1.75-.85c1.08-.21,2.15-.47,3.24-.66a12.32,12.32,0,0,1,2.69-.3,11.31,11.31,0,0,0,4.73-1L144.58,35a3.76,3.76,0,0,1,2.83-.18,2.18,2.18,0,0,0,.75.15c2.44,0,4.88,0,7.32-.09a3.07,3.07,0,0,1,1.69.26c.67.39,1.3.9,2.15.56.18-.07.47.17.67.34a11.41,11.41,0,0,1,.84.86,3.16,3.16,0,0,0,1.68.93c1.82.4,3.62.88,5.43,1.33a6.16,6.16,0,0,1,3.78,2.64c.46.68,1,1.26,1.52,1.91A21.52,21.52,0,0,1,175.62,47a13,13,0,0,1,1.3,5.35c0,.79.11,1.57.14,2.35a36.56,36.56,0,0,1-.3,9.28c-.39,1.86-2,4.7-3.47,5.35-1.22.54-2.26,1.41-3.46,2a8,8,0,0,0-2.46,1.76A17.05,17.05,0,0,1,161.32,77c-1.52.62-3,1.28-4.56,1.91-.63-.68-1.09-.11-1.56.35ZM49.17,100l0,0a.27.27,0,0,0,.07.08Zm55-1h-.07l.11,0,.15.1.16-.1a4.89,4.89,0,0,0,1-.61c.46-.49.86-1.07,1.29-1.6a9.24,9.24,0,0,1,2.54-2.56l.08.08a8.79,8.79,0,0,1-.52.9q-1.59,2.07-3.2,4.12l-.08.11,0-.15a4,4,0,0,0,1.79-1.23c1.53-1.35,3-2.73,4.58-4.08.17-.16.4-.37.65.1-1.17,1.21-2.32,2.49-3.54,3.68a12.16,12.16,0,0,0-.76,1l-.81.44,0,.07,0-.11c.3,0,.64,0,.77-.43a3.22,3.22,0,0,0,.93-.2c1.24-.63,2.47-1.31,3.7-2a12.11,12.11,0,0,1,1.55-.89c3.14-1.2,6.27-2.38,9.6-2.49a8.13,8.13,0,0,0,2.84-.64c2.62-1,5.27-2,7.91-3a8.16,8.16,0,0,0,2.95-1.62,5.78,5.78,0,0,1,1.55-.92l9.41-4.69c0-.54,0-1,.48-1.35.16-.11.3-.28.47-.38a5,5,0,0,0,2.2-3.91c0-.35-.08-.8.39-1.12a15.54,15.54,0,0,1,.13,1.57c0,.54-.14,1.09-.22,1.76a5.86,5.86,0,0,0,3.48-2.4c.61.43.92.42,1.17,0a2,2,0,0,0,.21-.37,22.19,22.19,0,0,0,1.69-4.64c0-.16.19-.29.45-.67a10.74,10.74,0,0,1,.05,1.73,14.22,14.22,0,0,1-.45,1.67c-.11.45-.52.86-.18,1.47A8.42,8.42,0,0,0,162.84,73a11.76,11.76,0,0,1,1.3-1.34,9.88,9.88,0,0,0,2.14-2.83c.06-.14.26-.2.51-.39.05.59.08,1,.13,1.63.71-.81,1.31-1.47,1.87-2.18.35-.43.64-.92,1-1.39s.7-.69.91-.45.25.63-.13,1.16A18.56,18.56,0,0,1,169,69.12c-.76.8-1.57,1.54-2.36,2.31a2.14,2.14,0,0,0-.72,1.26c-.12.2-.25.39-.38.58l-.8.4a3.27,3.27,0,0,0-1.8,1.51.8.8,0,0,0-.83.47.65.65,0,0,0-.17.08.35.35,0,0,0-.08.13l.22-.25c.33,0,.66-.06.84-.46a2.35,2.35,0,0,0,1.79-1.51l.8-.41.38-.57c.19-.07.41-.08.55-.22A14.43,14.43,0,0,1,169.85,70c2.67-1.46,4.05-4.05,4.8-7.11a6,6,0,0,0,.17-2.54,19.55,19.55,0,0,1,.21-3c0-1.8-.09-3.6-.17-5.41a5.2,5.2,0,0,0-.22-1.48c-.5-1.45-1.37-2.72-1.64-4.3a.36.36,0,0,0-.1-.18,23.81,23.81,0,0,0-2.55-3.13A10.42,10.42,0,0,0,164.29,40a10,10,0,0,1-5-1.88,4.76,4.76,0,0,0-1.17-.68c-2.27-.74-4.54-1.44-7-1.06-.64.1-1.29.12-1.92.23a2.37,2.37,0,0,1-2-.32,1.86,1.86,0,0,0-2.2,0c-.35.2-.72.34-1.07.53a16.22,16.22,0,0,1-4.43,1.63c-2.6.51-5.11,1.62-7.77,1.75a3.11,3.11,0,0,0-.75.24c-1.67.55-3.33,1.21-5,1.63a25.29,25.29,0,0,0-4.43,1.62c-.66.3-1.32.61-2,.9a3.43,3.43,0,0,1-.92.26.56.56,0,0,1-.48-.26.86.86,0,0,1,.05-.56,4.15,4.15,0,0,1,.39-.67c-.43,0-.72,0-1,0-1.54.12-3.08.27-4.63.36a49.39,49.39,0,0,0-14,3.06A88.93,88.93,0,0,1,88,50q-2.85.66-5.74,1a59.75,59.75,0,0,0-6.27,1.32,7.11,7.11,0,0,0-1.63.72c-1.06.55-2.09,1.2-3.17,1.7a48,48,0,0,0-5.78,3.65s0,.12,0,.31l1.29-.07c1.68-.09,3.35-.21,5-.28s3.22,0,4.82-.1A39.45,39.45,0,0,1,88.1,59.35a16,16,0,0,1,5,2.07,15.85,15.85,0,0,0,3.09,1.65c1.91.68,3.17,2.28,4.59,3.66a1.53,1.53,0,0,1,.22.78c0,.12-.08.35-.16.37s-.42.06-.49,0c-.38-.57-.71-1.18-1.07-1.76a2.53,2.53,0,0,0-1.53-1.18,18.61,18.61,0,0,1-5.6-2.67A8.85,8.85,0,0,0,89,60.84a48.3,48.3,0,0,0-9.36-1c-3,0-5.92.1-8.88.2q-3.68.12-7.33.37a5.29,5.29,0,0,0-2.25.58c-2,1.17-4.2,2.07-5.55,4.21a1.15,1.15,0,0,1-.28,0l-.8-.16a11.48,11.48,0,0,0-.81,1.17,19.69,19.69,0,0,0-1,2.12A18.61,18.61,0,0,1,49.35,74a7.8,7.8,0,0,0-.91,1.15,9.86,9.86,0,0,0-1,1.87,25.18,25.18,0,0,0-1.75,7.12c-.05.86-.18,1.73-.15,2.59s-.5,1.16-1.13,1.38c0,1.34,0,2.65.16,3.93a6.08,6.08,0,0,0,.47,1.84,17.68,17.68,0,0,1,1.19,3.14c0,.24.32.4.49.6l.08,0h-.1a.87.87,0,0,1,.91-.17c.43.24.87.46,1.37.72.67-1.92.57-3.82.94-5.66L49,90.93a1.9,1.9,0,0,1-.19-1.44.76.76,0,0,1,.38-.41c.06,0,.26.06.3.16.15.31.21.67.38,1a3,3,0,0,0,.59.6A5.3,5.3,0,0,0,51,89.53a4.46,4.46,0,0,0-.17-1.24c-.13-.7-.27-1.39-.42-2.08-.38-1.74.27-3.43.35-5.14a11.39,11.39,0,0,1,.66-2.48l.39-.49c.61-.75,1.2-1.51,1.84-2.23.31-.36.66-.82,1-.91a5.24,5.24,0,0,0,2.63-2.1c.69-.86,1.35-1.76,2-2.61.44-.53.91-1,1.37-1.51l0,0c0,.3,0,.59.07.88-.12.16-.24.32-.35.49a2.07,2.07,0,0,0-.74,1.33,3,3,0,0,0-.38.42c0,.06,0,.2,0,.31.1,0,.26-.09.27-.16a3.08,3.08,0,0,0,0-.61A1.61,1.61,0,0,0,60.43,70c.26,0,.38-.16.4-.43,1-.22,1.4-1.39,2.38-1.88.25,1.38-1,1.84-1.28,2.91a4.19,4.19,0,0,0,1.71-.69,13.13,13.13,0,0,0,1.5-1c.49-.36,1-.77,1.44-1.12s.74-1,1.37-1c.28.74-.73,1.12-.32,1.8a3,3,0,0,0,2.69-1.46A5.5,5.5,0,0,1,71.49,66c.12-.11.33-.09.51-.13.11.92-.82,1.15-.88,1.9.28.41.69.27,1,.24,1.92-.13,3.84-.28,5.76-.43a7.41,7.41,0,0,1,4.11.73c.4.21.81.44,1.27.19l0,.12v-.08c-1-1.14-2.06-2.27-3.05-3.44a4.74,4.74,0,0,1-.66-1.24c0-.1.14-.37.27-.5a.32.32,0,0,1,.35,0c.71.68,1.42,1.38,2.11,2.09,1.75,1.81,3.49,3.65,5.27,5.44a16.26,16.26,0,0,0,1.53,1.21l.09,0-.12.06c.21-.62-.13-1.09-.31-1.6A8.17,8.17,0,0,1,88,68.16c.68.18.79.8,1,1.25.68,1.19,1.29,2.43,2,3.62a5.44,5.44,0,0,0,1.08,1.44,10.67,10.67,0,0,1,2.71,3.75,3.57,3.57,0,0,0,.46.64.67.67,0,0,0,0,.19.87.87,0,0,0,.09.11l-.17-.26c-.14-.55-.25-1.11-.41-1.65s-.4-1.2-.62-1.8a2.65,2.65,0,0,1-.36-1.73c.56.53,1,1,1.48,1.42a1.44,1.44,0,0,1,.31.52c.51,1.68,1.34,3.23,1.32,5.12A4.85,4.85,0,0,0,98,84a4.69,4.69,0,0,1,.77,2.58.9.9,0,0,1-.35.94l-.76-.21c.06,1.49.11,2.93.17,4.36,0,0,.08.09.12.15.89,0,.93-1.11,1.64-1.59a5.29,5.29,0,0,1-.08,1.31,5.34,5.34,0,0,1-.77,1.24,18.86,18.86,0,0,0-1.4,1.83A10.15,10.15,0,0,1,92.14,99c-1.1.46-2.21.88-3.29,1.38-.46.21-1,.32-1.3.88a5.6,5.6,0,0,0-.9.21c-.11,0-.16.27-.24.41.43-.18,1,0,1.11-.65l1.2.1a3.55,3.55,0,0,1-2.25,1.8,1.36,1.36,0,0,1-1.46-.23c-.24-.21-.52-.5-.8-.5a2.9,2.9,0,0,0-2.38.74,7.13,7.13,0,0,1-2.34,1.47,3.71,3.71,0,0,0-1,.62,2.71,2.71,0,0,1-2,.78c-2.5.16-5,.43-7.52.47-2,0-4.08-.18-6.13-.3a4.36,4.36,0,0,1-.92-.26l-2.58-.81L52.46,103a1.65,1.65,0,0,1-2.08.15.82.82,0,0,0-1.11.1,3,3,0,0,0,2.27,2.72,11.32,11.32,0,0,0,2.05.49,7.37,7.37,0,0,1,2.21.63c.6.24,1.19.49,1.8.7,1.33.47,2.7.84,4,1.42a4,4,0,0,0,2.22.42,13.62,13.62,0,0,1,4.59.3c.5.1,1,.18,1.52.24,2.15.29,4.34.41,6.46.88a4.34,4.34,0,0,0,4.15-1.16c1.43-1.32,3.18-1.92,4.71-3.23,0,.5,0,.83,0,1.23a5.23,5.23,0,0,0,1-.23,18,18,0,0,1,6.09-1.12c.38,0,.77-.07,1.15-.12a2.26,2.26,0,0,0,.57-.14c.33-.13.43-.66.25-1.23l0,0c.76-.76,1.27-1.86,2.26-2.27a4.85,4.85,0,0,0,1.8-1.51c.48-.55.83-1.31,1.61-1.42l0,0a4.83,4.83,0,0,1-.43,1,13.15,13.15,0,0,1-2.54,2.72c-.81.61-.88.83-1.09,2.05.06,0,.13.06.17,0l1.61-1.22a13.09,13.09,0,0,0,4.68-5.71,34.1,34.1,0,0,1,2.21-4.13c.31-.57.72-1.22.47-1.82a3,3,0,0,1,.32-2.66,7.41,7.41,0,0,0,.75-2.69,2.76,2.76,0,0,1-.53.28c-.41.09-.71-.15-.65-.52a6.3,6.3,0,0,1,.25-1c.36-1,.74-2,1.1-3a2.89,2.89,0,0,0,.14-.83c0-.1-.18-.29-.24-.27a2.86,2.86,0,0,0-.57.33c0-.25-.06-.39-.07-.54a1.94,1.94,0,0,1,0-.64c.65-2,0-3.67-.54-5.42a9.75,9.75,0,0,1-.35-1,2.06,2.06,0,0,1,.26-1.61,3.86,3.86,0,0,0,1,.44,12.77,12.77,0,0,0-1.09-5.8l-1,1,0,0A10.36,10.36,0,0,0,104,67a15.12,15.12,0,0,0-.19-1.84l.93-.08c.32-.75.62-1.46.94-2.16a1.56,1.56,0,0,1,.94-1l0,0a5.73,5.73,0,0,1-.24,1c-.28.73-.62,1.44-.93,2.16a1.55,1.55,0,0,0,.09,1.62,5.45,5.45,0,0,1,.72,2,19.16,19.16,0,0,1,.54,7.46l1.09-1.67,0,0c-.15.85-.31,1.7-.46,2.56a5.53,5.53,0,0,0,.23,2.93A11.32,11.32,0,0,0,109,77.53a9.11,9.11,0,0,1,1.49-2.64,4.25,4.25,0,0,1,0,.77,17.63,17.63,0,0,1-1.43,3.83c-.33.63-.66,1.26-1,1.92-.4.92-.38,1.33,0,2.81.73-.62.76-1.83,1.61-2.5.07.34.19.55.14.72a19.57,19.57,0,0,1-.74,2.24c-.46,1-1,2-1.48,3.09a6.4,6.4,0,0,0-.47,1.42c-.15.7-.26,1.41-.35,2.13,0,.48,0,1-.08,1.75a5.42,5.42,0,0,0,.72-.76c.61-1.12,1.21-2.25,1.79-3.39.32-.64.58-1.31.9-2,.09-.19.15-.61.54-.32a8.88,8.88,0,0,0-.38,1.24,7.49,7.49,0,0,0-.12,1.49c0,.47-.33.3-.47.44a4.24,4.24,0,0,0-.55.9,17.66,17.66,0,0,1-1.34,2.42,32.9,32.9,0,0,0-3.33,5.91A.62.62,0,0,1,104.15,99Zm-50.7,2,.06,0-.08,0c-.08-.09-.14-.18-.22-.26s-.09,0-.14.07Zm36.12-8.12-1.12.78c.84,0,1.08-.23,1.08-.81a.59.59,0,0,0,.14-.06s0-.08,0-.12A2.25,2.25,0,0,0,89.57,92.88Zm14.13,7.87a3.35,3.35,0,0,0-.55,0,.51.51,0,0,0-.47.54c0,.13,0,.37.09.38a1.41,1.41,0,0,0,.68-.05c.38-.18.36-.52.21-.87h0ZM77,89.1a3.22,3.22,0,0,0,.34.46s.17-.12.25-.21,0-.15-.07-.15a5.11,5.11,0,0,0-.55,0l.29-.9c-.48.06-.84.09-1.19.17-.08,0-.18.21-.17.31s.1.28.18.29A7.14,7.14,0,0,0,77,89.1ZM53.73,97l-1.48-1.28-1.71-1.59c-.21,1.76-.39,3.3-.58,4.87a3.81,3.81,0,0,0,2,1.07c.32-.73.61-1.37.89-2A2,2,0,0,1,53.76,97c-.16.9-.32,1.8-.5,2.86a2.93,2.93,0,0,0,1.84,1.38c.79-1,.79-1,1.09-1,0,.52,0,1.06.06,1.63.72.15,1.33.57,2,.32a9.09,9.09,0,0,1,.19-1.36A7,7,0,0,1,59,99.73,10.69,10.69,0,0,0,53.73,97Zm17.36-10.5,1.57.46c1.58-1.4,1.58-1.4,3.2-1.17-.11.3-.22.6-.34.89.08.07.12.15.18.15a10.35,10.35,0,0,1,2.63.28,10,10,0,0,1,2.24,1.54c.15.1.28.22.41.32a3.23,3.23,0,0,1-2.9,1.92,3.75,3.75,0,0,0-1.06.27c-.89-1.07-.9-1.07-1.69-.17a5.75,5.75,0,0,0,2.24,1.87c.56.22,1.16.3,1.57-.36a1.36,1.36,0,0,1,1.16-.68l1.47-.13c.84-.88,1.65-1.62,2.35-2.49a2.49,2.49,0,0,0,0-3,7.8,7.8,0,0,0-.79-.92c-.94-.93-2-1.29-3.15-.35a2.13,2.13,0,0,0-2.1-.78,3,3,0,0,1-1.15,0,8.11,8.11,0,0,0-5.44.88,4.79,4.79,0,0,0-.77.61,5.9,5.9,0,0,0-1.93,2.13l.9,1,1.93-1.09Zm4.11,6.18,0,0-1-1.48.43-1.35c-.34,0-.61,0-.79.08-.5.33-.93.78-1.44,1.11a.76.76,0,0,1-1.17-.28c-.11-.17-.23-.32-.32-.45a4.41,4.41,0,0,1-4.3-.77c-.13-.61.07-1.45-.71-1.77-.35.33-.67.69-1,1a.41.41,0,0,1-.67-.08.73.73,0,0,1,0-.58,6.6,6.6,0,0,1,1.28-1.9,13.53,13.53,0,0,0,2.18-2.76,2.73,2.73,0,0,1,1.05-1.11A5.43,5.43,0,0,1,67.46,85l-.94,1.85.68.8,1.12-1.46L67.44,85A6.4,6.4,0,0,0,71,83.59a1.88,1.88,0,0,0,2.29-.26.55.55,0,0,0,.12.14s.08,0,.13,0l-.28-.12c0-.8-.83-1.05-1-1.75a.55.55,0,0,1,0-.38.42.42,0,0,1,.34-.15,1.13,1.13,0,0,1,.52.24c.44.4.84.87,1.3,1.24a3,3,0,0,0,1.32.77c.45,0,.94-.31,1.42-.49-.13-.44-.22-.76-.35-1.23a5.94,5.94,0,0,1,1.19.21c.59.23,1.14.62,1.75.81s1.38.23,2.07.37,1.18.31,1.81.48c0-.42,0-.7.06-1l0,0c.4.06.42.45.54.77a9.77,9.77,0,0,0,.91,2.08,4.84,4.84,0,0,1,.63,2.84A2.94,2.94,0,0,1,85,90.35a.77.77,0,0,0-.17.38.53.53,0,0,0,.14.36.34.34,0,0,0,.34,0c.6-.86,1.22-1.7,1.77-2.59.4-.66.67-1.42,1.09-2.07.15-.26.53-.34.8-.5A3.43,3.43,0,0,1,88.44,88c-.37.86-.77,1.7-1.07,2.59-.13.38,0,.86-.11,1.25a8.7,8.7,0,0,1-.7,1.34,12.77,12.77,0,0,0,2.92-2.64,2.08,2.08,0,0,0,.6-1.56c0-.44,0-.87,0-1.3A1.54,1.54,0,0,0,88.88,86l-1.59-2.51,0,0a2.33,2.33,0,0,0-1.79-1.95A23.16,23.16,0,0,1,83,80.68a6.66,6.66,0,0,1-1.33-.79.62.62,0,0,1-.11-.54c.09-.13.33-.13.5-.19a5.64,5.64,0,0,0,3.57,1.25c-1.46-.6-2.35-1.48-3.6-1.21-.93-.24-1.84-.55-2.78-.73a5.75,5.75,0,0,1-3.43-1.69,2.34,2.34,0,0,0-.65-.39c-.45.42-.84.81-1.25,1.16s-.6.12-.81-.22-.08-.59-.58-.78a17.25,17.25,0,0,0-3.83.49c-.4.67-.77,1.36-1.2,2-.18.28-.51.68-.72.65-.75-.1-1.22.45-1.74.84a7.41,7.41,0,0,0-3,4.18c-.17.69-.35,1.39-.53,2.09A1.42,1.42,0,0,0,61.7,88,6.89,6.89,0,0,0,64,90.48c.07,0,.08.24.11.37-.17.3-.33.61-.58,1.06a4.75,4.75,0,0,0,3.17,1L66,91.88a.64.64,0,0,1,.83-.43,5.57,5.57,0,0,1,1.39.67,2.87,2.87,0,0,0,2.19.53A13.7,13.7,0,0,1,75.2,92.71Zm6.66,1.67c-2.38.23-4.76.43-7.13.69a4.13,4.13,0,0,0-1.28.47,2.27,2.27,0,0,1-2.23-.09c-.63-.35-1.23-.76-1.85-1.11a2.15,2.15,0,0,0-1.07-.42c-1.27.11-2.55-.12-3.82.37A1.83,1.83,0,0,1,62,93.24c-.19-.37-.31-.78-.48-1.17a8.47,8.47,0,0,0-.8-1.69,7.66,7.66,0,0,0-1.37-1.16c.07-.39.15-.81.22-1.23a2,2,0,0,0,.08-.63c-.25-1-.54-2-.84-3a3.9,3.9,0,0,0-1.19,1.77c-.5,1.1-.49,1.11-1.1,1.54a8.81,8.81,0,0,1,2.66-4.85c.85.68.85.68,1.19,2.71A3,3,0,0,0,60.47,83a.7.7,0,0,1,0-.41.63.63,0,0,1,.16-.36.4.4,0,0,1,.35,0,2.86,2.86,0,0,1,.48.32c.59-.8,1.14-1.61,1.75-2.35A3.2,3.2,0,0,0,64,78.05c0-.18.16-.36.31-.67l1.1.81c1-1,2.28-1.68,2.84-3.2.15-.39.22-1,.69-.91.68.07.19.87.52,1.3a5.77,5.77,0,0,0,.67.07.65.65,0,0,0,.36-.16,2.4,2.4,0,0,0,.39-.49,10.92,10.92,0,0,1,.58-1.13,4,4,0,0,1,.74-.61c.12.22.24.34.24.45-.09,1.71.27,2.13,1.66,1.75a2.4,2.4,0,0,0,1.17-.72C75.9,73.82,76.45,73,77,72.2c.2-.26.37-.62.8-.54.06.3.12.61.19,1L79,72c.71.74-.22,1.39,0,2.18l2.11.38c-1.07.83-2.21.53-3.2,1.21.2.19.35.45.55.52,1.53.47,3.07.91,4.61,1.36a6.47,6.47,0,0,1,4.22,2.94,5.67,5.67,0,0,0,.82.88c1.84,2.11,3.52,4.31,3.37,7.59,0,.15.17.3.23.41.52-.07.5-1,1.08-.75-.11,2.26-1.49,3.83-2.44,5.62a2.15,2.15,0,0,1-1.11.83c-2.31,1.16-4.73,2.06-6.85,3.71a5,5,0,0,1-2.93,1c-1,0-2.06.15-3.09.2A3.13,3.13,0,0,1,75,100.1a5.24,5.24,0,0,0-2.29-.18c-1.28.08-2.57.21-3.85.29a18.78,18.78,0,0,1-2.12,0c-1.41-.1-2.81-.27-4.22-.38a7.43,7.43,0,0,0-1.12.08,4.86,4.86,0,0,0,.51.82c.42.42.88.79,1.31,1.21,0,0,0,.23-.07.43L61.9,102c0,.9.11,1.11.55,1.16,1.4.16,2.81.31,4.21.44a3.33,3.33,0,0,0,.77,0,20.62,20.62,0,0,1,4.23,0,2.44,2.44,0,0,1,1.27.4,2,2,0,0,0,1.85.21c1.06-.32,2.12-.66,3.19-1a2.43,2.43,0,0,0,1.66-1,.68.68,0,0,1,.87-.25c.24.07.53.2.73.11,1.18-.56,2.57-.51,3.52-1.69a.84.84,0,0,1,.69-.26,2,2,0,0,0,1.28-.39l4-1.87c.84-.41,1.69-.79,2.5-1.25a6.17,6.17,0,0,0,2.33-2.29,3.52,3.52,0,0,0,.57-1.59A26.31,26.31,0,0,0,95.8,87c-.27-1.33-.6-2.64-.88-4a6.29,6.29,0,0,0-1.2-2.87,5.28,5.28,0,0,1-1.13-2.44,3.35,3.35,0,0,0-1.42-2.18c-1-.78-2.16-1.5-3.15-2.38-2.28-2-5-3-7.69-4.15,0,0-.12,0-.25.09l.47,1.25c-.43-.28-.7-.36-.83-.56a2.31,2.31,0,0,0-2.38-1c-2.25.21-4.5.38-6.75.55A2.6,2.6,0,0,0,69,70a8.19,8.19,0,0,1-.8.59,2.15,2.15,0,0,0-2.38-.13c-.46.27-.94.5-1.4.77-1.15.7-2.27,1.46-3.43,2.11A52,52,0,0,0,55,77a6.58,6.58,0,0,0-2.84,5,13.07,13.07,0,0,1-.22,1.49,8.06,8.06,0,0,0,.29,4.44c.09.25.12.58.48.54,1.06-3.75,1.06-3.75,1.72-4.35,0,.06.1.12.09.17-.33,2.22-.66,4.43-1,6.65-.09.61-.08,1.08.49,1.45a5,5,0,0,1,1,1.23l2.13,2.73a3.35,3.35,0,0,0,2.14,1.27,8.24,8.24,0,0,0,.94.19c2.56.19,5.12.38,7.69.55.18,0,.44,0,.54-.14.52-.61,1.08-.33,1.62-.21a11.66,11.66,0,0,0,4,.47,2.75,2.75,0,0,0,2.37-1.18.87.87,0,0,1,1-.39c.23.1.37.48.57.77a5.38,5.38,0,0,1,1.13-.08,3.48,3.48,0,0,0,2.38-.74,13.21,13.21,0,0,0,3.58-4c.21-.32-.16-.6-.54-.61A8,8,0,0,1,82.08,95l-.25-.61Zm-29,0c-.29-1-.5-1.83-.74-2.63a5.34,5.34,0,0,0-.41-.95c0-.07-.21-.05-.35-.07a1.8,1.8,0,0,0-.23,1.61A3.37,3.37,0,0,0,52.83,94.34Zm6.48,8.25,1.84.34c-.23-1.16-.3-2.08-1.22-2.51C59.1,100.92,59.41,101.71,59.31,102.59ZM74.15,94c-.92-.75-1.71-.42-2.87-.41A3.43,3.43,0,0,0,74.15,94Zm-5.08-4.07a2.13,2.13,0,0,1,.16-.25,2.74,2.74,0,0,0-.52-.55c-.11-.07-.32,0-.48.07.06.12.09.28.19.35A6.91,6.91,0,0,0,69.07,89.94ZM63.55,104.8a5.54,5.54,0,0,0-.8-.11c-.06,0-.12.14-.18.22s.11.08.17.07S63.07,104.91,63.55,104.8Zm19.38-12c.07-.08.14-.17.22-.25s-.1-.08-.11-.07-.16.18-.23.26A.67.67,0,0,0,82.93,92.84Z"/><path class="cls-3" d="M155.2,79.29l.33,0-.31-.08Z"/><path class="cls-3" d="M122,90.26a12,12,0,0,1,3.17-3.74c.83-.7,1.72-1.31,2.58-2A41,41,0,0,0,133,80c.26-.29.49-.7,1-.58.27.25.12.55,0,.74a38.93,38.93,0,0,1-2.76,3.09c-1,1-2.18,1.82-3.3,2.7q-2.25,1.74-4.51,3.44c-.43.32-.9.57-1.35.85Z"/><path class="cls-3" d="M129.42,88.82a11.19,11.19,0,0,1,2-2.42c2.54-2.2,4.74-4.82,7.11-7.26L140,77.66c0,.22.1.39.05.45a85.5,85.5,0,0,1-9.53,10.45,2.63,2.63,0,0,1-.86.41S129.54,88.9,129.42,88.82Z"/><path class="cls-3" d="M156.79,53.28c.38-.56.72-.61,1-.39a3.33,3.33,0,0,1,.92,1A14,14,0,0,1,160,58.14a1.56,1.56,0,0,1,0,.64.45.45,0,0,1-.24.28c-.1,0-.3,0-.34-.06a14.36,14.36,0,0,1-.86-1.87A12.54,12.54,0,0,0,156.79,53.28Z"/><path class="cls-3" d="M113.08,62.86,112,65.11a51.62,51.62,0,0,0-3,6.36c-.08.23-.32.4-.64.78a3.13,3.13,0,0,1-.08-1c.43-1.14.88-2.27,1.4-3.37a36.18,36.18,0,0,1,3.15-5.22Z"/><path class="cls-3" d="M160.52,49.41a1.57,1.57,0,0,1,.55-.12.85.85,0,0,1,.49.3,13,13,0,0,1,2.26,5c0,.11-.18.34-.32.44s-.27,0-.33-.07a3.14,3.14,0,0,1-.43-.68c-.68-1.43-1.36-2.86-2-4.3A4.13,4.13,0,0,1,160.52,49.41Z"/><path class="cls-3" d="M164.7,49.1c.37.15.6.16.69.29a5.73,5.73,0,0,1,.7,1.26c.35,1,.62,2,.94,3.07C165.83,53.08,165.47,52.4,164.7,49.1Z"/><path class="cls-3" d="M51.86,78.15l-.38.47-.56.08c-.05-.11-.17-.26-.14-.33a32.34,32.34,0,0,1,2.42-4.9c.4.18.24.45.15.68C52.86,75.49,52.36,76.82,51.86,78.15Z"/><path class="cls-3" d="M143.67,80.2a3,3,0,0,1-.15.62c-.83,1.48-1.66,3-2.52,4.42-.06.09-.34.08-.49,0s-.12-.23-.15-.36a.39.39,0,0,1,0-.2,17,17,0,0,1,3.11-4.46s.12,0,.19,0Z"/><path class="cls-3" d="M139.64,66.84c.11.15.29.29.3.45A5.72,5.72,0,0,1,138.8,71c-.22-1.57.73-2.74.46-4.1Z"/><path class="cls-3" d="M169.39,53.26a4,4,0,0,1-1.2-2.69c0-.13.16-.33.29-.44s.25,0,.31.13a4.78,4.78,0,0,1,.78,2.74S169.5,53.11,169.39,53.26Z"/><path class="cls-3" d="M153.79,59.23c-.39,0-.41-.36-.46-.62s-.06-.56-.1-.85-.06-.56-.08-.84-.24-.5,0-.85c.13.09.32.15.39.28a1.53,1.53,0,0,1,.16.61C153.74,57.71,153.76,58.47,153.79,59.23Z"/><path class="cls-3" d="M130.79,70.92a4.85,4.85,0,0,1-.23,2.43c0,.11-.27.17-.42.21a.52.52,0,0,1-.13-.35c.13-.55.29-1.1.46-1.65A3.75,3.75,0,0,1,130.79,70.92Z"/><path class="cls-3" d="M58.14,106.92a2.57,2.57,0,0,1,2.19.85A2.65,2.65,0,0,1,58.14,106.92Z"/><path class="cls-3" d="M123.45,67.5a5.1,5.1,0,0,1-1.07,2.65l0,0a3,3,0,0,1,1.08-2.64Z"/><path class="cls-3" d="M106.62,62a1.36,1.36,0,0,1,.8-1.23c-.14.52-.26,1.05-.82,1.21Z"/><path class="cls-3" d="M103,70.05v1.08c-.54-.5-.25-.77,0-1Z"/><path class="cls-3" d="M122.38,70.15c0,.1-.09.21-.13.31s0-.11,0-.14a.58.58,0,0,1,.13-.14Z"/><path class="cls-3" d="M122,90.23a3.08,3.08,0,0,1-.24.27s-.08,0-.12-.06l.39-.18Z"/><path class="cls-3" d="M143.71,80.22c0-.14.09-.29.13-.44,0,0,.08.13.06.14a2,2,0,0,1-.23.28Z"/><path class="cls-3" d="M107.87,74.48c.11-.3.21-.61.31-.92l0,0c-.1.3-.21.61-.32.91Z"/><path class="cls-3" d="M103.43,69.59c-.05-.38,0-.72.34-.9l0,0c.06.37.08.73-.34.89Z"/><path class="cls-3" d="M123.49,67.54c-.07-.39,0-.72.35-.89l0,0c0,.37,0,.71-.36.88Z"/><path class="cls-3" d="M123.84,66.65c.1-.32.2-.63.29-.94l0,0c0,.36.11.74-.29,1Z"/><polygon class="cls-3" points="94.24 105.02 94.19 105.12 94.21 105.05 94.24 105.02"/><polygon class="cls-3" points="100.27 99.38 100.33 99.23 100.23 99.35 100.27 99.38"/><path class="cls-3" d="M109.7,93.8l-.31.52-.08-.08.42-.4Z"/><path class="cls-3" d="M110,93.3c0,.27-.07.45-.31.5l0,0c.1-.17.21-.33.32-.5Z"/><polygon class="cls-3" points="110.05 93.34 110.13 93.3 110.01 93.3 110.05 93.34"/><path class="cls-3" d="M100.23,99.35c-.12.16-.25.31-.38.47l0,0a.41.41,0,0,1,.39-.47Z"/><path class="cls-3" d="M108.18,73.56l0,0Z"/><path class="cls-3" d="M103,70.08l.39-.49,0,0-.4.49Z"/><polygon class="cls-3" points="124.13 65.71 124.25 65.64 124.1 65.67 124.13 65.71"/><path class="cls-3" d="M60.77,68.74c.12-.16.25-.3.37-.45v0l-.39.43Z"/><polygon class="cls-3" points="61.15 68.29 61.18 68.22 61.13 68.27 61.15 68.29"/><path class="cls-3" d="M80,96.07c-.15.24-.28.49-.44.71s-.42.58-.8.43a.32.32,0,0,1-.13-.15.75.75,0,0,1,.35-.89,5.22,5.22,0,0,1,.83-.39Z"/><path class="cls-3" d="M63.21,85c-.13.84-.13.84-1,1.26l1-1.27Z"/><path class="cls-3" d="M86.86,84c0,.46.1.94-.39,1.2l0,0c.14-.4.27-.81.4-1.21Z"/><path class="cls-3" d="M86.47,85.16c0,.15,0,.29,0,.43a1.49,1.49,0,0,1,0,.21c0-.06-.09-.13-.08-.19a2.73,2.73,0,0,1,.1-.41Z"/><path class="cls-3" d="M86.89,84l.43-.5,0,0-.43.5Z"/><polygon class="cls-3" points="63.25 84.95 63.31 84.96 63.21 84.96 63.25 84.95"/><polygon class="cls-3" points="83.74 82.51 83.7 82.4 83.7 82.54 83.74 82.51"/><path class="cls-3" d="M71.14,86.58c-.4-.13-.33-.58-.46-.9Z"/></g></g></svg>