<svg xmlns="http://www.w3.org/2000/svg" viewBox="0 0 26.49 52.78"><defs><style>.cls-1{fill:#5b7dba;}</style></defs><title>Asset 3</title><g id="Layer_2" data-name="Layer 2"><g id="OBJECTS"><path class="cls-1" d="M26.43,52a8.6,8.6,0,0,1-.49-.74l-.44-.79-.73-1.37c-.5-.92-1-1.83-1.55-2.75-.27-.48-.54-1-.8-1.45s-.51-1-.76-1.48c-.48-1-1-1.9-1.48-2.86-.24-.48-.47-1-.7-1.44s-.43-.85-.62-1.29c-.43-1-.86-1.95-1.3-2.92-.2-.45-.4-.9-.59-1.36s-.47-1-.7-1.52l-.59-1.35-.08-.2h0c.2-.17.43-.32.63-.5a4.42,4.42,0,0,0,1-1.06,12.35,12.35,0,0,0,.84-1.4,3.21,3.21,0,0,0,.32-1.43,6.67,6.67,0,0,0-.07-.89,3.52,3.52,0,0,0-.25-.88,2.1,2.1,0,0,0-.21-.39,1.34,1.34,0,0,0-.37-.38,1.12,1.12,0,0,0-.68-.21,1.23,1.23,0,0,0-.46.1,2.24,2.24,0,0,0-.66.52,3,3,0,0,0-.36.44,4.12,4.12,0,0,0-.59,1.14,7.68,7.68,0,0,0-.19.83c0,.17-.07.35-.1.52s-.06.29-.08.44l-.5-1c-.14-.27-.28-.53-.41-.8.29-.57.6-1.14.87-1.73s.53-1.22.8-1.83a.61.61,0,0,0-.05.12c.1-.24.21-.49.33-.73,0-.06.05-.12.07-.17h.09a1.47,1.47,0,0,0,.69-.1,1.17,1.17,0,0,0,.34-.2,1.8,1.8,0,0,0,.3-.37,4,4,0,0,0,.17-.36,2.32,2.32,0,0,0,.13-.37,1.64,1.64,0,0,0,.05-.32,1.72,1.72,0,0,0,0-.32,1.3,1.3,0,0,0-.08-.34,1,1,0,0,0-.17-.33.93.93,0,0,0-.33-.29.94.94,0,0,0-.4-.13,2.88,2.88,0,0,0,.11-.49,1.67,1.67,0,0,0-.13-1.14,1,1,0,0,0-.34-.36.87.87,0,0,0-.39-.14A1.57,1.57,0,0,0,15,16a2.46,2.46,0,0,0-1.36.85,3.59,3.59,0,0,0-.4.54v-.09a12,12,0,0,0,0-2,2.3,2.3,0,0,0-.2-.86,1.47,1.47,0,0,0-.49-.64,1.55,1.55,0,0,0-.68-.24h-.12a1.86,1.86,0,0,0-.74.16l-.15.09.15-.33c.11-.22.24-.43.35-.64.23-.43.48-.85.72-1.28a9.73,9.73,0,0,0,.62-1.45,3.52,3.52,0,0,0,.19-.84,3.52,3.52,0,0,0-.05-.86A2.84,2.84,0,0,0,12.71,8a2.14,2.14,0,0,0-.2-.32,1.67,1.67,0,0,0-.31-.28l-.27-.11-.29,0-.35,0a2.43,2.43,0,0,0-.38,0,1.45,1.45,0,0,0-.35.12,1.9,1.9,0,0,0-.34.2,2.64,2.64,0,0,0-.63.7,2.7,2.7,0,0,0-.17.34c-.08.17-.15.35-.22.53a7.11,7.11,0,0,0-.36,2.47c0,.13,0,.27,0,.4-.13-.35-.27-.7-.43-1.05a8.34,8.34,0,0,0-1-1.72,2.8,2.8,0,0,0-.81-.72l-.26-.13a1,1,0,0,0-.25-.06H6a.65.65,0,0,0-.31.08l0-.51c0-.7.06-1.41.08-2.12s0-1.18,0-1.77l0-.65L6,3.25a1.3,1.3,0,0,0,.38-.55,1.42,1.42,0,0,0,.08-.5,6.48,6.48,0,0,0-.06-.77,2.3,2.3,0,0,0-.31-.8A1,1,0,0,0,6,.52.82.82,0,0,0,5.78.26L5.68.18,5.43.07A1.1,1.1,0,0,0,5.17,0H5a1.9,1.9,0,0,0-.25,0,.8.8,0,0,0-.34.18l-.27.2a1.77,1.77,0,0,0-.56,1.34,1.74,1.74,0,0,0,.2.73,1.5,1.5,0,0,0,.47.5,2,2,0,0,0,.58.29h0l0,.26c0,.28,0,.56,0,.83l0,1.79c0,.61,0,1.22-.08,1.83l0,.6c-.27-.51-.55-1-.8-1.54l-.21-.41a.21.21,0,0,0,.06-.08A1.63,1.63,0,0,0,4,5.28a1.41,1.41,0,0,0-.06-.22c0-.09-.07-.19-.11-.29a1.91,1.91,0,0,0-.45-.64L3.16,4a1,1,0,0,0-.3-.17,2.31,2.31,0,0,0-.41-.16A2.85,2.85,0,0,0,2,3.6H2a1.83,1.83,0,0,0-.52.09l-.3.11a2.26,2.26,0,0,0-.59.37,1.27,1.27,0,0,0-.22.25l-.16.23A1.75,1.75,0,0,0,0,5.13a1.94,1.94,0,0,0,0,.72,1.73,1.73,0,0,0,.14.44,1.41,1.41,0,0,0,.24.39A1.48,1.48,0,0,0,.82,7l.29.12.18,0,.31.06a5,5,0,0,0,.77,0l.32-.06.09,0,.07.14c.12.25.24.49.37.73.24.45.47.9.7,1.35-.18-.1-.36-.18-.54-.26a3.17,3.17,0,0,0-1.13-.27,2.19,2.19,0,0,0-.72.09,1.27,1.27,0,0,0-.36.2,1,1,0,0,0-.36.41,1.8,1.8,0,0,0-.16.38,1.07,1.07,0,0,0,0,.4A1.11,1.11,0,0,0,1,11a4,4,0,0,0,.74.63c.19.14.41.24.61.36l.62.33c.44.22.89.44,1.32.68a11.2,11.2,0,0,1,1.29.87c.28.23.55.46.8.71s.58.61.85.93.48.62.71.93l0,.06A5,5,0,0,0,7.37,16a3.08,3.08,0,0,0-.75-.37,2.22,2.22,0,0,0-.37-.09,1,1,0,0,0-.35,0,.81.81,0,0,0-.37.15,1,1,0,0,0-.25.32.66.66,0,0,0-.06.34.86.86,0,0,0,.09.34c0,.09.08.19.13.28a6.67,6.67,0,0,0,.48.7,7,7,0,0,0,1,1.09c.38.35.8.67,1.2,1s.8.58,1.2.88c.19.13.37.28.55.42s.38.32.56.49a3.51,3.51,0,0,1,.47.55,1.83,1.83,0,0,1,.18.3c.17.52.33,1,.52,1.55.09.27.2.54.32.81l-.16,0a7.06,7.06,0,0,1-.87-.33c-.36-.18-.71-.38-1.08-.54s-.83-.37-1.26-.55c-.23-.1-.45-.21-.69-.3a1.66,1.66,0,0,0,0-.32,2.09,2.09,0,0,0-.13-.35,1.82,1.82,0,0,0-.5-.63,2.08,2.08,0,0,0-.72-.34l-.12,0-.15,0-.13,0a1,1,0,0,0-.33.09,1.82,1.82,0,0,0-.91,1,2,2,0,0,0-.08.22A1.09,1.09,0,0,0,4.7,23a2.42,2.42,0,0,0,0,.47l0,.12a.78.78,0,0,0,.12.22l.16.13.24.12.3.1a2.36,2.36,0,0,0,1,.15A1.32,1.32,0,0,0,7,24.26a1.26,1.26,0,0,0,.32-.18l.15-.14a4.7,4.7,0,0,1,.5.21l1.15.49.84.42c.3.16.61.3.93.44a6.57,6.57,0,0,0,1,.31l.46.1.24.05c.08.14.15.29.22.44l.37.71c.23.46.45.91.66,1.37l0,.09c-.29-.21-.59-.4-.9-.59a7.74,7.74,0,0,0-1.35-.75l-.31-.13a3,3,0,0,0-.72-.15,2.3,2.3,0,0,0-.45.05.9.9,0,0,0-.22.06.79.79,0,0,0-.33.19.92.92,0,0,0-.24.47,1.1,1.1,0,0,0,.1.69,2.82,2.82,0,0,0,.39.62,3.43,3.43,0,0,0,1.22.91,7.43,7.43,0,0,0,1.46.51,7.63,7.63,0,0,0,1.16.21c.22,0,.44,0,.66,0l.25,0,.3.66c.2.45.39.91.6,1.35s.45,1,.68,1.52.38.89.58,1.33L17.39,37c.2.45.39.92.6,1.36s.45.94.68,1.41.46.95.7,1.43c.47.93,1,1.86,1.45,2.8.24.47.47,1,.72,1.42s.55,1,.84,1.5c.5.9,1,1.79,1.51,2.69.25.45.49.91.74,1.37.12.24.24.47.38.7a9.61,9.61,0,0,0,.53.82.55.55,0,0,0,.31.25.48.48,0,0,0,.37,0,.52.52,0,0,0,.25-.31A.48.48,0,0,0,26.43,52ZM3,5.73l0,.12L2.92,6a1,1,0,0,0-.4.15,3.41,3.41,0,0,1-.46.1,2.64,2.64,0,0,1-.4,0,1.89,1.89,0,0,1-.34-.09l-.09-.06L1.18,6a2.12,2.12,0,0,1-.11-.21A1.68,1.68,0,0,1,1,5.42V5.36l0-.12A2.33,2.33,0,0,1,1.2,5l.13-.12a3.9,3.9,0,0,1,.35-.19L2,4.6h.24l.12,0a2,2,0,0,1,.32.18L2.8,5c.06.1.1.19.15.29A1.82,1.82,0,0,1,3,5.52,1.48,1.48,0,0,1,3,5.73ZM6.56,22.48l0,0h0Zm0,0h0Zm.14.86h0l.08,0A.2.2,0,0,1,6.67,23.32Zm0,0-.05,0-.12,0H6.33a4.91,4.91,0,0,1-.63-.17v-.09a2.76,2.76,0,0,1,.08-.27l.16-.26.15-.14.11-.06-.09,0,.09,0h0l.22.08.09,0a1.07,1.07,0,0,1,.18.19l.1.19a.27.27,0,0,1,0,.12s0,.05,0,.08v.06A1.54,1.54,0,0,0,6.69,23.3Zm8.65-3.09Zm.93-.74a1.5,1.5,0,0,1-.11.36,1.87,1.87,0,0,1-.17.31h0l-.13.07h0a2.94,2.94,0,0,1-.42,0h-.06a1.09,1.09,0,0,1,0-.18,2.75,2.75,0,0,1,.13-.47,1.18,1.18,0,0,1,.11-.19l.12-.11.29-.16.05,0h0l.1,0h0v0a1,1,0,0,1,.05.25A.11.11,0,0,1,16.27,19.47Zm-3.81,1.27,0,0,.59-1.17q.24-.47.51-.9a12.7,12.7,0,0,1,.76-1.15,3.19,3.19,0,0,1,.38-.36,2.21,2.21,0,0,1,.34-.18l.09,0a.54.54,0,0,1,.18,0h.05l0,0a.29.29,0,0,0,0,.09c0,.11,0,.22,0,.34a4.56,4.56,0,0,1-.21.72,3.37,3.37,0,0,1-.21.31c-.39.44-.84.81-1.25,1.2l-.6.57c-.21.18-.43.35-.65.51h0ZM12.37,22a.71.71,0,0,1,.14-.1,3.62,3.62,0,0,0,.41-.27,13.36,13.36,0,0,0,1.17-.94l.26-.25a2.7,2.7,0,0,0,0,.28.61.61,0,0,0,0,.12.46.46,0,0,0,.07.16c-.3.67-.6,1.35-.88,2a.69.69,0,0,1,0-.13c-.16.37-.33.72-.5,1.08l-.28.53c-.12-.26-.23-.53-.34-.79-.16-.48-.31-1-.48-1.45l0-.09a.94.94,0,0,0,.26-.14Zm-.45-7.45-.08,0h0Zm-.08,0Zm0-6.23-.08,0h0Zm-.08,0h0Zm-1.88,3c0-.28,0-.57.07-.85A5.9,5.9,0,0,1,10.31,9a.91.91,0,0,1,.07-.14,1.6,1.6,0,0,1,.21-.32,1.7,1.7,0,0,1,.24-.22L11,8.25l.23-.07h.27a.65.65,0,0,1,.2,0l0,0,0,0s0,.08.07.13a2.46,2.46,0,0,1,.09.39c0,.12,0,.23,0,.35a5.56,5.56,0,0,1-.25.91,2.75,2.75,0,0,1-.15.36c-.34.74-.77,1.45-1.16,2.17-.16.28-.3.59-.44.88,0-.12,0-.25,0-.37,0-.44,0-.87,0-1.3C9.84,11.61,9.83,11.41,9.84,11.22ZM5.11,1l0,0,0,0Zm0,0h0Zm0,0h0l0,0Zm-.3,1.13L4.72,2l-.06-.12a.5.5,0,0,1,0-.13.81.81,0,0,1,0-.22l.06-.22,0-.08A2.91,2.91,0,0,1,5,1l0,0h0l.07,0h0l.06.08c0,.08.09.16.13.24a2,2,0,0,1,.1.42,3.37,3.37,0,0,1,0,.55v.05l-.11,0A1.71,1.71,0,0,1,5,2.26,1.58,1.58,0,0,1,4.79,2.11ZM1.72,9.87h0l-.08,0Zm-.11.24v0Zm0,0h0Zm0,0v0h0v0ZM4.47,12,3.16,11.3A8.62,8.62,0,0,1,2,10.6l-.37-.37h0v-.09l0-.08a.8.8,0,0,1,.08-.16l0,0,.08,0L2,9.77H2.4a4.77,4.77,0,0,1,.81.26l.39.22.3.22a6,6,0,0,1,.57.56,6,6,0,0,1,.5.61c.23.33.46.68.68,1l0,0A11.51,11.51,0,0,0,4.47,12ZM7.3,13.06c-.17-.28-.35-.56-.51-.85s-.33-.65-.48-1l-.12-.34a3.59,3.59,0,0,1-.19-.8,2.71,2.71,0,0,1,0-.57A.27.27,0,0,1,6,9.4s0-.05,0-.08a2.26,2.26,0,0,1,.26.16,2.4,2.4,0,0,1,.38.4A11.13,11.13,0,0,1,7.8,12a23.71,23.71,0,0,1,.77,2.34c.07.27.13.53.19.79l-.38-.5C8,14.14,7.66,13.6,7.3,13.06Zm1.1,5.67c-.34-.27-.69-.55-1-.85A5.11,5.11,0,0,1,7,17.4l-.39-.49-.16-.26.09,0a3.91,3.91,0,0,1,.71.46,7.48,7.48,0,0,1,.75.74c.24.3.46.59.69.9l.18.27Zm3.07,1.77-.08.16c-.23-.63-.45-1.26-.64-1.9a1,1,0,0,0-.11-.38l0-.06,0-.19c0-.31-.06-.61-.07-.91a10.21,10.21,0,0,1,0-1.24,5.41,5.41,0,0,1,.19-.69,3,3,0,0,1,.19-.35l.22-.21.28-.16.24-.06h.11l.14,0,.05,0,.07.07a.91.91,0,0,1,.09.17,2.71,2.71,0,0,1,.11.51,13.84,13.84,0,0,1-.1,2.73,8.68,8.68,0,0,1-.27,1.25A11.74,11.74,0,0,1,11.47,20.5Zm2,9.13a8.93,8.93,0,0,1-1.91-.56,4.82,4.82,0,0,1-.69-.41,3.8,3.8,0,0,1-.33-.37,1.92,1.92,0,0,1-.18-.31l.13,0a.54.54,0,0,1,.18,0,3.83,3.83,0,0,1,.65.22,3.58,3.58,0,0,1,.48.24l.63.39a12.64,12.64,0,0,1,1.14.77l.08.07Zm3.46-5.27,0,0,.07,0-.06,0h0l0,0Zm0,0Zm-1.5,5.05-.1.08a2.29,2.29,0,0,0-.1-.23c0-.44.05-.88.1-1.32q.06-.4.15-.81a9.2,9.2,0,0,1,.37-1.55,4.92,4.92,0,0,1,.5-.78,3.32,3.32,0,0,1,.38-.37l.09-.05.06,0h0l.09.06.05.06a2.42,2.42,0,0,1,.21.39,4,4,0,0,1,.16.78,4.22,4.22,0,0,1,0,.87,2.32,2.32,0,0,1-.13.47,9.29,9.29,0,0,1-.55,1c-.13.21-.25.41-.4.61a3.64,3.64,0,0,1-.43.45A5.71,5.71,0,0,1,15.4,29.41Z"/><polygon class="cls-1" points="16.93 24.38 16.92 24.38 16.92 24.38 16.93 24.38"/><polygon class="cls-1" points="6.2 22.35 6.2 22.35 6.2 22.35 6.2 22.35"/><polygon class="cls-1" points="6.21 22.35 6.21 22.35 6.21 22.35 6.21 22.35"/></g></g></svg>