<svg xmlns="http://www.w3.org/2000/svg" viewBox="0 0 26.11 24.74"><defs><style>.cls-1{fill:#5b7dba;}</style></defs><title>Asset 8</title><g id="Layer_2" data-name="Layer 2"><g id="OBJECTS"><path class="cls-1" d="M26,24a.52.52,0,0,0-.31-.23l-1.16-.43h0l-.05,0-.07,0,.07,0c-.35-.15-.7-.3-1-.48-.16-.07-.31-.15-.46-.23l-.17-.14a14.39,14.39,0,0,1-1.46-1.25c-.29-.29-.59-.58-.87-.9s-.58-.72-.87-1.09c-.58-.76-1.17-1.52-1.71-2.31l-.9-1.33c-.29-.41-.58-.83-.86-1.25-.55-.84-1.11-1.66-1.68-2.48-.28-.43-.56-.86-.85-1.29s-.58-.81-.85-1.23-.56-.86-.85-1.28a15.41,15.41,0,0,0-1-1.29c-.65-.81-1.29-1.62-2-2.41C8.73,4,8.38,3.58,8,3.2S7.29,2.45,6.9,2.1A13.55,13.55,0,0,0,5.56,1L5,.69A6.75,6.75,0,0,0,4,.26,4.37,4.37,0,0,0,2.6,0,3.2,3.2,0,0,0,1.11.35a1.59,1.59,0,0,0-.24.2L.7.71a3.79,3.79,0,0,0-.43.56A1.61,1.61,0,0,0,0,2a1.75,1.75,0,0,0,0,.51,3.91,3.91,0,0,0,.14.68,2.35,2.35,0,0,0,.25.53c.16.25.32.49.49.72a8.33,8.33,0,0,0,1,1.14c.73.7,1.51,1.34,2.28,2S5.84,9.06,6.66,9.8,8.2,11.21,9,11.9s1.64,1.45,2.45,2.2,1.51,1.39,2.28,2.07,1.58,1.38,2.34,2.11,1.34,1.35,2,2q.56.51,1.11,1c.39.34.83.63,1.25.93s.77.52,1.17.74.64.37,1,.54l.14.1a3.34,3.34,0,0,0,.4.25.62.62,0,0,0,.26.06,22.34,22.34,0,0,0,2.1.83.5.5,0,0,0,.6-.37A.52.52,0,0,0,26,24ZM1.72,1.16A2.85,2.85,0,0,1,2.2,1l.19,0A2.73,2.73,0,0,1,3,1a4.22,4.22,0,0,1,.85.21,8.63,8.63,0,0,1,.91.46,9.64,9.64,0,0,1,.84.58c.46.38.9.78,1.33,1.2s.84.87,1.24,1.33c.78.88,1.51,1.82,2.26,2.74l0,0,.05.08,0,0v0c.29.39.58.78.85,1.19s.54.83.82,1.24l.9,1.3c.28.41.55.84.84,1.25L15.5,15c.06.1.13.19.19.28L15,14.44,14,13.34c-.7-.83-1.41-1.66-2.15-2.46S10.49,9.4,9.76,8.69L7.62,6.59c-.71-.68-1.45-1.33-2.16-2S4,3.23,3.2,2.6L2.05,1.7l-.53-.37a.68.68,0,0,1,.12-.12ZM13.33,14.47c-.77-.69-1.51-1.41-2.28-2.09S9.44,11,8.65,10.27,7.16,8.9,6.4,8.22,4.86,6.85,4.09,6.17L3,5.19a11.37,11.37,0,0,1-1-1.06A7,7,0,0,1,1.16,3,2.72,2.72,0,0,1,1,2.45a2.45,2.45,0,0,1,0-.27l.68.49-.07,0c.41.31.81.63,1.21,1s.79.67,1.17,1,.76.71,1.14,1.06L6.36,6.78c.75.69,1.47,1.42,2.2,2.13s1.52,1.52,2.26,2.3c.5.54,1,1.08,1.48,1.63l1.48,1.74c.32.37.62.74.93,1.12Z"/><path class="cls-1" d="M24.57,23.32h0Z"/><path class="cls-1" d="M10.41,7.57l0,0,0,0Z"/></g></g></svg>