<svg xmlns="http://www.w3.org/2000/svg" viewBox="0 0 55.95 71.45"><defs><style>.cls-1{fill:#5b7dba;}</style></defs><title>Asset 2</title><g id="Layer_2" data-name="Layer 2"><g id="OBJECTS"><path class="cls-1" d="M55.86,70.66c-.63-.92-1.3-1.81-2-2.7S52.63,66.31,52,65.49,50.71,63.83,50.05,63s-1.33-1.65-2-2.45-1.46-1.7-2.18-2.56-1.37-1.68-2-2.53c-1.36-1.71-2.73-3.43-4.13-5.12l-1-1.22c-.35-.42-.69-.85-1-1.28-.66-.84-1.33-1.65-2-2.47s-1.34-1.68-2-2.52c-.33-.42-.68-.83-1-1.24s-.7-.8-1.05-1.2c-.67-.79-1.31-1.6-2-2.38s-1.36-1.59-2-2.4c-.33-.4-.64-.81-.95-1.22s-.58-.75-.88-1.12a2.29,2.29,0,0,0,.63-1.21,7.4,7.4,0,0,0,.32-1.41,6.45,6.45,0,0,0,0-.76c0-.25,0-.49-.07-.73a4.49,4.49,0,0,0-.38-1.31,1.38,1.38,0,0,0-.5-.57.77.77,0,0,0-.33-.15h-.28l-.25.07a1.62,1.62,0,0,0-.59.38h0q-.3-1-.66-2.07c-.05-.12-.1-.25-.15-.36a3.25,3.25,0,0,0-.22-.46L23,24.37a4.62,4.62,0,0,0-1-1.09,1.22,1.22,0,0,0-.71-.25.84.84,0,0,0-.65.29,1.29,1.29,0,0,0-.18.79,4.18,4.18,0,0,0,.08.72c0,.19.09.38.14.57s.05.21.09.31c.09.28.19.56.29.84.18.47.37.94.58,1.4s.42.86.65,1.29L22,28.93c-.69-.7-1.36-1.42-2-2.14-.17-.19-.33-.4-.51-.6a.39.39,0,0,0,.08-.1,8.13,8.13,0,0,0,.34-.94,6.17,6.17,0,0,0,.14-1c0-.36,0-.72.05-1.08a5.38,5.38,0,0,0-.17-1.6,1.35,1.35,0,0,0-.6-.83,1.06,1.06,0,0,0-.52-.13,1,1,0,0,0-.49.12c-.68.35-.76,1.22-.8,1.9a6.18,6.18,0,0,0,.07,1.36L17,23.24c-.36-.45-.73-.89-1.11-1.33s-.56-.7-.84-1.05a2.07,2.07,0,0,0,.31-.27,1.94,1.94,0,0,0,.21-.29,4.39,4.39,0,0,0,.27-.47,9.24,9.24,0,0,0,.41-1,6.31,6.31,0,0,0,.34-1.77A3.47,3.47,0,0,0,16.51,16a1,1,0,0,0-.08-.25c0-.09-.09-.17-.13-.26a2.11,2.11,0,0,0-.19-.23.88.88,0,0,0-.24-.19,1.07,1.07,0,0,0-.61-.19,1.32,1.32,0,0,0-.39.06L14.6,15l-.24.13a1.24,1.24,0,0,0-.22.18,2.08,2.08,0,0,0-.29.36,4.73,4.73,0,0,0-.5,2.57c0,.13,0,.25,0,.38-.44-.55-.87-1.11-1.3-1.67L10.8,15.32l0-.06a1.86,1.86,0,0,0,.32-.47,1.65,1.65,0,0,0,.16-.44l.06-.22.09-.38a6.83,6.83,0,0,0,.11-.79c0-.21,0-.42,0-.64a4.11,4.11,0,0,0-.34-1.73,1.43,1.43,0,0,0-.57-.67,1.3,1.3,0,0,0-.34-.15l-.28,0a.67.67,0,0,0-.26,0,.84.84,0,0,0-.35.21.68.68,0,0,0-.17.21,1.42,1.42,0,0,0-.12.25A4.81,4.81,0,0,0,9,11a5.25,5.25,0,0,0-.22,1.06,6.32,6.32,0,0,0,0,.87c-.54-.61-1-1.26-1.54-1.9L6,9.46a1.3,1.3,0,0,0,.22-.19A3.15,3.15,0,0,0,6.45,9a5.19,5.19,0,0,0,.63-1.35,7.1,7.1,0,0,0,.22-.79,9.47,9.47,0,0,0,.15-1A3.6,3.6,0,0,0,7.2,4.09a1.57,1.57,0,0,0-1.33-1,1.59,1.59,0,0,0-.61.13,1.45,1.45,0,0,0-.6.55,2.92,2.92,0,0,0-.34.74,5.43,5.43,0,0,0-.16.67l-.29-.66c-.23-.53-.45-1.07-.69-1.6L3.07,2.7a3.2,3.2,0,0,0,.16-1A1.76,1.76,0,0,0,3.07,1,2.14,2.14,0,0,0,2.75.44,1,1,0,0,0,2.23.09,2,2,0,0,0,1.69,0a1,1,0,0,0-.34.05.63.63,0,0,0-.27.1A1.08,1.08,0,0,0,.76.39.58.58,0,0,0,.63.53,1.24,1.24,0,0,0,.46.9a2,2,0,0,0,0,1.29,1.64,1.64,0,0,0,.32.5,1.75,1.75,0,0,0,.57.44l.29.08a1.09,1.09,0,0,0,.4,0l.09,0c.19.38.34.77.51,1.16s.42,1,.64,1.45c.13.29.25.57.38.85A4.81,4.81,0,0,0,2.57,6a2.55,2.55,0,0,0-1.06-.18,2.13,2.13,0,0,0-.61.12L.64,6A1.23,1.23,0,0,0,.3,6.3a1.77,1.77,0,0,0-.16.22.64.64,0,0,0-.1.24A.39.39,0,0,0,0,7a.46.46,0,0,0,0,.26A1.61,1.61,0,0,0,.61,8c.23.2.47.4.72.58a7.26,7.26,0,0,0,1.21.69A10.49,10.49,0,0,0,4,9.75c.38.12.78.22,1.17.33h.08L6.72,12l.52.65c-.12-.05-.23-.12-.35-.16a2.75,2.75,0,0,0-1.47-.23,1.17,1.17,0,0,0-.59.29.77.77,0,0,0-.17.19l-.07.11c0,.08,0,.16-.07.23a1.93,1.93,0,0,0,0,.24l.06.21.09.2a2.23,2.23,0,0,0,.2.33,2.51,2.51,0,0,0,.52.56A3.37,3.37,0,0,0,6,15a5,5,0,0,0,1.2.55l.64.2c.4.1.8.2,1.21.26s.8.1,1.21.13l.69.89,1.29,1.65c-.19-.08-.38-.17-.58-.24A6.53,6.53,0,0,0,10,18.14a3.54,3.54,0,0,0-.79.05l-.3.08a1.59,1.59,0,0,0-.42.19.89.89,0,0,0-.35.37.61.61,0,0,0,.08.57,3.65,3.65,0,0,0,.58.6,8.18,8.18,0,0,0,1.92,1.37,8.2,8.2,0,0,0,2.89.68c.41,0,.83.08,1.25.15.32.39.64.78,1,1.16l.77,1a2.61,2.61,0,0,0-.28-.17A5,5,0,0,0,15,23.6a2.6,2.6,0,0,0-1.51.16,1.45,1.45,0,0,0-.58.43.69.69,0,0,0-.16.36v.1a.42.42,0,0,0,0,.25,1.15,1.15,0,0,0,.3.48,3.81,3.81,0,0,0,.59.55,5.21,5.21,0,0,0,1.52.82,13.45,13.45,0,0,0,1.63.42c.88.18,1.76.34,2.64.49h.06l.54.59,1.08,1.12.6.61.06.07-.24-.12c-.27-.12-.54-.23-.82-.33a6.66,6.66,0,0,0-.88-.22,2,2,0,0,0-.42,0,1.64,1.64,0,0,0-.38,0l-.27.07a1.25,1.25,0,0,0-.35.21,1.06,1.06,0,0,0-.27.29,1,1,0,0,0-.17.36,1,1,0,0,0,0,.12v.24A1.48,1.48,0,0,0,18,31a1.19,1.19,0,0,0,.22.33A2.88,2.88,0,0,0,19,32a10.32,10.32,0,0,0,2.2.85l1.48.37c.49.13,1,.24,1.49.33l.48.07c.28.35.57.68.85,1l.9,1.18c.32.42.67.82,1,1.22.67.78,1.33,1.57,2,2.35l1,1.23c.33.39.67.77,1,1.16.69.79,1.35,1.63,2,2.46s1.34,1.66,2,2.49,1.42,1.75,2.12,2.63,1.34,1.61,2,2.41,1.39,1.73,2.08,2.59c1.36,1.7,2.69,3.41,4.1,5.06.7.81,1.4,1.61,2.08,2.44s1.37,1.68,2,2.53,1.31,1.69,2,2.54l1.9,2.51c.46.6.9,1.21,1.33,1.83a.5.5,0,0,0,.7.12A.51.51,0,0,0,55.86,70.66ZM1.73,2.25l.06,0h0Zm.06,0h0Zm0,0Zm0,0ZM2.21,2a.84.84,0,0,0-.2.08l-.14.11,0,0h-.1a.69.69,0,0,1-.13-.11,1.77,1.77,0,0,1-.16-.22L1.39,1.7a2.29,2.29,0,0,1,0-.25l0-.26,0-.06a.21.21,0,0,0,0-.06L1.57,1h.14l.21,0H2l0,0a1,1,0,0,1,.08.11,2,2,0,0,1,.13.31,1.23,1.23,0,0,1,0,.19A2.64,2.64,0,0,1,2.21,2ZM5.8,4.09h0l.06,0-.06,0Zm-.55.81a3.43,3.43,0,0,1,.22-.56l.13-.15.08-.05.07,0h.17l.09,0,.12.1.12.17a2.58,2.58,0,0,1,.14.39,3.83,3.83,0,0,1,.08.68A7.54,7.54,0,0,1,6.24,7a8.06,8.06,0,0,1-.5,1.26l0,.06c-.1-.17-.19-.35-.28-.52l0,0c-.1-.18-.19-.36-.28-.54a6.54,6.54,0,0,1-.08-1.08A5.83,5.83,0,0,1,5.25,4.9ZM1,7a.24.24,0,0,1,0-.08A.24.24,0,0,0,1,7ZM1,7H1l0,0S1,7,1,7ZM3.5,8.56A6.26,6.26,0,0,1,2.29,8a7.27,7.27,0,0,1-.79-.58A4.91,4.91,0,0,1,1,7l0,0,.12-.09a1.06,1.06,0,0,1,.19-.06l.21,0a4.51,4.51,0,0,1,.53.09,4,4,0,0,1,.67.3A10.27,10.27,0,0,1,4.44,8.53l0,.05,0,.09.07.11.1.11v0L4,8.72Zm6.66,2.2Zm0,0h0Zm0,0h0l0,0Zm-.23.69a3.77,3.77,0,0,1,.26-.66l0,0a.27.27,0,0,1,.08.07l.09.12a2.74,2.74,0,0,1,.17.48,4.15,4.15,0,0,1,.09.78c0,.13,0,.25,0,.38a6,6,0,0,1-.07.73c0,.11,0,.23-.07.33s-.07.3-.11.44a1.4,1.4,0,0,1-.13.34l-.08.1-.1-.12c-.05-.13-.1-.25-.14-.39a8,8,0,0,1-.17-1.69A4.18,4.18,0,0,1,9.88,11.41ZM5.64,13.22l-.07,0h0Zm-.08,0Zm2.36,1.53-.42-.13a5,5,0,0,1-1-.48,4.24,4.24,0,0,1-.62-.5,2.78,2.78,0,0,1-.26-.34l0-.07.07,0,.13,0a3.4,3.4,0,0,1,.46.09,6,6,0,0,1,1.21.54l.46.3.55.4c.22.16.45.32.66.49C8.69,15,8.31,14.89,7.92,14.79ZM14.59,20h0Zm.88-4,0,0h0Zm0,0h0l0,0Zm-.15-.12h0l-.07,0Zm-.8.79a3.12,3.12,0,0,1,.18-.42,1.56,1.56,0,0,1,.16-.2.55.55,0,0,1,.14-.09l.19-.07h.16l.07.05.07.11a.92.92,0,0,1,.09.23,4.29,4.29,0,0,1,.08.71,6.52,6.52,0,0,1-.24,1.39,5.8,5.8,0,0,1-.28.73,4.37,4.37,0,0,1-.31.61,1.46,1.46,0,0,1-.21.28h0v0a9.22,9.22,0,0,1-.23-2.16A6.36,6.36,0,0,1,14.5,16.64Zm-1,4.4a9.2,9.2,0,0,1-1.55-.29,6.42,6.42,0,0,1-1.14-.49A10.43,10.43,0,0,1,9.4,19.18a3.17,3.17,0,0,1,.53-.05,5.77,5.77,0,0,1,1.17.23l0,0,0,0,.09,0-.08,0a9.06,9.06,0,0,1,1.18.47,9.75,9.75,0,0,1,.9.49,3.87,3.87,0,0,1,.59.48l.09.11a.54.54,0,0,1,.07.13l0,0Zm5.34.49h0Zm0,0Zm0,0h0Zm0,0h0l-.07,0Zm-.1.21a1.42,1.42,0,0,1,.08-.18l0,0,0,0h.07l0,0,0,.06a.87.87,0,0,1,.07.17,7.5,7.5,0,0,1,.12,1.57A7.68,7.68,0,0,1,18.91,25l0,.08-.13-.49a9,9,0,0,1-.25-1.85A4.63,4.63,0,0,1,18.64,21.78Zm-2.91,4.11a5.9,5.9,0,0,1-1.13-.48,4.33,4.33,0,0,1-.81-.66l0,0a1.66,1.66,0,0,1,.31-.12,2.2,2.2,0,0,1,.37-.05,4,4,0,0,1,.6.1,5.34,5.34,0,0,1,.91.42l.29.18.61.43.55.46.21.18C17,26.2,16.35,26.07,15.73,25.89Zm8.94,3c0-.08,0-.16.08-.24l.1-.17a1.56,1.56,0,0,1,.16-.2.67.67,0,0,1,.14-.09l.09,0h0l.09.12a2.79,2.79,0,0,1,.2.55,7.22,7.22,0,0,1,.17,1.32c0,.24-.05.47-.08.71a6.64,6.64,0,0,1-.18.74c-.05.16-.1.32-.16.48v0L25.19,32a.46.46,0,0,0,0-.23,1.17,1.17,0,0,1,0-.2v.06c-.11-.49-.21-1-.32-1.46s-.14-.73-.22-1.1Zm-3.15-5h0v0Zm0,.23h0Zm.39,1.7c-.05-.17-.11-.34-.17-.52s-.08-.28-.11-.42a4.58,4.58,0,0,1-.1-.63.49.49,0,0,1,0-.12,2.09,2.09,0,0,1,.22.2,5.25,5.25,0,0,1,.67.95A11.17,11.17,0,0,1,23,27c.18.55.34,1.11.49,1.67l0-.13.12.54c0,.13,0,.25,0,.38-.19-.34-.39-.68-.57-1v0c-.15-.3-.3-.6-.43-.9s-.25-.59-.37-.88S22,26.09,21.91,25.81Zm-2.86,4.57,0,0h0Zm0,0Zm-.11.28v-.11h0Zm0-.12h0ZM23,32.24c-.7-.18-1.4-.35-2.09-.55l-.49-.17a6.39,6.39,0,0,1-1-.47,4.58,4.58,0,0,1-.43-.34l-.05-.07,0-.07h0l0-.06s0,0,.05-.05l.07-.06.14,0,.18,0a3.88,3.88,0,0,1,.77.14,11.15,11.15,0,0,1,2.25,1c.39.26.79.52,1.18.8l0,0,.05.05Z"/><polygon class="cls-1" points="11.1 19.36 11.1 19.36 11.11 19.36 11.1 19.36"/><polygon class="cls-1" points="5.79 4.1 5.8 4.09 5.8 4.09 5.79 4.1 5.79 4.1"/><polygon class="cls-1" points="5.84 4.08 5.84 4.08 5.84 4.08 5.84 4.08 5.84 4.08"/></g></g></svg>