<svg xmlns="http://www.w3.org/2000/svg" viewBox="0 0 15.69 13.46"><defs><style>.cls-1{fill:#5b7dba;}</style></defs><title>Asset 6</title><g id="Layer_2" data-name="Layer 2"><g id="OBJECTS"><path class="cls-1" d="M15.17,0h-.05a6.12,6.12,0,0,0-1.87.56,14,14,0,0,0-1.72,1A10.75,10.75,0,0,0,9.76,2.67c-.25.21-.48.46-.72.68a9.76,9.76,0,0,0-.71.73,5.63,5.63,0,0,0-.57.72c-.1.16-.2.33-.29.5a2.85,2.85,0,0,0-.12.31,5.11,5.11,0,0,0-.79.22,5,5,0,0,0-.8.41,2.13,2.13,0,0,0-1,1l-.25,0a2.52,2.52,0,0,0-.67.09,4.12,4.12,0,0,0-1.12.48c-.34.21-.67.42-1,.65a8,8,0,0,0-.85.69,6.55,6.55,0,0,0-.75.74.5.5,0,0,0,.79.62c.06-.07.12-.13.17-.2a14.4,14.4,0,0,1,1.11-1c.33-.25.69-.47,1.05-.69A4.88,4.88,0,0,1,4,8.3a2.12,2.12,0,0,1,.44-.06h0l-.08,0a5.79,5.79,0,0,0-.72.59A8,8,0,0,0,3,9.53a7.38,7.38,0,0,0-.58.77c-.18.28-.36.56-.55.84a.5.5,0,0,0,.79.62c.23-.34.44-.7.67-1,.14-.18.27-.36.41-.53l.37-.41.3-.27a5.43,5.43,0,0,1,.83-.62l.18-.09c-.25.39-.5.79-.73,1.2s-.33.59-.48.9-.3.6-.43.91a.51.51,0,0,0,.26.66.52.52,0,0,0,.66-.27c.14-.34.31-.66.47-1s.34-.65.52-1,.3-.51.46-.76c-.11.35-.22.71-.32,1.06-.23.73-.46,1.46-.68,2.2a.53.53,0,0,0,0,.39.47.47,0,0,0,.26.26.44.44,0,0,0,.39,0,.46.46,0,0,0,.27-.26c.21-.71.44-1.41.65-2.12.15-.47.29-.94.44-1.41,0,.12,0,.24,0,.36s0,.33,0,.49,0,.44,0,.66-.09.42-.14.63-.11.44-.16.65a.49.49,0,0,0,.1.37.45.45,0,0,0,.33.19.54.54,0,0,0,.37-.09.55.55,0,0,0,.19-.34,8.73,8.73,0,0,0,.34-1.69c0-.33,0-.67,0-1l0-.47a3,3,0,0,0,0-.31,3.29,3.29,0,0,1,.41.33,4,4,0,0,1,.52.7,4.51,4.51,0,0,1,.32.79,7,7,0,0,1,.13.8c0,.19.05.38.06.57a.64.64,0,0,0,0,.07.52.52,0,0,0,.44.56.51.51,0,0,0,.56-.43,4.09,4.09,0,0,0-.05-.92,6,6,0,0,0-.3-1.37,5.17,5.17,0,0,0-.38-.74,3.76,3.76,0,0,0-.52-.67,3.06,3.06,0,0,0-.79-.6,2.3,2.3,0,0,0-.1-.35c0-.11-.07-.21-.1-.32a4.59,4.59,0,0,1-.16-.9,3.11,3.11,0,0,1,.06-.44,3.19,3.19,0,0,1,.28-.66,7.1,7.1,0,0,1,.85-1.05l.81-.78a6,6,0,0,1,.46-.4,4.65,4.65,0,0,1,.52-.34l.94-.53c.34-.2.67-.41,1-.62a7.61,7.61,0,0,1,1.5-.64A5,5,0,0,1,15.26,1a.5.5,0,0,0,.42-.56A.51.51,0,0,0,15.17,0ZM6.46,7a3.78,3.78,0,0,1,.72-.3,1.94,1.94,0,0,0,0,.24c0,.17.06.34.09.5s0,.22.08.33l-.6-.15-.91-.22A6.25,6.25,0,0,1,6.46,7Z"/></g></g></svg>