<svg xmlns="http://www.w3.org/2000/svg" viewBox="0 0 11.51 33.71"><defs><style>.cls-1{fill:#5b7dba;}</style></defs><title>Asset 4</title><g id="Layer_2" data-name="Layer 2"><g id="OBJECTS"><path class="cls-1" d="M9.59,30.13a18.12,18.12,0,0,0,1.11-2.87,21.6,21.6,0,0,0,.81-6.09c0-.52,0-1,0-1.54s0-1-.07-1.51c-.07-1-.25-2-.32-3s-.07-2-.19-3c-.05-.46-.11-.92-.18-1.39a9.87,9.87,0,0,0-.38-1.49,8.81,8.81,0,0,0-.52-1.18,5.61,5.61,0,0,0-.75-1.18,11.52,11.52,0,0,0-.89-.82,9.88,9.88,0,0,1-.92-.91,5.67,5.67,0,0,1-.63-.83c-.2-.31-.37-.63-.54-1l-.45-.9a7.31,7.31,0,0,0-.46-.76,2.41,2.41,0,0,0-.37-.41h0L4.71.47A.61.61,0,0,0,4.54.12l-.07,0A.5.5,0,0,0,4.18,0a.51.51,0,0,0-.47.53c.08.5.15,1,.2,1.49a3.48,3.48,0,0,1-.1.44,7.26,7.26,0,0,1-.56,1.07c-.3.45-.6.9-.88,1.37s-.51.87-.75,1.31S1.19,7.08,1,7.52c-.1.23-.21.45-.3.68A8,8,0,0,0,.41,9a10.92,10.92,0,0,0-.3,1.49A8,8,0,0,0,0,12.07c0,.51.09,1,.15,1.55s.13,1,.22,1.52.16,1,.23,1.47.14,1.05.22,1.58.18,1,.26,1.48.17,1.06.23,1.6a26.91,26.91,0,0,1,.14,3c0,.56,0,1.11.05,1.67s.1,1,.18,1.51a21,21,0,0,0,.45,2.06,7.2,7.2,0,0,0,.76,1.89,6.09,6.09,0,0,0,.51.74,4.17,4.17,0,0,0,.41.43l.3.29a4.43,4.43,0,0,0,.54.43l.32.2a.71.71,0,0,0,.33.15.5.5,0,0,0,.21,0l0,0,.12,0a.63.63,0,0,0,.19,0,2.67,2.67,0,0,0,.64-.08,2.39,2.39,0,0,0,1-.44,3.52,3.52,0,0,0,.61-.61,3.75,3.75,0,0,0,.36-.5c.14-.21.28-.43.41-.66A12.49,12.49,0,0,0,9.59,30.13Zm-6,.52c-.11-.24-.21-.47-.31-.72s-.16-.49-.23-.74c-.13-.48-.24-1-.34-1.45s-.16-1-.22-1.5-.06-1.07-.06-1.61c0-1,0-2-.11-3,0-.52-.12-1-.2-1.54S2,19,1.9,18.53s-.17-1-.23-1.53-.15-1-.22-1.49c-.12-.72-.23-1.43-.31-2.15,0-.37-.09-.74-.13-1.11a5.65,5.65,0,0,1,0-.92c0-.39.09-.77.16-1.16s.17-.8.28-1.2l.18-.48c.07-.18.16-.36.24-.53.18-.37.34-.74.52-1.1s.4-.71.61-1.07l.26-.46c0,.13-.07.25-.1.37a14,14,0,0,0-.26,1.44c-.07.51-.14,1-.19,1.53s-.07,1.05-.09,1.57c0,1,0,2,0,3s0,2.06.12,3.09c.05.52.12,1,.19,1.56s.14,1,.21,1.49a22.72,22.72,0,0,1,.25,3.09c0,.87,0,1.74,0,2.61l0,1.32c0,.45,0,.9.06,1.34s.09.9.14,1.35.16,1,.27,1.5a9.07,9.07,0,0,0,.26.89A6,6,0,0,1,3.63,30.65Zm.57.87h0ZM4.82,30q-.13-.75-.21-1.5c-.05-.49-.11-1-.13-1.46s0-1,0-1.5,0-1,0-1.5c0-1,0-2,0-3s-.26-2-.4-3l-.12-1c0-.35-.09-.7-.11-1.06-.06-.74-.08-1.48-.08-2.21s0-1.39,0-2.09,0-1.43,0-2.14S3.79,8,3.89,7.33c0-.34.11-.69.18-1a4.58,4.58,0,0,1,.15-.64c0,.33,0,.67,0,1,0,1,0,2,0,3.05s.09,2,.14,3.07.11,2.09.17,3.14S4.7,18,4.81,19c.05.51.11,1,.15,1.53s.08,1.12.13,1.67c.07,1,.13,2,.16,3s0,2,0,3l-.06,1.48c0,.47,0,.93-.07,1.4v0C5,30.74,4.91,30.35,4.82,30Zm.07,3.15,0,0h0Zm.71-.79v0Zm.52.05v0c0-.42,0-.85,0-1.27s0-.92.07-1.38,0-1,.06-1.52c0-1,0-2,0-3s-.08-2-.16-3C6,21.64,6,21.1,6,20.57S5.86,19.52,5.81,19c-.1-1-.18-2.05-.24-3.07s-.13-2.1-.18-3.15-.11-2-.14-3.06c0-.78,0-1.56,0-2.34,0-.53,0-1,0-1.57.09.25.18.51.26.76s.24.77.35,1.16A16.35,16.35,0,0,0,6.66,10a8.77,8.77,0,0,1,.43,1.15c.1.34.19.69.27,1,.12.81.19,1.63.25,2.45a17.81,17.81,0,0,1,0,2.31c-.05.47-.1.93-.13,1.4s-.05,1-.06,1.47c0,.93-.08,1.87-.06,2.8,0,.46,0,.91.07,1.37s0,1,0,1.46c0,.88,0,1.76,0,2.65A14.26,14.26,0,0,1,7,31l-.15.41a3,3,0,0,1-.21.4A3.73,3.73,0,0,1,6.12,32.38ZM8,30.76c.06-.25.11-.51.16-.76a11.64,11.64,0,0,0,.18-1.43q.1-1.55.09-3.09c0-.52,0-1-.05-1.57s-.06-.95-.06-1.42q0-1.09,0-2.19c0-.67,0-1.34.09-2s.11-1.07.14-1.61,0-1,0-1.54-.06-1.08-.11-1.61A13.3,13.3,0,0,0,8.32,12a12.9,12.9,0,0,0-.4-1.51c-.16-.48-.39-.93-.58-1.4a12.06,12.06,0,0,1-.49-1.43c-.15-.5-.29-1-.45-1.47l-.31-.9c.1.14.21.27.32.4a9.83,9.83,0,0,0,1,1l.49.42c.16.14.32.29.47.45a7,7,0,0,1,.55.86c.16.33.32.66.45,1a10.73,10.73,0,0,1,.35,1.23c.08.44.13.88.18,1.32S10,13,10,13.46s0,.95.07,1.43.08,1,.14,1.54.13,1,.17,1.52.07,1,.09,1.48,0,1,0,1.53,0,1,0,1.5c0,.09,0,.17,0,.26a23.48,23.48,0,0,1-.3,2.49,18.82,18.82,0,0,1-.62,2.43,17.88,17.88,0,0,1-.81,2c-.22.46-.48.9-.74,1.34A1.46,1.46,0,0,0,8,30.76Z"/></g></g></svg>