<svg xmlns="http://www.w3.org/2000/svg" viewBox="0 0 18.67 23.3"><defs><style>.cls-1{fill:#5b7dba;}</style></defs><title>Asset 9</title><g id="Layer_2" data-name="Layer 2"><g id="OBJECTS"><path class="cls-1" d="M18.52,22.44c-.33-.32-.67-.64-1-1s-.62-.65-1-1a1.7,1.7,0,0,0-.19-.19,2,2,0,0,0-.19-.22L16,19.88c-.16-.19-.32-.37-.47-.56s-.3-.39-.45-.59c-.27-.36-.54-.72-.78-1.1-.5-.79-.93-1.63-1.4-2.44-.24-.41-.46-.84-.67-1.26s-.44-.87-.68-1.3-.45-.89-.69-1.33-.5-.92-.76-1.38-.49-.83-.72-1.26-.5-.91-.76-1.36L8,6.1c-.2-.35-.41-.72-.62-1.07C6.9,4.32,6.42,3.64,5.93,3a14.09,14.09,0,0,0-1.48-1.7A5.09,5.09,0,0,0,3.63.63C3.44.51,3.23.42,3,.32A3.12,3.12,0,0,0,2.37.06,1.76,1.76,0,0,0,1.91,0H1.66L1.33.07A1.74,1.74,0,0,0,1,.2.92.92,0,0,0,.63.51,3.71,3.71,0,0,0,.4.83a2.18,2.18,0,0,0-.25.61A3.91,3.91,0,0,0,0,2.2a2.9,2.9,0,0,0,0,.51c0,.14,0,.27.07.41s.11.48.17.72a11,11,0,0,0,.4,1.23c.21.5.45,1,.67,1.48s.4.89.63,1.32.5.88.78,1.3.57.83.86,1.24a20.07,20.07,0,0,0,2.14,2.46c.36.36.73.71,1.1,1.05s.79.67,1.2,1c.83.65,1.68,1.28,2.52,1.91l-.1-.08,1.88,1.46c.65.5,1.31,1,1.95,1.54.35.3.69.6,1,.91l0,0,.24.25.15.13.28.27.83.87,1,.95a.5.5,0,0,0,.7-.72Zm-8.26-7.07c-1-.76-2-1.53-3-2.38-.46-.42-.9-.86-1.34-1.3a18.82,18.82,0,0,1-1.24-1.44c-.31-.41-.61-.81-.9-1.24A14.7,14.7,0,0,1,3,7.69c-.26-.49-.5-1-.74-1.5l-.6-1.32c-.14-.35-.26-.71-.37-1.07A10.92,10.92,0,0,1,1,2.67a2.26,2.26,0,0,1,0-.45,5.05,5.05,0,0,1,.12-.56c.06.12.14.24.21.36.25.42.51.83.76,1.24l.78,1.26c.28.44.56.88.85,1.32.59.92,1.18,1.85,1.81,2.75S6.69,10.22,7.29,11s1.29,1.68,1.93,2.53,1.19,1.6,1.8,2.39Zm1.64.08c-.64-.83-1.27-1.68-1.9-2.52s-1.32-1.7-2-2.57S6.84,8.71,6.25,7.87,5.1,6.13,4.54,5.26,3.49,3.59,3,2.75c-.25-.4-.5-.79-.74-1.19A6.22,6.22,0,0,1,1.91,1H2a2.11,2.11,0,0,1,.36.09,5.89,5.89,0,0,1,1.08.58,9,9,0,0,1,.71.67c.27.29.53.58.78.9s.51.67.75,1,.47.71.7,1.07.4.63.58,1l.66,1.14.78,1.39c.23.43.48.85.72,1.27s.5.88.74,1.33.48.9.72,1.35.46.85.67,1.28.42.87.66,1.3l.12.22Z"/></g></g></svg>