<svg xmlns="http://www.w3.org/2000/svg" viewBox="0 0 14.36 9.21"><defs><style>.cls-1{fill:#5b7dba;}</style></defs><title>Asset 5</title><g id="Layer_2" data-name="Layer 2"><g id="OBJECTS"><path class="cls-1" d="M.21,1.75a.5.5,0,0,0-.2.32.45.45,0,0,0,.07.36l0,0a.49.49,0,0,0,.32.2l.08,0-.12,0c.59.18,1.17.38,1.75.57s1.18.4,1.78.57,1.14.29,1.71.43l.84.23a2.14,2.14,0,0,0,.35.06v0a7.36,7.36,0,0,0,.47.63l.45.56a3,3,0,0,0,.1.73,4.71,4.71,0,0,0,.49,1.31c0,.08.09.15.13.22A7.32,7.32,0,0,0,9,8.66a3.81,3.81,0,0,0,.46.44.5.5,0,0,0,.7-.07.49.49,0,0,0-.06-.7,2.33,2.33,0,0,1-.28-.26,5.19,5.19,0,0,1-.63-.85c-.05-.1-.07-.21-.12-.31.15.11.3.22.46.32a8.49,8.49,0,0,0,1.17.58,14.65,14.65,0,0,0,1.92.69A.46.46,0,0,0,13,8.42a.5.5,0,0,0,.11-.7.57.57,0,0,0-.32-.2l-.08,0c-.37-.12-.73-.25-1.1-.4a12.41,12.41,0,0,1-1.53-.7,5.2,5.2,0,0,1-.64-.52c.13,0,.25.09.38.12.39.08.78.17,1.17.23s.81.14,1.22.17a11.21,11.21,0,0,0,1.3,0,.51.51,0,0,0,.45-.55.49.49,0,0,0-.19-.33.51.51,0,0,0-.36-.12H13c-.27,0-.54,0-.81,0l-1-.15C10.57,5.15,10,5,9.45,4.88l-.19-.07a5.37,5.37,0,0,0,.21-.56,6.37,6.37,0,0,1,1-.07,16.46,16.46,0,0,1,3.33.64.41.41,0,0,0,.37-.09.51.51,0,0,0,.21-.32A.48.48,0,0,0,14.27,4a.5.5,0,0,0-.32-.2,11.65,11.65,0,0,0-4.33-.6s0,0,0,0a.91.91,0,0,0,.16-.11l.35-.17a4,4,0,0,1,.49-.15h0l.07,0-.06,0a5.71,5.71,0,0,1,1.09-.14h.6c.34,0,.68,0,1,0a.49.49,0,0,0,.34-.19.47.47,0,0,0,.1-.36.46.46,0,0,0-.18-.34.52.52,0,0,0-.36-.11H11.86l-.5,0a5.25,5.25,0,0,0-1,.17c-.15,0-.28.1-.43.15L10,1.8a3.72,3.72,0,0,1,.47-.34A11.4,11.4,0,0,1,11.57,1a.51.51,0,0,0,.29-.65A.51.51,0,0,0,11.21,0,8.08,8.08,0,0,0,9.66.82,3.39,3.39,0,0,0,8.66,2l-.37.62v0h0s0,0,0,0a4.34,4.34,0,0,0-.83.36,2.32,2.32,0,0,0-.48.4,6.48,6.48,0,0,1-.87-.21l-.79-.2c-.55-.13-1.1-.28-1.64-.44-1-.33-2-.69-3-1A.45.45,0,0,0,.21,1.75ZM8.1,4.56c-.12-.15-.24-.3-.35-.46a3.15,3.15,0,0,1,.33-.22,3.59,3.59,0,0,1,.51-.2c0,.09-.05.19-.07.29s-.11.29-.16.43a3.42,3.42,0,0,1-.13.34Z"/><path class="cls-1" d="M10.61,2.78h0Z"/><polygon class="cls-1" points="8.27 2.69 8.27 2.69 8.27 2.68 8.27 2.69"/></g></g></svg>