<svg xmlns="http://www.w3.org/2000/svg" viewBox="0 0 6.45 17.73"><defs><style>.cls-1{fill:#5b7dba;}</style></defs><title>Asset 10</title><g id="Layer_2" data-name="Layer 2"><g id="OBJECTS"><path class="cls-1" d="M3.23,15l0,0h0Z"/><path class="cls-1" d="M6.39,13.87a4.32,4.32,0,0,0-.62-.79A6.35,6.35,0,0,0,5,12.41a6.07,6.07,0,0,0-.73-.47,8.39,8.39,0,0,0-1-.45v0a3.67,3.67,0,0,0-.46-.82.22.22,0,0,1,.05.08l-.15-.25c.18-.25.34-.5.51-.75A13.43,13.43,0,0,0,4,8.45a4.6,4.6,0,0,0,.33-.76,6.82,6.82,0,0,0,.2-.87,9.31,9.31,0,0,0,.17-1.49,6.17,6.17,0,0,0-.14-1.55c-.06-.25-.13-.5-.2-.74A8.33,8.33,0,0,0,4,2.22,7.79,7.79,0,0,0,3.26,1a2.89,2.89,0,0,0-.5-.55A3.21,3.21,0,0,0,2.28.08.57.57,0,0,0,2,0a.52.52,0,0,0-.42.22.51.51,0,0,0,.15.69l.42.29c.1.1.19.21.28.32a9.2,9.2,0,0,1,.91,1.73c.08.25.15.51.21.76a5.58,5.58,0,0,1,.11.82c0,.29,0,.58,0,.87s-.08.67-.14,1a4.31,4.31,0,0,1-.11.49,5.4,5.4,0,0,1-.25.67A18.54,18.54,0,0,1,1.81,10l-.41.57c-.13.19-.24.39-.36.59a5.33,5.33,0,0,0-.52,1.14,2.38,2.38,0,0,0-.05.26s0,.05,0,.07a4.67,4.67,0,0,0-.31.81,3.48,3.48,0,0,0-.13.73,5.08,5.08,0,0,0,0,.68,5.43,5.43,0,0,0,.27,1.49,6.85,6.85,0,0,0,.55,1.08.64.64,0,0,0,.29.25.53.53,0,0,0,.39,0A.51.51,0,0,0,1.71,17a5.44,5.44,0,0,1-.52-1c0-.14-.08-.27-.11-.42a4,4,0,0,1-.07-.5,4.69,4.69,0,0,1,0-.53,2.2,2.2,0,0,1,0-.36l.09.26c.11.26.23.52.36.77a5.6,5.6,0,0,0,1,1.32.49.49,0,0,0,.7,0,.5.5,0,0,0,0-.71,6.06,6.06,0,0,1-.66-.78A9.63,9.63,0,0,1,2,13.78a1.72,1.72,0,0,0-.07-.21,1.88,1.88,0,0,1,.23.16,5.11,5.11,0,0,1,.57.57c.19.23.37.48.55.72a.1.1,0,0,1,0,0l.06.08,0,0,0,0a4.8,4.8,0,0,1,.3.48c.12.19.22.39.34.59a.5.5,0,1,0,.88-.47c-.16-.27-.31-.56-.48-.83s-.44-.65-.68-1a4.55,4.55,0,0,0-.6-.64,6.33,6.33,0,0,1,.54.36,7.27,7.27,0,0,1,.57.54,6.05,6.05,0,0,1,.55.68,1,1,0,0,1-.08-.11l.32.46a.49.49,0,0,0,.7,0,.49.49,0,0,0,.17-.34.56.56,0,0,0-.13-.35.49.49,0,0,0,.52.05A.51.51,0,0,0,6.39,13.87ZM2.11,11.36a3.26,3.26,0,0,1,.26.53v0l-.44.1-.24.06C1.83,11.83,2,11.59,2.11,11.36Z"/></g></g></svg>