<svg xmlns="http://www.w3.org/2000/svg" viewBox="0 0 15.99 9.44"><defs><style>.cls-1{fill:#5b7dba;}</style></defs><title>Asset 7</title><g id="Layer_2" data-name="Layer 2"><g id="OBJECTS"><path class="cls-1" d="M15.62,0l-.14,0A.51.51,0,0,0,15,.37a.64.64,0,0,1-.06.16.19.19,0,0,1,0,.07l0,.08-.2.4a6,6,0,0,1-.52.88,6,6,0,0,1-.58.65,6.39,6.39,0,0,1-.68.59,7.84,7.84,0,0,1-1.29.74,8.17,8.17,0,0,1-1.69.41c-.57.05-1.14,0-1.71.06h0L7.5,4c-.22-.12-.43-.26-.65-.37l-.13-.06a1,1,0,0,0,0-.22,3.42,3.42,0,0,0-.42-.91,4.79,4.79,0,0,0-.75-.87c-.32-.3-.69-.56-1-.85a.51.51,0,0,0-.71,0,.5.5,0,0,0,0,.71l.7.58a4.71,4.71,0,0,1,.84.83,4.48,4.48,0,0,1,.28.47,6.86,6.86,0,0,0-1-.56,7.38,7.38,0,0,0-.91-.4,5,5,0,0,0-.87-.2l-.14,0a.53.53,0,0,0-.23.06.57.57,0,0,0-.24.31.53.53,0,0,0,0,.37.48.48,0,0,0,.3.24,5.17,5.17,0,0,1,.54.11l.55.18a8.61,8.61,0,0,1,1.43.78,2.06,2.06,0,0,1,.29.3l0,0-.68-.28h0a8.11,8.11,0,0,0-.93-.36c-.2-.07-.4-.12-.6-.17a5.86,5.86,0,0,0-.58-.1,6.49,6.49,0,0,0-.88-.05c-.41,0-.82,0-1.23.07a.57.57,0,0,0-.35.14A.48.48,0,0,0,0,4.12a.5.5,0,0,0,.14.35.49.49,0,0,0,.36.15,8.93,8.93,0,0,1,1-.07h.57a4.43,4.43,0,0,1,.51.06,6.11,6.11,0,0,1,.74.17,8.21,8.21,0,0,1,.78.29h0l.11,0H3.52a17.69,17.69,0,0,0-2.3.19.46.46,0,0,0-.31.23.48.48,0,0,0-.05.37.5.5,0,0,0,.23.32.53.53,0,0,0,.37,0l.16,0h.06c.61-.07,1.22-.12,1.84-.13l.88,0a13.38,13.38,0,0,1-2.35.46l-.19,0a2.55,2.55,0,0,1-.39,0,.49.49,0,0,0-.5.49.54.54,0,0,0,.14.36.58.58,0,0,0,.36.15,3.67,3.67,0,0,0,.46,0l.61-.08c.36,0,.7-.11,1-.18s.72-.16,1.08-.26l-.42.28a5.77,5.77,0,0,1-.68.4c-.23.14-.48.26-.72.38s-.42.21-.64.3l0,0a.5.5,0,1,0,.25,1,9.64,9.64,0,0,0,1-.44c.3-.15.6-.31.89-.48a9.85,9.85,0,0,0,.93-.6c.24-.18.48-.36.7-.56a2.71,2.71,0,0,0,.51-.61h0a.53.53,0,0,0,.25,0,.68.68,0,0,0,.2,0l.2,0a1.91,1.91,0,0,0,.56-.31c.24-.19.47-.37.7-.58l.43-.4,0,0h.53a6.43,6.43,0,0,0,1.31-.16,7.44,7.44,0,0,0,1.23-.33A6.9,6.9,0,0,0,13,4.31a8.07,8.07,0,0,0,1.13-.87,7,7,0,0,0,.92-1,6.88,6.88,0,0,0,.61-1.09L15.84,1l0,0c0-.1.08-.2.11-.3A.5.5,0,0,0,15.62,0ZM6.77,5.79h0Zm0,0h0Zm0,0Zm.25-.14-.19.11s0,0,0-.08a6.61,6.61,0,0,1,0-.89L7,4.86l.64.35Z"/><path class="cls-1" d="M1.62,6.24h0Z"/></g></g></svg>