<svg xmlns="http://www.w3.org/2000/svg" viewBox="0 0 58.6 84.92"><defs><style>.cls-1{fill:#321f10;fill-rule:evenodd;}</style></defs><title>Asset 3</title><g id="Layer_2" data-name="Layer 2"><g id="Layer_2-2" data-name="Layer 2"><path class="cls-1" d="M25.57,1.37c.36-.6.23.5,0,0Z"/><path class="cls-1" d="M27.24,1.32c.24-.05.26.14.46.14-2.86,4-5.19,8.41-8,12.41A116.22,116.22,0,0,1,27.24,1.32Z"/><path class="cls-1" d="M29.23,1.57s.31-.29.45-.16S29.09,1.84,29.23,1.57Z"/><path class="cls-1" d="M21.56,5c-.81,3.06-3,5.78-4.46,9C17.94,10.94,20.1,7.9,21.56,5Z"/><path class="cls-1" d="M33,7.09Z"/><path class="cls-1" d="M46.35,9.75Z"/><path class="cls-1" d="M43.44,19.43c.43-.24.46.66,0,.45C43.45,19.73,43.44,19.58,43.44,19.43Z"/><path class="cls-1" d="M42,21.14Z"/><path class="cls-1" d="M51,23Z"/><path class="cls-1" d="M44.11,27.17c-.06-.06.11.09,0,0Z"/><path class="cls-1" d="M35,27.58Z"/><path class="cls-1" d="M43.67,27.49c0-.15.18-.13.3-.17C44,27.47,43.78,27.45,43.67,27.49Z"/><path class="cls-1" d="M2.13,33.24c.16-.6.19.6,0,0Z"/><path class="cls-1" d="M37.15,33.61Z"/><path class="cls-1" d="M3.25,35.19Z"/><path class="cls-1" d="M25.17,35.32c0-.15.18-.12.3-.16C25.47,35.31,25.29,35.28,25.17,35.32Z"/><path class="cls-1" d="M31.71,35Z"/><path class="cls-1" d="M3.66,38.68Z"/><path class="cls-1" d="M3,40.83c-.07-.06.1.1,0,0Z"/><path class="cls-1" d="M25.05,41.72c.16-.61.2.59,0,0Z"/><path class="cls-1" d="M25.36,41.71Z"/><path class="cls-1" d="M24.6,42c-.06-.07.11.09,0,0Z"/><path class="cls-1" d="M31.62,42.59Z"/><path class="cls-1" d="M54.94,43.75c.36.23,1.14.56.79,1a.56.56,0,0,1-.62-.59,1.42,1.42,0,0,0-.43,1.08c-.48-.1-.48.54-.9.33C54.11,44.94,54.7,44.51,54.94,43.75Z"/><path class="cls-1" d="M47.6,58.42c-1.55.65-2.74,1.9-4.66,2.11-1.38.16-2.82-.69-4.28-.64-1.11,0-1.61.62-2.71.84.27-3.91,8,.35,9.34-3.16A3.28,3.28,0,0,1,47.6,58.42Z"/><path class="cls-1" d="M34.79,62.75c-1.19,2.23-3.08,4-4.55,6.06-.45.64-.6,1.84-1.62,1.87a58.89,58.89,0,0,1,5.71-8.07C34.57,62.56,34.59,62.74,34.79,62.75Z"/><path class="cls-1" d="M37.87,69.51c.8-1.87,2.26-3.1,3.37-4.67-.74.35-1.74-.12-2.29-.08-1.41.93-2,2.61-3.39,3.6-.51.84-.48,1.58-1.48,1.71.93-2.18,2.58-3.68,4-5.44,0-.22-.46,0-.47-.29a39.11,39.11,0,0,0-5.14,6.54c1.27.26,2.52-.78,3.94-.87-.7,1.35-3.88,1.84-5.75,1.38-.33,0-.48.14-.44.47-.25-.42-1-.27-1.09-.88.36,0,.44-.28.91-.18A55.29,55.29,0,0,1,36,63a16.38,16.38,0,0,0,6.28,1.35C40.9,66.15,39.73,68.15,37.87,69.51Zm-2-5.58c-1.36,2.66-4.47,4.47-5.13,7.15,0-.29.52.16.92,0,1.38-2.59,3.41-4.56,5-7-.36-.09-.42-.49-.78-.58C35.83,63.6,36,63.81,35.89,63.93Z"/><path class="cls-1" d="M39.72,65c-.36,1.74-2.34,3.2-3.36,4.81-.59-.88.73-1.71,1.3-2.47S38.8,65.37,39.72,65Z"/><path class="cls-1" d="M52.21,65.44Z"/><path class="cls-1" d="M36.26,71.83a2.65,2.65,0,0,1,1.88,1.63c-4.27.91-8.74,1.59-12.63.05-.85,0-1.65.76-2.27.52-.44-1,1.05-1.34,1.46-2C28,73.72,33.2,74.57,36.26,71.83Z"/><path class="cls-1" d="M37.18,71.81Z"/><path class="cls-1" d="M34.4,75.69c-.56,1.3-2.39,1.4-3.28,2.38-.54.14-1-.63-1.23-.27a2.08,2.08,0,0,0-1.1-1.34C29.47,75.5,32.77,75.64,34.4,75.69Z"/><path class="cls-1" d="M12.29,69c-1.75-.28-2.92-1.18-4.34-2.76C6.24,64.35,4.4,61,5.27,57.81,2.66,54.38,1.07,49.5.47,44.4c-.08-.62-.45-.07-.47-.59.16-.37.5-.59.57-1.24.35-3,.56-7.66,2.31-9.65-.86-.37.45-2.73-.72-3.79.66-9.32,2.64-16.3,7.91-21.53A29.64,29.64,0,0,1,16.33,3c2.57-.93,5.08-2.44,8-2.82a36.93,36.93,0,0,1,8.06.07,40.92,40.92,0,0,1,7,.87c1.25.37,2.24,1.36,3.4,1.72a14.82,14.82,0,0,0,1.83.1c1,.23,1.7,1.17,2.77,1,5.5,4.37,9.15,13.85,7.35,23.07a45.93,45.93,0,0,1,3.46,9c1.51,6.83-1.82,14.16-3.86,19.44,1.16,4.89-1.85,10-4.67,12-1.25,5.74-5.09,8.94-9.23,12.6-2.42,2.13-6.12,4.72-9.15,4.82-2.47.09-5.48-2-7.7-3.43C18.68,78.32,14.38,75.23,12.29,69ZM31.18.75C22.26-.21,12.31,4.32,8.35,11.3c-.51,3.13-2.86,6.55-3.22,9.83.57-.05.28-.91.73-1.08.52.38-.54.74.18.91,1.18-2.88,2.12-6.78,3.86-8.64C9,16.11,6.23,18.57,7,22.91c1.33-2.79,2.41-6.6,4-8.64a43,43,0,0,1-2.85,6.62c.12,1-.61,1.12.05,1.68a51.63,51.63,0,0,1,3.61-6.65c-.52,2.59-2.58,4.27-2.54,6.92,1.55-1.89,2.41-4.43,3.93-6.35C13,18.47,11,19.88,10.94,22c1-.85,1.13-3.27,2.18-3.56,0,1.36-1.26,2.36-1.12,3.38,1.8-1,2.22-3.23,3.52-4.67a9.65,9.65,0,0,1-4.39,6.06c0,.63.44,1,.19,1.52-.52,0-.33-.8-.78-.89-.44.33-.17,1.32-.56,1.69-.29-.06-.39-.32-.77-.28a4.85,4.85,0,0,1-1.77,2c0,.36.27.44.18.91-.35.57-.68-.13-1.06.18.15,1.06-.86,3.63-1.87,4a24.18,24.18,0,0,0,1.14-2.92,18.59,18.59,0,0,0-3.68,9.84,19.36,19.36,0,0,0,1.68-5.22c-.13.27,0,.81-.43.77a17.47,17.47,0,0,1,1.45-2.32c-.15,2.33-1.6,4.69-2.23,7.06,0,.41.84.67.18.91.16-.22.15-.38-.17-.45A6.77,6.77,0,0,0,3,42.5a84.46,84.46,0,0,1,3.52-10c.37.41.07,1.25-.1,1.83-1,3.43-4.36,8.39-2.71,11.49,1-.92-.07-3.5,1.27-3.54.9-2.22,1.11-4.75,2.56-6.16-.69,3.47-4,7.26-2,11.32A8.53,8.53,0,0,0,6,44.7a1.06,1.06,0,0,0,.32.45c.74-1.67.84-3.94,2.13-5.08-.5,2.49-2.5,5.63-1.59,8.26.91,0,.13-1.75.41-2,.41-.08.15.56.47.59.65-1.7.81-3.86,2-5.08,0,2.08-2.54,4.79-1.32,7,.71-1.6,1.15-3.45,2.3-4.63-.27,2-1.87,3.37-1.05,5.51.48-.7.3-1.21.24-2.29.3-.34.49.12.75-.17a2.65,2.65,0,0,1,1-1.86c-.3,1.38-1.21,2.85-.94,4.29,1-.39.5-2.19.82-3.22.35,0,0,.84.48.75a8.28,8.28,0,0,1,.73-1.09A.92.92,0,0,0,13,47.39c.29-.32.18-1,.73-1.09,0,1.31-1.39,2.27-.51,3.52a3.9,3.9,0,0,0,.39-2.45c.42-.14.4.2.76.13a12.73,12.73,0,0,1,1.3-2.32c0,1.8-1.42,2.39-1.1,3.84,1.19-1.79,2.26-4.48,3.64-5.59-.37,1.13-1.34,2.48-1.58,3.25,2.1-2.15,3.54-6,5.55-8.08-.57,2.08-2.52,3.64-2.89,5.41,2.4-2.32,3.71-6.46,6-8.39-1.21,2.25-2.75,4.18-3.78,6.2,3-2.63,5.09-6.84,7.49-9.5-.95,2.3-2.53,4-3.94,5.9,4.24-2.07,5.45-7,8.7-10-1.2,2.52-3.62,5.14-4.52,7,3.23-2.37,4.91-7,7.8-9.2-1.68,2.8-3.87,5.13-5.71,7.77,4-2.55,5.83-7.9,9.13-10.61-2,3.44-5.11,6.42-6.73,9.33.67-.65,1.63-1,2.23-1.74,1,0,1.77-1.57,3-1.91,2-2.86,4.76-5.59,6.91-8.27.64-.79,1.17-2.16,2.38-2-2.93,3.35-5.8,6.75-8.84,10a12.51,12.51,0,0,0,4.75-3.94c.8-.94,1.62-1.93,2.36-2.81,1.6-1.91,2.86-4.27,4.55-5.61.23-.18.42-.64.91-.33-3.11,3.42-6,7.4-9.43,10.93.83-.94,2.66-.84,3.91-1.64.83-.53,1.75-2.07,2.65-3.12s2-2.47,2.65-3.27,2.15-1.5,1.14-2.62c-2.7,3-4.65,6.58-7.82,8.75,2.76-2.87,5.06-6.18,7.65-9.2-.9-2.07-.93-4.82-1.86-6.65-.48-.94-1.66-1.06-1.74-2.08-2.23-2-5.55-2.7-9.19-2.32a12.56,12.56,0,0,0-5.87,2.3c-.53-.08.83-.66,0-.61-.39,0-.2.6-.59.63-.4-.55-1.7.27-2,.81-6,2.12-10.69,7.47-15.36,10.79,2.07-3.23,6.44-5,7.21-8.57,0,.08-.12.17-.15,0,2.28-2.62,3.65-6.11,5.83-8.84-1,2.94-3,5-4.35,7.58,1.07-.42,2.52-1.27,2.37-2.35.12.33-.54.64-.6.32.58-.41,2.35-1.78,1.32-1.86.89-.24,1.08-1.15,1.47-1.87-.29-.14-.5.47-.61,0,1.17-.14,1.84-1.43,1.17-1.71C30.8,1.21,30.58,1.4,31.18.75Zm-.42,1.38c.66-.41,1.44-.71,2.1-1.12a3.2,3.2,0,0,0-1.37,0C31.74,1.2,30.33,1.81,30.76,2.13Zm.64,1.05c.81-.57,1.93-.84,2.39-1.74C32.54,1.49,31.29,2.33,31.4,3.18Zm3.5-.1a1.67,1.67,0,0,0,1.49-1.26C35.52,1.45,35.22,2.49,34.9,3.08ZM29.3,4.16a3.8,3.8,0,0,0,1.92-1.89A2.5,2.5,0,0,0,29.3,4.16Zm3.34-.4c1,.06,2.3-1.15,1.78-1.58C33.71,2.6,32.92,2.94,32.64,3.76Zm3.49-.41c.41,0,.29-.26.6,0,.07-.47.62-.5.58-1.08C36.77,2.48,36.65,3.11,36.13,3.35ZM30.38,4.73a2.87,2.87,0,0,0,1.94-1.42C31.42,3.45,30.18,4,30.38,4.73Zm8.33-1.61c-.87.43-.4.87,0,0ZM34.32,4c.22,0,1.09-.23.59-.47C34.88,3.85,34.24,3.59,34.32,4Zm2.14.4c.56-.12.74-.59,1-1C36.94,3.58,36.76,4.05,36.46,4.41Zm2.28-.22c.47,0,1.11-.14,1.37.11C40,3.7,38.86,3.49,38.74,4.19ZM31.46,5.31c.8-.33,1.82-.46,2.1-1.28C32.76,4.36,31.66,4.41,31.46,5.31Zm3,.22c.62-.26,1.56-1,1.33-1.56C35.27,4.27,34.44,5.11,34.51,5.53Zm-5.93,0c.7-.18,1-.74,1.33-1.26C29.09,4.25,28.32,5.05,28.58,5.55Zm5.91-.93A2.3,2.3,0,0,0,32.85,6C33.87,6,33.86,5,34.49,4.62Zm1.83.09c-.77.69.47-.29,0,0ZM29.06,6.45c1-.12,2-1,1.94-1.58C30.28,5.33,29.18,5.42,29.06,6.45Zm.65,1.35c1.16-.68,2.42-1.27,3-2.52C31.39,5.74,29.9,6.8,29.71,7.8Zm-2.3-.55c.91-.12.95-1.07,1.48-1.56C28,5.79,27.71,6.55,27.41,7.25Zm-.4,2c1.07-.61,2.8-1.4,2.66-2.66A4.41,4.41,0,0,0,27,9.24Zm-1.09-.88c-1.7.66-2.37,2.3-3.24,3.75A3.06,3.06,0,0,0,24,11c0,.12,0,.3.16.3.09-.55.83-.5,1-.94C24.57,10.09,26.3,8.86,25.92,8.36Zm-.71,1.85c1.25-.35,1.59-1.56,2.21-2.5C26.32,8.2,26,9.41,25.21,10.21ZM7.75,11.78c.11.09-.06-.07,0,0ZM5.64,17.62c.45-1.75,1.59-3.63,1.83-5.08A9.3,9.3,0,0,0,5.64,17.62Zm47.72-2.28c.2.59.16-.61,0,0Zm-5.82,9.29c2-.47,3.13-2.52,4.45-4.08.74-.88,2.3-1.57,1.3-2.62C51.48,20.24,49.12,22.37,47.54,24.63ZM5,23c.55,0,.3-1.48.11-1.67,0,.08-.12.17-.16,0s0-.3-.16-.3C5,21.83,5.28,22.05,5,23Zm44.62.85c2.06-.37,2.66-2.12,4.18-3-.31-.48.19-.9-.34-1.21C52.53,21.31,51,22.47,49.65,23.81ZM5.75,21.57Zm.41,3.64a8.25,8.25,0,0,0,0-3.8C6.05,22.06,5.36,24.15,6.16,25.21ZM9.47,23.9c.6,0,.45-.66,1-.64-.1-.31.16-1-.18-1.06A5.16,5.16,0,0,0,9.47,23.9Zm-1,1.25a2.79,2.79,0,0,0,.23-2.75C8.21,23.11,7.79,24.62,8.44,25.15ZM51.61,23.3c1.24.23,1-.95,2.11-.82-.09-.27.16-.9-.18-.91A7.63,7.63,0,0,1,51.61,23.3ZM5,23.27Zm2.17,1.3c.07-.63.7-1,.11-1.52C7.35,23.53,6.78,24.21,7.21,24.57Zm-1.81.67c-.1-.37.16-1.11-.19-1.22C5.24,24.48,4.83,24.93,5.4,25.24ZM53,24.63c.36,0,.35.46.63.59a6,6,0,0,1,.09-2C52.75,23.27,54,24.55,53,24.63Zm-46.11.26c.11.09-.06-.06,0,0ZM7,26.71c.66.08,1.11-1.44.4-1.68A4.42,4.42,0,0,0,7,26.71Zm-1.54-.56c0-.2,0-1.1-.17-.61C5.24,25.74,5.27,26.65,5.43,26.15Zm.79,1.19c-.17-.71.62-1.28.1-1.83C6.24,26.26,5.66,26.73,6.22,27.34Zm43.92-2.48h.3c.23-.39-.53-.44-.46-.14C50.07,24.72,50.16,24.73,50.14,24.86Zm4.63,23.46c1.65-3.53,3.64-10.36,1.1-14.64.22,0,.13-.37.13-.61-2.15-3.05-3.48-7-7.38-8.16-3.64,1.57-6.54,2.52-9,5.13,0-.24,0-.53-.32-.45s.21.38,0,.76A15.94,15.94,0,0,0,34.66,37c.36,0,.29.52.77.43.18-1,.63-2.56,1.29-2.62,0,1-1.83,2.8-.35,3.36a2.87,2.87,0,0,1,.55-2c.42.8-.11,1.83-.23,2.6.43,0,.36.44.77.43.37-.44.21-1.38.87-1.55.32.54-.58,1.73-.24,2.29.5.33.5-.84,1.2-.79-.07.53-.39.82-.42,1.38,2,1.86,3.92,3.89,6.09,5.61a.69.69,0,0,1,.29-.62c.3.55,0,.91.19,1.37.66.12.25-.76.74-.79.5.4-.42,1.46.35,1.67.3-.6.45-2,1.33-1.56A4.35,4.35,0,0,0,47,48.7c.91-.28.61-1.69,1.62-1.88.37,1-1.48,2.06-.53,2.76.39-.86.59-1.91,1.45-2.33.1,1.35-1.34,2-.82,3.22,1-.81.86-2.64,2-3.25.41,1.3-2.21,3.14-.94,4.29.76-1.39,1.19-3.61,2.75-4.65-.48,2.11-2,3.29-2.43,5.4,1.9-1,1.76-4.74,3.81-5.13-.61,1.66-2.65,3.49-2.13,5.23,1-1.93,1.62-4.29,3.34-5.57C55.3,47.4,54.17,48.22,54.77,48.32ZM5.29,26.46c-.14.88.65,0,0,0ZM4.87,28c.36.62-.23.93.34,1.21.4-.22.63-2,.25-2C5.46,27.66,5.43,28.07,4.87,28Zm49-.49c.11.09-.06-.06,0,0ZM38.13,30.84c0-.32.81-.59.44-.77C38.4,30.22,37.58,30.49,38.13,30.84ZM55.31,30c.1.1-.07-.06,0,0ZM35.89,32.27c-.12,1.33-1.57,2.66-1.85,4.32,1.27-1.71,2.1-3.84,3.34-5.58C36.64,31.21,36.51,32.42,35.89,32.27Zm2-1.12c.1.1-.07-.06,0,0Zm-.3.32c.1.09-.06-.07,0,0ZM35.6,32.59c-.48.06.37-.45-.17-.45a9.05,9.05,0,0,0-2.33,3.72.7.7,0,0,1,.46.13C34,34.92,34.94,33.7,35,32.76,35.23,33.08,35.44,32.53,35.6,32.59Zm.15,0c.1.1-.07-.06,0,0Zm-2.11.82c-1.07.81.31-.23,0,0ZM32.2,36.19c.24-.81.89-1.24,1-2.16C32.57,34.3,32.09,36.2,32.2,36.19ZM32,34.82c.1.1-.07-.06,0,0Zm-1.2.64c.13.45.87-.09.47.6.44-.54.8-.78.42-1.23C31.53,35.4,31.11,35.3,30.81,35.46Zm1.7.87c0,.56.39.62.78.74,0-.52-.28-.64-.48-.9C32.78,36.29,32.68,36.35,32.51,36.33Zm1.4,1.33c.33-.33,0-.52-.32-.6C33.56,37.41,33.65,37.63,33.91,37.66Zm2.18,1.61c-.23-1-1.18-1.15-1.72-1.78C34.49,38.56,35.52,38.68,36.09,39.27Zm-6.57-.88Zm-.1,1.83c1.07.17,1.18-1.34,1.33-1.56C30.23,39.11,29.47,39.33,29.42,40.22Zm-1.67.05c.75.39,1.61-.86,1.48-1.26C28.51,39.21,28.17,39.78,27.75,40.27Zm2.89-.08a4.19,4.19,0,0,1,1.52,0c.09-.41.42-.59.58-.93C31.61,38.58,31.07,39.41,30.64,40.19Zm-5,.45c.15-.36.95-.09,1.36-.2-.16-.46.8-.61.28-.92C27.06,40.11,25.31,40,25.63,40.64Zm7.29-.52c.52,0,1.06,0,1.21-.34-.45.06-.48-.33-.92-.28C33.33,39.92,32.91,39.82,32.92,40.12Zm4.42.18c.1-.68-.52-.6-.79-.89C36.62,39.91,37,40.06,37.34,40.3Zm-3.77,1.32c.17,0,.24.17.31.3.81-.18.91-1,1.33-1.56-.49.2-.13-.49-.62-.29C34.41,40.74,33.85,41.05,33.57,41.62Zm-3.8,0c.69-.06,1.94,0,1.94-1.12a3.57,3.57,0,0,1-1.21,0C30.15,40.76,30,41.24,29.77,41.58Zm2.12-.06,1.07,0c.08-.38.93-.88.27-1.07A1.74,1.74,0,0,0,31.89,41.52Zm6.37-.79c-.28,0-.12-.5-.47-.44,0,.15,0,.3,0,.45C38.07,40.68,38.2,41,38.26,40.73ZM26.12,42c1.19.13,1.53-.53,1.95-1.12C27.05,40.52,26.8,41.59,26.12,42Zm2.12-.36c1,.16,1-.52,1.35-1-.53-.1-.64.31-.92,0C28.81,41.28,28.24,41.18,28.24,41.63Zm-26.93.16c.19.6.16-.61,0,0ZM25,41c-.18,0-.43,0-.45.16C24.76,41.09,25,41.14,25,41Zm-.75.48c0,.47-1,.84-.27,1.07a2.47,2.47,0,0,1,1.51-.35c-.07-.55,1.08-.87.27-1.22C25.28,41.26,24.91,41.58,24.28,41.44Zm2-.37c.1.1-.07-.06,0,0ZM35.68,41c.11.09-.06-.07,0,0Zm.77.13c.47.4-.43-.45,0,0Zm4.47,2.15c-.62-.85-1.51-1.43-2.19-2.22A7.48,7.48,0,0,0,40.92,43.24ZM1.18,42.4c.19.6.15-.6,0,0Zm1.43,2.09c-.22-1,.14-1.6-.52-2.11C2.49,43.11,1.88,44,2.61,44.49ZM36,41.56c-.35,0-1-.27-.6.17C35.32,41.3,36,42.09,36,41.56ZM1.19,42.86c.1.1-.07-.06,0,0Zm26.67,1.21,1.52,0c.3-.85,1.11-1.22,1.31-2.17C28.83,41.73,28.48,43,27.86,44.07ZM30,44a2.17,2.17,0,0,1,1.21,0c.25-.9,1.06-1.28,1.31-2.17C30.84,41.76,30.83,43.27,30,44Zm7.39-2.34c-.12,0-.3,0-.3.16C37.2,41.79,37.38,41.82,37.38,41.67ZM26.49,44.26a3.7,3.7,0,0,0,1.92-2.18A2.31,2.31,0,0,0,26.49,44.26Zm3.05.07a20.2,20.2,0,0,1-3.08,4.2c-1,1.85-1.93,3.79-3.5,5.12-.09-.22-.24-.38-.32-.6,2.36-2.66,4.16-5.83,6.29-8.7-.56.06-1.35-.1-1.67.2-.06.57.54-.06.78.43a5.53,5.53,0,0,1-1.36.34c-1.67,2.62-3.42,5.16-5.11,7.76.38.23,1.2,0,1.09.73-1.1-.49-1.88-.15-3.2-.21-.35.36-.32,1.08-1,1.09-.4.06.12-.85-.47-.59-1.12.22-1.63,1-2.7,1.29.07-.77,1.19-1.34,1-1.85-1.62,1.27-2.13,3.58-2.42,5.7.82-.31,1.48-.77,2.24-1.13,1.19.54,1.36,1.21,2.33,1.45,3.47.86,6.34-2.54,7.93.54-.52.1-1.77.6-2.29-.24-3.17,1.49-7.32.49-10,.13,0-.22,0-.56-.17-.6-.42,1.72.29,3.54,1.49,4.07-.51,1.47-2.46,3.07-2,4.47.78-1.2,1-2.91,2.49-3.42-.55,1.75-2,2.65-2.3,4.63,1.35-1.48,1.9-3.73,3.51-5,.84.59,2.41.46,3.07.82-1.16,1.55-2.67,3.4-3.81,5.14-.39.59-1.05,1.7-.54,2.45,1.84-2.5,3.06-5.6,5.41-7.62-1.16,3.1-4.1,5.3-4.78,8.36,1.23-.84,2.07-2.74,3.07-4.35.47-.75,1-1.59,1.46-2.33s.92-2,1.93-1.72A18.94,18.94,0,0,1,20.48,68a20.37,20.37,0,0,1-1.73,3.24c-.62,1-1.86,2-1.44,3.09,2.17-3.3,4.81-6.89,6.41-10.23,1.58-.18,2-1.43,3.13-2.07.34.72-.64.95-.27,1.23,3.67-4.46,7.29-9.51,10.71-14,.75-1,2.16-1.92,1.9-3-1.45.9-2.11,2.38-3.09,3.75C34,53,31.43,55.27,29.33,58c.16.6-.45.47-.28,1.08-.7.27-.77,1.14-1.64,1.26-.17-.95.5-1.11,1-1.4,2.83-4.82,6.89-8.48,10-13.07-1.45-.36-2.06,1.6-2.82,2.52C33.76,50.63,31.9,52.77,30.3,55c-.79,1.09-1.4,2.58-2.65,3,2.31-4,5.64-7.1,8.05-11-.38,0-.48-.22-.77-.28-2.27,3.38-4.85,6.46-7,9.94l-.61,0c-.3.22.37.71-.43.62-.3-1.36-1.51-1.75-2.21-2.68.88-.1,1.11.5,1.84.56,2.37-3.68,5.08-7,7.61-10.57-1-.69-1.48.53-2,1.12-1.67,2.14-3.35,4.25-4.83,6.38-.56.8-.73,2.2-1.92,2.34.83-2.28,2.78-3.49,3.64-5.74a28,28,0,0,0,3.67-5c.21.12,1.59-1.18.86-1.55s-2.18,2.54-2.79,3.43c-1,1.48-1.92,2.13-2.94,3.59-1.2,1.71-2.3,4.36-3.67,4.82,1.68-3.65,5-6.55,6.57-9.78C30.41,44.46,30.07,44.06,29.54,44.33Zm-5.17.15c1.47.23,2-1.49,2.37-2.2A3.74,3.74,0,0,0,24.37,44.48Zm10.29-2.13c.41.12,1,.56,1.06-.18C35.18,42.32,34.79,41.76,34.66,42.35Zm-33.46,1c.1.09-.06-.07,0,0ZM22,44.85c1.73,0,2.36-1.12,3-2.22A3.94,3.94,0,0,0,22,44.85Zm14.69-2.4c.1.1-.07-.06,0,0Zm.61,0c-.12,0-.3,0-.3.16C37.06,42.56,37.25,42.58,37.25,42.43Zm-3.76,1.48a2.59,2.59,0,0,1,1.07.27c.06-.49.56-.55.58-1.08C34.33,42.38,33.83,43.35,33.49,43.91Zm3-.7c.1.1-.07-.06,0,0Zm.3,0c.1.09-.06-.07,0,0Zm-1.64,1.11a3.54,3.54,0,0,0,.92.28c-.29-.78.54-.48.58-.93A.9.9,0,0,0,35.17,44.32Zm1.84.4c.9.3,1.18-.58,1.48-1.26C37.7,43.06,37.05,43.93,37,44.72Zm-15.24-.63c.1.1-.07-.06,0,0Zm-.29.32ZM2.62,45c0,1.61.76.83,0,0ZM21,45c0-.16.64-.33.14-.46C21.26,44.78,20.59,45,21,45Zm17.2.27c.17,0,.25.16.32.29a2,2,0,0,0,1.18-1.25C39.12,43.68,38.44,44.67,38.24,45.3ZM19.52,50.55c.35-.2.77-.83,1.2-.49-1.18,1.15-3.38,2.13-3.54,3.75.45-.58,1.46-.47,2-.66,1.81-3,4.09-5.51,6-8.39-1-.32-1.91.64-2.24,1.43.44,0,.54-.62.76,0C22.29,47.55,20.08,48.91,19.52,50.55Zm6.09-5.35c.45-.11.92-.21,1.05-.64C26,44.45,25.71,44.76,25.61,45.2ZM4.76,50.67c.65-1.89,0-3.72-.45-5.31A6.08,6.08,0,0,0,4.76,50.67Zm29.23-5c.78.48,1.24-.06,1.5-.8-.37,0-.47-.23-.77-.28A11.35,11.35,0,0,1,34,45.72Zm-12-.41ZM35.39,46.6c.43-.14.4.2.76.13.35-.57.83-1,1.18-1.56a4.2,4.2,0,0,1-.78-.43C36.29,45.46,35.05,45.76,35.39,46.6Zm-14-1a.42.42,0,0,0,.45-.32A.42.42,0,0,0,21.36,45.63Zm18.28.69c.61-.16.84-.69,1.19-1.1C40.15,44.46,39,45.82,39.64,46.32Zm-19.19-.67c-.65,0-1,.84-1.64,1.27.14,1.5-2.17,2.66-2,4.17a11.25,11.25,0,0,0,2.63-3.73.44.44,0,0,1-.47-.29C19.46,46.69,20.73,46.27,20.45,45.65ZM3,46.46c-.11.9.07-.61,0,0ZM19,49.2a12.54,12.54,0,0,0,3.4-3.45C20.55,45.76,19.69,48.12,19,49.2Zm6-3.52c-1.53,2.69-3.69,4.79-5.26,7.45.33.38.66-.47,1.06,0,1.66-2.47,3.41-4.87,5-7.45C25.4,45.68,25.31,46,25,45.68Zm8.84.2c-1.36,1.66-3.75,4.95-5.28,7.15-.82,1.19-2.36,2.38-1.12,3.38,2.1-3.69,4.86-6.76,7.16-10.25C34.24,46.2,34.14,45.94,33.85,45.88Zm6.41.88c.65.19,1.05-1.17.89-.79S40.46,46.41,40.26,46.76ZM16.38,47c.1.1-.07-.06,0,0Zm-14.14.56Zm4.05,3.23A4,4,0,0,0,6,47.29,4,4,0,0,0,6.29,50.78ZM41,47.19c.23.08.39.22.62.29.21-.46.92-1,.11-1.22C41.66,46.69,41.09,46.7,41,47.19Zm-25,.11c-.4.48.45-.43,0,0ZM2.4,47.85Zm9.93,1.23a3.94,3.94,0,0,0-.05-1.67C12.29,47.94,11.68,48.87,12.33,49.08Zm32-2.44c.1.1-.07-.06,0,0ZM10.31,47.92Zm34.37-1c.11.09-.06-.07,0,0ZM14.12,48c.1.09-.06-.06,0,0Zm24.82.35C34.83,53.51,30.29,59.59,26,65.13a3.22,3.22,0,0,1-.9.48C23.18,69,20.05,72,19,75.68c1.19-1.69,1.71-4,3.66-5,5.62-8.1,11.61-15.86,17.58-23.64C39.52,47.19,39.29,47.81,38.94,48.32ZM2,48.47c.1.1-.07-.06,0,0Zm40.16-.55c.17,0,.25.17.32.3.51-.06.59-.53.73-.93C42.67,46.89,42.32,47.58,42.12,47.92Zm-2.26.68c.69.62,1.08-.34,1.5-.81C40.61,47.21,40.14,47.94,39.86,48.6ZM7.79,50.28c0-.62.08-1.45-.5-1.51C7.36,49.38,7.14,50.29,7.79,50.28Zm1.1,1.19A2.18,2.18,0,0,0,8.67,49,3.51,3.51,0,0,0,8.89,51.47ZM43.68,49.1c0-.36.52-.3.43-.78-.24-.06-.14-.47-.61-.28C43.21,48.43,43.17,48.89,43.68,49.1ZM40.94,49c0,.48.4.51.78.59.15-.4.53-.58.57-1.08-.22-.08-.39-.22-.61-.29C41.42,48.49,41.38,49,40.94,49Zm5.47-.15c-.07-.29-.07-.66-.47-.6C45.92,48.65,46.19,48.74,46.41,48.87ZM11.33,51.55c.23-.7.87-1.44.25-2.14C11.36,50.18,10.72,50.74,11.33,51.55Zm2.54-1.9Zm.84,2.87c1-.49,1.79-2.73,2-3A18.82,18.82,0,0,0,14.71,52.52Zm9.52,18.75c-.4,0-.77.07-.63-.44,0-.23.37-.15.61-.17,3-4.23,6.05-8.34,9.23-12.29,1-1.28,1.19-3.58,2.93-4,.84-2,3-3.58,3.5-5.43-.88-.25-1,1.39-1.93,1.58-2.73,4.72-6.51,8.45-9.37,13.05l-.46,0c-1.27,2.81-4,5-4.8,7.74a1.66,1.66,0,0,0-1.61,2c-1.35.4-1.55,1.89-2.2,3,1.15-.49,1-2.22,2.21-2.65.11,1.11-1.22,2.09-1.43,3.39,1.3-.26.81-2.19,2.22-2.34.13.52-.27.65,0,.91.1.26.72,0,.77.28,1.12,2,3.52,2.54,5.43,3.65,1.1.1,2.51-.39,3.06.37a11.94,11.94,0,0,0-2.35,3c2.07-.22,1.88-3.34,3.71-3.31-.69,1.28-1.69,2.25-2.33,3.57C31.7,81.87,33,81,33.28,79.23c.63,0,1.3-.65,1.82-.21-1.27,1.12-2.86,2.72-3.23,4.2a24,24,0,0,0,3.82-4.82c1.92-.89,3.68-2.61,3.83-4.68.58.3,1.28-.17,1-.49,0,.18-.24.18-.45.17a4.89,4.89,0,0,0-.51-1.81c-.16.3-.09.81-.75.63-.1-.69.56-.66.42-1.38-.94-.29-1.51-.78-2.75-.38.24-1.16,1.55-.95,2.42-.53,1.54-1.8,2.44-4.21,4.41-5.6-.84,2.41-2.85,3.72-3.79,6,2-1,2.73-4.52,5-5.77.33.59-.31.92-.72,1.23a57.06,57.06,0,0,1-3.67,5c.45,0-.1,1.15.34,1.21,2.09-3.11,4.82-6.4,6.58-9.32a2.48,2.48,0,0,1-2.4,1C46.85,63,47.47,61,48.23,59A.57.57,0,0,0,49,59a4,4,0,0,0-.55-3c-.5.25.37.88-.28.92A9.7,9.7,0,0,0,43.8,53.2c-.69,0-1.35.08-1.54-.41.14-.41,1.26-1.3.72-1.39-.64-.35-1.16,1.46-1.79,1.12,0-.89,1.29-1.2.86-2-.78-.15-1.17,1.25-1.94,1.58-.22-.74.89-1.4,1.16-2.16-.33,0-.49-.11-.47-.45-1.56,1.1-2.43,2.84-3.68,4.22.65,0,1.37-.67,1.81-.36-.47,1-1.83.85-2.69,1.6A8.46,8.46,0,0,0,34,60c0,.92.83,1.53.68,2.42-.66.11-.5-.63-1.09-.58-1.94,3-4.59,5.42-6.13,8.85.59-.06,1.05,0,1.23.42-1,.69-2.92-.45-4,.11.61.15-.82.69-.9.49S24.28,71.62,24.23,71.27ZM5.73,52.62A3.18,3.18,0,0,0,5.2,49.9,2.39,2.39,0,0,0,5.73,52.62Zm10.8-.31c-.27-.47.55-.64.13-.76-.68.84-1.69,1.37-1.9,2.64-1.26,1,.49-.51.88-.94.2,0,.22.19.46.14,1.13-1.1,2.65-2.63,3.09-3.89C18.12,50.27,17.55,51.5,16.53,52.31Zm27.62-2.62c.29,0,.34.16.61.14-.14-.49.39-.33.44-.62-.34,0-.18-.44-.47-.45C44.65,49.18,44.11,49.16,44.15,49.69Zm-34,2c.24-.41.51-1.51,0-1.82C9.93,50.51,9.54,51.26,10.12,51.73Zm2.57-.68a1,1,0,0,0-.19-1.21C12.6,50.5,12.48,50.78,12.69,51.05Zm.88-.94Zm28.77.24a1.07,1.07,0,0,0,1-.94C42.89,48.68,41.93,49.81,42.34,50.35ZM6.8,52.9c.4-.56.7-2-.06-2.44A2.79,2.79,0,0,0,6.8,52.9Zm40.88-2.24c.34-.55-.65-.82-.8-1.35C46.49,49.92,47.44,50.22,47.68,50.66Zm-39.21,2A2.21,2.21,0,0,0,8,50.88C8,51.6,7.88,52.54,8.47,52.69Zm34.65-1.9c.12,0,.18.12.16.3.68-.07,1.4-1,.57-1.24C43.71,50.26,43.26,50.38,43.12,50.79Zm2-.36c.44,0,.82-.54.28-.62C45.3,50,45.16,50.2,45.09,50.43ZM53.6,50c.1.1-.07-.06,0,0ZM4,51.76c.11.09-.06-.07,0,0Zm7.5,1.3c.48-.28,1.06-1.37.56-1.69C11.86,51.9,11.42,52.22,11.53,53.06Zm-2,.21a1.77,1.77,0,0,0-.2-1.67C9.1,52.41,9,52.79,9.56,53.27Zm1.06.12c.39-.36.21-1.74,0-1.67C10.67,52.51,10.05,52.92,10.62,53.39Zm35.25-2.22c.29,0,.33-.19.6-.17,0-.34-.13-.49-.47-.45C46,50.76,45.8,50.85,45.87,51.17Zm-1.81.5a1.13,1.13,0,0,0,.88-.94C44.45,50.86,44.29,51.3,44.06,51.67Zm4.09-.42c.16,0,.19.12.31.14,0-.23,0-.52-.31-.44ZM53,51c.19.6.15-.61,0,0ZM45.14,52.4c.16-.33,1-1,.27-1.22C45.35,51.7,44.47,52,45.14,52.4Zm-38.93,1c-.14-.46,0-.77-.18-.91C5.83,52.66,5.79,53.38,6.21,53.37ZM46.5,51.76c.48-.21.12.48.61.28C47.28,51.44,46.55,51.24,46.5,51.76Zm6.38-.34c.1.1-.07-.06,0,0ZM7.78,55.15a2.05,2.05,0,0,0-.37-2.42C7,53.48,6.84,54.73,7.78,55.15Zm35.39-2.54c.12-.45.49.08.76,0-.09-.22.16-.79-.17-.76C43.81,52.24,42.64,52.24,43.17,52.61Zm9.56-.88c.11.1-.06-.06,0,0ZM8.18,53.16Zm37.9,0c0-.54.5-.52.58-.93C46,51.68,45.14,53,46.08,53.14Zm3.34-.25c0-.29.16-.34.13-.61-.22,0-.26-.25-.46-.29A1.27,1.27,0,0,0,49.42,52.89ZM52.59,52ZM9.14,54.66a1.84,1.84,0,0,0-.5-1.36C8.74,54.06,8.12,54.54,9.14,54.66Zm35.4-2.24c-.45.53.57.45,0,0Zm2.74.07c.1.1-.07-.06,0,0Zm5.17-.14c-.41.76.27-.51,0,0ZM10.21,54.93a1.25,1.25,0,0,0-.34-1.36C9.77,54.14,9.58,54.79,10.21,54.93Zm.9-.48c0-.18.16-.25.3-.32a.68.68,0,0,0-.33-.6C11.1,54,10.46,54.26,11.11,54.45Zm35.28-.86c.37.24.57.65.94.88.08-.42.36-.64.43-1.08a2.21,2.21,0,0,0-.78-.74C47,53.19,46.48,53.17,46.39,53.59Zm-32.85.48c.1.1-.07-.06,0,0ZM52,53.42c.07-.22.22-.39.29-.61C51.93,52.67,51.82,53.5,52,53.42Zm-2,.36c-.06-.35-.17-.65-.47-.74C49.64,53.39,49.75,53.69,50.05,53.78Zm1.21-.49c-.12,0-.3,0-.3.16C51.07,53.42,51.26,53.44,51.26,53.29Zm-3.45,1.78c.1-.13.45-1,.13-.62C47.84,54.58,47.49,55.45,47.81,55.07Zm-34.08.52c.1.09-.06-.06,0,0Zm-1.18,1.25c0-.44.72-1.08.12-1.22C12.7,56,12.21,56.65,12.55,56.84Zm1.35-.5c-.75,1.17.47-.72,0,0ZM48,55.82l.61,0c0-.22,0-.56-.17-.6C48.38,55.51,48,55.51,48,55.82Zm2-.36c-.21,2.38.06,4.41-.39,7.62-.45-.16-.51,0-.76.18-1.25.92-2.44,3.24-3.66,5-.59.83-1.27,1.64-1.9,2.49s-1.14,1.85-1.76,2.64c-.11.14-.52.08-.6.17-.6.66-.88,1.92-1.45,2.63-.19.24-.59.26-.74.48-.31.43-.29,1-.57,1.38-1.2,1.67-2.84,2.76-3.83,4.53,1.87-.85,2.61-2.94,3.83-4.38,2.58-3,5-6,7.2-9.18,1.08-1.55,2.18-3.56,4.13-4.23.34.33-.1.71.34,1C52.94,64.74,56.24,53.71,50,55.46ZM12.78,59.72h-.3c0-.1,0-.2,0-.3-.59-.07-.11.89-.58.93a1.57,1.57,0,0,1-.82-2.11c-.58-.33-.83-1-1.41-1.33-2.78-.24-3.63,2.85-3.07,4.5C7.5,64.1,9.8,67.66,12,67.82c-.45-2,.26-4-.45-5.17C12.39,61.8,11.34,60.37,12.78,59.72ZM25.11,70.33a5.28,5.28,0,0,1,1.53.11c1-1.41,1.89-3.09,3.21-4.81s4.09-3.91,3.32-6.19C30.55,63.14,27.82,66.72,25.11,70.33Zm22.3-7.8c.47-.18.43-.1.62.29a27.17,27.17,0,0,1-3.09,3.74c-1,2.37-3.5,4.19-4.07,6.51,2-3.07,4.3-5.8,6.29-8.85.59-.78,2-1.54,1.9-2.49a1,1,0,0,1-.29.46c-.35-.57.26-1.5-.51-1.81A3.65,3.65,0,0,1,47.41,62.53ZM12,63.25c.78.07,1.24-1.33.72-1.54A14.5,14.5,0,0,0,12,63.25Zm.5,1.35c.53-.77,1.49-1.48,1-2.31C13.31,63.23,12.56,63.6,12.47,64.6Zm.51,2a24.29,24.29,0,0,1,1.59-3.09.75.75,0,0,1-.47-.14C13.58,64.2,12.21,65.85,13,66.57Zm11.66-2.16c-1.66,2.5-3.82,5.43-5.4,8.07-.47.78-1.59,2-.84,2.76,1.63-4.13,5.14-7.29,6.69-11C25.07,64.42,24.85,64.41,24.64,64.41Zm-7.6.37c-.87,1.79-2.77,3.39-2.89,5.41a19.27,19.27,0,0,0,3.5-5.28C17.36,65,17.31,64.75,17,64.78Zm-.66,3.52c-.66,1-2.14,2.17-1.28,3.23,1-2.12,2.81-4.34,3.63-6.19,0-.17-.18-.24-.32-.3A34,34,0,0,1,16.38,68.3ZM36.84,81.1a49.72,49.72,0,0,0,3.83-4.22,97.87,97.87,0,0,0,7-9.33c.41-.6,1.23-1.23,1-2C44.91,70.78,40.37,76.1,36.84,81.1Zm2.09-1.43c3.39-3.2,7.5-6.52,8.81-11.21C45.16,72.44,41.61,76.29,38.93,79.67ZM24.38,71.42c.1.09-.06-.07,0,0Zm15.46,3ZM21.22,77.75A2.92,2.92,0,0,0,22.38,76a.72.72,0,0,1-.46-.14C21.88,76.7,21.19,76.88,21.22,77.75Zm1.08.57c-.1-.59,1.1-1.34.41-1.53C22.8,77.46,21.47,77.89,22.3,78.32Zm.47.45a1.33,1.33,0,0,0,1-1.25c-.2,0-.22-.19-.46-.14C23.33,78,22.77,78.13,22.77,78.77Zm1.23.72a2.22,2.22,0,0,1,.73-1.24C24.2,77.78,23.27,79.23,24,79.49Zm12.91-1.13c.1.1-.07-.06,0,0ZM24.48,79.94c.53-.24.61-.9,1-1.25C24.7,78.67,24.75,79.46,24.48,79.94Zm8.45,3a1.21,1.21,0,0,0,1.19-1.1c.71-.74,2.38-2.53,2.19-3.11C35.22,80.12,34.1,81.53,32.93,82.89Zm-7.68-2.52c.7-.07.63-.88,1-1.25C25.6,79.23,25.52,79.89,25.25,80.37Zm1.08.73c.12-.72.87-.86,1-1.55a.74.74,0,0,1-.46-.14C26.76,79.94,25.68,80.77,26.33,81.1ZM28.43,80c-.62-.33-1.82,1.31-1.32,1.56C27.42,80.9,28,80,28.43,80Zm-.7,2c.75.13,1.21-1.2,1.62-1.87C28.25,80.19,28.06,81.15,27.73,82Zm.93.43c.61-.56,2-1.77,1.6-2.33C29.86,81,29.12,81.56,28.66,82.4Z"/><path class="cls-1" d="M25.26,1.23c-2.18,5-5.66,10-8.4,15,.83-2.62,2.6-5,4.05-7.57A67.6,67.6,0,0,1,25.26,1.23Z"/><path class="cls-1" d="M19.54,14.18c.37-.15-.34,1-.73,1.08a1.36,1.36,0,0,1,.59-.62C19.35,14.39,19.54,14.37,19.54,14.18Z"/><path class="cls-1" d="M16.28,17.16c-.39-.39.41-.89,0,0Z"/><path class="cls-1" d="M43.94,20.93c.47-.06-.38.45.16.46-2.18,2.72-4.5,5.31-6.77,8C38.9,26.54,41.77,23.67,43.94,20.93Z"/><path class="cls-1" d="M3.51,39c.34-.29-.21.79-.27,1.07C2.85,39.83,3.49,39.32,3.51,39Z"/><path class="cls-1" d="M40.74,52.68c.36.82-1.2.28-1.34,1a.66.66,0,0,1-.33-.6C39.67,52.9,40.52,52.76,40.74,52.68Z"/></g></g></svg>