<svg xmlns="http://www.w3.org/2000/svg" viewBox="0 0 61.8 85"><defs><style>.cls-1{fill:#321f10;fill-rule:evenodd;}</style></defs><title>Asset 1</title><g id="Layer_2" data-name="Layer 2"><g id="Layer_2-2" data-name="Layer 2"><path class="cls-1" d="M26.51,12.25c-.08-.9,1.2-1.75.29-2.17.93-2.23,2.52-3.81,2.3-7.2.65.05,0,.79,0,1.44-.06.86.29,1.95-.14,2.6,0,.27.47.1.43.43C28.4,9,27.9,11,26.51,12.25Zm1.73-3.89c.3-.06.73-1.39.43-.72C28.37,7.69,27.93,9,28.24,8.36Zm-.44.72c.17.57.17-.57,0,0Z"/><path class="cls-1" d="M40.77,3.31c.13,3.25-.69,7.67-.72,11A38.49,38.49,0,0,1,40.77,3.31Z"/><path class="cls-1" d="M5.76,5.33c.29.1.39.39.43.72C5.91,6,5.81,5.67,5.76,5.33Z"/><path class="cls-1" d="M6.91,8.36a.15.15,0,0,1,.29,0C7.14,8.57,7.08,8.34,6.91,8.36Z"/><path class="cls-1" d="M7.2,9.36c.5,0,.63.43.72.87A1.49,1.49,0,0,1,7.2,9.36Z"/><path class="cls-1" d="M11.09,12.68Z"/><path class="cls-1" d="M41.78,18.3Z"/><path class="cls-1" d="M33.86,19.59c-.07-.06.09.1,0,0Z"/><path class="cls-1" d="M9.36,20.46c.42.19.13,1.23,0,1.73-.25-.14-.31-.45-.28-.87C9.48,21.65,9.26,21.05,9.36,20.46Z"/><path class="cls-1" d="M6.63,21Z"/><path class="cls-1" d="M28.53,22.19Z"/><path class="cls-1" d="M9.36,22.48a.39.39,0,0,1,.29.43C9.35,23,9.38,22.7,9.36,22.48Z"/><path class="cls-1" d="M20.31,26.08c.36-.57.21.47,0,0Z"/><path class="cls-1" d="M26.65,32a.72.72,0,0,0,.43.15A31.91,31.91,0,0,1,24.64,36c.08.76-.13,1.21-.73,1.29C24,35.28,25.87,33.8,26.65,32Z"/><path class="cls-1" d="M24.06,39.76c.47-2.43,1.93-4.13,3-6,.34-.58.56-1.47,1.3-1.73-.29,2.72-3.53,4.41-3.46,7.49C24.62,39.59,24.36,40.07,24.06,39.76Z"/><path class="cls-1" d="M33.42,32.13Z"/><path class="cls-1" d="M22.33,34a2.24,2.24,0,0,1,1-1.73C23.16,33,23.24,34,22.33,34Z"/><path class="cls-1" d="M24.35,32.27a3.17,3.17,0,0,1-1.44,2.31A3.45,3.45,0,0,1,24.35,32.27Z"/><path class="cls-1" d="M25.21,32.27c.13.07.26.13.29.29-.38,1.2-1.31,1.86-1.73,3C23.11,34.44,24.87,33.35,25.21,32.27Z"/><path class="cls-1" d="M45.09,35c.09-.58-.12.85,0,0Z"/><path class="cls-1" d="M41.49,36.74Z"/><path class="cls-1" d="M41.06,37.89Z"/><path class="cls-1" d="M20.17,39.62c.17-.57.17.57,0,0Z"/><path class="cls-1" d="M20.6,48.69Z"/><path class="cls-1" d="M58.2,59.21c.17-.57.17.57,0,0Z"/><path class="cls-1" d="M26.65,61.66Z"/><path class="cls-1" d="M19.74,68.86c-1.09.58-1.17,3.16-.15,3.89-.32,3.38.58,7,.44,10.38.31.71.59,1.28,0,1.87-1-1.42-.63-3.28-.73-5.47a51,51,0,0,0-1.15-7.64,4,4,0,0,1,.58-3.17C19.2,68.64,19.4,68.82,19.74,68.86Z"/><path class="cls-1" d="M33,69.73Z"/><path class="cls-1" d="M38.18,70.59Z"/><path class="cls-1" d="M36.59,72.61Z"/><path class="cls-1" d="M26.94,82.41a.69.69,0,0,1-.43.14c-.85-1.21.33-2.56.72-3.46C28,80,26.14,81,26.94,82.41Z"/><path class="cls-1" d="M27.66,81.69c-.17,1.12-.58,1.74-.29,3C26.12,84.36,26.84,82.07,27.66,81.69Z"/><path class="cls-1" d="M4.9,14.84c-.37-2.68-1.35-5.27-1.3-8.5,0-2.08.76-4.23.29-6.34.81.29,1,1.65,1.58,2.31.73.83,1.84,1.43,2.6,2.3,2,2.35,3.51,5.26,5.33,7.78,1.39-1.92,1.72-4.25,2.45-6.63.52-.14.12.65.57.58-.3,3.93,2.55,8.79,2.31,13.54-.17,3.29-2.56,5.41-3,9.08-.24,1.89.26,2.19.58,3.31a32,32,0,0,0,3.17,8.36c-.13-1.36-.19-2.5-.43-3.75s-1-2.41-1-3.6c-.07-1.65,1.5-3.05,1.44-4.47-.05-1.09-1.3-1.74-1.15-3.45.1-1.24,1-2.35,1.29-3.61.44-2,.09-5.14,1-6.91.15-4.5-.81-9,.58-12.68,1.18,7.55,1.3,17.72-1.44,24.06.13,1.31,1.1,1.78,2,2.31,3.33-.56,4.93-4,7.21-6.05a6.21,6.21,0,0,1-.15-1.16c-1,1.88-2.73,3-3.89,4.76-.51-.73.6-1.54,1.16-2.16.87-1,1.92-1.83,2.16-2.89.13-.25.32-.55.57-.28V19.16c-1.29,1.59-2.32,3.44-3.74,4.9.3-2,2.44-3.29,3.17-5.33.3-.06.38.1.57.14-.2-.63.07-.9,0-1.73a42.11,42.11,0,0,1-2.73,4c-.35.55-.36,1.63-1.16,1.58.71-2.65,3.41-4.56,4-7.78-1.32,1.43-2.07,3.41-3.17,5.05,0-3,3.16-4.55,3.31-7.35a27.89,27.89,0,0,0-2.74,4.75c-.33-2.57,2.85-4.55,2.74-7.06-1.17,1.09-1.51,3-2.59,4.18-.11-1.93,2.08-3.45,2.16-5.19a.69.69,0,0,0,.43.15c0-.55-.69-.19-.29-.58.05-.7.18.2.29.29.88-1.72.65-4.54,1-6.77A1.56,1.56,0,0,0,31,1.87c.7.54.19,1.12.15,1.73-.31,4.38-.54,9.33-.87,14.84.93-.18,1.34-.87,2.16-1.15,0-1.16-.37-1.65-.14-2.45-.15.09-.15.33-.43.29.35-1.73-.14-3.41.86-4.9.29-.43.87-.72,1.16-1.15A52.25,52.25,0,0,0,37.6,1.3a3.47,3.47,0,0,1,1.15.28c.1,1.27-.76,2.79-.86,4.47-.17,2.8-1.58,7.2-1.15,9.08a1.62,1.62,0,0,0,.72,1c.83-4.63.88-8.76,1.44-13.11.42,3.85-.71,9.13-.87,13.54.65,1.07,2.06.24,2.6,1-.32.82-1.85.21-2.6.14-.42.2.14,1.38-.28,1.59.26.55,1.28.34,1.29,1.15-1,0-1.23-.69-2.16-.72.22-.17.35-.42.72-.43V17.58c-.81.37-.42,1.18-1,1.87-.25-.61,0-1.09-.14-2-.89,1.1-1.1,4.36.43,4.9a2.17,2.17,0,0,0,0-1.73c.6-.22.42,1.54.58,1.88.44.48,1.13,0,1.58.28.05.67-1,.22-1.15.72-1.38,3.14-3.17,5.87-4.75,8.79a14.89,14.89,0,0,0,.57,2c2-3.46,3.79-7.16,5.91-10.52.59.17.14,1-.29,1-1.71,3.48-3.56,6.81-5.47,10.08.23.49.33,1.11.57,1.59,1.58-2.56,2.62-5.64,4.32-8.07.36-1.71.58-3.55,1.73-4.46.06-1.82-1.81-3.7-1-4.47a2,2,0,0,0,1.88-1c.4,0-.35.39.29.29.8-.64,1.07-2.46,1.44-3.75C44.15,11.19,45,6.49,47,3.6c.77.17.81-.18,1.58-.57a9,9,0,0,0-1,3c-.36,1.64-2,4-2.88,6.48-.7,2.05-1,4.08-1.44,5.48-.4,1.16-1.26,1.59-2.16,2.3-.12.52.89.63.43,1-.06.73-.3.17-.72.15a6.32,6.32,0,0,0,.58,1.29C40,29.46,37,35.19,36.3,42.36a21.36,21.36,0,0,1,8.5-9.8c1.2-.77,2.62-1.37,3.61-2.16.74-.6,1.21-1.92,2.3-1.87.7,5.69-2.54,12.86-6.77,15.84,1.62.27,2.28.77,4.32.72.69,0,.55-.89,1.44-.72A6.06,6.06,0,0,1,46,48.26c-2.17,2.38-7.21,3.31-10.23,2.45-.33.16-.06.91-.15,1.3.07.32.77,0,.87.29C34.91,54,31.72,57,35,59.36c-.23,2-.9,4-1,5.76-.49-.07-.08,1.07-.58.57,0,.58.26.8.15,1.45-.16,0-.1-.29-.29-.29-.18,2.23-.61,5.77-.87,8.79a52.13,52.13,0,0,0,3.75-6.06c-.17-.09-.38-.07-.58-.43.21-.37.49-.66.72-1-2.24-5,.58-12.24,4.61-14.83.43,0,.49.37.87.43a3.57,3.57,0,0,1-.43,1.15c.82,2.76.76,6.48-.87,8.21.73-.63,1.73-1.83,2.88-2.74C44.61,55.13,48,52,52.44,49.56a31.2,31.2,0,0,1,3.75-1.87c1.81-.69,4.09-1,4.75-2.88,1.51,1.52-.09,3.33-.72,5.18-.14.43,0,.91-.14,1.3-.73,1.8-2.33,3.24-3,4.46,1.36-.52,3.12-.25,4.32-1.15.87.87.21,1.59-.14,2.6C58.5,60,57.05,63,52.58,64a25.59,25.59,0,0,1-3.45.43c-2.49.14-5.38-1.53-7.93-.15-.27,1.81-2.42,2.82-3.45,4.33C41.83,65.45,50,66.24,55.32,64.4c.09,1.63-1.24,2.81-2,4.32A16.64,16.64,0,0,0,55.47,67c0-.71-.06-1.4.72-1.3.06,1.74-1.54,2.78-3,4-2.15,1.81-4.62,2.73-8.64,2.74-3.09,0-6-2-8.22.14-.49.12-.6-.27-.86,0-1.14,3.39-3,7.83-3.89,11.53-1-1.13.31-3-.72-4.18.8-2.23.15-4.59.43-6.92a3.93,3.93,0,0,0-.72,2c.07.21.19-.06.43,0a14.53,14.53,0,0,0-.28,5.47c-.31.23-1.18.55-1-.28-.44.87.19,1.91,0,3-.74.28-.6,1-.72,1.59-1.81-2-.22-6.77-.72-10.23-.78.94-1.23,2.22-2.16,3,.17.78,0,1-.72,1.16-.26-.84.64-1.5,1-2.17C26,74.87,28,73.16,29,71.75c0-.55-.61-.55-.58-1.16-.27,1.91-2.12,3.31-3.17,4.9-.12-1.81,2-2.58,2.45-4.32-1.73.52-1.89,2.62-3.46,3.31.32-1.36,1.47-1.89,2-3-1.59.21-1.68,2.28-2.88,2.45.12-1.28,1.24-1.55,1.58-2.6-1.41-.48-1,2-2.16,1.88-.28-.72.67-1.32,1-1.88-.75.5-1.33,1.5-2.3,1,.44-.61,1.87-.52,1.44-1.58a24,24,0,0,0,5.18-.29c-.34-.63-1-1.92-2.3-1.73-.07.55.66.29.43,1-.34-1-1.73-.86-2.59-1.3.53-.69,1.56-.19,2.45-.43,1.17-.32,2.06-1.41,3.17-1.58.25-2.94-1.39-4.63-1.3-7.35-1.11,1,.53,2.55.14,4.18-.68,0-.35-1.09-.43-1.73,0-.3-.63,0-.72-.29-.05-2.09,1.28-2.83.72-5a5.44,5.44,0,0,0-.72,2.73c-1.09,0-.44-1.21-.29-1.72a6.11,6.11,0,0,1,.87-1.73,12.27,12.27,0,0,1-.29-2c-.73.81-.46,2.61-1.3,3.31-.4-.87.29-1.79.43-2.59-.1-.19-.38.07-.72-.14.26-1.91,1.38-3,1.44-5.05-.73.45-.71,1.82-.86,2.45-1.46-1.18,1.11-3.23,1-5.33-1.12.91-1.09,2.85-2,3.6-.1-2.55,2.27-3.87,2.16-6.91-1,1.38-1.48,3.22-2.3,4.75-.4-2.72,2.52-4.56,2.59-7.78a15.75,15.75,0,0,0-2.59,5.62c-.72-.84-.14-2.21.29-3,.82-1.59,2.19-3.25,2.59-5-1.44,1.6-1.78,4.36-3.31,5.48.59-2.82,3.06-5,3.74-8.21-1.75,1.35-2.33,5-3.74,6.77-.16-1.63.89-3.27,1.72-4.76a28.77,28.77,0,0,0,2.45-4.46,1,1,0,0,1,.72-.15c-.26-.95-1.33-1.81-1.29-2.59a2.69,2.69,0,0,1-1.88.14c.29-.91,2-.43,2.6-1-.26-.44-.44.41-1,.14a1.23,1.23,0,0,1,.14-1.3c-.57-.12-1.14,1.56-2,1.16.45-1.38,2.2-1.45,2.45-3,.45.07.56-.21.86-.29a10.8,10.8,0,0,1-.43-2c-1.51,1.75-3.14,3.39-4.76,5a8.75,8.75,0,0,0,4.33-4c.51,1.87-2.17,3-3.32,4.18-.52,0-.69.27-1.15.29s.4.5,0,.72c-.48,0-.29.31-.87.43-.93-.31-1.65-.84-2.59-1.15-.09.52.44.42.43.86-2.8,2.06-1.14,7.68-.86,12.25a202.17,202.17,0,0,1,.29,21.47c-.3.08-.29.43-.58.14,0,2.78.62,4.86,3.17,5-.57,1-2.35.46-3.31.29,0-.38.2-.47.57-.43-.11-.42-1-.09-.86-.72-.4.36-.91.63-1.15,1.15-2.67,0-5.51.49-6.92-1.3-.47-.17-.11.47-.58.29-.12-.25-.4-.36-.28-.86-1.76-1.32-3.8-2.35-5.62-3.6-.68-.09-1.38-.17-1.44-.87,1-.08,2.3.76,3.17,1.3-.24-.68-1.28-.55-1.44-1.3.49-.62,1.32-.24,2-.43,1-.28,2-1,3.32-1.15-2.24-2.39-3.41-6.6-4.61-10.52-.62-2-.48-4.16-2.31-5,.11-.15.51,0,.72-.29,4.27,4.71,12.3,5.66,14.55,12.39a37.56,37.56,0,0,0-3.46-23.2c-1.84-3.81-5.79-5.59-9.36-7.49C1.55,23.3,2.51,14.14,0,9.22c1.13-.12.75,1.74,1.44,2-.5,0,1,3.19,1.15,5,.41,4,1.39,7.81,3.89,9.8,1.16.91,2.82,1.29,4,2.16a2.75,2.75,0,0,0-.29-3c-.48.44.23,2.56-.29,2.16-.64.27-.14-.64-.14-.72a7.87,7.87,0,0,0-2.89-5.18c.28-.72-.09-1-.43-1.44-.21.06.06.18,0,.43C5.94,19.8,5.17,19.37,5,18.3a46.35,46.35,0,0,1,4.76,5,7.71,7.71,0,0,0,.14-1.87c.4-2.65-4.15-4.33-5.76-6.92-.16-.25-.64-.17-.72-.29s.1-.92-.44-1c-.34.05.17.39.29.44-.81-.12-1-1.38-1.73-1.88C2.69,12.25,3.78,13.94,4.9,14.84Zm40.77-5c-.61.45-1.4,2.08-1,2.59C45,11.5,45.3,10.63,45.67,9.8Zm-38,2.3c-.09,0-.18,0-.15-.14a1.13,1.13,0,0,0,.15-1.3c.64,0,1.26-1.61,1.87-1.58-.34.86-1.21,1.19-1.3,2.3.63-.1-.11.29.29.29.31-.36.29-1.05.72-1.3,0,.16-.21.23,0,.29.29-.65.49-.49.14-.86.55.11.45-.43.87-.44C8.59,6.54,6.38,4.28,4.47,1.73c.25,4.41-.63,10.86,2.3,14,.57-1,2-1.93,1.15-3.17-.25.28-.17.89-.72.87C7.57,13,8.17,11.6,7.64,12.1ZM11,10.52c-.37,1.41-2.62,2.13-1.87,3.74.72-.83,1.26-2.56,2.3-2.59a2.75,2.75,0,0,0-1-2.16c-.56,1-2.76,2.25-1.44,3.31.28-1.15,1.54-1.8,1.59-2.74C10.49,10.4,10.63,10.54,11,10.52ZM38.32,2.88Zm7.93,3.6c.38-.77.76-1.53,1.15-2.3-.51.07-.41.74-.87.86C47,5.46,45.82,6.14,46.25,6.48Zm-9.37-2ZM4.18,4.9c-.22,1.07.1-.51,0,0Zm33.28.29c.16.57.16-.57,0,0Zm-1.73.86c0,.22,0,.53.14.58.09-.47.53-.58.29-1C36,5.75,36.12,6.15,35.73,6.05ZM4.18,6.2c-.12.85.08-.58,0,0Zm33.13.28a8.92,8.92,0,0,1-1,1.73,31.12,31.12,0,0,1-.57,4.61c-.06.65-.19,1.86.72,2.16C36.35,12.24,37.2,8.44,37.31,6.48ZM21,6.63Zm14.55.29c.1.09-.06-.07,0,0Zm10.23.14c.17.57.17-.57,0,0ZM4.18,7.2ZM21,7.2Zm14.55,0c-.11,0-.28,0-.28.15C35.41,7.32,35.58,7.34,35.58,7.2Zm10.09.44Zm-10.52.14c.1.09-.06-.06,0,0Zm10.09.72Zm.43.29a.39.39,0,0,0,.43-.29A.39.39,0,0,0,45.67,8.79ZM35.3,9.22c-.42,1.12.42-.78,0,0ZM21,9.22Zm9.08,0c.17.57.17-.57,0,0Zm2.74,3c.33-1.07,1.48-2.07,1.44-3C33.89,10.22,32.61,11.09,32.85,12.25ZM45.52,9.36ZM13.69,25.79c-.1-.69.66-.23.86-.87a41.15,41.15,0,0,0,.86-12.24c.16-.28.29-.58.44-.87-.47-.44-.08-1.74-.58-2.16C13.25,13.65,10.5,20.69,13.69,25.79ZM21,9.8Zm9.08,0Zm5.47.28c-.63,1-1,2.59-.28,3.61A19.8,19.8,0,0,0,35.58,10.08ZM30,10.37c.09.1-.06-.06,0,0ZM30,11c.16.57.16-.57,0,0ZM9.22,15.27c1.24-.59,1.45-2.2,2.74-2.74-.11-.32-.09-.78-.44-.86C10.73,12.84,9.47,13.55,9.22,15.27ZM30,11.81c-.35.49.48-.34,0,0Zm0,.44c-.35.48.48-.35,0,0Zm-13.55.28c-.12.86.09-.57,0,0Zm17.44.15c-.13.85.08-.58,0,0Zm-22.34.86c-.67.78-2.34,1.89-1.72,3,.81-.92,1.42-2,2.3-2.88-.1-.46,0-.59-.14-.72C11.5,13.43,10.75,13.66,11.52,13.54Zm32.71-.43c-.39.44.44-.39,0,0Zm-14.41.29c.1.09-.06-.06,0,0Zm4.18.29ZM6.91,16c.26.13.43.35.73.43.32-.64.68-1.23,1-1.87-.2-.09,0-.55-.28-.58C7.92,14.69,7.3,15.23,6.91,16Zm5.48-1.15c.07-.21.21-.36.29-.58-1,.3-3,2.2-2.6,3.46a21.91,21.91,0,0,0,2.31-2.59c-.13,0-.48-.54-.14-.58C12.28,14.66,12.25,14.84,12.39,14.84Zm7.06,10.37A27.54,27.54,0,0,0,21,14.12C21.13,17.93,20,22.1,19.45,25.21Zm15-11Zm.29.72c0-.14-.25-.18-.29,0C34.59,15,34.66,15.19,34.72,15ZM7.64,16.86c.83.11.89-.55,1.29-.87-.08-.25-.07-.6-.29-.72C8.36,15.85,7.85,16.2,7.64,16.86Zm28.52-1.3c.36.56.21-.48,0,0Zm-1.73.14c.17.57.17-.57,0,0Zm2.74.44c-.21,0-.24-.24-.43-.29C36.61,16.14,37.11,16.49,37.17,16.14ZM17,19.74c-.12-1.49-.76-2.31-.72-3.6C15.81,16.73,16.39,18.92,17,19.74Zm16.71-3.46c-.12.85.08-.58,0,0Zm1.15,1c-.19-.5.65-.68.15-1C35.09,16.66,34.42,17,34.86,17.29Zm-17.57-.72c.16.57.16-.57,0,0Zm-8.93.72c.28,0,.18.39.57.29-.06-.59.56-.67,0-1A3.07,3.07,0,0,1,8.36,17.29Zm26.79.43c0,.38.2.47.58.43,0-.58.8-1.43,0-1.58V18C35.52,17.93,35.37,17.8,35.15,17.72Zm-23.63,0c.05-.17.59-.54.15-.72C11.79,17.34,11.17,17.62,11.52,17.72ZM36.59,18c.44.22.38-.75.15-.72A1,1,0,0,1,36.59,18ZM9.22,17.86c.09.1-.06-.06,0,0Zm.14.29Zm25.22.29L33.71,18c-.09.66-.77.52-.43,1.3.17,0,.41,0,.43.14s-.71.71-.29,1c.34-.21-.28-.46.29-.43a1.88,1.88,0,0,0,.43,1.58c.08-1.15-.2-2.84.29-3.17C34.42,18.67,34.85,18.54,34.58,18.44Zm-5.19.14c.09.1-.06-.06,0,0Zm5.33,3.17c.19-.41.64.12.86.15a15.93,15.93,0,0,1,0-3c-.5.12-.55-.21-1-.14A13.16,13.16,0,0,0,34.72,21.75ZM30.83,19c.17.57.17-.57,0,0Zm-24.92.43Zm26.94.86c0-.47.06-1-.44-1C32.19,19.57,32.48,20.2,32.85,20.31Zm-16,1.16a3.08,3.08,0,0,0-.72-1.73C16.39,20.3,16.32,21.18,16.86,21.47Zm14.26-1Zm9.65,0Zm-29,5.33c.33-.3-.09-1.34.58-1.3-.64-1-.94-3.09-2-3.17.13.74-.48,2.41.43,3.17.39-.43-.14-1.78.44-2C12.14,23.61,10.57,25.24,11.81,25.79Zm19.74-4.61c-.71.19-.22.68,0,0Zm1.15.43c-.21-.07-.36-.21-.57-.29C32,21.89,32.63,22.1,32.7,21.61Zm-1.29.58c.26.52-.14,1,.14,1.29.29-.2.83-1.49.14-1.73C31.68,22,31.71,22.25,31.41,22.19Zm1.44,1.29c.26-.36.74-1.2.14-1.58A1.87,1.87,0,0,0,32.85,23.48Zm-17.44-.43c.56,0,.52-.86.15-1C15.56,22.43,15.61,22.87,15.41,23.05Zm20,1.44a1.73,1.73,0,0,0,.29-2,.84.84,0,0,1-.58-.15A2.67,2.67,0,0,0,35.44,24.49ZM16.57,22.62c.44.74-.27-.44,0,0Zm17.29,1.15c.47-.15.63-.62.86-1-.39.11-.29-.28-.58-.28C33.86,23,33.7,23,33.86,23.77Zm3,.87c.1-.68.52-1,.72-1.59-.62.19-.63-.39-1.3-.29C37,23.42,36.16,24.22,36.88,24.64Zm-4.9.28c.2-.5.71-1.08.15-1.58C31.94,23.91,31.18,24.54,32,24.92Zm1,0a.86.86,0,0,0,.43-1.44C33.27,23.93,32.64,24.43,33,24.92Zm-17.14.72c-.06-.76,0-1.66-.44-2C15.22,24.59,15.55,24.89,15.85,25.64Zm18.87.29c.51-.66.08-1.9,0-2.3C33.94,24.24,34.24,25.18,34.72,25.93Zm1,.43c-.49.11-.24-.53-.58-.57-.44.4-.15,1.55-.29,1.87-.38.05.14-.81-.43-.58a4.05,4.05,0,0,0-.57,2.17v-.72c-.5.08-.45.7-.87.86.2.47.11,1.23.58,1.44.94-1.94,2.07-3.69,3-5.62-.46-.06-.28-.77-.57-1A3.77,3.77,0,0,0,35.73,26.36ZM9.65,24.49c-.21,1.4.59.37,0,0Zm22.62,2.16c.16-.7.91-1.15.29-1.87C32.2,25.28,31.7,26,32.27,26.65Zm1.59.72a2,2,0,0,0-.15-2.59A2.27,2.27,0,0,0,33.86,27.37ZM13,25.5c-.34,0-.16-.42-.44-.43C12.34,25.48,12.79,25.93,13,25.5Zm16.56.43c.44.4-.39-.44,0,0ZM33,28.81a2.08,2.08,0,0,0-.14-2.59A2.1,2.1,0,0,0,33,28.81Zm-3.6-2Zm2.45.43c0-.33,0-.54-.29-.58A.65.65,0,0,0,31.84,27.23ZM11.38,28.81c.25-.62.49-2.13-.29-1.87C11.54,27.48,10.54,28.49,11.38,28.81Zm2.45-1.87c.17.57.17-.57,0,0Zm.43,1.15c.46-.16,0-.6-.29-.86C13.94,27.64,14,28,14.26,28.09Zm14.41-.43c.3.13.65-.37.29-.43C28.92,27.43,28.72,27.47,28.67,27.66Zm2.3,1c.18-.3.4-.56.58-.86-.3,0-.14-.54-.43-.58C31.23,27.78,30.53,28.26,31,28.67Zm1.59.86c-.12-.51-.27-1.74-.72-1.44C32.27,28.38,32,29.39,32.56,29.53Zm-21-.57c.47-.18.12.46.58.29,0-.24.08-1.31-.14-.87C12.18,29,11.58,28.68,11.52,29Zm11,0c.53,0,1.14.08,1.3-.29C23.5,28.47,22.83,28.79,22.47,29Zm8.5.57A3.22,3.22,0,0,1,31.41,31c.46-.06.49-.56.72-.86-.32-.41-.27-1.18-.58-1.58C31.42,28.92,31.11,29.14,31,29.53Zm-16,.15c-.1-.44.25-.43.15-.87a.66.66,0,0,1-.44-.14A2,2,0,0,0,15,29.68ZM49.27,30H50c0-.34.31-.62-.14-.72C49.91,29.74,49.42,29.68,49.27,30ZM33,31.69c.35-.53-.05-1.33-.29-1.72C32.36,30.49,32.82,31.23,33,31.69Zm5.19-1.44c.09.1-.06-.06,0,0ZM15,30.54c.16,1.29,0-1-.14-.14C14.85,30.34,15,30.48,15,30.54Zm34.58,1.59c-.17-.66.46-1.26.14-1.59C49.68,31,49.05,32.1,49.56,32.13ZM32.13,33.28a2.14,2.14,0,0,0,0-2.45C31.44,31.35,31.75,32.64,32.13,33.28ZM37.75,31c.09.1-.06-.06,0,0Zm8.93,1c-.19,3.13-1.43,5.38-1.3,8.5,1.52-2.72,3.55-7,3.17-9.51A10.81,10.81,0,0,1,46.68,32Zm-13.4,7.64c-.06.35.26.31.14.72-.28,0-.18-.39-.57-.29-.42.78,0,1.33.14,2.31a27.26,27.26,0,0,0,4.76-11.24C36.27,34,34.82,36.83,33.28,39.62Zm17-8.36c.09.1-.06-.06,0,0Zm-20,.15c-.12.85.09-.58,0,0Zm-.86.86s0,.14,0,.15C28.71,33.2,30.08,32.15,29.39,32.27ZM45.24,33c-.51,2.9-1.24,6.21-1.59,9.08.39-.28.66-.69,1.15-.87a35.74,35.74,0,0,1,1.73-8.93C45.94,32.35,45.69,32.77,45.24,33Zm-13.4.87c-.38-.3-.2-1.15-.58-1.44C31.33,32.93,31.42,34.17,31.84,33.86ZM50,32.56c.1.09-.06-.06,0,0ZM43.8,43.65c-.76,0-1.35.2-1.44.87.4,0,.33-.44.72-.44-.12.37-.51.46-.72.73,3.82-2.57,7-6.49,7.49-12A20.83,20.83,0,0,1,43.8,43.65ZM32.7,35.73c1.21-.38.46-2,0-2.74C32,33.71,32.42,34.84,32.7,35.73ZM43.8,38A41.35,41.35,0,0,1,45,33.28c.15,0,.11-.18-.15-.14-.14.38-.66.39-.86.72.26,0,.34.14.29.43a64.49,64.49,0,0,0-1.87,8.64C43.71,42.35,43.5,39.87,43.8,38ZM31.26,35c0-.28.22-1-.29-1.15C31,34.35,30.93,34.86,31.26,35Zm11.53-.43a50.27,50.27,0,0,0-1.3,7.34.15.15,0,0,0,0,.29c.7-2.8,1.43-5.58,2.31-8.21C43.3,34,43.25,34.51,42.79,34.58ZM32.41,36.74c.31-.69-.29-1.59-.57-2.16A10.49,10.49,0,0,0,32.41,36.74ZM32,37.6a3.26,3.26,0,0,0-.57-2.3C31.4,36.27,31.4,37.22,32,37.6Zm-1.29-1.3c0-.24.46-.91-.15-.86C30.63,35.69,30.37,36.29,30.69,36.3Zm2.88,1.88a2.14,2.14,0,0,0,0-2.74A2.19,2.19,0,0,0,33.57,38.18Zm6.48,6.48c.43,0,.51-.35.58-.58.7-2.24.49-5.85,1.15-7.78-.48.32.28-.93,0-.86C40.58,38.4,40.53,41.25,40.05,44.66Zm1.73-8.5c.09.1-.06-.06,0,0ZM31,39.47a2.19,2.19,0,0,0-.14-2.88A3.79,3.79,0,0,0,31,39.47Zm8.79-.14c-.07.68.26.35.15-.14A12.37,12.37,0,0,0,40.48,37C39.89,37.44,40.06,38.62,39.76,39.33Zm-6.48-.43a9.34,9.34,0,0,0-.58-2A2,2,0,0,0,33.28,38.9Zm-.72,1.15c.48-.55,0-1.7-.43-2.16A2.53,2.53,0,0,0,32.56,40.05Zm-15-1.58Zm12.67.14c.1.09-.06-.06,0,0Zm8.36.86c.7.27.92-.7.58-1A4.93,4.93,0,0,0,38.61,39.47Zm-20.89-.86c.32.79.43,1.78,1,2.31A10.54,10.54,0,0,0,17.72,38.61Zm15.7,5.91c-.21-.27-.15-.81-.43-1a2.14,2.14,0,0,0-.14,2.74c1.32-2.24,3-4.75,2.88-7.64C35,40.59,33,42.21,33.42,44.52Zm-3-3.89c.34-.37.34-1.67-.29-1.88C30.19,39.71,30.05,40.11,30.4,40.63Zm1,.86c1.18-.35.47-1.93.14-2.74A3.47,3.47,0,0,0,31.41,41.49Zm8.5-.14c0-.27.37-1,0-1.16C40.07,40.66,39.47,41.08,39.91,41.35ZM29.1,40.48Zm.87,1c0-.21.05-1.18-.15-.72C29.82,41,29.77,42,30,41.49Zm7.92-.72c.17.57.17-.57,0,0Zm4.18,0Zm-11.1,2a2.28,2.28,0,0,0-.28-2C30.29,41.43,30.82,42.22,31,42.79Zm7.93-1.87c.09.09-.06-.07,0,0Zm3.17.14Zm-3.46,2.88c-.12-1,.55-2,.14-2.88C38.81,42,38.14,43,38.61,43.94Zm-6.34.14c.83-.75.43-1.93,0-2.88A2.31,2.31,0,0,0,32.27,44.08Zm9.65-2.59c.17.57.17-.57,0,0Zm-2.16.15c-.47,1.12.37-.25,0,0Zm-21,.14Zm22.76,2.16a3,3,0,0,0,.43-2.16C41.7,42.33,41.21,43.37,41.49,43.94Zm-11,0a2.09,2.09,0,0,0-.43-1.87C29.81,42.64,30.32,43.18,30.54,43.94Zm-10.8.29a9.65,9.65,0,0,1-.15-1.73c-.21,0-.53,0-.57.14C19.58,42.85,19.15,44.05,19.74,44.23Zm19.73-1.59Zm0,.29Zm1.73,0Zm-9.51,2.31a2.57,2.57,0,0,0-.43-2.31C30.85,43.89,31.56,44.7,31.69,45.24Zm7.5-.29c.42-.11.49-1.93.14-1.87A9.18,9.18,0,0,1,39.19,45Zm1.87-1.59Zm-11.53,2c.74-.12.74-1.71.15-2C29.36,44.25,29.62,44.68,29.53,45.38Zm6-1.87c-.12.85.09-.58,0,0Zm-2.16,4.61a5.77,5.77,0,0,0,1.3-4.47C34.41,45.22,32.24,46.38,33.42,48.12Zm-4.75-4c.09.1-.06-.06,0,0Zm2.45,2.17a3.07,3.07,0,0,0-.43-2.31A3.62,3.62,0,0,0,31.12,46.25Zm7.2-2c.17.57.17-.57,0,0Zm3.75.14c.09.1-.06-.06,0,0Zm-22.62.15Zm22.33,0c-.39.44.44-.4,0,0Zm.29.43Zm-11.82.14Zm.15,2.31c.45-.4.31-1.95-.29-2.16A2,2,0,0,0,30.4,47.4Zm1.29-1.59a7.21,7.21,0,0,0,.58,1.44c.42-.66,0-1.36-.29-2C32,45.51,31.89,45.72,31.69,45.81Zm16,0ZM35.15,48.26c-.14-.82.45-1.66,0-2.3C35.27,46.83,34.46,47.7,35.15,48.26ZM47.83,46.1Zm-17.72,2c-.43-.48-.29-1.54-.72-2C29.48,47,29.49,47.94,30.11,48.12Zm1.58,0a1.85,1.85,0,0,0-.28-1.73C31,47,31.56,47.62,31.69,48.12Zm15.85-1.59ZM5.91,48.12c-.12-.34-.63-1.92-.58-1.15a9.78,9.78,0,0,0,1,3.31A5.49,5.49,0,0,0,5.91,48.12ZM59.5,47c-2.19.89.22.37.58-.44C59.7,46.79,59.77,46.85,59.5,47ZM47.25,47Zm-5.76.14Zm18.44,2.31c.22-.75,1-1.73.72-2.45C60.45,47.73,59.83,48.83,59.93,49.42ZM32.7,49c.8-.15.22-1.44-.14-1.73C32.16,47.93,32.76,48.24,32.7,49ZM6.34,47.54Zm24.35,1.73c.81-.22.5-1.35.14-1.87C30.27,48,30.9,48.69,30.69,49.27Zm8.06-1.58Zm19.31,0ZM55.47,54.6a44.94,44.94,0,0,0,3.31-3.31c-.27-1.23,1-2.76,1-3.75-1.36,1-1.71,2.91-2.31,4.61-.61-1.27,1-2.73,1.3-4-6.37,1.79-11.36,5-13.83,10.66.88-.19,1.11-1,1.73-1.58,2.67-2.38,6.55-3.61,8.93-6.06.38-.39.54-1.43,1.3-1.29-.52.44-.7,1.22-1.44,1.44.24,1.28-1.69,3-1,4.18.27-.8.84-1.72,1.29-2.74s.63-2.28,1.59-2.74A45.6,45.6,0,0,0,55.47,54.6ZM39.91,47.83c-.74,1.05.36-.13,0,0Zm17.86,0ZM14.84,62.24a11.92,11.92,0,0,1,.57-3.46c-.15-.66-.79-.84-1.15-1.3a2.83,2.83,0,0,1-.43,1.88,9.93,9.93,0,0,1,.29-2.16c-1.14-1.36-3.36-2.41-3.75-4a21,21,0,0,0,3.89,3.17c0-.68-.07-1.42.43-1.58a8.63,8.63,0,0,0-.28,2c.39.28.55.79,1,1,.11-1.05.4-1.91.44-3C13,52.17,9.62,50.21,6.48,48,7.22,54.39,9.48,59.75,14.84,62.24ZM32.7,51.43c.4-1.09,2-1.78,1.3-3.46C33.74,49.19,31.69,50.31,32.7,51.43Zm23-2.88c.54,0,.47-.22.72.14.12-.36.51-.45.72-.72C56.69,48.15,56.08,48.2,55.75,48.55ZM32.27,50c.53-.55.06-1.39-.29-1.87A1.55,1.55,0,0,0,32.27,50Zm2.31,2.16a8.36,8.36,0,0,0,.43-3.6A9.79,9.79,0,0,0,34.58,52.15Zm21-3.6c-.11,0-.28,0-.29.14C55.43,48.66,55.61,48.69,55.61,48.55Zm-26.08.87c0-.19,0-1.05-.14-.58C29.37,49,29.37,49.88,29.53,49.42Zm.87.86a1.79,1.79,0,0,0-.29-1.59A2.6,2.6,0,0,0,30.4,50.28ZM55,48.84c.1.09-.06-.06,0,0ZM40.91,49c-.73,1.05.37-.12,0,0Zm13.84,0c.09.1-.06-.06,0,0Zm-16.28.15ZM31.26,51c.89-.19.41-1.29.15-1.87A2.06,2.06,0,0,0,31.26,51Zm22.19-1.44Zm6.19.14ZM30,51.14a1.47,1.47,0,0,0-.29-1.29C29.66,50.61,29.48,50.78,30,51.14ZM36.16,50Zm.58,0c-.11,0-.29,0-.29.15C36.56,50.1,36.73,50.13,36.74,50ZM31,51.72c-.11-1.54-.76-.89,0,0Zm1.3,1.15c0-.13.39-.63.43-.29-.16.71-1.06,1.44-.86,2,.87-1,2.52-2,1.87-4C33.43,51.37,32.17,52.65,32.27,52.87Zm-20.46-2c.44.39-.39-.44,0,0Zm19.88,1.58c.68,0,.76-1.19.15-1.3C31.67,51.58,31.4,51.92,31.69,52.44Zm-17.43,0c-.56-.21-1.24-1.06-1.73-.86A4,4,0,0,0,14.26,52.44Zm12.25,1.3c.22-.91,1-1.27.43-2.31C26.89,52.2,26.1,53,26.51,53.74Zm4-1.16c0-.43,0-1-.43-1C30.08,52.09,30.21,52.44,30.54,52.58Zm22.19,3.17c1.55-.61,1.51-2.7,2.16-3.74C53.71,52.8,53.28,54.34,52.73,55.75ZM29.82,53c0-.42,0-.73-.29-.87A1.25,1.25,0,0,0,29.82,53Zm1.3-.58c.17.57.17-.57,0,0Zm.14.43Zm-.14,1c-.13-.27-.26-1.26-.58-.86C30.8,53.24,30.66,53.86,31.12,53.88Zm-1-.14c-.39.1.1-.68-.29-.58C29.74,53.46,29.87,54.24,30.11,53.74Zm-1.3-.15c.44.4-.39-.43,0,0Zm2.88.15c.1.09-.06-.06,0,0ZM52,54.6c.31.23,1.19-.6,1-.86C53.91,53.37,52.09,54.16,52,54.6Zm4.9-.72ZM46,56.19c0-.27.11-.31.29-.15-.08-1,1.14-1.44,1-2C46.78,54.61,45.81,55.46,46,56.19ZM30.11,54.31Zm1.15,0c-.12.86.09-.57,0,0ZM20,55.18c0-.21,0-1.18-.15-.72C19.88,54.67,19.83,55.64,20,55.18Zm8.78-.58c.17.57.17-.57,0,0Zm.44.15c-.12.87.66.09,0,0Zm-.44.28Zm11,0c-1.52,1.55-3.15,3.76-3.17,6.34A25.35,25.35,0,0,1,39.76,55Zm11.1.58c0-.26.73-.49.28-.72C51,55,50.38,55.35,50.86,55.61ZM16.57,58.78c-.3-.78.61-3.78-.43-3.6C16.18,55.9,15.31,58.85,16.57,58.78Zm24.34,1.87c.86-1.37.21-4.24-.28-5.62-2.1,3.25-5.12,7-3.75,12.11.41-1.09,1.06-1.5.87-2.74,1.4-1.62.61-5.44,2.3-6.77.16,1.21-1.21,2.79-.86,4.17.4-.8,1.09-2.07,1.72-2.16C40.64,59.64,40.34,60.72,40.91,60.65Zm15.42-5.47c-.75.63.46-.26,0,0Zm-4.61.14Zm.14.72c-.12-.33.51-.62.15-.72C52,55.49,51.43,55.87,51.86,56ZM56,55.75c.21.48.36-.56,0,0Zm-6.48.15Zm.86.14Zm7.78.29c0-.21,1.09,0,1.3-.43C58.82,56,58,55.8,58.2,56.33ZM17.14,59.64c.06-1.28.81-2.74-.14-3.45C17.15,57.42,16.61,59,17.14,59.64Zm14.55-3.17H32v-.28h-.29Zm16.86.15c.19.42.89-.69.58-.29A.65.65,0,0,0,48.55,56.62Zm7.2.72c.64-.38,1.44-.09,2-.72C57.21,56.74,55.37,56.41,55.75,57.34Zm-10.51-.43Zm8.5-.15c-.17,0-.41,0-.44.15C53.47,56.88,53.71,56.93,53.74,56.76Zm-33.86.58c-.12.85.08-.58,0,0Zm9.08,0Zm29.39.43c-.73.7-3-.11-4.18-.29-5-.72-9.1,1.07-11.24,4.47.51-.39,0,.25-.14.43,1.24-.62,2.76-1,4-1.58-1.39-.09-2.39,1-3.31.86.54-.32,1.34-.39,1.58-1,1.83-.78,4.32-.32,6.49-.57,1.48-.18,2.47-1.26,3.6-1-3,2.45-9.42,1.53-12.39,4,3.58,0,5.91,1,8.79.29,2.3-.57,4.76-3.24,5.9-3.17-.54,1-2.23,1.61-2.59,2.31a10.1,10.1,0,0,0,4.75-4.76c-.4.37-.49,1-1.15,1.15C58.91,58.43,59,57.57,58.35,57.77Zm-25.21-.14c.09.09-.07-.06,0,0Zm-1.73.14c.16.57.16-.57,0,0Zm13.39,0c-.39.44.44-.39,0,0Zm-24.92.15c.17.56.17-.57,0,0Zm11.24,2.44c.18-.82,1.25-1.53.86-2.44C31.9,58.85,31.05,59.76,31.12,60.36Zm-2.31-1.58c-.25-1.32-.42.1,0,0ZM17.58,60.22c0-.79.63-1.53,0-2C17.82,58.9,17.18,59.45,17.58,60.22Zm-2.45,2.16c.36-.1.59.64.86.15a19.19,19.19,0,0,1,.43-2.74c-.25-.27-.39-.67-.72-.87A16.31,16.31,0,0,0,15.13,62.38Zm15.7-3.17Zm-11.09.15c-.22,1.07.1-.52,0,0Zm8.93,0Zm0,.57c.09.1-.06-.06,0,0Zm3.89,0c.09.1-.06-.06,0,0Zm-22,.15Zm18.29.14c.17.57.17-.57,0,0Zm3.32,1.44c-.06-.51.63-1.58.28-1.44C32.3,60.59,31.73,61.26,32.13,61.66ZM11,60.36c.44.4-.39-.43,0,0Zm5.47,2.74c.09-.67.83-2.09.29-2.74A6.13,6.13,0,0,0,16.42,63.1Zm13.83-2.59c.17.57.17-.57,0,0Zm-19,.14c.09.1-.06-.06,0,0Zm8.35,1.73c.3-.15.59-1.63,0-1.73C19.83,61.45,19.47,62,19.59,62.38Zm10.52-1.44c.17.57.17-.57,0,0ZM17,63.1c-.06-.78.71-1.49.29-2.16C17.18,61.56,16.71,62.56,17,63.1Zm13.83-.43c0-.51.68-1.14.29-1.59C31.2,61.7,30.51,62.29,30.83,62.67ZM9.65,61.52c.06.75,0,1.61.72,1.73.42-.44-.36-1.29.29-1.59.75.32.05,1,.58,1.59H12a3.15,3.15,0,0,0-.87-1.88A5.31,5.31,0,0,0,9.65,61.52Zm26.65.14Zm3.61-.14c0,.84-.81.92-.87,1.73a10.31,10.31,0,0,0,1.44-1.59C40,61.78,40.18,61.78,39.91,61.52Zm-27.09.28Zm-5.76.73a7.08,7.08,0,0,0,2.3.43,2,2,0,0,0-.28-1.16C8.55,62.19,7.58,62.13,7.06,62.53ZM31.84,62Zm-14.26.72c0-.09,0-.17.14-.14,0-.18,0-.35-.29-.29C17.45,62.41,17.41,62.65,17.58,62.67Zm24.78-.14c.21.47.35-.57,0,0Zm-29.11.72c0-.22-.68-1-.43-.58C13,62.75,12.93,63.79,13.25,63.25Zm28.82-.44Zm-24.64.58c0-.09.36-.55,0-.58C17.57,63.08,17,63.29,17.43,63.39Zm13.26-.58c-.12,0-.29,0-.29.15C30.51,62.93,30.68,63,30.69,62.81Zm1.15,1.73c.18-.35.57-1.24.29-1.58C32.14,63.5,31.47,64.12,31.84,64.54Zm-21.61.87c-.34-.38-.34-1.11-.58-1.59-.49-.27-1.35-.18-1.87-.43C8.49,64.08,9.46,65.26,10.23,65.41ZM38.9,63.53c-.4.44.44-.39,0,0Zm1.29,0ZM10.66,66c.38-.08.73.6,1,.15-.41-.65-.48-1.63-.87-2.31h-.57A9.84,9.84,0,0,1,10.66,66Zm29.39-2c.1.09-.06-.06,0,0ZM12.53,66.56A3.29,3.29,0,0,0,12,64c-.06.24-.19,0-.44,0A4.51,4.51,0,0,0,12.53,66.56Zm1.3.29a7.18,7.18,0,0,0-1-2.74C13.12,65.06,12.9,66.53,13.83,66.85Zm24.64-2.6ZM15,67a9.64,9.64,0,0,0-1-2.59C14.17,65.15,14.18,66.48,15,67Zm-.57-2.45ZM16.14,67a4.61,4.61,0,0,1-.44-2.45.69.69,0,0,1-.43-.14C15.44,65.23,15.38,66.41,16.14,67Zm1.29-.86c-.5-.54.18-1.4-.72-1.59C16.78,64.94,17.06,66.16,17.43,66.13Zm-2.88-1.3c.17.57.17-.57,0,0Zm17,1.15c-.19-.44.54-1-.14-1C31.53,65.49,31,65.84,31.55,66ZM17.14,67a9.68,9.68,0,0,0-.72-1.87C16.56,65.85,16.52,66.75,17.14,67Zm.72-1.73c.17.57.17-.57,0,0Zm22.19-.14c-1,.55-.56.94,0,0ZM50,66.42c.42.5,1.84-.07,2.31-.44.26.47,1.6-.12,1.87-.57C52.9,65.86,50.81,66,50,66.42Zm-18.73-.15Zm13.83.43c1.17-.28,3.74.4,4.61-.57C48.21,66.32,46.88,66.06,45.09,66.7Zm-.14,0c-.92-.16-.32.44,0,0Zm-2.45.58a3.07,3.07,0,0,0,1.58-.43C43.58,67,42.76,66.87,42.5,67.28Zm-.72,2.3c-1.43.15-4,0-3.89,1.3.19,0,.71,0,1.73,0,0,.15-.12.17-.15.29,2,.06,7,.4,9.22,0-.73,0,.76-.57.72,0,1.34-1.36,3.81-2.34,4.18-4.18C51.14,69.4,45.4,69.21,41.78,69.58Zm-4.18.72c-.28.21-.26.7-.43,1C37.49,71.24,37.8,70.42,37.6,70.3Zm4.61-2.88Zm10.52-.14c-.11,0-.29,0-.29.14C52.55,67.39,52.72,67.42,52.73,67.28ZM13,67.57a.15.15,0,0,0-.29,0C12.84,67.55,12.9,67.78,13,67.57Zm5.18,0c.17.57.17-.57,0,0Zm23.2.14a.39.39,0,0,0,.43-.29A.39.39,0,0,0,41.35,67.71Zm3.45,1A5.28,5.28,0,0,0,47,67.42,3.36,3.36,0,0,0,44.8,68.72ZM48,67.57c-.74.63.46-.26,0,0Zm.72.57a5,5,0,0,0,1.3-.72H49C49.19,68,48.59,67.7,48.69,68.14Zm3.46-.57Zm-38,.57v-.57c-.22,0-.53,0-.58.14C13.82,67.77,13.55,68.37,14.12,68.14Zm1.15.15a.91.91,0,0,0-.14-.72c-.17,0-.41,0-.44.14C15,67.8,14.73,68.44,15.27,68.29Zm1-.15c.15-.36-.3-.82-.43-.43C16.19,67.65,15.77,68.37,16.28,68.14Zm.86,0c0-.16.23-.15.44-.14,0-.38-.2-.47-.58-.43C17,67.78,17,68.1,17.14,68.14Zm14.12.58c0-.39.6-.82.15-1.15C31.46,68,30.86,68.44,31.26,68.72Zm12.54-.29c.64,0,.89-.45,1.29-.72A1.75,1.75,0,0,0,43.8,68.43Zm5.9-.14a1,1,0,0,1,.72-.15.72.72,0,0,1,.15-.43C50.27,67.81,49.49,68.16,49.7,68.29Zm-8.93.57c0-.17,0-.4-.14-.43-.48.34-1.18.45-1.59.87a2.7,2.7,0,0,0,1.44-.58c.44.67,1.88-.19,1.88-.43.14,0,.17-.12.28-.15.32.21-.18.36.15.44.12-.36.5-.46.72-.72C42.22,67.82,41.87,68.71,40.77,68.86Zm.29-.43c.48.44.44-.53,0,0Zm-13.26,0c-.74.35.5.37,0,0Zm1.16.15Zm8.5.28c.09.1-.06-.06,0,0Zm6.91,0Zm-5.62.58Zm-7.92,3.17c.2-1.06.84-1.73.43-2.74C31.07,70.65,30.53,71.83,30.83,72.61Zm-.43-2c-.28.55.38-.76,0,0Zm20.6,0ZM30.25,71c.1.09-.06-.07,0,0Zm6.63.28Zm-4.18.15Zm-4.9,2.88c.28,0,.32.16.58.14-.09-.34.18-1-.14-1.15C28.2,73.77,27.92,74,27.8,74.34Zm-.57.72Zm2.74,2Z"/><path class="cls-1" d="M6.19,6.63c.08-.3.56.19.44.57C6.33,7.16,6.49,6.67,6.19,6.63Z"/><path class="cls-1" d="M28.67,11.53c.38-.77-.27.54,0,0Z"/><path class="cls-1" d="M41.35,37.46c-.36-.38.41-.84,0,0Z"/><path class="cls-1" d="M28,76.21c0,1-1.69,2.92-2.16,4.47C25,79,27.28,78,27.37,76.21,27.7,76,27.91,76.58,28,76.21Z"/></g></g></svg>