<svg xmlns="http://www.w3.org/2000/svg" viewBox="0 0 84.88 75.23"><defs><style>.cls-1{fill:#321f10;fill-rule:evenodd;}</style></defs><title>Asset 4</title><g id="Layer_2" data-name="Layer 2"><g id="Layer_2-2" data-name="Layer 2"><path class="cls-1" d="M40.42,14.64c.46-.37.28-1,.55-1.31a2.68,2.68,0,0,1,4.67,2.08C45.37,18.2,40.15,18.31,40.42,14.64Zm1.17.41c.9,1,2.1,0,2.29-1.2-.77,0-.18-.08,0-.29C42.8,13.76,41.61,13.84,41.59,15.05Zm2.48,1.11c.18-.12.57-1.19.27-.87C44.37,15.62,43.65,15.94,44.07,16.16Zm-1.15.46c.16-.32.47-.49.56-.88C43.17,15.83,42.6,16.4,42.92,16.62Zm-1.17-.56c.22.48.35-.57,0,0Zm1.88.11Z"/><path class="cls-1" d="M51.69,36.55c0-.14.18-.11.29-.15C52,36.54,51.8,36.52,51.69,36.55Z"/><path class="cls-1" d="M15.89,39.84l-.87,0C15,39.28,16.06,39,15.89,39.84Z"/><path class="cls-1" d="M20.74,44.09c.86.12,2.34-.1,2.9.09-.57,1-3.19.13-4,.51,1,.65,2.44.13,3.48.51-.88.6-3.2.32-4.33.23a7.33,7.33,0,0,0,3.77.79c-.34.78-1.31.17-2.16.33-.17.48.47.11.3.58A10.68,10.68,0,0,0,18.2,47c1.57.72,4.27.27,5.94.9-.73.63-1.93-.14-2.89,0-.39.14.45.32,0,.58-1-.34-2.23-.33-3.05-.81.14.3.31.57.45.86,1.79.06,4.09.66,6.67.74-1.81.82-4-.19-5.93.12,1.07.62,3.37.21,3.64,1.08,1.38.09,2.52-.19,3.34.66-1.51-.44-1.68.42-3.18.06,1.19.54,3.05.37,3.92,1.23-1.6-.07-3-.2-4.34-.35,2.74,1.1,7.66,1.09,11.16,1.52a47.43,47.43,0,0,1-6.65,0,65.59,65.59,0,0,0,7.84,1.44,13.58,13.58,0,0,1-4.63-.2c2.23.86,5.41.77,8,1,.16.48-.45.23-.72.3.45.32,1.5,0,2.17.1,1.51,1.31,4.09.21,6.52.45-.58.52,1,.35,1.6.26-.16-.32-.91,0-1.31-.12,1.19-.23,4.43-.46,5.78-.54-1.22-.6-4.18-.14-5.21-.05,3.55-.81,8.44-.33,11.83-1.38-1.36-.08-3.78.79-5.49.39,3-.51,6.19-.86,8.94-1.62-1.84-.1-4.25.46-6.35.56.88-.72,2.78-.52,3.74-.79-.1-.55-1.59.17-1.88-.11,2.07-.83,4.45-.47,6.34-1.43-1.3-.23-4,.5-4.92.24,1.19-.75,4.51-.41,6.05-1.27a19.74,19.74,0,0,0-4.62.23c1.2-.94,4.27-.44,5.18-1.11-1.63-.42-3.05.51-4.76.38a20.53,20.53,0,0,1,4.89-1.11c.06-.3-.1-.38-.15-.57-.94-.31-1.57.14-2.6,0a3.08,3.08,0,0,1,2.44-.48c0-.26-.18-.3-.15-.58-1.09-.47-2,.14-2.46-.24a2.94,2.94,0,0,1,2-.33c.13-1.2-1.24.06-1.46-.69-.14-.52.57-.21.87-.31a6.24,6.24,0,0,0-4.37-1.36c1-.67,1.68,0,3-.2-1.92-1-4.45-1.47-6.83-2,0-.49-.65-.21-.45-.86,5.57,1.48,13.78,1.91,12,9.6-3.94,4.42-7.36,4.74-14.48,6.5-.93.23-2.57.21-3.75.36a52,52,0,0,1-13.6,0c-7.46-.92-16.51-2.44-19.24-7.88-1.36-2.7.06-6.49,2.75-7.28.27-.08.36.35,1.31,0,2.11-1.61,4.37-1.71,7.48-2-.51,1.36-3,.78-3.73,2a9.65,9.65,0,0,0-2.16.19c.51.53,1.05-.17,1.74.11-.59.88-2.52.64-3.61.65C20.86,43.92,20.74,43.94,20.74,44.09Zm1.57-1.48c.09.1-.07-.06,0,0ZM62.85,45c.09.1-.07-.06,0,0Zm.58.14c.09.09-.07-.06,0,0Zm-42.61,3c.1.09-.06-.06,0,0Zm46.56-.32c.06-.46-.19-.59-.45-.72C67,47.44,67.1,47.72,67.38,47.82ZM19.26,49.47a.15.15,0,0,0-.29,0C19.13,49.46,19.2,49.68,19.26,49.47Zm47.86-.35c0-.36,0-.7-.3-.71C66.9,48.66,66.9,49,67.12,49.12Zm-48.43.94c.76,1-.22-.3,0,0Zm1.74.25Zm1,.13Zm45.26-.3h.58a.84.84,0,0,1,.14-.58C67,49.57,66.89,49.89,66.7,50.14Zm-47.42.63c.45.39-.4-.43,0,0Zm1.6.11c-.6-.49-.34.48,0,0Zm1,.13c-.25,0-.73-.39-.87,0C21.39,50.86,21.72,51.45,21.89,51Zm2.17.1c.1.09-.06-.06,0,0Zm-1.16,0c-.11,0-.28,0-.28.15C22.73,51.25,22.9,51.27,22.9,51.13Zm-.56.88c-.22,0-.1-.31,0-.43-.53.2-1-.41-1.3,0C21.54,51.57,22.08,52.28,22.34,52Zm44.1-.7c0-.34.44-.34.56-.59C66.51,50.53,66,51.06,66.44,51.31Zm-42.95.39c-.11,0-.28,0-.28.15C23.32,51.82,23.49,51.84,23.49,51.7Zm.73.13c-.11,0-.29,0-.29.15C24.05,52,24.22,52,24.22,51.83Zm-2.15.91c-.21-.09-1.16-.61-.88-.27C21.47,52.49,22,53,22.07,52.74Zm43.23-.55c0-.39.6-.27.71-.59C65.6,51.55,64.89,51.93,65.3,52.19ZM24.1,53Zm-1.74.18c.1.09-.06-.06,0,0Zm3.34.37c.45.38-.4-.43,0,0Zm-2,.18c.09.1-.07-.06,0,0Zm3.17-.2c-.11,0-.28,0-.28.15C26.68,53.63,26.85,53.66,26.85,53.52Zm33.27-.07c.54-.33,2.66.11,2.3-.62C62.35,53.26,60.47,52.86,60.12,53.45ZM64,52.8c-.11,0-.29,0-.29.15C63.83,52.91,64,52.94,64,52.8Zm-39.9,1.06c.1.09-.06-.06,0,0Zm39.33-.76c.09.09-.07-.06,0,0Zm-39,.9c.09.09-.07-.06,0,0Zm3,.37c1.11.32,1-.51,0,0Zm2.9.52c-.25.09-.85-.15-.86.17C29.74,55,30.34,55.21,30.35,54.89ZM33.41,56c-.11,0-.29,0-.29.15C33.23,56.11,33.41,56.13,33.41,56Zm1.6.26c.09.09-.07-.06,0,0Zm1-.16c-.93-.15-.31.44,0,0Zm1.59.11c-.32-.07-1.19-.32-1.45,0A5,5,0,0,0,37.61,56.2Zm15.33,0ZM53.8,56c-.11,0-.28,0-.28.15C53.63,56.15,53.8,56.17,53.8,56Zm.44,0c-.12,0-.29,0-.29.15C54.06,56.14,54.23,56.16,54.24,56Zm-5.19.83c0,.63,1.9.2,1.29-.17A1.65,1.65,0,0,1,49.05,56.85Zm-4.2.08c-.25.09-.85-.16-.86.16C44.24,57,44.84,57.25,44.85,56.93Zm3.33.22h.44v-.29h-.43Zm-5,.53c-.93-.14-.31.45,0,0Zm.29.14Zm.58,0Z"/><path class="cls-1" d="M58.35,44.52c.84-.51,1,.33,0,0Z"/><path class="cls-1" d="M9.22,46.63Z"/><path class="cls-1" d="M16.05,48.08c-.06,0,.09.1,0,0Z"/><path class="cls-1" d="M32.11,48.35c-.07-.06.09.1,0,0Z"/><path class="cls-1" d="M32.4,48.35a6.28,6.28,0,0,0,3.46-.07A3.29,3.29,0,0,1,32.4,48.35Z"/><path class="cls-1" d="M16.36,49.09Z"/><path class="cls-1" d="M3.64,49.48Z"/><path class="cls-1" d="M58.63,51.31c.15-.57.18.57,0,0Z"/><path class="cls-1" d="M58.92,51.31Z"/><path class="cls-1" d="M75,51.58c.38-.06.38.29.45.56a5.89,5.89,0,0,1-3.47.22C72.74,51.74,74.55,52.46,75,51.58Z"/><path class="cls-1" d="M55.79,54.26c0-.14.18-.12.29-.15C56.08,54.25,55.9,54.22,55.79,54.26Z"/><path class="cls-1" d="M52.63,55.19a1.32,1.32,0,0,1-1,.31C51.76,55.2,52.17,55.17,52.63,55.19Z"/><path class="cls-1" d="M53.21,55.47c0-.15.18-.12.29-.15C53.5,55.46,53.32,55.43,53.21,55.47Z"/><path class="cls-1" d="M19,58Z"/><path class="cls-1" d="M72,56.84c-.14,1.33-2,1-3.59,1.22-1.14.13-2.58.64-2.9-.08C67.86,57.6,70.21,57.84,72,56.84Z"/><path class="cls-1" d="M79.9,59.29c.15-.58.18.57,0,0Z"/><path class="cls-1" d="M34.11,62.49c.11.32,1-.16.88.41C34.88,62.58,34,63.06,34.11,62.49Z"/><path class="cls-1" d="M75.21,63.57c.15-.57.18.57,0,0Z"/><path class="cls-1" d="M53.08,71.09c0-.17.26-.13.43-.16C53.49,71.1,53.25,71.06,53.08,71.09Z"/><path class="cls-1" d="M41.8,11.14c-2-1.33-4.82-2.62-4.59-5.69C37.54.92,43.75-1.66,47.39,1.2,51.35,4.31,48.78,12.3,41.8,11.14ZM45.24,2a1,1,0,0,0,.85-.6A2.07,2.07,0,0,0,44.2.69,2.31,2.31,0,0,1,45.24,2ZM47.6,4.38a43.92,43.92,0,0,1-5.29,3.28c0-.27.16-.32.13-.58-.27,0-.95.39-1.15,0,1.64-.42,3.86-1.58,3.26-3.24.54.09.35-.51.57-.73A3.81,3.81,0,0,0,43.48,1C39,.31,37.86,7.12,40.89,9,43.14,7.47,45.69,6.23,47.6,4.38ZM45.69,2.83a1.46,1.46,0,0,0,1-1C46.26,2.05,45.51,2,45.69,2.83Zm0,1.3c.34-.53,1.51-1,1.27-1.62-.42.21-.47.77-1.14.75C45.91,3.58,45.41,4.05,45.71,4.13Zm-1,1.61c.75-.67,2.91-1.45,2.42-2.36C46.5,4.32,45.27,4.69,44.73,5.74Zm3.59-1.52c.18.57.15-.57,0,0ZM47,5.55c-2,1.45.7-.17.43-.3A2.55,2.55,0,0,0,47,5.55Zm0,1a.4.4,0,0,0,.3.43A.4.4,0,0,0,47.06,6.56Zm.44.14c-.13-.41.2-.38.13-.73C47.1,5.84,47.07,6.69,47.5,6.7Zm-4,1.52a27.33,27.33,0,0,1,2.57-1.64c-.57-.17-1.46.75-2.29,1.2A13.08,13.08,0,0,0,41,9.28C41.86,9.66,42.73,8.7,43.48,8.22ZM46.22,8c.3.91-2,1.33-2,1.92,1.17-.53,2.67-1.5,2.85-2.51C46.84,7.67,46.39,7.71,46.22,8Zm-1.16-.27c.1.1-.06,0,0,0Zm-.29.15c.1.1-.06-.05,0,0Zm-.42.3c.09.1-.07-.06,0,0Zm-.29.15c-.74.65.46-.27,0,0ZM42.64,9.83c1.15.18,2.21-.9,2.86-1.65C44.5,8.68,43.7,9.38,42.64,9.83Zm-.15-.43a2.48,2.48,0,0,0,1.14-.75A1.93,1.93,0,0,0,42.49,9.4Zm-.14,0c-.12,0-.29,0-.29.15C42.17,9.51,42.34,9.54,42.35,9.4Zm.16,1.15Z"/><path class="cls-1" d="M20,58.42c.08-.58-.86-.09-.74-.71h.58c.42,1.2,1.9.37,2.63,1.25-1.49.06-2.83-.37-4.79-.48,1.71,1.22,4.8,1.12,7.41,1.44-1.47.88-3.24-.12-4.92-.34,2.38,1.76,5.81,1.58,9,1.71-1.24.76-2.5,0-4,.22.17.57.83-.28.73.57,2.06-.7,6.2.37,8.11.42-1.95.42-3.78-.1-5.79-.32C39.93,64.28,53.1,63.3,64.45,60.6c-1.79-.24-4.57,1.07-7.35,1.15.87-1,2.77-.29,3.59-1.08,2-.49,5.28-.45,7.49-1.3a38.56,38.56,0,0,0-5.91.55c2.21-1.46,5.49-.17,7.48-1.74.42.17.24.84.88.42-.93,1.56-3.08,2.2-4.86,3-12.73,5.62-34.32,5-45.7-.13-5.25-2.73-11.52-5.9-11.39-13.23.84-1.12,1.25-3.78,2.94-4.54,0-.26-.18-.31-.15-.58.54-.1.9-.36,1.44-.46,0,.45-.37.5-.72.59.07.23.46.12.31.57A4.2,4.2,0,0,0,10.93,45c.62-.09,1.16-.74,2-.62,0-.42-.34-.43-.3-.86.6.16.64-.23.56-.73a50.92,50.92,0,0,1,6.6-2.59c-.29-.36-.72.34-1.3.17.52-.59,1.6-.64,2.59-.77,0,.48-.81.16-1,.45.27.24,1.12-.38,1.59,0,.2-.55-.65,0-.45-.57a75.71,75.71,0,0,1,13.4-2.57c-6.24-.37-12.43,1.17-18.46,2.53,1.27-.9,3.52-1.32,5.17-1.7a78.08,78.08,0,0,1,13.71-1.56,34.71,34.71,0,0,0,5.39-13c.34-1.88.46-4.58,3.11-3.82,3.2,5,2.75,12.86,6.27,17.53,6.9.91,13.72,1.56,18.87,4a.81.81,0,0,1,.16.57,15.36,15.36,0,0,1,5,2.66,8.2,8.2,0,0,1,2.85,5.44c.29,2.67-1.41,4.94-2.61,6.84-.57.12-1,.33-1.59.47,0-.34.5-.28.42-.73a9.19,9.19,0,0,1-4.76.23c1.29-.56,4.09.27,5.76-1.12-1.06-.21-3.33.32-4,.08,1.1-1,4.18.36,5-1.69a6.54,6.54,0,0,1-3.47-.08c1.53-.26,5.12.33,4.42-3.12-.34.76-1.87,1.13-2.88.78.54-.82,2-.09,2.87-1.07-.59-.86-3.24.43-3.62-.65a21.94,21.94,0,0,0,3.47-.07l0-.58c-.55-.3-2.84,0-3.33-.37a12,12,0,0,1,3-.2c-.11-.52-.57-.69-.75-1.14-.58-.08-1.53.22-1.88-.11.19-.54.77-.08,1.44-.32,0-.94-2.07-.5-2-1,.09-.75.46.28,1,0,.22-.34-.76-.69-1.32-.7-.06-.24.11-.27.28-.29-.14-.29-.56-.3-1-.27-1.66-2-4.41-2.79-7-3.77-.37.39,1,.29.89.85-3.23-1.3-7.14-1-10.44-1.39,0-.43,0-.88.41-.87-1-.38-2.52-.13-3.47-.23-.43.14.34.21.15.58.74-.08,1.14-.33,1.6.11.07.45-.3.47-.72.45.77,1.47,2.42,2,2.68,4a4.5,4.5,0,0,1,2.4,4c-4.12,5.65-15.93,5.59-22.79,3.48-.54-.15-.4.36-.86.3,0-.14,0-.29,0-.43a24.55,24.55,0,0,1-5.39-2.21c-.52-.51-1.16-1.56-1.9-1-.92-.94-1.95-2-.93-3.46,1.49-2.08,5.9-4,7.26-5.78-2.53-.68-5,0-8.24.16-.32,0-.3.37-.28.73a32.62,32.62,0,0,0-6.48,1.28c-1.05,1.28-4.38,1.28-4.13,3.12-.24.86-1.89.36-1.56,1.76-.79.1-1.05.25-1,.89a1.25,1.25,0,0,0-.87.16c-.33.34.4,1.2-.41,1.31.32.42.54,0,.88.42-.27.59-.64.31-1.16.16-.23,1.33,1.87.23,1.77,1.42-.68,0-1-.28-1.6-.26.11,1.68,2.84.2,3.07,1.67a15.6,15.6,0,0,0-2.61-.52c0,.88,2.19.76,3.06,1.24-.46.63-1.88-.18-2.61-.24.71,1.3,3.41.37,3.65,1.81a15.75,15.75,0,0,0-3.2-.81c.94,1.76,2.95.66,4.8,1.5-.56.87-2.5-.23-3.61-.22.87,1.89,4.56.59,5.82,1.92-.88.22-2-.45-3.63-.37.82,1.07,2.87.86,4.23,1.36,0,.26-.25.34-.58.31C18.65,58.53,19.43,57.92,20,58.42Zm22.37-10c1.35-2.48,5.23-3.28,5.22-6.6-1.56,1.52-3.28,3.65-4.68,4.86a57.68,57.68,0,0,1,4-4.71c-.53-.12.28-.82-.16-.86-1.94,1.73-2.93,5.13-5.53,5.75,2.07-1.21,3.11-4.06,3.33-7.15.37-5.21-1.9-7.91-1.83-12.41,1.46-.83,1.21-2.81,1.06-4.93-.54.4-.28,1.88-1,2.33.31-1.2.69-3.14-.23-4a35.35,35.35,0,0,1-3.28,9.76c-1.6,3-3.1,6.73-5,9.06-1.47,1.77-4.13,3.32-3.51,5.71.13.48.67.82.61,1.29.54.17,1.62.4,1.32,1-.9.13-.33-.5-1-.41a5.08,5.08,0,0,1-.84,1.75c.37-.07.83.5,1,.13a.59.59,0,0,1-.17-1c0,.6.79,1,.61,1.29,3.44.81,8.11.84,12.16.92.16-.25-.76-1-.88-1,1.16-2,4.29-3,4.37-5.58C46.29,45.4,44.16,46.75,42.38,48.44ZM44.8,24.1Zm.45,1.15c-.39.11.09-.68-.3-.57C44.88,25,45,25.76,45.25,25.25ZM43,27.75c.2.48-.06.77.16,1,.33-1,1.41-2.05,1.25-3.06C43.79,26.27,43.69,27.71,43,27.75Zm5.66,8.43c-1.79-2.67-2.4-6.66-3.39-10.5C45.6,29.56,46.25,33.92,48.65,36.18ZM40.36,26.5Zm3.26,4.13c.21-1.22,1.33-2.58,1-3.49C44.16,28.13,42.67,29.24,43.62,30.63Zm.46,1.15c.12-.93,1.29-2.19.67-2.9C44.71,30,43.33,30.81,44.08,31.78Zm0,1.16c.43-.64,1.47-1.85,1-2.48C45.05,31.58,44,31.69,44.1,32.94Zm.62,2.15a12.84,12.84,0,0,1,1.11-2.33,3,3,0,0,0-.45-1.15C45.06,32.64,43.87,33.81,44.72,35.09Zm-7.55-1.73c-.39.45.43-.4,0,0Zm-.28.44c.09.09-.07-.06,0,0Zm8,2.74c.7-.63,1.71-2.08,1.1-3.06C45.64,34.59,44.62,35.21,44.89,36.54Zm-8.14-2.45Zm-.14.29Zm8.62,4.46c.54-1.09,1.31-2,1.82-3.07a1.32,1.32,0,0,0-.6-.85C46.21,36.28,44.35,37.31,45.23,38.84Zm-.4,2c1-1.26,2.87-3.16,2.66-4.68C46.63,37.78,45.16,38.78,44.83,40.88Zm-.52,2.75c1.11-1.71,2.54-3.13,3.37-5.12,0,.17,0,.34.29.28,0-.54.54-.62.56-1.17-.22-.16-.18-.59-.59-.56C47.2,39.6,44.51,41,44.31,43.63Zm4.13-3.4c.21-.46.68-.66,1-1-.1-.44-.24-.83-.74-.86A2,2,0,0,0,48.44,40.23ZM32.67,40.1c.36-.18,1-.79.85-1C33.33,39.5,32.86,39.67,32.67,40.1Zm-10.13-.38a.4.4,0,0,0,.43-.3A.4.4,0,0,0,22.54,39.72Zm-.72.15c.33,0,.54,0,.57-.3A.65.65,0,0,0,21.82,39.87Zm33.25-.64ZM47,41.7a2,2,0,0,0,1-2.33C47.63,40.12,47.37,41,47,41.7ZM57,39.34c-.51.15-1.62-.36-1.44,0C55.9,39.34,57.15,39.71,57,39.34Zm3-.2c-.11,0-.28,0-.28.15C59.81,39.25,60,39.28,60,39.14ZM48.05,43c.55-1.17,1.7-1.78,2.11-3.07-.16,0-.22-.16-.29-.29C48.64,40,48.05,41.84,48.05,43ZM58.4,39.75c.1.09-.06-.06,0,0Zm3.18-.06ZM60,39.86Zm2.47.53c.49-.12.61.15.87.27-.12-.28-.51-1-.74-.71C63,40,62.39,40.19,62.47,40.39Zm-30.22.3c.09.09-.07-.06,0,0Zm33.11-.35a3.69,3.69,0,0,0,1.88.25C66.42,40.21,64.36,39.83,65.36,40.34Zm-35.1,2.12c.64-.38,1.63-1.17,1.55-1.77C31.62,41.59,30.58,41.69,30.26,42.46Zm31.91-2.35c-.11,0-.28,0-.28.15C62,40.22,62.17,40.25,62.17,40.11ZM49.64,43c.42-.74,1.28-1,1.41-2.05-.46.19-.12-.46-.58-.28C50.2,41.31,49.19,42,49.64,43Zm-2.78-2Zm5.06-.1c.45.39-.4-.43,0,0Zm11.71-.22Zm4.05.06c.21.72.69.22,0,0Zm-15.61.59c.1.1-.06-.05,0,0Zm-4.33.38Zm4.12,3.68c-.77-.19-1.45,1.61-1.55,2.05A15.88,15.88,0,0,1,53.57,44a15.37,15.37,0,0,0-2.22-2.41,7.45,7.45,0,0,0-1.82,3.07,5.62,5.62,0,0,0,1.12-1.9c.57.47.55-.52,1-.6.56.92-1,1.13-.53,2,.73-.2,1-.87,1.56-1.19C53.11,44,51.29,44.25,51.86,45.37Zm1.53-3.07c-.25-.14-.71-.82-.88-.56C52.81,41.84,53.11,42.68,53.39,42.3Zm-26,2c-.08.13-.42.64-.14.29.85-.65,2.6-1.18,2.71-2.08A11.24,11.24,0,0,1,27.4,44.25ZM28,46.84c1-.54,2.23-2.87,2.67-4C29.62,43.88,27.74,45.9,28,46.84Zm20.48-2.56c.09-.35.75-.88.27-1.31C48.9,43.52,48.25,44.06,48.51,44.28ZM27.44,46.42c.25-.71,1.16-1.53,1.12-2.05C28,44.86,26.33,45.64,27.44,46.42Zm21.37-2c.09.1-.07,0,0,0Zm2.8,3.13a10.78,10.78,0,0,0,2.12-2.93c.35.16-.29.55.15.72.41-.36-.21-.87.13-1.16A9.69,9.69,0,0,0,51.61,47.54ZM50,45.69a3.89,3.89,0,0,0,1-1c-.11,0-.17-.12-.15-.28C50.34,44.47,49.91,46,50,45.69Zm-23.44-.56c-.39.45.43-.4,0,0Zm17.58,4c.85.25,1.44-.81,2.14-1.48,1.06-1,2.48-1.8,2.39-3.09C47.4,46.23,44.86,47.42,44.13,49.13Zm-33.48-3.4Zm18,1.68c.34,0,.27.49.73.42a5.42,5.42,0,0,1,1-1.61,3.11,3.11,0,0,0-.45-1C29.54,46,29,46.6,28.62,47.41ZM50.07,50c2.59-.87,4.71-2.19,5.84-4.45-.44-.28-.87-.57-1.31-.84C54.68,47.94,51.43,48.69,50.07,50ZM26,45.87c-.1.86.08-.58,0,0Zm20.58,2.06c2,.24,2.7-1.56,2.84-2.66C48.54,46.24,47.33,46.88,46.56,47.93Zm-16,.6c0-.87.85-.88.83-1.75-.18-.21-.55-.21-.73-.42C30.39,47,29,48.26,30.52,48.53ZM48.3,48c.34,0,.54-.24,1-.16a15,15,0,0,1,1.12-1.76C49.59,46.63,49.14,47.53,48.3,48Zm5.17-1.69c.1.09-.06-.06,0,0ZM27.75,47.57c.1.09-.06-.06,0,0Zm26.62.5c.55-.19,1.55-.68,1.28-1.18C55.45,47.35,54.19,48.17,54.37,48.07Zm-3.76-.22c0-.15.62-.3.13-.44C50.82,47.62,50.19,47.78,50.61,47.85Zm-4.19.52c-.17,0-.41,0-.43.15C46.16,48.49,46.4,48.54,46.42,48.37Zm2.91.52c.55.09,1.26-.39,1-.6C50.31,48.79,49.25,48.3,49.33,48.89Zm-2,.18c.55-.12.7.16,1.16.12-.13-.46.48-.2.43-.58C48.29,48.49,47.64,48.4,47.3,49.07Zm-2.44.48a.88.88,0,0,0,1.29-.46C45.41,49,45.11,49,44.86,49.55Zm1.44.12c0-.41,1,.11,1-.31C46.86,49.17,46,49.34,46.3,49.67Zm.33,1.73c3-.13,5.36-.66,7.19-2.16-.12,0-.29,0-.29.15A33,33,0,0,1,46.63,51.4Zm-1.46-.7c-.26.09-2.16-.31-2.16.48,2.37-.24,3.73-.58,6.05-.84,0-.29,1-.69.28-.73C47.73,50.13,46.27,49.64,45.17,50.7Zm9.52-1.05c-.38.45.43-.4,0,0ZM33.31,50.93Zm5.78-.25c-.17,0-.41,0-.43.15C38.83,50.8,39.07,50.85,39.09,50.68Zm3.62.07c-1-.19-1.85.16-3.18-.08C40.08,51.09,42.12,51.33,42.71,50.75Zm-3.6.65c-.12,0-.29,0-.29.15C38.93,51.52,39.1,51.54,39.11,51.4Zm7.37-.14c-.17,0-.41,0-.43.15C46.22,51.38,46.46,51.43,46.48,51.26Zm-6.94.28c-.11,0-.28,0-.28.15C39.37,51.65,39.54,51.68,39.54,51.54Zm1,.26c.64.36.81-.53,0,0Zm2.17,0c-.17,0-.41,0-.43.16C42.47,51.89,42.71,51.93,42.73,51.76ZM15.06,57.07c.1.09-.06-.06,0,0Zm3.06,1.1c0-.68-2.11-.6-2.32-.68C16.3,58,17.51,57.78,18.12,58.17Zm47.19,2.12c-.93-.14-.31.45,0,0ZM22.68,62Zm2.32.39c-.84-.4-.37.37,0,0Zm2.75,0Zm-2.17.19c-.11,0-.28,0-.28.15C25.41,62.62,25.58,62.65,25.58,62.51Zm34.85-.39c-.11,0-.29,0-.29.15C60.25,62.24,60.43,62.26,60.43,62.12Zm-2.16.48c.55,0,1.27.09,1.44-.32C59.3,62.45,58.58,62.33,58.27,62.6Zm-1.88.32c.28.09,1.54.12,1.73-.32A4.24,4.24,0,0,0,56.39,62.92Zm-.72,0Zm-.57.3c.19-.47-.87-.35-.87-.13A1.27,1.27,0,0,0,55.1,63.24Zm-1.45,0c.1.09-.06-.06,0,0Zm.29,0Zm-1.88.18Zm-3.46.36c.39-.1,1.15.16,1.3-.17C49.61,63.39,48.72,63.44,48.6,63.8ZM37,64c.09.09-.07-.06,0,0Zm.86-.16c-.17,0-.41,0-.43.15C37.64,64,37.88,64,37.9,63.86Zm3.62.22c.42,0-1.7-.49-1.45-.12A3.49,3.49,0,0,0,41.52,64.08Zm6.93-.42c-.11,0-.28,0-.28.15C48.28,63.77,48.45,63.8,48.45,63.66ZM38.34,64c-.11,0-.29,0-.29.15C38.16,64.11,38.34,64.14,38.34,64Zm6.5-.13c-1.39-.15-.75.46,0,0Zm10,.1Zm-2,.33c.09.09-.07-.06,0,0Z"/><path class="cls-1" d="M78.34,46.3c.35-.35.55.7,1.17.56-.1-1-1.82-.83-2.49-1.83.49-.13.61.15.87.27-6-5.38-16-7.37-25.33-8.48.24-1,3.09-.11,4.2.07,6.58,1,12.74,2.19,17.59,5,2.4,1.39,4.12,3.42,6.31,4.65,1.81,2.14,3.68,4.71,4.2,7.73-.19.92.19,2.46-.07,3.61C83.6,63.11,77.51,68.64,72,70.58c-2,.72-4.26,1-6.19,1.71-.33,0-.15.42-.43.44-5.08.38-10.4,2.35-14.85,2.17,0-.54.45.08.57-.45,0-.26-1.81,0-2-.1,0,.84-1.57,1.15-2.59.62,0-.21.43,0,.43-.29-.81-.07-1.59-.05-2.75-.1-.36,0-.34.34-.57.45C27.93,74.35,10.55,70.57,2.1,59.78c-2.47-3.58-3-9.91-.26-13.45,3.05-2.27,5.92-4.7,10.45-5.55-.35,1.65-3,1.06-3.71,2.39-.58-.33-.44.28-1,.31.15.35.55-.21,1,0-.67,1.24-2.75.89-3.43,1.8.23.42.63-.55,1,0-.19.77-1.57.38-2,.91.36.47.87,0,1.74.11-.45,1-2.28,0-2.59.91.35.63,1.25-.28,1.89.11-.22.88-2.21.06-2.59.78.4.28,1.45.12,1.59.25-.11.88-2.14,0-2.29,1.2.53.58,1.36-.2,2.32.25-.45.49-1.63.45-2.3.33-.24.15-.15.62-.28.88.52.46,1.21.07,1.74.25-.54.83-.35.32-1.72.47,0,.23.08.55-.14.58.54.7,1.69.38,2.61.38-.54.69-1.81.4-2.45.34-.18,1.29,1.67.27,2.19,1.11A4.41,4.41,0,0,1,2,54c-.18.3.09,1.1.32,1.44.61,0,1.41-.33,1.74.25l-1.59,0c.08,1.24,1.86.72,2.34,1.55-.66-.12-1.26-.16-1.59-.26-.36,1.1,2,1,2.34,1.4-.35.45-.88-.16-1.45,0,.2,1.4,2.62.19,3.5,1.52a17.6,17.6,0,0,0-2.75-.38c-.11.89,1.49.65,1.18,1.28,1.38.16,2.57-.16,2.9.52-1.11-.18-1.54-.07-2.61-.24.26,1.5,3,.26,4.23,1.51-.82-.28-2.07-.11-2.91-.37.67,1.6,3.13.58,5.1,1.92a25,25,0,0,1-3-.52c.83,1.64,4.41.75,5.82,1.91-1.22-.27-2.72-.26-3.77-.5a7.53,7.53,0,0,0,4.8,1.5.73.73,0,0,1-.72.3c1.36,1,3.31.58,5.52,1-.42.46-1.42.07-2.17,0C22,69.59,25.89,69,28.62,70.26c3.89.17,8.75.43,12.74.76-1.21-.1-2.38.11-3.9.08,3.7.52,5.51.12,9.84.1-.7.41.38.26.87.27-.1-.14-.33-.14-.3-.43,2.51-.08,3.08-.13,5.06-.24-.62.91-2.85.27-4.47.52,1.07.3,3.75,0,4.78.34.47,0,.32-.53.56-.73,1.78-.31,5.72,0,7.94-.88-2.43,0-5.15.29-6.94.14.52-.7,2.63-.18,3.46-.22,1.49,0,3.22-.64,4.77-.09.94-.31,1.31-.36,2.16-.62-1.57-.07-3.81.3-5.64,0,3-.68,6,0,9-.76-.88-.46-2.86.06-4.49-.2,1.74-1.19,5.09.54,7.06-1-1-.22-2.44,0-3.76-.22,1-.79,3.2.12,4.91-.24.84-.18,1.24-.75,2-.9-1-.18-3.13.42-3.9.07,1.68-.67,4.6-.18,6.19-1.13-1.29-.63-3,.72-3.48-.51,2-.13,3.35.38,4.91-.39-.5-.36-1.79.1-2.32-.24,1-.76,2.67.39,3.89-.8-.63-.32-2,.11-2.32-.53.62-.3,3.12.55,3.31-.79-.55-.1-2,.46-2.75-.09.89-.52,3,.28,3.45-.94a6.26,6.26,0,0,1-2.75-.23c.8-.61,3.14.76,3.17-.79-.15-.28-1.13.31-1.45-.11.19-.44,1-.27,1.58-.32s.5-.75.7-1.17c-1-.1-1.82.44-2.17-.39,1,0,1.92.31,2.59-.49-.37-.27-2,.37-2.61-.53a17,17,0,0,0,2.6.1c.32-.07.05-.72.13-1a3.55,3.55,0,0,1-2.18-.24c.73-.5,1.63.08,2.17,0,0-.24,0-.48,0-.72s-1.5,0-2-.25c.42-.59,1.36-.15,1.88-.18.27,0-.19-.48,0-.87-.59.16-1.4-.2-1.59,0-.59-.53,1.17-.58,1.44-.31.14-1.19-1.67-.34-1.9-1.12.51-.27.87.18,1.59.11.14-1.33-1.54-.76-1.91-1.55.47,0,.72.23,1.3.12-.08-1.21-1.32-.36-2.18-.83.45-.85.54,0,1.58-.17,0-1.15-2.17-.11-2.33-1.12.71-.09,1.48.35,1.88.11-.31-.42-1-.41-1.6-.55,0-.63.35,0,.72-.15-.16-.43-1-.17-1-.71.31-.06.39.09.59.14C79.16,46.83,78.6,46.72,78.34,46.3ZM6.72,44.07c.09.09-.07-.06,0,0Zm75.44,5.34c-.27-.21-.37-.59-.73-.71C81.46,49.07,82,49.7,82.16,49.41Zm0,.43c.1.1-.06-.05,0,0Zm.92,2.73c.18.57.16-.57,0,0Zm-75.4,12c.1.09-.06-.06,0,0Zm3.65,1.81c.1.09-.06-.06,0,0Zm1.17.7c-.59-.5-.33.47,0,0Zm63-1.07ZM14,67.65Zm60-.73Zm-57.1,1.25Zm.44.14c.09.09-.07-.06,0,0Zm.43.13Zm.61,1.44c-.63-.36-1.81-1.62-2.19-1.26C16.91,68.91,17.66,70,18.35,69.88ZM72.1,67.54c-.11,0-.28,0-.29.15C71.93,67.65,72.1,67.68,72.1,67.54ZM21.26,70.69c-1-.19-1.63-1.45-2.63-1.11C19.61,69.75,20.39,70.9,21.26,70.69ZM70,68.59ZM24.86,69.9Zm1.88.1c-.09-.08-.69-.32-.72,0C26.27,69.93,26.62,70.43,26.74,70ZM22,70.24c-.27.06-1.06-.31-.72,0C21.5,70.16,21.86,70.67,22,70.24ZM27.46,70c-.17,0-.41,0-.43.15C27.2,70.12,27.44,70.16,27.46,70Zm43.23-.54c.1.09-.06-.06,0,0Zm-.43,0c-.77-.14-.16.45,0,0Zm-42.5,1.11ZM66.94,70c.22.23.61,0,.72-.3C67.4,69.73,67.06,69.73,66.94,70Zm-38.16.74a.15.15,0,0,0-.29,0C28.65,70.68,28.72,70.9,28.78,70.69Zm.57,0c.1.09-.06-.06,0,0Zm.29,0Zm38.61-.31c.18-.39,1.07-.11,1.15-.6C69.1,70,67.86,70,68.25,70.36ZM21.41,71Zm1.59,0c-.09-.08-.69-.32-.73,0C22.63,71,22.81,71.54,23,70.94Zm7.37-.14Zm.58,0Zm.29,0Zm34.27-.23c.37.39,1.09-.08,1.29-.32-.39.12-.29-.28-.58-.27C66.12,70.56,65.44,70.05,65.51,70.56Zm4-.51Zm-36.43.7c-.17,0-.41,0-.43.15C32.85,70.88,33.1,70.92,33.12,70.75Zm34.69-.53Zm-44.66,1Zm2.45,0Zm-1,.31c.27,0,.32.16.58.14C25.28,71.13,24.62,71.07,24.6,71.49Zm7.66-.43c-.93-.15-.31.44,0,0Zm31.51-.47c-.37-.15-.68.45-.86,0,.15,0,.11-.19-.15-.14C62.73,71.06,63.76,71.25,63.77,70.59Zm-40.18.92c.09.09-.07-.06,0,0Zm11.27-.36c-.13-.12-.41.11-.43.15C34.3,71.56,35,71.25,34.86,71.15Zm1,.12c.09.1-.07-.06,0,0Zm.43,0Zm.86-.17c-.17,0-.41,0-.43.16C36.91,71.23,37.15,71.27,37.17,71.1Zm29.5-.28c.36,0,.7,0,.72-.3A.73.73,0,0,0,66.67,70.82Zm-12.57.54c.76,0,1.83.26,2.31-.34C55.52,71.42,54.59,70.81,54.1,71.36Zm7.38.14c.51-.12,1,.43,1.15-.16-.38,0-.44-.43-.87-.42C61.94,71.38,61.29,71,61.48,71.5Zm2.88-.2a1.18,1.18,0,0,0,1.16-.16c-.36,0-.45-.22-.73-.28C64.84,71.19,64.38,71,64.36,71.3Zm-37.87.59c.49.43.42-.54,0,0Zm34.26-.66Zm-35.27.82c.09.1-.06-.06,0,0Zm.87.28c0-.39-.31-.37-.59-.43C25.64,72.37,26.24,72.1,26.35,72.33Zm1-.31Zm2.74-.2c-.11,0-.29,0-.29.15C29.93,71.94,30.1,72,30.1,71.82Zm.59.57c.12-.26.17-.86-.15-.43C31,71.9,30.18,72.38,30.69,72.39Zm1.58-.47c-.41.15-1.3-.33-1,0C31.71,72.06,31.89,72.35,32.27,71.92Zm2,.4c-.07-.57-1.8-.18-1.88-.26C32.91,72.53,33.65,71.93,34.3,72.32ZM59,71.41c-.17,0-.42,0-.43.15C58.76,71.53,59,71.58,59,71.41Zm1,.27c-.28,0-.19-.4-.58-.28,0,1,1.21-.2.44.13C60,71.54,60.06,71.55,60,71.68ZM29,72.28c.1.09-.06-.06,0,0Zm28.35-.12c.35,0,.7,0,.71-.3-.33.13-.63-.49-.72-.13C57.53,71.78,57.26,71.92,57.3,72.16Zm5.48-.39c.27.26.82.06,1-.17C63.31,71.6,63,71.33,62.78,71.77Zm-35.27.68Zm8-.3c-.3.09-1-.16-1,.16C34.75,72.22,35.4,72.47,35.46,72.15Zm14.46,0a2.28,2.28,0,0,0,1.16,0c-.24.54.09.22.15.72.44-.34,1.16.51,1.74,0-.6-.18-1.26-.68-1.75-.54-.11-.39.69.09.58-.3A2.51,2.51,0,0,0,49.92,72.16ZM57,71.73c-.77-.14-.16.45,0,0Zm4.63.2a2.22,2.22,0,0,1-1-.27C60.52,72.11,61.45,72.25,61.63,71.93ZM29,72.56c-.47.18-.9-.42-1.16,0C28.07,72.61,28.77,72.94,29,72.56Zm2,.25a3.89,3.89,0,0,1-1.6-.4C29.4,73,30.65,73.06,31,72.81Zm.42-.44c-.11,0-.28,0-.28.15C31.24,72.49,31.41,72.51,31.41,72.37Zm1.31.12c.09.1-.07-.06,0,0Zm3.18-.06c.18.57.15-.57,0,0Zm3-.06c.1.09-.06-.06,0,0Zm7,0c.64,0,1.43.76,1.88.11A1.67,1.67,0,0,0,45.88,72.38Zm4.34.35c-.22-.26-.8-.15-.74-.71-.47.12-1.09,0-.86.17C49,72.37,50.38,72.94,50.22,72.73Zm4.61-.66c-.76,0-.85.16-1.44,0,.27.51,1,.53,1.6.7A.91.91,0,0,0,54.83,72.07Zm2,.39A8.18,8.18,0,0,1,55,71.92C55.13,72.43,56.9,72.71,56.87,72.46Zm-25.31.2c.5.43.43-.54,0,0Zm7.66-.15c.1.09-.06-.06,0,0Zm3.91.07c-.65-.06-1.64-.55-2.31-.1A4.51,4.51,0,0,0,43.13,72.58Zm2.61.38c-.15-.22-1.12-1-1.89-.54A14,14,0,0,1,45.74,73Zm7.07-.71Zm.29,0Zm-19.66.53c.1.09-.06-.06,0,0Zm1.45.11c-.38-.37-.54-.12-1-.27C33.79,73.06,34.72,73.2,34.89,72.88ZM58,72.44c.48,0,1.1.34,1.15-.31C58.49,72.24,58.22,72,58,72.44Zm3.9-.22Zm-23.41.59Zm21.1-.4Zm-28.47.84h.29V73h-.28Zm6.07-.12c.34-.35-.48-.37-.43-.14C36.77,73,37.27,73.07,37.21,73.13Zm10.84-.36c.1.1-.06,0,0,0Zm-15.17.44c.09.09-.07-.06,0,0Zm5.2-.1c.45.39-.4-.43,0,0Zm1.15-.17c-.11,0-.28,0-.28.15C39.06,73.06,39.23,73.09,39.23,72.94Zm.58.14c.37.55.21-.48,0,0ZM42,73c.18.56.16-.58,0,0Zm13.16-.26c.37.56.2-.48,0,0ZM33.6,73.2c-.11,0-.29,0-.29.15C33.42,73.31,33.6,73.34,33.6,73.2Zm6.94,0Zm.58-.16c-.12,0-.29,0-.29.15C40.94,73.17,41.11,73.19,41.12,73.05Zm1.3.12Zm2.9.67c-.16-1.24-1.44-.42-2.33-.82C43.27,74,44.77,73,45.32,73.84Zm7.8-.87Zm-11.85.37c.09.09-.07-.06,0,0Zm6.51.16c-.53.14-.92-.61-1.31-.12C47,73.28,47.61,74.09,47.78,73.5Zm.86-.16Zm-7.37.29Zm10,.1c-.9-.14-1.27-.72-2.32-.25C49.92,73.54,50.58,74.06,51.25,73.73Zm2-.33c0-.23-.42-.09-.14,0,.74.2,1.44.64,2.16,0A15,15,0,0,0,53.27,73.4Zm-7.37.14c-.17,0-.41,0-.43.15C45.64,73.67,45.88,73.71,45.9,73.54Zm2.17.1c.45.39-.41-.43,0,0Zm-3.33.07c-.11,0-.28,0-.28.15C44.57,73.82,44.74,73.85,44.74,73.71Zm2.48.82Zm1.44-.18c-1.39-.15-.76.46,0,0Zm3,0c-.12,0-.29,0-.29.14C51.52,74.41,51.69,74.44,51.7,74.3Zm.72.12c.1.1-.06,0,0,0Z"/><path class="cls-1" d="M62.49,48.92c.43-.4-.39.45,0,0Z"/><path class="cls-1" d="M54.49,54.28c0,.17-.67.57-.58,0C54.21,54.53,54.1,54.28,54.49,54.28Z"/><path class="cls-1" d="M49.53,74.63c.12-.14.36-.11.87-.17C50.21,74.92,49.81,74.67,49.53,74.63Z"/></g></g></svg>