<svg xmlns="http://www.w3.org/2000/svg" viewBox="0 0 85.94 69.16"><defs><style>.cls-1{fill:#321f10;fill-rule:evenodd;}</style></defs><title>Asset 2</title><g id="Layer_2" data-name="Layer 2"><g id="Layer_2-2" data-name="Layer 2"><path class="cls-1" d="M54.67,10.33c.16,0,.25,0,.28.14C54.79,10.5,54.7,10.44,54.67,10.33Z"/><path class="cls-1" d="M54.09,13.34Z"/><path class="cls-1" d="M24.39,14.92c.17-.57.17.57,0,0Z"/><path class="cls-1" d="M47.35,17.79Z"/><path class="cls-1" d="M16.93,18.08h.43v.57c-.2,0-.4,0-.43.14C16.59,18.76,16.85,18.17,16.93,18.08Z"/><path class="cls-1" d="M69.87,20.09c.48-.1.53.24.58.57C70,20.89,69.64,20.58,69.87,20.09Z"/><path class="cls-1" d="M19.37,22a15.78,15.78,0,0,1-1.15-1.29C18.77,20.21,19.85,20.93,19.37,22Z"/><path class="cls-1" d="M68.29,22.81c-.55.45-.57,1.44-1.14,1.87C66.54,24.12,67.57,23,68.29,22.81Z"/><path class="cls-1" d="M34.43,25.11c.49-.35-.34.48,0,0Z"/><path class="cls-1" d="M0,41.61c0-.14.18-.11.29-.15C.28,41.6.11,41.58,0,41.61Z"/><path class="cls-1" d="M34.87,44.62c0-.25.8-.26.57.14C35.18,44.78,35.14,44.59,34.87,44.62Z"/><path class="cls-1" d="M36.59,44.76c0-.13.17-.11.28-.14C36.87,44.76,36.7,44.73,36.59,44.76Z"/><path class="cls-1" d="M3.87,45.34c.17-.57.17.57,0,0Z"/><path class="cls-1" d="M46.63,45.91Z"/><path class="cls-1" d="M81.35,45.91c.25,0,.27.11.29.29-1.19,1.2-2.13,2.66-3.59,3.59C78.94,48.28,80.29,47.25,81.35,45.91Z"/><path class="cls-1" d="M27.26,47.78c-.53.68-2.48.64-3.16.71C24.54,47.38,25.85,48,27.26,47.78Z"/><path class="cls-1" d="M52.37,50.79Z"/><path class="cls-1" d="M29.7,51.22Z"/><path class="cls-1" d="M47.49,51.51Z"/><path class="cls-1" d="M66.57,51.65Z"/><path class="cls-1" d="M27,52.94a5.9,5.9,0,0,1-1,1.73C25.7,54.06,26.41,53.2,27,52.94Z"/><path class="cls-1" d="M61.41,56.24Z"/><path class="cls-1" d="M71.45,59Z"/><path class="cls-1" d="M68,60.26Z"/><path class="cls-1" d="M25.54,4c.18,0,.19.43,0,.43,3.27,1.12,6.83,2,9.33,3.87,1.64-.47,2.71-1.95,4-3,.61-.5,1.44-.74,2-1.29s.75-1.43,1.29-2c1-1,2.32-1,3.16-2,.88.31,1.91.47,2.44,1.15.19.58-.26.51-.43.71C49.78,3.92,52,6.2,54.52,8.18A18.47,18.47,0,0,1,63.7,5.59c.23.45.8.55,1,1,0,3.52,2.05,5.54,3.16,8.32,2-.31,8.69-.78,8.89,1.72.07.88-2,3.42-2.3,4.59a17.43,17.43,0,0,0-.57,4.17c-.19,4.9-.57,9.82-2.29,12.62,6.38-.77,7.86,4.74,14.34,4.74-1.36,5.12-6.09,8.72-11,10.61a7.74,7.74,0,0,1-4.44.58c1.18,2.59,3.48,4.07,5.88,5.45-.43,1.69-1.62,1.7-3.59,1.87s-4.07,1.35-6.17,2c-4.76,1.48-9.84,1.48-13.63-1.14a23.13,23.13,0,0,1-3.3,2.72c-1.26.86-2.84,1.55-3.73,2.3-.61.51-1.3,2.07-2.29,2s-2.93-3.3-3.59-3.88c-2.2-1.94-4.74-3.61-6.74-5.45a21.8,21.8,0,0,1-12,3.59c-3.71,0-7.66-.75-9.62-3.3,3.19-.92,4.28-3.95,5.6-6.75C11,54.8,6.57,50.77,3.73,47.06,2.89,45,.47,43.87.43,41.46A5.5,5.5,0,0,0,2,40.75c5.69,1.14,8.5-3.8,13.63-3.3.1-.88-.52-1.37-.72-2.16-.59-2.31,0-4.72-.14-7.17a26,26,0,0,0-4-11.91c1.63-3.11,7-1.89,10.33-1,.27-2.47,2.4-3.94,2-6.46-.19-1.25-1.07-2.54-1-3.87.72-1.34,2.54-.41,3.44-.58ZM43.9,3.3c-1-.28-1.36,1.06-1.72,1.87.25.08.24.43.43.57.49-.67.13-2.17,1.15-2.3-.2,1.94-1.62,3.83-.57,5,.8-1-.14-1.82.43-2.87a1.28,1.28,0,0,0,.28,1c.44-1.52.89-3,1.44-4.45A2.42,2.42,0,0,0,43.9,3.3Zm.29,5.16c.48-2,2.25-4.11,2-5.88h-.43C45.27,4.48,44.05,6.41,44.19,8.46ZM47.49,4c.21.47.36-.56,0,0Zm-.86,1c.17-.15,0-.66-.14-.86C46.57,4.41,46.31,5,46.63,5Zm-5,.15c-.11-.37.56-.67.14-.87C41.65,4.46,41.19,5,41.61,5.17Zm5.31-.58ZM48.21,5c0-.28.39-.18.29-.57C48.13,4.3,47.86,4.93,48.21,5Zm-.43,1.44c.84.07.95-1.34.86-1.72C48.27,5.23,48.31,6.12,47.78,6.46Zm-2.3.14c.58-.27,1-1.67.72-1.58C45.83,5.67,45.79,6.15,45.48,6.6ZM40,7.46c.09-.43.31.14.57,0A7.6,7.6,0,0,0,41.18,5C40.28,5.23,40.27,7.08,40,7.46Zm7.17-2c.35-.34-.47-.37-.43-.14C46.77,5.3,47.26,5.4,47.2,5.45Zm.58,0c-.35.48.48-.34,0,0Zm1.29,1.29c.51-.17,1-1.28.29-1.43C49.4,5.91,48.75,6.32,49.07,6.74Zm1.86-.86a.39.39,0,0,0-.28-.43A.39.39,0,0,0,50.93,5.88Zm-26,0c.37.08.51.19.72-.14A.46.46,0,0,0,25,5.88Zm1.15-.29c-.11,0-.28,0-.28.15C25.94,5.71,26.11,5.74,26.11,5.59ZM42,7.32a2,2,0,0,0-.15-1.58A1.21,1.21,0,0,0,42,7.32ZM28.41,6.17c-.37-.24-1.26,0-1.87-.29C26.6,6.45,28,6.42,28.41,6.17ZM24.68,7.32c-.15-.43.32-.26.57-.29-.18-.44-.66-.58-1-.86C24.2,6.75,24.25,7.22,24.68,7.32Zm3.87-1Zm2,.72a11.09,11.09,0,0,0-1.72-.72A1.54,1.54,0,0,0,30.56,7Zm9-.57ZM45.48,9a3.18,3.18,0,0,0,.72-2.73A8.33,8.33,0,0,0,45.48,9Zm4.88-1.87c0-.28.39-.18.29-.57-.21,0-.24-.24-.43-.29C50.27,6.82,50.22,7.05,50.36,7.17Zm-10.9.15c-.19-.36.42-.6,0-.72C39.37,6.69,39.12,7.28,39.46,7.32Zm6-.43c-.39.43.44-.39,0,0ZM26.4,7.46A3.17,3.17,0,0,0,27.83,7C27.59,6.92,26.53,7,26.4,7.46Zm25.68-.57c-.11,0-.28,0-.29.14C51.91,7,52.08,7,52.08,6.89ZM47.49,8.18c-.44-.36.58-.47.29-1.15C47.11,7.06,46.94,8.52,47.49,8.18ZM30.7,7.32c.17.56.17-.57,0,0Zm14.64,0c.16.56.16-.57,0,0Zm3.16,1c.07-.34.62-1,0-1.15C48.47,7.57,48.33,8,48.5,8.32Zm12.19-.86c.26-.08.6-.07.72-.29C61.14,7.16,60.36,7.35,60.69,7.46ZM54,11.05c2.66-1.62,7.12-1.56,8.75-3.88C59.53,8.65,55.71,9.28,54,11.05ZM25,7.75h.58c0-.17,0-.41-.14-.43C25.45,7.66,24.74,7.24,25,7.75ZM41,9.76c.28-.67.69-1.74.14-2.44C41,8,40.45,9,41,9.76ZM26.83,8c.44,1.08,2.08.14,3.16-.14A3.23,3.23,0,0,0,26.83,8Zm30.85.15c-.39.69-1.21.85-1.44,1-.77.52.35-.14.72-.28A25.88,25.88,0,0,0,60.4,7.46C59.25,7.53,58.54,8.22,57.68,8.18ZM24.82,7.89c-.68-.4-.35.47,0,0ZM39.89,9.18a1.3,1.3,0,0,0-.15-1.43A1.48,1.48,0,0,0,39.89,9.18Zm2.58,1.29a2.81,2.81,0,0,0-.14-2.58C41.91,8.58,42.23,9.66,42.47,10.47Zm2-.28c0-.84.84-1.55.43-2.3C44.82,8.88,43.79,9.6,44.48,10.19Zm5.16-2Zm1,.43c-.11-.32.66-.46.14-.72C50.63,8,50.25,8.46,50.65,8.61Zm-25.4-.43c-.1.44.15.52.15.86a.7.7,0,0,0,.71-.29c-.19,0-.18-.4,0-.43s.49.74.72.29c-.17,0-.16-.23-.14-.43C26.08,8.18,25.76,7.9,25.25,8.18Zm2.3,1a.65.65,0,0,1,.28.58,12.76,12.76,0,0,0,4.17-1C30.89,8,28.6,8.57,27.55,9.18Zm5.74-.72Zm13.48-.14s0,.14,0,.14C46.09,9.24,47.46,8.2,46.77,8.32Zm4.88.14Zm-8,.15Zm-19.23.72c.45.21.69-.83.14-.72C24.37,9.06,24.58,9,24.39,9.33Zm14.06.28a.71.71,0,0,0-.14-1C38.39,8.91,38.13,9.55,38.45,9.61Zm23.67-.86c0,.43-.37.49-.42.86.63-.17,1.35-.26,1.43-1C62.68,8.54,62.62,8.87,62.12,8.75ZM43.47,10.47c.07-.66.68-1.24.15-1.72C43.52,9.22,43,10.3,43.47,10.47ZM51.94,8.9ZM37.45,9c.16.57.16-.57,0,0Zm10.47.14Zm4.31,2.87c0,.44-.86.76-.58,1,2.84-1.76,7.81-1.38,9.76-4A77.11,77.11,0,0,0,52.23,12.05ZM27.4,10c-.12-.35-.12-.82-.57-.86C26.86,9.64,26.93,10,27.4,10Zm16.79,1c.41-.12.37.2.72.14.05-.57.59-1.41.14-2A3.61,3.61,0,0,1,44.19,11.05Zm1.72.43c.31-1,1-1.66.58-2.3C46.21,9.77,45.45,10.63,45.91,11.48Zm-19.8-1.15c0-.17.23-.16.43-.14.11-.44-.24-.43-.14-.86-.25.08-.84-.18-.86.14C25.8,9.69,25.65,10.31,26.11,10.33Zm2.16-.14a1.29,1.29,0,0,0,.57.86,21.22,21.22,0,0,1,4.88-1C32.62,8.57,30.08,10.18,28.27,10.19Zm-3.88-.43a.81.81,0,0,0,1,.71c-.06-.43-.09-.87-.44-1A.62.62,0,0,1,24.39,9.76Zm28-.15c.17.57.17-.57,0,0Zm-10.76,3c.68-.64.45-2.31,0-3A3.35,3.35,0,0,0,41.61,12.63Zm5.88-2.44c0-.17.26-.33,0-.43C47.47,9.92,47.24,10.08,47.49,10.19Zm13.78.14c-.22.36-.21.95-.58,1.15,1.19,0,2.69-1.12,2.3-1.72A14.44,14.44,0,0,1,61.27,10.33Zm-20.81.86c.1-.34.21-1.16-.29-1.29C40.18,10.42,40.09,11,40.46,11.19Zm22.81-.43c.38,0,.62.05.58.43-.42.3-1.29.15-1.3.86,1.38,0,2-1.22,1-2C63.5,10.32,63.25,10.4,63.27,10.76ZM43.9,10.33c.17.57.17-.57,0,0Zm-16.5.86h.72c-.09-.43-.22-.83-.72-.86C27.09,10.63,27.48,10.74,27.4,11.19Zm1.44.14c-.07.46.44.33.28.87,2,.15,4.38-1.43,5.31-.72-1.27.88-3.71.59-5,1.43.74.55,2.17.1,3.3-.14a14.35,14.35,0,0,1,3.3-.72C34.55,9.08,32.06,11.23,28.84,11.33ZM39,11.77c-.05-.58.07-1.32-.43-1.44A1.43,1.43,0,0,0,39,11.77Zm25.68-1.3Zm-38.6.15c.15.43.15,1,.86.86.17-.21,0-1-.43-1C26.52,10.64,26.32,10.63,26.11,10.62Zm16.65.57c.4.23.39-.62.14-.57C42.93,10.89,42.74,10.93,42.76,11.19Zm1-.43c.17.57.17-.57,0,0Zm3.87,0Zm2.16,0Zm-24.68.29c.31.11.18.67.57.72,0-.09,0-.18.15-.15s.17,0,.14-.14c-.3,0,0-.63-.29-.72S25.14,10.79,25.11,11.05Zm24.68,4.16a104.2,104.2,0,0,1,10.33-3.44c0-.41.26-.6.28-1C56.78,12.34,51.87,12,49.79,15.21ZM24.68,12.05c0-.11.12-.17.28-.14-.08-.35-.12-.74-.57-.72C24.39,11.57,24.31,12,24.68,12.05Zm14.92-.57Zm5.74.14Zm-17.65,0a3.11,3.11,0,0,0,.29.86h.57c.33-.33-.26-.46-.14-1C28.06,11.42,28.1,11.74,27.69,11.62ZM40,12.48c-.13-.25-.05-.71-.29-.86C39.83,11.92,39.51,12.62,40,12.48Zm1,1.29c.59-.54-.12-1.5-.29-2.15A2.34,2.34,0,0,0,41,13.77Zm7.74-1.43c.44.14.62-.71.43-.72C49.05,11.84,48.75,11.92,48.78,12.34Zm11.77.43c.63-.14,1.71-.58,1.43-1.15C61.52,12,60.35,11.71,60.55,12.77Zm3.87-1Zm-37,.86c.27-.26-.11-.37,0-.86h-.71C26.82,12.15,26.75,12.75,27.4,12.63Zm18.51-.72c.1.09-.06-.06,0,0Zm.58.43c0-.09.35-.55,0-.57C46.62,12,46.06,12.24,46.49,12.34Zm.57-.43Zm2.87,0Zm-23.53.86a.81.81,0,0,0-.43-.86A.54.54,0,0,0,26.4,12.77Zm19.37-.57c.09.09-.06-.07,0,0Zm18.08.57a5.06,5.06,0,0,0,1-.29C64.81,11.64,63.79,12.24,63.85,12.77Zm-38.31,0c-.22-.26-.19-.77-.86-.57A.52.52,0,0,0,25.54,12.77Zm21.23,1c.29,0,.29.2.43.29-.1-.83.94-1.25.58-1.86C47.59,12.87,47,13.16,46.77,13.77Zm-13.91-.71a8.49,8.49,0,0,0-3,.86c.77.82,2.18-.08,3.3-.29s2.79,0,3.59-.86C36.06,12.06,34.45,12.72,32.86,13.06ZM49.64,16.5a70.24,70.24,0,0,1,7.75-2.87c.81-.24,2-.3,2.44-1.15-3.4.94-9.14,2-11,4,.31.31.53.71.86,1a37.83,37.83,0,0,1,7.61-2.58c.71-.2,2-.4,2.15-1.29-3.18.51-7.15,2.21-9.9,3.16C49.5,16.64,49.62,16.62,49.64,16.5ZM24.39,13.06c0-.26.15-.72-.29-.58A.65.65,0,0,0,24.39,13.06Zm37.45.43c.49-.32,1.4-.23,1.43-1C62.59,12.52,61.55,13,61.84,13.49Zm-15.21-.15c-.06-.34.26-.31.14-.71-.21,0-.53-.06-.57.14C46.5,12.81,46.33,13.3,46.63,13.34Zm1.87-.43h.28v-.28H48.5Zm-20.38.15a.84.84,0,0,0,1,.43C29.19,12.85,28.43,12.52,28.12,13.06Zm-.43.71c0-.17.16-.08.29,0,.1-.43-.15-.52-.15-.86-.2.08-.74-.16-.71.15C27.43,13.17,27.3,13.73,27.69,13.77Zm-2.44-.57c.12,1,.81,1,.72,2,.27,0,.32-.16.57-.14-.4-.8-.36-1.33-1-2C25.51,13.17,25.42,13.22,25.25,13.2Zm1.72.86c0-.53-.06-1-.57-1C26.48,13.5,26.44,14.07,27,14.06Zm9.76-.86Zm23.1.86a1.75,1.75,0,0,0,1.58-1A1.44,1.44,0,0,0,59.83,14.06ZM63,14.2c.73,0,1.78-.5,1.43-1.14C63.86,13.36,63.13,13.49,63,14.2Zm-14.78-.57c.71-.19.22-.68,0,0ZM24.53,15.78c0-.17.23-.15.43-.14,0-1-.86-1.15-.71-2.3C23.2,14.42,24.14,15.07,24.53,15.78Zm.72-1.29c-.08-.54-.17-1.07-.72-1.15C24.66,13.84,24.72,14.4,25.25,14.49Zm15.35.14c0-.61-.28-.85-.43-1.29C39.92,13.7,40.29,14.39,40.6,14.63Zm3.59,1a3.34,3.34,0,0,1-.43-1.58,2.89,2.89,0,0,1-.86-.43c-1.56.88-3.23,4.13-4.88,6-2.64,3-6.75,6.54-7.89,9.9A15.87,15.87,0,0,0,31.42,42a13.79,13.79,0,0,0,2.44,1.29c-.43.35-.76.06-1.15.29.29.72,1.74.27,1.87,1.14-.25.09-.85-.17-.86.15.88.86,2.83.89,4,.72,0-.08-.69-.22-.28-.29,1.3.27,3.72-.5,4.44-1.72-1.34.29-2.6,1-3.87.57a9.8,9.8,0,0,1,2.15-.57c.35-.34-.21-.27-.14-.72a3.36,3.36,0,0,0,2.15-.72c-.46-.35-1.1.45-1.58-.14.32-.45,1.29-.24,1.58-.72-.31,0-.31-.36-.29-.72.33,0,.54,0,.58-.28A3.48,3.48,0,0,0,42,39.17a12.09,12.09,0,0,1,1-.72c0-.36-.22-.44-.28-.72,1.69-2.23.48-5.43,1.72-8.32a35.67,35.67,0,0,1-.29,9.47c.19.15.53.14.57.43s-.74.21-.57.86c.55-.06.9.06,1,.43a1.44,1.44,0,0,1-1.3.15c-.22.67.46.81.15,1.14.43.19,1.31-.07,1.29.58-.41,0-1-.12-1,.29.63.23,1.27-.15,1.58.57a6.79,6.79,0,0,1-2.44-.14c.1,1.31,1.72.22,2.3.86-.69.4-1.51,0-2.3.43,1.12.27,2.52.26,3.59.57a11.81,11.81,0,0,1-3.59.15c.49.67,2.61.27,3,.57a4.11,4.11,0,0,1-2.44.29c2.92.76,6.6,1.45,8.75-.29-1.77.21-4.65,1-5.74.14,2.26,0,6.46-.06,7-1.43a13.94,13.94,0,0,1-4.16.72c1.59-.76,4.72-.74,5.17-2.16a6.42,6.42,0,0,1-2.73.86c1-.95,3.61-1,3.73-2.29a3.18,3.18,0,0,1-2.73,1c1.24-.72,3-.93,3.59-2.29-.44,0-.7.81-1.15.28.58-.13.77-.66,1.29-.86,1.52-8.86-3-16-7.74-20.51-.57-.1-.58.38-1.15.28,0-.43.76-.19.86-.57-1.86-1.49-2.74-4-4.59-5.45,0,.68.39,1.22.14,1.86C44.16,14.67,44.72,15.57,44.19,15.64Zm20.81-2Zm-31.57.43a15.92,15.92,0,0,0-3.3.86,1.42,1.42,0,0,1,.43.86,27,27,0,0,0,6.89-1.72C36.51,13.36,34.82,13.82,33.43,14.06Zm-4.88,0c.17,0,.16.23.15.43h.71C29.71,13.75,28.68,13.51,28.55,14.06Zm19.23.57Zm13,.29c.73-.23,1.55-.37,1.72-1.15C61.62,14,61,14.26,60.83,14.92Zm-32.56-.14c.31-.3-.08-.41,0-.86h-.44A.52.52,0,0,0,28.27,14.78Zm-.72,0c-.27-.17-.1-.76-.72-.58C26.8,14.58,27.23,15.22,27.55,14.78Zm36.58.14c.35-.23,1.05-.1,1.15-.57C64.81,13.89,64.28,14.58,64.13,14.92Zm-19.94-.29c.17.57.17-.56,0,0Zm15.07.72a1.21,1.21,0,0,0,1.29-.86C59.7,14.36,59.33,14.71,59.26,15.35Zm-33.58,0c-.13-.25,0-.77-.43-.72C25.3,15,25.4,15.25,25.68,15.35Zm36.59.29c.36-.26,1.48-.53,1.15-1C63,14.85,61.8,15,62.27,15.64ZM29,15.07c.37,0,.23.53.43.71.22,0,.53.05.58-.14-.3-.19-.15-.81-.58-.86C29.41,15,29,14.86,29,15.07Zm1.87,1c-.06.35.26.31.14.72,2.19.08,4.65-.8,6.89-1.15,0-.34-.25-.42-.15-.86C35.29,15.06,33.55,16.05,30.85,16.07Zm19.22,1.58c.19,1.15,1.17.45,1.72.28a68.45,68.45,0,0,1,6.61-2.15c.06-.32.72-.79.43-1A64.21,64.21,0,0,0,50.07,17.65Zm-25,.43c-2.49-2.16-6.19-3.09-10.91-3,.06.67-.39.14-.57.71.19,2.16,1.7,3.25,2.15,5.45.74,3.61-.33,7.86-.14,10.91.34.37,1.22.21,1.29.86-.28.29-.68,0-1-.14,0,1,1.27.63,1.29,1.57-.6.21-.82-.69-1.15-.28.46,1.84,2.67,1.91,3.73,3.15-1,.28-2.09-1.3-3.16-1.29a8.19,8.19,0,0,0,1.58,2.16,1.83,1.83,0,0,1,1.44.71A15,15,0,0,1,24.1,41c1.33.81,2.61,2,4.31,2a16.5,16.5,0,0,0-4-2.72c-1.44-.77-3.29-1.17-4.16-2.59,2,1,4.61,2.67,6.74,3.45-1.12-1.52-4.21-1.81-4.59-3.59A17.79,17.79,0,0,0,26,39.74c-.14-1.62-2.75-1.55-2.73-2.87.88.23,1.23,1,2.16,1.15C23.31,34,23.45,27.76,21,24c3.32,2.7,2.73,9.32,4.88,13.2,1.1.05,1.51.78,2.44,1,0-.47-.26-.61-.15-1.15-.91.39-2.5-.31-2.29-1,.63,0,1.47.83,2.29.72,0-.34-.28-.59,0-.86-.75.16-1.82,0-1.86-1,.6-.07,1,.82,1.57.29-.35.1-.6-.61-.28-.72.49-.1.23.53.57.58a21.78,21.78,0,0,1,1.72-6.6c.7-1.54,1.84-2.9,2.16-4.59C29.89,21.71,28.77,18.63,25.11,18.08ZM29,15.93c0-.57-.17-1-.86-.86C28.29,15.47,28.35,16,29,15.93Zm-.86.14c-.21-.37-.14-1-.86-.86C27.47,15.58,27.41,16.21,28.12,16.07Zm32,.14c.71-.14,1.36-.36,1.58-1C61,15.39,60.16,15.4,60.12,16.21Zm4.59-.28c.37,0,1-.41.57-.72C65.19,15.54,64.8,15.59,64.71,15.93Zm-39-.15c.48-.1.53.24.58.58.33,0,.42-.25.86-.15,0-.42-.33-.44-.29-.86A2.29,2.29,0,0,0,25.68,15.78ZM63.13,36.73c1,1.36,1.78,3,3.16,4,.58-1-2-1.87-1.44-3.3.7.88,1.15,2,2.15,2.58,1.2-1-1.93-2-.86-3.3.55.85,1.07,2.74,2.15,2.15-.44-1.64-1.41-1.78-1.57-3.3.9.63,1.08,2,2,2.59a2.34,2.34,0,0,1,.44-.58c-.37-.73-1.37-1.6-1.15-2.44.61.46.78,2.06,1.72,1.72.23-.69-1.1-1.74-.86-2.44.54.47.7,1.31,1.29,1.73,1-1.11-.6-1.93-.29-3,.33.45.53,1,.86,1.44,1.53-4.41,1.65-9.75,2.44-14.35.29-1.64,1.23-2.74,1.72-4.16-8.14-2.19-16.4,2.15-18.93,8,3.44,3.48,2.59,9.45,6,12.34,1.43-3.16,2-8,3.88-10.18C64.93,28.84,64,33.19,63.13,36.73Zm.29-20.52v-.28c.37.35.69-.16.86-.43C63.88,15.54,63,15.84,63.42,16.21Zm-38.89-.14a.39.39,0,0,1,.29.43h.86C25.6,16,24.9,15.47,24.53,16.07Zm34.15.57a1.13,1.13,0,0,0,1.15-.86C59.25,15.88,58.73,16,58.68,16.64Zm2.73,0c.29-.38,1.2-.13,1.29-.71C62.3,16.1,61.17,16.31,61.41,16.64Zm-23.25-.57a60.31,60.31,0,0,1-6.74,1.15c-.09.52.31.55.29,1a55.92,55.92,0,0,0,6.6-1.72C38.14,16.47,38.15,16.27,38.16,16.07Zm-8.6,1.29c-.09-.54-.18-1.07-.72-1.15C28.66,16.53,29.17,17.15,29.56,17.36Zm.57-.14c0-.17.23-.16.43-.15,0-.42-.37-.48-.43-.86-.21,0-.53-.05-.57.15C29.88,16.51,29.81,17.06,30.13,17.22Zm20.8,1.29c.15.66.84.79,1.15,1.29,1.78-.91,4.55-.81,5.6-2.44-2.11.25-4.64,1.56-6.17,1.43,1-.25,2.15-.76,3.44-1.14s2.83-.31,3.3-1.44C55.68,16.84,53.47,17.84,50.93,18.51ZM64,16.36Zm-37.73.43a15.75,15.75,0,0,0,1.57.86,2.24,2.24,0,0,0-.71-1.29C27,16.71,26.19,16.29,26.26,16.79Zm2.44.71c.31-.35-.25-.7-.29-1.14h-.58C28.21,16.84,27.77,17.44,28.7,17.5Zm34.43-1Zm-37.45.43H26v-.29h-.29Zm33.72.43c.28-.2,1.37-.34,1-.72C60.1,16.76,59.51,16.71,59.4,17.36Zm3.15-.57c.1.09,0-.06,0,0Zm-4.44,1c.49,0,1.19-.52.86-.86C58.6,17.14,58.21,17.32,58.11,17.79Zm0,1c0-.28.39-.18.29-.57-.72,0-1.1,1.1-1,1.44a24.58,24.58,0,0,1,2.87-1.87c.48-.24,1.47-.26,1.44-.86C60.36,17.67,59.19,17.75,58.11,18.79ZM34,18.08c-.55.13-1.69.28-1.86,1,1.41-.16,3.09-1.28,4.3-.72-1,.71-3.66.44-3.73,1.58.26.28,1.54-.79,1.72-.14-.06.51-1.59.32-1.14.86,2.16-.13,3.53-2.17,4.44-3.44A20.93,20.93,0,0,1,34,18.08Zm-2.87.28a2,2,0,0,0-.43-1h-.43C30.15,17.62,30.36,18.55,31.13,18.36Zm-.86,0c-.38-.14-.17-.87-.71-.86C29.55,18,30,18.71,30.27,18.36Zm-1.72-.43c.09.09.68.34.72,0-.11,0-.17-.12-.15-.28A.64.64,0,0,0,28.55,17.93ZM53.09,19.8c-.27,0-.32.16-.58.14.11.52.33.92.86,1,1.07-.75,3.45-1,3.45-2.3-1,.6-3.62.7-3.45,1.58C52.84,20,52.78,20.67,53.09,19.8Zm-21.52-.43c.09-.94-1.18-.5-1.44-.43C30.82,19.1,30.67,19.32,31.57,19.37Zm5.59-.43Zm-5,1.43c.31-.17-.29-1-.57-.57C31.79,20,31.92,20.21,32.14,20.37Zm21.52,1a1.37,1.37,0,0,0,.57.72c.67-.58,1.55-1,1.87-1.87C55.22,20.54,54.54,21.06,53.66,21.38Zm-20.09-.15c.18,0,.34.05.29.29.41,0,.86-.76.72-.86C34.34,21,33.63,20.77,33.57,21.23Zm1,0Zm-.29,1.15c.09.1-.06-.06,0,0Zm-19.8.43Zm58.68,4c.17.57.17-.57,0,0ZM61.41,37.73c.58-1.36-.94-2.55-1.72-3.44C59.7,36,60.65,36.77,61.41,37.73Zm-.86,1.15c.46.13.3-.37.57-.43a4.77,4.77,0,0,0-1.43-2C59.5,37.73,60.45,37.88,60.55,38.88Zm5,2.44c.27-1.24-1.88-2.38-2.3-3.87-.18,0-.2-.19-.43-.15C63.06,38.82,64.56,40.14,65.57,41.32ZM28.7,39.74C28.6,38.21,27,38.21,26,37.59,26.19,39,27.56,39.25,28.7,39.74ZM60,40.17c.17-.36.57-.48.58-1-.58-.29-.46-1.26-1.15-1.44.1.63-.24.81-.14,1.44A1.87,1.87,0,0,1,60,40.17Zm-44-1.86Zm10.9,5a46.67,46.67,0,0,0-8.9-4.88c2.12,1.82,4.43,2.72,6.89,4.31,0,.16-.25.32,0,.43C25.33,42.51,26,43,26.83,43.33Zm35.44-4.59a8,8,0,0,0,2.58,3.15c.37-1.25-1.65-2.4-2.3-3.58A.38.38,0,0,1,62.27,38.74Zm-49.07.14Zm-.14,0c-.11,0-.29,0-.29.14C12.88,39,13.05,39,13.06,38.88ZM43.47,39c.17.57.17-.56,0,0Zm27.41.15Zm3.44.29c.25-.14.77,0,.72-.44A.62.62,0,0,0,74.32,39.46Zm-61.7,0c.35-.09,1.05.18,1.15-.15C13.51,39.06,12.75,39.13,12.62,39.46Zm2.16-.15c1.12.45-.34-.13,0,0ZM72,39.46a1.09,1.09,0,0,0,.43-.29C72.26,39.15,71.66,39.39,72,39.46Zm3.3.71c0-.38.6-.25.71-.57-.2,0-.24-.24-.43-.29C75.55,39.55,74.94,40,75.33,40.17ZM11.76,39.6c.1.09,0-.06,0,0ZM29,41.32c-.1.46-.65.1-.71.29.41.1.27.77.85.72.52-.64-.2-1.18-.28-2-.91.09-1.41-1-2-.72C27.11,40.61,28.06,41,29,41.32Zm30.42-.43c.53-.4,0-1.17-.43-1.43C58.9,40.14,59.28,40.39,59.4,40.89Zm2.3-.57a20.76,20.76,0,0,0,2,2.29c0-.37.56-.2.58-.57-.91-.72-1.38-1.88-2.3-2.58C61.9,39.76,61.63,39.87,61.7,40.32Zm9.61-.58a1.07,1.07,0,0,0,.43-.28C71.55,39.43,71,39.68,71.31,39.74Zm1,.72c.34-.24,1.39-.52,1-1C73,39.67,72.12,40.16,72.31,40.46Zm-60.83-.72Zm18.08.15Zm13.77-.15c-.44.49.53.44,0,0ZM10.76,40c.1.09-.06-.06,0,0Zm.86.57c1,.11,1.34.1,1.58-.71C12.6,40,11.88,39.84,11.62,40.6Zm2.15-.14c.59.06,1-.05,1-.57C14.15,39.79,14,40.14,13.77,40.46Zm9.33,2c-1.41-.67-3.2-2.34-3.87-2.44C20.16,41.07,21.83,42.7,23.1,42.47Zm-7.75-2.15c.76-.18,1.56.53,1.72-.29C16.5,40.13,15.48,39.78,15.35,40.32Zm14.21-.15Zm46.91.43a1.39,1.39,0,0,0,.86-.43C76.89,40,76.62,40.17,76.47,40.6Zm-66.71.15c.17-.31,1.75,0,1.14-.58C10.7,40.23,9.49,40.34,9.76,40.75ZM69.3,40.6c.45.07.59-.18.72-.43C69.68,40.22,69.4,40.32,69.3,40.6Zm4,.29c.35-.22.89-.26,1-.72C73.91,40.25,73.06,40.62,73.32,40.89ZM29.7,40.46ZM70,41.32c.58-.23,1.18-.44,1.43-1C70.89,40.47,69.86,40.92,70,41.32Zm4.16.29c.49-.42,1.48-.33,1.58-1.15C75.17,40.69,74,41.07,74.18,41.61Zm-44.34-.86c.1.09-.06-.06,0,0ZM61,41.32c.59.56,1,1.3,1.57,1.87a2.43,2.43,0,0,1,.58-.43,10.72,10.72,0,0,0-1.86-2.16C61.2,40.88,61,41,61,41.32Zm16.35.29c.25-.38,1.1-.15,1.29-.58-.25-.12-.41-.34-.71-.43C77.84,41,77,41.31,77.33,41.61Zm-66.86.14c1-.08,1.6.2,1.73-.86A1.73,1.73,0,0,0,10.47,41.75Zm2.15-.29c.48,0,.89,0,1,.29,0-.43.37-.49.43-.86C13.32,40.82,12.83,41,12.62,41.46Zm1.87-.14h1.44C16,40.59,14.47,40.81,14.49,41.32ZM8.32,42c1,0,1.82-.28,2.15-1C9.54,41.06,8.59,41,8.32,42Zm8.61-.72h.29c.22-.35-.49-.42-.43-.14C16.87,41.19,17,41.2,16.93,41.32Zm43.19-.14c-.4.43.43-.39,0,0Zm10.9.43a1.38,1.38,0,0,0,1-.43C71.6,41.23,71.15,41.26,71,41.61Zm4,.86a3.82,3.82,0,0,0,1.72-1.29C75.89,41.22,75,42,75,42.47Zm-6.89-.58c.35-.08.74-.12.72-.57C68.41,41.59,68.37,41.39,68.15,41.89Zm9.18.87c1-.24,2-.39,2.44-1.15C78.93,41.08,77.89,42.12,77.33,42.76Zm-17.5-1.15Zm11.91.86c.46-.4,1.42-.3,1.58-1C72.5,41.41,71.66,42.1,71.74,42.47ZM5.17,42.33c-1.09.2,1.23.13,1.72.14.12-.32,1.18-.43.71-.86A24.62,24.62,0,0,1,5.17,42.33ZM60.4,42a3.71,3.71,0,0,0,1.15,1.58c.18,0,.2-.19.43-.15-.17-.88-.88-1.22-1.29-1.86A1,1,0,0,1,60.4,42Zm-42.61.43c.06-.32.76-.11.86,0,0-.37-.26-.5-.43-.72C18.22,42.05,17.44,42.29,17.79,42.47Zm51.08.14A2.14,2.14,0,0,0,70,41.75C69.46,41.78,68.64,42.28,68.87,42.61Zm-57-.14c.59,0,1.43.19,1.43-.43C12.7,42,12.12,41.81,11.91,42.47Zm1.86,0c.45.18.59-.14.86.29.11-.38.52-.44.58-.87H14.06C14,42.11,13.85,42.26,13.77,42.47Zm1.87,0c.65,0,1.48.14,1.58-.43C16.63,41.75,15.78,41.89,15.64,42.47Zm-5.6,0c.74.14,1.19.19,1.44-.43C11.14,42.32,10.15,42,10,42.47Zm61.84,1c.45.28,2.09-.66,2.44-1.43C73.12,42.13,72.74,43,71.88,43.47ZM9.33,42.33c-.69-.4-.35.47,0,0Zm60,1c.51-.25,1.75-.54,1.43-1.15C70.22,42.53,69.57,42.74,69.3,43.33Zm6.17,0c1,.08,1.08-.73,1.58-1.15A3,3,0,0,0,75.47,43.33Zm3.3.29c.65-.55,1.87-.53,2.44-1.15C80.36,41.89,78.69,42.88,78.77,43.62Zm-72.6.14c-1.35-.44-1.4,1.18-2,1C4.42,44,5,43.59,5.31,42.9c-.7-.12-1.74.17-2,0,0-.45,1.37-.14,1-.43a21.14,21.14,0,0,1-2.58-.14c1.88,2.9,3.19,6.38,6.89,7.46,1.23-1.64,2.51-3.23,3.87-4.74-2.55.22-2.79,3.23-5,4.16,1-1.35,2.21-2.48,3.16-3.87A5.57,5.57,0,0,1,9,45.48a6.7,6.7,0,0,1-2.15,2.58c.5-1,1.77-1.93,1.86-2.86-.54.1-.68-.18-1.15-.15-.24.33-.69,1.22-1,1,.07-.56.73-.52.72-1.15a4.14,4.14,0,0,0-1.15-.58c-.51.45-.63,1.29-1.29,1.58C5.12,45,5.8,44.54,6.17,43.76Zm2.58-1.43c-.25.08-.84-.18-.86.14C8.14,42.39,8.73,42.64,8.75,42.33Zm58,1.14c.43-.19,1.37-.62,1.15-1C67.39,42.62,66.54,43.14,66.72,43.47Zm-6,.43c.35-.53-.35-1-.72-1.29C59.43,43,60,43.92,60.69,43.9Zm-17.93-.57c.41-.83-.36-.38,0,0Zm27.54.14c.89.21,1.77-.33,1.58-.71C71.51,43.15,70.54,42.94,70.3,43.47Zm-65,.15c.61-.14,1.25.08,1.43-.72C5.86,42.73,5.66,43.25,5.31,43.62ZM7,43.47c.49,0,1.16-.11,1.43.15.13-.26.35-.42.44-.72C8.07,42.88,7.13,42.76,7,43.47Zm2.15,0c.8.08,1.41,0,1.58-.57C10.26,43,9.37,42.74,9.18,43.47Zm1.87,0h1.29c0-.19.48-.53.14-.57C12.05,43.2,11.14,42.61,11.05,43.47Zm2,0c.8.06,1,.17,1.29-.43C13.82,42.91,13.14,42.75,13.06,43.47Zm1.86-.14c.5-.08,1.36.21,1.44-.29C15.87,43,15.21,42.86,14.92,43.33Zm62.41,1.58c.12-.33.89-.14.72.29-2.84.22-3.7,3.14-5.45,4.87.51,0,.64.41,1.15.43,1.6-1.46,2.7-3.42,4.45-4.73-1,2-2.84,3.19-4,5,.37,0,.61.05.57.43-.35-.32-1.15-.44-1.15.29a2.33,2.33,0,0,0,1.44.14,40.76,40.76,0,0,1,4.88-5.74,32.39,32.39,0,0,1-4.16,5.31c3.48-1.49,7-3.67,7.46-7.75a13.49,13.49,0,0,1-4.88,1.44c1.28-.77,3.3-.81,4.3-1.87A7.08,7.08,0,0,0,77.33,44.91ZM17.22,43.19Zm51.22.43c-.11-.4.28-.29.28-.58C68.31,43,67.93,43.53,68.44,43.62Zm4.59.43c1.06.36,1.4-.4,1.86-1A2.41,2.41,0,0,0,73,44.05Zm2.58.71c1.35.53,2.25-1.25,2.59-1.72A3.72,3.72,0,0,0,75.61,44.76ZM41.18,43.19c-.11,0-.29,0-.29.14C41,43.3,41.17,43.33,41.18,43.19Zm24.25.14Zm17.36,0Zm-42.33.14c.09.1-.06-.06,0,0Zm25.25,0Zm16.65,4c.63-1.36,2.32-2.57,1.86-4.16C84,45,82.7,46.4,82.36,47.49ZM59.69,44.05a.7.7,0,0,0-.58-.58C59,43.92,59.47,43.88,59.69,44.05Zm5.16.14c.26-.09,1-.47.58-.72C65.33,43.81,65,43.86,64.85,44.19Zm2.44-.57Zm5.45,0c-.74.63.46-.26,0,0Zm-5.59,0c-.11,0-.29,0-.29.14C67,43.73,67.14,43.76,67.15,43.62Zm-59.26.86c-.11-.44.4-.28.29-.72a5.54,5.54,0,0,1-1.58,0C6.64,44.39,7.45,44.25,7.89,44.48Zm2.44-.58c-.15.19-.14.53-.29.72.91.14,1.93-.36,1.72-.86C11.38,44.2,11.06,43.81,10.33,43.9Zm-2,.72c.88.11,1.47-.07,1.58-.72C9.1,43.87,8.26,43.8,8.32,44.62Zm4.59-.72c-.12-.12-.41.11-.43.15C12.35,44.3,13,44,12.91,43.9Zm61.55.58c.28.06.37.31.72.28,0-.42.33-.44.29-.86C75,43.92,74.56,44.05,74.46,44.48Zm-16.06,0a.65.65,0,0,0,.57-.29C58.76,44,58.33,44,58.4,44.48Zm10.47.14a1,1,0,0,1,1,.43c-.1-.44.4-.27.29-.72C69.43,44.43,69.06,44,68.87,44.62Zm-60,5.31c.36.21,1,.14,1.29.43,1.68-2,3.48-3.79,5-5.88C11.78,45,10.89,48,8.9,49.93Zm6.88-5.31c-1.59,2.14-3.55,3.91-5.31,5.88a14.66,14.66,0,0,1,1.44.29c1.63-2.25,3.62-4.13,5.31-6.31C16.73,44.52,16.05,44.37,15.78,44.62Zm2,0c-1.65,2.32-3.86,4.08-5.59,6.31a10.32,10.32,0,0,1,1.57.15C15.41,49,17.12,47,18.65,44.76,18.31,44.77,18.23,44.52,17.79,44.62Zm49.36.72c.61.08.66-.39.86-.72A.77.77,0,0,0,67.15,45.34Zm1.72,1.72.86.43c.68-1,1.69-1.66,2.3-2.73C70,44.09,70,46.34,68.87,47.06Zm-31-.86c1.11.65,2.71-.23,3.87-.43-.08-.3.18-.94-.14-1C40.48,45.67,38.81,45.27,37.88,46.2Zm-12.2-.72c0-.17,0-.41-.14-.43-1.11.67-2.41.27-3.16,1.29,2.43-.72,4.52-.09,6.89-.57V45.2a9,9,0,0,1-1.87.14c0-.4.4.34.29-.29-.25.06-.37-.21-.43,0C27.55,45.44,26.13,45.35,25.68,45.48ZM68,45.77c.51-.09.69.17,1,.29.16-.38.52-.54.58-1C68.71,44.79,68.18,45,68,45.77ZM42.47,45.2c.09.09-.06-.07,0,0Zm30.13-.15a14.79,14.79,0,0,0-2.3,2.73c.09.2.56,0,.58.28-.58,0-1.23-.19-1.44.72.41.12.59.47,1.15.43,1.29-1.1,2.15-2.63,3.44-3.73-.49,1.85-2,2.64-2.87,4.16.46-.07.57.21.87.29,1.15-1.52,2.54-2.81,3.58-4.45A25,25,0,0,1,72.6,45.05Zm-58.11,6c2-.93,3.41-3.56,4.74-5.6,0-.16-.16-.22-.29-.28C17.7,47.31,15.59,49.3,14.49,51.08Zm51.08-5.45a.63.63,0,0,1,.43.14c0-.21.24-.24.29-.43C66.07,45.11,65.68,45.34,65.57,45.63Zm-35.3,2.72c-.57,1.47-2.45,3.26-3,4.74a.73.73,0,0,1-.43-.43c.45-.76,1.39-1.77,1.44-2.44-2,2.5-3.31,6.54-7,6.88,2.23-1.22,3.41-2.8,4.87-4.88s3.1-4.16,3.88-6.88c-1,.46-.59,2.31-1.87,3.3-.21-.68.56-1.52.72-2.3a44.46,44.46,0,0,0-7.46.72c-3.12,3.48-2.88,10.32-6.46,13.34a7.78,7.78,0,0,0,5.74,1.44c.33-.27.51-1.22,1-.86.1.34-.6.91,0,.86.71-.4,1-2,1.87-1.72-.14.66-1.22,1-.86,1.72,1.88-1.48,2.88-3.75,4.16-5.74s2.93-3.85,3.73-6.17c.61-.45.75-1.35,1.29-1.87-2.47,2.12-3.89,6.06-6,8C27.11,53.41,29.37,50.94,30.27,48.35Zm12.2-2.87Zm24,.58c.25.36.86-.36.29-.43C66.68,45.83,66.48,45.87,66.43,46.06ZM36,46.06c-.25,0-.83-.39-1,0C35.13,46.19,35.92,46.36,36,46.06Zm.72,0c-.19-.05-.27-.21-.57-.15C35.93,46.31,36.78,46.31,36.73,46.06Zm28.7.43c0-.21.23-.25.28-.43a.72.72,0,0,1-.43-.15C65.26,46.27,65,46.36,65.43,46.49Zm-28.27-.43c-.11,0-.28,0-.29.14C37,46.17,37.16,46.2,37.16,46.06Zm.43,0c-.11,0-.28,0-.29.14C37.42,46.17,37.59,46.2,37.59,46.06Zm6.31,0c-.17,0-.4,0-.43.14C43.64,46.18,43.88,46.22,43.9,46.06Zm23.39.43c.54-.16.41.35.86.28a.75.75,0,0,0,.57-.57C68,46.25,67.5,45.8,67.29,46.49Zm-27.83.43c.19.17,2.25,0,2.15-.58A9.46,9.46,0,0,1,39.46,46.92Zm26.4,0c.41,0,.79-.49.28-.58C66.14,46.63,65.75,46.53,65.86,46.92Zm-23.25-.29c.1.09-.06-.06,0,0ZM16.07,50.79a12.44,12.44,0,0,0,3.16-4.16C18.26,48.11,17.06,49.35,16.07,50.79Zm44.19-4c.17.57.17-.56,0,0Zm1.44,0c-.27,0-1-.37-1.15,0C60.82,46.8,61.5,47.14,61.7,46.77Zm3,.29H65c.16-.21.15-.35-.15-.43C64.84,46.81,64.67,46.83,64.71,47.06Zm-21.24,0a6.55,6.55,0,0,0,2.73.14C45.48,47,44.23,46.54,43.47,47.06Zm23.1.29c.72.19,1,.69,1.3-.29C67.44,46.79,66.64,46.61,66.57,47.35Zm-26.11.28c.64.11,1.62-.19,1.29-.57C41.54,47.47,40.78,47.33,40.46,47.63Zm16.36-.43Zm-9.47,0c-.14-.06-1.21.08-.58.15C46.37,47.31,47.7,47.37,47.35,47.2Zm1.15,0c-1.49-.11-.44.59,0,0Zm16.78.58c.41,0,.36-.41.58-.58C65.37,47.11,65.33,47.44,65.28,47.78Zm-8.75-.29Zm2.87-.14c-.85,0-2.19.2-2.44,1,1.8-.12,5,.11,7.32,0A7.7,7.7,0,0,0,59.4,47.35Zm8.47.71c.44,0,.64.32,1,.43.09-.38.6-.35.57-.86A1,1,0,0,0,67.87,48.06ZM56,48.78c-.05-.43.54-1,.28-1.15C55.93,48.08,55.36,48.46,56,48.78Zm10.9-.14c.06-.27.31-.36.29-.72-.53.1-.55-.31-1-.29C66,48.39,66.7,48.23,66.86,48.64Zm14.78-.43c0-.25.67-.45.29-.58C82,47.92,81.13,48,81.64,48.21Zm-38.17,6.6c-.21,1.18.81,3.36-.43,4.59a24.83,24.83,0,0,0-.86-8.61c-1.53-.56-2.42-1.91-3.73-2.3a4.67,4.67,0,0,0-3,.58c-.43.16-1,.14-1.29.29a6.13,6.13,0,0,0-2.44,7.31c0,.09.4.09.43.15s-.27.25-.14.43.56.26.71.43c.31.33.45,1,.72,1.29a42.42,42.42,0,0,0,3.87,3.16c2.28,1.86,4.42,3.29,5.89,5.45,3.52-2.78,9.05-4.92,11.19-9.33,1.75-3.6.09-7.28-2.15-9.9-3.47-.49-4.36,2.35-5.89,3.3.41-.79,1.55-1.6,1.58-2.29C46.54,50.17,43.78,53.13,43.47,54.81Zm-4-6.32c.09.1-.06-.05,0,0Zm27.83.44c.47,0,.55.4,1.15.28a.71.71,0,0,1,.14-.43C68.15,48.53,67.37,48,67.29,48.93Zm13.77-.15c0-.2.24-.24.29-.43C81.06,48.23,80.71,48.72,81.06,48.78ZM66,48.78h.29v-.29H66Zm-24.54.58c.08-.7-1-.26-1.14-.72C40.34,49.24,41.13,49.07,41.46,49.36ZM74.89,59.54c-2.62-1.29-4-3.8-6-5.74-.63-1.61-2.05-2.45-2.87-3.87a24.93,24.93,0,0,1-4.16-.29c1.21-.74,2.66.12,3.59-.28-2.31-1-6.92-.76-8.61-.43,3.7,2.28,6.14,9.63,11.9,9.18-.27.85-2.06.68-2.58.57-2.23-.47-4.53-3.63-6-4.88-1.4,2.05-4.56,3.54-4.74,5.89a32.34,32.34,0,0,1,5.17-4.59c-1.28,2.22-3.47,3-5.17,5,.61.18-.13.46,0,1,2.21-1.47,3.74-3.63,5.89-5.16C60,58.26,57.54,59.4,56,61.41c1.72-.12,2.62-2.24,4.3-2.87-.65,1.46-2.17,2-3.16,3.15A10.07,10.07,0,0,0,59,60.26c.24,1.13-1.7,1.52-1.15,2,1.09-.06,1.42-1.64,2.44-1.29-.38.63-1.15.86-1.43,1.58,1.11.41,1.29-.51,2.15-.72.16.46-1,.75-.29.86C66,62.61,70.24,60.19,74.89,59.54ZM17.5,50.36c.71-.07,1.11-1.19,1-1.58C18.29,49.42,17.69,49.69,17.5,50.36Zm14.21-1.43Zm34.72,0Zm14.2.14c.1.09-.06-.06,0,0Zm-11.91.57c.81.09,1.23.75,1.58-.14-.68.06-.75-.49-1.43-.43A.76.76,0,0,1,68.72,49.64Zm-15.06-.28Zm13.63.14Zm.58.14c.43.39-.4-.43,0,0Zm.42.29c.36.56.21-.48,0,0Zm2,.29c.41.12.59.46,1.15.43,0-.27.16-.32.15-.58C70.9,50,70.71,49.65,70.3,50.22Zm-38.59,0Zm12.62,2.44c.35-1.09,1.25-1.63,1.73-2.59A3.57,3.57,0,0,0,44.33,52.66ZM56.1,51.22c.12-.4,1.23-.85.57-1.15C56.46,50.3,55.76,51.37,56.1,51.22Zm14.63.43c-.53-.85-1.94-.83-2.72-1.43A3.6,3.6,0,0,0,70.73,51.65Zm-1.57-1.29Zm-51.94.14Zm27.4,0c-.34.49.48-.34,0,0Zm27.26.43c.63,0,.74.41,1.29.43.06-.27.41-.26.29-.71C72.79,50.64,72,50,71.88,50.93ZM8.32,50.65Zm.58.14c1.11.41-.78-.42,0,0Zm61.55-.14c-.11,0-.29,0-.29.14C70.27,50.76,70.44,50.79,70.45,50.65ZM56,52.66c.48-.64,1.78-1.16,1.72-1.87A3.27,3.27,0,0,0,56,52.66Zm14.92-1.73c.54.28-.76-.37,0,0Zm-60.69.15c-.17,0-.41,0-.43.14C9.92,51.2,10.16,51.25,10.19,51.08ZM72,51.22c-.33.2-.54-.37-.58,0C71.54,51.26,72,51.58,72,51.22Zm.28.29ZM56.24,54c.66-.92,1.8-1.36,2.3-2.44C57.52,52,56.06,52.76,56.24,54Zm14.64-2c.46.19,1.08.42,1.43,0A8.13,8.13,0,0,1,71,51.51.69.69,0,0,1,70.88,51.94Zm-15.35-.15c.09.1-.07-.06,0,0Zm18.07,0c-.16,0-.4,0-.43.15C73.34,51.92,73.58,52,73.6,51.79Zm-14.92.43c-.57,1.25-2.21,1.43-2.44,3a15.43,15.43,0,0,0,3.16-2.87C59.05,52.43,59.09,52.11,58.68,52.22ZM23.82,61.55c1,.28,1.32-.83,1.72-1.43,1.42-2.15,3.12-4.33,4-6.75.46.26.42-.87.43-1C27.64,55.46,25.93,58.34,23.82,61.55Zm19.94-8.32c.17.57.17-.57,0,0Zm12.77,3.44c1-1.1,2.71-2.35,3.3-3.44C58.88,53.86,56.61,55.17,56.53,56.67ZM73,53.23Zm-47.49,8c1.42.24,1.71-1.29,2.29-2.44.72-1.43,2.45-3.32,1.87-4.74C29.22,56.82,26.88,59.42,25.54,61.27ZM31,57.53Zm-3.59.58c.1.09-.06-.06,0,0Zm1.3.86c.09.09-.07-.06,0,0Zm-1.3,1.86c.43-.39,1.68-1,1-1.57C28.35,60,27.23,60.37,27.4,60.83Zm2.16-1.43c-.4.44.43-.39,0,0Zm-3.16.14Zm-13.34,1Zm6.17,2Zm.71,0Z"/><path class="cls-1" d="M65.71,9.9c.44-.39-.39.44,0,0Z"/><path class="cls-1" d="M31.13,24.1c.44-.39-.39.44,0,0Z"/></g></g></svg>