<svg xmlns="http://www.w3.org/2000/svg" viewBox="0 0 83.77 85"><defs><style>.cls-1{fill:#321f10;fill-rule:evenodd;}</style></defs><title>Asset 5</title><g id="Layer_2" data-name="Layer 2"><g id="Layer_2-2" data-name="Layer 2"><path class="cls-1" d="M47.25,5.48A5.36,5.36,0,0,1,45,4.8c-6.29.07-11.09-1.16-17.58-.22,4.07-1.51,9.26-.42,14.11-.28,1,0,2.5.08,3.62.19C45.9,4.57,47.3,4.54,47.25,5.48Z"/><path class="cls-1" d="M26.93,4.29Z"/><path class="cls-1" d="M26.78,4.3c-.3.87-1.33.16-2.25.37C25.18,3.83,26.12,4.86,26.78,4.3Z"/><path class="cls-1" d="M20.48,4.94c0-.15.18-.12.3-.16C20.78,4.93,20.6,4.9,20.48,4.94Z"/><path class="cls-1" d="M18.25,5.46c-.16.47-.65,0-1.2.34C17.12,5.24,17.85,5.32,18.25,5.46Z"/><path class="cls-1" d="M18.4,5.46c.15-.6.19.58,0,0Z"/><path class="cls-1" d="M39.88,5.25a27.43,27.43,0,0,1-6.31,0A19.12,19.12,0,0,1,39.88,5.25Z"/><path class="cls-1" d="M40.17,5.09A65.08,65.08,0,0,0,48,5.76a1.21,1.21,0,0,1,0,1C45.45,5.31,42.36,6.33,40.17,5.09Z"/><path class="cls-1" d="M48.9,10.24Z"/><path class="cls-1" d="M48.16,10.56a.81.81,0,0,1,0-.15C48.87,10.26,47.47,11.4,48.16,10.56Z"/><path class="cls-1" d="M47.72,11Z"/><path class="cls-1" d="M49.7,11.87Z"/><path class="cls-1" d="M45.14,15.31Z"/><path class="cls-1" d="M45.11,19.07Z"/><path class="cls-1" d="M41.45,22.34c.3.25.77.31,1.07.56-.11.62-.73.77-1.17,1.09C41.38,23.44,41.18,22.67,41.45,22.34Z"/><path class="cls-1" d="M36.72,24.73c.35-.59.23.5,0,0Z"/><path class="cls-1" d="M34.52,31.56c-.07-.06.1.1,0,0Z"/><path class="cls-1" d="M26.73,32.25a2.36,2.36,0,0,1,1.21.27c3,0,5.89-.46,8.85-.42,1,0,2.3-.09,2.87.51-2.29,1.23-5,1.09-7.32,1.43.72.6,1.54.26,2.42.52-.38,1-2.54.8-3.89.72-.12-.65.69-.42,1.19-.48,0-.58-1-.21-.93-.88,2-.8,4.91-.35,6.43-1.1-4.18-.63-7.27.64-10.82,0C26.74,32.65,26.73,32.45,26.73,32.25Z"/><path class="cls-1" d="M72.55,41.68c.25,1.55-1,3-1.53,4.25C70.81,45,72.24,43.1,72.55,41.68Z"/><path class="cls-1" d="M43.31,43.92Z"/><path class="cls-1" d="M50.17,47c.15-.6.19.59,0,0Z"/><path class="cls-1" d="M30.58,55.28c0-.15.18-.12.3-.16C30.88,55.26,30.7,55.24,30.58,55.28Z"/><path class="cls-1" d="M37.46,59.13c.27.1,0,.27,0,.45C37.2,59.47,37.45,59.3,37.46,59.13Z"/><path class="cls-1" d="M35.22,59.49c.27.08.87-.2.9.13s-.48.32-.73.47A.86.86,0,0,1,35.22,59.49Z"/><path class="cls-1" d="M37.22,61.09Z"/><path class="cls-1" d="M36.93,61.25c.15-.6.19.58,0,0Z"/><path class="cls-1" d="M35.51,64c0-.15.18-.13.29-.17C35.8,64,35.62,64,35.51,64Z"/><path class="cls-1" d="M35.21,64.15Z"/><path class="cls-1" d="M35,65.81Z"/><path class="cls-1" d="M78.21,64.65c.44.11-.19.38,0,.75-.58-.16-.4.4-.58.62-1.72,2.06-4.1,3.55-5.85,5.59.91-1.59,2.71-3.13,4.22-4.79C76.72,66.05,77.52,65.41,78.21,64.65Z"/><path class="cls-1" d="M52.24,65.74c-.44.85-1.61,1-2.05,1.86C50.13,66.87,51.37,66.09,52.24,65.74Z"/><path class="cls-1" d="M35.94,68.49Z"/><path class="cls-1" d="M49.46,68.08Z"/><path class="cls-1" d="M70.75,71.49Z"/><path class="cls-1" d="M52,72.21c.15-.6.19.59,0,0Z"/><path class="cls-1" d="M70.45,71.65a4.14,4.14,0,0,1-1.72,2.6C69.05,73.15,69.92,72.56,70.45,71.65Z"/><path class="cls-1" d="M13.16,75.19c-.07-.06.1.1,0,0Z"/><path class="cls-1" d="M11.55,76.9c.78.48-.27,1.65-.38,2.26C10.77,78.49,11.61,77.73,11.55,76.9Z"/><path class="cls-1" d="M54.28,78.3Z"/><path class="cls-1" d="M77.72,78.19c.17,0,.26,0,.3.14C77.85,78.36,77.75,78.3,77.72,78.19Z"/><path class="cls-1" d="M58.36,79.08Z"/><path class="cls-1" d="M61,46.39c2.32-1,4-2.81,5.88-4.39a18.25,18.25,0,0,0,4.64-5.4c1.88-3.75,1.23-10.69-2.34-12.85-2.67-1.61-8.53-.69-7.55,4a1.53,1.53,0,0,0,1.25,1.32c0-.81.54-2.69,2-2.62,2.79.14.44,4.62-1.51,4.71-1.58.07-2.14-1.33-3.23-2.46-.07-4.52,2.87-6.88,7.15-6.83-1.68-2.27-.72-5.27-.67-7.49,1.15,1.52,3.34,2,4.32,3.77.76,1.37.29,2.85.44,4.65.24,2.82,3.82,5.71,3.15,9.52.88-1.36,1.45-3,2.88-4,.95-.68,2.31-.95,3.41-1.6s1.78-1.9,3-1.59c.12,1-1.31,1.73-1.72,2.75-.44,4.44-1,8.08-4.36,9.75-1,.48-2.05.27-3.28.71s-1.65,1.59-2.49,2.32c2.91-.91,6.71.45,9.34.77.13,1.1-.84,1-1.45,1.55-3.08,2.59-5.32,7.66-11.38,6.36,1.35.53,2.75,1.65,4.11,1.67,1.52,1.83,3.57,3.62,5,6.16.76,1.37,1,3,1.63,4.46.4.89,1.42,1.59,1.73,2.5.11.32-.11.48,0,.76.27.51.86,1,1.09,1.47a16.53,16.53,0,0,1,1.18,4.17c.73,5.37-3.91,8.32-7,11.33-.46.22-.5,0-1,0-8.6,4.3-22.44,3.88-30.79.49a19,19,0,0,1-6.1,1.84c-.88.06-2.25-.48-2.55.38-.39-.7-1.67-.44-2.56-.07-1.7-.9-4.83-.41-7.41-1.58a20.25,20.25,0,0,1-4.3-3.18c-3.75,2.22-10.59,1.48-14.86.6-1-.21-2.32.17-2.88-.81,0-.77.74-.32,1.19-.34,2.77-1.38,4-4.17,5.51-6.78a4.55,4.55,0,0,1-3-4.11c1.61.21,2.78-.9,4-1.48,1.2.43,2.87-.3,4.35-.13a7,7,0,0,1,5.07,3.45C20,63,3.15,63.19,2.81,71a2.42,2.42,0,0,0,1.58,2.51c.42-.47-.4-1.87.52-2.42,4,.09,2.51,6-1.65,4.86-3.95-2-2.37-9,.42-11C2.12,64.55,1.59,63,0,62.67c1-3,4.48-5.17,7.41-3.23-1.8-4.32,1.24-10.54,5.27-9.78,1.35.26,3.55,1.76,3.72,3.64a3.12,3.12,0,0,1-2,3.07c-2.61.53-4.08-3.51-.86-3.58-1.84-2.59-5.12-.68-5.18,2.86,0,2.58,1.7,5.89,3.66,6.51,1.21.38,2.45-.14,3.6,0s1.69.94,2.89,1c-1.25-14.95-1.38-32-4.26-46-.51-2.5-1.34-5.88-1.78-9.26-.4-3.1-1.07-5.9,1.44-6.81A29.83,29.83,0,0,1,19.74.3C26.21-.24,33.52.1,40,.14a67.67,67.67,0,0,1,11.16,1c2.81.51,5.49.1,5.21,3.6-.33,4.22-2,8.78-2.61,12.85-.2.58.42.28.32.74a12.67,12.67,0,0,0-1.39,3.5C51.42,28.25,50,35.13,50,42.21c0,2.38.14,4.81-.07,7.52A35.5,35.5,0,0,0,55,48.67c0-1.7-1.17-2-1.45-3.11-1-3.88,3.57-4.89,4.57-7.8.15-.87-.53-2.42.24-2.11.58-.19.27,1.37.35,1.64.57,1.92,3,3.46,3.32,5.61.13,1-.47,1.77-1,3.18C61.09,46.2,61,46.24,61,46.39ZM37.6,68.74c1.88-1.59,4.62-3.15,5.4-5.27a26,26,0,0,1-5.72,4.38c2.57-2.34,5.78-4.09,7.44-7.29a3,3,0,0,0-1.6,1.85c-2.72,1.09-4.7,4.77-8.1,5.21,4.1-2.12,8-5.17,9.48-9.31a55.61,55.61,0,0,1-9.09,7.34c2.27-2.29,7-4.69,7.73-7.6-2.07,2-4,4.08-6.75,5.47,2.82-2.65,6.91-4.88,8.16-8.52-2.21,1.86-4.44,4.48-6.89,5.62.86-.89,2.38-1.16,2.47-2.78-3.22,1.22-8.82.75-11.76-1.14-.13.36-.74.27-.73.77.71.84,2.51-.38,2.59,1-1.15.22-3.09,0-3.35-1.25,1.29-.84,1.59-2.39,3.38-2.65a33.79,33.79,0,0,1,4-.43c2.55,0,4.29,1.2,5.77,1.78,2.37-2.48,5.66-4.88,6.51-8.31-1.44,1.22-2.31,3-3.47,4.46a8.86,8.86,0,0,0,.71-1.37c-1.63,1.09-3,3.17-4.54,3.89,2-2.42,5.42-4.22,5.77-7.69a27.43,27.43,0,0,1-5,4.66,26.69,26.69,0,0,1,3.06-3c.31-1.74,1.25-2.9,1.82-4.41-1.49.93-2.34,2.46-4,3.28,1.88-2.18,5-3.93,5.35-7.08-1.35,1.8-3.3,3-4.51,5,0-.47-.57.48-.6,0,1-1.37,3-2.67,3-4.46-1,1-2,2.72-3.06,3.1,1.55-2.24,4.69-4.35,4.9-6.91-1.55,1.31-3,3.54-4.53,4.35a44.85,44.85,0,0,1,7.3-7.14c.11-.34-.08-1.17.09-1.8-2.76,2.55-5.8,5.62-8.48,7.77,1.44-1.49,3-3.14,4.52-4.65s3.87-2.75,4.21-4.79c-1.91,2-3.66,4.15-6.14,5.6,2.28-1.94,4.13-4.28,6.42-6.2.06-.78.57-1.9.38-2.42-2.69,2.48-4.83,5.47-7.88,7.6,2.8-2.76,5.35-5.75,8.16-8.51.06-.68.53-1.73.38-2.12-3.09,3-6.71,6.23-9.65,8.86a68.61,68.61,0,0,1,9.79-9.16c0-.69.59-1.67.23-2.26-2.41,2.41-5.14,5-7.3,6.83a76,76,0,0,1,7.73-7.6c0-.91.68-1.88.37-2.56a67.71,67.71,0,0,1-8.19,7.31c2.75-2.9,5.85-5.48,8.77-8.23,0-.74.16-1.41.24-2.11C50,18,47.07,21.26,44.61,22.54c2.82-2.35,5.23-5.09,8.2-7.31,0-.81.6-1.76.22-2.41-2.67,2.92-6,5.29-8.47,8.07,0-1,1.06-1.68,1.74-2.31,2.36-2.19,4.78-4.39,7-6.52,0-.82.32-1.26.24-2.11-.16-.21-.25.07-.46-.29C54,9,54,7.4,54.49,6.31c-.38-.19-.45.61-.6.17.3-.41,1.14-1.07.55-1.82.06.49-.2,1-.58.62.25-.59.8-.9,1-1.54C53.22,3.41,52.65,5.22,51.62,6a8.73,8.73,0,0,1,1.22.41c0,.55.12,1.18-.26,1.36-.43-.11-.38.22-.75.17a2.89,2.89,0,0,0-1.39-1.16c-.65.8-1.64,2-2.48,2.18Q50.72,6,53.65,3.33c-1.74-.63-2.72,2.27-4,1.93a24.43,24.43,0,0,0,2.78-2.34c-.93-.12-1.66,1-2.51,1.42.24-1.32,1.13-.64,1.6-1.7-.36-.47-1.05.36-1.35-.11a1.07,1.07,0,0,0,.44-.31C40.47.06,24.18-.17,13.38,3.51,14,13.62,17,23.77,17.55,32.08a19.6,19.6,0,0,1,.91,5.23c.31,3.87.37,8.31.68,12.45.48,6.34-.53,14.58,4.12,16.86,3.53,1.72,8.25,2.41,12.56,2.63.88-.49,1.06-.11,2.24-.22,3.93-.38,4.67-3,6-5.3A21.19,21.19,0,0,1,37.6,68.74ZM52.11,7.13c-.08-.28.44-.66-.17-.59C52,6.76,51.9,7.09,52.11,7.13ZM69.87,22.67c-1.67-1.43-.82-6.36-2.92-6.82C66.48,18.45,67.14,22.13,69.87,22.67Zm.31-4.36c-.28-.42-1.64-1.4-1.22-.72.26,1.6.06,2.73,1,3.58.23-.27,0-.93.42-1.07.52.1,0,.68.48,1A6.63,6.63,0,0,0,70.18,18.31Zm-2,4.26c-1.77-.38,0,.56.46.29A.4.4,0,0,1,68.21,22.57Zm3.88,14c-1.91,4.15-6.27,6.89-8.88,9.44,6.68-2.85,14.12-12.22,8.55-20.25A13.37,13.37,0,0,1,72.09,36.58Zm-7-9.4c-.9,0-1.34.39-1.31,1.24.09.36,1-.1.91.42-1.8,2-3.7,0-4-1.68C59.79,30.83,66.5,31.42,65,27.18Zm10.33,8.4c3.22-.91,4.74-3.41,4.89-7.21-2.8.62-5.18,3.14-4.8,5.4.42-.38.61-1,1.17-1.23C76.27,33.56,75.14,34.48,75.37,35.58ZM46.3,38.42c.82-1.24,2.86-1.87,2.75-3.54A4.29,4.29,0,0,0,46.3,38.42Zm31.21-1.7c.92-.5,2.12-1.5,2-2.47C79.05,35.26,78.13,35.84,77.51,36.72ZM44.45,41.78a17.62,17.62,0,0,0,3.63-4c.4.4.45-.19.9-.17a2.84,2.84,0,0,1,.11-1.21C47.33,37.79,44.84,40.06,44.45,41.78Zm1.81.4c.88-.73,3.48-1.88,2.58-4.29A8.78,8.78,0,0,0,46.26,42.18Zm12.28,3.38c1-.51,1.82-1.21,2.8-1.74-.14-2.69-1.59-4-2.87-5.47-.84,2.67-4.75,3.21-4.15,6.74,1.69-.5,2.56-1.77,4.13-2.38.27-.34-.06-1.23.26-1.51.21.18.16.64.18,1,.46.18.75-.53.9-.17a1.66,1.66,0,0,1-.89.62c.1.27-.15.89.18.9a3.38,3.38,0,0,1,1.63-.8c.11.29.54.62,0,.75-.28,0-.12-.49-.46-.44-.32.63-1.36.57-1.46,1.4.71-.21.92-.88,1.77-1C60.37,44.65,58.72,44.41,58.54,45.56ZM46.5,45c.84-.72,1.39-1.71,2.49-2.18,0-.79-.22-1.86.08-2.41-.84,0-.74,1-1.47,1.1C48,42.85,46.44,44.07,46.5,45Zm23.15.34c-1.24.23-1.36,1.32-1.58,2.16,5.42,1.76,8.88-2.5,11.1-5.6-2.56-.77-5.93-1.39-8,.39.84.41-1.18,1.58-.23,2.11-1,.72-1,2.45-2,3.22C68.79,46.5,69.46,46.16,69.65,45.37ZM43.73,48a12.33,12.33,0,0,0,3.43-6C45.42,43.33,44.33,46.05,43.73,48Zm25.56-4.53c.8.38-.55,1.21-.1,1.66,1.17-.32,1.15-1.75,1.73-2.61A3.23,3.23,0,0,0,69.29,43.43ZM47.13,50.87c.72-.25.9-1,1.61-1.25.06-2.24.42-4,0-6.32-1.25,1.45-3.37,2.86-3.3,5.07.73-1.07,1.87-1.74,2.31-3.08.37.66.75-.34,1,0-.49.64-2.07,2.2-1.85,3.51.59-.47,1-1.12,1.76-1.41-1.32,1.62-3.35,3.36-3.58,5.52,1.31-.52,1.34-3,2.45-3.23C47.54,50.07,46.88,51.17,47.13,50.87Zm7.94-5.66c1.28.08,3-.63,3.4-1.9,0-.12-.13-.17-.31-.14C57.49,43.86,56,44.38,55.07,45.21Zm12.79.52c.44-.62,1.25-1.65,1.13-2.29A6.65,6.65,0,0,0,67.86,45.73Zm-9.59.74c.59-.32,2.64-1.3,2.64-2.18C60.23,45.21,59,45.57,58.27,46.47Zm-2.71-.07c.88-.48,2.68-.88,2.5-1.88-.87.45-2.52,1.68-3.44.71,0,.12-.12.18-.29.16.05.46.34.66.48,1,.38,0,.83-.66,1-.33C55.68,46.13,55.62,46.27,55.56,46.4Zm-.28.76c.65.37,1.41-.81,1.94-.51-.24.69-2,.45-1.46,1.4a2.58,2.58,0,0,0,2-2.47C57.12,46.27,55.85,46.38,55.28,47.16Zm10.5-.77c0-.2.59-.47.13-.6C65.94,46,65.31,46.26,65.78,46.39Zm-8.37,1.76a24.6,24.6,0,0,0,2.5-2C58.92,46.55,57.53,47.38,57.41,48.15ZM13.76,55.64c1.1.07,1.9-1.21,1.89-2.16,0-2.31-3.73-4.12-5.18-2.4,2.32-1,4.19,1,4,3.19-.34.16-.47.53-1,.48-.7-.39.44-1-.33-1.19C11.93,54.2,12.87,55.59,13.76,55.64Zm44.15-6.15c-2.82,0-5.81.27-7.92,1.59-.2.56.25,1.08-.1,1.66C53.64,55,62.7,55.67,67.37,54.16c1,.24,3.94-.14,4.16-1.63C68.4,50.21,62.84,49.5,57.91,49.49Zm9.31-.14c.22-.09.78.16.75-.17C67.5,49.27,67.34,48.84,67.22,49.35ZM46.4,56.45a4.64,4.64,0,0,1,2.06-1.27c-.29-1.44.72-4.09,0-5.11-.56,1-2.31,1.72-2.17,2.93a7,7,0,0,1,2.2-1.87C47.4,52.77,45,54,44.88,56a11.3,11.3,0,0,0,2.62-2.93.73.73,0,0,0,.16.45c0,.35-.45.35-.58.61.37-.2.63.42.75,0-.46,0,.31-.62.29-.16-.62,0,0,.1,0,.3C47,54.1,46.26,55.55,46.4,56.45Zm-1.65-4.61c-.64-.07-.26.82-1,.63,0,.47-.4.6-.57.92-.77,1.1-3.16,2-2.6,3.39,1.54-1.54,4.58-3.29,4.33-5.54C44.93,51.52,44.73,51.57,44.75,51.84Zm-.81,3c.68-.44,1.84-1.19,1.6-2C44.93,53.46,44.18,53.93,43.94,54.87ZM8.62,59.55c-.51-.53-1-3.87-.76-5.38C7.47,55.77,7.51,58.33,8.62,59.55ZM71.87,54c.42,0,.08.85.62.73.75-.3-.17-1.86-.2-1.79C72.47,53.61,71.8,53.46,71.87,54ZM31.63,55.1c-1-.78-3.06.31-2.51,1.42.49.17.1-.48.59-.31C31,57.75,34,57.88,36.22,58c0-.22-.07-.55.14-.6,1.45.12,2.83.58,3.75-.12C38.69,54.8,34.35,55,31.63,55.1Zm18.63,0c.06-.29.32-.39.28-.76-.22,0-.55,0-.59.17C50.35,54.42,49.86,55.25,50.26,55.13Zm-9.52,3c.67-1.13,2.93-2.28,2.6-3.38C42.52,55.92,40.12,56.47,40.74,58.12Zm10.76-2c.22-.56.91-.69,1-1.38C51.77,54.75,51.09,55.56,51.5,56.14ZM71,54.8c0-.3.41-.21.28-.61h-.44C70.86,54.43,70.79,54.76,71,54.8ZM53,56c.58,0,.57-.63.87-.93l-.75,0A1.35,1.35,0,0,1,53,56Zm1.36.56a9.14,9.14,0,0,0,1.17-1.24c-.47.09-.54-.26-1.06-.12A2.47,2.47,0,0,0,54.36,56.51ZM43.61,58.79c1-.78,2.34-2,2.31-3.23C45.07,56.47,43.37,57.34,43.61,58.79Zm3.28-1c.31-.4.79-1.23,1.32-.95-.08-.38.51-1.31-.19-1.34C47.5,56,46.73,57.1,46.89,57.79ZM56,56.31c.12-.42.85-.27.88-.78,0-.33-.64,0-.91-.12C56.21,55.83,55.6,56.18,56,56.31Zm12.46-.53c-.45-.12.18-.39,0-.75-.43.08-.83.2-.89.63C67.89,55.58,68.39,56.09,68.47,55.78Zm.28-.46h.3V55h-.3Zm-11.52,1.4c.51-.25.63-.86,1.32-.94,0,.43.06.76.33.89.19-.45.67-.63.87-1.08a14.45,14.45,0,0,0-2.71.08C57.47,55.72,56.68,56.57,57.23,56.72Zm19.25.62c.1-.82-.87-1.74-1.42-2.37C75.53,55.77,76,56.56,76.48,57.34ZM63.54,57a12.66,12.66,0,0,1,1.16-1.54C63.7,55.33,63,56.54,63.54,57Zm1.05-.18c.64-.87,1.29-1,1.76-1.41l-.9,0C65.33,56,64.78,56.24,64.59,56.8Zm7.63-1.14c-.25,0-.1-.41-.31-.44C71.79,55.53,72.07,56.15,72.22,55.66ZM51.55,57.8c.24-.51,1.31-1,.69-1.83C52,56.47,51,57,51.55,57.8Zm8.54-.87a2.07,2.07,0,0,0,1-1.08c-.46.12-.45-.24-.91-.12A2.81,2.81,0,0,1,60.09,56.93Zm-7,1c.43-.23,1.28-1.46.55-1.82C53.54,56.71,52.4,57.09,53.05,57.9Zm-3-.66c.26.36,1-.48.58-.77C50.38,56.69,50.09,56.87,50,57.24Zm4.23.77a1.67,1.67,0,0,0,1.15-1.54C55,56.35,54.11,57.09,54.26,58Zm-7.4-1.27A3.62,3.62,0,0,0,44.7,60,23.8,23.8,0,0,0,46.86,56.74Zm8.87.33c.1.31-.15,1,.18,1,.29-.41,1.09-1.11.71-1.67C56.21,56.55,56.17,57.44,55.73,57.07ZM70.9,56.6c.1-.11.35-.74-.17-.59C70.76,56.23,70.69,56.56,70.9,56.6Zm-12.11,2c.42-.42,1.38-1.6.68-2.13C59.14,57.13,58,57.83,58.79,58.63Zm7.36-.08c.24-.31.38-.71.88-.78-.19-.57.23-1.32,0-1.5C66.72,56.47,65.49,57.53,66.15,58.55ZM45,61c.93-1.19,3.71-2.13,2.89-4C47,58.19,45.12,60,45,61Zm12.24-2.78a3,3,0,0,0,1-1.53C57.53,56.72,56.8,57.53,57.27,58.22Zm2.88.82a2,2,0,0,0,1-2.44C60.75,57.37,59.87,57.65,60.15,59Zm9.1-2.39h.3c0-.1,0-.2,0-.3h-.3Zm5,.6c.35-.35.59-.78,0-1C74.36,56.62,74,57.24,74.22,57.25ZM61.9,57.18c0-.18.26-.35,0-.45C61.87,56.91,61.63,57.08,61.9,57.18Zm3,.36c.06-.3.72-.77.43-.92C65.27,56.91,64.57,57.34,64.91,57.54Zm-3.27,1.15c.55.21,1.3-.49,1.16-1.39C61.82,57.37,62,58.42,61.64,58.69ZM1,62c.5.4.72,1.1,1.39,1.31.14-.78.77-.71.41-1.67.35-.07.33.27.75.13a14.68,14.68,0,0,1,1.88-2.46C3.14,59,1.84,60.53,1,62ZM50.2,58a3,3,0,0,1-.12,1c.47.1.28-.42.74-.32.11-.52-.3-.63,0-.9C50.51,57.79,50.47,58,50.2,58Zm1.09,1.32a2.52,2.52,0,0,0,1.18-.94c-.42-.12.27-.56-.32-.59C51.67,58.3,51.23,58.62,51.29,59.31Zm22.35-1.44c.09-.09.33-.72,0-.75C73.45,57.35,73.11,57.77,73.64,57.87ZM52.8,59.41c.69,0,1.32-.89.85-1.53A2.23,2.23,0,0,0,52.8,59.41Zm1.66.1c.35-.2.32-.77.87-.78-.09-.26.16-.89-.17-.89C54.92,58.3,53.67,59,54.46,59.51Zm1.5.1c.23-.42,1.14-1,.55-1.66C56.31,58.39,55.38,58.92,56,59.61Zm13.95-1a1.36,1.36,0,0,0,0-1.05h-.45C69.35,58.14,69.67,58.32,69.91,58.59Zm7.35-.38c-.26-.24-.3-.71-.63-.88C76.71,57.67,77.05,58.53,77.26,58.21ZM4.33,61.79c1.34-.25,1.66-1.46,2.64-2C5.51,59.36,4.72,60.71,4.33,61.79Zm53-1.62c.36-.49,1.32-1.18.69-2.12C57.52,58.73,56.8,59.13,57.33,60.17ZM68.1,58.49c-.13-.33.68-.5.13-.75C68.24,58,67.69,58.37,68.1,58.49ZM75.15,58c0-.18.25-.35,0-.45C75.12,57.71,74.88,57.88,75.15,58Zm-11.71.5c0-.21.24-.26.29-.45C63.41,57.9,63.06,58.44,63.44,58.48Zm-19.53,5A21,21,0,0,1,48,60c-.1-.36.15-1.1-.19-1.2C46.79,60.52,44.28,61.61,43.91,63.44Zm14.64-2.7a1.62,1.62,0,0,0,1-2.29A2.9,2.9,0,0,0,58.55,60.74Zm6.44-.8c.34-.34.78-1.36.25-1.66C64.91,58.63,64.31,59.51,65,59.94Zm10.18-1.06c.07-.37,1-.7.28-.91C75.72,58.53,74.77,58.67,75.17,58.88ZM6.26,61.13c.68.09,1.31-.61,1-.93C6.93,60.49,6.47,60.69,6.26,61.13Zm62.93-1.47c.45-.33.16-1-.19-1.34C69.1,58.72,68.84,59.51,69.19,59.66Zm5.23-.76c.09-.09.33-.72,0-.75C74.23,58.38,73.89,58.8,74.42,58.9ZM60.2,60.54c.61-.26,1.52-1,1-1.84C60.78,59.24,60.2,59.62,60.2,60.54Zm3.43-.86c-.11-.55,1-.78.26-1.06C63.73,59,63,59.31,63.63,59.68Zm2.56.38c.07-.57,1-1.05.71-1.53C66.86,59.13,65.7,59.43,66.19,60.06Zm-14.88-.15c.1.35-.15,1.09.19,1.19a11.54,11.54,0,0,1,1-1.08,1.25,1.25,0,0,0-.33-.89A1.14,1.14,0,0,1,51.31,59.91ZM61.83,60c.49-.27,1.07-.46,1-1.24C62.21,58.93,62,59.49,61.83,60Zm-11.55.65c.2-.45.77-.54.56-1.37C50.13,59.19,49.88,60.25,50.28,60.69Zm-42.81.55c.38.12.81.17.74-.47C7.73,60.71,7.6,61,7.47,61.24Zm47-.08c.28-.36,1.46-1.3.55-1.82C55,59.94,53.85,60.34,54.5,61.16Zm-1.35-.26c.11-.38.51-.49.72-.77-.4.12.09-.71-.32-.59C53.29,59.78,52.59,60.37,53.15,60.9Zm2.87.67c.42-.39,1.1-1.29.54-2.12C56.27,60,55.38,60.67,56,61.57Zm16.32-2c.19-.21.08-.46-.17-.6C72,59.18,72.09,59.43,72.34,59.57Zm1.21.26c.11-.11.31-.85,0-.9C73.26,59.19,73.12,59.62,73.55,59.83Zm1.67.55c0-.63,1.15-.85.55-1.52C75.75,59.43,74.66,59.75,75.22,60.38ZM63.69,61.63c.26-.48.92-1.36.38-2.11C63.85,60.1,63,61.11,63.69,61.63Zm4-.72c.69,0,1.08-1.21.56-1.52C68.16,60,67.52,60,67.72,60.91ZM3.88,62h.31c0-.1,0-.2,0-.3h-.3Zm53.37.48c.56-.42,1.37-1.74.68-2.42A2.33,2.33,0,0,0,57.25,62.43Zm4.63-.74c.22-.58,1.32-1.09.85-1.83C62.65,60.56,61.38,60.92,61.88,61.69Zm-56,1.55c.18-.61,1.36-1.05,1.15-1.53C6.67,62.14,5.66,62.75,5.88,63.24ZM69.08,61c.47-.1,1.17-.74.71-1.22C69.73,60.37,69.17,60.47,69.08,61Zm7.34-.53c.21-.19.24-.9-.17-.89C76.55,60,76,60.22,76.42,60.49ZM3.8,64.21c.56-.66,2.35-1.66,1.89-2.31C5.1,62.63,3.75,63.35,3.8,64.21Zm39.59,2.1a44,44,0,0,1,4.39-3.89,8.71,8.71,0,0,1,.1-1.81C45.71,61.78,44.25,64.39,43.39,66.31Zm17-4.43c.6-.05,1.3-1.43.7-1.67C60.83,60.74,60.23,61,60.39,61.88Zm4.35-.28c.86-.07.72-1.16.85-1.53C64.79,60.29,64.83,61.06,64.74,61.6ZM50,61.3c.11.4-.15,1.2.19,1.35.41-.25,1-1.73.39-2C50.62,61.1,50.17,61.07,50,61.3Zm8.59.94c.53.21,1.56-1,1-1.83C59.25,61,58.38,61.11,58.59,62.24Zm12.13-1.42.45,0c-.09-.26-.09-.62-.32-.74C70.93,60.42,70.59,60.4,70.72,60.82Zm1.53.85c.37-.49.9-1.36.25-1.66C72.32,60.38,72,61.33,72.25,61.67Zm-6-.11c.05-.45.8-1,.56-1.22C66.5,60.55,65.71,61.05,66.24,61.56ZM51.4,62.91c.34-.65,1-1,1.15-1.84-.62-.36-.87.69-1.33.94C51.72,62.08,51.07,63,51.4,62.91Zm1.81-.06c.3-.39.9-1.27.39-2C53.31,61.31,52.58,62.51,53.21,62.85Zm22.05-1.27c.58.06.77-1,.41-1.36C75.53,60.67,75.16,60.9,75.26,61.58ZM2.58,63.49c.64.67,1.44-.29,1.62-1C3.18,62.41,3,63,2.58,63.49Zm51.68-.37c1-.19,1.48-1.65.84-2.13C54.69,61.7,54.09,62.25,54.26,63.12Zm7.35-.67c.26.29,0,1.11.34,1.34.32-.77,1.5-1.5.82-2.73A2.84,2.84,0,0,1,61.61,62.45Zm4.56,1.66a2.2,2.2,0,0,0,.81-3C66,62.15,66.11,62.62,66.17,64.11ZM67.9,62c.09-.41.42-.59.58-.92C68.07,61.05,67.49,61.65,67.9,62Zm1.38.71c.23-.42,1.14-1,.55-1.67C69.94,61.74,68.8,62.07,69.28,62.67Zm6.87-1.27c.47.19.84-.45.43-.61C76.55,61.1,76.19,61.1,76.15,61.4ZM55.94,63.82a1.54,1.54,0,0,0,.53-2.27A1.87,1.87,0,0,0,55.94,63.82Zm7.66-.23c.37-.43,1.11-1.28.53-2.12a1,1,0,0,1-.73.77C63.42,62.88,63.45,63.5,63.6,63.59ZM59,64.18c.33-.8,1.24-1.06,1-2.43C59.24,62.35,58.14,63.35,59,64.18Zm12-1.87c.28,0,.34.16.61.14a.75.75,0,0,0-.19-1.05C71.22,61.72,70.9,61.86,70.92,62.31ZM6.36,64.13a3.05,3.05,0,0,0,1.48-.65A2.51,2.51,0,0,0,6.36,64.13ZM2.25,72.37c-1.53-4.85,4.94-8.51,10.42-8.28a13.08,13.08,0,0,1,7.6,3.07c-1.29-1.28-2.95-3-5.36-3.44a17.72,17.72,0,0,0-9,.87c0-.29.19-.3.29-.45-1.88.55-4.22,3.2-4.63,6C.94,74.43,4,76.65,6.66,74c0-1.24-.13-2.34-1.42-2.21-.47.79.56.68.49,1.49C4.58,75.16,2.73,73.89,2.25,72.37Zm58.33-9c.11-.49,1.07-.93.56-1.52A1.17,1.17,0,0,0,60.58,63.38Zm5.06-1.66A1.62,1.62,0,0,0,64.78,63C64.67,63.8,65.67,62.53,65.64,61.72ZM51.73,63.65c0-.29.51.16.9,0-.16-.71.08-1.14-.35-1.34C52.15,62.7,51.29,63.18,51.73,63.65Zm5.58.73c.26-.66,1.61-1.68.53-2.27A2.06,2.06,0,0,0,57.31,64.38Zm-7.1-1.13c.36-.08.34.26.76.12-.1-.3.21-1-.33-.89A3.82,3.82,0,0,1,50.21,63.25ZM72.41,62c0,.18,0,.42.17.45,0-.2.49-.58.13-.61C72.68,61.93,72.59,62,72.41,62Zm-4.62,1c.4,0,1-.61.57-.92C68.28,62.5,67.74,62.49,67.79,63ZM79,62.37c-.36,0-.35-.45-.62-.58C78.37,62.17,78.92,62.68,79,62.37Zm-4.52-.31s0,.13,0,.15C73.84,63,75.24,61.91,74.52,62.06Zm-27.44,2c0-.34.7-.68.27-.91-.17.29-1.13.58-.72.93C47,63.54,46.92,63.67,47.08,64.09Zm6.16-.18a.8.8,0,0,1,.6.13l0-1.05A.94.94,0,0,0,53.24,63.91Zm1,.11c.23.23.77.11,1.21.12-.23-.28,0-1-.34-1.19C55,63.39,54.49,63.57,54.29,64Zm10.54.58c.35,0,.45.25.91.13-.12-.56.14-1.51-.21-1.8C65.3,63.49,64.73,63.73,64.83,64.6Zm4.62-1.19c0-.2.6-.47.13-.6C69.61,63,69,63.28,69.45,63.41Zm-8.83,1.17.75,0c-.1-.41.15-1.2-.19-1.35C60.9,63.64,60.23,63.93,60.62,64.58Zm1.36.11,1.05,0c-.16-.45.27-1.53-.35-1.49C62.62,63.84,61.91,63.9,62,64.69Zm-5.88-.42c.36-.07.34.26.76.13-.1-.27.15-.89-.18-.9C56.59,63.85,56.19,63.92,56.1,64.27Zm3,.21.76,0c0-.26.37-.88,0-1.05C59.6,63.77,59.31,64.08,59.11,64.48Zm4.52.16c.21-.09.78.15.74-.17-.39-.06.35-1-.18-1.2C64.17,63.89,63.54,63.93,63.63,64.64Zm4.18-.73c.39,0,1-.64.73-.77C68.45,63.54,67.87,63.48,67.81,63.91Zm1.67.4c0-.28.51-.1.59-.32,0-.56.22-.69,0-.9C70.07,63.61,69.07,63.92,69.48,64.31Zm1.78-.65c.37.13.48-.69.28-.61S71.33,63.43,71.26,63.66ZM51,64.12c-.64.06-.82-.36-1.51-.25C49.54,64.32,50.69,64.44,51,64.12Zm6.77.25c.47,0,.67-.15.58-.62A.56.56,0,0,0,57.76,64.37ZM44.47,67c.7-.9,2.35-1.67,2.32-2.78C46.4,65.23,44.57,65.91,44.47,67Zm22.16-2.48c.35,0,.45.25.91.12-.09-.34-.33-.76,0-1.05C66.92,63.65,66.93,64.25,66.63,64.55Zm1.35,0c0-.33.53-.09.75-.17,0-.2,0-.41,0-.6C68.38,63.82,67.64,64.27,68,64.51Zm-14.57.29c.09-.37-.73-.54-.76-.28C52.94,64.58,53,64.84,53.41,64.8Zm-5.46,3c.85-1.09,2-1.93,2.91-2.94a2,2,0,0,1-1.66-.25c.08.33-.44.83-.12.9,0-.13.54-.52.59-.16C49.15,66.14,48,67.09,48,67.82Zm19.1.47c.53-1.24,1.82-1.78,2.46-2.93-1.89.22-2.06,2-3.37,2.81,0-1.34,1.28-1.52,1.57-2.6-1-.18-1.63,1.14-1.75,1.7A1.08,1.08,0,0,1,65.5,67c0-.64,1.06-1,.71-1.52a1.38,1.38,0,0,1-1,.33c.07.39-.29,1.25-.88.92-.19-.47,1-.81.28-.91-2.67.49-6.63-.22-10.23-.14a10.71,10.71,0,0,1-2.78,2.49c.54-1.19,1.84-1.67,2.63-2.63A23.82,23.82,0,0,1,51.62,65c-1.22,1.33-3.18,2-3.64,4,.39.27,1-1.14,1.48-.79-.55.94-1.68,1.34-1.56,2.9.77.21,1.41-1.66,2.05-1.56a8,8,0,0,1-2,2.46c.34.16-.23.91.34,1.19.65-.7,1.48-2,2.34-2-.8,1.38-3.08,2.15-2.42,4.43,1.2-1,2.28-2.81,3.67-3.12-1.07,1.73-4.05,2.42-3.61,5.07,1.2-1,2.35-2.84,3.66-3.26-1.07,2-4.51,3.17-4,5.68,1.13-1.12,2.43-2.87,3.8-3.27-1.17,1.42-2.9,2.32-3.78,4,.3.09.36.45.62.58,2-1.12,3.26-3.73,5.27-4.37a53.09,53.09,0,0,1-4.52,4.35c-.06.57.54.45.77.73,1.55-1,2.41-2.7,4.1-3.58-.85,1.44-2.32,2.29-3.35,3.55.23.48,1,.37,1.52.56,1.44-1.47,3-3.59,4.68-4.35-1.07,1.76-3,2.72-4.07,4.48.51-.14.58.21,1.05.12,1.4-1.12,2.68-3.12,4.25-3.59-1,1.36-3.14,2.4-3.64,3.72,2.46.23,3.33-3,5.74-3.78-1.23,1.36-2.71,2.5-3.94,3.88a20.3,20.3,0,0,1,3.17.35A57.32,57.32,0,0,1,68,74.88c-2.47,3-5.77,5.17-7.86,8.5,2.55.39,3.12-2.26,4.29-2.23-.64.81-1.51,1.39-2.19,2.17,1.25.24,1.23-.7,2.08-.82-.16.19-.42.29-.28.76.46-.12.56.14.91.13,2.09-2.83,4.66-5.56,7.11-8.34s5.78-6.39,8.31-8.21c-5,5.4-10.55,11.07-15.12,16.39,1.25-.21,2.22-1.34,3.08-2.2,4.35-4.36,8.53-9.17,12.82-13.32a4.47,4.47,0,0,0-1.42-2.21C75,70.35,70.66,75.63,65.3,79.92c4.93-4.3,9-9.42,13.54-14.09.29-.07.37-.33.74-.32-.11-.91-1-1-1.25-1.77-3,1.87-4.21,4.45-7.18,6.23,1.67-2,3.67-3.65,5.39-5.57-3.27.32-4.15,3.72-6.6,5,1.1-2,3.06-3.15,4.35-4.94-2.06-.27-4,3.22-5.73,4.08C69.18,67.14,71,66.1,71.45,65,69.22,65.3,68.77,68,67.05,68.29ZM55.22,64.9c2.51.37-.68-.45-1.35-.11A1.65,1.65,0,0,0,55.22,64.9Zm4.07.32c.1,0-3.32-.36-1.21-.11C58.73,65.19,58.05,65.67,59.29,65.22Zm-17.5,2.94A12,12,0,0,0,44,66.29,7.52,7.52,0,0,0,41.79,68.16Zm-33.64.72c0,.48.42.49.34,1.05,1.18-.91,1.81-1.45,2.93-2.35C10.15,67.85,9.6,68.79,8.15,68.88Zm2,2.05c.36-.88,1.53-1.77,1.42-2.6C11.12,69.1,10.1,70.13,10.17,70.93ZM14,69.61c.63,0,1.27-1.46,1.16-1.24A3.14,3.14,0,0,0,14,69.61Zm9.19.92c.88-.27.93-1.52.69-2.13A2.29,2.29,0,0,0,23.23,70.53Zm1.44,2.81c.19,2.57.19,5.56.67,7.34.35-.23-.3-.46.29-.46.08.72-.29,1,.34,1.2-.37-2.78,0-6.92-.44-9.46-.3.15-.1.78-.58.77-.27-.8,1.67-2.77.19-3.76C24.42,69.87,24.54,71.6,24.67,73.34Zm1.41-2.9A1.7,1.7,0,0,0,27,69.36a1,1,0,0,0-.75-.12C26.32,69.79,26,69.89,26.08,70.44Zm1.55,11.23c-.34-.07-.35-.73-.76-.28-.2.78.54.56.92.72.85-3,.29-6.89.28-10.53.14.31-.37.69-.44.32-.07-1,1.11-1.44.53-2.42h-.45C26.93,73.6,28.23,77.89,27.63,81.67ZM12.94,73.1c0-1.17.88-2.16,1-2.74-3.36,1.12-4.13,5.94-6.66,8.32,1,1,3.65.92,5,.3a73.2,73.2,0,0,0,3.33-9C13.85,69.69,13.88,72.73,12.94,73.1Zm-.13,5.41c2.45-1.72,2.17-6,3.79-8.53h-.45A53,53,0,0,1,12.81,78.51Zm1.91-1.26c0-.12.12-.18.3-.16.62-1.39,1-3.32,1.5-4.85.25-.72,1.13-1.54.69-2.13A37.92,37.92,0,0,0,14.72,77.25Zm7.8-5.5a1.58,1.58,0,0,0,.09-1.8A1.82,1.82,0,0,0,22.52,71.75Zm7-2c-1.67,2-.25,7.47-.73,10.54,0,.47.42-.4.45.14-.56.51-.29,1-.24,2,.59.11.53-.39.89-.48a62.89,62.89,0,0,1-.07-12c.47.19.65.66.91,0C30.17,70,30.07,69.61,29.52,69.74Zm-20.11.91c-.05-.12-.4-.17-.45,0C8.87,71,9.56,71,9.41,70.65ZM31.53,81.4c1-.16.89-1,.84-2-.11-2,.08-5.68.07-7.67-.45-.11-.46.91-.74.48-.41-.83,1-1.06.84-2.13-.23-.23-.78-.11-1.21-.12C31.2,73.44,31.38,78.72,31.53,81.4Zm9.31-10.05c.37-.53,1-.81,1-1.69C41,69.66,40.79,71,40.84,71.35ZM70,80.83c2.56-2.49,5.94-5.38,8.62-8.23,1-1.08,3.09-2.68,2.43-4.13-4.11,4-8.45,8.78-12.54,12.7-.62.59-1.73,1.11-1.45,1.7,1.25.29,3.24-.72,4.18-.73,2.73-3.7,6.46-6.47,9.78-9.61,0-.73.61-1.56.08-2.26-3.2,4.13-7.21,7.51-11.24,10.86C69.84,81,70,81,70,80.83ZM17.55,71.45c.12,0,.3,0,.3.15-.61.39-.73,1.25-.83,2.12-.35.31,0,.3.15,0a11,11,0,0,1,1.25-3.19C17.86,70.58,18,71.25,17.55,71.45Zm21.31-1c.37,0,1.06-.79.74-.47C39.25,70.09,39,70.2,38.86,70.5Zm3.92.49c.09-.46.56-.54.42-1.22C42.67,69.72,42.46,70.72,42.78,71ZM33,71c-.08,3.53,0,7.76.17,10.37.53.06.35-.55.89-.48,0-2.84,0-4.64-.11-8.26-.09-.15-.62,0-.61-.59s1.08-1.11.54-1.82A10.89,10.89,0,0,1,33,71Zm3.32.2c.14-.4.58-.52.72-.92a1,1,0,0,1-.76-.13C36.16,70.26,36,71.1,36.33,71.18Zm-.93-.87c-.24.41-.62.68-.87,1.08.28,4.16-.09,7.32.31,10.36.64-.55.4-1.07,1-1.69-.39-1.54.39-6.55-.52-7.49C35.65,71.86,36,71.12,35.4,70.31Zm-12,1.12c.25,1.8.11,3.92.18,6,0,1.18-.19,2.92,1,3.13-.14-3.78-.36-6.15-.59-9.6,0-.12-.13-.17-.31-.14C23.7,71.11,23.29,71,23.41,71.43Zm2.84-.54c.12,3.54-.19,6.55.46,10.2.93-2.58,0-6.92.14-10.22,0-.11-.13-.17-.31-.14C26.56,71,26.44,71.05,26.25,70.89Zm4.07.48c0,3-.66,6.48.44,9.45.2-2.75-.1-7.56-.15-9.91v.15C30.43,71.08,30.26,71.11,30.32,71.37Zm5.87.42c.47,1.81-.13,4.11.35,6.45.54-.5,1.37-1.77.38-2.42a3.55,3.55,0,0,0-.11-3.6c.19-.36.78-1.1.4-1.51C37,71.15,36.86,71.73,36.19,71.79Zm1.82.54c.24-.42,1.15-1,.56-1.67C38.5,71.24,37.42,71.62,38,72.33Zm5.71-.17a2,2,0,0,0,.4-1.67C43.68,70.67,43.53,71.87,43.72,72.16Zm-4.19.58a5.47,5.47,0,0,0,.55-1.67C39.37,71,39.11,72.2,39.53,72.74Zm-16,7.1c-.72-2.74-.09-5.62-.7-8.1C22,73.17,21.89,78.23,23.52,79.84Zm17.37-6.69c.06-.64.84-1.35.55-1.82C41.13,71.79,40.15,72.58,40.89,73.15Zm2.1-.22c-.14-.38.43-.83,0-1.05C43,72.15,42.58,72.77,43,72.93Zm-4.91,1.51c.18-.62,1.19-1.21.54-2.13C38.44,72.93,37.45,73.55,38.08,74.44Zm7.65-.39c.21-.49.38-1.31,0-1.65C45.54,72.63,45.59,74.33,45.73,74.05Zm-6,.64c.21-.22.84-1.34.1-1.51C39.93,73.77,39.13,74.51,39.74,74.69Zm1.36.4c0-.6,1.08-1.54.4-1.81C41.28,74,40.43,74.24,41.1,75.09Zm-20.75-.57c-2.15.87-4.19,3.34-6.63,4.56a8.91,8.91,0,0,0-2.37,1.13c4.78.05,10.57,0,9.9-5.56A2.35,2.35,0,0,0,20.35,74.52ZM44.86,75c.15-.16.27-1.08,0-1.2C44.85,74.24,44.23,74.82,44.86,75Zm-6.72,1.41c.57-.7,1.2-1.41.53-2.27C38.43,74.72,37.49,75.43,38.14,76.39Zm4.17-1c.16-.16.54-.84.12-1.06C42.36,74.54,41.88,75.13,42.31,75.36Zm1.08.72c.19-.5.78-1.4.54-1.82C43.54,74.85,43.09,75.57,43.39,76.08ZM76,79.59c0,.16.08.38.15.15.61-2.3,4.53-3.51,4.46-6.45-2.91,3-6.31,5.53-9,8.69C73.16,81.34,74.87,80.76,76,79.59Zm-34.52-3.3c0-.24.56-.72.12-.91C41.46,75.55,41,76.09,41.44,76.29Zm-1.35,0c0-.18.59-.59.13-.76C40.24,75.89,39.92,76.15,40.09,76.33Zm4.52.31c.4,0,.53-.94.27-1.06C44.91,76.06,44.49,76.09,44.61,76.64Zm-6.42,1.55c.36-.49,1.32-1.18.69-2.13C38.46,76.54,37.48,77.56,38.19,78.19Zm4.34-.73c.13-.13.64-.94,0-.9C42.72,77,42.12,77.33,42.53,77.46ZM39.69,78c.57-.09.64-.66.71-1.22C39.85,76.88,39.58,77.26,39.69,78Zm1.19-.33c.58-.26.07.64.47.58.1-.3.33-1.23.11-1.35C41.37,77.24,41,77.3,40.88,77.66Zm2.71.21c-.08-.38.51-.86.12-1.05C43.63,77.17,42.88,77.64,43.59,77.87Zm-7,1.87c.29-.41,1.13-1.06.54-1.82C36.88,78.37,36,79,36.59,79.74Zm3.31.35c.42-.39,1.11-1.29.54-2.12C40.41,78.72,39.72,79.62,39.9,80.09Zm-1.66-.25c.06-.54.64-1.34.4-1.67C38.13,78.61,37.65,79.4,38.24,79.84Zm40.07-2a3,3,0,0,0-1.75,1.71,6.59,6.59,0,0,0,2.18-2.32C78.34,77.28,78,77.62,78.31,77.87Zm-36.64,1c0,.22,0,.55.17.59,0-.27.49-1.07.12-.75C41.93,78.79,41.84,78.85,41.67,78.84Zm-5.19,2.41c.55-.07.54-.66,1-.79,0-.43-.06-.76-.33-.89C36.08,80.24,37,80.47,36.48,81.25Zm2,.24c0-.42.42-.39.58-.62-.13-.37.26-1.3-.33-1.19C38.43,80.5,37.83,80.81,38.44,81.49Zm1.37.56c.25-.6.93-1.55.69-2.13C40.14,80.42,39.18,81.11,39.81,82.05Zm-3.44.4a.87.87,0,0,1-.61-.13c0,.45-.37.52-.42.92l.9,0c.11-.93,1.5-1.41,1.13-2.29-.21.29-.31.67-.88.63C36.62,81.93,36.73,82.23,36.37,82.45Zm-6.46.2c1.05.67,1.19-1.2.71-1.37C30.8,82.13,30.47,82.49,29.91,82.65Zm1.51.25c1.17.16,1.48-1.35.85-1.67C32.29,82.07,31.47,82.12,31.42,82.9Zm10.47-1.67c-.11,0-.29,0-.29.16C42.4,81.91,41.63,80.37,41.89,81.23Zm-9,1.93c.37,0,.73,0,.91.12.48-.45.42-1,.24-1.81h-.45C33.27,81.92,33.43,82.85,32.93,83.16Zm5.54-.77c-.15-.28.43-.52,0-.6C38.41,81.88,38.1,82.38,38.47,82.39Zm1.22.41c.52.11.57-.24,1-.18l0-.75C40.16,82,40,82.45,39.69,82.8Zm-4.66,0c-.16-.27.43-.51,0-.6C35,82.29,34.65,82.78,35,82.79Zm3.61.19c.6.16.77-.72.28-.76C38.77,82.43,38.79,82.78,38.64,83Zm-1.8.21c.44.11,1.32-.11.74-.47-.13.5-.3-.16-.46-.14C37.13,82.88,36.72,82.78,36.84,83.19Z"/><path class="cls-1" d="M51.66,2.19Z"/><path class="cls-1" d="M69.83,21.62Z"/><path class="cls-1" d="M70.73,21.59Z"/><path class="cls-1" d="M70,22.82Z"/><path class="cls-1" d="M69.9,23.72c.68.77-.29-.47,0,0Z"/><path class="cls-1" d="M70.67,24.45c.19.59.16-.6,0,0Z"/><path class="cls-1" d="M71.45,25.33c.42.78-.31-.56,0,0Z"/><path class="cls-1" d="M60.83,27c.1.09-.07-.07,0,0Z"/><path class="cls-1" d="M75.56,36.93c-1-.15-.32.47,0,0Z"/><path class="cls-1" d="M77.06,37Z"/><path class="cls-1" d="M74.67,37.25c.1.1-.07-.06,0,0Z"/><path class="cls-1" d="M49.46,38.47c.19.59.15-.59,0,0Z"/><path class="cls-1" d="M48.85,43.15c.1.1-.07-.06,0,0Z"/><path class="cls-1" d="M47.24,49.66Z"/><path class="cls-1" d="M67.39,45c.1.1-.07-.06,0,0Z"/><path class="cls-1" d="M62.77,46.18Z"/><path class="cls-1" d="M59.93,46.72Z"/><path class="cls-1" d="M64.28,46.59c-.4.47.44-.43,0,0Z"/><path class="cls-1" d="M67.44,46.79Z"/><path class="cls-1" d="M67.3,47.1c.19.58.16-.6,0,0Z"/><path class="cls-1" d="M72.45,48.29c-1-.14-.32.47,0,0Z"/><path class="cls-1" d="M66.92,49.21c.1.1-.07-.06,0,0Z"/><path class="cls-1" d="M65.13,49.72Z"/><path class="cls-1" d="M67.69,50.09c1.19.39-.82-.41,0,0Z"/><path class="cls-1" d="M68.75,50.21c-.12,0-.3,0-.3.16C68.57,50.33,68.75,50.35,68.75,50.21Z"/><path class="cls-1" d="M69.36,50.64Z"/><path class="cls-1" d="M70.12,50.77c.47.39-.43-.45,0,0Z"/><path class="cls-1" d="M45.68,52.71Z"/><path class="cls-1" d="M49.92,53.79Z"/><path class="cls-1" d="M49.18,54.11c.19.59.16-.6,0,0Z"/><path class="cls-1" d="M31.91,54.64c-.11,0-.29,0-.29.16C31.74,54.76,31.91,54.78,31.91,54.64Z"/><path class="cls-1" d="M34,54.72Z"/><path class="cls-1" d="M34.92,54.54c-1-.14-.32.47,0,0Z"/><path class="cls-1" d="M36.13,55Z"/><path class="cls-1" d="M73.08,54.43Z"/><path class="cls-1" d="M74.74,54.38c.47.4-.43-.44,0,0Z"/><path class="cls-1" d="M39.32,55.91c.1.1-.07-.06,0,0Z"/><path class="cls-1" d="M71.31,55.39c.19.59.16-.6,0,0Z"/><path class="cls-1" d="M73.74,56.07c.41-1.19-.34-.65,0,0Z"/><path class="cls-1" d="M62,55.82c-.4.47.44-.42,0,0Z"/><path class="cls-1" d="M46.85,56.59c.1.09-.06-.07,0,0Z"/><path class="cls-1" d="M62.62,56.11c-.4.46.44-.43,0,0Z"/><path class="cls-1" d="M71.33,56c.1.1-.07-.06,0,0Z"/><path class="cls-1" d="M61.58,56.44Z"/><path class="cls-1" d="M67.59,56.56c.19.58.16-.6,0,0Z"/><path class="cls-1" d="M73.59,56.22c-.4.58.57.65,0,0Z"/><path class="cls-1" d="M71.05,56.75c.19.59.16-.6,0,0Z"/><path class="cls-1" d="M63.25,57.29c.11.09-.06-.06,0,0Z"/><path class="cls-1" d="M69.11,57.11c.1.1-.07-.06,0,0Z"/><path class="cls-1" d="M64,57.57Z"/><path class="cls-1" d="M67.63,57.91Z"/><path class="cls-1" d="M73.05,58.19c-.19,1.13.09-.53,0,0Z"/><path class="cls-1" d="M67.66,58.81Z"/><path class="cls-1" d="M70.82,58.86c.1.1-.07-.06,0,0Z"/><path class="cls-1" d="M44.25,60.12c-.39.47.45-.42,0,0Z"/><path class="cls-1" d="M70.53,59.32c-.1.89.07-.6,0,0Z"/><path class="cls-1" d="M71.44,59.59c-.34,1,.52.67,0,0Z"/><path class="cls-1" d="M4.35,62.54c.11.09-.06-.06,0,0Z"/><path class="cls-1" d="M6.62,63.07c.11.1-.06-.06,0,0Z"/><path class="cls-1" d="M74.34,61c-.1.89.07-.61,0,0Z"/><path class="cls-1" d="M49.58,62.21c.1.1-.07-.06,0,0Z"/><path class="cls-1" d="M5.14,63.72c.1.09-.06-.06,0,0Z"/><path class="cls-1" d="M73.47,62.09c-.35.51.49-.38,0,0Z"/><path class="cls-1" d="M69.88,62.65c-.1.89.07-.61,0,0Z"/><path class="cls-1" d="M70.64,62.93c-.1.89.07-.61,0,0Z"/><path class="cls-1" d="M46,64.42c.1.1-.07-.06,0,0Z"/><path class="cls-1" d="M51.6,64.41Z"/><path class="cls-1" d="M51.9,64.4Z"/><path class="cls-1" d="M45.75,64.73c-.4.47.44-.42,0,0Z"/><path class="cls-1" d="M52.35,64.53c.11.1-.06-.06,0,0Z"/><path class="cls-1" d="M77.58,63.92c.1.09-.06-.07,0,0Z"/><path class="cls-1" d="M57.18,65c-.73-.4-.35.5,0,0Z"/><path class="cls-1" d="M59.89,65.21Z"/><path class="cls-1" d="M44.43,65.83Z"/><path class="cls-1" d="M46.4,66.37Z"/><path class="cls-1" d="M11.57,67.58c.1.09-.06-.06,0,0Z"/><path class="cls-1" d="M20.44,67.61c.47.4-.43-.45,0,0Z"/><path class="cls-1" d="M45.81,66.84Z"/><path class="cls-1" d="M16.69,67.87c.1.1-.07-.06,0,0Z"/><path class="cls-1" d="M13.55,68.42Z"/><path class="cls-1" d="M18.21,68.58c.11.09-.06-.06,0,0Z"/><path class="cls-1" d="M13.11,68.88c-.39.47.45-.42,0,0Z"/><path class="cls-1" d="M12.83,69.34c.1.1-.07-.06,0,0Z"/><path class="cls-1" d="M22.44,69.05c.19.59.15-.6,0,0Z"/><path class="cls-1" d="M45.27,68.81Z"/><path class="cls-1" d="M44.23,69.14Z"/><path class="cls-1" d="M32.84,70.09c.39.57.2-.51,0,0Z"/><path class="cls-1" d="M45.45,69.85Z"/><path class="cls-1" d="M34.65,70.33c.1.1-.07-.06,0,0Z"/><path class="cls-1" d="M82,69c.46.4-.43-.44,0,0Z"/><path class="cls-1" d="M38,70.53Z"/><path class="cls-1" d="M39.61,70.48c-.76.68.47-.29,0,0Z"/><path class="cls-1" d="M45.62,70.6c.2.59.16-.6,0,0Z"/><path class="cls-1" d="M82,69.49c.47.4-.42-.44,0,0Z"/><path class="cls-1" d="M20.86,71.5c.1.1-.07-.06,0,0Z"/><path class="cls-1" d="M10.5,72c-.39.47.45-.42,0,0Z"/><path class="cls-1" d="M18.46,71.73c.1.09-.06-.06,0,0Z"/><path class="cls-1" d="M45.64,71.2c.19.59.16-.6,0,0Z"/><path class="cls-1" d="M44.9,71.37c-.52,2.18.32.51,0,0Z"/><path class="cls-1" d="M18.18,72.49c.1.09-.06-.07,0,0Z"/><path class="cls-1" d="M43.91,73.36c.19.59.15-.6,0,0Z"/><path class="cls-1" d="M16.74,74.33c.19.59.15-.59,0,0Z"/><path class="cls-1" d="M42.26,73.71c.11.09-.06-.07,0,0Z"/><path class="cls-1" d="M16.17,75.4c.19.59.15-.6,0,0Z"/><path class="cls-1" d="M40,74.83c.1.09-.06-.06,0,0Z"/><path class="cls-1" d="M39.9,75.13Z"/><path class="cls-1" d="M45.61,75c-.1.89.07-.61,0,0Z"/><path class="cls-1" d="M39.78,75.89c.34-1-.49-.48,0,0Z"/><path class="cls-1" d="M42,76.42c.11.09-.06-.06,0,0Z"/><path class="cls-1" d="M45.67,76.91c-.39,1.9.13-.67,0,0Z"/><path class="cls-1" d="M81,76c.23.49.35-.6,0,0Z"/><path class="cls-1" d="M44.79,77.54c.19.59.15-.6,0,0Z"/><path class="cls-1" d="M20.93,78.71c-.35.52.49-.37,0,0Z"/><path class="cls-1" d="M44.8,78Z"/><path class="cls-1" d="M42.57,78.81c.19.58.15-.6,0,0Z"/><path class="cls-1" d="M38.82,79.07Z"/><path class="cls-1" d="M45,78.88c-.12,0-.3,0-.3.16C44.8,79,45,79,45,78.88Z"/><path class="cls-1" d="M41.39,79.44c.19.59.15-.59,0,0Z"/><path class="cls-1" d="M42,80.78Z"/><path class="cls-1" d="M42.79,81.05c-.1.9.07-.6,0,0Z"/><path class="cls-1" d="M75.52,80.21Z"/><path class="cls-1" d="M35.59,81.57Z"/><path class="cls-1" d="M37.41,82.27c-.39.47.45-.42,0,0Z"/><path class="cls-1" d="M41.32,82.15c.23.49.35-.6,0,0Z"/><path class="cls-1" d="M32.63,83.17c.11.09-.06-.06,0,0Z"/><path class="cls-1" d="M53.39,83.74c-.18,0-.43,0-.45.16C53.12,83.87,53.37,83.92,53.39,83.74Z"/><path class="cls-1" d="M53.61,7.24c-2.17,3.13-5.34,4.94-8,7.91.67-1.78,2.81-2.88,4.38-4.34C51.28,9.57,52.16,7.82,53.61,7.24Z"/><path class="cls-1" d="M24.38,4.52a7.94,7.94,0,0,1-3.45.41A8.13,8.13,0,0,1,24.38,4.52Z"/><path class="cls-1" d="M20.33,5c-.22.54-.87,0-1.18.63-.2,0-.24-.25-.46-.28C19.11,5.5,19.8,4.6,20.33,5Z"/><path class="cls-1" d="M16,6.73c-.14-.42.2-.4.13-.75.33-.36.66.08.91.27a131.24,131.24,0,0,1,16.34-1.1c-1.7.71-4.87.68-7,.36C22.56,6.25,20,6.26,16,6.73Z"/><path class="cls-1" d="M53.56,5.29c.16.11,0,1.12-.57,1.07C52.9,5.74,53.28,5.56,53.56,5.29Z"/><path class="cls-1" d="M48.89,9.94c.54-.9,1.5-1.41,2.19-2.17.24,0,.26.13.45.13C50.52,8.33,49.87,9.62,48.89,9.94Z"/><path class="cls-1" d="M27.74,16.14c-.28-.17-.88,0-1.06-.27.22-1.12,2.53-.61,3-.39-.57-3.09,4.62-3.39,5.52-1.37.12-2.46,2.56-3.74,5.13-4.36.34.44,1.28,1.06.65,1.63-.62.14-.31-.71-.92-.57s.07.84.19,1.19c-.05,1.56-.53,2.72-1.71,3.21a1.6,1.6,0,0,1,1.23,1c-.14,1-2.45,1.94-2.84.54-.09-.33.28-.22.29-.46-.19-.47-.93-.35-1.22-.71,0,.49.27.74.19,1.35-.43-.12-.39.22-.75.17.21-1-1.11-.37-1.09-1.17,0-.41.22-.52.45-.31-.28-1.93-4-1.22-4.36.13,0,.65.87,1,.5,1.64.71-.24,1.31-.21,1.79-.36,0,.39-.58.23-.58.62.66.1,1.16-.44,1.65-.05-.21.87-1.28.93-2.37,1-.15.1-.15.34-.44.31,3.22.09,7,.26,9.52,1.81-1.11.27-1.6,1.12-2.35,1.73.3.79.25.7-.27,1.21,1.12.2,1.61-1.26,2.35-1.88.12,1.2-.46.85-.7,1.68a.41.41,0,0,0,.44-.32c1,1.84-2.19.57-2.33,2.48.53.1.57-.24,1-.18,0,1.56-1.85,1.36-2.95,1.89-.35,2.89-4.83.94-6.75.2-.15-.47.11-.57.27-.76-.54-.4-1.47-.4-1.83-1,.56,0,.91-.71,1.47-1.1-.23-.32-1.16.1-.92-.72-.62.39-.68,1.31-1.62,1.4.75-1.92,2.75-2.67,3.93-4.18,0-.44-.71-.17-.91-.42-1.68.85-2.47,3.31-4.09,3.73.81-1.47,2.19-2.41,3-3.85-1.9.64-2.47,2.54-3.94,3.58-.5-.37-.17-.73-.49-1.34.4-.79,1.34-1.07,1.59-2,.28-.06.71.73.75,0,.5.3-.24.65-.28.92.46-.16.45-.75,1-.79a1.44,1.44,0,0,1,.11-1.35c1.66.09,2.48-.62,3.9-.42C30,18,27.81,18.23,27.74,16.14ZM36,14.24c.34-.06.61-.31.9,0,0,.34-.43.18-.44.46,1.45,1.43,3.27-.74,3.23-2.5,0-.62-.61-1.07-.5-1.64C37.56,11.23,35.39,12,36,14.24Zm-1.2.18c-.35-1.84-4.32-1.34-4.5.29C31.24,14.09,33.73,13.3,34.75,14.42Zm1.23,1c0-.35,0-.56-.32-.59A.67.67,0,0,0,36,15.44Zm-6.4,2c0-.6-.29-.83-.2-1.5-.47,0-.67-.32-1.21-.26C28.59,16.32,28.45,17.56,29.58,17.44Zm9-.88c-.13-.12-.42.12-.45.17C38,17,38.68,16.66,38.57,16.56Zm-8.75,3.88c.83.3,1.93-.17,1.63-.81C31,19.88,29.87,19.56,29.82,20.44Zm2,.24c1.28.17,1.63-.51,2.07-1.12C32.62,19.36,31.5,19.93,31.78,20.68Zm1.66.1c1.43.21,1.67.09,2.38-.83A1.7,1.7,0,0,0,33.44,20.78Zm2.68-.69c-.65,1.23-2,1.82-2.76,2.94,2.53.44,2.75-2.07,4.14-2.23A11.44,11.44,0,0,1,35.76,23c1.77.06,2.34-1,3.1-1.9A5.19,5.19,0,0,0,36.12,20.09Zm-6.53,2.46c.78-.38,2.14-.22,2.37-1.13-.2-.2-.72-.07-.91-.27C30.59,21.85,29.77,21.92,29.59,22.55Zm2.24-.22c.21.52,1-.1.92.42.6-.16.82-.68,1.17-1.09C32.89,21.48,32.21,21.59,31.83,22.33Zm-6.46-.11a.41.41,0,0,0,.44-.31A.42.42,0,0,0,25.37,22.22Zm4.08.78c.1.1-.07-.06,0,0Zm0,.9c.1.1-.07-.06,0,0Zm.75.13c.56.1,1.37.31,1.49-.35C31.21,23.78,30.29,23.51,30.23,24Zm3-.24c-.49-.09-.91-.19-1.19.34C33.57,23.92,34.37,24,33.23,23.79Zm4.5-.29c-.12,0-.3,0-.3.16C37.55,23.62,37.73,23.65,37.73,23.5Zm-2.55.23c-.11,0-.29,0-.29.16C35,23.85,35.18,23.88,35.18,23.73Zm.16.15Zm1.8-.06c.1.1-.07-.06,0,0Zm-2.93,2.49c1.43,0,1.74-.41,3-.39a2.53,2.53,0,0,1,.85-1.83C36.3,23.82,35.23,25.12,34.21,26.31Zm-2.4.23,2.1-.07C34,25.3,35,25,35.5,24.32,33.74,24.14,32.79,25.55,31.81,26.54ZM28.64,26c.55-.11.59.31,1.06.27.05-.78,1.27-1.23,1-1.83-.32.47-.85-.12-1.36,0C29.21,25.13,28.87,25.25,28.64,26Zm1.52.41c.43,0,1.18.38,1.5-.05-.37-.66,1.91-1.57,1.29-2C31.49,24.59,30.39,25.11,30.16,26.44Zm6,.11c-.52-.44-.44.57,0,0Zm.44-.16c-.11,0-.29,0-.29.16C36.43,26.51,36.62,26.54,36.61,26.39ZM33,26.8c0,.31-1.67.1-.74.32a9.6,9.6,0,0,0,3.14-.39C34.89,26.48,33.73,27.18,33,26.8ZM30.47,27c.11.09-.06-.06,0,0Zm1.36,0c-1-.15-.32.47,0,0Zm-1,.63Zm4.36-.13c-.75-.24-2.8.3-4.06,0C31.82,28.33,34.63,29,35.15,27.49Z"/><path class="cls-1" d="M53.09,9.81a3.1,3.1,0,0,1-.86,1.38c-2.28,2.23-5.2,4.45-7.3,7C46.82,15.18,50.2,12.34,53.09,9.81Z"/><path class="cls-1" d="M47.43,11.48c.38-.8-.27.58,0,0Z"/><path class="cls-1" d="M36.1,63.67c-.43-.44.47.4,0,0Z"/><path class="cls-1" d="M37.13,67.85c-.36.74-.92.21,0,0Z"/><path class="cls-1" d="M12.67,74.16c.41.12-.13.53-.13.75C12.26,74.91,12.65,74.35,12.67,74.16Z"/><path class="cls-1" d="M61.09,79.9c-.21,1-1.59,2.09-2.31,3.07C58.8,81.82,60.31,80.82,61.09,79.9Z"/><path class="cls-1" d="M65,79.93c.39.28-.36.72-.58.92C64.19,80.71,64.92,80.26,65,79.93Z"/><path class="cls-1" d="M69.54,81.14c.38.09-.21.46-.28.61C68.85,81.63,69.59,81.41,69.54,81.14Z"/></g></g></svg>